<svg id="b69b1242-d549-426c-9330-18110a424490" data-name="Layer 1" xmlns="http://www.w3.org/2000/svg" xmlns:xlink="http://www.w3.org/1999/xlink" width="325" height="325" viewBox="0 0 325 325">
  <defs>
    <style>
      .a8f1de17-06c9-44fe-8a68-8b1453573db3 {
        fill: none;
      }

      .b36e03da-2941-4186-b64f-9055a8ec7f7b {
        clip-path: url(#e7be71c5-7fb0-417c-8257-f7578b1b66b5);
      }

      .b1c5fa34-4c1c-4474-88cc-ba4c46107523 {
        fill: #fff8b6;
        stroke: #fff;
        stroke-miterlimit: 10;
        stroke-width: 12px;
      }

      .a7e6208e-fc1c-45c6-a146-1956afd1d34d {
        fill: #fff;
      }

      .ed73a936-4d46-4955-97c5-3d669a551907 {
        fill: #e6e2cf;
      }

      .af72b8e2-4724-43ad-9747-31f4c020f0bc {
        fill: #331409;
      }
    </style>
    <clipPath id="e7be71c5-7fb0-417c-8257-f7578b1b66b5">
      <ellipse class="a8f1de17-06c9-44fe-8a68-8b1453573db3" cx="162.5" cy="162.5" rx="159" ry="158.79"/>
    </clipPath>
  </defs>
  <g class="b36e03da-2941-4186-b64f-9055a8ec7f7b">
    <ellipse class="b1c5fa34-4c1c-4474-88cc-ba4c46107523" cx="162.5" cy="162.5" rx="159" ry="158.79"/>
    <g>
      <path class="a7e6208e-fc1c-45c6-a146-1956afd1d34d" d="M135.91,102.68c28,.8,34,94.87-8.07,92.41S101.51,101.7,135.91,102.68Z"/>
      <path class="a7e6208e-fc1c-45c6-a146-1956afd1d34d" d="M182.63,93.34c28.46-8.93,64.56,84.06,21.24,102.73S152.9,102.68,182.63,93.34Z"/>
      <path class="ed73a936-4d46-4955-97c5-3d669a551907" d="M150.14,174.69c-2.55,7-11.78,19.17-28.35,15.49s-15.92-31.71-15.92-31.71.95,18.8,17.52,22.86A28.63,28.63,0,0,0,150.14,174.69Z"/>
      <path class="ed73a936-4d46-4955-97c5-3d669a551907" d="M220.22,144.09c2.87,17,.32,42.77-18.47,48.3s-26.76-14-26.76-14,15.61,17.32,32.17,1.84S220.22,144.09,220.22,144.09Z"/>
      <path class="af72b8e2-4724-43ad-9747-31f4c020f0bc" d="M136.68,104.06c12.94.57,17.82,19.71,19.43,31.77,2.08,15.51.81,34.24-7.91,47-8.39,12.24-26.19,15.45-36.29,4-10.27-11.68-9.35-32.46-5.77-47.19,3.9-16.11,14.11-35.78,30.54-35.52,1.26,0-.66-2.74-1.54-2.75-15.71-.25-25.9,16.8-30.46,32.32C99.92,149.82,99,171,108.79,185.08c9.18,13.15,27.6,15.61,38.62,4.1,11.32-11.81,13.21-32.71,11.46-49.2-1.55-14.68-8.06-38-23.73-38.67C133.9,101.25,135.8,104,136.68,104.06Z"/>
      <path class="af72b8e2-4724-43ad-9747-31f4c020f0bc" d="M183.26,95c15-4.45,27,16,32.39,29.13,7,17,11.39,40.46,1.88,57.36-8,14.2-26.48,20.75-37.85,8.18-10.87-12-13.75-32.76-13.8-49.34,0-9.76,1-19.93,4.21-29,2.45-7,6.56-14.11,13.17-16.29,1.25-.41-.25-3.62-1.25-3.29-14.22,4.69-17.62,27.12-18.2,41.6-.75,18.58,2.13,40.11,12.5,55,4.29,6.16,10.19,10.79,17.14,11.42,8.17.75,16.9-3.73,22.54-10.42,13.13-15.54,10-41.08,3.68-59.42-3.7-10.8-9.11-21.28-16.48-29.27-5.6-6.07-13.27-11.27-21.18-8.92C180.76,92.07,182.24,95.29,183.26,95Z"/>
      <path class="af72b8e2-4724-43ad-9747-31f4c020f0bc" d="M230.37,169c1.42,7.56,7,13.74,13.85,13.6,7.48-.15,14.23-8,18.4-14.53.73-1.15-2.21-2.46-2.82-1.5-3.33,5.21-7.88,10.58-13.14,13-6.6,3-11.87-2.79-13.23-10-.22-1.2-3.3-1.87-3.06-.57Z"/>
      <path class="af72b8e2-4724-43ad-9747-31f4c020f0bc" d="M93.72,182.64c-.06,6.7-4.79,13.94-11.65,12.61-6.09-1.18-11.91-6.11-16.22-11.05-.86-1-4.34.58-3.43,1.63,5.54,6.36,13.84,12.93,22,11.8,7.21-1,12.92-7.59,13-16.14,0-1.18-3.68-.43-3.69,1.15Z"/>
      <path class="af72b8e2-4724-43ad-9747-31f4c020f0bc" d="M82.71,196.79c2.49,6.88,7,13.17,11.39,18.44,11.43,13.57,26.46,22.22,42.25,26.74,34.87,10,82.09,4.76,102.08-34.62,3.69-7.28,6.9-15.83,7.64-24.34.21-2.31-6.07-3.5-6.25-1.4-1.86,21.2-15.69,40.53-31.46,50.17-18.94,11.59-42.51,13.09-63.32,9.05-15.82-3.07-31.12-10.51-42.92-23.29-5.2-5.63-10.45-12.51-13.24-20.22-.75-2.08-6.9-2.54-6.17-.53Z"/>
      <path class="af72b8e2-4724-43ad-9747-31f4c020f0bc" d="M131.23,260.49c6.76,6,15.54,9.91,23.8,11.92,18.49,4.52,36.81-1.38,52.13-13.76,1.74-1.41-.2-2.32-1.48-1.29-15.16,12.26-33.26,17.44-51.36,12-7.16-2.14-14.61-5.62-20.52-10.9-.89-.79-3.57,1.12-2.57,2Z"/>
      <path class="af72b8e2-4724-43ad-9747-31f4c020f0bc" d="M88.69,99.83a99.32,99.32,0,0,1,9.38-17,63.76,63.76,0,0,1,13.12-14.44,45,45,0,0,1,8.6-5.61,17.63,17.63,0,0,1,5.13-1.49,15.81,15.81,0,0,1,5.47.3,18.13,18.13,0,0,1,5.18,2.07,19.36,19.36,0,0,1,4.34,3.56,20.36,20.36,0,0,1,4.94,10,.83.83,0,0,1-.54,1,.69.69,0,0,1-.32,0h0a77.86,77.86,0,0,0-8.26-2.29,27.58,27.58,0,0,0-3.42-.41,26.58,26.58,0,0,0-3.12.09c-2,.18-4,.38-6.22.63a20.06,20.06,0,0,0-7,2,52.73,52.73,0,0,0-6.9,4.28c-2.27,1.63-4.52,3.44-6.71,5.37a131.44,131.44,0,0,0-12.63,12.86v0a.56.56,0,0,1-.87,0A.8.8,0,0,1,88.69,99.83Z"/>
      <path class="af72b8e2-4724-43ad-9747-31f4c020f0bc" d="M166.41,72.81a19,19,0,0,1,.59-3.18,25.47,25.47,0,0,1,1-3,28.34,28.34,0,0,1,3-5.44,25.52,25.52,0,0,1,9.15-8.06A21.21,21.21,0,0,1,183,52a16,16,0,0,1,2.95-.7c.5-.08,1-.13,1.51-.18s1,0,1.5,0l1.51.05,1.48.23a37.16,37.16,0,0,1,10.86,4.11,48,48,0,0,1,9,6.58c.67.64,1.31,1.31,2,2s1.31,1.29,1.9,2l1.8,2.1c.29.35.6.69.88,1l.84,1.1A112.89,112.89,0,0,1,230.68,89a.77.77,0,0,1-.23,1,.54.54,0,0,1-.72-.1h0a145.13,145.13,0,0,0-14.6-14.37l-.94-.81c-.31-.26-.65-.49-1-.74l-1.94-1.46c-.64-.51-1.31-.92-2-1.37s-1.31-.88-2-1.3l-2-1.15c-.34-.18-.66-.39-1-.56l-1-.47c-.67-.31-1.33-.69-2-.93l-2-.76a18.53,18.53,0,0,0-8-.71c-2.52.3-4.82.71-7.29,1.21A40.2,40.2,0,0,0,176.22,69c-2.74,1.22-5.6,2.77-8.79,4.54l-.06,0a.63.63,0,0,1-.9-.36A1.07,1.07,0,0,1,166.41,72.81Z"/>
      <path class="af72b8e2-4724-43ad-9747-31f4c020f0bc" d="M144.78,147.7a3.14,3.14,0,0,0-2.18.33c1,.83,1.43,3.25,1,5.9-.56,3.08-2.13,5.31-3.5,5s-2-3-1.52-6a26,26,0,0,0-2.06,6.55c-1.33,7.31.25,13.88,3.51,14.67s7-4.49,8.31-11.79S148,148.49,144.78,147.7Z"/>
      <path class="af72b8e2-4724-43ad-9747-31f4c020f0bc" d="M182.83,146.56a3.4,3.4,0,0,0-2,1.15c1.2.4,2.3,2.51,2.62,5.19.37,3.12-.45,5.83-1.85,6s-2.75-2-3.17-5a27.89,27.89,0,0,0,0,7c.89,7.4,4.28,13,7.59,12.44s5.27-7,4.38-14.35S186.14,146,182.83,146.56Z"/>
    </g>
  </g>
</svg>
