<svg id="b1fe7df9-9ef3-464d-9061-19dc7bc6eaaa" data-name="Layer 1" xmlns="http://www.w3.org/2000/svg" xmlns:xlink="http://www.w3.org/1999/xlink" width="500" height="525" viewBox="0 0 500 525">
  <defs>
    <style>
      .f2b2b3fd-1e3c-41ca-aedf-32e233f2fdcb {
        fill: none;
      }

      .bf3cbede-6a6b-4a6f-89b9-1e4b76b7ea66 {
        clip-path: url(#a53fef13-a877-4d6b-83f7-a97e4559cc51);
      }

      .a8be4fde-adf2-4ab8-abf6-dbaebfa34cfc {
        fill: #d34f68;
        fill-rule: evenodd;
      }

      .f97b9f90-b410-46ac-bee2-58b636bbaa89 {
        fill: #6a5e2b;
      }

      .e1ae1ca6-6ca5-44ce-9be3-a7fb9515a56c {
        clip-path: url(#ed304500-92aa-47bb-a1d2-5b799bbf0e5a);
      }

      .ae766550-5733-4edd-9fe8-bf7257d0a12e {
        fill: #9dc95f;
      }

      .b7ccd1f9-de61-4429-b394-108d4568080d {
        fill: #5cc639;
      }

      .b3b476ce-895b-4223-aeb8-cc707ce8cb9a {
        opacity: 0.11;
      }

      .a7eff64c-c654-4c12-b98e-56c975b7f035, .bf7ad96f-ce4d-4bc8-982a-4da23075c3cf, .fb1142c4-9576-485b-897f-fc6537ddb7e4 {
        fill: #f9d1c6;
      }

      .ab002be8-3c5d-4286-806c-7de30410fdb7, .b18fa481-432a-4ee6-ba98-c058bf01ac6d, .bf7ad96f-ce4d-4bc8-982a-4da23075c3cf {
        stroke: #875933;
      }

      .ab002be8-3c5d-4286-806c-7de30410fdb7, .ab19edbf-3947-41d4-b22d-0dda7733203e, .b18fa481-432a-4ee6-ba98-c058bf01ac6d, .bf6a1649-5923-4b10-b2a3-50d248fdd64b, .bf7ad96f-ce4d-4bc8-982a-4da23075c3cf, .fb1142c4-9576-485b-897f-fc6537ddb7e4 {
        stroke-miterlimit: 10;
      }

      .a05f221d-6f27-496c-a207-16504ab33f98 {
        fill: #fff;
      }

      .ab002be8-3c5d-4286-806c-7de30410fdb7 {
        fill: #ed3a3a;
      }

      .e93fb72a-3663-4ef5-878d-ac78e5aa74b6 {
        fill: #992020;
      }

      .f1cb5e3d-f0b9-4e23-8c73-9c35b3e31911 {
        fill: #d3dae5;
      }

      .bf6a1649-5923-4b10-b2a3-50d248fdd64b {
        fill: #c9401b;
        stroke: #60261e;
      }

      .be0720d9-88b3-4ea3-9b7c-969a4d2bb1c2 {
        fill: #7c2713;
      }

      .e2ccf86b-59c1-45f7-a79b-805b742da6b5 {
        opacity: 0.37;
      }

      .a587ca5f-51cc-47e5-8965-e48e05c1dcde {
        fill: #a02b10;
      }

      .b18fa481-432a-4ee6-ba98-c058bf01ac6d {
        fill: #efcac2;
      }

      .ab19edbf-3947-41d4-b22d-0dda7733203e {
        fill: #c061f2;
        stroke: #540b54;
      }

      .bdb86f8d-e776-44f7-8593-7abfc248a9d7 {
        fill: #84078e;
      }

      .e3f1a040-1309-43ec-ad6d-608516e4bd1f {
        fill: #ffc19f;
      }

      .a4096667-8696-49d9-a483-066ee14a1f7e {
        fill: #420000;
        opacity: 0.2;
      }

      .bef016b0-19ff-49dd-8033-e9be1d5aa848 {
        fill: #e0956c;
      }

      .fed01fb6-9fb2-416f-ad48-ed69454cf62a {
        fill: #875933;
      }

      .fb1142c4-9576-485b-897f-fc6537ddb7e4 {
        stroke: #875d33;
      }

      .b3c9c9e5-82ff-454b-89c6-087fc2830d8a {
        fill: #897f33;
      }

      .bdbeca4a-9f05-4ce8-890f-d986f0e85f2e {
        fill: #d3978c;
      }

      .af2dbd0e-5e54-4217-819c-6f1e680a03d6 {
        fill: #4f4726;
      }

      .a2165820-d7c6-4761-8fc4-d1495bd81e32 {
        fill: #2b2716;
      }

      .f4a868a7-7928-4a34-a0e7-c9e2220271b7 {
        fill: #240d00;
      }

      .b4d4f431-55ab-4f6a-aa25-bad6b4067aa3 {
        fill: #f5968e;
      }

      .bb5836c3-6667-40b7-ba53-1d157ae568c3 {
        fill: #721f33;
      }

      .a62274c6-7d79-4cab-bb04-dc5a62012cde {
        fill: #f4edef;
      }

      .b2c1fd71-9b2e-456d-9593-01a30e4bcf0d {
        fill: #e03859;
      }

      .ea21e765-c54e-4cdb-afff-0c899c9342ce {
        fill: #d26653;
      }

      .a068fd93-71b3-44ef-900e-e533c0646881 {
        fill: #5d5e5e;
      }

      .e47ba1f4-8d6b-4234-a7c5-203cb1bb5bad {
        fill: #242e33;
      }

      .b6455eaf-17b1-4d6d-a666-628f61ffc9be {
        fill: #050505;
        opacity: 0.16;
      }

      .e80c26fc-13c9-4dc7-821c-27cef8c26d52 {
        fill: #8db8d8;
      }
    </style>
    <clipPath id="a53fef13-a877-4d6b-83f7-a97e4559cc51">
      <path class="f2b2b3fd-1e3c-41ca-aedf-32e233f2fdcb" d="M978.31-148.32c-3.19.51-6.39.93-9.55,1.32-76.38,9.45-163.92,9.55-240.33.31-16.73-2-34.47-5-47-16.25-13.81-12.44-18.08-32.06-21.2-50.38A1244.93,1244.93,0,0,1,642.74-438c.36-28.16-5.65-83.64,10-108.3,14.09-22.2,45.84-30.59,70-32.86,89.73-8.41,179-6.62,269.19-2.57,14.14.63,29,1.72,40.86,9.49,22.48,14.76,25.78,46.27,25.19,73.16-2.11,95.65-2.26,191.12-20.32,285.07-3.6,18.76-8.32,38.88-22.78,51.36C1004.84-154,991.64-150.43,978.31-148.32Z"/>
    </clipPath>
    <clipPath id="ed304500-92aa-47bb-a1d2-5b799bbf0e5a">
      <path class="f2b2b3fd-1e3c-41ca-aedf-32e233f2fdcb" d="M378.32,476.68c-3.19.51-6.39.93-9.55,1.32-76.38,9.45-163.92,9.55-240.33.31-16.73-2-34.47-5-47-16.25C67.64,449.62,63.37,430,60.25,411.68A1244.93,1244.93,0,0,1,42.75,187c.36-28.16-5.65-83.64,10-108.3C66.84,56.46,98.59,48.07,122.8,45.8c89.73-8.41,179-6.62,269.18-2.57,14.15.63,29,1.72,40.86,9.49C455.32,67.48,458.62,99,458,125.88,455.92,221.53,455.77,317,437.72,411c-3.61,18.76-8.33,38.88-22.79,51.36C404.85,471,391.65,474.57,378.32,476.68Z"/>
    </clipPath>
  </defs>
  <g class="bf3cbede-6a6b-4a6f-89b9-1e4b76b7ea66">
    <g>
      <path class="a8be4fde-adf2-4ab8-abf6-dbaebfa34cfc" d="M560.18,37.78q-7.59,11.05-27.32,0c-.17-3-.26-6.09-.26-9.19q-4-118.71-28.78-261.8c-.18-.8-.36-1.64-.53-2.53.17.89.35,1.73.53,2.53Q528.6-90.12,532.6,28.59c0,3.1.09,6.17.26,9.19q-8.79,12.39-26.37,0-5.73,6.39-12.93,0l.27-271V-574.55H676.22Q664-464.22,610.41-369.77A674.59,674.59,0,0,1,563-298q-4.93,6.66-22.65,29-9.2,11.73-28.51,30.25l-.27-.27a.38.38,0,0,1,.13.27.54.54,0,0,1,.14.4l.26.26q1.06,2.4,2.27,4.8,63.4,135,75.94,271-3.21,4.94-7.73,0c-.36-3-.75-6.09-1.2-9.19q-13.32-99-70.21-261.8Q568-70.4,581.36,28.59c.45,3.1.84,6.17,1.2,9.19Q574.84,46.57,560.18,37.78ZM528.6-268.65q-6.26,11.46-13.19,22.38l-1.33,2.13c-.44.63-.89,1.29-1.33,2,.44-.71.89-1.37,1.33-2l1.33-2.13q6.93-10.92,13.19-22.38Q597.75-393.88,598-570.28,597.76-393.89,528.6-268.65Zm-19.32,35.44v.13q35.58,143,49.83,261.67c.36,3.1.71,6.17,1.07,9.19-.36-3-.71-6.09-1.07-9.19Q544.86-90.12,509.28-233.08v-.13a20.77,20.77,0,0,1-.66-2.53A20.77,20.77,0,0,0,509.28-233.21Zm-5.73-35.44q-2.26,13-4.66,25.45,2.4-12.39,4.66-25.45,20.13-122.84,14.53-302.17Q523.67-391.49,503.55-268.65Zm11.6,0q-3.74,12.52-7.73,24.51,4-12,7.73-24.51,36-122.7,39.17-299.5Q551.11-391.36,515.15-268.65Zm16.92,0q-8.13,11.19-16.66,22.38,8.54-11.19,16.66-22.38Q648.91-431.33,644-570.82,648.92-431.32,532.07-268.65ZM506.62,28.59q3.06-120.58-8.53-261.8Q509.69-92,506.62,28.59c0,3.1-.05,6.17-.13,9.19C506.57,34.76,506.62,31.69,506.62,28.59Z"/>
      <path class="f97b9f90-b410-46ac-bee2-58b636bbaa89" d="M558.85,37.93c-.35-3-.71-6.08-1.06-9.19C548.34-50,531.58-137.95,508-232.76c0-.05,0-.12,0-.2a23.18,23.18,0,0,1-.65-2.52,1.34,1.34,0,0,1,1.05-1.57,1.33,1.33,0,0,1,1.56,1.05c.12.59.26,1.17.43,1.72a1.37,1.37,0,0,1,.36-.19,1.34,1.34,0,0,1,1.7.82C550.19-125.54,573.83-37.37,582.68,28.4c.44,3.12.85,6.19,1.2,9.22a1.33,1.33,0,1,1-2.64.31c-.36-3-.75-6.06-1.2-9.17-8.6-63.89-31.22-149-67.24-253.18,22.45,91.49,38.47,176.52,47.64,252.85.35,3.11.71,6.18,1.06,9.19a1.34,1.34,0,0,1-1.17,1.48h-.16A1.34,1.34,0,0,1,558.85,37.93Zm-27.32-.07c-.17-3-.26-6.15-.26-9.23-2.65-78.71-12.33-166.73-28.75-261.55-.18-.81-.36-1.66-.54-2.56a1.34,1.34,0,0,1,1-1.57,1.33,1.33,0,0,1,1.56,1.05c.18.88.36,1.71.54,2.56,16.46,95,26.15,183.15,28.8,262,0,3.07.09,6.13.26,9.11a1.33,1.33,0,0,1-1.25,1.41h-.08A1.34,1.34,0,0,1,531.53,37.86Zm-25.08,1.25a1.33,1.33,0,0,1-1.3-1.37c.09-3,.14-6.06.14-9.19,2-80-.84-168-8.53-261.65a1.33,1.33,0,0,1,1.22-1.44,1.36,1.36,0,0,1,1.44,1.22C507.12-139.57,510-51.44,508,28.59q0,4.68-.13,9.23a1.33,1.33,0,0,1-1.33,1.29ZM512-241a1.34,1.34,0,0,1-.42-1.84c.46-.73.92-1.42,1.33-2l1.32-2.12s0,0,0,0c4.59-7.23,9-14.73,13.15-22.31,45.77-82.9,69.06-184.17,69.24-301a1.34,1.34,0,0,1,1.33-1.33h0a1.34,1.34,0,0,1,1.33,1.34c-.18,117.27-23.59,219-69.58,302.27l-.55,1,1.76-2.43c77.36-107.69,114.93-209.08,111.67-301.34a1.33,1.33,0,0,1,1.28-1.38,1.34,1.34,0,0,1,1.38,1.29c3.28,92.86-34.45,194.8-112.17,303-5.39,7.43-11,15-16.63,22.36l-1.35,2.15c-.42.6-.85,1.24-1.28,1.93a1.35,1.35,0,0,1-1.13.62A1.3,1.3,0,0,1,512-241Zm-13.4-.89a1.32,1.32,0,0,1-1.06-1.56c1.59-8.18,3.16-16.73,4.66-25.41,13.34-81.42,18.22-183,14.5-301.91a1.34,1.34,0,0,1,1.29-1.37,1.39,1.39,0,0,1,1.38,1.29c3.71,119.09-1.18,220.84-14.55,302.44-1.5,8.7-3.07,17.27-4.66,25.47a1.34,1.34,0,0,1-1.31,1.08A1.07,1.07,0,0,1,498.64-241.9Zm8.36-1a1.34,1.34,0,0,1-.85-1.69c2.65-7.94,5.25-16.17,7.72-24.47,23.83-81.3,37-181.94,39.11-299.15a1.29,1.29,0,0,1,1.36-1.3,1.33,1.33,0,0,1,1.31,1.35c-2.13,117.44-15.33,218.33-39.23,299.86-2.48,8.33-5.08,16.59-7.74,24.56a1.35,1.35,0,0,1-1.26.91A1.54,1.54,0,0,1,507-242.87Z"/>
    </g>
  </g>
  <g class="e1ae1ca6-6ca5-44ce-9be3-a7fb9515a56c">
    <g>
      <g>
        <path class="ae766550-5733-4edd-9fe8-bf7257d0a12e" d="M49.07,436.74q-.69,7.35-1.37,14.7a102,102,0,0,0,4.92-17.93q-.1,8.08-.22,16.16c2.42-6.17,4.26-14.84,5.23-24.62-.05,7.73-.38,15.39-1,22.77.91-1.57,3.39-11.57,4.3-13.14,0,1.11-1.51,10.65-1.48,11.76,2.05-1.94,4.46-5.94,6.51-7.88-.4,2.65-2,12.28-1.85,15.31,2.15-1.08,5.09-10.46,5.93-17.13.09,3.29-.45,11.35-.37,14.64,1,2,3.06-3,3.45-5.92.42-3.11,4.7,12.29,4.33,12.32-2.44.21-17.61,5-26.35,6.45-1.86.31-9.75,3.72-10.31-4.73C40.56,455.6,48,440.19,49.07,436.74Z"/>
        <rect class="b7ccd1f9-de61-4429-b394-108d4568080d" x="37.73" y="452.06" width="457.23" height="43.76"/>
        <path class="ae766550-5733-4edd-9fe8-bf7257d0a12e" d="M482.8,441.68s-3.38.83-5.64,7c-.32.86.17-5.33-.21-5.76-.17-.21-.39,0-.57.29l-2.49,3.25a28.64,28.64,0,0,1,.19-7.39L470,444.37l.6-17.41a66.32,66.32,0,0,0-4.89,19.72c-.41-1.59-3.66-6.95-3.35-5.18,1.18,6.6,1.85,12.9,2,13.43.55,1.94.76,2,1.66,1.91,2-.11,4-2.1,6.11-2,2.48.15,6,1.18,8.45,1.54C480.59,454.15,480.77,444.37,482.8,441.68Z"/>
        <path class="b7ccd1f9-de61-4429-b394-108d4568080d" d="M324.73,440a57.77,57.77,0,0,0-2.52,14.63c0,1.14-1.47-10-1.67-9.84-.9.72-2.29,5.64-3.19,6.35-.24-2.41,2.14-12.9,2.57-15.08-1.46,1.16-5.19,10.23-6.65,11.39q.44-8.43.88-16.87a45.34,45.34,0,0,0-5.49,17.33c-.41-1.73-8.48-11.85-7.88-10.43,3.57,8.43,4.51,20.11,4.66,20.69.56,2.14,2.46-.46,3.41-.14,2.12.73,4.32-.37,6.54.63,2.63,1.18,10.31-1.09,12.93.3C328.35,456.75,324.56,450.14,324.73,440Z"/>
        <path class="ae766550-5733-4edd-9fe8-bf7257d0a12e" d="M455.85,435.81a58.26,58.26,0,0,0-2.52,14.62c0,1.14-1.47-10-1.67-9.83-.9.71-2.28,5.63-3.18,6.35-.24-2.41,2.13-12.91,2.57-15.09-1.47,1.17-5.19,10.23-6.66,11.39q.45-8.43.89-16.86a45.11,45.11,0,0,0-5.49,17.33c-.41-1.73-8.49-11.85-7.89-10.43,3.58,8.42,4.52,20.1,4.67,20.69.56,2.14,2.45-.47,3.41-.14,2.12.73,4.32-.37,6.53.62,2.64,1.19,10.32-1.08,12.94.31C459.47,452.57,455.68,446,455.85,435.81Z"/>
      </g>
      <g>
        <ellipse class="b3b476ce-895b-4223-aeb8-cc707ce8cb9a" cx="313.9" cy="480.35" rx="120.42" ry="8.55"/>
        <g>
          <path class="bf7ad96f-ce4d-4bc8-982a-4da23075c3cf" d="M406.6,359c.87-.26,9.35,25.49,8.33,25.91-8.83,3.67-27.11,9.85-32.26,11.9l-9.09-27.5C382.76,366.79,400.31,360.87,406.6,359Z"/>
          <path class="a05f221d-6f27-496c-a207-16504ab33f98" d="M412.29,355.27c.46-.11,10.88,29.68,10.37,29.94-4.49,2.27-14.06,5.43-16.69,6.66l-11.15-31.82C400.09,358.76,408.94,356.08,412.29,355.27Z"/>
          <g>
            <path class="ab002be8-3c5d-4286-806c-7de30410fdb7" d="M418.05,392.32c-1.73.31-4.08.37-6.17.55-1.56.13-7.49-12.84-4.35-14.39a22.1,22.1,0,0,1,2.22-.94c-1-2.22-2.2-4.59-3.5-7.07a134.75,134.75,0,0,0-7.81-13.28c4.9-2.61,13.76-6.31,19.22-9.16,0,0,38.18,52.28,34.17,65.31C450.7,417,433.39,407.57,418.05,392.32Z"/>
            <path class="e93fb72a-3663-4ef5-878d-ac78e5aa74b6" d="M414.2,349.74c1.24-.59,2.43-1.17,3.46-1.71,0,0,38.18,52.28,34.17,65.31-.16.51-.64.77-1.4.78C446.31,396.64,423.42,362.87,414.2,349.74Z"/>
            <path class="f1cb5e3d-f0b9-4e23-8c73-9c35b3e31911" d="M421,386.23a.88.88,0,0,0,0-.82.88.88,0,0,0-1.57,0,10.79,10.79,0,0,0,.73,11.26.89.89,0,0,0,1.41-1.1A8.88,8.88,0,0,1,421,386.23Zm3.9,3.13a.9.9,0,0,0-1.67-.65,12.51,12.51,0,0,0,1,11.25.89.89,0,0,0,1.23.28.87.87,0,0,0,.28-1.23A10.56,10.56,0,0,1,424.93,389.36Zm5,14.41a.88.88,0,0,0,.21-1.24c-1.78-2.44-2.15-6.58-1-10a.94.94,0,0,0-.05-.7.87.87,0,0,0-.51-.43.89.89,0,0,0-1.13.55c-1.34,3.94-.85,8.71,1.22,11.62A.89.89,0,0,0,429.93,403.77Z"/>
          </g>
        </g>
        <g>
          <path class="bf7ad96f-ce4d-4bc8-982a-4da23075c3cf" d="M266.86,462.93c0,.77-29,1.78-29.12.85-1-8.12-1.56-24.6-2-29.32l31-1.1C266.36,441.5,266.92,457.32,266.86,462.93Z"/>
          <path class="a05f221d-6f27-496c-a207-16504ab33f98" d="M269,465.54c0,.47-32.82,1.41-32.92.83-.82-5-.92-15-1.3-17.92l35-1C269.35,452.86,269.21,462.11,269,465.54Z"/>
          <g>
            <path class="ab002be8-3c5d-4286-806c-7de30410fdb7" d="M230.63,457.85c.43-1.71,1.33-3.88,2-5.86.52-1.47,14.78-1.58,14.91,1.93a20.5,20.5,0,0,1,0,2.4c2.44,0,5.09-.12,7.88-.29a135.83,135.83,0,0,0,15.31-1.69c.38,5.53.12,15.14.49,21.29,0,0-63.32,13.43-73.57,4.44C194.74,477.54,210.44,465.6,230.63,457.85Z"/>
            <path class="e93fb72a-3663-4ef5-878d-ac78e5aa74b6" d="M271.06,471.77c0,1.37.07,2.69.14,3.86,0,0-63.32,13.43-73.57,4.44-.41-.36-.44-.91-.14-1.6C215.13,481.86,255.3,474.81,271.06,471.77Z"/>
            <path class="f1cb5e3d-f0b9-4e23-8c73-9c35b3e31911" d="M235,463.06a.89.89,0,0,0,.75.33.86.86,0,0,0,.5-.19.89.89,0,0,0,.15-1.25A10.78,10.78,0,0,0,225.8,458a.89.89,0,1,0,.42,1.73A8.89,8.89,0,0,1,235,463.06Zm-4.44,2.28a.87.87,0,0,0,.68.26.84.84,0,0,0,.57-.26.89.89,0,0,0,0-1.26,12.49,12.49,0,0,0-10.65-3.73.89.89,0,0,0-.76,1,.87.87,0,0,0,1,.76A10.55,10.55,0,0,1,230.53,465.34ZM215.33,464a.88.88,0,0,0,1,.7c2.95-.62,6.89.74,9.54,3.2a.83.83,0,0,0,.66.24.91.91,0,0,0,.6-.28.9.9,0,0,0,0-1.26c-3-2.83-7.6-4.34-11.09-3.65A.9.9,0,0,0,215.33,464Z"/>
          </g>
        </g>
        <path class="bf6a1649-5923-4b10-b2a3-50d248fdd64b" d="M388.24,361.47c2.2,6.3,7.56,27.14,9.48,34.37-31.81,11.9-60.38,20-65.57,11.74-9.78-15.64-12.25-21.85-18.48-31.65-6.65-10.45-19.57-8.06-25.73-3.19-11.44,9-17.53,14.73-18,19.94-1.26,14.69-.75,21.83-.28,46-10.25.19-27.46,2-36.49.58,0,0-5.19-47.17-4.41-56.47.83-9.86,11.69-22.66,31.66-63.65,17.32-1.33,64.81,3.39,83.29,6.2,5.67,13.9,9.26,26.81,15.15,42.1C360.14,370.71,366.72,367.67,388.24,361.47Z"/>
        <polyline class="bf6a1649-5923-4b10-b2a3-50d248fdd64b" points="298.31 367.99 294.7 362.93 294.7 352.63"/>
        <path class="be0720d9-88b3-4ea3-9b7c-969a4d2bb1c2" d="M341.53,319c3,7.8,6.72,18.46,10.79,30.38-.29.1-.54.26-.84.35a16.15,16.15,0,0,1-10-30.73Z"/>
        <path class="e2ccf86b-59c1-45f7-a79b-805b742da6b5" d="M287.44,319.69a200.13,200.13,0,0,0-27-.65c-5.64,10.79-10.52,19.39-14.67,26.47,36.71,12.67,80.41,16.14,104.73-1.65-2.24-6-3.63-11.24-6.08-16.86C330.42,324.59,308,321.4,287.44,319.69Z"/>
        <rect class="a587ca5f-51cc-47e5-8965-e48e05c1dcde" x="231.2" y="428" width="40.15" height="13.07" transform="translate(-13.31 7.98) rotate(-1.77)"/>
        <rect class="a587ca5f-51cc-47e5-8965-e48e05c1dcde" x="368.11" y="374.25" width="40.15" height="13.07" transform="translate(643.19 -99.48) rotate(73.52)"/>
        <path class="b18fa481-432a-4ee6-ba98-c058bf01ac6d" d="M321.52,319.81c5.28.28,10.5.76,15.73,1.54,9.54-17.58,14.19-32.54,13.27-38.75-1.47-10-19.37-29.92-46.22-37.39-4.46,7.54-10,14.16-14.71,21.54C327.64,279.07,334.64,281.34,321.52,319.81Z"/>
        <path class="ab19edbf-3947-41d4-b22d-0dda7733203e" d="M349.05,335.57c-21.61,20.67-70.46,18.92-104.26,11.37,2.14-15.71,3.05-51.07-4.24-84.07-1-4.42-2.11-9.83-.2-13.89,7.29-15.5,50.57-19.66,76.29-17.82C338.43,255.85,339.81,294.84,349.05,335.57Z"/>
        <path class="bdb86f8d-e776-44f7-8593-7abfc248a9d7" d="M298.29,238.4a14.33,14.33,0,0,0-2.64-8.05c-15.33,1.07-31.82,3.32-42,8.88.57,9.22,10.27,16.59,22.25,16.59C288.29,255.82,298.29,248,298.29,238.4Z"/>
        <path class="e3f1a040-1309-43ec-ad6d-608516e4bd1f" d="M254.11,214.53,259,243.45c1.05,6.22,9.8,9.93,19.55,8.28s16.81-8,15.76-14.24l-4.88-28.92Z"/>
        <path class="a4096667-8696-49d9-a483-066ee14a1f7e" d="M257.61,234.89a10.58,10.58,0,0,1-.46-3.15c10.56-3.7,22.66-8.11,34.44-10.36a8.89,8.89,0,0,1,.67,1.26c2.59,8-3.95,17.29-14.62,20.75S260.2,242.9,257.61,234.89Z"/>
        <path class="bf7ad96f-ce4d-4bc8-982a-4da23075c3cf" d="M247,312.61c-1.38.23-5.85-20-4.49-20.31,24-5.8,34.82-8.19,40.78-10.1,4-1.28,5.7-7.08,8.36-13.41,8.42,2.07,23.27,7.23,25.17,16.13.94,4.43-4.72,11.68-9.69,15.8C301,305.81,288.55,305.84,247,312.61Z"/>
        <path class="a4096667-8696-49d9-a483-066ee14a1f7e" d="M330.87,273.68c-.62,5.51-9.16,25.29-12.13,30.25-11.23-6.85-38.44-28.68-38.83-29.67,10.56-15,23.4-30.74,23.45-31.64C307.15,242.55,329.09,262,330.87,273.68Z"/>
        <path class="ab19edbf-3947-41d4-b22d-0dda7733203e" d="M335,258.5c1.17,7.73-3,16.87-17.45,40.82-11.77-5.27-35.78-24.68-36.16-25.63,10.17-14.39,28.65-41.93,28.69-42.8a51.57,51.57,0,0,1,10.84.92C328.81,237.8,333.3,247.22,335,258.5Z"/>
        <g>
          <path class="bf7ad96f-ce4d-4bc8-982a-4da23075c3cf" d="M227.57,299.13c2.35-1.82,7.79-3.38,3.19-5.83-5.5-2.92-8.68,4.25-11,2.32-.89-.75-1.45-10.18,9.19-15,5.54-2.49,16.08.45,25.68,10.25"/>
          <path class="bef016b0-19ff-49dd-8033-e9be1d5aa848" d="M223.61,291.68c.78,2.7,17.37.28,16.59-2.42s-3.9-3.39-8-3.09C227.6,286.5,222.83,289,223.61,291.68Z"/>
          <path class="bf7ad96f-ce4d-4bc8-982a-4da23075c3cf" d="M243.94,284.92c-5.35,1-11.82,9.36-19.26-.78-1.41-1.91-7.39,3.55-6.33,7.32.83,1.74-1.47,1.9-.19,5.8.8,2.42,2.17,3.68,1.9,4.77-1.14,4.57,2.91,4.75,2.63,6.75-.4,2.87,1.94,4.35,3.41,5,4.16,1.92,13.43-.15,24-1.74"/>
          <g>
            <path class="a7eff64c-c654-4c12-b98e-56c975b7f035" d="M219,292.43s3.37,5.06,11.09,4.58"/>
            <path class="fed01fb6-9fb2-416f-ad48-ed69454cf62a" d="M219,292.43a16.49,16.49,0,0,0,2.46,1.85,15.29,15.29,0,0,0,2.68,1.35,17.54,17.54,0,0,0,2.89.87c1,.23,2,.34,3.06.51a10.24,10.24,0,0,1-3.17.26,10.43,10.43,0,0,1-3.15-.71,10.22,10.22,0,0,1-2.77-1.65A7.38,7.38,0,0,1,219,292.43Z"/>
          </g>
          <g>
            <path class="a7eff64c-c654-4c12-b98e-56c975b7f035" d="M220.4,300.92s3.37,5.06,11.08,4.58"/>
            <path class="fed01fb6-9fb2-416f-ad48-ed69454cf62a" d="M220.4,300.92a17,17,0,0,0,2.45,1.86,16.5,16.5,0,0,0,2.69,1.35,17.7,17.7,0,0,0,2.88.86c1,.23,2,.34,3.06.51a9.64,9.64,0,0,1-3.17.26,10.66,10.66,0,0,1-3.14-.7,9.86,9.86,0,0,1-2.77-1.66A7.26,7.26,0,0,1,220.4,300.92Z"/>
          </g>
          <g>
            <path class="a7eff64c-c654-4c12-b98e-56c975b7f035" d="M222.66,307.37s3.79,4.75,11.43,3.61"/>
            <path class="fed01fb6-9fb2-416f-ad48-ed69454cf62a" d="M222.66,307.37a18,18,0,0,0,2.61,1.64,16.62,16.62,0,0,0,2.78,1.11,18.18,18.18,0,0,0,2.95.62c1,.14,2,.16,3.09.24a9.76,9.76,0,0,1-3.13.54,10.46,10.46,0,0,1-3.19-.44,10.06,10.06,0,0,1-2.91-1.41A7.54,7.54,0,0,1,222.66,307.37Z"/>
          </g>
        </g>
        <g>
          <g>
            <path class="fb1142c4-9576-485b-897f-fc6537ddb7e4" d="M211.4,163.83a17.18,17.18,0,0,0-8.09-14c-8.21-5-13.1,9.37-9,21.42s12.69,14.54,16.6,11"/>
            <g>
              <g>
                <path class="a7eff64c-c654-4c12-b98e-56c975b7f035" d="M207.41,175.48s-5.13-18.15-13.26-14"/>
                <path class="b3c9c9e5-82ff-454b-89c6-087fc2830d8a" d="M207.36,175.5a46.51,46.51,0,0,0-2-5,31,31,0,0,0-2.64-4.67,14.37,14.37,0,0,0-3.63-3.7,5.48,5.48,0,0,0-2.3-.91,6,6,0,0,0-2.57.29l-.05-.09a4.81,4.81,0,0,1,2.65-.89,5.3,5.3,0,0,1,2.8.75,11.4,11.4,0,0,1,3.77,4.11,37.92,37.92,0,0,1,4.11,10.09Z"/>
              </g>
              <g>
                <path class="a7eff64c-c654-4c12-b98e-56c975b7f035" d="M203.28,165.36s-4.58,1.13-4.37,10.59"/>
                <path class="b3c9c9e5-82ff-454b-89c6-087fc2830d8a" d="M203.29,165.41a4.86,4.86,0,0,0-2.15,2,8.76,8.76,0,0,0-1.14,2.69c-.26.95-.29,1.94-.48,2.91-.06.49-.16,1-.25,1.47A11.91,11.91,0,0,1,199,176h-.1a10.08,10.08,0,0,1-.33-3.09,9,9,0,0,1,.23-1.54c.17-.5.27-1,.48-1.5a9.22,9.22,0,0,1,1.5-2.75,5.17,5.17,0,0,1,2.53-1.76Z"/>
              </g>
            </g>
          </g>
          <path class="fb1142c4-9576-485b-897f-fc6537ddb7e4" d="M327.32,175.23c-8.43,35.34-37.24,56.71-68.1,56.71s-64.34-20.34-55.61-71.51c2.21-12.9,5.49-35.5,3.47-44.38-3.73-16.34-8.7-14.15,24.55-21.09C328.41,74.77,335.5,140.92,327.32,175.23Z"/>
          <path class="bdbeca4a-9f05-4ce8-890f-d986f0e85f2e" d="M311,115.16s-54.59-9.2-93.8,7.87l-12,22.35-.63-53.83,59.17-11,59.18,20.78,9.44,48.47-14.79,33.69s1.57-17-5.35-31.48S311,115.16,311,115.16Z"/>
          <g>
            <g>
              <g>
                <ellipse class="a05f221d-6f27-496c-a207-16504ab33f98" cx="225.25" cy="159.35" rx="10.41" ry="14.09"/>
                <path class="af2dbd0e-5e54-4217-819c-6f1e680a03d6" d="M235.71,159.35a17.56,17.56,0,0,1-2.44,9.29,12,12,0,0,1-3.3,3.63,8.72,8.72,0,0,1-4.72,1.64,9,9,0,0,1-4.9-1.37,11.89,11.89,0,0,1-3.63-3.57,18,18,0,0,1,0-19.24,11.86,11.86,0,0,1,3.63-3.56,8.41,8.41,0,0,1,9.62.26,12.29,12.29,0,0,1,3.3,3.63A17.56,17.56,0,0,1,235.71,159.35Zm-.1,0a17.39,17.39,0,0,0-2.54-9.17,11.67,11.67,0,0,0-3.32-3.43,8.23,8.23,0,0,0-4.5-1.41,8.33,8.33,0,0,0-4.51,1.42,11.37,11.37,0,0,0-3.29,3.44,17.87,17.87,0,0,0,0,18.3,11.37,11.37,0,0,0,3.29,3.44,8.33,8.33,0,0,0,4.51,1.42,8.23,8.23,0,0,0,4.5-1.41,11.55,11.55,0,0,0,3.32-3.43A17.39,17.39,0,0,0,235.61,159.35Z"/>
              </g>
              <ellipse class="a2165820-d7c6-4761-8fc4-d1495bd81e32" cx="223.1" cy="164.54" rx="5.93" ry="6.99"/>
              <ellipse class="a05f221d-6f27-496c-a207-16504ab33f98" cx="225.75" cy="160.12" rx="1.52" ry="2"/>
            </g>
            <g>
              <g>
                <ellipse class="a05f221d-6f27-496c-a207-16504ab33f98" cx="271.03" cy="159.35" rx="10.41" ry="14.09"/>
                <path class="af2dbd0e-5e54-4217-819c-6f1e680a03d6" d="M281.5,159.35a17.57,17.57,0,0,1-2.45,9.29,11.91,11.91,0,0,1-3.3,3.63,8.67,8.67,0,0,1-4.72,1.64,8.94,8.94,0,0,1-4.89-1.37A12,12,0,0,1,262.5,169a18,18,0,0,1,0-19.24,11.75,11.75,0,0,1,3.63-3.56,8.86,8.86,0,0,1,4.89-1.38,8.75,8.75,0,0,1,4.72,1.64,12,12,0,0,1,3.3,3.63A17.57,17.57,0,0,1,281.5,159.35Zm-.1,0a17.4,17.4,0,0,0-2.55-9.17,11.52,11.52,0,0,0-3.31-3.43,7.88,7.88,0,0,0-9,0,11.52,11.52,0,0,0-3.3,3.44,17.93,17.93,0,0,0,0,18.3,11.52,11.52,0,0,0,3.3,3.44,7.88,7.88,0,0,0,9,0,11.4,11.4,0,0,0,3.31-3.43A17.4,17.4,0,0,0,281.4,159.35Z"/>
              </g>
              <ellipse class="a2165820-d7c6-4761-8fc4-d1495bd81e32" cx="268.89" cy="164.54" rx="5.93" ry="6.99"/>
              <ellipse class="a05f221d-6f27-496c-a207-16504ab33f98" cx="271.54" cy="160.12" rx="1.52" ry="2"/>
            </g>
            <path class="af2dbd0e-5e54-4217-819c-6f1e680a03d6" d="M242.9,161.47a17.2,17.2,0,0,1,1,2.53,17.43,17.43,0,0,1,.67,2.65,18.59,18.59,0,0,1,.26,5.53,12.27,12.27,0,0,1-1.93,5.38,10.07,10.07,0,0,1-4.52,3.57l.5-.71a5.4,5.4,0,0,0,.71,2.79,5.07,5.07,0,0,0,2.1,2.08,10.22,10.22,0,0,0,3.06,1c.55,0,1.1.12,1.67.14s1.12,0,1.69,0l0,.09-1.7.17c-.57,0-1.14,0-1.71,0a9.49,9.49,0,0,1-3.31-.79,5.75,5.75,0,0,1-2.54-2.24,6.23,6.23,0,0,1-.91-3.29v-.05l.05,0a9.93,9.93,0,0,0,4.1-3.29,11.41,11.41,0,0,0,1.87-4.94,19.89,19.89,0,0,0,0-5.34,27.36,27.36,0,0,0-1.16-5.22Z"/>
            <path class="a2165820-d7c6-4761-8fc4-d1495bd81e32" d="M269,138.1s-2.24-7.39,6-8.06c7.12-.58,16.4,5.31,21.56,13.23a1.13,1.13,0,0,1-1.53,1.57C289.64,141.58,279,136.37,269,138.1Z"/>
            <path class="a2165820-d7c6-4761-8fc4-d1495bd81e32" d="M236.06,133.53s1.85-7.39-5-8.06c-5.9-.57-13.58,5.31-17.85,13.24-.54,1,.43,2.18,1.27,1.57C219,137,227.75,131.8,236.06,133.53Z"/>
          </g>
          <path class="f4a868a7-7928-4a34-a0e7-c9e2220271b7" d="M315,109.81s-35.88,5.3-51-6.35c0,0-9.13,8.5-23.92,3.46,0,0,0,11-22.35,9.76,0,0-12.28,24.87-12.59,33.37,0,0-16.69-28.65-6.93-53.51s35.26-40.61,75.23-43.76S333,78,337.71,92.13L338,75.76s6.3,8.5,3.15,17c0,0,4.09-3.78,11.64,3.15,0,0-9.12-.32-10.38,3.77,0,0,9.13,7.24,11.33,23.3s-3.46,44.38-16.05,54.45c0,0-12-1.57-16.06,6.61,0,0-6.92,5-2.52-8.18s-12-36.2-5.35-65.16Z"/>
          <g>
            <path class="fb1142c4-9576-485b-897f-fc6537ddb7e4" d="M316.9,185.82s2-9.14,15.43-13.67,17.14,10.23,8.16,22.14-22.37,13.9-27.29,10.07"/>
            <g>
              <g>
                <path class="a7eff64c-c654-4c12-b98e-56c975b7f035" d="M320,197.8s12-18,23.07-13.35"/>
                <path class="b3c9c9e5-82ff-454b-89c6-087fc2830d8a" d="M320,197.77a50.87,50.87,0,0,1,4.34-5.69,39.6,39.6,0,0,1,5.23-5,18,18,0,0,1,6.41-3.44,9.67,9.67,0,0,1,7.15.72l0,.09a11.55,11.55,0,0,0-6.84.15,22.47,22.47,0,0,0-6.2,3.13,38.61,38.61,0,0,0-5.34,4.65,49.85,49.85,0,0,0-4.63,5.41Z"/>
              </g>
              <g>
                <path class="a7eff64c-c654-4c12-b98e-56c975b7f035" d="M328.58,187.85s6.52,1.4,3.9,10.93"/>
                <path class="b3c9c9e5-82ff-454b-89c6-087fc2830d8a" d="M328.59,187.8a6,6,0,0,1,2.9,1.56,6.78,6.78,0,0,1,1.71,2.9,8,8,0,0,1,.36,3.36,15,15,0,0,1-.37,1.64,12.17,12.17,0,0,1-.66,1.53l-.09,0a12.49,12.49,0,0,1,.06-1.63c0-.54,0-1.06.07-1.58a15.14,15.14,0,0,0-.14-3.09,6.23,6.23,0,0,0-1.3-2.76,5.78,5.78,0,0,0-2.56-1.81Z"/>
              </g>
            </g>
          </g>
        </g>
        <g>
          <path class="b4d4f431-55ab-4f6a-aa25-bad6b4067aa3" d="M272.55,197.46s-6.64,19-21.36,19c0,0-16.31-1.31-17.37-22.44A37,37,0,0,0,272.55,197.46Z"/>
          <path class="bb5836c3-6667-40b7-ba53-1d157ae568c3" d="M272.58,197.12s-6,15.66-20.7,15.67a21.18,21.18,0,0,1-18.06-18.72A37.47,37.47,0,0,0,272.58,197.12Z"/>
          <path class="a62274c6-7d79-4cab-bb04-dc5a62012cde" d="M267.44,199.34a17.71,17.71,0,0,1-12.86,6.47,18.18,18.18,0,0,1-16.39-9.57S252.2,204.56,267.44,199.34Z"/>
          <path class="b4d4f431-55ab-4f6a-aa25-bad6b4067aa3" d="M272.86,197a39.63,39.63,0,0,1-19.67,3,67,67,0,0,1-19.37-5.93S252.8,209.3,272.86,197Z"/>
          <path class="b2c1fd71-9b2e-456d-9593-01a30e4bcf0d" d="M271.68,195.29a8.55,8.55,0,0,1,1.54,4.89S274.24,197,271.68,195.29Z"/>
          <path class="b2c1fd71-9b2e-456d-9593-01a30e4bcf0d" d="M236,191.64a8,8,0,0,0-2.75,4.52A4,4,0,0,1,236,191.64Z"/>
          <path class="ea21e765-c54e-4cdb-afff-0c899c9342ce" d="M261.64,210.12a8.56,8.56,0,0,0-9.06-2s-3.53-2.58-10.42.75C242.16,208.84,251.07,217.06,261.64,210.12Z"/>
        </g>
      </g>
      <g>
        <path class="a05f221d-6f27-496c-a207-16504ab33f98" d="M68.82,396A58.2,58.2,0,1,0,147,370.1,58.2,58.2,0,0,0,68.82,396Z"/>
        <path class="a068fd93-71b3-44ef-900e-e533c0646881" d="M120.73,480.76a58.66,58.66,0,1,1,52.51-32.32A58.3,58.3,0,0,1,120.73,480.76Zm.16-116.43a57.79,57.79,0,1,0,25.86,6.17A57.82,57.82,0,0,0,120.89,364.33Z"/>
        <polygon class="e47ba1f4-8d6b-4234-a7c5-203cb1bb5bad" points="135.29 434.02 108.47 434.02 100.4 410.38 121.99 396.66 142.04 410.14 135.29 434.02"/>
        <polygon class="a05f221d-6f27-496c-a207-16504ab33f98" points="145.97 452 135.29 434.02 142.04 410.14 160.44 404.8 173.36 422.78 165.21 447.08 145.97 452"/>
        <polygon class="a05f221d-6f27-496c-a207-16504ab33f98" points="76.86 448.49 70.26 422.64 82.76 405.08 100.4 410.38 108.47 434.02 97.23 452 76.86 448.49"/>
        <polygon class="a05f221d-6f27-496c-a207-16504ab33f98" points="108.22 470.47 97.23 452 108.47 434.02 135.29 434.02 145.97 452 134.59 470.47 108.22 470.47"/>
        <path class="e47ba1f4-8d6b-4234-a7c5-203cb1bb5bad" d="M82.76,405.09l-.42-18.7L70.45,393c-.56,1-1.11,2-1.63,3a58,58,0,0,0-5.71,18.62l7.15,8Z"/>
        <path class="a05f221d-6f27-496c-a207-16504ab33f98" d="M70.26,422.64l-7.15-8A58.36,58.36,0,0,0,77,460.41l-.15-11.92Z"/>
        <path class="e47ba1f4-8d6b-4234-a7c5-203cb1bb5bad" d="M97.23,452l-20.37-3.51L77,460.41a57.9,57.9,0,0,0,17.69,13.7c1.57.79,3.16,1.49,4.76,2.12l8.75-5.76Z"/>
        <path class="a05f221d-6f27-496c-a207-16504ab33f98" d="M108.21,470.47l-8.75,5.76a58,58,0,0,0,43.71-.4l-8.58-5.36Z"/>
        <path class="e47ba1f4-8d6b-4234-a7c5-203cb1bb5bad" d="M146,452l-11.38,18.47,8.58,5.36a57.86,57.86,0,0,0,21.7-15.67l.34-13.08Z"/>
        <path class="a05f221d-6f27-496c-a207-16504ab33f98" d="M165.21,447.08l-.34,13.08A58.2,58.2,0,0,0,179,419.7l-5.62,3.08Z"/>
        <path class="e47ba1f4-8d6b-4234-a7c5-203cb1bb5bad" d="M160.44,404.8l12.92,18L179,419.7a58.37,58.37,0,0,0-9.86-30.07l-8.68-3.51Z"/>
        <path class="a05f221d-6f27-496c-a207-16504ab33f98" d="M160.44,386.12l8.68,3.51A57.87,57.87,0,0,0,147,370.1,58.53,58.53,0,0,0,132,365l9.61,6.68Z"/>
        <path class="e47ba1f4-8d6b-4234-a7c5-203cb1bb5bad" d="M120.07,377.47l21.52-5.81L132,365a58.11,58.11,0,0,0-24.33.44l-5.78,6.52Z"/>
        <path class="a05f221d-6f27-496c-a207-16504ab33f98" d="M101.87,371.94l5.78-6.52A58.05,58.05,0,0,0,70.45,393l11.89-6.58Z"/>
        <g>
          <path class="b6455eaf-17b1-4d6d-a666-628f61ffc9be" d="M179.08,417.47c-7.45,28.89-35.7,50.42-69.51,50.42a76.27,76.27,0,0,1-33.13-7.5,58.43,58.43,0,0,0,44.29,20.37,58.73,58.73,0,0,0,52.51-32.32A57.92,57.92,0,0,0,179.08,417.47Z"/>
          <path class="e80c26fc-13c9-4dc7-821c-27cef8c26d52" d="M178.14,410.93a59.87,59.87,0,0,1,.94,6.54A57.53,57.53,0,0,0,178.14,410.93Z"/>
          <path class="e80c26fc-13c9-4dc7-821c-27cef8c26d52" d="M75.08,458.56c.48.6.86,1.26,1.36,1.83C75.94,459.82,75.56,459.16,75.08,458.56Z"/>
        </g>
      </g>
    </g>
  </g>
</svg>
