<svg id="f2b2c92a-a49c-493b-930c-597b099c0a0b" data-name="Layer 1" xmlns="http://www.w3.org/2000/svg" xmlns:xlink="http://www.w3.org/1999/xlink" width="500" height="525" viewBox="0 0 500 525">
  <defs>
    <style>
      .b063d71d-d33f-4089-bdc9-0c95c64251ce {
        fill: none;
      }

      .bcfb001e-36da-4914-8dab-1ce1c8c56d41 {
        clip-path: url(#a61ab9dd-df03-4999-8e48-b04a672b928c);
      }

      .a7a939a5-0384-49fe-8bee-4201a3fb8589, .b6c9c64f-afee-4eea-81c1-2c0d6d2e6d51, .ec0cd82d-c729-42f5-b013-de2f95870664, .f4626256-a8f5-4349-9690-d9871294b1f4 {
        fill: #f9d1c6;
      }

      .b6c9c64f-afee-4eea-81c1-2c0d6d2e6d51 {
        stroke: #323232;
      }

      .a1336e8f-4150-484c-95c0-670bbade436b, .a7a939a5-0384-49fe-8bee-4201a3fb8589, .b6c9c64f-afee-4eea-81c1-2c0d6d2e6d51, .bb832e0f-d3f5-4d7a-8850-7c86a5717dca, .bbedeb0e-edef-435a-85ee-2f20deeb53f0, .e0fc4d8e-69e2-47f3-a2d9-4030c6d3138d, .f1432628-4c44-41a9-aa29-a2fec85e7e4c, .f4626256-a8f5-4349-9690-d9871294b1f4, .fbf42499-4a06-4add-88fe-1aac24919c90 {
        stroke-miterlimit: 10;
      }

      .fbf42499-4a06-4add-88fe-1aac24919c90 {
        fill: #00b6c2;
        stroke: #0c7777;
        stroke-width: 2px;
      }

      .ac73b7d8-8b5c-44dc-a69c-0ca1619fc986 {
        opacity: 0.5;
      }

      .e0fc4d8e-69e2-47f3-a2d9-4030c6d3138d {
        fill: #00b2ed;
        stroke: #fff;
        stroke-width: 0.5px;
      }

      .a8472523-1c20-4474-a6f6-fe5dc34db480 {
        fill: #01687f;
      }

      .ea4365c4-0573-44b4-b76f-27d9b30836a7 {
        fill: url(#f017a4be-2811-44dc-8e60-2eefac029cc1);
      }

      .b3b73160-13ed-47a4-85b6-236d75d02041 {
        clip-path: url(#baa525c4-d9cf-49f9-bd34-6c3182c3c1a2);
      }

      .b820db05-b457-4605-864c-68b91ca3245a {
        fill: #9dc95f;
      }

      .adba484a-9e57-41f6-abf8-98ba97e26d91 {
        fill: #5cc639;
      }

      .b60e3b0a-4360-4ae7-9d5c-8964ba3f6b6f {
        opacity: 0.11;
      }

      .bb832e0f-d3f5-4d7a-8850-7c86a5717dca, .bbedeb0e-edef-435a-85ee-2f20deeb53f0, .f4626256-a8f5-4349-9690-d9871294b1f4 {
        stroke: #875933;
      }

      .ad6fa9b8-17a9-46eb-9477-7040873f285e {
        fill: #fff;
      }

      .bb832e0f-d3f5-4d7a-8850-7c86a5717dca {
        fill: #ed3a3a;
      }

      .f640d5fd-ef6d-4e7b-b761-49727c777c48 {
        fill: #992020;
      }

      .eab40d68-277f-4a85-a860-067a19dd5101 {
        fill: #d3dae5;
      }

      .a1336e8f-4150-484c-95c0-670bbade436b {
        fill: #c9401b;
        stroke: #60261e;
      }

      .a4c4ba3c-8838-4630-9ee4-35f4b28c2ab5 {
        fill: #7c2713;
      }

      .a4a149f6-06ed-4608-8e44-3ce040fbb47e {
        opacity: 0.37;
      }

      .e9209cd8-0cf1-4a26-a127-aafbf7606e73 {
        fill: #a02b10;
      }

      .bbedeb0e-edef-435a-85ee-2f20deeb53f0 {
        fill: #efcac2;
      }

      .f1432628-4c44-41a9-aa29-a2fec85e7e4c {
        fill: #c061f2;
        stroke: #540b54;
      }

      .bb0d27ea-6ac9-469f-a869-8a66c3ea7748 {
        fill: #84078e;
      }

      .b1a13323-3ec2-4c4b-8b26-4c2b079b6b37 {
        fill: #ffc19f;
      }

      .bf948935-29a8-4ae0-b098-9cf7eed9cfd9 {
        fill: #420000;
        opacity: 0.2;
      }

      .a68584f5-690e-497f-bb8e-fd40a5708262 {
        fill: #e0956c;
      }

      .ac3a6ea1-5403-405a-b576-83920775c0a7 {
        fill: #875933;
      }

      .a7a939a5-0384-49fe-8bee-4201a3fb8589 {
        stroke: #875d33;
      }

      .ea49e4e0-816b-4b3a-ba16-7d8e6ed55405 {
        fill: #897f33;
      }

      .e25ed157-9772-45ec-bb11-6a485751e5f8 {
        fill: #d3978c;
      }

      .affdece8-b2fe-4c09-94a4-e96a64102b08 {
        fill: #4f4726;
      }

      .b0806054-c629-40cb-8e6e-caea9cf89f69 {
        fill: #2b2716;
      }

      .bd1a32f0-5063-439d-9712-b455405433e2 {
        fill: #240d00;
      }

      .a937805d-5423-4d45-8bf5-77ca08bb48c1 {
        fill: #f5968e;
      }

      .ee65df7d-282f-4170-afb4-e5832e455de9 {
        fill: #721f33;
      }

      .afc53d22-a838-40c6-845b-d0fccf806c4a {
        fill: #f4edef;
      }

      .b60e41af-e055-48a4-8859-aaa2afd291dc {
        fill: #e03859;
      }

      .ec8449e7-b089-4da9-9697-bf90ae776e6f {
        fill: #d26653;
      }

      .ec703bfa-41a5-48be-b914-15ab17113778 {
        fill: #5d5e5e;
      }

      .be2c5180-dfd6-4d51-b29e-d6ffb7bd42e8 {
        fill: #242e33;
      }

      .be331d58-33de-436f-870d-1fd6e11323ae {
        fill: #050505;
        opacity: 0.16;
      }

      .abb3feeb-e5b9-4a16-a7df-939de6a255fc {
        fill: #8db8d8;
      }
    </style>
    <clipPath id="a61ab9dd-df03-4999-8e48-b04a672b928c">
      <circle class="b063d71d-d33f-4089-bdc9-0c95c64251ce" cx="202.5" cy="-392.5" r="285.12"/>
    </clipPath>
    <linearGradient id="f017a4be-2811-44dc-8e60-2eefac029cc1" x1="249.99" y1="-37.02" x2="249.99" y2="516.08" gradientUnits="userSpaceOnUse">
      <stop offset="0" stop-color="#e5e5e5"/>
      <stop offset="1" stop-color="#00c7e2"/>
    </linearGradient>
    <clipPath id="baa525c4-d9cf-49f9-bd34-6c3182c3c1a2">
      <path class="b063d71d-d33f-4089-bdc9-0c95c64251ce" d="M378.31,476.68c-3.19.51-6.39.93-9.55,1.32-76.38,9.45-163.92,9.55-240.33.31-16.73-2-34.47-5-47-16.25C67.63,449.62,63.36,430,60.24,411.68A1244.93,1244.93,0,0,1,42.74,187c.36-28.16-5.65-83.64,10-108.3,14.09-22.2,45.84-30.59,70-32.86,89.73-8.41,179-6.62,269.19-2.57,14.14.63,29,1.72,40.86,9.49C455.31,67.48,458.61,99,458,125.88,455.91,221.53,455.76,317,437.7,411c-3.6,18.76-8.32,38.88-22.78,51.36C404.84,471,391.64,474.57,378.31,476.68Z"/>
    </clipPath>
  </defs>
  <g class="bcfb001e-36da-4914-8dab-1ce1c8c56d41">
    <g>
      <path class="b6c9c64f-afee-4eea-81c1-2c0d6d2e6d51" d="M449.07,27.09l-2.23,11.32-22.23-6.29A80.43,80.43,0,0,0,413.46,6.86l-9.69,19.35S390.86,28.43,399.11-4l3.62-18.36s-46.4-47.29-68.1-87.87L307-151.51l-5.09-7.58s11.78-29,46.62-36.46l7.94,11.85L377.71-152s30.68,50.8,60.37,128.9C438.08-23.12,446.42,12.63,449.07,27.09Z"/>
      <path class="b6c9c64f-afee-4eea-81c1-2c0d6d2e6d51" d="M-44.07,23.71-41.84,35l22.23-6.29A80.43,80.43,0,0,1-8.46,3.48L1.23,22.83S14.14,25.05,5.89-7.42L2.27-25.78s46.4-47.29,68.1-87.87L98-154.89l5.09-7.58s-11.78-29-46.62-36.46l-7.94,11.85L27.29-155.4S-3.39-104.6-33.08-26.5C-33.08-26.5-41.42,9.25-44.07,23.71Z"/>
      <path class="fbf42499-4a06-4add-88fe-1aac24919c90" d="M304.12-157.93,322.91-12.46S212,41.46,89.24-9.46c0,0,3.46-15,4-20,7.87-72.18,8.68-157.27,8.68-157.27L99-143.85a545.43,545.43,0,0,1-60.48-39.44s47.73-86.41,55.68-93c11.64-9.73,75.2-25.23,75.2-25.23S249.76-314.32,308-270.91l42.06,58.55,9.72,13.55s-17.47,15.39-56.16,35.8Z"/>
    </g>
  </g>
  <g>
    <path class="ac73b7d8-8b5c-44dc-a69c-0ca1619fc986" d="M394.4,501c-3.46.55-6.93,1-10.36,1.43-82.9,10.25-177,10.36-260,.34-18.15-2.2-37.41-5.4-51-17.64-15-13.5-19.62-34.8-23-54.68a1350.89,1350.89,0,0,1-19-243.88C31.45,156,24.93,95.75,41.92,69c15.29-24.09,49.75-33.2,76-35.66,97.39-9.13,194.23-7.19,292.15-2.79,15.35.69,31.49,1.86,44.34,10.3,24.4,16,28,50.22,27.34,79.39-2.29,103.81-3.31,207.42-22.9,309.39-3.91,20.36-9,42.2-24.73,55.75C423.19,494.8,408.87,498.66,394.4,501Z"/>
    <path class="e0fc4d8e-69e2-47f3-a2d9-4030c6d3138d" d="M388.4,495c-3.46.55-6.93,1-10.36,1.43-82.9,10.25-177,10.36-260,.34-18.15-2.2-37.41-5.4-51-17.64-15-13.5-19.62-34.8-23-54.68a1350.89,1350.89,0,0,1-19-243.88C25.45,150,18.93,89.75,35.92,63c15.29-24.09,49.75-33.2,76-35.66,97.39-9.13,194.23-7.19,292.15-2.79,15.35.69,31.49,1.86,44.34,10.3,24.4,16,28,50.22,27.34,79.39-2.29,103.81-3.31,207.42-22.9,309.39-3.91,20.36-9,42.2-24.73,55.75C417.19,488.8,402.87,492.66,388.4,495Z"/>
    <path class="a8472523-1c20-4474-a6f6-fe5dc34db480" d="M380.77,481.13c-3.26.51-6.52.95-9.75,1.35-78,9.64-167.12,9.74-245.11.31-17.08-2.07-35.19-5.08-48-16.59-14.1-12.7-18.45-32.72-21.64-51.42A1270.93,1270.93,0,0,1,38.43,185.4C38.8,156.64,32.67,100,48.64,74.85,63,52.19,95.44,43.62,120.14,41.3c91.6-8.58,182.68-6.76,274.77-2.63,14.45.65,29.63,1.76,41.71,9.7C459.57,63.43,462.94,95.6,462.34,123c-2.15,97.64-2.52,195.09-20.95,291-3.68,19.15-8.49,39.69-23.26,52.43C407.85,475.34,394.37,479,380.77,481.13Z"/>
    <path class="ea4365c4-0573-44b4-b76f-27d9b30836a7" d="M378.31,476.68c-3.19.51-6.39.93-9.55,1.32-76.38,9.45-163.92,9.55-240.33.31-16.73-2-34.47-5-47-16.25C67.63,449.62,63.36,430,60.24,411.68A1244.93,1244.93,0,0,1,42.74,187c.36-28.16-5.65-83.64,10-108.3,14.09-22.2,45.84-30.59,70-32.86,89.73-8.41,179-6.62,269.19-2.57,14.14.63,29,1.72,40.86,9.49C455.31,67.48,458.61,99,458,125.88,455.91,221.53,455.76,317,437.7,411c-3.6,18.76-8.32,38.88-22.78,51.36C404.84,471,391.64,474.57,378.31,476.68Z"/>
    <g class="b3b73160-13ed-47a4-85b6-236d75d02041">
      <g>
        <g>
          <path class="b820db05-b457-4605-864c-68b91ca3245a" d="M49.05,436.74q-.67,7.35-1.36,14.7a102,102,0,0,0,4.92-17.93q-.11,8.08-.22,16.16c2.42-6.17,4.26-14.84,5.22-24.62,0,7.73-.37,15.39-1,22.77.91-1.57,3.39-11.57,4.3-13.14,0,1.11-1.51,10.65-1.49,11.76,2.06-1.94,4.46-5.94,6.52-7.88-.41,2.65-2,12.28-1.85,15.31,2.15-1.08,5.08-10.46,5.93-17.13.08,3.29-.46,11.35-.37,14.64,1,2,3.06-3,3.45-5.92.42-3.11,4.7,12.29,4.32,12.32-2.43.21-17.61,5-26.34,6.45-1.86.31-9.75,3.72-10.31-4.73C40.55,455.6,47.94,440.19,49.05,436.74Z"/>
          <rect class="adba484a-9e57-41f6-abf8-98ba97e26d91" x="37.72" y="452.06" width="457.23" height="43.76"/>
          <path class="b820db05-b457-4605-864c-68b91ca3245a" d="M482.78,441.68s-3.37.83-5.64,7c-.31.86.18-5.33-.2-5.76-.17-.21-.39,0-.58.29l-2.48,3.25a29.08,29.08,0,0,1,.18-7.39L470,444.37l.6-17.41a66.32,66.32,0,0,0-4.89,19.72c-.41-1.59-3.67-6.95-3.35-5.18,1.18,6.6,1.85,12.9,2,13.43.55,1.95.76,2,1.66,1.91,2-.11,4-2.1,6.11-2,2.48.15,6,1.18,8.45,1.54C480.58,454.15,480.75,444.37,482.78,441.68Z"/>
          <path class="adba484a-9e57-41f6-abf8-98ba97e26d91" d="M324.71,440a58.28,58.28,0,0,0-2.52,14.63c0,1.14-1.46-10-1.67-9.84-.89.72-2.28,5.64-3.18,6.35-.24-2.41,2.14-12.9,2.57-15.08-1.46,1.16-5.19,10.23-6.65,11.39q.44-8.43.88-16.87a45.17,45.17,0,0,0-5.49,17.33c-.41-1.73-8.49-11.85-7.88-10.43,3.57,8.43,4.51,20.11,4.66,20.69.56,2.14,2.46-.46,3.41-.14,2.12.73,4.32-.37,6.53.63,2.64,1.18,10.32-1.09,12.94.3C328.33,456.75,324.54,450.14,324.71,440Z"/>
          <path class="b820db05-b457-4605-864c-68b91ca3245a" d="M455.84,435.81a58.26,58.26,0,0,0-2.52,14.62c0,1.14-1.47-10-1.67-9.83-.9.71-2.29,5.63-3.18,6.35-.24-2.41,2.13-12.91,2.57-15.09-1.47,1.17-5.2,10.23-6.66,11.39q.44-8.43.88-16.86a45.46,45.46,0,0,0-5.49,17.33c-.4-1.73-8.48-11.85-7.88-10.43,3.58,8.42,4.52,20.1,4.67,20.69.55,2.14,2.45-.47,3.41-.14,2.12.73,4.31-.37,6.53.62,2.63,1.19,10.31-1.08,12.93.31C459.46,452.57,455.67,446,455.84,435.81Z"/>
        </g>
        <g>
          <ellipse class="b60e3b0a-4360-4ae7-9d5c-8964ba3f6b6f" cx="313.89" cy="480.35" rx="120.42" ry="8.55"/>
          <g>
            <path class="f4626256-a8f5-4349-9690-d9871294b1f4" d="M406.59,359c.87-.26,9.35,25.49,8.33,25.91-8.83,3.67-27.11,9.85-32.27,11.9l-9.09-27.5C382.75,366.79,400.3,360.87,406.59,359Z"/>
            <path class="ad6fa9b8-17a9-46eb-9477-7040873f285e" d="M412.28,355.27c.46-.11,10.88,29.68,10.37,29.94-4.49,2.27-14.06,5.43-16.7,6.66l-11.14-31.82C400.08,358.76,408.93,356.08,412.28,355.27Z"/>
            <g>
              <path class="bb832e0f-d3f5-4d7a-8850-7c86a5717dca" d="M418,392.32c-1.73.31-4.08.37-6.18.55-1.55.13-7.49-12.84-4.34-14.39a21.07,21.07,0,0,1,2.21-.94c-1-2.22-2.19-4.59-3.49-7.07a134.75,134.75,0,0,0-7.81-13.28c4.89-2.61,13.76-6.31,19.22-9.16,0,0,38.18,52.28,34.17,65.31C450.69,417,433.38,407.57,418,392.32Z"/>
              <path class="f640d5fd-ef6d-4e7b-b761-49727c777c48" d="M414.19,349.74c1.24-.59,2.42-1.17,3.46-1.71,0,0,38.18,52.28,34.17,65.31-.16.51-.65.77-1.4.78C446.29,396.64,423.41,362.87,414.19,349.74Z"/>
              <path class="eab40d68-277f-4a85-a860-067a19dd5101" d="M421,386.23a.89.89,0,0,0-.38-1.2.9.9,0,0,0-1.2.38,10.79,10.79,0,0,0,.74,11.26.89.89,0,0,0,1.41-1.1A8.9,8.9,0,0,1,421,386.23Zm3.9,3.13a.87.87,0,0,0,0-.74.92.92,0,0,0-.47-.42.9.9,0,0,0-1.15.51,12.51,12.51,0,0,0,1,11.25.89.89,0,0,0,1.23.28.88.88,0,0,0,.28-1.23A10.55,10.55,0,0,1,424.91,389.36Zm5,14.41a.88.88,0,0,0,.22-1.24c-1.78-2.44-2.15-6.58-1-10a.89.89,0,0,0-.06-.7.82.82,0,0,0-.5-.43.89.89,0,0,0-1.13.55c-1.34,3.94-.85,8.71,1.21,11.62A.89.89,0,0,0,429.91,403.77Z"/>
            </g>
          </g>
          <g>
            <path class="f4626256-a8f5-4349-9690-d9871294b1f4" d="M266.85,462.93c0,.77-29,1.78-29.12.85-1-8.12-1.57-24.6-2-29.32l31-1.1C266.35,441.5,266.9,457.32,266.85,462.93Z"/>
            <path class="ad6fa9b8-17a9-46eb-9477-7040873f285e" d="M268.94,465.54c0,.47-32.82,1.41-32.92.83-.82-5-.92-15-1.3-17.92l35-1C269.34,452.86,269.2,462.11,268.94,465.54Z"/>
            <g>
              <path class="bb832e0f-d3f5-4d7a-8850-7c86a5717dca" d="M230.62,457.85c.42-1.71,1.33-3.88,2-5.86.52-1.47,14.78-1.58,14.9,1.93a20.65,20.65,0,0,1,0,2.4c2.44,0,5.09-.12,7.88-.29a135.83,135.83,0,0,0,15.31-1.69c.38,5.53.12,15.14.49,21.29,0,0-63.33,13.43-73.57,4.44C194.73,477.54,210.43,465.6,230.62,457.85Z"/>
              <path class="f640d5fd-ef6d-4e7b-b761-49727c777c48" d="M271.05,471.77c0,1.37.07,2.69.14,3.86,0,0-63.33,13.43-73.57,4.44-.41-.36-.44-.91-.15-1.6C215.12,481.86,255.29,474.81,271.05,471.77Z"/>
              <path class="eab40d68-277f-4a85-a860-067a19dd5101" d="M235,463.06a.89.89,0,0,0,.75.33.86.86,0,0,0,.5-.19.88.88,0,0,0,.14-1.25A10.77,10.77,0,0,0,225.78,458a.89.89,0,0,0-.65,1.08.9.9,0,0,0,1.08.65A8.89,8.89,0,0,1,235,463.06Zm-4.45,2.28a.91.91,0,0,0,.69.26.86.86,0,0,0,.57-.26.9.9,0,0,0,0-1.26,12.49,12.49,0,0,0-10.65-3.73.89.89,0,0,0-.76,1,.87.87,0,0,0,1,.76A10.53,10.53,0,0,1,230.51,465.34ZM215.32,464a.87.87,0,0,0,1,.7c2.95-.62,6.88.74,9.53,3.2a.89.89,0,0,0,1.26,0,.89.89,0,0,0,0-1.26c-3-2.83-7.6-4.34-11.09-3.65A.9.9,0,0,0,215.32,464Z"/>
            </g>
          </g>
          <path class="a1336e8f-4150-484c-95c0-670bbade436b" d="M388.23,361.47c2.2,6.3,7.56,27.14,9.47,34.37-31.8,11.9-60.38,20-65.56,11.74-9.78-15.64-12.25-21.85-18.49-31.65-6.64-10.45-19.57-8.06-25.73-3.19-11.43,9-17.52,14.73-18,19.94-1.25,14.69-.74,21.83-.27,46-10.26.19-27.46,2-36.49.58,0,0-5.19-47.17-4.41-56.47.83-9.86,11.68-22.66,31.66-63.65,17.32-1.33,64.81,3.39,83.28,6.2,5.68,13.9,9.27,26.81,15.16,42.1C360.13,370.71,366.71,367.67,388.23,361.47Z"/>
          <polyline class="a1336e8f-4150-484c-95c0-670bbade436b" points="298.3 367.99 294.69 362.93 294.69 352.63"/>
          <path class="a4c4ba3c-8838-4630-9ee4-35f4b28c2ab5" d="M341.52,319c3,7.8,6.72,18.46,10.79,30.38-.29.1-.55.26-.84.35a16.15,16.15,0,0,1-10-30.73Z"/>
          <path class="a4a149f6-06ed-4608-8e44-3ce040fbb47e" d="M287.43,319.69a200.13,200.13,0,0,0-27-.65c-5.64,10.79-10.52,19.39-14.67,26.47,36.71,12.67,80.41,16.14,104.73-1.65-2.24-6-3.63-11.24-6.08-16.86C330.41,324.59,308,321.4,287.43,319.69Z"/>
          <rect class="e9209cd8-0cf1-4a26-a127-aafbf7606e73" x="231.19" y="428" width="40.15" height="13.07" transform="translate(-13.31 7.98) rotate(-1.77)"/>
          <rect class="e9209cd8-0cf1-4a26-a127-aafbf7606e73" x="368.1" y="374.25" width="40.15" height="13.07" transform="matrix(0.28, 0.96, -0.96, 0.28, 643.18, -99.47)"/>
          <path class="bbedeb0e-edef-435a-85ee-2f20deeb53f0" d="M321.5,319.81c5.28.28,10.51.76,15.74,1.54,9.54-17.58,14.19-32.54,13.27-38.75-1.48-10-19.37-29.92-46.22-37.39-4.46,7.54-10,14.16-14.71,21.54C327.63,279.07,334.63,281.34,321.5,319.81Z"/>
          <path class="f1432628-4c44-41a9-aa29-a2fec85e7e4c" d="M349,335.57c-21.61,20.67-70.46,18.92-104.25,11.37,2.14-15.71,3.05-51.07-4.24-84.07-1-4.42-2.12-9.83-.21-13.89,7.3-15.5,50.58-19.66,76.3-17.82C338.42,255.85,339.8,294.84,349,335.57Z"/>
          <path class="bb0d27ea-6ac9-469f-a869-8a66c3ea7748" d="M298.28,238.4a14.33,14.33,0,0,0-2.64-8.05c-15.33,1.07-31.82,3.32-42,8.88.56,9.22,10.26,16.59,22.25,16.59C288.27,255.82,298.28,248,298.28,238.4Z"/>
          <path class="b1a13323-3ec2-4c4b-8b26-4c2b079b6b37" d="M254.1,214.53,259,243.45c1,6.22,9.8,9.93,19.55,8.28s16.8-8,15.75-14.24l-4.87-28.92Z"/>
          <path class="bf948935-29a8-4ae0-b098-9cf7eed9cfd9" d="M257.6,234.89a10.58,10.58,0,0,1-.46-3.15c10.55-3.7,22.66-8.11,34.43-10.36a8.94,8.94,0,0,1,.68,1.26c2.59,8-4,17.29-14.63,20.75S260.19,242.9,257.6,234.89Z"/>
          <path class="f4626256-a8f5-4349-9690-d9871294b1f4" d="M247,312.61c-1.38.23-5.85-20-4.49-20.31,24-5.8,34.82-8.19,40.78-10.1,4-1.28,5.7-7.08,8.36-13.41,8.42,2.07,23.27,7.23,25.17,16.13.94,4.43-4.72,11.68-9.69,15.8C301,305.81,288.54,305.84,247,312.61Z"/>
          <path class="bf948935-29a8-4ae0-b098-9cf7eed9cfd9" d="M330.86,273.68c-.62,5.51-9.16,25.29-12.13,30.25-11.23-6.85-38.44-28.68-38.83-29.67,10.56-15,23.4-30.74,23.44-31.64C307.14,242.55,329.08,262,330.86,273.68Z"/>
          <path class="f1432628-4c44-41a9-aa29-a2fec85e7e4c" d="M335,258.5c1.18,7.73-3,16.87-17.45,40.82-11.76-5.27-35.77-24.68-36.15-25.63,10.17-14.39,28.65-41.93,28.69-42.8a51.63,51.63,0,0,1,10.84.92C328.8,237.8,333.29,247.22,335,258.5Z"/>
          <g>
            <path class="f4626256-a8f5-4349-9690-d9871294b1f4" d="M227.56,299.13c2.34-1.82,7.79-3.38,3.19-5.83-5.5-2.92-8.68,4.25-11,2.32-.89-.75-1.46-10.18,9.19-15,5.54-2.49,16.08.45,25.67,10.25"/>
            <path class="a68584f5-690e-497f-bb8e-fd40a5708262" d="M223.6,291.68c.77,2.7,17.37.28,16.59-2.42s-3.9-3.39-8-3.09C227.59,286.5,222.82,289,223.6,291.68Z"/>
            <path class="f4626256-a8f5-4349-9690-d9871294b1f4" d="M243.93,284.92c-5.35,1-11.82,9.36-19.26-.78-1.41-1.91-7.39,3.55-6.33,7.32.83,1.74-1.47,1.9-.19,5.8.8,2.42,2.17,3.68,1.9,4.77-1.14,4.57,2.91,4.75,2.63,6.75-.4,2.87,1.94,4.35,3.41,5,4.15,1.92,13.43-.15,24-1.74"/>
            <g>
              <path class="ec0cd82d-c729-42f5-b013-de2f95870664" d="M218.94,292.43s3.37,5.06,11.08,4.58"/>
              <path class="ac3a6ea1-5403-405a-b576-83920775c0a7" d="M218.94,292.43a16.49,16.49,0,0,0,2.46,1.85,15.29,15.29,0,0,0,2.68,1.35,17.73,17.73,0,0,0,2.88.87c1,.23,2,.34,3.06.51a10.19,10.19,0,0,1-3.17.26,10.44,10.44,0,0,1-3.14-.71,10.22,10.22,0,0,1-2.77-1.65A7.38,7.38,0,0,1,218.94,292.43Z"/>
            </g>
            <g>
              <path class="ec0cd82d-c729-42f5-b013-de2f95870664" d="M220.38,300.92s3.38,5.06,11.09,4.58"/>
              <path class="ac3a6ea1-5403-405a-b576-83920775c0a7" d="M220.38,300.92a17.1,17.1,0,0,0,2.46,1.86,16.41,16.41,0,0,0,2.68,1.35,17.81,17.81,0,0,0,2.89.86c1,.23,2,.34,3.06.51a9.64,9.64,0,0,1-3.17.26,10.59,10.59,0,0,1-3.14-.7,10.05,10.05,0,0,1-2.78-1.66A7.41,7.41,0,0,1,220.38,300.92Z"/>
            </g>
            <g>
              <path class="ec0cd82d-c729-42f5-b013-de2f95870664" d="M222.65,307.37s3.79,4.75,11.43,3.61"/>
              <path class="ac3a6ea1-5403-405a-b576-83920775c0a7" d="M222.65,307.37a18,18,0,0,0,2.61,1.64,16.62,16.62,0,0,0,2.78,1.11,18.18,18.18,0,0,0,3,.62c1,.14,2,.16,3.09.24a9.76,9.76,0,0,1-3.13.54,10.46,10.46,0,0,1-3.19-.44,10.06,10.06,0,0,1-2.91-1.41A7.42,7.42,0,0,1,222.65,307.37Z"/>
            </g>
          </g>
          <g>
            <g>
              <path class="a7a939a5-0384-49fe-8bee-4201a3fb8589" d="M211.39,163.83a17.18,17.18,0,0,0-8.09-14c-8.22-5-13.1,9.37-9,21.42s12.69,14.54,16.6,11"/>
              <g>
                <g>
                  <path class="ec0cd82d-c729-42f5-b013-de2f95870664" d="M207.4,175.48s-5.13-18.15-13.26-14"/>
                  <path class="ea49e4e0-816b-4b3a-ba16-7d8e6ed55405" d="M207.35,175.5a46.51,46.51,0,0,0-2-5,31,31,0,0,0-2.64-4.67,14.37,14.37,0,0,0-3.63-3.7,5.48,5.48,0,0,0-2.3-.91,6.09,6.09,0,0,0-2.58.29l0-.09a4.78,4.78,0,0,1,2.65-.89,5.24,5.24,0,0,1,2.79.75,11.34,11.34,0,0,1,3.78,4.11,37.56,37.56,0,0,1,4.1,10.09Z"/>
                </g>
                <g>
                  <path class="ec0cd82d-c729-42f5-b013-de2f95870664" d="M203.27,165.36s-4.58,1.13-4.37,10.59"/>
                  <path class="ea49e4e0-816b-4b3a-ba16-7d8e6ed55405" d="M203.28,165.41a4.8,4.8,0,0,0-2.15,2,8.53,8.53,0,0,0-1.14,2.69c-.26.95-.29,1.94-.48,2.91-.07.49-.16,1-.25,1.47A11.91,11.91,0,0,1,199,176h-.1a10.08,10.08,0,0,1-.33-3.09,9,9,0,0,1,.23-1.54c.17-.5.27-1,.48-1.5a9.41,9.41,0,0,1,1.49-2.75,5.13,5.13,0,0,1,2.53-1.75Z"/>
                </g>
              </g>
            </g>
            <path class="a7a939a5-0384-49fe-8bee-4201a3fb8589" d="M327.31,175.23c-8.43,35.34-37.24,56.71-68.1,56.71s-64.35-20.34-55.61-71.51c2.2-12.9,5.49-35.5,3.46-44.38-3.72-16.34-8.69-14.15,24.56-21.09C328.4,74.77,335.49,140.92,327.31,175.23Z"/>
            <path class="e25ed157-9772-45ec-bb11-6a485751e5f8" d="M310.94,115.16s-54.59-9.2-93.8,7.87l-12,22.35-.62-53.83,59.17-11,59.18,20.78,9.44,48.47-14.79,33.69s1.57-17-5.35-31.48S310.94,115.16,310.94,115.16Z"/>
            <g>
              <g>
                <g>
                  <ellipse class="ad6fa9b8-17a9-46eb-9477-7040873f285e" cx="225.23" cy="159.35" rx="10.41" ry="14.09"/>
                  <path class="affdece8-b2fe-4c09-94a4-e96a64102b08" d="M235.7,159.35a17.48,17.48,0,0,1-2.45,9.29,12,12,0,0,1-3.29,3.63,8.73,8.73,0,0,1-4.73,1.64,8.94,8.94,0,0,1-4.89-1.37,11.89,11.89,0,0,1-3.63-3.57,18,18,0,0,1,0-19.24,11.86,11.86,0,0,1,3.63-3.56,8.86,8.86,0,0,1,4.89-1.38,8.75,8.75,0,0,1,4.72,1.64,12,12,0,0,1,3.3,3.63A17.57,17.57,0,0,1,235.7,159.35Zm-.1,0a17.31,17.31,0,0,0-2.55-9.17,11.52,11.52,0,0,0-3.31-3.43,8.23,8.23,0,0,0-4.51-1.41,8.32,8.32,0,0,0-4.5,1.42,11.52,11.52,0,0,0-3.3,3.44,17.93,17.93,0,0,0,0,18.3,11.52,11.52,0,0,0,3.3,3.44,8.32,8.32,0,0,0,4.5,1.42,8.23,8.23,0,0,0,4.51-1.41,11.4,11.4,0,0,0,3.31-3.43A17.31,17.31,0,0,0,235.6,159.35Z"/>
                </g>
                <ellipse class="b0806054-c629-40cb-8e6e-caea9cf89f69" cx="223.09" cy="164.54" rx="5.93" ry="6.99"/>
                <ellipse class="ad6fa9b8-17a9-46eb-9477-7040873f285e" cx="225.74" cy="160.12" rx="1.52" ry="2"/>
              </g>
              <g>
                <g>
                  <ellipse class="ad6fa9b8-17a9-46eb-9477-7040873f285e" cx="271.02" cy="159.35" rx="10.41" ry="14.09"/>
                  <path class="affdece8-b2fe-4c09-94a4-e96a64102b08" d="M281.48,159.35a17.47,17.47,0,0,1-2.44,9.29,11.91,11.91,0,0,1-3.3,3.63,8.67,8.67,0,0,1-4.72,1.64,8.91,8.91,0,0,1-4.89-1.37,11.92,11.92,0,0,1-3.64-3.57,18,18,0,0,1,0-19.24,11.89,11.89,0,0,1,3.64-3.56,8.86,8.86,0,0,1,4.89-1.38,8.75,8.75,0,0,1,4.72,1.64,12.16,12.16,0,0,1,3.3,3.63A17.47,17.47,0,0,1,281.48,159.35Zm-.1,0a17.39,17.39,0,0,0-2.54-9.17,11.52,11.52,0,0,0-3.31-3.43,7.88,7.88,0,0,0-9,0,11.4,11.4,0,0,0-3.3,3.44,17.93,17.93,0,0,0,0,18.3,11.4,11.4,0,0,0,3.3,3.44,7.88,7.88,0,0,0,9,0,11.4,11.4,0,0,0,3.31-3.43A17.39,17.39,0,0,0,281.38,159.35Z"/>
                </g>
                <ellipse class="b0806054-c629-40cb-8e6e-caea9cf89f69" cx="268.88" cy="164.54" rx="5.93" ry="6.99"/>
                <ellipse class="ad6fa9b8-17a9-46eb-9477-7040873f285e" cx="271.52" cy="160.12" rx="1.52" ry="2"/>
              </g>
              <path class="affdece8-b2fe-4c09-94a4-e96a64102b08" d="M242.89,161.47a17.2,17.2,0,0,1,1,2.53,20.65,20.65,0,0,1,.93,8.18,12.27,12.27,0,0,1-1.93,5.38,10.07,10.07,0,0,1-4.52,3.57l.49-.71a5.51,5.51,0,0,0,.72,2.79,5.07,5.07,0,0,0,2.1,2.08,10.13,10.13,0,0,0,3.06,1c.55,0,1.1.12,1.66.14s1.13,0,1.7,0l0,.1-1.7.16c-.57,0-1.14,0-1.71,0a9.44,9.44,0,0,1-3.31-.79,5.83,5.83,0,0,1-2.55-2.24,6.22,6.22,0,0,1-.9-3.29v-.05l0,0a10,10,0,0,0,4.1-3.29,11.54,11.54,0,0,0,1.87-4.94,19.89,19.89,0,0,0,0-5.34,27.36,27.36,0,0,0-1.16-5.22Z"/>
              <path class="b0806054-c629-40cb-8e6e-caea9cf89f69" d="M269,138.1s-2.23-7.39,6-8.06c7.12-.58,16.4,5.31,21.56,13.23a1.13,1.13,0,0,1-1.53,1.57C289.62,141.58,279,136.37,269,138.1Z"/>
              <path class="b0806054-c629-40cb-8e6e-caea9cf89f69" d="M236.05,133.53s1.85-7.39-5-8.06c-5.9-.57-13.58,5.31-17.85,13.24-.54,1,.42,2.18,1.27,1.57C219,137,227.73,131.8,236.05,133.53Z"/>
            </g>
            <path class="bd1a32f0-5063-439d-9712-b455405433e2" d="M315,109.81s-35.88,5.3-51-6.35c0,0-9.13,8.5-23.93,3.46,0,0,0,11-22.34,9.76,0,0-12.28,24.87-12.6,33.37,0,0-16.68-28.65-6.92-53.51s35.25-40.61,75.23-43.76S333,78,337.69,92.13L338,75.76s6.29,8.5,3.15,17c0,0,4.09-3.78,11.64,3.15,0,0-9.13-.32-10.38,3.77,0,0,9.12,7.24,11.33,23.3s-3.47,44.38-16.06,54.45c0,0-12-1.57-16.05,6.61,0,0-6.92,5-2.52-8.18s-12-36.2-5.35-65.16Z"/>
            <g>
              <path class="a7a939a5-0384-49fe-8bee-4201a3fb8589" d="M316.89,185.82s2-9.14,15.42-13.67,17.14,10.23,8.17,22.14-22.38,13.9-27.29,10.07"/>
              <g>
                <g>
                  <path class="ec0cd82d-c729-42f5-b013-de2f95870664" d="M320,197.8s12-18,23.07-13.35"/>
                  <path class="ea49e4e0-816b-4b3a-ba16-7d8e6ed55405" d="M319.94,197.77a50.87,50.87,0,0,1,4.34-5.69,39.6,39.6,0,0,1,5.23-5,18,18,0,0,1,6.4-3.44,9.69,9.69,0,0,1,7.16.72l0,.09a11.55,11.55,0,0,0-6.84.15,22.47,22.47,0,0,0-6.2,3.13,38.61,38.61,0,0,0-5.34,4.65,49.85,49.85,0,0,0-4.63,5.41Z"/>
                </g>
                <g>
                  <path class="ec0cd82d-c729-42f5-b013-de2f95870664" d="M328.57,187.85s6.52,1.4,3.9,10.93"/>
                  <path class="ea49e4e0-816b-4b3a-ba16-7d8e6ed55405" d="M328.58,187.8a6,6,0,0,1,2.9,1.56,6.78,6.78,0,0,1,1.71,2.9,8.18,8.18,0,0,1,.36,3.36c-.11.55-.21,1.11-.37,1.64a13.83,13.83,0,0,1-.66,1.53l-.1,0a12.47,12.47,0,0,1,.07-1.63c0-.54,0-1.06.06-1.58a15.89,15.89,0,0,0-.13-3.09,6.14,6.14,0,0,0-1.31-2.76,5.7,5.7,0,0,0-2.55-1.81Z"/>
                </g>
              </g>
            </g>
          </g>
          <g>
            <path class="a937805d-5423-4d45-8bf5-77ca08bb48c1" d="M272.54,197.47s-6.64,19-21.36,19c0,0-16.31-1.31-17.37-22.44A37,37,0,0,0,272.54,197.47Z"/>
            <path class="ee65df7d-282f-4170-afb4-e5832e455de9" d="M272.57,197.12s-6,15.66-20.7,15.67a21.18,21.18,0,0,1-18.06-18.72A37.46,37.46,0,0,0,272.57,197.12Z"/>
            <path class="afc53d22-a838-40c6-845b-d0fccf806c4a" d="M267.42,199.34a17.69,17.69,0,0,1-12.86,6.47,18.16,18.16,0,0,1-16.38-9.57S252.19,204.56,267.42,199.34Z"/>
            <path class="a937805d-5423-4d45-8bf5-77ca08bb48c1" d="M272.85,197a39.63,39.63,0,0,1-19.67,3,67,67,0,0,1-19.37-5.93S252.79,209.3,272.85,197Z"/>
            <path class="b60e41af-e055-48a4-8859-aaa2afd291dc" d="M271.67,195.29a8.63,8.63,0,0,1,1.54,4.89S274.23,197,271.67,195.29Z"/>
            <path class="b60e41af-e055-48a4-8859-aaa2afd291dc" d="M235.94,191.64a8,8,0,0,0-2.74,4.52A4,4,0,0,1,235.94,191.64Z"/>
            <path class="ec8449e7-b089-4da9-9697-bf90ae776e6f" d="M261.63,210.12a8.56,8.56,0,0,0-9.06-2s-3.53-2.58-10.42.75C242.15,208.84,251.06,217.06,261.63,210.12Z"/>
          </g>
        </g>
        <g>
          <path class="ad6fa9b8-17a9-46eb-9477-7040873f285e" d="M68.81,396A58.2,58.2,0,1,0,147,370.1,58.2,58.2,0,0,0,68.81,396Z"/>
          <path class="ec703bfa-41a5-48be-b914-15ab17113778" d="M120.72,480.76a58.66,58.66,0,1,1,52.51-32.32A58.37,58.37,0,0,1,120.72,480.76Zm.15-116.43a57.79,57.79,0,1,0,25.87,6.17A57.81,57.81,0,0,0,120.87,364.33Z"/>
          <polygon class="be2c5180-dfd6-4d51-b29e-d6ffb7bd42e8" points="135.28 434.02 108.46 434.02 100.39 410.38 121.98 396.66 142.03 410.14 135.28 434.02"/>
          <polygon class="ad6fa9b8-17a9-46eb-9477-7040873f285e" points="145.96 452 135.28 434.02 142.03 410.14 160.43 404.8 173.35 422.78 165.2 447.08 145.96 452"/>
          <polygon class="ad6fa9b8-17a9-46eb-9477-7040873f285e" points="76.85 448.49 70.25 422.64 82.75 405.08 100.39 410.38 108.46 434.02 97.22 452 76.85 448.49"/>
          <polygon class="ad6fa9b8-17a9-46eb-9477-7040873f285e" points="108.2 470.47 97.22 452 108.46 434.02 135.28 434.02 145.96 452 134.58 470.47 108.2 470.47"/>
          <path class="be2c5180-dfd6-4d51-b29e-d6ffb7bd42e8" d="M82.75,405.09l-.42-18.7L70.44,393c-.57,1-1.12,2-1.63,3A58,58,0,0,0,63.1,414.6l7.15,8Z"/>
          <path class="ad6fa9b8-17a9-46eb-9477-7040873f285e" d="M70.25,422.64l-7.15-8A58.36,58.36,0,0,0,77,460.41l-.15-11.92Z"/>
          <path class="be2c5180-dfd6-4d51-b29e-d6ffb7bd42e8" d="M97.22,452l-20.37-3.51L77,460.41a57.78,57.78,0,0,0,17.69,13.7c1.57.79,3.16,1.49,4.76,2.12l8.75-5.76Z"/>
          <path class="ad6fa9b8-17a9-46eb-9477-7040873f285e" d="M108.2,470.47l-8.75,5.76a58,58,0,0,0,43.71-.4l-8.58-5.36Z"/>
          <path class="be2c5180-dfd6-4d51-b29e-d6ffb7bd42e8" d="M146,452l-11.38,18.47,8.58,5.36a57.94,57.94,0,0,0,21.7-15.67l.34-13.08Z"/>
          <path class="ad6fa9b8-17a9-46eb-9477-7040873f285e" d="M165.2,447.08l-.34,13.08A58.34,58.34,0,0,0,179,419.7l-5.62,3.08Z"/>
          <path class="be2c5180-dfd6-4d51-b29e-d6ffb7bd42e8" d="M160.43,404.8l12.92,18L179,419.7a58.46,58.46,0,0,0-9.86-30.07l-8.68-3.51Z"/>
          <path class="ad6fa9b8-17a9-46eb-9477-7040873f285e" d="M160.43,386.12l8.68,3.51A57.87,57.87,0,0,0,147,370.1,58.53,58.53,0,0,0,132,365l9.61,6.68Z"/>
          <path class="be2c5180-dfd6-4d51-b29e-d6ffb7bd42e8" d="M120.06,377.47l21.52-5.81L132,365a58.11,58.11,0,0,0-24.33.44l-5.79,6.52Z"/>
          <path class="ad6fa9b8-17a9-46eb-9477-7040873f285e" d="M101.85,371.94l5.79-6.52A58.05,58.05,0,0,0,70.44,393l11.89-6.58Z"/>
          <g>
            <path class="be331d58-33de-436f-870d-1fd6e11323ae" d="M179.07,417.47c-7.45,28.89-35.7,50.42-69.51,50.42a76.23,76.23,0,0,1-33.13-7.5,58.4,58.4,0,0,0,102.64-42.92Z"/>
            <path class="abb3feeb-e5b9-4a16-a7df-939de6a255fc" d="M178.13,410.93a59.87,59.87,0,0,1,.94,6.54A57.53,57.53,0,0,0,178.13,410.93Z"/>
            <path class="abb3feeb-e5b9-4a16-a7df-939de6a255fc" d="M75.07,458.56c.47.6.86,1.26,1.36,1.83C75.93,459.82,75.54,459.16,75.07,458.56Z"/>
          </g>
        </g>
      </g>
    </g>
  </g>
</svg>
