<svg id="f4eb06b9-f880-47a8-8e00-3068e48c9013" data-name="Layer 1" xmlns="http://www.w3.org/2000/svg" xmlns:xlink="http://www.w3.org/1999/xlink" width="585" height="585" viewBox="0 0 585 585">
  <defs>
    <style>
      .e6a2664c-48b6-4b47-95bc-a78e2f53f481 {
        fill: none;
      }

      .f00e96be-885d-457a-b0ad-2bf1a9c263b0 {
        clip-path: url(#a53b452e-6c38-4a6c-9195-8839cff294f6);
      }

      .e1451efe-5303-44fa-b1dd-adbf6115e24f {
        clip-path: url(#b83c87db-f0bc-4e6e-a807-134da87fc83b);
      }

      .e2e019d7-afb0-47a1-8e70-17676611771e {
        fill: #f9d1c6;
        stroke: #323232;
      }

      .e2e019d7-afb0-47a1-8e70-17676611771e, .fcc9fd95-10ed-4b71-9155-1fd800b79472 {
        stroke-miterlimit: 10;
      }

      .a2ea4208-af89-4b2b-bb0b-d228ebcfb0ed, .ba8974c0-2666-4afc-96f1-f44322fd89fc {
        fill: #db9d8e;
      }

      .a2ea4208-af89-4b2b-bb0b-d228ebcfb0ed {
        opacity: 0.63;
      }

      .f4f01281-3652-4762-beb8-049f8e580597, .fcc9fd95-10ed-4b71-9155-1fd800b79472 {
        fill: #00b6c2;
      }

      .fcc9fd95-10ed-4b71-9155-1fd800b79472 {
        stroke: #0c7777;
        stroke-width: 2px;
      }

      .b82c33a3-714e-494d-ad63-e77bd767cd70 {
        fill: #0a2c2d;
        opacity: 0.22;
      }

      .fb4e0419-b32c-432b-9381-a8ac8384ac9e {
        fill: #0c7777;
      }

      .b1bad48b-e900-42bf-a626-77d007c6641a {
        fill: #240d00;
        fill-rule: evenodd;
      }
    </style>
    <clipPath id="a53b452e-6c38-4a6c-9195-8839cff294f6">
      <circle class="e6a2664c-48b6-4b47-95bc-a78e2f53f481" cx="292.5" cy="292.5" r="285.12"/>
    </clipPath>
    <clipPath id="b83c87db-f0bc-4e6e-a807-134da87fc83b">
      <circle class="e6a2664c-48b6-4b47-95bc-a78e2f53f481" cx="292.5" cy="289.62" r="282.24"/>
    </clipPath>
  </defs>
  <g class="f00e96be-885d-457a-b0ad-2bf1a9c263b0">
    <circle class="e6a2664c-48b6-4b47-95bc-a78e2f53f481" cx="292.5" cy="292.5" r="285.12"/>
    <g class="e1451efe-5303-44fa-b1dd-adbf6115e24f">
      <g>
        <path class="e2e019d7-afb0-47a1-8e70-17676611771e" d="M536.58,705l-2.21,11.21-22-6.23a79.86,79.86,0,0,0-11-25l-9.59,19.16s-12.78,2.2-4.62-29.94L490.71,656s-45.94-46.81-67.41-87l-27.36-40.82-5-7.51s11.66-28.73,46.15-36.08l7.86,11.72,21,31.36S496.31,578,525.7,655.27C525.7,655.27,534,690.66,536.58,705Z"/>
        <path class="a2ea4208-af89-4b2b-bb0b-d228ebcfb0ed" d="M444.92,496.31c-15.05,17.6-40,28.4-49,31.87L394,521s8.54-29,43-36.39Z"/>
      </g>
      <g>
        <path class="e2e019d7-afb0-47a1-8e70-17676611771e" d="M48.42,701.62l2.21,11.21,22-6.23a79.76,79.76,0,0,1,11-25l9.59,19.16s12.78,2.2,4.62-30l-3.59-18.17s45.94-46.82,67.41-87l27.36-40.82,5-7.5s-11.66-28.74-46.15-36.09L140.08,493l-21,31.37S88.69,574.61,59.3,651.92C59.3,651.92,51,687.31,48.42,701.62Z"/>
        <path class="a2ea4208-af89-4b2b-bb0b-d228ebcfb0ed" d="M130.29,508.71c15.05,17.61,39.3,27.68,48.26,31.15l5-7.5s-10.94-28-45.43-35.37Z"/>
      </g>
      <path class="fcc9fd95-10ed-4b71-9155-1fd800b79472" d="M393.1,521.82l18.59,144s-109.75,53.37-231.3,3c0,0,3.42-14.87,4-19.79,7.79-71.45,8.59-155.69,8.59-155.69l-2.88,42.45a541.26,541.26,0,0,1-59.88-39s47.25-85.54,55.12-92.11c11.53-9.63,74.45-25,74.45-25S339.28,367,397,410l41.64,58,9.62,13.41s-17.3,15.23-55.59,35.45Z"/>
      <g>
        <path class="e2e019d7-afb0-47a1-8e70-17676611771e" d="M328.92,381.27s-11,27.19-28.7,30.1c-1.71.28-9.22,13.82-11,13.59-5.76-.7-10.54-15.6-12-16.65-16.12-11.91-24-16.52-24.62-26.41-.12-1.82-.14-2.86-.14-2.86-.29-3.81-8.21-22.22-3.23-30.31,4.16-6.75,25.25-.69,25.25-.69l43-.55c.14,3.91,8.35,6.27,11.11,13.58,2.58,6.86-.29,18.76.23,20A2,2,0,0,0,328.92,381.27Z"/>
        <path class="a2ea4208-af89-4b2b-bb0b-d228ebcfb0ed" d="M326.31,382.22c-5,4.08-12.53,8.51-31.21,10.09a68.15,68.15,0,0,1-42.49-10.41c-.12-1.82-.14-2.86-.14-2.86-1-1.59-9-17.69-4-25.78,17.1-6.93,56.87-3.7,56.87-3.7l22.86,15.53C330.76,372,325.79,381,326.31,382.22Z"/>
        <path class="b82c33a3-714e-494d-ad63-e77bd767cd70" d="M288.47,425.89l19.59-9.74S330,423.72,331.19,422C342.67,405.88,345,387.19,345,387.19l-41.57,20.17Z"/>
        <path class="fcc9fd95-10ed-4b71-9155-1fd800b79472" d="M306,403.38l-17.48,22.51L307.11,409l22.18,6.18s11.8-6.6,15.74-28l-15-13.34S328.5,393.84,306,403.38Z"/>
        <path class="b82c33a3-714e-494d-ad63-e77bd767cd70" d="M288.47,425.89,270.8,414s-22.53,4.56-24,3.13c-8.13-7.74-9.63-36.22-9.63-36.22l37.64,23.75Z"/>
        <path class="fcc9fd95-10ed-4b71-9155-1fd800b79472" d="M274.58,402.8l13.89,23.09-16.11-19.52-21.65,2.39s-10.21-3.18-13.57-27.89l14.68-10.75S248.46,391.39,274.58,402.8Z"/>
      </g>
      <g>
        <line class="f4f01281-3652-4762-beb8-049f8e580597" x1="192.96" y1="501.79" x2="194.62" y2="454.89"/>
        <polygon class="fb4e0419-b32c-432b-9381-a8ac8384ac9e" points="191.96 501.75 194.62 454.89 193.96 501.82 191.96 501.75"/>
      </g>
      <g>
        <line class="f4f01281-3652-4762-beb8-049f8e580597" x1="393.19" y1="524.61" x2="389.45" y2="468.3"/>
        <polygon class="fb4e0419-b32c-432b-9381-a8ac8384ac9e" points="392.19 524.67 389.45 468.3 394.19 524.54 392.19 524.67"/>
      </g>
      <g>
        <path class="e2e019d7-afb0-47a1-8e70-17676611771e" d="M411.39,290.5C403,304.82,386.94,310.13,374.58,304s-7.18-14.1,1.23-28.42S384.47,263,397.44,258C425.84,247,419.8,276.18,411.39,290.5Z"/>
        <path class="ba8974c0-2666-4afc-96f1-f44322fd89fc" d="M401.79,264.49a7.2,7.2,0,0,1,5.92.79c2.15,1.62,2.29,4.58,1.93,7.11-1.28,8.9-6.5,17.06-13.36,23.44a11.22,11.22,0,0,1-3.79,2.57,4.61,4.61,0,0,1-4.46-.6c-1.28-1.14-1.3-3.05-.76-4.61,1.39-4,5.52-6.42,8.92-9.16a8.35,8.35,0,0,0,2.34-2.59,3,3,0,0,0-.26-3.22,4.66,4.66,0,0,0-2.53-1.21,26.11,26.11,0,0,0-5.86-.31c-.68-2.72,1.86-5.14,3.64-6.95A17.83,17.83,0,0,1,401.79,264.49Z"/>
      </g>
      <g>
        <path class="e2e019d7-afb0-47a1-8e70-17676611771e" d="M178.26,292.36c6.38,14.32,18.56,19.63,27.94,13.48s5.45-14.1-.94-28.42-6.57-12.61-16.41-17.6C167.29,248.88,171.87,278,178.26,292.36Z"/>
        <path class="ba8974c0-2666-4afc-96f1-f44322fd89fc" d="M185.54,266.35a4.36,4.36,0,0,0-4.49.79c-1.63,1.62-1.74,4.58-1.46,7.11a45.38,45.38,0,0,0,10.14,23.44,8.76,8.76,0,0,0,2.88,2.57,2.82,2.82,0,0,0,3.38-.6c1-1.14,1-3.05.57-4.61-1.05-4-4.18-6.43-6.76-9.16a8,8,0,0,1-1.78-2.6,3.71,3.71,0,0,1,.2-3.21,3.25,3.25,0,0,1,1.92-1.21,15.1,15.1,0,0,1,4.44-.31c.53-2.72-1.4-5.14-2.76-6.95C190.1,269.3,188.08,267.17,185.54,266.35Z"/>
      </g>
      <path class="e2e019d7-afb0-47a1-8e70-17676611771e" d="M399.21,225.6c3.47-59.68-27.31-100.15-95.12-102.49-65.81-2.28-105.25,30.51-108.72,90.19-1.61,27.58,1.53,67.91,1.38,69.4-5.24,53.49,60.65,98.32,99.76,97.82,27.78-.36,91.3-37.79,92-83.63C388.53,295.39,397.6,253.19,399.21,225.6Z"/>
      <path class="ba8974c0-2666-4afc-96f1-f44322fd89fc" d="M233.56,174.86s25.66,28.26,79.21,26.4l-15.62-23s19.34,19,48,24.91l-13.39-23.05s23.05,8.18,33.84,21.94,30.88,41.56,27.14,64c-.37,2.23,18.23-24.17,12.65-49.09s-43.14-86.64-43.14-86.64L281.54,115l-52.07,3-24.91,5.57L193.4,138.79l7.07,53.92S182.25,229.9,186,247s9.66,21.2,9.66,21.2-1.11-29.38,12.65-43.14S237.66,200.52,233.56,174.86Z"/>
      <path class="b82c33a3-714e-494d-ad63-e77bd767cd70" d="M393.7,519.83l0,15.47-3.35-27.62s38.78-24.21,48.22-39.74l9.62,13.41S429.2,500.46,393.7,519.83Z"/>
      <path class="b1bad48b-e900-42bf-a626-77d007c6641a" d="M358.51,186c-5.34-3.83-10.6-4.8-17.24-7.78L333,175l11.43,25.13-3.66-1.49a142.82,142.82,0,0,1-43.94-28.26h0L312,197.92c-47.19,1.22-80.7-32.36-80.7-32.36-1.48,22.69-.74,24.55-25.66,54.3-14.5,14.5-7.86,37.33-9.29,53.18-.21,1.6,1.32-3.43,1.11-1.86-28.26-16.74-40.24-58.27-25.66-83.3l-9,10.92c-2.95-10.55-5.18-14.27.4-36.58,8.41-30.32,27-62.36,57.27-70.29-9.84-3.44-12.16-3.21-14.73-12.29q16.45-2.81,27.5,9.65Q243.15,68,261.88,61c-2.52,10.18-7.82,11.45-15.3,20.48,36.66-26.22,93.34-15.62,122.88,6.91C420.62,120.57,416.9,163,418,196.8,413.18,244,393.84,266,393.84,266h0C396.44,253.33,381.2,203.12,358.51,186Z"/>
      <polygon class="b82c33a3-714e-494d-ad63-e77bd767cd70" points="141.62 478.59 190.43 510.94 188.75 532.97 131.86 496.16 141.62 478.59"/>
    </g>
  </g>
</svg>
