<svg id="fdfe7554-a651-4781-9735-9453a9dd6206" data-name="Layer 1" xmlns="http://www.w3.org/2000/svg" xmlns:xlink="http://www.w3.org/1999/xlink" width="325" height="325" viewBox="0 0 325 325">
  <defs>
    <style>
      .fb1fb28d-25c5-4850-83bc-5694f1b090c8 {
        fill: none;
      }

      .ac422018-e5b2-426f-8438-561e2c06693a {
        clip-path: url(#e43513c6-3da5-45f5-81a1-f6d7bf5ccfe3);
      }

      .f025566e-0bd1-4752-bba9-bff17a9ff114 {
        fill: #3777d3;
        stroke: #fff;
        stroke-miterlimit: 10;
        stroke-width: 12px;
      }

      .ab51be33-bd81-4489-b3b6-60a81ea57c28 {
        fill: #fff;
      }

      .aa9ce389-1e60-4e26-8677-b5b4625a7df3 {
        fill: #e6e2cf;
      }

      .b8ee7930-20a7-4c34-9b55-8829a3a0bc76 {
        fill: #331409;
      }
    </style>
    <clipPath id="e43513c6-3da5-45f5-81a1-f6d7bf5ccfe3">
      <ellipse class="fb1fb28d-25c5-4850-83bc-5694f1b090c8" cx="162.5" cy="162.5" rx="159" ry="158.79"/>
    </clipPath>
  </defs>
  <g class="ac422018-e5b2-426f-8438-561e2c06693a">
    <ellipse class="f025566e-0bd1-4752-bba9-bff17a9ff114" cx="162.5" cy="162.5" rx="159" ry="158.79"/>
    <g>
      <path class="ab51be33-bd81-4489-b3b6-60a81ea57c28" d="M110.16,218.78c-23.07-1.17-33-19.72-33.43-40.94a76.47,76.47,0,0,1,.48-10.32C93.7,160,123.27,148.73,149,151.11c.47,2.86.81,5.78,1,8.72C152,188.8,140.62,220.31,110.16,218.78Z"/>
      <path class="ab51be33-bd81-4489-b3b6-60a81ea57c28" d="M212.79,218.78c-30.28,1.53-41.74-29.64-39.88-58.47a88.67,88.67,0,0,1,1.17-9.87c13.3-1.82,45-4.08,70.56,10.14a80.81,80.81,0,0,1,1.25,8.55C248.21,193.74,239,217.45,212.79,218.78Z"/>
      <path class="aa9ce389-1e60-4e26-8677-b5b4625a7df3" d="M182.86,195c3.37,8,15.59,21.87,37.48,17.66s21.06-36.17,21.06-36.17-1.27,21.45-23.16,26.08S182.86,195,182.86,195Z"/>
      <path class="aa9ce389-1e60-4e26-8677-b5b4625a7df3" d="M83.91,194.53c3.36,8,15.58,21.87,37.47,17.66S142.44,176,142.44,176s-1.26,21.45-23.16,26.08S83.91,194.53,83.91,194.53Z"/>
      <path class="aa9ce389-1e60-4e26-8677-b5b4625a7df3" d="M149,151.11c.47,2.86.81,5.78,1,8.72-9.7-1.69-23.31-2.57-37,1.48a146.49,146.49,0,0,0-36.24,16.53,76.47,76.47,0,0,1,.48-10.32C93.7,160,123.27,148.73,149,151.11Z"/>
      <path class="aa9ce389-1e60-4e26-8677-b5b4625a7df3" d="M245.89,169.13c-8.89-5.43-20.78-11-33.54-12.45a104.23,104.23,0,0,0-39.44,3.63,88.67,88.67,0,0,1,1.17-9.87c13.3-1.82,45-4.08,70.56,10.14A80.81,80.81,0,0,1,245.89,169.13Z"/>
      <path class="b8ee7930-20a7-4c34-9b55-8829a3a0bc76" d="M66.21,114.79a109.39,109.39,0,0,1,8.33-21.5A77.64,77.64,0,0,1,88.33,73.75a61.37,61.37,0,0,1,9.89-8.5,25.79,25.79,0,0,1,6.31-3,24.55,24.55,0,0,1,7.16-1.09,26.65,26.65,0,0,1,7.19,1A25.27,25.27,0,0,1,125.29,65a22.2,22.2,0,0,1,8.64,9.87.93.93,0,0,1-.48,1.23.89.89,0,0,1-.42.07h0c-4.34-.24-8-.59-11.21-.43a41,41,0,0,0-4.54.43,38.69,38.69,0,0,0-4,.9c-2.56.72-5.06,1.45-7.92,2.31a29.81,29.81,0,0,0-8.66,4.06,70.28,70.28,0,0,0-8,6.58c-2.59,2.41-5.09,5-7.51,7.74a162,162,0,0,0-13.48,17.65l0,0a.81.81,0,0,1-1.12.22A.81.81,0,0,1,66.21,114.79Z"/>
      <path class="b8ee7930-20a7-4c34-9b55-8829a3a0bc76" d="M248.31,105.91A162.5,162.5,0,0,0,233.78,89.1c-2.57-2.58-5.23-5-8-7.28a70,70,0,0,0-8.36-6.07,29.77,29.77,0,0,0-8.89-3.54c-2.91-.69-5.45-1.26-8-1.83a41,41,0,0,0-4.06-.66,41.67,41.67,0,0,0-4.56-.15c-3.26,0-6.84.6-11.16,1.1h0a.93.93,0,0,1-1-.82.88.88,0,0,1,.05-.43,22.22,22.22,0,0,1,8-10.37A25.39,25.39,0,0,1,194,55.82a26.62,26.62,0,0,1,7.11-1.41,24.47,24.47,0,0,1,7.21.65,25.87,25.87,0,0,1,6.49,2.61,61.56,61.56,0,0,1,10.38,7.89,77.73,77.73,0,0,1,14.94,18.68,108.86,108.86,0,0,1,9.61,21,.79.79,0,0,1-.52,1,.81.81,0,0,1-.89-.27Z"/>
      <path class="b8ee7930-20a7-4c34-9b55-8829a3a0bc76" d="M128.45,163.84a4.83,4.83,0,0,0-2.9-.15c1.14,1.18,1.2,4,0,6.86-1.36,3.33-3.85,5.46-5.58,4.76s-2-3.82-.75-7.06a27,27,0,0,0-4,6.87c-3.21,7.89-2.51,15.63,1.58,17.29s10-3.39,13.21-11.28S132.54,165.5,128.45,163.84Z"/>
      <path class="b8ee7930-20a7-4c34-9b55-8829a3a0bc76" d="M231.2,163.84a4.83,4.83,0,0,0-2.9-.15c1.14,1.18,1.2,4,0,6.86-1.36,3.33-3.85,5.46-5.58,4.76s-2-3.82-.76-7.06a26.73,26.73,0,0,0-4,6.87c-3.21,7.89-2.51,15.63,1.58,17.29s10-3.39,13.21-11.28S235.29,165.5,231.2,163.84Z"/>
      <path class="b8ee7930-20a7-4c34-9b55-8829a3a0bc76" d="M75.59,166.82c-2.24,20.94,4,46.61,27.08,52.66,10.42,2.72,22.19,1.21,30.87-5.38,8-6.11,12.85-15.51,15.49-25.06,3.38-12.22,3.52-25.23,1.52-37.69a2.73,2.73,0,0,0-2-2.13c-25-2.07-50.07,6.33-72.5,16.55-1.6.73.62,4.28,2.33,3.5,21.91-10,46.66-18.29,71-16.27l-2-2.12c2.94,18.3,1.33,40.86-11.54,55.38C122.52,221.34,95.65,220.59,84.7,203c-6.37-10.23-7.11-23.13-5.86-34.8C79,166.49,75.86,164.28,75.59,166.82Z"/>
      <path class="b8ee7930-20a7-4c34-9b55-8829a3a0bc76" d="M172,149.92c-4.7,27.91,3.24,69.88,38.85,70.17,16,.13,29.05-8.72,34.36-23.84a62.37,62.37,0,0,0,2.91-24.35c-.18-3,.1-9.39-1.85-11.77-1.14-1.39-4.28-2.36-5.85-3.08-2.52-1.17-5.11-2.2-7.73-3.12-18.89-6.6-39.71-7.4-59.42-4.76-2.73.37-.19,2.77,1.55,2.54,14.87-2,30.24-2,45,1.12a91.08,91.08,0,0,1,13.85,4,53.27,53.27,0,0,1,6.4,2.77c3,1.63,3,3.11,3.46,6.34a69,69,0,0,1-.5,22.39c-2.89,14.45-12.22,26.77-27.55,28.85-15,2-27.33-5.46-34-18.73-7.25-14.4-8-31.87-5.36-47.51C176.39,149.3,172.3,148.33,172,149.92Z"/>
      <path class="b8ee7930-20a7-4c34-9b55-8829a3a0bc76" d="M71.69,171.78a207.93,207.93,0,0,1,29.69-11.58c18-5.62,37.8-9.88,56.61-6.25,2.17.42.88-3.48-.77-3.8-19.07-3.68-39.13.53-57.38,6.23a212.29,212.29,0,0,0-30.38,11.83c-1.59.79.56,4.39,2.23,3.57Z"/>
      <path class="b8ee7930-20a7-4c34-9b55-8829a3a0bc76" d="M174.84,152.38c7.88-1.85,16.42-1.94,24.45-1.58a124.39,124.39,0,0,1,57,17.08c2.36,1.37,3.58-2.36,1.42-3.62a128.61,128.61,0,0,0-57.92-17.47c-8.72-.47-17.92-.31-26.47,1.71-2.45.57-.8,4.43,1.54,3.88Z"/>
      <path class="b8ee7930-20a7-4c34-9b55-8829a3a0bc76" d="M115.47,270.07c18.88-20.9,60.65-40.84,84.35-17a30.24,30.24,0,0,1,6.39,8.86c.83,1.9,4.84,1.22,3.85-1.06-4.37-10-14.88-17.35-25.15-20.08-20.73-5.5-43.26,3.68-59.84,15.83a84.43,84.43,0,0,0-12.93,11.25c-1.66,1.84,1.94,3.75,3.33,2.21Z"/>
    </g>
  </g>
</svg>
