<svg id="ad8ad3e6-5fc2-4a48-bc55-6f046b0c5670" data-name="Layer 1" xmlns="http://www.w3.org/2000/svg" width="250.27" height="216.89" viewBox="0 0 250.27 216.89">
  <defs>
    <style>
      .f9da23d5-f12d-4883-937e-3d8de6ad3dad, .ff08c1b4-8ee8-43cf-97ed-38105e5a28fc {
        fill: #eefff6;
        opacity: 0.19;
      }

      .b5f74d36-30c7-44b2-a1dd-7b95aa997ac4, .f9da23d5-f12d-4883-937e-3d8de6ad3dad {
        stroke: #e2a937;
      }

      .b5f74d36-30c7-44b2-a1dd-7b95aa997ac4, .f9da23d5-f12d-4883-937e-3d8de6ad3dad, .ff08c1b4-8ee8-43cf-97ed-38105e5a28fc {
        stroke-miterlimit: 10;
        stroke-width: 2px;
      }

      .ff08c1b4-8ee8-43cf-97ed-38105e5a28fc {
        stroke: #24773b;
      }

      .b5f74d36-30c7-44b2-a1dd-7b95aa997ac4 {
        fill: none;
      }

      .b19946d4-46e5-43bd-85d3-cd69e84fcbbf {
        fill: #e2a937;
      }
    </style>
  </defs>
  <g>
    <circle class="f9da23d5-f12d-4883-937e-3d8de6ad3dad" cx="85.47" cy="38.52" r="35.74"/>
    <circle class="ff08c1b4-8ee8-43cf-97ed-38105e5a28fc" cx="165.53" cy="38.52" r="35.74"/>
    <g>
      <circle class="b5f74d36-30c7-44b2-a1dd-7b95aa997ac4" cx="84.64" cy="38.52" r="35.74"/>
      <circle class="b5f74d36-30c7-44b2-a1dd-7b95aa997ac4" cx="164.7" cy="38.52" r="35.74"/>
    </g>
    <rect class="b19946d4-46e5-43bd-85d3-cd69e84fcbbf" x="120.66" y="35.87" width="8.57" height="7.08"/>
    <rect class="b19946d4-46e5-43bd-85d3-cd69e84fcbbf" x="200.14" y="34.98" width="7.08" height="7.08"/>
    <rect class="b19946d4-46e5-43bd-85d3-cd69e84fcbbf" x="42.65" y="34.98" width="7.08" height="7.08"/>
    <path class="b19946d4-46e5-43bd-85d3-cd69e84fcbbf" d="M247.67,34.84l-41.94,5.41.7-1.11a13.67,13.67,0,0,1,.36,2.07q.11,1,.18,1.95c.11,1.29.19,2.58.27,3.87.15,2.58.26,5.15.37,7.73l.56,15.44,1,30.88c.65,20.58,1.33,41.16,2.44,61.72.58,10.27,1.23,20.55,2.28,30.78a131.61,131.61,0,0,0,2.29,15.23,20.94,20.94,0,0,0,1.16,3.62,2.75,2.75,0,0,0,1.05,1.36c.43.25.94-.22,1.28-.7a15.1,15.1,0,0,0,1.56-3.44c.41-1.22.76-2.45,1.08-3.69,1.27-5,2.18-10.05,3.05-15.12s1.61-10.17,2.31-15.27c1.41-10.2,2.64-20.42,3.8-30.65-1.09,10.24-2.24,20.47-3.59,30.68-.67,5.1-1.39,10.2-2.2,15.29s-1.71,10.16-3,15.17c-.31,1.25-.66,2.5-1.06,3.73a15.46,15.46,0,0,1-1.6,3.58,3,3,0,0,1-.73.75,1.11,1.11,0,0,1-1.14.13,3.12,3.12,0,0,1-1.3-1.6,20.17,20.17,0,0,1-1.23-3.71,132.09,132.09,0,0,1-2.41-15.29c-1.12-10.24-1.84-20.52-2.49-30.8-1.25-20.57-2.08-41.15-2.87-61.73l-1.16-30.87L206,54.83q-.18-3.86-.42-7.7c-.09-1.28-.18-2.56-.29-3.83-.06-.64-.12-1.27-.2-1.89a11,11,0,0,0-.3-1.74l-.28-1,1-.13,41.91-5.7Z"/>
    <line class="b5f74d36-30c7-44b2-a1dd-7b95aa997ac4" x1="44.07" y1="39.41" x2="2.73" y2="24.52"/>
    <path class="b19946d4-46e5-43bd-85d3-cd69e84fcbbf" d="M47.19,41.12q-1.52,30.81-3.79,61.56c-1.54,20.49-3.28,41-5.82,61.39-.64,5.11-1.34,10.2-2.15,15.28s-1.73,10.15-3,15.16a57.51,57.51,0,0,1-2.27,7.41,14.41,14.41,0,0,1-1.87,3.47,3.34,3.34,0,0,1-1.71,1.22,2.29,2.29,0,0,1-2-.68,10.77,10.77,0,0,1-2.11-3.34A37.17,37.17,0,0,1,21.12,199c-.79-2.45-1.42-4.95-2-7.46-2.27-10-3.75-20.22-5.14-30.4s-2.51-20.4-3.57-30.62c1.15,10.21,2.38,20.41,3.82,30.58s3,20.33,5.37,30.33c.6,2.49,1.25,5,2.06,7.4A36.34,36.34,0,0,0,23,202.34a10.06,10.06,0,0,0,2,3.12,1.6,1.6,0,0,0,1.46.52,2.72,2.72,0,0,0,1.34-1,14.17,14.17,0,0,0,1.74-3.32,56.77,56.77,0,0,0,2.18-7.33c1.17-5,2-10,2.81-15.11s1.43-10.17,2-15.27c2.37-20.39,3.94-40.88,5.31-61.38s2.45-41,3.29-61.53Z"/>
  </g>
</svg>
