<svg id="b4e177b8-2fd0-4d37-a413-5aaee033127e" data-name="Layer 1" xmlns="http://www.w3.org/2000/svg" xmlns:xlink="http://www.w3.org/1999/xlink" width="500" height="525" viewBox="0 0 500 525">
  <defs>
    <style>
      .a8c183b2-178b-4a7e-bf0b-88463cf42011 {
        fill: none;
      }

      .ab6f75b5-818a-456e-84a8-80d140dcf3c4 {
        clip-path: url(#f1473f25-a733-4edd-933c-a63fadc0529d);
      }

      .ef4ad968-a9dc-4eea-b833-8aef5fe27010 {
        opacity: 0.5;
      }

      .a005e438-31be-41dd-90e6-6b553bc4a616 {
        fill: #00b2ed;
        stroke: #fff;
      }

      .a005e438-31be-41dd-90e6-6b553bc4a616, .a05189f5-f1bf-4b46-bec1-8d216cae9597, .a165c6b7-a5dc-4f32-82f8-65546ee6aa75, .a1e06da2-b2b0-463a-a8ab-5c0a7199d89d, .a23cbd0b-ff79-4af1-a554-46cb4f74c011, .a4b4e179-64c1-4d91-9cbc-fe7ac2889218, .ad49b58a-500b-422d-aca4-9ac935c435e9, .bc8e0945-4141-44fd-abba-05780ac9a1da, .bfeb08ae-4193-472b-9432-e35fbd90348e, .e5542847-8ad9-4b52-ae4d-e5d7f4dbe132, .fb02ebb5-83c3-4af5-9e55-e04c5ce6ac05, .fbc7a4f6-9e26-4eb3-918a-b1c5aeada037 {
        stroke-miterlimit: 10;
      }

      .a005e438-31be-41dd-90e6-6b553bc4a616, .a4b4e179-64c1-4d91-9cbc-fe7ac2889218, .ad49b58a-500b-422d-aca4-9ac935c435e9 {
        stroke-width: 0.5px;
      }

      .bc4ebfd5-dc11-4e7a-82e7-5ec9976f1507 {
        fill: #01687f;
      }

      .b78d10cf-1f2f-4105-95cb-967d250242ab {
        fill: url(#af8a7008-d48c-4253-b82a-b580ee6ab732);
      }

      .e16df04d-4509-4690-8043-ffaafbecb0f4 {
        clip-path: url(#bcc6fd9a-9539-4416-85a5-42ad7201b0bf);
      }

      .b5c3ee5b-84a9-45f3-aefa-77b40999ff53 {
        fill: #66ad2d;
      }

      .add094a6-0532-4172-b741-876947f14bce {
        fill: #ad782b;
      }

      .a1e06da2-b2b0-463a-a8ab-5c0a7199d89d, .ae531560-6325-4c9b-a943-273384e64dd4, .bfeb08ae-4193-472b-9432-e35fbd90348e {
        fill: #c99945;
      }

      .bc8e0945-4141-44fd-abba-05780ac9a1da, .bfeb08ae-4193-472b-9432-e35fbd90348e {
        stroke: #8c6725;
      }

      .b26664f0-8d9a-4f19-8629-d5694a3664c9, .bc8e0945-4141-44fd-abba-05780ac9a1da {
        fill: #e2b25d;
      }

      .a1e06da2-b2b0-463a-a8ab-5c0a7199d89d {
        stroke: #684814;
      }

      .a23cbd0b-ff79-4af1-a554-46cb4f74c011, .abc1ea95-759d-4faa-9f96-3928fbbda788 {
        fill: #f4cc73;
      }

      .a23cbd0b-ff79-4af1-a554-46cb4f74c011 {
        stroke: #c19744;
      }

      .b0720a37-d1b1-4bc0-b6c1-93cd4117b64f {
        fill: #fff9de;
      }

      .fc5bcfd0-3e24-49aa-94f0-12f17c48f73c {
        fill: #dd7f31;
      }

      .ee801352-a492-4716-a318-ad793d950d21 {
        fill: #ffdb45;
      }

      .f832f3fb-aa86-4f87-9fa9-05c6c127b895 {
        fill: #169156;
      }

      .f0fd1da1-cf83-451c-aab8-0fcd6d2d53d2 {
        fill: #e25a5a;
      }

      .e6a078cf-0dcd-4bb9-877a-b16d1dd898ad {
        fill: #c13e3e;
      }

      .b20f5c65-6000-4141-b997-98043a18099d {
        fill: #35c487;
      }

      .a20d4a7d-0298-4dea-8dae-847fa2a4be93 {
        fill: #61912f;
      }

      .e6889c17-0ff5-4cde-9904-0f9508e21abe {
        fill: #e8f0e0;
      }

      .e2a12769-f777-456d-b821-7ef0f668c255 {
        fill: #51433e;
      }

      .fbc5b67f-3508-414e-9862-5bfa7e26737a {
        fill: #e20000;
      }

      .fd4b5485-c3bb-4d70-b3f2-94719ad48bf6 {
        fill: #ff3939;
      }

      .b89bb86c-388d-4e5a-9cda-6313e20ce606 {
        fill: #1b6a7f;
      }

      .a714fa19-7ff2-4e52-afb2-ba811c428303 {
        fill: #062133;
      }

      .b787c4b9-2840-4040-b7f7-3de79863e9e4 {
        fill: #8b979e;
      }

      .e668b0a7-19cc-4f3c-bf8b-e4f380a79494 {
        fill: #6b3822;
      }

      .ff7d0eba-a61a-4489-b42f-c84e20a77eb3 {
        fill: #915193;
      }

      .b0d6342e-3043-420c-9754-04d79943bdbe {
        fill: #47b21f;
      }

      .f36a2bca-b7c4-4dae-886a-349aa79460d3 {
        fill: #22a8dd;
      }

      .fb8a443a-7cfb-43ae-9c9b-eb3c84e47265 {
        fill: #efb75e;
      }

      .bbfaa438-e015-4309-b5e0-446c9bb1af92 {
        fill: #ff7f00;
      }

      .b8e112bb-b778-406f-a12e-01c4da659c80 {
        fill: #aa0707;
      }

      .ae8a4cd1-d464-467e-b5bc-9b105851ca81 {
        fill: #ad2121;
      }

      .eaa9092e-77fb-4c3a-8b1f-3224b5cce2ea {
        fill: #32383f;
      }

      .eacb9406-325c-4557-91c7-50855532506d {
        fill: #e2413d;
      }

      .a26ce73f-486e-4865-96c4-5003ae66698c {
        fill: #d6b472;
      }

      .b8a799b2-a633-49e0-b44b-26a13c2adb92 {
        fill: #dd1d63;
      }

      .ae5de6d4-31f6-4827-90f3-dd82515a8c56, .fbc7a4f6-9e26-4eb3-918a-b1c5aeada037 {
        fill: #f9d1c6;
      }

      .fbc7a4f6-9e26-4eb3-918a-b1c5aeada037 {
        stroke: #897f33;
      }

      .f218fc91-d19a-470d-a9ee-74c1f92fc325 {
        fill: #874d40;
      }

      .e790614e-bd05-49c4-93f7-fa56cc2bf390 {
        fill: #cbdd7f;
      }

      .a4ece484-434b-4808-a7b9-257b8cee303a {
        fill: #f42f2f;
      }

      .e5542847-8ad9-4b52-ae4d-e5d7f4dbe132 {
        fill: #9133bc;
        stroke: #5922af;
      }

      .a05189f5-f1bf-4b46-bec1-8d216cae9597, .fb3c5c6a-23ed-4255-9b56-27ab37eb8469 {
        fill: #ef852e;
      }

      .a05189f5-f1bf-4b46-bec1-8d216cae9597 {
        stroke: #60561a;
      }

      .a6a93137-0033-4c35-b90d-53b2dbcff376 {
        fill: #b2642f;
      }

      .bfb30134-44db-4283-8683-2213590781a6 {
        fill: #d3978c;
      }

      .b6a43877-8d7f-462a-87ac-6f2cacccbefd {
        fill: #897f33;
      }

      .b0fcffb4-36aa-4aa1-be22-06e5220fd1ed {
        fill: #fff;
      }

      .f1645d99-d059-4aba-acdc-e859c4c01027 {
        fill: #4f4726;
      }

      .b680deb1-b028-46a7-bace-d170d6d2ee8a {
        fill: #2b2716;
      }

      .a1d61222-aca7-426d-9c2f-40b369b45bcd {
        fill: #240d00;
      }

      .ad49b58a-500b-422d-aca4-9ac935c435e9 {
        fill: #bcaaa6;
      }

      .a4b4e179-64c1-4d91-9cbc-fe7ac2889218, .ad49b58a-500b-422d-aca4-9ac935c435e9 {
        stroke: #877874;
      }

      .a4b4e179-64c1-4d91-9cbc-fe7ac2889218 {
        fill: #f7efed;
      }

      .a89b31bf-722d-446f-ac49-9dce1cab93ad {
        fill: #755bf4;
      }

      .ef6f4ffa-4801-4eae-a2be-6b0318cfad85 {
        fill: #10e069;
      }

      .fb958bd9-94c6-4223-89f1-4a614152437a {
        fill: #f2ea5c;
      }

      .a534d06a-7f0a-4549-b3f5-0a31e280e7bf {
        fill: #60561a;
      }

      .fda049f5-a3ec-4b8e-a89f-884b3cf0ccab {
        fill: #f5968e;
      }

      .e2e13d64-eac1-4fa1-acda-e93e35775554 {
        fill: #721f33;
      }

      .a56d7a35-a291-40a8-92a2-ac753f4a33cc {
        fill: #f4edef;
      }

      .a73d4a40-f9b3-441a-8ba5-c80f11f27d44 {
        fill: #e03859;
      }

      .b853ac78-141b-4caf-b671-dd6ebbbe8922 {
        fill: #d26653;
      }

      .a165c6b7-a5dc-4f32-82f8-65546ee6aa75 {
        fill: #cbebf4;
      }

      .a165c6b7-a5dc-4f32-82f8-65546ee6aa75, .fb02ebb5-83c3-4af5-9e55-e04c5ce6ac05 {
        stroke: #3e74b5;
      }

      .fb02ebb5-83c3-4af5-9e55-e04c5ce6ac05 {
        fill: #4cb3e0;
      }

      .e7ea12de-f9f8-4f61-855d-16c8562a2c53 {
        clip-path: url(#a4d0f67e-203a-4a1a-9818-d8c42026ad1a);
      }

      .a0bc5d57-0647-4fe4-9c57-b7738ed031ce {
        fill: #b69cb7;
      }

      .a9e8bd6a-7990-48e5-a970-384570577799 {
        fill: #c6b299;
      }

      .f7ba47d5-d944-43c8-8026-afcfcf4fb582 {
        clip-path: url(#b5e8c63d-2615-41b9-88b1-99d60304daef);
      }

      .a9bfe5d0-4136-4ed7-bd0d-41c2839a0e67 {
        opacity: 0.61;
      }

      .fb7ab1db-1da9-4a60-a6c0-59c743a42cc9 {
        fill: #666;
      }

      .e74bc58c-e0b1-40af-aab5-682140329ac0 {
        fill: #1a1a1a;
      }

      .b6b78736-5539-4837-a9aa-0f6ef8525400, .e502fd41-47d4-4404-a3ff-2ffb8da48f21 {
        fill: #776557;
      }

      .b6b78736-5539-4837-a9aa-0f6ef8525400, .e2a12693-0602-459f-9dca-2997e37b7a1d, .f323133c-4807-425b-9ea7-6f592784c79d {
        fill-rule: evenodd;
      }

      .f323133c-4807-425b-9ea7-6f592784c79d {
        fill: #d34f68;
      }

      .a744a438-7c81-458c-8753-e120288663aa, .e2a12693-0602-459f-9dca-2997e37b7a1d {
        fill: #6a5e2b;
      }

      .e351dd85-48ec-4091-b954-10be89109699 {
        fill: #c3b169;
      }
    </style>
    <clipPath id="f1473f25-a733-4edd-933c-a63fadc0529d">
      <circle class="a8c183b2-178b-4a7e-bf0b-88463cf42011" cx="197.5" cy="-392.5" r="285.12"/>
    </clipPath>
    <linearGradient id="af8a7008-d48c-4253-b82a-b580ee6ab732" x1="249.99" y1="-60.06" x2="249.99" y2="450.11" gradientUnits="userSpaceOnUse">
      <stop offset="0" stop-color="#e5e5e5"/>
      <stop offset="1" stop-color="#00c7e2"/>
    </linearGradient>
    <clipPath id="bcc6fd9a-9539-4416-85a5-42ad7201b0bf">
      <path class="a8c183b2-178b-4a7e-bf0b-88463cf42011" d="M378.31,476.68c-3.19.51-6.39.93-9.55,1.32-76.38,9.45-163.92,9.55-240.33.31-16.73-2-34.47-5-47-16.25C67.63,449.62,63.36,430,60.24,411.68A1244.93,1244.93,0,0,1,42.74,187c.36-28.16-5.65-83.64,10-108.3,14.09-22.2,45.84-30.59,70-32.86,89.73-8.41,179-6.62,269.19-2.57,14.14.63,29,1.72,40.86,9.49C455.31,67.48,458.61,99,458,125.88,455.91,221.53,455.76,317,437.7,411c-3.6,18.76-8.32,38.88-22.78,51.36C404.84,471,391.64,474.57,378.31,476.68Z"/>
    </clipPath>
    <clipPath id="a4d0f67e-203a-4a1a-9818-d8c42026ad1a">
      <path class="a8c183b2-178b-4a7e-bf0b-88463cf42011" d="M978.31,476.68c-3.19.51-6.39.93-9.55,1.32-76.38,9.45-163.92,9.55-240.33.31-16.73-2-34.47-5-47-16.25-13.81-12.44-18.08-32.06-21.2-50.38A1244.93,1244.93,0,0,1,642.74,187c.36-28.16-5.65-83.64,10-108.3,14.09-22.2,45.84-30.59,70-32.86,89.73-8.41,179-6.62,269.19-2.57,14.14.63,29,1.72,40.86,9.49,22.48,14.76,25.78,46.27,25.19,73.16-2.11,95.65-2.26,191.12-20.32,285.07-3.6,18.76-8.32,38.88-22.78,51.36C1004.84,471,991.64,474.57,978.31,476.68Z"/>
    </clipPath>
    <clipPath id="b5e8c63d-2615-41b9-88b1-99d60304daef">
      <rect class="a8c183b2-178b-4a7e-bf0b-88463cf42011" x="529.07" y="53.77" width="639.87" height="343.63" transform="translate(1698 451.16) rotate(-180)"/>
    </clipPath>
  </defs>
  <g>
    <path class="ef4ad968-a9dc-4eea-b833-8aef5fe27010" d="M394.4,501c-3.46.55-6.93,1-10.36,1.43-82.9,10.25-177,10.36-260,.34-18.15-2.2-37.41-5.4-51-17.64-15-13.5-19.62-34.8-23-54.68a1350.89,1350.89,0,0,1-19-243.88C31.45,156,24.93,95.75,41.92,69c15.29-24.09,49.75-33.2,76-35.66,97.39-9.13,194.23-7.19,292.15-2.79,15.35.69,31.49,1.86,44.34,10.3,24.4,16,28,50.22,27.34,79.39-2.29,103.81-3.31,207.42-22.9,309.39-3.91,20.36-9,42.2-24.73,55.75C423.19,494.8,408.87,498.66,394.4,501Z"/>
    <path class="a005e438-31be-41dd-90e6-6b553bc4a616" d="M388.4,495c-3.46.55-6.93,1-10.36,1.43-82.9,10.25-177,10.36-260,.34-18.15-2.2-37.41-5.4-51-17.64-15-13.5-19.62-34.8-23-54.68a1350.89,1350.89,0,0,1-19-243.88C25.45,150,18.93,89.75,35.92,63c15.29-24.09,49.75-33.2,76-35.66,97.39-9.13,194.23-7.19,292.15-2.79,15.35.69,31.49,1.86,44.34,10.3,24.4,16,28,50.22,27.34,79.39-2.29,103.81-3.31,207.42-22.9,309.39-3.91,20.36-9,42.2-24.73,55.75C417.19,488.8,402.87,492.66,388.4,495Z"/>
    <path class="bc4ebfd5-dc11-4e7a-82e7-5ec9976f1507" d="M380.77,481.13c-3.26.51-6.52.95-9.75,1.35-78,9.64-167.12,9.74-245.11.31-17.08-2.07-35.19-5.08-48-16.59-14.1-12.7-18.45-32.72-21.64-51.42A1270.93,1270.93,0,0,1,38.43,185.4C38.8,156.64,32.67,100,48.64,74.85,63,52.19,95.44,43.62,120.14,41.3c91.6-8.58,182.68-6.76,274.77-2.63,14.45.65,29.63,1.76,41.71,9.7C459.57,63.43,462.94,95.6,462.34,123c-2.15,97.64-2.52,195.09-20.95,291-3.68,19.15-8.49,39.69-23.26,52.43C407.85,475.34,394.37,479,380.77,481.13Z"/>
    <path class="b78d10cf-1f2f-4105-95cb-967d250242ab" d="M378.31,476.68c-3.19.51-6.39.93-9.55,1.32-76.38,9.45-163.92,9.55-240.33.31-16.73-2-34.47-5-47-16.25C67.63,449.62,63.36,430,60.24,411.68A1244.93,1244.93,0,0,1,42.74,187c.36-28.16-5.65-83.64,10-108.3,14.09-22.2,45.84-30.59,70-32.86,89.73-8.41,179-6.62,269.19-2.57,14.14.63,29,1.72,40.86,9.49C455.31,67.48,458.61,99,458,125.88,455.91,221.53,455.76,317,437.7,411c-3.6,18.76-8.32,38.88-22.78,51.36C404.84,471,391.64,474.57,378.31,476.68Z"/>
    <g class="e16df04d-4509-4690-8043-ffaafbecb0f4">
      <rect class="b5c3ee5b-84a9-45f3-aefa-77b40999ff53" x="60.56" y="388.78" width="400.68" height="120.24"/>
      <g>
        <g>
          <g>
            <path class="add094a6-0532-4172-b741-876947f14bce" d="M188.34,406s-5.37,74-6.09,76.45-23.08,4.15-23.08,4.15V404.25Z"/>
            <g>
              <path class="bfeb08ae-4193-472b-9432-e35fbd90348e" d="M138.68,416.16S133.05,505,132.9,507c-.18,2.49,6.24,7.14,9.39,8.13s23.88-1,24.11-2.09c.57-2.83,2-99.19,2-99.19Z"/>
              <path class="b26664f0-8d9a-4f19-8629-d5694a3664c9" d="M142.63,514c-1.36-.21,3.72-84.33,4.66-85.19s18.15-5.46,20.08-5-.54,85.74-1.43,87.74C164.18,515.45,142.63,514,142.63,514Z"/>
            </g>
            <g>
              <path class="bfeb08ae-4193-472b-9432-e35fbd90348e" d="M217.54,411.56s11,85.12,11.17,87.17c.22,2.48,7.3,6.2,10.58,6.74s23.47-2.2,23.5-3.32c.12-2.88-16.89-92.88-16.89-92.88Z"/>
              <path class="b26664f0-8d9a-4f19-8629-d5694a3664c9" d="M228.72,422.35c.38-1.64,17.25-6,17.42-5.07s16.91,82.22,17.19,84-22.13,5.07-24.51,2.41C237.16,501.84,227.61,427.06,228.72,422.35Z"/>
            </g>
            <g>
              <g>
                <path class="a1e06da2-b2b0-463a-a8ab-5c0a7199d89d" d="M136.67,129.54c-.24-2.51,5.18-4.89,6.65-5.41s20.15-.66,21.77.05,6.73,50.58,6.73,50.58L142.72,179S137.19,134.88,136.67,129.54Z"/>
                <path class="abc1ea95-759d-4faa-9f96-3928fbbda788" d="M144.45,124.69c-1.52.51,5.08,39.2,5.47,40.88s20.9,6.66,20.9,2.17c0-1.46-3.4-40-6-42.66S144.45,124.69,144.45,124.69Z"/>
              </g>
              <path class="bfeb08ae-4193-472b-9432-e35fbd90348e" d="M67.32,387.71c-2,1.08-1,10.54-.18,13.88s30.58,19.41,36.27,21,198.64-10.92,203.7-13.52c3.42-1.75,3.27-8.92,2.43-9.82-1.62-1.74-33.92-18.93-33.92-18.93S68.88,386.85,67.32,387.71Z"/>
              <path class="abc1ea95-759d-4faa-9f96-3928fbbda788" d="M67.77,388.75c1-3.33,204.67-7.41,207.2-7.41,1.31,0,33.3,16.7,33.25,17.73C308,402.9,99.78,410,99.78,410S66.29,393.88,67.77,388.75Z"/>
              <path class="a1e06da2-b2b0-463a-a8ab-5c0a7199d89d" d="M80.43,167.2c-1.74.68-6,5-6.38,6.22-1,3.25,19.9,211.64,21.3,214.49s5.94,4.91,8.13,5.67c2.77,1,160.19-5.52,161.4-9s-21.14-217-22.66-218.75S83.69,165.92,80.43,167.2Z"/>
              <path class="a23cbd0b-ff79-4af1-a554-46cb4f74c011" d="M80.86,168.87c-3.34.84,19.45,219.14,22.27,222.4s160-5.36,160.48-7.81S244,173.24,240.53,168.31C237.78,164.34,91.92,166.11,80.86,168.87Z"/>
              <path class="bc8e0945-4141-44fd-abba-05780ac9a1da" d="M103,411.56c-2.92,1.64,1,9.26,2.52,10s197.58-12,200.55-13.93,2.92-8.19,2.17-8.57C305.18,399,107.4,409.09,103,411.56Z"/>
              <path class="b26664f0-8d9a-4f19-8629-d5694a3664c9" d="M192.78,395.67c1.87,2.76,36.73.74,37.28-2.28C230.48,391.05,190.34,392.07,192.78,395.67Z"/>
              <path class="b26664f0-8d9a-4f19-8629-d5694a3664c9" d="M115.62,394.82c-3.29,1.87,36.23,13.55,42.71,12.33S119.33,392.71,115.62,394.82Z"/>
              <path class="b26664f0-8d9a-4f19-8629-d5694a3664c9" d="M91.24,399.49c-5.14,2.65,9.42,6.94,26,6.17S129.11,397,112.6,397C99.36,397,92.66,398.76,91.24,399.49Z"/>
              <path class="b0720a37-d1b1-4bc0-b6c1-93cd4117b64f" d="M91.64,174.28c-4.74,1.83,17.79,187.21,19.45,191s8.89,10.6,14,11.11,128.13,3.06,131.52.51-18.11-202.56-21.13-203.48S95.44,172.81,91.64,174.28Z"/>
              <g>
                <g>
                  <g>
                    <path class="fc5bcfd0-3e24-49aa-94f0-12f17c48f73c" d="M146.75,246.13a14.44,14.44,0,0,1-14.08-10.54,17.24,17.24,0,0,1,8.15-20.16,16.68,16.68,0,0,1,8.65-2.36c7.91,0,15.77,5.39,17.9,12.26,2,6.45-1.35,12.75-9.15,17.3A23,23,0,0,1,146.75,246.13Zm2.72-31.73a15.19,15.19,0,0,0-7.89,2.15A16,16,0,0,0,134,235.22c1.45,4.63,5.55,9.58,12.71,9.58a21.5,21.5,0,0,0,10.72-3.3c9.88-5.76,9.58-12.37,8.52-15.8C164,219.37,156.78,214.4,149.47,214.4Z"/>
                    <path class="fc5bcfd0-3e24-49aa-94f0-12f17c48f73c" d="M165.81,248.05a.85.85,0,0,1-.22,0,6.31,6.31,0,0,1-2.24-1.78,6.53,6.53,0,0,0-1.23-1.13.65.65,0,0,1-.27-.91.75.75,0,0,1,1-.25,7.52,7.52,0,0,1,1.59,1.41,6.66,6.66,0,0,0,1.61,1.4.66.66,0,0,1,.46.84A.72.72,0,0,1,165.81,248.05Z"/>
                    <path class="fc5bcfd0-3e24-49aa-94f0-12f17c48f73c" d="M172,238.31l-.23,0c-.35-.12-.74-.23-1.15-.35a19.77,19.77,0,0,1-3.18-1.12.64.64,0,0,1-.28-.9.75.75,0,0,1,1-.27,18.37,18.37,0,0,0,2.92,1l1.19.36a.65.65,0,0,1,.44.84A.71.71,0,0,1,172,238.31Z"/>
                    <path class="fc5bcfd0-3e24-49aa-94f0-12f17c48f73c" d="M169.49,229.09a.67.67,0,1,1,0-1.33,20.45,20.45,0,0,0,6.68-.92.73.73,0,0,1,.93.35.64.64,0,0,1-.38.87,21.08,21.08,0,0,1-7.2,1Z"/>
                    <path class="fc5bcfd0-3e24-49aa-94f0-12f17c48f73c" d="M167.14,220.4h-.2a.68.68,0,0,1-.62-.74.7.7,0,0,1,.8-.58,4.59,4.59,0,0,0,2.08-.89.75.75,0,0,1,1,.1.64.64,0,0,1-.11.94A6,6,0,0,1,167.14,220.4Z"/>
                    <path class="fc5bcfd0-3e24-49aa-94f0-12f17c48f73c" d="M161.73,215.86a.81.81,0,0,1-.27-.05.65.65,0,0,1-.39-.87,20.21,20.21,0,0,1,3.85-5.14c.78-.84,1.51-1.64,2.12-2.44a.77.77,0,0,1,1-.15.64.64,0,0,1,.16.93c-.64.84-1.43,1.7-2.2,2.53a19.37,19.37,0,0,0-3.61,4.77A.73.73,0,0,1,161.73,215.86Z"/>
                    <path class="fc5bcfd0-3e24-49aa-94f0-12f17c48f73c" d="M154.62,213.14h-.15a.68.68,0,0,1-.55-.79c.07-.32.13-.67.19-1a8.27,8.27,0,0,1,.66-2.5.75.75,0,0,1,1-.3.65.65,0,0,1,.32.9,7,7,0,0,0-.53,2.09c-.07.39-.13.77-.2,1.11A.7.7,0,0,1,154.62,213.14Z"/>
                    <path class="fc5bcfd0-3e24-49aa-94f0-12f17c48f73c" d="M146.69,213.1a.72.72,0,0,1-.68-.44c-.35-.92-.68-2-1-3.13-.42-1.36-.85-2.76-1.32-3.87a.64.64,0,0,1,.4-.86.73.73,0,0,1,.92.37,42.08,42.08,0,0,1,1.37,4c.34,1.12.67,2.17,1,3.05a.65.65,0,0,1-.43.85A.67.67,0,0,1,146.69,213.1Z"/>
                    <path class="fc5bcfd0-3e24-49aa-94f0-12f17c48f73c" d="M140.55,214.64a.74.74,0,0,1-.53-.21,16.28,16.28,0,0,1-2-2.77l-.35-.57a.64.64,0,0,1,.25-.91.76.76,0,0,1,1,.23l.36.58a15,15,0,0,0,1.81,2.54.63.63,0,0,1,0,.94A.72.72,0,0,1,140.55,214.64Z"/>
                    <path class="fc5bcfd0-3e24-49aa-94f0-12f17c48f73c" d="M135.63,218.79a.77.77,0,0,1-.5-.18,82.53,82.53,0,0,1-7.58-7.51.65.65,0,0,1,.13-.94.75.75,0,0,1,1,.12,79.47,79.47,0,0,0,7.44,7.37.63.63,0,0,1,0,.94A.72.72,0,0,1,135.63,218.79Z"/>
                    <path class="fc5bcfd0-3e24-49aa-94f0-12f17c48f73c" d="M132.74,222.08a.8.8,0,0,1-.3-.06l-.55-.24a23.6,23.6,0,0,0-3.77-1.45.7.7,0,0,1-.7-.69.72.72,0,0,1,.73-.64,16.51,16.51,0,0,1,4.35,1.58l.54.23a.65.65,0,0,1,.35.89A.72.72,0,0,1,132.74,222.08Z"/>
                    <path class="fc5bcfd0-3e24-49aa-94f0-12f17c48f73c" d="M130.7,227h0c-1.28,0-2.56-.15-3.91-.26a49.6,49.6,0,0,0-6.26-.27.73.73,0,0,1-.75-.64.7.7,0,0,1,.69-.69,52.13,52.13,0,0,1,6.45.28c1.33.11,2.59.21,3.82.25a.68.68,0,0,1,.69.68A.69.69,0,0,1,130.7,227Z"/>
                  </g>
                  <path class="ee801352-a492-4716-a318-ad793d950d21" d="M163.51,223.87l-.18-.05a3.77,3.77,0,0,0-1.1-.91,8.51,8.51,0,0,0-3.46-4.79,11.56,11.56,0,0,0-1.35-1.23,8.59,8.59,0,0,0-8.37-1.34,7.93,7.93,0,0,0-2.89-.29,12.91,12.91,0,0,0-8.23,4.55,11.54,11.54,0,0,0-2.22,4.95c-1.53,1-2.13,3.05-2,5.07a5,5,0,0,0,1.89,5.24c1.68,2.74,4.36,5.5,7.41,5.15a6.23,6.23,0,0,0,2.16,1.32,7,7,0,0,0,4,.24.45.45,0,0,0,.22.56,5.67,5.67,0,0,1-.57-.1c-1.41-.33-4.89,1.63-2.5,2.19,7.21,1.71,14.83-2.78,16.53-9.36a18.47,18.47,0,0,0,1.78-2.77C165.73,230.12,167,225.1,163.51,223.87Zm-7.67-2.81a10,10,0,0,0-1.91-.14,7.52,7.52,0,0,0-.69-1.91C154.14,219,155,219.55,155.84,221.06Z"/>
                  <path class="f832f3fb-aa86-4f87-9fa9-05c6c127b895" d="M201.13,287.21a9.94,9.94,0,0,1-2.86-.39c-2-.6-3.15-1.8-3.2-3.24-2.17.4-5.22.76-6.77-1.24a3.06,3.06,0,0,1-.56-2.44,3.39,3.39,0,0,1,.21-.66c-1.7-.07-4-.45-5.2-1.88a3.64,3.64,0,0,1-.56-3.65,7.08,7.08,0,0,1,3.22-3.8,2.14,2.14,0,0,1,0-2.25,4.37,4.37,0,0,1,1.91-2l-.26-.41c-1-1.64-2.3-3.68,1.08-5.73a8.74,8.74,0,0,1,4.92-1.2,2,2,0,0,1,.42-1.47,3.75,3.75,0,0,1,3.82-1l.41.14a6.22,6.22,0,0,1,2.87-2.61,4.26,4.26,0,0,1,3.88-.11,4.18,4.18,0,0,1,1.85,2.88,5.43,5.43,0,0,1,2.73,1.08,2.81,2.81,0,0,1,1,3.51l.45.11c2.12.5,4.3,1,4.66,4.16a8.46,8.46,0,0,1-2.73,6.83,3.32,3.32,0,0,1,1.34,1.51c1.33,2.84-.1,8.33-2.72,10.5a3.81,3.81,0,0,1-3.76.79C206.12,286.45,203.54,287.21,201.13,287.21Zm-5.24-5.13a.74.74,0,0,1,.52.21.62.62,0,0,1,.17.64c-.48,1.58,1.13,2.32,2.14,2.63,2.78.84,6.68.14,7.54-2a.68.68,0,0,1,.43-.4.83.83,0,0,1,.6.05,2.3,2.3,0,0,0,2.79-.33c2.17-1.79,3.45-6.65,2.36-9a1.75,1.75,0,0,0-1.93-1.11.72.72,0,0,1-.77-.54.68.68,0,0,1,.51-.76c2.37-.62,3.72-4.21,3.47-6.32s-1.51-2.52-3.59-3c-.38-.09-.77-.18-1.17-.29a.67.67,0,0,1-.49-.8l.1-.36c.34-1.2.48-1.69-.46-2.43a4.21,4.21,0,0,0-1.64-.78v.12a.71.71,0,0,1-1.42.09.92.92,0,0,1,0-.16c-.1-1.55-.59-2.69-1.34-3.11a2.84,2.84,0,0,0-2.54.18,4.82,4.82,0,0,0-2.3,2.2,3.34,3.34,0,0,1,.86,2.17.65.65,0,0,1-.36.61.63.63,0,0,1-.2.61.75.75,0,0,1-1,0,3,3,0,0,1-.94-2.91v0a2.37,2.37,0,0,0-.34-.13,2.31,2.31,0,0,0-2.25.52c-.36.47-.07,1,.24,1.44a.64.64,0,0,1-.1.87.74.74,0,0,1-.93,0c-1-.78-3.62-.12-4.93.68-2.25,1.35-1.71,2.22-.63,3.94.24.38.48.77.7,1.18a.61.61,0,0,1,0,.61.69.69,0,0,1-.55.34,2.54,2.54,0,0,0-1.7,1.46c-.24.5-.22.83-.14.92s.21.1.5.07a.71.71,0,0,1,.78.51.67.67,0,0,1-.46.78,6.07,6.07,0,0,0-3.82,3.6,2.42,2.42,0,0,0,.3,2.45c1,1.18,3.52,1.48,5.52,1.37a.68.68,0,0,1,.72.45.65.65,0,0,1-.28.77,1.48,1.48,0,0,0-.69,1,1.8,1.8,0,0,0,.31,1.42c1.19,1.53,4.1,1,6,.59l.27,0A.34.34,0,0,1,195.89,282.08Z"/>
                  <g>
                    <path class="f0fd1da1-cf83-451c-aab8-0fcd6d2d53d2" d="M200.38,260.59c-.53,1.24.54,11.87-.9,13.55s-8.6-1.91-8.93-.84,7,3.23,8.4,5.56-.51,22.74-.27,23.93,6.18,2.63,6.09.65-2-27-1.89-29.43,8-8.74,6.57-9.47-6.45,3.73-6.45,3.73S200.9,259.39,200.38,260.59Z"/>
                    <path class="e6a078cf-0dcd-4bb9-877a-b16d1dd898ad" d="M203.09,305.08c-1.64,0-4.83-.82-5.11-2.17a47.45,47.45,0,0,1,.23-5.68c.32-5.38,1-16.6.12-18-.66-1.07-3.05-2.25-5-3.19-2.45-1.21-3.8-1.87-3.48-2.89.06-.2.3-.68,1.15-.68a13,13,0,0,1,2.93.64,18.15,18.15,0,0,0,4.13.86,1.23,1.23,0,0,0,.84-.2c.73-.86.66-5.74.61-8.65,0-2.72-.05-4.17.19-4.74a.84.84,0,0,1,.78-.53c.58,0,1.17,0,2.93,7.2,1.47-1.21,4.14-3.21,5.65-3.21a1.46,1.46,0,0,1,.73.17.93.93,0,0,1,.5.67c.17.87-.85,2-3,4.36-1.56,1.7-3.69,4-3.73,5-.05,1.64.82,14,1.4,22.19.26,3.71.46,6.57.49,7.19a1.36,1.36,0,0,1-.42,1.07A2.75,2.75,0,0,1,203.09,305.08Zm-10.6-31c.49.26,1,.53,1.53.77,2.2,1.08,4.69,2.3,5.55,3.72,1,1.64.62,9.47.06,18.77-.15,2.57-.3,5-.24,5.36a6.83,6.83,0,0,0,3.7,1.08c.73,0,.92-.17.94-.19,0-.71-.2-3.56-.47-7.26-.57-8.2-1.45-20.61-1.39-22.31,0-1.36,1.64-3.2,4.06-5.85a28.05,28.05,0,0,0,2.51-3c-1.24.37-3.71,2.22-5.25,3.57a.74.74,0,0,1-.7.16.69.69,0,0,1-.49-.5c-.41-1.75-.92-3.68-1.36-5.14,0,.59,0,1.21,0,1.79.08,4.84,0,8.36-.92,9.5a2.45,2.45,0,0,1-2,.7,18.94,18.94,0,0,1-4.55-.92Z"/>
                  </g>
                  <path class="f832f3fb-aa86-4f87-9fa9-05c6c127b895" d="M134.93,279.41h0c-7.1,0-15.9-1.58-18-6-8.67.51-13.49-6.44-13.49-11.21a5.29,5.29,0,0,1,1.19-3.55,5.06,5.06,0,0,1,4.38-1.49c-1-2.44-.6-6,1.07-9,2.2-4,6-5.57,9.8-4.08a6.83,6.83,0,0,1,1.06-5.53c2.24-3.33,7.08-5.56,12-5.56a13.73,13.73,0,0,1,12.89,8.08c4.9-1.54,8.73.33,10.52,5a16.3,16.3,0,0,1,.49,9.76c4.26-.34,7.4,4.77,7.4,9.33,0,4.1-2.44,8.48-9.28,8.48a17,17,0,0,1-1.85-.1C151,277.61,142.58,279.41,134.93,279.41Zm-17.53-7.36a.71.71,0,0,1,.67.46c1.14,3.28,8.07,5.57,16.86,5.57s15.85-2.23,17.09-5.43a.73.73,0,0,1,.77-.43,17,17,0,0,0,2.19.15c7.29,0,7.85-5.47,7.85-7.15,0-3.78-2.38-8-5.58-8a4,4,0,0,0-1.52.32.76.76,0,0,1-.9-.26.66.66,0,0,1,.16-.87c1-.73,1.6-5.74,0-9.82-.82-2.13-2.51-4.67-5.93-4.67a10,10,0,0,0-3.39.68.72.72,0,0,1-.92-.38A12.39,12.39,0,0,0,133,234.37c-4.41,0-8.86,2-10.82,4.93a5.55,5.55,0,0,0-.34,5.94.63.63,0,0,1-.18.79.74.74,0,0,1-.86.05,7.25,7.25,0,0,0-3.76-1.19c-2.21,0-4.28,1.43-5.66,3.93-1.74,3.12-1.93,6.92-.46,8.86a.63.63,0,0,1,0,.76.73.73,0,0,1-.76.26c-2-.48-3.52-.2-4.4.8a4,4,0,0,0-.87,2.71c0,4.3,4.48,10.62,12.47,9.84Z"/>
                  <g>
                    <path class="f0fd1da1-cf83-451c-aab8-0fcd6d2d53d2" d="M130.63,245.34c1,1.83.82,18.14,3.23,20.53s12.83-3.94,13.48-2.35-10.18,5.76-12,9.47,3.88,34.55,3.68,36.38-9,4.75-9.17,1.72-.7-41.33-1.16-45-13.31-12.36-11.3-13.63,10.33,4.91,10.33,4.91S129.69,243.58,130.63,245.34Z"/>
                    <path class="e6a078cf-0dcd-4bb9-877a-b16d1dd898ad" d="M132,313.07c-2.5,0-2.83-1.37-2.86-1.95,0-.95-.12-5.38-.23-11-.24-12.54-.61-31.48-.92-34-.2-1.63-3.67-4.83-6.46-7.41-3.4-3.13-5.17-4.83-5-6a1.08,1.08,0,0,1,.52-.82,2.07,2.07,0,0,1,1.12-.29c2.37,0,7,3.06,9.07,4.52,1.73-11.6,2.67-11.6,3.29-11.6a.92.92,0,0,1,.82.52c.42.78.61,3.08.9,7.08.36,4.77.89,12,2.21,13.29a1.7,1.7,0,0,0,1.21.34c1.73,0,4.37-1,6.69-1.85a16.7,16.7,0,0,1,4.49-1.3,1.21,1.21,0,0,1,1.24.68c.51,1.25-1.48,2.43-4.77,4.39-2.84,1.69-6.37,3.79-7.27,5.6-1.18,2.39,1.3,18.82,2.62,27.65a78.33,78.33,0,0,1,1.12,8.52C139.5,311.28,134.66,313.07,132,313.07ZM117.89,253c.26.82,2.76,3.13,4.61,4.84,3.26,3,6.62,6.11,6.88,8.2.32,2.57.68,21.55.93,34.11.1,5.6.19,10,.23,11,0,.17,0,.68,1.43.68,2.66,0,6.22-1.77,6.32-2.44.05-.5-.51-4.24-1.11-8.19-2-13.52-3.76-25.86-2.5-28.39,1.07-2.17,4.64-4.29,7.8-6.17a32,32,0,0,0,3.91-2.57,24.06,24.06,0,0,0-3.58,1.16c-2.44.91-5.21,1.94-7.22,1.94a3.1,3.1,0,0,1-2.25-.75c-1.55-1.54-2.07-7.06-2.59-14.12-.13-1.78-.28-3.72-.44-5-.58,2.2-1.34,6.39-1.9,10.27a.66.66,0,0,1-.44.53.75.75,0,0,1-.71-.1c-1.85-1.37-7.1-4.94-9.17-4.94Z"/>
                  </g>
                </g>
                <path class="b20f5c65-6000-4141-b997-98043a18099d" d="M161.23,258.72c-1.66-2-4.67-1.28-6.69.22a6.23,6.23,0,0,0-1.8.84l-.1-.11a13.3,13.3,0,0,0-.7-2.22,6.9,6.9,0,0,0,4.05-4c.71-2.63.2-5.54-1.67-7.23a5.93,5.93,0,0,0-.48-.94c-.84-1.32-2.8-1.38-4.49-1-.68-.48-2.94-.08-4.25.47q-.36,0-.75,0a37.68,37.68,0,0,0,2-3.54c.52-1-1.91-.94-2.33-.9a12.13,12.13,0,0,0-2.69.5l1.09-1.93c.58-1-1.94-1-2.32-.9a18.38,18.38,0,0,0-3.07.75,2.55,2.55,0,0,0-2.44-3.17c-.15-.72-1.86-.61-2.35-.57a10.56,10.56,0,0,0-4.13,1.19,5.22,5.22,0,0,0-3.67,1.77,10.51,10.51,0,0,0-1.07,2.71,1.09,1.09,0,0,0-.36.61c0,.21,0,.41,0,.61l-.44,0c-1.31-1-5.6.16-5.23,1.68.16.68.36,1.34.58,2l-.06,0c-.53-1.61-4.65-.19-5.31.71a12,12,0,0,0-1.64,11.3c.26.67,1,.82,1.91.71,0,.11.12.23.17.34a3.6,3.6,0,0,0-2.34.32c-1.69-.87-4.42-.18-4.78,1.76a7.42,7.42,0,0,0,3.55,8,2.67,2.67,0,0,0,1.44.37,3.78,3.78,0,0,0,2.51-.23c.1.16.18.32.28.47a2.52,2.52,0,0,0,2.6.84c.37.64.75,1.28,1.13,1.92a9,9,0,0,0,.91,1.56c.74,1,2.34,1.06,3.59.55.37.58.71,1.18,1.05,1.78.77,1.37,3,1.1,4.27.12,1.23-.32,2.38-1.16,2.48-2.11a9.17,9.17,0,0,0-1.23-6.1,25.15,25.15,0,0,1-.24-2.73c0-.77-1.09-1-2.28-.89a7.6,7.6,0,0,1-.58-1.44,2.14,2.14,0,0,0-2.11-.9c-.13-.36-.27-.72-.39-1.09-.21-.68-1-.95-1.92-.95l-.22-.38h0c-.07-.12-.13-.24-.2-.35a1.32,1.32,0,0,0-.87-.55,1.11,1.11,0,0,0,.36-.76V255.5c0-.5-.7-.69-1.59-.66l-.21-1c.19-1-1.08-1.11-2.45-.82a8.69,8.69,0,0,1,0-1,6,6,0,0,0,2.33-.91,11.1,11.1,0,0,1,1.61,1.09,2.76,2.76,0,0,0,1.38.37l.22.33v0h0c.06.09.11.18.18.27.83,1.15,5.75-.12,5.33-1.65-.08-.29-.19-.57-.28-.86a4.28,4.28,0,0,0,1.59-.85c1.37-.29,2.68-1,2.61-1.94a18.59,18.59,0,0,0-1-5,3.94,3.94,0,0,0,.62-.43c-1,1.82,4.11.55,4.82.09a2.1,2.1,0,0,0,.26-.13c-.57,1-1.12,2.09-1.61,3.17-.8,1.75,4.38.34,4.92-.05l.37-.28c-.17.27-.35.54-.53.81a7.41,7.41,0,0,0-2.06.51c-1.42.26-2.94.88-3,1.43a2.08,2.08,0,0,0,0,.23h0v0a26.4,26.4,0,0,0-.31,3.85c-1.38,1.49-1.74,3.53.14,5.11a5,5,0,0,0,.3,2.38l.09,1.27c-.55.29-.94.64-.94,1v2.66c0,1,5.08-.2,5.48-1.14a1.63,1.63,0,0,0,.09-.19c.61-.3,1-.66,1-1,0-.2,0-.39,0-.59s.2-.24.3-.36a.73.73,0,0,0-.08.33v1.33c0,.38.84.43,1.86.29a3.78,3.78,0,0,0,.44.55c.62.63,3.07,0,4.4-.69a12.73,12.73,0,0,0,1.19,3.62c0,.12-.05.23-.07.34a10.15,10.15,0,0,0-4.87,0c-2.61.77-7.29,4.16-5.7,6.58-1.1,1.51-1.44,3.33,1,4.2a8.68,8.68,0,0,0,6.58-.57,15.29,15.29,0,0,0,8.65-4.46c1.86,1,5.21-.44,6.5-1.94a7.64,7.64,0,0,0,1.2-2.11C163,265.85,163.61,261.6,161.23,258.72Zm-16,1.35a2.12,2.12,0,0,0-.82-2.11,4.75,4.75,0,0,0,1.86-.14l0,.08a12.7,12.7,0,0,0-.28,2.73A1.69,1.69,0,0,0,145.2,260.07Z"/>
                <path class="b20f5c65-6000-4141-b997-98043a18099d" d="M209.19,263.81a15.83,15.83,0,0,1-.4-2,20.86,20.86,0,0,0,.26-2.23c.08-1.71-2.19-1.61-3.45-.72a27.09,27.09,0,0,0-1.23-4.32c-.56-1.8-3.9-.94-4.17.64a9.35,9.35,0,0,0,0,2.64,6.29,6.29,0,0,0-2.3.95,7.06,7.06,0,0,0-4.41,1.07,6.83,6.83,0,0,0-1.39.57c-1.55.05-3.67.69-3.9,1.56a9.74,9.74,0,0,0,.82,6.86c-1.42.64-2.61,1.55-2.75,2.63a5,5,0,0,0-1.71,3.17,2.08,2.08,0,0,0,.95,2.68l.08,0a4.14,4.14,0,0,0,1,.45,4,4,0,0,0,1.67,1.91,4.9,4.9,0,0,0,1.34,3.12c.85.91,3.16.63,4.44-.22.12.13.24.26.38.39,1.44,1.33,6.67-.61,5.11-2.05-.95-.88-1-2.14-1.23-3.32s-2.18-1.1-3.72-.51l-.32-.39-.06-.26c-.24-.87-1.67-.9-2.4-.82a1.28,1.28,0,0,0-.72-.6,1.5,1.5,0,0,0-.36-1.84c1.48.11,3.51-.12,4.36,1.14.62.91,4.07,0,4.14-1a1.79,1.79,0,0,1,0-.23c.89-.29,1.54-.71,1.38-1.27a13.53,13.53,0,0,0-1-2.49c0-.1,0-.19,0-.29.19-1.93.39-3.86.52-5.8l.54-1.45a1.24,1.24,0,0,0,.31-.36c.24.85.51,1.71.74,2.56a20.06,20.06,0,0,0,.52,2.39c.44,1.75,3.69,1,4.1-.53C207.66,266,209.56,265.13,209.19,263.81Z"/>
                <path class="b20f5c65-6000-4141-b997-98043a18099d" d="M212.73,269.14c.44-1.32.81-2.66,1.25-4,.27-.8-3.09-.26-3.93.49-.78.23-1.43.58-1.43,1v1.22a4.92,4.92,0,0,0-3.41,1.46c-1.06,1.37-1,2.39-.29,3-1.07.73-3.62,3.14-2.24,4.4a2.45,2.45,0,0,0,.37.26,34.76,34.76,0,0,0,.58,8.07c.19.88,3.87-.12,4.11-.85,0-.15.07-.29.11-.43a7.12,7.12,0,0,0,2.22-.87,7,7,0,0,0,1.14-1.68c.38-.2.64-.44.66-.69l0-.25c1.36-1.76,1.5-4.32,1.23-6.4,0-.28-.4-.36-.89-.34,0-.05,0-.11,0-.16,0-.26-.43-.33-1-.29a5,5,0,0,0-.07-.54c0-.25-.29-.36-.63-.37a2.56,2.56,0,0,0,.78-1.11.24.24,0,0,0-.12-.32l.45-1C212.2,269.65,212.65,269.39,212.73,269.14Z"/>
              </g>
              <path class="ae531560-6325-4c9b-a943-273384e64dd4" d="M100.63,413.68a7.64,7.64,0,0,1,2,6.42"/>
              <g>
                <path class="a20d4a7d-0298-4dea-8dae-847fa2a4be93" d="M117.89,395c-1.3-1-.49-2.37.78-2.56,2.79-.41,38.36,8.08,40.07,9.88.85.89-.49,3.92-1.26,4.13C155.48,407.06,119.78,396.54,117.89,395Z"/>
                <path class="e6889c17-0ff5-4cde-9904-0f9508e21abe" d="M148.05,404.56c-2.48-1.64-.29-5.37,1.6-5.25.85.05,15.65,4.21,16.54,5.2-.88.2-2.81,2.49-1.13,3.71C163.76,408.62,148.76,405,148.05,404.56Z"/>
                <path class="e2a12769-f777-456d-b821-7ef0f668c255" d="M165.64,404.12c1.4-.59,9.29,0,12.78,5,1.23,1.76-7.69,4.09-13.84-.87C163.51,407.38,163.77,404.91,165.64,404.12Z"/>
              </g>
            </g>
            <g>
              <g>
                <path class="fbc5b67f-3508-414e-9862-5bfa7e26737a" d="M91.72,381.3c.25-3.23-6.16-5-7.36.59-1.43,6.55,8,7,7.76,11.94s-8,3.58-5-.87c-8.54-3.08-11.25-12.6-5.26-18.1,4.72-4.35,9.59,1.15,10.51-1.56A33.79,33.79,0,0,1,91.72,381.3Z"/>
                <path class="fbc5b67f-3508-414e-9862-5bfa7e26737a" d="M119.34,400.61c-2.14,4.34-23.79,3.43-26.8,0-1.63-1.85-1.63-27.47-.56-29.4,2.18-3.92,25.27-3,27.36.15C120.64,373.35,120.32,398.61,119.34,400.61Z"/>
                <path class="fd4b5485-c3bb-4d70-b3f2-94719ad48bf6" d="M115.26,375.28c1.35.59,2.7,22.51.64,25.78-1.62,2.58-12,2.15-13,1s-1-25.56,0-26.23S114.17,374.81,115.26,375.28Z"/>
                <path class="b89bb86c-388d-4e5a-9cda-6313e20ce606" d="M93.36,371.41c1.34-2.46,24.24-3,24.37.49S91.26,375.26,93.36,371.41Z"/>
              </g>
              <g>
                <path class="ae531560-6325-4c9b-a943-273384e64dd4" d="M113.35,343.06c-.87-.53-2.12-5.61-1.49-6.92s7.66-.25,7.72.81-2.74,6.48-3.71,6.49A4.41,4.41,0,0,1,113.35,343.06Z"/>
                <path class="a714fa19-7ff2-4e52-afb2-ba811c428303" d="M108.73,373.12c1.23-11,3-24,3.71-25,.58-.81,2.9-.21,3.12.38.33.88-1.42,13.83-3.15,24.76"/>
                <path class="b787c4b9-2840-4040-b7f7-3de79863e9e4" d="M115.13,354.51c-.37.43-3.73,0-4-.47s1.46-10.25,2.09-10.91a3.65,3.65,0,0,1,2.8.34C116.48,344.24,115.51,354.08,115.13,354.51Z"/>
              </g>
              <g>
                <path class="e668b0a7-19cc-4f3c-bf8b-e4f380a79494" d="M104.6,349c-3.69-5.6.23-7.54,0-11.77-.12-2.33,7.16,3.32,3.8,11.72Z"/>
                <path class="ff7d0eba-a61a-4489-b42f-c84e20a77eb3" d="M106.46,373.75c-1.37-8.31-2.54-18.49-1.79-19.35s4.31-.87,4.82-.49c.76.57,2,11.32,2.59,19.84C109.85,374,107.8,373.68,106.46,373.75Z"/>
                <path class="b787c4b9-2840-4040-b7f7-3de79863e9e4" d="M110.9,360.86c-.41.58-5.59,1.09-6.11.62s-1.29-11.75-.57-12.66,3.43-1.17,4.32-.43S111.32,360.29,110.9,360.86Z"/>
              </g>
              <g>
                <path class="ae531560-6325-4c9b-a943-273384e64dd4" d="M118,350.16s.81-5.31.8-6.15,2.28-.72,3.24.22a5.06,5.06,0,0,1,3.87,1.12,3.34,3.34,0,0,0,2.61.83,1.63,1.63,0,0,1,1.73,1.64c-.08.6,1.77.25,1.5,1.36s-2.94,3-4,5.09S117.11,351.78,118,350.16Z"/>
                <path class="b787c4b9-2840-4040-b7f7-3de79863e9e4" d="M112.81,367.12c-.94-.88-.16-2.51,1.17-2.78.58-.22,3-4.4,3.34-5s-2.06-2.81-2.19-3.85,2-5.55,2.74-5.72c1.42-.35,9.42,3.38,10.37,4.3.5.49-1.81,5.11-2.73,5.72s-4.26.46-4.54,1.07-2,5.1-1.77,5.65c.22,1,0,2.5-1.43,2.68C117.29,371.17,111.54,368.78,112.81,367.12Z"/>
                <path class="b0d6342e-3043-420c-9754-04d79943bdbe" d="M109.25,374.3a40.34,40.34,0,0,1,3.44-7.4,12.81,12.81,0,0,0,5.4,2.24,24.65,24.65,0,0,1-1.4,3.68"/>
              </g>
              <g>
                <path class="f36a2bca-b7c4-4dae-886a-349aa79460d3" d="M107,374.3c.14-.76-7.37-25.13-7.88-25.89a35.13,35.13,0,0,0-2.54-2.81s-1.89-3-2-2.36a18.35,18.35,0,0,0,.05,2.93,31.29,31.29,0,0,0-.33,3.36c0,.89,7.58,24.21,8.16,24.77Z"/>
                <path class="fb8a443a-7cfb-43ae-9c9b-eb3c84e47265" d="M94.62,346.17a31.79,31.79,0,0,0-.33,3.36c.09.4.88.84,1.11.74s.91-1.14,1.54-.62a1,1,0,0,0,1.58-.12c.3-.42.69-1,.69-1a12.26,12.26,0,0,0-2.6-2.92C96.67,346.14,95,346.66,94.62,346.17Z"/>
              </g>
              <g>
                <path class="bbfaa438-e015-4309-b5e0-446c9bb1af92" d="M103.64,374.21c-1.26-3-8.71-16.4-9.38-16.94a33.19,33.19,0,0,0-3.61-2s-2.8-2.47-2.9-1.73a13.94,13.94,0,0,0,.42,3,27.18,27.18,0,0,0,0,3.56c.1.61,5,8.34,7.94,12.88C97.87,374.34,102.92,374.35,103.64,374.21Z"/>
                <path class="fb8a443a-7cfb-43ae-9c9b-eb3c84e47265" d="M88.17,356.52a26.26,26.26,0,0,0,0,3.56c.16.39,1.23.57,1.51.39s1-1.5,1.9-1.17a1.69,1.69,0,0,0,2-.67c.33-.53.76-1.27.76-1.27a11.86,11.86,0,0,0-3.7-2.11C90.8,355.78,88.71,356.9,88.17,356.52Z"/>
              </g>
              <path class="b8e112bb-b778-406f-a12e-01c4da659c80" d="M117.46,371.21c3,2.83-4.68,3.49-11.52,3.49S90.87,373,94.46,371.36C96.38,375,118,374.57,117.46,371.21Z"/>
            </g>
            <g>
              <path class="ae8a4cd1-d464-467e-b5bc-9b105851ca81" d="M194.76,389.81a40.33,40.33,0,0,1,3.83-2.17c1-.4,29.62-.67,30.49-.18,3.1.84,1.92,5.05.53,5.43-.82.57-29.2,2.28-30.26,2a42.38,42.38,0,0,1-4.44-2.09"/>
              <path class="eaa9092e-77fb-4c3a-8b1f-3224b5cce2ea" d="M194.91,392.77s-4-.92-3.25-1.46a22.74,22.74,0,0,1,3.1-1.5C195.42,389.59,196.18,392.81,194.91,392.77Z"/>
              <path class="eacb9406-325c-4557-91c7-50855532506d" d="M228.94,387.55a2.55,2.55,0,0,1,.93,4c-.31.47-28.36,2.09-29.28,1.82l-3.9-1.09s-1.18-1.09-.55-1.56a.94.94,0,0,0,.42-1,7.69,7.69,0,0,1,2.15-2"/>
              <path class="a26ce73f-486e-4865-96c4-5003ae66698c" d="M194.76,389.81a36.31,36.31,0,0,1,3.83-2.17c.49-.09,1.48.72,1.46,1.1s-1,1.84-.08,2.44a1.69,1.69,0,0,1,.5,2.26,9.85,9.85,0,0,1-1.12,1.42,12.16,12.16,0,0,1-4.23-2.09C195.77,392.59,195.49,390.06,194.76,389.81Z"/>
            </g>
            <path class="f36a2bca-b7c4-4dae-886a-349aa79460d3" d="M267.82,390c-6.42-3.86-10.8-2.77-13.85-3-4.64-.29-9.15,4.61-11.75,3.12-5.33-3.06-11.53,3.73-4,3.18,8.9-.65,5.34,2.08,3.59,4-2.8,3.06,6,4.08,6.86,1,.63-2.32,5.5-1.24,8.45-.13s8.71-.54,9.67-1.52,6.33,4.43,10,1.42c5.18-4.24-7.4-1.79-8.41-3.74-.69-1.33,10.85-1.5,16.07,0,7.49,2.22,5.06-5.94-1.77-4S269.3,390.93,267.82,390Z"/>
            <path class="f36a2bca-b7c4-4dae-886a-349aa79460d3" d="M213.72,399c2.33-2.42,11.88-2.88,12.63.17C227.25,402.79,209.44,403.41,213.72,399Z"/>
          </g>
          <path class="ee801352-a492-4716-a318-ad793d950d21" d="M129.67,310.79c3-2.14,5.81-4.75,9.28-6.15,5.71-2.31,12.35-.92,17.9,1.71s10.44,6.41,15.89,9.24,11.89,4.66,17.82,3c3.21-.91,6-2.79,8.95-4.36,7.12-3.8,15.71-5.79,23.46-3.4,4.14,1.28,7.79,3.72,11.8,5.36a32.73,32.73,0,0,0,16.3,2.19A46.76,46.76,0,0,1,239.51,323a165,165,0,0,1-76.32,3.43c-6.34-1.21-12.8-2.82-19.19-1.87-5.48.8-10.51,3.43-15.95,4.45-4,.76-26.09-.94-20.79-8.89,1.54-2.31,7-2.83,9.42-3.52A42.59,42.59,0,0,0,129.67,310.79Z"/>
          <polygon class="b8a799b2-a633-49e0-b44b-26a13c2adb92" points="102.39 171.33 85.39 186.12 88.03 190.02 108.38 171.98 102.39 171.33"/>
          <polygon class="b8a799b2-a633-49e0-b44b-26a13c2adb92" points="240.86 183.47 223.65 168.88 219.69 171.66 240.65 189.08 240.86 183.47"/>
        </g>
        <path class="fbc7a4f6-9e26-4eb3-918a-b1c5aeada037" d="M408.29,453.62s-1.21,6.78,2.14,26.85c0,0-3.26,8.18,6.69,10.78s13.38-14.87,13.38-14.87l-6.69-32.61S408.29,439.49,408.29,453.62Z"/>
        <path class="fbc7a4f6-9e26-4eb3-918a-b1c5aeada037" d="M343.52,461.89l3.91,24.25s2,12.92,13.93,7.34,4.5-17,4.5-17l-1.24-15.84S353.47,444.79,343.52,461.89Z"/>
        <g>
          <path class="fbc7a4f6-9e26-4eb3-918a-b1c5aeada037" d="M235.36,220.1s-5.39-7.34-14.12-.09l.55,8.36s1.4,17.66,19.43,18.31,6.87-20.26,6.87-20.26Z"/>
          <path class="fbc7a4f6-9e26-4eb3-918a-b1c5aeada037" d="M213.62,215.46s-4.83,2.79-3.35,8.18,6.14,9.47,16.36,5.2c0,0,3.9-5.76-6.88-7.43l1.49-4.28Z"/>
          <path class="fbc7a4f6-9e26-4eb3-918a-b1c5aeada037" d="M214.92,209.7s-5,3.07-1.86,7.24c8.18,10.78,16.08,1.86,16.08,1.86s-.1-3.9-7-7.62S214.92,209.7,214.92,209.7Z"/>
          <path class="fbc7a4f6-9e26-4eb3-918a-b1c5aeada037" d="M251.34,227.72s-4.83-17.47-11.7-23.23c0,0-18.64-1.09-29.86,2.88,0,0,.86,5.49,10,4.93a92.42,92.42,0,0,1,12.82-.19l13.2,15.61Z"/>
          <path class="ae5de6d4-31f6-4827-90f3-dd82515a8c56" d="M243.58,216.57s2.93,3.63,3.12-.28h0L251.46,229l-8.57-5.62Z"/>
          <g>
            <path class="f218fc91-d19a-470d-a9ee-74c1f92fc325" d="M189.05,234.74l-.71.42.37-.74A3.6,3.6,0,0,1,189.05,234.74Z"/>
            <path class="f218fc91-d19a-470d-a9ee-74c1f92fc325" d="M272.56,191.24a2.43,2.43,0,0,1-.81,1.81,74.41,74.41,0,0,1-16.4,11.72l-47.48,25-17.3,9.11a5.15,5.15,0,0,0-1.52-4.13L205.33,225l45.47-27.31a111.08,111.08,0,0,1,18.25-8.8l.07,0A2.54,2.54,0,0,1,272.56,191.24Z"/>
            <path class="e790614e-bd05-49c4-93f7-fa56cc2bf390" d="M189.05,234.74l-.71.42.37-.74A3.6,3.6,0,0,1,189.05,234.74Z"/>
            <path class="e790614e-bd05-49c4-93f7-fa56cc2bf390" d="M190.57,238.87a5.15,5.15,0,0,0-1.52-4.13L205.33,225a7.23,7.23,0,0,1,2.54,4.8Z"/>
          </g>
          <path class="a4ece484-434b-4808-a7b9-257b8cee303a" d="M190.11,235.8s-9.41-6-14.61,7.6-10.8,3.2-10.8,3.2,8.56,17.45,20,3.63a17.19,17.19,0,0,0,3.62-9.06,4.25,4.25,0,0,1,2.21-3Z"/>
          <path class="fbc7a4f6-9e26-4eb3-918a-b1c5aeada037" d="M243.54,238.87C229.79,236.46,232,219.36,232,219.36c-12.64-6.69-8.55-10-8.55-10s6.32-2.23,14.49,3.15,10.22,12.46,16.17,19,25.46,19,39.59,21.19l7.06-3s-1.49,13.2,10.22,26.58c0,0-12.27,5.57-18,6.88s-31.4-11.9-52-37.17"/>
          <path class="e5542847-8ad9-4b52-ae4d-e5d7f4dbe132" d="M324.29,349.27s-1.4,36,6.13,68.85,12.82,48.78,12.82,48.78,7.53,6.7,24.26-.27c0,0-.56-64.4,2.51-78.34,0,0-.84-17.84,34.28,74.71,0,0,7.53,6.69,17.57,4.46s7.8-8.92,7.8-8.92-9.2-80.28-17-113.36C405,312.64,324.85,332.82,324.29,349.27Z"/>
        </g>
        <path class="a05189f5-f1bf-4b46-bec1-8d216cae9597" d="M411.27,278.46s-3.08,34.85,1.66,49.9,7.53,17,1.12,23.13-43.21,26.49-80.56,9.77l-9.76-10s0-42.93,2.79-81.13l-7.07,3.07-9.65,4.18s-13.39-10.59-10.88-28.43c0,0,3.43-1.52,8.43-3.71,6.94-3,16.92-7.38,25-10.78,14-5.87,24.82-5,24.82-5s30.93,1.4,45.71,5a55.93,55.93,0,0,1,23.7,12.26s17.84,25.65,20.9,34.57c0,0-14.77,13.38-27,14.49Z"/>
        <path class="a6a93137-0033-4c35-b90d-53b2dbcff376" d="M393.14,235.67c0,5.31-7.1,10.45-18.95,10.45s-24-5.14-24-10.45,9.61-9.62,21.47-9.62S393.14,230.36,393.14,235.67Z"/>
        <path class="fbc7a4f6-9e26-4eb3-918a-b1c5aeada037" d="M387.8,225.83c-.53,4.61,1.44,5.51,1.44,5.51s0,10.6-16.45,9.77-17.56-9.77-17.56-9.77a19.36,19.36,0,0,0,1.6-6.47,11.18,11.18,0,0,0-.77-5.23c4.19-12,37.36-10.59,33.46-.28A27.39,27.39,0,0,0,387.8,225.83Z"/>
        <path class="bfb30134-44db-4283-8683-2213590781a6" d="M388.93,219.36a28.88,28.88,0,0,0-1.67,6.47c-12.53,4.24-24.57,1-30-1a11.46,11.46,0,0,0-.74-5.23C360.59,207.65,392.71,209.05,388.93,219.36Z"/>
        <g>
          <g>
            <path class="fbc7a4f6-9e26-4eb3-918a-b1c5aeada037" d="M330.91,164.06a15.25,15.25,0,0,0-7.17-12.43c-7.27-4.41-11.6,8.3-8,19s11.24,12.87,14.7,9.71"/>
            <g>
              <g>
                <path class="ae5de6d4-31f6-4827-90f3-dd82515a8c56" d="M327.37,174.38S322.83,158.3,315.63,162"/>
                <path class="b6a43877-8d7f-462a-87ac-6f2cacccbefd" d="M327.32,174.39a40.68,40.68,0,0,0-1.83-4.42,27.73,27.73,0,0,0-2.34-4.12,12.89,12.89,0,0,0-3.21-3.25,4.79,4.79,0,0,0-2-.82,5.46,5.46,0,0,0-2.28.22l0-.09a4.28,4.28,0,0,1,2.35-.83,4.75,4.75,0,0,1,2.5.66,9.91,9.91,0,0,1,3.36,3.67,33.52,33.52,0,0,1,3.6,9Z"/>
              </g>
              <g>
                <path class="ae5de6d4-31f6-4827-90f3-dd82515a8c56" d="M323.71,165.42s-4,1-3.87,9.37"/>
                <path class="b6a43877-8d7f-462a-87ac-6f2cacccbefd" d="M323.72,165.47a4.27,4.27,0,0,0-1.88,1.74,7.9,7.9,0,0,0-1,2.38c-.22.84-.23,1.72-.41,2.57-.06.43-.15.86-.23,1.3a9.5,9.5,0,0,1-.32,1.33h-.1a8.28,8.28,0,0,1-.34-2.75,9,9,0,0,1,.2-1.37c.16-.44.25-.9.44-1.33a8.17,8.17,0,0,1,1.35-2.43,4.53,4.53,0,0,1,2.26-1.55Z"/>
              </g>
            </g>
          </g>
          <path class="fbc7a4f6-9e26-4eb3-918a-b1c5aeada037" d="M433.56,174.15c-7.46,31.3-33,50.23-60.3,50.23s-57-18-49.25-63.33c1.95-11.43,4.86-31.44,3.07-39.3-3.3-14.48-7.7-12.54,21.74-18.68C434.53,85.19,440.81,143.77,433.56,174.15Z"/>
          <path class="bfb30134-44db-4283-8683-2213590781a6" d="M419.07,121s-52.13,13.93-83.07,7l-10.6,19.79-.55-47.67,52.4-9.76,52.41,18.4L438,151.62l-13.1,29.83s1.4-15-4.74-27.88S419.07,121,419.07,121Z"/>
          <g>
            <g>
              <g>
                <ellipse class="b0fcffb4-36aa-4aa1-be22-06e5220fd1ed" cx="389.43" cy="164.86" rx="13.19" ry="13.1"/>
                <path class="f1645d99-d059-4aba-acdc-e859c4c01027" d="M402.67,164.86a13.21,13.21,0,0,1-3.81,9.41,13.72,13.72,0,0,1-19.29.42,13.58,13.58,0,0,1,9.86-23.4,13.69,13.69,0,0,1,9.43,4.17A13.17,13.17,0,0,1,402.67,164.86Zm-.1,0a13,13,0,0,0-3.88-9.23,13.17,13.17,0,0,0-18.52,0,13,13,0,0,0,0,18.44,13.18,13.18,0,0,0,18.52,0A13,13,0,0,0,402.57,164.86Z"/>
              </g>
              <ellipse class="b680deb1-b028-46a7-bace-d170d6d2ee8a" cx="391.1" cy="164.21" rx="6.55" ry="6.5"/>
              <ellipse class="b0fcffb4-36aa-4aa1-be22-06e5220fd1ed" cx="393.31" cy="159.19" rx="1.87" ry="1.86"/>
            </g>
            <g>
              <g>
                <ellipse class="b0fcffb4-36aa-4aa1-be22-06e5220fd1ed" cx="345.09" cy="161.59" rx="11.26" ry="12.47"/>
                <path class="f1645d99-d059-4aba-acdc-e859c4c01027" d="M356.4,161.59a13.45,13.45,0,0,1-3,8.7,11.19,11.19,0,0,1-8.28,4.25,11.33,11.33,0,0,1-8.75-3.86,13.81,13.81,0,0,1,0-18.18,11.3,11.3,0,0,1,8.74-3.86,11.16,11.16,0,0,1,8.28,4.25A13.41,13.41,0,0,1,356.4,161.59Zm-.1,0a13.21,13.21,0,0,0-3.11-8.55,10.42,10.42,0,0,0-16.19,0,13.39,13.39,0,0,0,0,17.06,10.41,10.41,0,0,0,16.19,0A13.2,13.2,0,0,0,356.3,161.59Z"/>
              </g>
              <ellipse class="b680deb1-b028-46a7-bace-d170d6d2ee8a" cx="345.75" cy="160.63" rx="6.25" ry="6.19"/>
              <ellipse class="b0fcffb4-36aa-4aa1-be22-06e5220fd1ed" cx="348.54" cy="156.72" rx="1.6" ry="1.77"/>
            </g>
            <path class="f1645d99-d059-4aba-acdc-e859c4c01027" d="M358.81,162a16.63,16.63,0,0,1,.9,2.24,17.26,17.26,0,0,1,.61,2.35,15.85,15.85,0,0,1,.25,4.92,11.55,11.55,0,0,1-1.7,4.8,9.59,9.59,0,0,1-4.05,3.2l.5-.72a4.63,4.63,0,0,0,.61,2.43,4.49,4.49,0,0,0,1.82,1.82,8.87,8.87,0,0,0,2.68.86c.48,0,1,.12,1.47.15s1,0,1.5,0v.1l-1.5.14c-.5,0-1,0-1.51,0a8.33,8.33,0,0,1-2.94-.7,5.17,5.17,0,0,1-2.26-2,5.62,5.62,0,0,1-.8-2.92v0l.05,0a9.55,9.55,0,0,0,3.62-2.92,10.57,10.57,0,0,0,1.65-4.37,17.35,17.35,0,0,0,0-4.72,24.3,24.3,0,0,0-1-4.62Z"/>
            <path class="b680deb1-b028-46a7-bace-d170d6d2ee8a" d="M381.91,141.27s-2-6.54,5.35-7.13c6.31-.52,14.53,4.7,19.1,11.71a1,1,0,0,1-1.36,1.4C400.19,144.35,390.81,139.74,381.91,141.27Z"/>
            <path class="b680deb1-b028-46a7-bace-d170d6d2ee8a" d="M352.74,137.22s1.64-6.53-4.42-7.13c-5.23-.51-12,4.7-15.81,11.72-.48.88.38,1.93,1.12,1.39C337.61,140.31,345.38,135.7,352.74,137.22Z"/>
          </g>
          <path class="a1d61222-aca7-426d-9c2f-40b369b45bcd" d="M422.69,116.22s-31.78,4.69-45.16-5.62c0,0-8.08,7.52-21.18,3.06,0,0,0,9.76-19.8,8.64,0,0-10.87,22-11.15,29.55,0,0-14.77-25.36-6.13-47.39s31.22-36,66.62-38.75S438.58,88,442.76,100.56l.28-14.5s5.58,7.53,2.79,15.06c0,0,3.62-3.35,10.31,2.79,0,0-8.08-.28-9.2,3.34,0,0,8.09,6.41,10,20.63s-3.07,39.31-14.22,48.23c0,0-10.59-1.4-14.21,5.85,0,0-6.14,4.46-2.23-7.25s-10.6-32.06-4.74-57.7Z"/>
          <g>
            <path class="fbc7a4f6-9e26-4eb3-918a-b1c5aeada037" d="M424.34,183.53s1.8-8.09,13.66-12.1,15.18,9.06,7.23,19.6-19.82,12.31-24.17,8.93"/>
            <g>
              <g>
                <path class="ae5de6d4-31f6-4827-90f3-dd82515a8c56" d="M427.07,194.15s10.65-15.94,20.44-11.83"/>
                <path class="b6a43877-8d7f-462a-87ac-6f2cacccbefd" d="M427,194.12a39.7,39.7,0,0,1,8.46-9.47,15.83,15.83,0,0,1,5.68-3.07,8.49,8.49,0,0,1,6.36.69l0,.1a10.38,10.38,0,0,0-6.05.17,20.87,20.87,0,0,0-5.48,2.75,34.76,34.76,0,0,0-4.73,4.11,44.52,44.52,0,0,0-4.11,4.77Z"/>
              </g>
              <g>
                <path class="ae5de6d4-31f6-4827-90f3-dd82515a8c56" d="M434.68,185.33s5.77,1.24,3.46,9.68"/>
                <path class="b6a43877-8d7f-462a-87ac-6f2cacccbefd" d="M434.69,185.28a5.31,5.31,0,0,1,2.59,1.37,6,6,0,0,1,1.54,2.58,7.07,7.07,0,0,1,.33,3,11.78,11.78,0,0,1-.35,1.45,10.29,10.29,0,0,1-.61,1.35l-.1,0a11.74,11.74,0,0,1,0-1.46c0-.47,0-.94,0-1.4a14.37,14.37,0,0,0-.1-2.71,5.42,5.42,0,0,0-1.13-2.44,5.06,5.06,0,0,0-2.25-1.61Z"/>
              </g>
            </g>
          </g>
        </g>
        <g>
          <g>
            <path class="ad49b58a-500b-422d-aca4-9ac935c435e9" d="M408,346.08c-4.78-16.41-31.36-28.07-66.37-24.69-12.33,1.19-25.21,3.31-34,10.33-12.55,10,9.11,16,3.89,22-5.5,6.34-29.27,1.11-33.45,13.1-5.63,16.13,32.73,22.06,67.75,18.67S412.93,363.21,408,346.08Zm-90.22,30.78c-8.23,0-14.91-3.05-14.91-6.83s6.68-6.82,14.91-6.82,14.92,3.05,14.92,6.82S326,376.86,317.73,376.86Z"/>
            <path class="a4b4e179-64c1-4d91-9cbc-fe7ac2889218" d="M408,344.12c-4.78-16.4-31.36-28.06-66.37-24.68-12.33,1.19-25.21,3.3-34,10.33-12.55,10,9.11,16,3.89,22-5.5,6.34-29.27,1.11-33.45,13.09-5.63,16.14,32.73,22.06,67.75,18.68S412.93,361.26,408,344.12Zm-90.22,30.79c-8.23,0-14.91-3.05-14.91-6.83s6.68-6.82,14.91-6.82,14.92,3.05,14.92,6.82S326,374.91,317.73,374.91Z"/>
          </g>
          <path class="a4ece484-434b-4808-a7b9-257b8cee303a" d="M320.66,332.54s-5.57,4.46,4.46,6.41,5-7.53,5-7.53-7-1.67-5.85-10c0,0-6.14.84-2.23,11.15"/>
          <path class="a89b31bf-722d-446f-ac49-9dce1cab93ad" d="M360.43,327.24c0,3.7-5.94,5.58-8.64,5.58s-5.57-.21-5.57-3.9,2.18-6.69,4.88-6.69S360.43,323.55,360.43,327.24Z"/>
          <path class="ef6f4ffa-4801-4eae-a2be-6b0318cfad85" d="M385.71,360c0,3.7-5.95,5.58-8.64,5.58s-5.58-.21-5.58-3.91,2.19-6.69,4.88-6.69S385.71,356.26,385.71,360Z"/>
          <path class="fb958bd9-94c6-4223-89f1-4a614152437a" d="M388.59,341.69c0,3.62-2.91,3.49-7.53,3.49s-9.2.13-9.2-3.49,8.21-11.29,12.83-11.29S388.59,338.07,388.59,341.69Z"/>
        </g>
        <g>
          <path class="fbc7a4f6-9e26-4eb3-918a-b1c5aeada037" d="M364.34,325.48s3.34,9.1,14.49,1.67c0,0,10-4.65,21,4.65,0,0,3.53,2.6,6.88,9.1a28.9,28.9,0,0,0,6.5-9.29s28.62-4.09,40.89-19.7c0,0,4.27-6.5-8.18-30.48,0,0-1.11,3.35-24.16,13.38l1.49,5.58s-2,3.9-12.27,11.34-13.38,9.66-19.7,8.36-9.29-5.58-17.84.93Z"/>
          <g>
            <path class="ae5de6d4-31f6-4827-90f3-dd82515a8c56" d="M423.25,300.39s7.62-3.9,17.84,3.9"/>
            <path class="b6a43877-8d7f-462a-87ac-6f2cacccbefd" d="M423,299.94a13,13,0,0,1,4.87-.89,17.63,17.63,0,0,1,4.8.7,22.44,22.44,0,0,1,4.43,1.86c.71.38,1.37.84,2.05,1.26l1.92,1.42-2-1.32c-.7-.37-1.37-.8-2.09-1.13a21.53,21.53,0,0,0-4.45-1.61,17.38,17.38,0,0,0-4.65-.43,12.28,12.28,0,0,0-4.43,1Z"/>
          </g>
        </g>
        <path class="a1d61222-aca7-426d-9c2f-40b369b45bcd" d="M421.58,117s-47.95,19.65-86.23,6.27S396.3,95.4,396.3,95.4l36.06,13.76Z"/>
        <path class="a6a93137-0033-4c35-b90d-53b2dbcff376" d="M444.16,274.7l3.34,6.55c.28,5.29-27,15.33-27,15.33l-3.34-7S433.84,284.73,444.16,274.7Z"/>
        <g>
          <path class="fb3c5c6a-23ed-4255-9b56-27ab37eb8469" d="M325.54,281.11A218.2,218.2,0,0,1,328.89,251"/>
          <path class="a534d06a-7f0a-4549-b3f5-0a31e280e7bf" d="M325,281.09c.3-5.07.77-10.1,1.39-15.12s1.4-10,2.46-15c-.89,5-1.51,10-2,15s-.75,10.07-.88,15.1Z"/>
        </g>
        <g>
          <line class="fb3c5c6a-23ed-4255-9b56-27ab37eb8469" x1="410.84" y1="280.41" x2="412.38" y2="261.87"/>
          <polygon class="a534d06a-7f0a-4549-b3f5-0a31e280e7bf" points="410.35 280.37 412.38 261.87 411.34 280.45 410.35 280.37"/>
        </g>
        <path class="a6a93137-0033-4c35-b90d-53b2dbcff376" d="M319.45,273.16l-9.65,4.18s-13.39-10.59-10.88-28.43c0,0,3.43-1.52,8.43-3.71C307.09,250.71,307.77,264.39,319.45,273.16Z"/>
        <path class="a6a93137-0033-4c35-b90d-53b2dbcff376" d="M410.52,288.59c-.17,9.45-18.72,15-42.74,15s-42.84-5.69-42.84-15.15c0-1.67.46-4.46.6-7.29,4.39,7.63,22.2,13.82,42.9,13.82,19.77,0,36.46-5.2,41.74-12.32C411.16,280.68,410.55,286.94,410.52,288.59Z"/>
        <g>
          <path class="fda049f5-a3ec-4b8e-a89f-884b3cf0ccab" d="M385,190.72s-6.64,19-21.35,19c0,0-16.3-1.31-17.36-22.43A37,37,0,0,0,385,190.72Z"/>
          <path class="e2e13d64-eac1-4fa1-acda-e93e35775554" d="M385,190.37S379,206,364.29,206a21.19,21.19,0,0,1-18.05-18.72A37.43,37.43,0,0,0,385,190.37Z"/>
          <path class="a56d7a35-a291-40a8-92a2-ac753f4a33cc" d="M379.84,192.59A17.71,17.71,0,0,1,367,199.06a18.17,18.17,0,0,1-16.37-9.57S364.61,197.81,379.84,192.59Z"/>
          <path class="fda049f5-a3ec-4b8e-a89f-884b3cf0ccab" d="M385.26,190.26a39.67,39.67,0,0,1-19.66,3,66.66,66.66,0,0,1-19.36-5.93S365.21,202.55,385.26,190.26Z"/>
          <path class="a73d4a40-f9b3-441a-8ba5-c80f11f27d44" d="M384.08,188.55a8.58,8.58,0,0,1,1.54,4.88S386.64,190.23,384.08,188.55Z"/>
          <path class="a73d4a40-f9b3-441a-8ba5-c80f11f27d44" d="M348.38,184.89a8,8,0,0,0-2.75,4.53A4.06,4.06,0,0,1,348.38,184.89Z"/>
          <path class="b853ac78-141b-4caf-b671-dd6ebbbe8922" d="M374.05,203.36a8.56,8.56,0,0,0-9.06-2s-3.53-2.59-10.41.75C354.58,202.09,363.48,210.3,374.05,203.36Z"/>
        </g>
        <g>
          <path class="a165c6b7-a5dc-4f32-82f8-65546ee6aa75" d="M409.78,478.8s-2.23,6.5,7.8,10.78c0,0-.93-8.55,7.06-10.6s9.67,4.28,10.6,7.81a42,42,0,0,0,12.08,10.78c8,4.83,14.86,14.31,10.22,24.34s-25.46,6.69-34.2-7.8-9.66-12.45-14.87-20.82C408.47,493.29,404.76,478.61,409.78,478.8Z"/>
          <path class="fb02ebb5-83c3-4af5-9e55-e04c5ce6ac05" d="M410,475.27s-2.23,6.5,7.81,10.78c0,0-.93-8.55,7.06-10.6s9.66,4.28,10.59,7.81A42.18,42.18,0,0,0,447.5,494c8,4.83,14.87,14.31,10.22,24.34s-25.46,6.69-34.19-7.8-9.67-12.45-14.87-20.82C408.66,489.76,404.94,475.08,410,475.27Z"/>
          <path class="a165c6b7-a5dc-4f32-82f8-65546ee6aa75" d="M422,490.88s8.74-8.74,17.28-4.83l1.31,2.78s-13.94.19-15.62,3.91Z"/>
          <path class="a165c6b7-a5dc-4f32-82f8-65546ee6aa75" d="M427.06,493.85c-.66.66,7.29-9.39,17.28-4.83l1.3,2.79s-13.93.18-15.61,3.9Z"/>
        </g>
        <g>
          <g>
            <path class="a165c6b7-a5dc-4f32-82f8-65546ee6aa75" d="M338.5,493s0-9.91,8.93-7.75,7.61,7.75,8.73,9.55,8.36-5.23,9.48-8.83-.37-3.78-.37-3.78,3-1.81,4.08,3.78,2,15,2,15-.42,3.52-13.2,8.29a105.6,105.6,0,0,0-17.84,12.43c-7.8,7-28.43,8.29-32.89-.36s-1.44-16.13,10.27-21.72S338.5,493,338.5,493Z"/>
            <path class="fb02ebb5-83c3-4af5-9e55-e04c5ce6ac05" d="M338.5,493a11.75,11.75,0,0,1,9.85,6.48"/>
          </g>
          <path class="fb02ebb5-83c3-4af5-9e55-e04c5ce6ac05" d="M338.5,487.91s0-10.23,8.93-8,7.61,8,8.73,9.85,8.36-5.39,9.48-9.1c.69-2.3.38-3.25.05-3.64a.31.31,0,0,1,.17-.5c.93-.21,2.69,0,3.49,4.14,1.12,5.76,2,15.42,2,15.42s2,1.3-13.2,8.55a106.19,106.19,0,0,0-17.84,12.82c-7.8,7.25-28.43,8.55-32.89-.37s2.41-15.42,14.12-21.18S338.5,487.91,338.5,487.91Z"/>
          <path class="a165c6b7-a5dc-4f32-82f8-65546ee6aa75" d="M334,489s5.95-.93,10.23,6.5l-3.16,1.68s-4.65-7.81-12.64-5.58C328.47,491.62,328.28,488.65,334,489Z"/>
          <path class="a165c6b7-a5dc-4f32-82f8-65546ee6aa75" d="M329.58,492s5.95-.93,10.23,6.51l-3.16,1.67S332,492.37,324,494.6C324,494.6,323.82,491.62,329.58,492Z"/>
        </g>
        <path class="e5542847-8ad9-4b52-ae4d-e5d7f4dbe132" d="M361,384.2s4.46,4.09,21.56,2.61"/>
        <g>
          <path class="ae5de6d4-31f6-4827-90f3-dd82515a8c56" d="M293.72,252.63s-4.28.93-3.53,11.7"/>
          <path class="b6a43877-8d7f-462a-87ac-6f2cacccbefd" d="M293.82,253.12a2.72,2.72,0,0,0-1.12.7,5.43,5.43,0,0,0-.91,1.19,10.8,10.8,0,0,0-1.1,2.92,21,21,0,0,0-.45,3.18c-.07,1.07-.07,2.15-.05,3.22-.1-1.07-.19-2.15-.2-3.23a23.78,23.78,0,0,1,.2-3.26,11.89,11.89,0,0,1,.94-3.19,4.64,4.64,0,0,1,2.48-2.51Z"/>
        </g>
      </g>
    </g>
  </g>
  <g class="e7ea12de-f9f8-4f61-855d-16c8562a2c53">
    <g>
      <g id="b08c6a81-e7b9-4a40-b736-107b3bc38e91" data-name="wall">
        <rect class="a0bc5d57-0647-4fe4-9c57-b7738ed031ce" x="430.84" y="26.24" width="800.24" height="463.64"/>
        <rect class="a9e8bd6a-7990-48e5-a970-384570577799" x="435.04" y="26.24" width="21.08" height="463.64"/>
      </g>
      <g class="f7ba47d5-d944-43c8-8026-afcfcf4fb582">
        <g>
          <g class="a9bfe5d0-4136-4ed7-bd0d-41c2839a0e67">
            <path class="fb7ab1db-1da9-4a60-a6c0-59c743a42cc9" d="M489.62,228.47h4.13v-1.78a1.08,1.08,0,0,1-.6-.95,1.2,1.2,0,0,1,2.39,0,1.08,1.08,0,0,1-.6.95v1.78h34.65v-1.78a1.09,1.09,0,0,1-.59-.95,1.2,1.2,0,0,1,2.39,0,1.08,1.08,0,0,1-.6.95v1.78h34.65v-1.78a1.08,1.08,0,0,1-.6-.95,1.2,1.2,0,0,1,2.39,0,1.08,1.08,0,0,1-.6.95v1.78h34.65v-1.78a1.09,1.09,0,0,1-.59-.95,1.2,1.2,0,0,1,2.39,0,1.08,1.08,0,0,1-.6.95v1.78h34.65v-1.78a1.08,1.08,0,0,1-.6-.95,1.2,1.2,0,0,1,2.39,0,1.08,1.08,0,0,1-.6.95v1.78H673v-1.78a1.09,1.09,0,0,1-.59-.95,1.2,1.2,0,0,1,2.39,0,1.08,1.08,0,0,1-.6.95v1.78h34.65v-1.78a1.08,1.08,0,0,1-.6-.95,1.2,1.2,0,0,1,2.39,0,1.08,1.08,0,0,1-.6.95v1.78h23.3v1.63H710v7.09h-1.19V230.1H674.17v7.09H673V230.1H638.32v7.09h-1.19V230.1H602.48v7.09h-1.2V230.1H566.63v7.09h-1.19V230.1H530.79v7.09h-1.2V230.1H494.94v7.09h-1.19V230.1h-4.13Z"/>
            <path class="e74bc58c-e0b1-40af-aab5-682140329ac0" d="M529,228.47h.59v-1.78a1.05,1.05,0,0,1,.11-1.94,1,1,0,0,0-.11.45,1.15,1.15,0,0,0,1.2,1.09,1.34,1.34,0,0,0,.49-.1,1.2,1.2,0,0,1-1.09.64,1,1,0,0,1-.24,0v10.38h-.36V230.1H494.94v-.54H529Z"/>
          </g>
          <ellipse cx="385.92" cy="480.25" rx="1" ry="0.95"/>
        </g>
      </g>
      <rect class="e502fd41-47d4-4404-a3ff-2ffb8da48f21" x="475.13" y="27.62" width="755.66" height="10.41"/>
      <path class="b6b78736-5539-4837-a9aa-0f6ef8525400" d="M443.63,22.27a6.48,6.48,0,0,1,1-3.18,1.43,1.43,0,0,1,1.74,0,2.88,2.88,0,0,0,2.74-.29q9-.72,14.45,7.8H465a.94.94,0,0,1,.57,1.16h2.46A9.88,9.88,0,0,0,470.36,25q1.74-3.76,4.77-.15V41.49q-3,3.46-4.77-.14a9.8,9.8,0,0,0-2.31-2.75h-2.46c.1.58-.09.91-.57,1h-1.45q-5.49,8.67-14.45,8a2.88,2.88,0,0,0-2.74-.29,1.46,1.46,0,0,1-1.74,0,6.48,6.48,0,0,1-1-3.18,1.75,1.75,0,0,0-2.31,0l-.73,1.16a2.26,2.26,0,0,1-1.58,0,17.93,17.93,0,0,1-3.47-7.37h-1.3v1.44h-1.59a7.14,7.14,0,0,1-2.32-3.76,8,8,0,0,1,0-4.76A7.14,7.14,0,0,1,432.65,27h1.59v1.44h1.3A17.93,17.93,0,0,1,439,21.11a2.26,2.26,0,0,1,1.58,0l.73,1.16A1.75,1.75,0,0,0,443.63,22.27Z"/>
      <g>
        <g>
          <path class="f323133c-4807-425b-9ea7-6f592784c79d" d="M560.18,662.78q-7.59,11.06-27.32,0c-.17-3-.26-6.09-.26-9.19q-4-118.71-28.78-261.8c-.18-.8-.36-1.64-.53-2.53.17.89.35,1.73.53,2.53q24.78,143.08,28.78,261.8c0,3.1.09,6.17.26,9.19q-8.79,12.39-26.37,0-5.73,6.39-12.93,0l.27-271V50.45H676.22Q664,160.77,610.41,255.23A674.59,674.59,0,0,1,563,327q-4.93,6.66-22.65,29-9.2,11.73-28.51,30.25l-.27-.27a.38.38,0,0,1,.13.27.54.54,0,0,1,.14.4l.26.26q1.06,2.4,2.27,4.8,63.4,135,75.94,271-3.21,4.94-7.73,0c-.36-3-.75-6.09-1.2-9.19q-13.32-99-70.21-261.8Q568,554.6,581.36,653.59c.45,3.1.84,6.17,1.2,9.19Q574.84,671.57,560.18,662.78ZM528.6,356.35q-6.26,11.46-13.19,22.38l-1.33,2.13c-.44.63-.89,1.29-1.33,2,.44-.71.89-1.37,1.33-2l1.33-2.13q6.93-10.92,13.19-22.38Q597.75,231.12,598,54.72,597.76,231.11,528.6,356.35Zm-19.32,35.44v.13q35.58,143,49.83,261.67c.36,3.1.71,6.17,1.07,9.19-.36-3-.71-6.09-1.07-9.19q-14.25-118.71-49.83-261.67v-.13a20.77,20.77,0,0,1-.66-2.53A20.77,20.77,0,0,0,509.28,391.79Zm-5.73-35.44q-2.26,13-4.66,25.45,2.4-12.39,4.66-25.45,20.13-122.84,14.53-302.17Q523.67,233.51,503.55,356.35Zm11.6,0q-3.74,12.52-7.73,24.51,4-12,7.73-24.51,36-122.7,39.17-299.5Q551.11,233.64,515.15,356.35Zm16.92,0q-8.13,11.19-16.66,22.38,8.54-11.19,16.66-22.38Q648.91,193.68,644,54.18,648.92,193.68,532.07,356.35ZM506.62,653.59q3.06-120.58-8.53-261.8,11.6,141.22,8.53,261.8c0,3.1-.05,6.17-.13,9.19C506.57,659.76,506.62,656.69,506.62,653.59Z"/>
          <path class="a744a438-7c81-458c-8753-e120288663aa" d="M558.85,662.93c-.35-3-.71-6.08-1.06-9.19C548.34,575,531.58,487.05,508,392.24c0-.05,0-.12,0-.2a23.18,23.18,0,0,1-.65-2.52,1.33,1.33,0,1,1,2.61-.52c.12.59.26,1.17.43,1.72a1.37,1.37,0,0,1,.36-.19,1.34,1.34,0,0,1,1.7.82c37.78,108.11,61.42,196.28,70.27,262,.44,3.12.85,6.19,1.2,9.22a1.33,1.33,0,1,1-2.64.31c-.36-3-.75-6.06-1.2-9.17-8.6-63.89-31.22-149-67.24-253.18,22.45,91.49,38.47,176.52,47.64,252.85.35,3.11.71,6.18,1.06,9.19a1.34,1.34,0,0,1-1.17,1.48h-.16A1.34,1.34,0,0,1,558.85,662.93Zm-27.32-.07c-.17-3-.26-6.15-.26-9.23-2.65-78.71-12.33-166.73-28.75-261.55-.18-.81-.36-1.66-.54-2.56a1.33,1.33,0,1,1,2.61-.52c.18.88.36,1.71.54,2.56,16.46,95,26.15,183.15,28.8,262,0,3.07.09,6.13.26,9.11a1.33,1.33,0,0,1-1.25,1.41h-.08A1.34,1.34,0,0,1,531.53,662.86Zm-25.08,1.25a1.33,1.33,0,0,1-1.3-1.37c.09-3,.14-6.06.14-9.19,2-80-.84-168-8.53-261.65a1.33,1.33,0,0,1,1.22-1.44,1.36,1.36,0,0,1,1.44,1.22c7.7,93.75,10.57,181.88,8.53,261.91q0,4.68-.13,9.23a1.33,1.33,0,0,1-1.33,1.29ZM512,384a1.34,1.34,0,0,1-.42-1.84c.46-.73.92-1.42,1.33-2l1.32-2.12,0,0c4.59-7.23,9-14.73,13.15-22.31,45.77-82.9,69.06-184.17,69.24-301A1.34,1.34,0,0,1,598,53.38h0a1.34,1.34,0,0,1,1.33,1.34c-.18,117.27-23.59,219-69.58,302.27l-.55,1,1.76-2.43C608.34,247.88,645.91,146.49,642.65,54.23a1.33,1.33,0,1,1,2.66-.09c3.28,92.86-34.45,194.8-112.17,303-5.39,7.43-11,14.95-16.63,22.36l-1.35,2.15c-.42.6-.85,1.24-1.28,1.93a1.35,1.35,0,0,1-1.13.62A1.3,1.3,0,0,1,512,384Zm-13.4-.89a1.32,1.32,0,0,1-1.06-1.56c1.59-8.18,3.16-16.73,4.66-25.41,13.34-81.42,18.22-183,14.5-301.91A1.34,1.34,0,0,1,518,52.85a1.39,1.39,0,0,1,1.38,1.29c3.71,119.09-1.18,220.84-14.55,302.44-1.5,8.7-3.07,17.27-4.66,25.47a1.34,1.34,0,0,1-1.31,1.08A1.07,1.07,0,0,1,498.64,383.1Zm8.36-1a1.34,1.34,0,0,1-.85-1.69c2.65-7.94,5.25-16.17,7.72-24.47C537.7,274.67,550.86,174,553,56.82a1.29,1.29,0,0,1,1.36-1.3,1.33,1.33,0,0,1,1.31,1.35c-2.13,117.44-15.33,218.33-39.23,299.86-2.48,8.33-5.08,16.59-7.74,24.56a1.35,1.35,0,0,1-1.26.91A1.54,1.54,0,0,1,507,382.13Z"/>
        </g>
        <rect class="e351dd85-48ec-4091-b954-10be89109699" x="493.7" y="19.54" width="8.52" height="31.71"/>
        <path class="e2a12693-0602-459f-9dca-2997e37b7a1d" d="M519.19,389.52A70.93,70.93,0,0,1,492,393.79q-3.46-6.8-.12-17.72a152.6,152.6,0,0,0,27.16,3.46Q524.17,386.19,519.19,389.52Z"/>
      </g>
    </g>
  </g>
</svg>
