<svg id="eebd6d30-edd4-4738-90f2-be730dbee86b" data-name="Layer 1" xmlns="http://www.w3.org/2000/svg" xmlns:xlink="http://www.w3.org/1999/xlink" width="325" height="325" viewBox="0 0 325 325">
  <defs>
    <style>
      .f306823c-f3fd-4590-b253-4dc3c379cbbe {
        fill: none;
      }

      .a8b118c5-a0df-44e2-9721-a95ac8a1e053 {
        clip-path: url(#a14d306d-3862-4fbd-9386-b1bc0d6aeddd);
      }

      .bbc91ae4-0e50-47cd-973c-650c8337e4f1 {
        fill: #ff6e5f;
        stroke: #fff;
        stroke-miterlimit: 10;
        stroke-width: 12px;
      }

      .f8862e8c-59c4-42e7-bb32-c446b5a29d95 {
        fill: #fff;
      }

      .ec8cc8c1-6c75-4056-8c74-0bd4c40d2f56 {
        fill: #e6e2cf;
      }

      .a9026221-16b9-42f8-bfad-650de430adc3 {
        fill: #331409;
      }
    </style>
    <clipPath id="a14d306d-3862-4fbd-9386-b1bc0d6aeddd">
      <ellipse class="f306823c-f3fd-4590-b253-4dc3c379cbbe" cx="162.5" cy="162.5" rx="159" ry="158.79"/>
    </clipPath>
  </defs>
  <g class="a8b118c5-a0df-44e2-9721-a95ac8a1e053">
    <ellipse class="bbc91ae4-0e50-47cd-973c-650c8337e4f1" cx="162.5" cy="162.5" rx="159" ry="158.79"/>
    <g>
      <path class="f8862e8c-59c4-42e7-bb32-c446b5a29d95" d="M156.37,120.75a93.94,93.94,0,0,1-.79,12c-3.3,25.18-17,47.14-42.15,39.43-24.64-7.56-28.57-32.47-22.3-55.4q.69-2.51,1.53-5c10.72,6,27.91,13.43,48.63,14.65C147.59,126.81,152.76,123.82,156.37,120.75Z"/>
      <path class="f8862e8c-59c4-42e7-bb32-c446b5a29d95" d="M208.58,169.7C186.29,171.69,174.8,154,172,134a70.56,70.56,0,0,1-.68-10.37,28.08,28.08,0,0,0,14.32,5c11.14.52,33.19-6.91,47.19-13.3.6,1.77,1.13,3.57,1.58,5.38C240.05,143.07,233.94,167.43,208.58,169.7Z"/>
      <path class="ec8cc8c1-6c75-4056-8c74-0bd4c40d2f56" d="M233.3,137.67c.62,7.26-3.43,22.49-22.86,28.47s-32.13-17.8-32.13-17.8,10,15.2,29.6,9.53S233.3,137.67,233.3,137.67Z"/>
      <path class="ec8cc8c1-6c75-4056-8c74-0bd4c40d2f56" d="M94.71,122.6c-3.21,16.12-.36,40.66,20.69,45.92s30-13.32,30-13.32-17.48,16.47-36,1.75S94.71,122.6,94.71,122.6Z"/>
      <path class="ec8cc8c1-6c75-4056-8c74-0bd4c40d2f56" d="M156.37,120.75a93.94,93.94,0,0,1-.79,12,34.94,34.94,0,0,1-18.72,3.53c-11.61-1-33.19-12.35-45.73-19.5q.69-2.51,1.53-5c10.72,6,27.91,13.43,48.63,14.65C147.59,126.81,152.76,123.82,156.37,120.75Z"/>
      <path class="ec8cc8c1-6c75-4056-8c74-0bd4c40d2f56" d="M234.43,120.64c-12.54,6.59-37.51,19-47.29,18.43A32.54,32.54,0,0,1,172,134a70.56,70.56,0,0,1-.68-10.37,28.08,28.08,0,0,0,14.32,5c11.14.52,33.19-6.91,47.19-13.3C233.45,117,234,118.83,234.43,120.64Z"/>
      <path class="f8862e8c-59c4-42e7-bb32-c446b5a29d95" d="M229.29,238.15a77.62,77.62,0,0,1-17.14,1.08,51.55,51.55,0,0,1-14.66-2.71c-14.29-5.14-32.53-10.28-41.16-8.41s-30.07,10.51-39.2,11.45c-1.27.13-2.58.21-3.91.23a103.83,103.83,0,0,1-16.79-1.17l3.7-50.7s19.47,1.63,36.73,11.68,60.63-3.27,60.63-3.27l15.77-7.25,11.35-1.63Z"/>
      <path class="ec8cc8c1-6c75-4056-8c74-0bd4c40d2f56" d="M229.29,238.15a77.62,77.62,0,0,1-17.14,1.08c-2.07-11.42-4.5-27.31-5.05-41.27-24.15,10.75-47.32,15.9-90.95.7,2.48,10.18-.58,29.36-2.93,41.13a103.83,103.83,0,0,1-16.79-1.17l3.7-50.7s19.47,1.63,36.73,11.68,60.63-3.27,60.63-3.27l15.77-7.25,11.35-1.63Z"/>
      <path class="a9026221-16b9-42f8-bfad-650de430adc3" d="M140.76,125.31a113.16,113.16,0,0,1-47.27-14.25c-.52-.29-2.25-.81-2.55.11-6.12,18.22-7.6,42.74,10,55.89,7.69,5.74,18.66,9.28,28.43,7.28,9.34-1.91,16.06-8.7,20.38-16.46,6.22-11.16,8.29-24.28,8.38-36.77,0-1.2-2.47-1.93-3.32-1.22-4,3.32-8.6,5.54-14.05,5.42-2.42,0-.48,2.25,1.07,2.29,6.19.13,11.48-2.18,16.09-6l-3.32-1.23c-.07,10.08-1.51,20.28-5.26,29.75-3.12,7.89-8.13,16-16.28,20-9.17,4.51-20.52,2.16-28.64-3.34-7.68-5.21-11.94-13.55-13.44-22.21-1.86-10.77-.06-21.87,3.4-32.18l-2.55.11a120,120,0,0,0,50,15C144.23,127.75,142.28,125.41,140.76,125.31Z"/>
      <path class="a9026221-16b9-42f8-bfad-650de430adc3" d="M185,127.65a26.13,26.13,0,0,1-12.54-4.46c-.56-.36-2.87-1.06-2.87.1,0,17.56,6.12,39.48,25.67,45.83,8.81,2.86,19.47,2.12,27.57-2.34,7.63-4.19,12.19-11.65,14.1-19.65,2.48-10.41,1.06-21.49-2.29-31.58-.3-.91-2.3-1.51-3.17-1.12a198,198,0,0,1-23.58,8.92c-7.28,2.23-15.16,4.54-22.89,4.3-2.4-.08.11,1.78,1.36,1.82,7.5.24,15.07-1.75,22.17-3.82a193.76,193.76,0,0,0,25.74-9.57L231.08,115c4.83,14.54,6.39,34.31-5.78,46.18-6.31,6.16-15.93,8.72-24.81,7.55-9.32-1.22-16.26-7.55-20.55-15.15-5.1-9-6.83-19.55-6.83-29.66l-2.87.1a33.51,33.51,0,0,0,16.1,5.49C188.72,129.64,186.2,127.74,185,127.65Z"/>
      <path class="a9026221-16b9-42f8-bfad-650de430adc3" d="M85.62,108.64a144.12,144.12,0,0,0,34.24,14.8c8.22,2.36,18.19,4.93,26.78,3.22a26.67,26.67,0,0,0,14.46-8.44c.78-.92-1.92-3.3-2.64-2.45a26,26,0,0,1-13.56,8.11c-8.89,2-19.73-1-28.18-3.62a143.18,143.18,0,0,1-31.41-13.85c-2-1.21-.75,1.6.31,2.23Z"/>
      <path class="a9026221-16b9-42f8-bfad-650de430adc3" d="M164.59,118.46c7.24,9,20,10.46,30.9,8.52,15.78-2.79,31.34-8.89,45.75-15.49.57-.26-2.5-.54-3.2-.22a225.27,225.27,0,0,1-38.38,13.86c-7.4,1.87-14.55,3.09-21.83,0a25.19,25.19,0,0,1-9.55-6.79c-.62-.77-3.59.27-3.69.14Z"/>
      <path class="a9026221-16b9-42f8-bfad-650de430adc3" d="M134.1,134.12c-2.24,6.77-7.06,11.37-10.75,10.27s-4.88-7.48-2.64-14.25a21.9,21.9,0,0,1,3.18-6.22,103.83,103.83,0,0,0,11.26,2A20.23,20.23,0,0,1,134.1,134.12Z"/>
      <path class="a9026221-16b9-42f8-bfad-650de430adc3" d="M202.08,144.39c-3.69,1.1-8.51-3.5-10.75-10.27a22.46,22.46,0,0,1-1.11-5.71A84.22,84.22,0,0,0,202.88,126a23.14,23.14,0,0,1,1.84,4.15C207,136.91,205.77,143.29,202.08,144.39Z"/>
      <path class="a9026221-16b9-42f8-bfad-650de430adc3" d="M249.55,209.6c-1-12.09-8-22.18-21.37-23.74-15.66-1.83-28.42,8.1-42.63,12.36a84,84,0,0,1-51.93-1.43c-13.3-4.7-25.42-13.43-40.4-10.62C80.34,188.58,74.84,199.39,74.35,211c-.39,9.22,2,18.4,10.33,24,13.48,9.1,31.59,7,46.27,2.21,8.63-2.81,17.15-6.44,26.27-7.58s17.89,1.32,26.4,4.21c17.22,5.83,37.13,12.3,54.29,2.31,10-5.83,12.34-16.12,11.64-26.53-.13-1.86-3.69-2.26-3.55-.14.57,8.45-.77,17.23-8.31,22.72-13.2,9.61-31.71,6.13-46,1.28-7.52-2.55-15-5.45-22.91-6.67a52.15,52.15,0,0,0-22.38,1.87C130,233.31,115,241,97.42,237c-11.18-2.5-18.57-9.38-19.46-20.38-.81-10.05,1.64-22.11,12.51-26.36,12.79-5,25,2.29,36.29,7a91.74,91.74,0,0,0,44.19,7,90.79,90.79,0,0,0,25.38-6.48c7.4-3,14.17-7.13,22.17-8.56,5.93-1.07,12.5-.91,17.82,2.08,6.73,3.78,9.1,11.08,9.68,18.07C246.15,211.32,249.73,211.72,249.55,209.6Z"/>
      <path class="a9026221-16b9-42f8-bfad-650de430adc3" d="M104.32,188.15s4.81,13.67,3.33,25.94S99.14,239,99.14,239s-24.77-4.2-22.92-29.44S104.32,188.15,104.32,188.15Z"/>
      <path class="a9026221-16b9-42f8-bfad-650de430adc3" d="M220.78,187.8c0,1-7,27,5.18,51.88,17.75-4.21,24.77-14.73,21.44-34S220.78,187.8,220.78,187.8Z"/>
      <path class="a9026221-16b9-42f8-bfad-650de430adc3" d="M101.47,209.13c2,1.29,4.93,1.84,7.18,2.48a158.38,158.38,0,0,0,16.7,3.69,242.82,242.82,0,0,0,58.08,2.51,284.2,284.2,0,0,0,45.26-7.1c1.52-.36-.74-1.12-1.15-1.25a10.67,10.67,0,0,0-5-.41c-34.65,8.24-73.26,11.51-108.15,2.22-1.78-.47-3.2-.87-4.71-1.39q-.76-.25-1.5-.54c-.53-.21.33.25-.22-.11a9.78,9.78,0,0,0-5-1c-.58,0-2.74.07-1.48.88Z"/>
      <path class="a9026221-16b9-42f8-bfad-650de430adc3" d="M92,175.25a34.42,34.42,0,0,0-16.72,6.67c-11.54,8.54-13.59,22.74-11.93,35.75.15,1.21,3.75.48,3.58-.86-1.55-12.14.09-25.76,10.81-33.91a29.28,29.28,0,0,1,13.77-5.69c1.79-.16,3-2.19.49-2Z"/>
      <path class="a9026221-16b9-42f8-bfad-650de430adc3" d="M236.61,177.4a28.29,28.29,0,0,1,13.78,7.13c10.31,9.77,10.17,25,7.43,37.64-.17.77,2.72,2.6,2.83,2.06,3.09-14.17,2.14-29.46-9.3-40.08-4.49-4.17-10.54-7.93-16.82-9.09-.87-.16,1.28,2.19,2.08,2.34Z"/>
      <path class="a9026221-16b9-42f8-bfad-650de430adc3" d="M136.62,256c13-9.47,32.17-14.07,47.4-7.25,2.3,1,.84-.66-.41-1.22-16.37-7.33-36.11-3.53-50.22,6.77-.21.15,2.43,2.29,3.23,1.7Z"/>
      <path class="a9026221-16b9-42f8-bfad-650de430adc3" d="M70.25,79a43.62,43.62,0,0,1,4.7-3.9,38.86,38.86,0,0,1,5.44-3.2,30.82,30.82,0,0,1,13-2.91,34,34,0,0,1,6.82.71,43.46,43.46,0,0,1,6.47,1.9,67.45,67.45,0,0,1,11.52,5.9c3.55,2.23,7.1,4.36,10.46,6.53a75.1,75.1,0,0,1,9,6.93,72.64,72.64,0,0,0,7.78,6.31,16.23,16.23,0,0,0,4.24,2.07,18.09,18.09,0,0,0,5.69.64h0a.76.76,0,0,1,.8.72.65.65,0,0,1-.13.43,12.26,12.26,0,0,1-5.7,4.27,17.93,17.93,0,0,1-7.73.91,28,28,0,0,1-7.21-1.72,41,41,0,0,1-6.14-2.93,44.76,44.76,0,0,1-9.7-7.62c-2.77-2.81-5.35-5.66-8.22-8.06a65.17,65.17,0,0,0-8.86-6.44,30.69,30.69,0,0,0-9.77-3.92,25.71,25.71,0,0,0-10.82.2A43.62,43.62,0,0,0,71.1,80h0a.72.72,0,0,1-1-.26A.62.62,0,0,1,70.25,79Z"/>
      <path class="a9026221-16b9-42f8-bfad-650de430adc3" d="M254.74,80a43.62,43.62,0,0,0-10.81-4.23,25.71,25.71,0,0,0-10.82-.2,30.69,30.69,0,0,0-9.77,3.92,64.47,64.47,0,0,0-8.85,6.44c-2.88,2.4-5.46,5.25-8.22,8.06a45.06,45.06,0,0,1-9.71,7.62,40,40,0,0,1-6.14,2.93,28,28,0,0,1-7.21,1.72,18,18,0,0,1-7.73-.91,12.31,12.31,0,0,1-5.7-4.27.72.72,0,0,1,.22-1,.75.75,0,0,1,.45-.12h0a18.16,18.16,0,0,0,5.7-.64,16.32,16.32,0,0,0,4.23-2.07,71.72,71.72,0,0,0,7.79-6.31,74.18,74.18,0,0,1,9-6.93c3.36-2.17,6.91-4.3,10.47-6.53a67.35,67.35,0,0,1,11.51-5.9,43.58,43.58,0,0,1,6.48-1.9,33.81,33.81,0,0,1,6.82-.71,30.8,30.8,0,0,1,13,2.91,39.56,39.56,0,0,1,5.45,3.2,45.66,45.66,0,0,1,4.7,3.9.65.65,0,0,1,0,1,.76.76,0,0,1-.85.11Z"/>
    </g>
  </g>
</svg>
