<svg id="efeafb89-e8bf-4c5e-92a0-f0f20d3a9121" data-name="Layer 1" xmlns="http://www.w3.org/2000/svg" xmlns:xlink="http://www.w3.org/1999/xlink" width="325" height="325" viewBox="0 0 325 325">
  <defs>
    <style>
      .b38a0799-1f35-4adf-8da4-0299efe7e013 {
        fill: none;
      }

      .bb23668d-f226-40f6-a82d-704a10bdb262 {
        clip-path: url(#ea6d2764-d700-4751-8587-2a027644fd59);
      }

      .ac9bbfa1-3f16-46c9-a804-7f3c4a6bd9ce {
        fill: #f9d1c6;
        stroke: #323232;
      }

      .ac9bbfa1-3f16-46c9-a804-7f3c4a6bd9ce, .f13979f0-0880-471a-8fc0-c67548f22e8c, .faaabb85-049e-4aec-b6f3-739a338d70fb {
        stroke-miterlimit: 10;
      }

      .f13979f0-0880-471a-8fc0-c67548f22e8c {
        fill: #00b6c2;
        stroke: #0c7777;
        stroke-width: 2px;
      }

      .abb8e666-e69e-4906-90cf-80800bbf69e6 {
        clip-path: url(#b03bba34-876a-4ec2-a058-1a8f5a60c737);
      }

      .faaabb85-049e-4aec-b6f3-739a338d70fb {
        fill: #8d69ff;
        stroke: #fff;
        stroke-width: 12px;
      }

      .a79b5feb-7b79-437c-8993-586303ac5a3c {
        fill: #331409;
      }

      .b8323b65-1dfe-4e5e-a27a-a3c56566f732 {
        fill: #fff;
      }

      .ad10ea2b-f91d-41ea-826c-946fe6905c33 {
        fill: #e6e2cf;
      }

      .fa0e637e-5c70-421e-a28c-0c396ac6cbc6 {
        fill: #ffb7a9;
      }

      .f332eb59-fae3-4a42-9d22-ab3316a35b54 {
        fill: #f47264;
      }
    </style>
    <clipPath id="ea6d2764-d700-4751-8587-2a027644fd59">
      <circle class="b38a0799-1f35-4adf-8da4-0299efe7e013" cx="32.5" cy="-392.5" r="285.12"/>
    </clipPath>
    <clipPath id="b03bba34-876a-4ec2-a058-1a8f5a60c737">
      <ellipse class="b38a0799-1f35-4adf-8da4-0299efe7e013" cx="162.5" cy="162.5" rx="159" ry="158.79"/>
    </clipPath>
  </defs>
  <g class="bb23668d-f226-40f6-a82d-704a10bdb262">
    <g>
      <path class="ac9bbfa1-3f16-46c9-a804-7f3c4a6bd9ce" d="M279.07,27.09l-2.23,11.32-22.23-6.29A80.43,80.43,0,0,0,243.46,6.86l-9.69,19.35S220.86,28.43,229.11-4l3.62-18.36s-46.4-47.29-68.1-87.87L137-151.51l-5.09-7.58s11.78-29,46.62-36.46l7.94,11.85L207.71-152s30.68,50.8,60.37,128.9C268.08-23.12,276.42,12.63,279.07,27.09Z"/>
      <path class="f13979f0-0880-471a-8fc0-c67548f22e8c" d="M134.12-157.93,152.91-12.46S42,41.46-80.76-9.46c0,0,3.46-15,4-20,7.87-72.18,8.68-157.27,8.68-157.27L-71-143.85a545.43,545.43,0,0,1-60.48-39.44s47.73-86.41,55.68-93c11.64-9.73,75.2-25.23,75.2-25.23S79.76-314.32,138-270.91l42.06,58.55,9.72,13.55s-17.47,15.39-56.16,35.8Z"/>
    </g>
  </g>
  <g class="abb8e666-e69e-4906-90cf-80800bbf69e6">
    <ellipse class="faaabb85-049e-4aec-b6f3-739a338d70fb" cx="162.5" cy="162.5" rx="159" ry="158.79"/>
    <g>
      <path class="a79b5feb-7b79-437c-8993-586303ac5a3c" d="M114.82,248a6.07,6.07,0,0,0,7,7.84,194.61,194.61,0,0,1,38.39-3.73,118.71,118.71,0,0,1,36.22,5.35,6.08,6.08,0,0,0,7.79-7.13c-3.16-13.86-12.94-36.15-43.26-36.15S119.09,235,114.82,248Z"/>
      <path class="b8323b65-1dfe-4e5e-a27a-a3c56566f732" d="M192.77,105.65c-33.08.82-40.11,96.64,9.53,94.14S233.39,104.65,192.77,105.65Z"/>
      <path class="b8323b65-1dfe-4e5e-a27a-a3c56566f732" d="M137.62,96.14C104,87,61.41,181.76,112.55,200.79S172.72,105.65,137.62,96.14Z"/>
      <path class="ad10ea2b-f91d-41ea-826c-946fe6905c33" d="M174.92,179.22c3,7.13,13.91,19.53,33.46,15.77s18.81-32.3,18.81-32.3S226.06,181.85,206.5,186,174.92,179.22,174.92,179.22Z"/>
      <path class="ad10ea2b-f91d-41ea-826c-946fe6905c33" d="M92.94,147.67c-3.39,17.28-.38,43.57,21.81,49.2s31.59-14.27,31.59-14.27-18.43,17.65-38,1.88S92.94,147.67,92.94,147.67Z"/>
      <path class="b8323b65-1dfe-4e5e-a27a-a3c56566f732" d="M191.3,226.29a56.91,56.91,0,0,1-6.43,1.25,181.91,181.91,0,0,1-22.65,1.75c-12,.29-20.11-1.88-24.83-3.75a24.08,24.08,0,0,1-5-2.51,67.28,67.28,0,0,1,29.83-9.77C180,211.76,191.3,226.29,191.3,226.29Z"/>
      <path class="ad10ea2b-f91d-41ea-826c-946fe6905c33" d="M191.3,226.29a56.91,56.91,0,0,1-6.43,1.25c-4.65-4.81-12.15-10.07-22.4-9.51a53.8,53.8,0,0,0-25.08,7.51,24.08,24.08,0,0,1-5-2.51,67.28,67.28,0,0,1,29.83-9.77C180,211.76,191.3,226.29,191.3,226.29Z"/>
      <path class="fa0e637e-5c70-421e-a28c-0c396ac6cbc6" d="M192.3,255.32s-28.33-3-29.33-3-30.34,1-30.34,1,7.28-16,15.8-16.28c.49,0,1,0,1.46,0A22.71,22.71,0,0,1,163,242.31s5.76-7.51,12-5.51a7.08,7.08,0,0,1,1.12.49C182.5,240.64,192.3,255.32,192.3,255.32Z"/>
      <path class="f332eb59-fae3-4a42-9d22-ab3316a35b54" d="M192.3,255.32s-28.33-3-29.33-3-30.34,1-30.34,1,7.28-16,15.8-16.28c.49,0,1,0,1.46,0a18.38,18.38,0,0,0-5.72,9.74c16.29-1.75,37.85,1.51,37.85,1.51s-2.2-6.6-5.89-11C182.5,240.64,192.3,255.32,192.3,255.32Z"/>
      <path class="a79b5feb-7b79-437c-8993-586303ac5a3c" d="M91.6,98a97.88,97.88,0,0,1,7.72-19.09,69.2,69.2,0,0,1,12.57-17.27,54.88,54.88,0,0,1,8.94-7.47,23.77,23.77,0,0,1,5.67-2.59,21.85,21.85,0,0,1,6.41-.87,23.41,23.41,0,0,1,6.41,1A22.36,22.36,0,0,1,145,54.27a19.8,19.8,0,0,1,7.59,8.92.83.83,0,0,1-.45,1.09.8.8,0,0,1-.37.06h0c-3.87-.27-7.09-.64-10-.53a38.26,38.26,0,0,0-4,.32c-1.26.2-2.45.45-3.6.75-2.29.61-4.53,1.23-7.1,2a26.51,26.51,0,0,0-7.78,3.51A64.83,64.83,0,0,0,112,76.12c-2.34,2.12-4.61,4.41-6.8,6.82A145.11,145.11,0,0,0,92.91,98.52l0,0a.71.71,0,0,1-1,.18A.72.72,0,0,1,91.6,98Z"/>
      <path class="a79b5feb-7b79-437c-8993-586303ac5a3c" d="M236.21,99.55a144.39,144.39,0,0,0-11.69-16c-2.1-2.48-4.29-4.85-6.55-7.06a64,64,0,0,0-7-6,26.49,26.49,0,0,0-7.65-3.79c-2.54-.83-4.75-1.53-7-2.22a33.27,33.27,0,0,0-3.57-.88,32.26,32.26,0,0,0-4-.47,99.62,99.62,0,0,0-10,.16h0a.83.83,0,0,1-.86-.8.78.78,0,0,1,.07-.38,19.79,19.79,0,0,1,7.91-8.64A22.66,22.66,0,0,1,191.55,51a23.55,23.55,0,0,1,6.44-.73,21.94,21.94,0,0,1,6.37,1.1,23.34,23.34,0,0,1,5.58,2.8,55,55,0,0,1,8.66,7.78,69.23,69.23,0,0,1,11.92,17.72,97.6,97.6,0,0,1,7,19.36.72.72,0,0,1-.54.86.71.71,0,0,1-.77-.31Z"/>
      <path class="a79b5feb-7b79-437c-8993-586303ac5a3c" d="M191.6,104.26c-16.35.62-23.31,20.95-25.48,34.25-2.78,17-1,37.5,10.63,51.14,11.16,13.13,32.77,16.13,45.86,3.9,13.38-12.49,12.77-34.7,8.14-50.9-5-17.51-18.27-38.68-38.88-38.4-1.5,0,.78,2.82,1.81,2.8,17.71-.24,28.63,16.62,33.48,31.68,4.9,15.23,6.16,35.25-4.09,48.7-9.81,12.87-31.29,15.17-43,3.52s-13.43-31.78-11.46-47.37c1.74-13.7,8.25-35.88,25.33-36.53C194.82,107,192.77,104.21,191.6,104.26Z"/>
      <path class="a79b5feb-7b79-437c-8993-586303ac5a3c" d="M137.18,94.5c-19-4.88-34.3,17.78-41.07,32.17-8.69,18.48-13.54,43.6-1.32,61.69,10.17,15.06,32.69,22.39,47.14,9.09,14.2-13.08,18.08-35.76,18-54.12,0-16.35-3.82-43.43-22.79-48.83-1.63-.46-.29,2.94.88,3.27,15.41,4.38,18.61,26.05,19.23,39.42.83,17.66-2.23,38.1-13.23,52.51-4.59,6-11,10.64-18.68,11.42-9.14.93-19.07-3.19-25.49-9.6-14.74-14.73-10.52-40-3.48-57.36,4.14-10.21,10-20.2,18.15-27.77,6.22-5.83,14.69-10.88,23.5-8.62C139.72,98.2,138.37,94.81,137.18,94.5Z"/>
      <path class="a79b5feb-7b79-437c-8993-586303ac5a3c" d="M136.68,133.11a4.24,4.24,0,0,0-2.58.33c1.19.85,1.69,3.31,1.13,6-.66,3.14-2.52,5.41-4.14,5.06s-2.37-3-1.79-6.07a23.83,23.83,0,0,0-2.44,6.67c-1.56,7.45.3,14.13,4.15,14.94s8.25-4.57,9.81-12S140.53,133.92,136.68,133.11Z"/>
      <path class="a79b5feb-7b79-437c-8993-586303ac5a3c" d="M187.24,135a4.22,4.22,0,0,0-2.31,1.18c1.4.4,2.71,2.55,3.09,5.28.44,3.18-.54,5.94-2.19,6.17s-3.25-2.06-3.74-5.12a23.7,23.7,0,0,0,0,7.1c1,7.54,5.05,13.21,8.95,12.67s6.22-7.08,5.18-14.62S191.14,134.41,187.24,135Z"/>
      <path class="a79b5feb-7b79-437c-8993-586303ac5a3c" d="M113.11,247.23a8.18,8.18,0,0,0,3,8.94c3.14,2.25,6.58,1.23,10.07.61a194.3,194.3,0,0,1,30.06-2.92A128.53,128.53,0,0,1,189,257.08c3.36.81,7.34,2.86,10.85,2.27a7.71,7.71,0,0,0,6.33-6.7c.53-5.1-2.81-11.93-5-16.35a44.23,44.23,0,0,0-12-15c-13.06-10.28-32.71-11.42-47.9-5.56-14,5.41-23.46,17.52-28.11,31.45-.68,2,2.71,3.6,3.43,1.46,3.33-10,9.13-19.2,17.92-25.23,12.25-8.41,30-10.06,43.78-4.56,10.83,4.33,18.14,13.55,22.08,24.27a45.38,45.38,0,0,1,1.86,6.15c.5,2.38.43,4.69-2,6-2.12,1.19-4.2.16-6.31-.44a116,116,0,0,0-22.56-4.09,173.11,173.11,0,0,0-31.46.51q-6.12.6-12.18,1.6c-3.9.64-13,3.27-11.17-4.23C117,246.64,113.63,245.06,113.11,247.23Z"/>
      <path class="a79b5feb-7b79-437c-8993-586303ac5a3c" d="M130.61,223.14c8.9,5.32,20.82,6.62,30.91,6.84a114.83,114.83,0,0,0,23.28-1.57,26,26,0,0,0,7-2c1.27-.66-2.15-1.77-3.09-1.29a21.19,21.19,0,0,1-5.47,1.58,102.5,102.5,0,0,1-21.14,1.6c-9.27-.07-20.51-1-28.73-5.9-.87-.52-4.49-.29-2.8.72Z"/>
      <path class="a79b5feb-7b79-437c-8993-586303ac5a3c" d="M133.19,255.32a47.7,47.7,0,0,1,10-13.65c3.66-3.28,7.29-4.12,12-2.34a11.8,11.8,0,0,1,6,4.33c.58.92,2.18,1.55,2.84.39,3.59-6.38,11.11-8.15,16.56-3.06,4.2,3.92,7.51,9.17,10.08,14.28.84,1.66,4.11,1.81,3-.38-3.34-6.62-7.81-14-14.06-18.19-6.68-4.49-15-1.33-18.71,5.36l2.83.4c-3.74-6-13.59-9.52-19.86-5.91s-10.62,10.61-13.8,16.78c-.8,1.54,2.21,3.75,3.11,2Z"/>
      <path class="a79b5feb-7b79-437c-8993-586303ac5a3c" d="M100.46,239.68c-3,7.1-5.19,16.84-1.34,24,5.13,9.5,20,10.59,29.25,7.69,1.95-.62,0-3.83-1.75-3.27-7.77,2.44-22.28,2-25.39-7.14-2-5.89-.18-13.42,2.16-19,.72-1.72-2.15-4.13-2.93-2.26Z"/>
      <path class="a79b5feb-7b79-437c-8993-586303ac5a3c" d="M213,240c4,7.41,7.54,19.13,1.92,26.53-5.93,7.8-18.28,5-25.85,1.34a1.67,1.67,0,1,0-1.37,3.05c8.87,4.28,22.33,6.6,29.65-1.63s3.73-21.85-.93-30.58c-1-1.85-4.52-.76-3.42,1.29Z"/>
    </g>
  </g>
</svg>
