<svg id="b459e3a2-a191-4a5d-93d6-8772200e5d70" data-name="Layer 1" xmlns="http://www.w3.org/2000/svg" xmlns:xlink="http://www.w3.org/1999/xlink" width="325" height="325" viewBox="0 0 325 325">
  <defs>
    <style>
      .fe5d439e-21b0-43fa-b19e-ab2188bd3bfe {
        fill: none;
      }

      .eb70013b-7e94-4bf8-b773-e25cc57debf1 {
        clip-path: url(#bd08fb70-c5b3-42b5-8675-faacd298b367);
      }

      .bb65227a-d62c-4245-b0f6-3c1c7a8fc212 {
        fill: #f9d1c6;
        stroke: #323232;
      }

      .a1f86439-f2bf-4155-b1c7-88e660f771c0, .bb65227a-d62c-4245-b0f6-3c1c7a8fc212, .bd344852-f541-41d3-889f-0a404a388bf4 {
        stroke-miterlimit: 10;
      }

      .bd344852-f541-41d3-889f-0a404a388bf4 {
        fill: #00b6c2;
        stroke: #0c7777;
        stroke-width: 2px;
      }

      .f06f6dd3-29c1-4733-9ee5-55121dc8a820 {
        clip-path: url(#fbbd3dd6-9bd1-45d5-a13d-5e11f721d6ac);
      }

      .a1f86439-f2bf-4155-b1c7-88e660f771c0 {
        fill: #67e5cd;
        stroke: #fff;
        stroke-width: 12px;
      }

      .fb1a5108-fd96-4f32-a0b0-440834d60e16 {
        fill: #331409;
      }

      .b16ad51e-59de-489c-8a8c-6bf22a9499dc {
        fill: #fff;
      }

      .b180b5a0-e442-4bd4-b8fe-a75c0bf81d98 {
        fill: #e6e2cf;
      }

      .fe72be06-b07e-4a0d-928e-245de1baaf0b {
        fill: #ffb7a9;
      }

      .b1a57979-036e-4617-937c-e14c8d6177f0 {
        fill: #f47264;
      }
    </style>
    <clipPath id="bd08fb70-c5b3-42b5-8675-faacd298b367">
      <circle class="fe5d439e-21b0-43fa-b19e-ab2188bd3bfe" cx="32.5" cy="-392.5" r="285.12"/>
    </clipPath>
    <clipPath id="fbbd3dd6-9bd1-45d5-a13d-5e11f721d6ac">
      <ellipse class="fe5d439e-21b0-43fa-b19e-ab2188bd3bfe" cx="162.5" cy="162.5" rx="159" ry="158.79"/>
    </clipPath>
  </defs>
  <g class="eb70013b-7e94-4bf8-b773-e25cc57debf1">
    <g>
      <path class="bb65227a-d62c-4245-b0f6-3c1c7a8fc212" d="M279.07,27.09l-2.23,11.32-22.23-6.29A80.43,80.43,0,0,0,243.46,6.86l-9.69,19.35S220.86,28.43,229.11-4l3.62-18.36s-46.4-47.29-68.1-87.87L137-151.51l-5.09-7.58s11.78-29,46.62-36.46l7.94,11.85L207.71-152s30.68,50.8,60.37,128.9C268.08-23.12,276.42,12.63,279.07,27.09Z"/>
      <path class="bd344852-f541-41d3-889f-0a404a388bf4" d="M134.12-157.93,152.91-12.46S42,41.46-80.76-9.46c0,0,3.46-15,4-20,7.87-72.18,8.68-157.27,8.68-157.27L-71-143.85a545.43,545.43,0,0,1-60.48-39.44s47.73-86.41,55.68-93c11.64-9.73,75.2-25.23,75.2-25.23S79.76-314.32,138-270.91l42.06,58.55,9.72,13.55s-17.47,15.39-56.16,35.8Z"/>
    </g>
  </g>
  <g class="f06f6dd3-29c1-4733-9ee5-55121dc8a820">
    <ellipse class="a1f86439-f2bf-4155-b1c7-88e660f771c0" cx="162.5" cy="162.5" rx="159" ry="158.79"/>
    <g>
      <path class="fb1a5108-fd96-4f32-a0b0-440834d60e16" d="M124.29,254.65a158.2,158.2,0,0,1,36-4.28c19.72,0,32.16,5.14,32.16,5.14s-3.86-39.82-33-39.82S124.29,254.65,124.29,254.65Z"/>
      <path class="b16ad51e-59de-489c-8a8c-6bf22a9499dc" d="M212.61,200.43c-34.56,3.26-46.74-36.56-42.33-68.51,10.35,7.69,33.37,19.56,73.63,15.3C247.8,172.57,239.63,197.89,212.61,200.43Z"/>
      <path class="b16ad51e-59de-489c-8a8c-6bf22a9499dc" d="M112,200.43c-29.62-2.78-36.6-32.92-29.86-60.48a123.83,123.83,0,0,0,72-9.33C159.08,162.77,147.06,203.73,112,200.43Z"/>
      <path class="b180b5a0-e442-4bd4-b8fe-a75c0bf81d98" d="M178.11,164.3c0,8.83,6,26.68,28.18,31.38s34.07-25.62,34.07-25.62-9.68,19.62-32.05,15.32S178.11,164.3,178.11,164.3Z"/>
      <path class="b180b5a0-e442-4bd4-b8fe-a75c0bf81d98" d="M147.32,164.3c0,8.83-6,26.68-28.17,31.38s-34.08-25.62-34.08-25.62,9.68,19.62,32.06,15.32S147.32,164.3,147.32,164.3Z"/>
      <path class="b16ad51e-59de-489c-8a8c-6bf22a9499dc" d="M181.6,227.53a24.86,24.86,0,0,1-4.4,1.67,56.73,56.73,0,0,1-17,2.05A36.71,36.71,0,0,1,143.3,227,21.06,21.06,0,0,1,139,224.1a26.73,26.73,0,0,1,22-8.84A27.64,27.64,0,0,1,181.6,227.53Z"/>
      <path class="b180b5a0-e442-4bd4-b8fe-a75c0bf81d98" d="M181.6,227.53a24.86,24.86,0,0,1-4.4,1.67c-3.09-3.73-8.61-8.52-16.46-8.52-7.61,0-13.72,3.49-17.44,6.34A21.06,21.06,0,0,1,139,224.1a26.73,26.73,0,0,1,22-8.84A27.64,27.64,0,0,1,181.6,227.53Z"/>
      <path class="fe72be06-b07e-4a0d-928e-245de1baaf0b" d="M179.6,251.51s-25.15-4.28-41.73,0c0,0,4-14.27,11.72-14.27a5,5,0,0,1,.55,0c7.24.23,8.6,5.12,8.6,5.12s3-5.24,7.84-5.46a8.88,8.88,0,0,1,1,0C173,237.52,179.6,251.51,179.6,251.51Z"/>
      <path class="b1a57979-036e-4617-937c-e14c8d6177f0" d="M179.6,251.51s-25.15-4.28-41.73,0c0,0,4-14.27,11.72-14.27a5,5,0,0,1,.55,0c-1.89,2.49-4.36,6.54-4.55,10a175.91,175.91,0,0,1,26.58,0s-2.27-7-5.59-10.31a8.88,8.88,0,0,1,1,0C173,237.52,179.6,251.51,179.6,251.51Z"/>
      <path class="fb1a5108-fd96-4f32-a0b0-440834d60e16" d="M250.54,97.44A164.15,164.15,0,0,0,234,82c-2.89-2.33-5.85-4.52-8.86-6.5A72.08,72.08,0,0,0,216,70.29a29.9,29.9,0,0,0-9.37-2.6c-3-.38-5.66-.69-8.35-1a35.75,35.75,0,0,0-8.81.13c-3.3.39-6.87,1.36-11.18,2.34h0a1,1,0,0,1-1.13-.72.89.89,0,0,1,0-.43,22.56,22.56,0,0,1,7-11.38,25.43,25.43,0,0,1,5.94-4,26.81,26.81,0,0,1,7-2.22,25,25,0,0,1,7.37-.13,26.92,26.92,0,0,1,6.86,1.93,63,63,0,0,1,11.37,6.85A79,79,0,0,1,239.88,76.4a111.69,111.69,0,0,1,12,20.16.82.82,0,0,1-1.35.9Z"/>
      <path class="fb1a5108-fd96-4f32-a0b0-440834d60e16" d="M76.25,96.56a111.69,111.69,0,0,1,12-20.16,79,79,0,0,1,17.18-17.27,62.7,62.7,0,0,1,11.37-6.85,26.92,26.92,0,0,1,6.86-1.93,24.91,24.91,0,0,1,7.36.13,26.58,26.58,0,0,1,7.05,2.22,25.29,25.29,0,0,1,5.95,4,22.56,22.56,0,0,1,7,11.38.94.94,0,0,1-.7,1.14.89.89,0,0,1-.43,0h0c-4.32-1-7.88-2-11.18-2.34a35.75,35.75,0,0,0-8.81-.13c-2.69.29-5.32.6-8.35,1a29.82,29.82,0,0,0-9.37,2.6A71.4,71.4,0,0,0,103,75.52c-3,2-6,4.17-8.86,6.5A165.33,165.33,0,0,0,77.62,97.44l0,0a.82.82,0,0,1-1.35-.9Z"/>
      <path class="fb1a5108-fd96-4f32-a0b0-440834d60e16" d="M211.63,198.76c-34.95,2.84-43.14-38.89-39.6-65.69l-2.08.07c21.26,15.66,49.43,18.33,74.94,15.75l-2.75-2.47c1.65,11.3,1.36,23.39-3.59,33.89-5.14,10.9-15.08,17.17-26.92,18.45-2.06.22.49,3.51,2,3.35,11.93-1.29,22.08-7.2,27.7-18,5.73-11,6.15-24.08,4.39-36.1-.16-1.12-1.52-2.6-2.75-2.48-24.56,2.49-51.81.26-72.32-14.84-.41-.3-2-.88-2.07.08-3.92,29.68,7,74.43,45.05,71.33C215.64,201.94,213.1,198.64,211.63,198.76Z"/>
      <path class="fb1a5108-fd96-4f32-a0b0-440834d60e16" d="M112.46,198.66C83.12,195.51,78.63,164,84.27,140.27l-2.53,1.45a128.44,128.44,0,0,0,73.62-9.63l-3.34-1.3c3.94,26.72-4,70.77-39.56,67.87-2.52-.2-3.65,3.32-.87,3.55,38.51,3.13,49.14-41.63,44.71-71.75-.25-1.66-2.07-1.86-3.34-1.3a122.82,122.82,0,0,1-70.35,9,2.23,2.23,0,0,0-2.54,1.45c-3.19,13.44-3.87,28.48,1.75,41.4,5.41,12.41,16.45,19.74,29.77,21.18C114.13,202.48,115.25,199,112.46,198.66Z"/>
      <path class="fb1a5108-fd96-4f32-a0b0-440834d60e16" d="M195,160.58c-4.44.63-9.05-5.82-10.26-14.4a28.8,28.8,0,0,1-.24-6.16,91.56,91.56,0,0,0,16.5,5.32C201.73,153.3,199.17,160,195,160.58Z"/>
      <path class="fb1a5108-fd96-4f32-a0b0-440834d60e16" d="M140.77,146.18c-1.22,8.58-5.82,15-10.26,14.4s-7.06-8.1-5.83-16.69a29.14,29.14,0,0,1,.93-4.28,124.92,124.92,0,0,0,14.7-3.69A25.61,25.61,0,0,1,140.77,146.18Z"/>
      <path class="fb1a5108-fd96-4f32-a0b0-440834d60e16" d="M157,126.26c-7.07,4.68-15.51,7.77-23.62,10a109.78,109.78,0,0,1-62-1.29c-1.32-.41-4.87,1.83-3,2.39A114.77,114.77,0,0,0,132.11,139c9.15-2.45,18.73-5.84,26.69-11.1,2.38-1.58-.09-2.75-1.84-1.59Z"/>
      <path class="fb1a5108-fd96-4f32-a0b0-440834d60e16" d="M164.81,129.93c7.69,6.23,17.31,10.62,26.58,13.84a108.71,108.71,0,0,0,65,1.66c2.36-.66-1.23-2.62-2.69-2.21A101.75,101.75,0,0,1,191.13,141c-8-2.95-16.34-6.84-23-12.26-1.2-1-5.21-.39-3.29,1.18Z"/>
      <path class="fb1a5108-fd96-4f32-a0b0-440834d60e16" d="M125.44,256.23A143.18,143.18,0,0,1,159.62,252a104.76,104.76,0,0,1,23.95,2.35c2.15.49,4.29,1,6.39,1.71.5.16,3,1.08,2.28.77.77.32,2.22.6,2.09-.72-1.33-13.34-7.22-28.56-18.46-36.52a30.52,30.52,0,0,0-28.4-3.44c-9.08,3.55-15.41,11.6-19.46,20.18a65,65,0,0,0-5.59,17.41c-.25,1.59,3.46,3.66,3.74,1.88,1.87-11.89,7.58-25.15,17.31-32.6,7.9-6,19.35-7.75,28.32-3.06,7.69,4,12.29,12,15.19,19.92a61.65,61.65,0,0,1,3.62,15.09l2.09-.73c-10-4.08-21.57-5.34-32.29-5.42a144.75,144.75,0,0,0-37.25,4.28C121.07,253.61,123.94,256.62,125.44,256.23Z"/>
      <path class="fb1a5108-fd96-4f32-a0b0-440834d60e16" d="M142.24,272.3c10.94-2.57,25.43-2.35,36.57,2.31,1.74.73,4.28-.25,1.58-1.38-12.79-5.35-28-6-41.46-2.83-1.48.35,2.15,2.17,3.31,1.9Z"/>
      <path class="fb1a5108-fd96-4f32-a0b0-440834d60e16" d="M137.42,223.78c5.27,5.46,14.29,7.55,21.53,8s18.29.5,24.35-4.38c.61-.48-3-2-4-1.22-4.66,3.74-12.77,4-18.32,4.07-6.71.06-14.91-1.32-19.84-6.42-.7-.72-4.69-1-3.76-.08Z"/>
      <path class="fb1a5108-fd96-4f32-a0b0-440834d60e16" d="M139.63,251.26A43.8,43.8,0,0,1,145,240.81c2.23-3.09,4.47-3.68,7.63-1.13a18.26,18.26,0,0,1,4,4.48c.67,1.07,3.44.12,3.95-.76a15,15,0,0,1,3.48-4.51c3.45-2.58,5.58-.22,7.73,2.5A55.33,55.33,0,0,1,178,251.87c.58,1.22,4.58-.24,4.09-1.29-2.32-4.87-5.7-12.27-10.78-14.77-5.76-2.83-12,3.27-14.61,7.83l3.95-.76c-3.22-5.13-9.12-9.52-15.13-6.06-5.12,3-8,9.93-10,15.23-.39,1.06,3.63.46,4.09-.79Z"/>
    </g>
  </g>
</svg>
