<svg id="ab5e8ed1-8944-46da-8241-39101dcb2c88" data-name="Layer 1" xmlns="http://www.w3.org/2000/svg" xmlns:xlink="http://www.w3.org/1999/xlink" width="325" height="325" viewBox="0 0 325 325">
  <defs>
    <style>
      .a22aa2ca-b142-45c6-9889-bd73e465897b {
        fill: none;
      }

      .a5c4a456-77ec-4dc9-a4d6-be6de226e56e {
        clip-path: url(#b8e56800-f973-4935-b2a8-000c69efdb82);
      }

      .aea8126c-70aa-4dc3-84e8-938bdbb6a946 {
        fill: #ffc692;
        stroke: #fff;
        stroke-miterlimit: 10;
        stroke-width: 12px;
      }

      .b450d903-74bc-4e4c-81a8-2173d27f3bca {
        fill: #fff;
      }

      .bcc5ccbe-799c-4801-9645-5440550fa815 {
        fill: #e6e2cf;
      }

      .becb3ea2-12d7-4372-bf14-8890141031e6 {
        fill: #331409;
      }
    </style>
    <clipPath id="b8e56800-f973-4935-b2a8-000c69efdb82">
      <ellipse class="a22aa2ca-b142-45c6-9889-bd73e465897b" cx="162.5" cy="162.5" rx="159" ry="158.79"/>
    </clipPath>
  </defs>
  <g class="a5c4a456-77ec-4dc9-a4d6-be6de226e56e">
    <ellipse class="aea8126c-70aa-4dc3-84e8-938bdbb6a946" cx="162.5" cy="162.5" rx="159" ry="158.79"/>
    <g>
      <path class="b450d903-74bc-4e4c-81a8-2173d27f3bca" d="M132,95.62c29.37.72,35.61,85.79-8.45,83.56S96,94.73,132,95.62Z"/>
      <path class="b450d903-74bc-4e4c-81a8-2173d27f3bca" d="M191.12,95c-29.37.73-35.61,85.79,8.46,83.57S227.17,94.06,191.12,95Z"/>
      <path class="bcc5ccbe-799c-4801-9645-5440550fa815" d="M146.92,160.74c-2.67,6.33-12.35,17.33-29.71,14s-16.69-28.67-16.69-28.67,1,17,18.36,20.67S146.92,160.74,146.92,160.74Z"/>
      <path class="bcc5ccbe-799c-4801-9645-5440550fa815" d="M175,160.07c2.67,6.34,12.35,17.34,29.71,14s16.69-28.67,16.69-28.67-1,17-18.36,20.67S175,160.07,175,160.07Z"/>
      <path class="b450d903-74bc-4e4c-81a8-2173d27f3bca" d="M246.62,164.09c-.22.76-9.2,32.67-29.85,57.51-11.4,13.72-26.36,25.28-45.36,28.26-24.89,3.9-46.94-13.09-63.44-32.49C89,195.12,77.37,169.67,77.05,169c.52.86,26.87,43.95,88.12,40S246.21,164.92,246.62,164.09Z"/>
      <path class="bcc5ccbe-799c-4801-9645-5440550fa815" d="M216.77,221.6l5.82-26.41s-21.81,16.44-57.42,19.11-61-13.78-61-13.78L108,217.37C89,195.12,77.37,169.67,77.05,169c.52.86,26.87,43.95,88.12,40s81-44,81.45-44.87C246.4,164.85,237.42,196.76,216.77,221.6Z"/>
      <path class="becb3ea2-12d7-4372-bf14-8890141031e6" d="M132.82,96.86c13.56.52,18.67,17.83,20.36,28.73,2.18,14,.85,31-8.3,42.49-8.78,11.07-27.43,14-38,3.58-10.77-10.57-9.8-29.35-6-42.68,4.09-14.56,14.78-32.35,32-32.12,1.32,0-.69-2.47-1.61-2.48-16.47-.23-27.15,15.19-31.93,29.23-5,14.64-6,33.8,4.3,46.52,9.63,11.89,28.93,14.12,40.48,3.71,11.86-10.68,13.84-29.58,12-44.5-1.62-13.26-8.45-34.34-24.86-35C129.9,94.33,131.9,96.83,132.82,96.86Z"/>
      <path class="becb3ea2-12d7-4372-bf14-8890141031e6" d="M138.06,135.64a3.74,3.74,0,0,0-2.3-.12c.9.93,1,3.16,0,5.43-1.08,2.64-3,4.33-4.42,3.77s-1.59-3-.6-5.59a21.63,21.63,0,0,0-3.19,5.45c-2.54,6.25-2,12.39,1.26,13.7s7.93-2.69,10.47-8.94S141.3,137,138.06,135.64Z"/>
      <path class="becb3ea2-12d7-4372-bf14-8890141031e6" d="M190.08,93.72c-14.52.55-20.7,18.59-22.62,30.41-2.47,15.1-.85,33.28,9.43,45.39,9.91,11.66,29.09,14.32,40.72,3.46,11.87-11.09,11.33-30.8,7.22-45.19-4.44-15.53-16.22-34.33-34.52-34.08-1.33,0,.7,2.5,1.62,2.49,15.72-.22,25.41,14.74,29.71,28.11,4.35,13.53,5.47,31.3-3.62,43.23C209.3,179,190.24,181,179.85,170.67s-11.92-28.21-10.17-42c1.54-12.17,7.32-31.86,22.48-32.44C192.94,96.16,191.12,93.68,190.08,93.72Z"/>
      <path class="becb3ea2-12d7-4372-bf14-8890141031e6" d="M185.38,134.78a3.72,3.72,0,0,0-2,1.18c1.27.27,2.57,2.09,3.07,4.49.59,2.79-.1,5.29-1.54,5.6s-3-1.62-3.64-4.3a21.56,21.56,0,0,0,.42,6.29c1.39,6.61,5.3,11.38,8.72,10.66s5.06-6.66,3.67-13.27S188.8,134.06,185.38,134.78Z"/>
      <path class="becb3ea2-12d7-4372-bf14-8890141031e6" d="M82.32,81.91a77.13,77.13,0,0,1,5.76-8.78A89,89,0,0,1,95,65a68.36,68.36,0,0,1,8.12-7.19,50.72,50.72,0,0,1,9.72-5.7,44.32,44.32,0,0,1,11.5-3.53,22.75,22.75,0,0,1,6.33,0,23,23,0,0,1,6.11,1.75,27.44,27.44,0,0,1,5.33,3.21,27.93,27.93,0,0,1,4.3,4.18,24.53,24.53,0,0,1,5,10.33.71.71,0,0,1-1,.81h0c-3.57-1.45-6.62-2.92-9.56-4.06-1.47-.55-2.88-1.08-4.26-1.49s-2.72-.74-4-1-2.58-.46-3.86-.66-2.57-.41-3.92-.54a23.71,23.71,0,0,0-8.57.54A60.29,60.29,0,0,0,99,69.9a95.52,95.52,0,0,0-8.08,6c-1.32,1.06-2.61,2.17-3.88,3.3s-2.53,2.3-3.74,3.49v0a.64.64,0,0,1-1-.77Z"/>
      <path class="becb3ea2-12d7-4372-bf14-8890141031e6" d="M231.86,84.42A114.64,114.64,0,0,0,218.48,73a73.58,73.58,0,0,0-7.14-4.63A54.2,54.2,0,0,0,204,64.82a22.84,22.84,0,0,0-7.4-1.42c-2.37-.1-4.47-.19-6.66-.31a40.85,40.85,0,0,0-7.09.47c-.64.12-1.31.23-2,.32s-1.37.33-2.1.48c-.37.08-.74.14-1.12.23s-.73.2-1.12.29c-.76.2-1.57.37-2.45.52h0a.73.73,0,0,1-.85-.59.69.69,0,0,1,0-.32,18.7,18.7,0,0,1,.86-2.45c.17-.41.35-.79.54-1.19s.44-.73.66-1.11c.47-.72,1-1.44,1.5-2.14s1.19-1.29,1.83-1.91a22,22,0,0,1,9.7-5.16c.92-.17,1.86-.33,2.8-.43a8.33,8.33,0,0,1,1.41-.07l1.41,0a15.8,15.8,0,0,1,2.76.37c.45.08.91.18,1.35.29l1.29.41a47.66,47.66,0,0,1,9.29,4.63,58.57,58.57,0,0,1,14.25,12.64A80.74,80.74,0,0,1,232.9,83.7a.64.64,0,0,1-1,.74Z"/>
      <path class="becb3ea2-12d7-4372-bf14-8890141031e6" d="M75.43,168.87c3.34,5.57,8.06,10.53,12.8,14.91a97.51,97.51,0,0,0,39.52,22.07c35.45,10.08,78.84,2.31,106.13-23.27,5.53-5.18,11.07-11.33,14.39-18.23L245,163.8a162.22,162.22,0,0,1-11,27.87c-8.64,17.58-20.27,34.7-36.43,46.18-8.85,6.29-19.38,10.83-30.28,11.72-9.87.81-19.51-2-28.1-6.7-17.44-9.6-31-25.64-42.06-41.84a214.26,214.26,0,0,1-18.43-32c-.4-.88-3.6-1-3.23-.18a211,211,0,0,0,16.3,28.8c11,16.66,24.28,33,41.41,43.65a62.19,62.19,0,0,0,27.13,9.6c10.14.91,20.42-1.46,29.56-5.8,19.11-9.09,33-26.52,43.09-44.62a167.34,167.34,0,0,0,15.35-36.15c.24-.87-2.88-1.41-3.29-.55-2.46,5.1-6.33,9.73-10.15,13.84A93.65,93.65,0,0,1,199.34,201c-35,13.22-76.88,9.65-105.73-15.24C88,181,82.47,175.4,78.66,169.05,78.15,168.2,75,168.19,75.43,168.87Z"/>
      <path class="becb3ea2-12d7-4372-bf14-8890141031e6" d="M131.73,263.17a60.84,60.84,0,0,0,23.51,11.77c18.51,4.84,36.25-1.24,50-14.08.84-.79-1.43-3.23-2.28-2.44-13.4,12.5-30.71,18.66-48.79,13.92-7.74-2-15.73-5.68-21.89-10.9-1.72-1.46-1.77.72-.57,1.73Z"/>
      <path class="becb3ea2-12d7-4372-bf14-8890141031e6" d="M78.49,156.16c1.69,10-6.35,18.24-14.79,21.88-2,.86.59,1.91,1.77,1.4,9.06-3.9,18.19-12.59,16.36-23.46-.21-1.23-3.53-.95-3.34.18Z"/>
      <path class="becb3ea2-12d7-4372-bf14-8890141031e6" d="M241,151c.39,11,9.19,19.88,18.52,24.34,1.07.51,3.82-.17,1.86-1.1-8.62-4.12-16.72-12.68-17.08-22.78,0-1.16-3.34-1.45-3.3-.46Z"/>
      <path class="becb3ea2-12d7-4372-bf14-8890141031e6" d="M104,213.27c11.12,8.87,26.55,13.37,40.34,15.39,24.33,3.56,50.77-.37,71.89-13.36a56.55,56.55,0,0,0,11.67-8.91c.65-.69-1.07-1.67-1.64-1.08-8.68,9.21-21.84,15.06-33.71,18.6-23.89,7.14-51.11,6.21-74-3.87a76,76,0,0,1-9.72-5.07c-.89-.55-1.76-1.13-2.62-1.73-.19-.13-1.15-.86-.8-.58-.68-.55-2.38-.2-1.36.61Z"/>
    </g>
  </g>
</svg>
