<svg id="f71fd07b-89b0-47c7-a313-3eefe59eb3ed" data-name="Layer 1" xmlns="http://www.w3.org/2000/svg" xmlns:xlink="http://www.w3.org/1999/xlink" width="500" height="525" viewBox="0 0 500 525">
  <defs>
    <style>
      .aa7dc998-5774-4dcd-8673-b82e5173ecf2 {
        fill: none;
      }

      .af198bfe-2270-4191-a746-f8780891c11a {
        clip-path: url(#b50511a4-1cf8-47be-9ce7-7e0f34622f7b);
      }

      .b2637383-26fe-4445-b48a-7853c7a706f2 {
        fill: #f9d1c6;
      }

      .b2637383-26fe-4445-b48a-7853c7a706f2, .e7621f05-ac86-4b04-ad65-008ac748c872 {
        stroke: #323232;
      }

      .b20c19ac-b960-4aa1-a6f4-b16fb19e592a, .b2637383-26fe-4445-b48a-7853c7a706f2, .b5cf6d42-eef3-4e3c-90c1-d41b4dcf40af, .e5307235-43e6-4a8b-90a5-129411ea3514, .e7621f05-ac86-4b04-ad65-008ac748c872, .ea360396-117f-47e2-b697-cb3fdc9e4678, .f9425aa7-b1bc-4b50-bdb2-39eae6a654a5 {
        stroke-miterlimit: 10;
      }

      .b20c19ac-b960-4aa1-a6f4-b16fb19e592a {
        fill: #00b6c2;
        stroke: #0c7777;
        stroke-width: 2px;
      }

      .e7c7ecc9-16e7-460a-871f-98c67b6069d1 {
        opacity: 0.5;
      }

      .ea360396-117f-47e2-b697-cb3fdc9e4678 {
        fill: #00b2ed;
        stroke: #fff;
        stroke-width: 0.5px;
      }

      .eedd1501-b761-4df1-8c93-35d514fd9854 {
        fill: #01687f;
      }

      .f72c6b94-aaac-4cd7-9eb5-b5a307cbc9ef {
        fill: url(#a71662fd-f3e0-474a-ba9d-89e86f462b4f);
      }

      .b3584bab-1774-4274-8875-396d88819f7f {
        clip-path: url(#eaa256f2-6681-4461-875f-b988bf725425);
      }

      .add30321-a64f-4d27-a62a-86176e7097fb, .e7621f05-ac86-4b04-ad65-008ac748c872 {
        fill: #f4d1b3;
      }

      .ac9558b0-f77e-4815-8135-02dc36f44d81 {
        fill: #d16d2e;
      }

      .ac7cd9b8-b3b4-471b-8d43-a34a0297ad4c {
        fill: #ffba59;
      }

      .a90f1aaf-1985-44bd-8d54-5954177e65f2 {
        fill: #6e1700;
      }

      .bc9d5e74-f09b-4b58-8b6a-121299a9dd83 {
        fill: #9d290e;
      }

      .b2ca1c6d-4e55-4f1f-9c58-0277dbe06498 {
        fill: #750300;
      }

      .b893f7e3-c446-4dd4-bb9e-f6fbbcb4acc5 {
        fill: #fdfdfd;
      }

      .abd50764-5520-4d6d-b51c-36ef5ac83f77 {
        opacity: 0.1;
      }

      .ad0922d7-3d76-4e6a-b72d-11cef789bbef {
        fill: #9eb7ba;
      }

      .f6395c25-497a-4d4e-8279-4be6897a4001 {
        fill: #c46582;
      }

      .bbb4fdd5-5b37-4af2-bff7-3103af7f6e59 {
        fill: #a62501;
      }

      .a42d9ec6-eef3-4b8b-aace-32785de47847 {
        fill: #6b1400;
      }

      .adc316a7-71b8-4ec0-b3de-b3f9c278afa0 {
        fill: #871e00;
      }

      .a7550ad8-27d4-4e0e-8916-a8cf3b2076d1, .b5cf6d42-eef3-4e3c-90c1-d41b4dcf40af {
        fill: #e02229;
      }

      .b5cf6d42-eef3-4e3c-90c1-d41b4dcf40af {
        stroke: #771c3a;
      }

      .f9425aa7-b1bc-4b50-bdb2-39eae6a654a5 {
        fill: #fc54e4;
        stroke: #7a1b7a;
      }

      .e3f8be97-4f63-4594-bd3d-7e954c7a235e {
        fill: #cc42bf;
      }

      .a85b95a1-c561-4565-8390-cb742aa9f212 {
        fill: #ff0;
      }

      .f04b8b4f-c37d-41e3-b3f0-9f081d42bf88 {
        fill: #db9d8e;
      }

      .ad4b886c-18e0-4e76-ad0e-503cf3d7ac42 {
        fill: #342517;
      }

      .f6d3157b-4025-43d1-8dd1-d8448be6661a {
        fill: #323232;
      }

      .a0da051b-0b41-4530-b790-1ce1dd0bf763 {
        fill: #342516;
      }

      .b35d10a0-3c7e-46a5-8775-c7983c565f54 {
        fill: #661e1b;
      }

      .abd4d132-b4dc-40cc-8ea2-aa1b8df38e83 {
        fill: #d26653;
      }

      .ef31eb5b-4298-47e0-b25a-add996153a12 {
        fill: #fff;
      }

      .e2406259-a6fb-428e-9139-33c5690359db {
        fill: #f9988f;
      }

      .e5307235-43e6-4a8b-90a5-129411ea3514 {
        fill: #f9f8f7;
        stroke: #7f430d;
        stroke-width: 0.75px;
      }

      .ac5c9920-0b91-4d25-8b0b-53f9266b1f7c {
        fill: #fdefec;
      }

      .abead530-6379-4604-bdba-ef50d468f07b {
        fill: #540c00;
      }
    </style>
    <clipPath id="b50511a4-1cf8-47be-9ce7-7e0f34622f7b">
      <circle class="aa7dc998-5774-4dcd-8673-b82e5173ecf2" cx="292.5" cy="-392.5" r="285.12"/>
    </clipPath>
    <linearGradient id="a71662fd-f3e0-474a-ba9d-89e86f462b4f" x1="249.99" y1="-37.02" x2="249.99" y2="516.08" gradientUnits="userSpaceOnUse">
      <stop offset="0" stop-color="#e5e5e5"/>
      <stop offset="1" stop-color="#00c7e2"/>
    </linearGradient>
    <clipPath id="eaa256f2-6681-4461-875f-b988bf725425">
      <path class="aa7dc998-5774-4dcd-8673-b82e5173ecf2" d="M378.31,476.68c-3.19.51-6.39.93-9.55,1.32-76.38,9.45-163.92,9.55-240.33.31-16.73-2-34.47-5-47-16.25C67.63,449.62,63.36,430,60.24,411.68A1244.93,1244.93,0,0,1,42.74,187c.36-28.16-5.65-83.64,10-108.3,14.09-22.2,45.84-30.59,70-32.86,89.73-8.41,179-6.62,269.19-2.57,14.14.63,29,1.72,40.86,9.49C455.31,67.48,458.61,99,458,125.88,455.91,221.53,455.76,317,437.7,411c-3.6,18.76-8.32,38.88-22.78,51.36C404.84,471,391.64,474.57,378.31,476.68Z"/>
    </clipPath>
  </defs>
  <g class="af198bfe-2270-4191-a746-f8780891c11a">
    <g>
      <path class="b2637383-26fe-4445-b48a-7853c7a706f2" d="M539.07,27.09l-2.23,11.32-22.23-6.29A80.43,80.43,0,0,0,503.46,6.86l-9.69,19.35S480.86,28.43,489.11-4l3.62-18.36s-46.4-47.29-68.1-87.87L397-151.51l-5.09-7.58s11.78-29,46.62-36.46l7.94,11.85L467.71-152s30.68,50.8,60.37,128.9C528.08-23.12,536.42,12.63,539.07,27.09Z"/>
      <path class="b2637383-26fe-4445-b48a-7853c7a706f2" d="M45.93,23.71,48.16,35l22.23-6.29A80.43,80.43,0,0,1,81.54,3.48l9.69,19.35s12.91,2.22,4.66-30.25L92.27-25.78s46.4-47.29,68.1-87.87L188-154.89l5.09-7.58s-11.78-29-46.62-36.46l-7.94,11.85L117.29-155.4S86.61-104.6,56.92-26.5C56.92-26.5,48.58,9.25,45.93,23.71Z"/>
      <path class="b20c19ac-b960-4aa1-a6f4-b16fb19e592a" d="M394.12-157.93,412.91-12.46S302,41.46,179.24-9.46c0,0,3.46-15,4-20,7.87-72.18,8.68-157.27,8.68-157.27L189-143.85a545.43,545.43,0,0,1-60.48-39.44s47.73-86.41,55.68-93c11.64-9.73,75.2-25.23,75.2-25.23S339.76-314.32,398-270.91l42.06,58.55,9.72,13.55s-17.47,15.39-56.16,35.8Z"/>
    </g>
  </g>
  <g>
    <path class="e7c7ecc9-16e7-460a-871f-98c67b6069d1" d="M394.4,501c-3.46.55-6.93,1-10.36,1.43-82.9,10.25-177,10.36-260,.34-18.15-2.2-37.41-5.4-51-17.64-15-13.5-19.62-34.8-23-54.68a1350.89,1350.89,0,0,1-19-243.88C31.45,156,24.93,95.75,41.92,69c15.29-24.09,49.75-33.2,76-35.66,97.39-9.13,194.23-7.19,292.15-2.79,15.35.69,31.49,1.86,44.34,10.3,24.4,16,28,50.22,27.34,79.39-2.29,103.81-3.31,207.42-22.9,309.39-3.91,20.36-9,42.2-24.73,55.75C423.19,494.8,408.87,498.66,394.4,501Z"/>
    <path class="ea360396-117f-47e2-b697-cb3fdc9e4678" d="M388.4,495c-3.46.55-6.93,1-10.36,1.43-82.9,10.25-177,10.36-260,.34-18.15-2.2-37.41-5.4-51-17.64-15-13.5-19.62-34.8-23-54.68a1350.89,1350.89,0,0,1-19-243.88C25.45,150,18.93,89.75,35.92,63c15.29-24.09,49.75-33.2,76-35.66,97.39-9.13,194.23-7.19,292.15-2.79,15.35.69,31.49,1.86,44.34,10.3,24.4,16,28,50.22,27.34,79.39-2.29,103.81-3.31,207.42-22.9,309.39-3.91,20.36-9,42.2-24.73,55.75C417.19,488.8,402.87,492.66,388.4,495Z"/>
    <path class="eedd1501-b761-4df1-8c93-35d514fd9854" d="M380.77,481.13c-3.26.51-6.52.95-9.75,1.35-78,9.64-167.12,9.74-245.11.31-17.08-2.07-35.19-5.08-48-16.59-14.1-12.7-18.45-32.72-21.64-51.42A1270.93,1270.93,0,0,1,38.43,185.4C38.8,156.64,32.67,100,48.64,74.85,63,52.19,95.44,43.62,120.14,41.3c91.6-8.58,182.68-6.76,274.77-2.63,14.45.65,29.63,1.76,41.71,9.7C459.57,63.43,462.94,95.6,462.34,123c-2.15,97.64-2.52,195.09-20.95,291-3.68,19.15-8.49,39.69-23.26,52.43C407.85,475.34,394.37,479,380.77,481.13Z"/>
    <path class="f72c6b94-aaac-4cd7-9eb5-b5a307cbc9ef" d="M378.31,476.68c-3.19.51-6.39.93-9.55,1.32-76.38,9.45-163.92,9.55-240.33.31-16.73-2-34.47-5-47-16.25C67.63,449.62,63.36,430,60.24,411.68A1244.93,1244.93,0,0,1,42.74,187c.36-28.16-5.65-83.64,10-108.3,14.09-22.2,45.84-30.59,70-32.86,89.73-8.41,179-6.62,269.19-2.57,14.14.63,29,1.72,40.86,9.49C455.31,67.48,458.61,99,458,125.88,455.91,221.53,455.76,317,437.7,411c-3.6,18.76-8.32,38.88-22.78,51.36C404.84,471,391.64,474.57,378.31,476.68Z"/>
    <g class="b3584bab-1774-4274-8875-396d88819f7f">
      <g>
        <polygon class="add30321-a64f-4d27-a62a-86176e7097fb" points="136.04 238.98 123.44 250.5 130.84 271.14 145.79 265.05 141.92 239.46 136.04 238.98"/>
        <path class="e7621f05-ac86-4b04-ad65-008ac748c872" d="M145.76,265.26s-1.41-3.54.84-8.88c1-2.39,2.52-7.8-.24-13.08s-4.44-7.2-4.92-9.6,2-9.84-2.52-10.92-4.44,3.36-4.44,6.24a45.6,45.6,0,0,0,.84,8.16"/>
        <g>
          <path class="ac9558b0-f77e-4815-8135-02dc36f44d81" d="M128.79,212.39l3.48-.35,3.48-.35s5.63,29.22,5,33.36a5.32,5.32,0,0,1-10.21,1C129.08,242.15,128.79,212.39,128.79,212.39Z"/>
          <path class="ac7cd9b8-b3b4-471b-8d43-a34a0297ad4c" d="M127.87,212.78l3.48-.35,3.48-.34s5.63,29.22,5,33.35a5.32,5.32,0,0,1-10.22,1C128.15,242.54,127.87,212.78,127.87,212.78Z"/>
          <path class="a90f1aaf-1985-44bd-8d54-5954177e65f2" d="M127.79,157.55s-5.88-.83-7.2-.26-5.06,2.53-5.21,3l7.87,1.14Z"/>
          <path class="bc9d5e74-f09b-4b58-8b6a-121299a9dd83" d="M139.51,174.34s-9.43-1.15-16.95-14.56c0,0-6-1.14-7.18.47s-1.69,49.35.14,55.24,28.81-.17,28.81-.17S143.08,183,139.51,174.34Z"/>
          <path class="b2ca1c6d-4e55-4f1f-9c58-0277dbe06498" d="M145.15,170.16l-5.64,4.18,4.82,41a31.9,31.9,0,0,0,5.7-2.43S146.61,173,145.15,170.16Z"/>
          <path class="b2ca1c6d-4e55-4f1f-9c58-0277dbe06498" d="M122.56,159.78l5.23-2.23s7.72,11.41,17.36,12.61l-5.64,4.18S130.22,173.67,122.56,159.78Z"/>
          <path class="b893f7e3-c446-4dd4-bb9e-f6fbbcb4acc5" d="M142.75,170.69c-7.63-2.12-13.61-9.58-15.32-11.9L124,160.26c6.32,10.85,13.6,12.74,15.25,13Z"/>
        </g>
        <path class="e7621f05-ac86-4b04-ad65-008ac748c872" d="M145.45,264.47c3.59,10,18.34,20.95,23.76,29.71,8.12-8.86,18.62-19,18.62-19l14.25,20.63S176,321.26,169.37,320.94a6.31,6.31,0,0,1-2.05-.45c-11.19-1.84-21-13.72-36.6-49.59"/>
        <path class="e7621f05-ac86-4b04-ad65-008ac748c872" d="M266.73,239.44l-1-16.72c-5.22,1.83-25.55-1-26.65,6.63-.2,1.41.81,11.07.88,12.13v.16c-2.61.52-5.34,1.15-8.21,1.91,0,0,7.2,9.08,16.52,8.81s23-6.11,26.87-11.86A71.17,71.17,0,0,0,266.73,239.44Z"/>
        <path class="e7621f05-ac86-4b04-ad65-008ac748c872" d="M206.77,451.26c3.63,5.22.65,55.19.69,65,0,10.12,28,25.45,30.38,12.2,8.18-45,2.58-78,1.88-82.41,1.07,6.79-29.22-19.8-32.48-16.37C203.26,433.85,203.15,446.05,206.77,451.26Z"/>
        <path class="abd50764-5520-4d6d-b51c-36ef5ac83f77" d="M223,446.84c14.26,8.75,11.88,60.17,10,82.78l1-.71c11.22-9,7.72-68.15,7.48-71.18-.27-3.31-.67-8.34-2.21-11.77C227.89,443,209.82,438.79,223,446.84Z"/>
        <path class="ad0922d7-3d76-4e6a-b72d-11cef789bbef" d="M240.05,513.17s-1.6,35.33-3.55,36-34.42-11.62-34.42-11.62,5.25-18.7,5.42-24.34A54.05,54.05,0,0,0,240.05,513.17Z"/>
        <path class="f6395c25-497a-4d4e-8279-4be6897a4001" d="M180,547.44c19.91-2.9,28.81,18.08,30.83,23.76a53.22,53.22,0,0,0,8.11-2.28c7.37-2.7,13-6.58,15.28-9.21a11,11,0,0,0,1.58-2.55v0a64.85,64.85,0,0,0,.73-8,2,2,0,0,0-1.94-2,36.89,36.89,0,0,1-9.9-1.77,16.47,16.47,0,0,0,1.77-6.48c.43-4.81-.76-8.63-3.51-11.35-5.46-5.4-15.3-4.91-18.19-4.64-2.73.26-5,2.52-6.72,6.57l-.34.87-.06.14a34.84,34.84,0,0,0-1.65,6.74C190.67,538.91,184.62,542.93,180,547.44Z"/>
        <path class="bbb4fdd5-5b37-4af2-bff7-3103af7f6e59" d="M202.21,437.12s18.45,13.7,49.59,7.2l-3.11-69c-15.29-2.1-30.46-1.81-39.57,4.52C209.12,379.82,201,427,202.21,437.12Z"/>
        <path class="a42d9ec6-eef3-4b8b-aace-32785de47847" d="M253.15,434.12l.66,12.79s-30.46,9.79-52-9.91l.72-10.79S226.28,442.1,253.15,434.12Z"/>
        <polygon class="bbb4fdd5-5b37-4af2-bff7-3103af7f6e59" points="255.24 402.17 236.5 402.17 232.82 376.28 248.69 375.3 255.24 402.17"/>
        <path class="e7621f05-ac86-4b04-ad65-008ac748c872" d="M269,462.39c4.9,6.06,12.32,49.1,13.78,56.53,1.75,9,30.21,16.83,31.84-.25,1.2-12.67-2.22-46.26-12.67-73,3.79,9.7-31.21-14.54-36.26-8.06C259.06,446.11,264.08,456.32,269,462.39Z"/>
        <path class="abd50764-5520-4d6d-b51c-36ef5ac83f77" d="M282.22,446.89C302.28,449,310.6,503.68,313.17,526l.57-1.71c6.25-22.85-11.5-79.07-11.5-79.07-.51-1.84-2.47-3.71-5.24-5.39C281.76,442.45,269.32,445.52,282.22,446.89Z"/>
        <path class="ad0922d7-3d76-4e6a-b72d-11cef789bbef" d="M314.77,511.35s2.84,29.22,5.29,30.43-33.82,7.83-39.92,4.5c0,0,3.4-19.53,1.62-30.85C281.76,515.43,302.12,517.89,314.77,511.35Z"/>
        <path class="f6395c25-497a-4d4e-8279-4be6897a4001" d="M281.76,569.48c9.11,6.87,42.43,10.21,48-2.83a16.3,16.3,0,0,0,1.12-4c-1.52-11.47-10.31-22.36-10.31-22.36-1.38-1.87-3.23.89-5,.76S315,537,315,537c0-.78,0-1.52,0-2.23a17.84,17.84,0,0,0-1.22-6.08c-3.42-8.27-13.38-6-23.5-4.81-12.63,1.5-7.22,13.4-5.54,17.63s-3.42,4.18-4.58,4.79C279.16,546.8,279,560.43,281.76,569.48Z"/>
        <path class="bbb4fdd5-5b37-4af2-bff7-3103af7f6e59" d="M248.69,375.3l1.27,40,2.85,30.59c34,8,54.6-2.92,58.8-6.3l-13.32-63.36-23.35-4.44Z"/>
        <path class="adc316a7-71b8-4ec0-b3de-b3f9c278afa0" d="M256.35,386.84s30.48-.38,35.21,21.79,0,34.55,0,34.55l18.78-2.59a12.14,12.14,0,0,0,1.18-1l-8.61-37.39c4.45-16.27-2.23-33.83-2.23-33.83l-25.74,3.44Z"/>
        <path class="a42d9ec6-eef3-4b8b-aace-32785de47847" d="M310,432.11,312.87,445s-34.33,16.4-60.54.72l-1.42-14.85S266.1,444.26,310,432.11Z"/>
        <path class="b5cf6d42-eef3-4e3c-90c1-d41b4dcf40af" d="M221.25,245.54a39.37,39.37,0,0,0-18,10.08c-7.29,7.46-21.7,22.82-21.7,22.82s.65,15.84,17.35,22.86c0,0,13.94-11.93,16.52-23.88S221.25,245.54,221.25,245.54Z"/>
        <path class="f9425aa7-b1bc-4b50-bdb2-39eae6a654a5" d="M275.13,240.44a28.94,28.94,0,0,1-23.52,13.38c-7.8.36-11.63-2.58-15.24-7.08l-4.63-3.19s-6.67,1.19-10.67,2.44c-2.25.7-3.9,5.31-5,12.87-1.93,13.49-4.08,30.05-4.08,30.05h0c-7.53,41.55-3.08,92.83-3.08,92.83,15.71,8,59.89,8.33,89.65-5.83.5-20.41-13.13-44.92-8.57-71.8,2.89-17,9.38-30.29,12.42-51.72C297.31,244.84,282,241.44,275.13,240.44Z"/>
        <path class="e3f8be97-4f63-4594-bd3d-7e954c7a235e" d="M298.34,376.14c-2-24.64-4.87-23.4-8.69-46.12-3.51-20.88,1.17-30.84,1.17-30.84s-10.26,84.14-30.57,86.28C283.05,383.06,298.34,376.14,298.34,376.14Z"/>
        <path class="a7550ad8-27d4-4e0e-8916-a8cf3b2076d1" d="M231.69,244c3.15,4.43,8.35,14.36,21.79,11.93,13.66-2.5,19.62-10.88,22.49-15.11-2.47-.37-4.92-1-4.92-1-22.2,21.12-32.82,2.58-32.82,2.58C236.67,242.84,232.89,243.71,231.69,244Z"/>
        <path class="a7550ad8-27d4-4e0e-8916-a8cf3b2076d1" d="M230.81,293.21l-2.28,3.62-1.39.92-4,.57a2.22,2.22,0,0,0-1.35,3.46l2.41,3.43.37,1.72-.79,4.28a2,2,0,0,0,2.57,2.42l3.77-1.49,1.61.13,3.49,2.08a2,2,0,0,0,2.93-2l-.08-4.35.64-1.64,2.93-3a2.21,2.21,0,0,0-.76-3.62l-3.82-1.21-1.22-1.14-1.66-3.93A1.89,1.89,0,0,0,230.81,293.21Z"/>
        <path class="a85b95a1-c561-4565-8390-cb742aa9f212" d="M223.92,313.91a3.1,3.1,0,0,1-.89-2.86l.78-4.29-.21-1-2.41-3.43a3.24,3.24,0,0,1-.34-3,2.87,2.87,0,0,1,2.23-1.85l4-.57.82-.55,2.28-3.61a2.74,2.74,0,0,1,4.8.4l1.67,3.93.72.67,3.82,1.21a2.84,2.84,0,0,1,1.89,2.19,3.2,3.2,0,0,1-.82,2.92l-2.93,3-.38,1,.07,4.35a3.12,3.12,0,0,1-1.35,2.69,2.53,2.53,0,0,1-2.78.08L231.38,313l-.95-.07-3.77,1.49-1.17.17Zm8.25-2.41,3.48,2.08,1.17,0,.57-1.12-.08-4.36a3.23,3.23,0,0,1,.89-2.3l2.94-3,.34-1.22-.79-.92-3.83-1.21a2.8,2.8,0,0,1-1.71-1.61l-1.66-3.93a1.15,1.15,0,0,0-2-.17l-2.29,3.61a2.79,2.79,0,0,1-2,1.31l-4,.56-.93.78.14,1.27,2.41,3.43a3.21,3.21,0,0,1,.5,2.42l-.78,4.28.38,1.2,1.14.23,3.77-1.49,1.16-.17Z"/>
        <path class="abd50764-5520-4d6d-b51c-36ef5ac83f77" d="M240.19,241.82c5.38-4.94,19.86-7.56,25.85-9.65L264.93,217l-26.75,1Z"/>
        <path class="b5cf6d42-eef3-4e3c-90c1-d41b4dcf40af" d="M324.62,294s-14.72,19.3-32.9,15.93C291.72,309.89,292.89,258,324.62,294Z"/>
        <path class="e7621f05-ac86-4b04-ad65-008ac748c872" d="M313.33,382.59c3.81-19,12.51-30,12.08-67.09-.1-8.09-10.34-30.64-10.34-30.64l-25.59,8.33s7.85,24,12.65,30.3c-2.26,7.84-1.37,14-2.33,23.37-1.45,14.17-1.32,28-1.34,30.33"/>
        <path class="b5cf6d42-eef3-4e3c-90c1-d41b4dcf40af" d="M324.34,292.76s-8.77-15.9-13.46-24.79c-3.17-6-9-20.24-12-19.41-1.72.48-15.63-5.42-20.43,14.26-2.54,10.43,9.63,23.93,12.87,45.9C291.36,308.72,303.78,284.91,324.34,292.76Z"/>
        <g>
          <g>
            <path class="e7621f05-ac86-4b04-ad65-008ac748c872" d="M182.83,168.93c3.18,10.43,12.33,16.16,20.84,14s6.42-8,3.24-18.46S203.35,155.09,196,150C180,138.88,179.66,158.51,182.83,168.93Z"/>
            <path class="f04b8b4f-c37d-41e3-b3f0-9f081d42bf88" d="M192.43,153.58a4.42,4.42,0,0,0-3.77-.34c-1.55.73-2.06,2.62-2.19,4.3-.47,5.91,1.6,11.91,4.94,17a7.08,7.08,0,0,0,2,2.2,2.81,2.81,0,0,0,2.84.26,2.87,2.87,0,0,0,1.12-2.86c-.3-2.75-2.5-4.93-4.21-7.18a5.28,5.28,0,0,1-1.08-2,2,2,0,0,1,.61-2,2.89,2.89,0,0,1,1.73-.41,15.71,15.71,0,0,1,3.66.65c.81-1.65-.42-3.58-1.26-5A11.53,11.53,0,0,0,192.43,153.58Z"/>
          </g>
          <path class="e7621f05-ac86-4b04-ad65-008ac748c872" d="M213.44,111.06C248,98.79,210.46,68,252,76.24c40.34,8,60.14,32.74,54.62,68.07-2.56,16.33-10.92,32.4-11,33.29-3.41,42-41.46,56.14-65.92,51.27-10.68-2.12-20.76-9.36-28.85-18.6-9.88-11.28-16.3-26.82-11-55.69C190.08,153.69,184.66,121.28,213.44,111.06Z"/>
          <path class="abd50764-5520-4d6d-b51c-36ef5ac83f77" d="M284.65,122.7s-10.88,10.35-56.19,1.45l2.38-5.76s-4.27,7.87-31.47,7.34l-10.1,31.36,5.12-68.52L291.44,99.4l11.91,17.66-4.06,17.84s2.47,37.78-1.36,49.68l-1.14-2.3a67.6,67.6,0,0,1-7-28h0S279.92,156.29,284.65,122.7Z"/>
          <path class="ad4b886c-18e0-4e76-ad0e-503cf3d7ac42" d="M290,114.44s2.05,14.94-59.26,6.65c0,0,1.7-.41,9.58-13.47-10.08,16-25.91,13.47-38.11,14.87a55.17,55.17,0,0,0-4,5.6c-3.36,6.8-8.89,29-8.89,29s-2.87-16.67-3.22-23.56c0,0-2.17-19.47,2.92-30.83a62.69,62.69,0,0,0-5.71,10.71s-5-30.78,37.45-47.38c0,0-7.36-3.35-17.48-.52,0,0,20.86-16.48,56.94-11.08C279,57.25,293.32,59.29,298.58,79c0,0,24.94-11.41,30.12,18.32,0,0-14.47-11.08-20.13-5.5,0,0,18.25,5.92,18.13,33.4-.13,25.95-10,42.86-26.76,59.17,0,0-11.38-17.88-4.29-39.74l-6.7,7.55S280.17,143.51,290,114.44Z"/>
          <g>
            <path class="e7621f05-ac86-4b04-ad65-008ac748c872" d="M289.48,198.78c7.33,9.42,18.17,4.75,23.58-4.16s10.48-27.7-5.44-22.22a19.2,19.2,0,0,0-13.05,10.1"/>
            <path class="f04b8b4f-c37d-41e3-b3f0-9f081d42bf88" d="M309.54,177a3.29,3.29,0,0,1,3.13.87c1.05,1.19.94,3.15.58,4.79a28.38,28.38,0,0,1-8.63,14.6,6,6,0,0,1-2.2,1.46,2.13,2.13,0,0,1-2.35-.66A3.29,3.29,0,0,1,300,195c1-2.52,3.36-3.9,5.35-5.49a5.3,5.3,0,0,0,1.42-1.56,2.33,2.33,0,0,0,.06-2.13,2.38,2.38,0,0,0-1.28-1,11.49,11.49,0,0,0-3.12-.55c-.2-1.83,1.32-3.27,2.39-4.35A9.36,9.36,0,0,1,309.54,177Z"/>
          </g>
          <g>
            <g>
              <path class="add30321-a64f-4d27-a62a-86176e7097fb" d="M232,180.69c-9.3,5.14-14.85-2.87-14.1-6.21,0,0,.45-3.62,5.17-6.11s5.5-12.64,5.5-12.64"/>
              <path class="f6d3157b-4025-43d1-8dd1-d8448be6661a" d="M232,180.74a13.52,13.52,0,0,1-4.42,1.67,8.86,8.86,0,0,1-4.75-.44,9,9,0,0,1-3.85-2.9,8.5,8.5,0,0,1-1.19-2.15,4.73,4.73,0,0,1-.31-2.52v0a8.77,8.77,0,0,1,3.05-5,13.69,13.69,0,0,1,2.42-1.6,6.34,6.34,0,0,0,1.92-1.74,16.7,16.7,0,0,0,2.36-4.92,37.19,37.19,0,0,0,1.27-5.45h.1a27.43,27.43,0,0,1-.76,5.61,15.79,15.79,0,0,1-2.22,5.3,6.83,6.83,0,0,1-2.17,2.07,18.2,18.2,0,0,0-2.27,1.5,8.14,8.14,0,0,0-2.89,4.31v0a5.68,5.68,0,0,0,1.23,4.1A8.43,8.43,0,0,0,223,181.5a8.57,8.57,0,0,0,4.51.61,13.28,13.28,0,0,0,4.43-1.46Z"/>
            </g>
            <path class="a0da051b-0b41-4530-b790-1ce1dd0bf763" d="M252.16,137s.62-3.55,6.08-2.2,11.42,8.91,11,12.82C269.25,147.58,260.37,136.84,252.16,137Z"/>
            <path class="a0da051b-0b41-4530-b790-1ce1dd0bf763" d="M230.3,134.59a5.13,5.13,0,0,0-4.52-4.29c-4.18-.73-10.59,2.69-11.49,5.51C214.29,135.81,224.66,132,230.3,134.59Z"/>
            <g>
              <path class="b35d10a0-3c7e-46a5-8775-c7983c565f54" d="M251.9,194.82c-3,4.06-12.49,16.84-24.14,16.77-7,0-9.65-6.16-12.36-10.71-.7-1.17-1.34-2.39-2-3.62h0c-.32-.62-.65-1.24-1-1.85a34.89,34.89,0,0,0-2.91-4.61,0,0,0,0,1,0,0q-.39-.51-.81-1l-.34-.38s9.36,7.27,40.44,4.52l2.6-.43,1-.17.58-.1S252.61,193.85,251.9,194.82Z"/>
              <path class="abd4d132-b4dc-40cc-8ea2-aa1b8df38e83" d="M218.45,203.69a7.89,7.89,0,0,1,6.94-.7,15.58,15.58,0,0,1,10.82,3.27S225.78,211.39,218.45,203.69Z"/>
              <path class="ef31eb5b-4298-47e0-b25a-add996153a12" d="M252.41,193.34c-15.23,10.39-27.81,8.95-34.43,6-2.84-1.28-2-6.45-6.84-7.32a13.83,13.83,0,0,1-2.46-2.19l-.34-.38s9.36,7.27,40.44,4.52l2.6-.43Z"/>
              <path class="e2406259-a6fb-428e-9139-33c5690359db" d="M251.9,194.82c-3,4.06-12.49,16.84-24.14,16.77-7,0-9.65-6.16-12.36-10.71C225.29,211.83,235.13,210.58,251.9,194.82Z"/>
              <path class="e2406259-a6fb-428e-9139-33c5690359db" d="M251.38,193.51c-24.15,8-37.13,1-41.88-2.71a0,0,0,0,1,0,0l-.11-.08c-.24-.33-.47-.64-.7-.91l-.34-.38s9.36,7.27,40.44,4.52Z"/>
              <path class="abd4d132-b4dc-40cc-8ea2-aa1b8df38e83" d="M251.7,191.07s3.6,1,1.51,4.68C253.21,195.75,256.28,191,251.7,191.07Z"/>
              <path class="abd4d132-b4dc-40cc-8ea2-aa1b8df38e83" d="M209.21,188.21s-2.28.32-1.23,3.53C208,191.74,205.84,188.4,209.21,188.21Z"/>
            </g>
            <g>
              <ellipse class="e5307235-43e6-4a8b-90a5-129411ea3514" cx="253.89" cy="160.33" rx="11.41" ry="10.27" transform="translate(36.22 367.18) rotate(-75.81)"/>
              <ellipse class="a0da051b-0b41-4530-b790-1ce1dd0bf763" cx="251.5" cy="164.23" rx="6.97" ry="6.47" transform="translate(30.65 367.81) rotate(-75.81)"/>
              <circle class="ac5c9920-0b91-4d25-8b0b-53f9266b1f7c" cx="256.24" cy="162.13" r="1.24" transform="translate(37.13 371.74) rotate(-76.05)"/>
            </g>
            <g>
              <ellipse class="e5307235-43e6-4a8b-90a5-129411ea3514" cx="218.53" cy="152.76" rx="11.41" ry="9.39" transform="translate(16.86 327.18) rotate(-75.81)"/>
              <ellipse class="a0da051b-0b41-4530-b790-1ce1dd0bf763" cx="216.36" cy="156.71" rx="6.97" ry="6" transform="translate(11.39 328.05) rotate(-75.81)"/>
              <ellipse class="ac5c9920-0b91-4d25-8b0b-53f9266b1f7c" cx="220.76" cy="154.53" rx="1.24" ry="1.14" transform="translate(16.84 330.68) rotate(-75.81)"/>
            </g>
          </g>
        </g>
        <path class="abead530-6379-4604-bdba-ef50d468f07b" d="M235.45,398a31.47,31.47,0,0,0,3,3.71,31.11,31.11,0,0,0,3.4,3.2,28.71,28.71,0,0,0,3.78,2.63,30.28,30.28,0,0,0,4.13,2l.59.26,0,.58c.17,2.23.37,4.46.5,6.7s.3,4.46.41,6.7.2,4.48.28,6.72.12,4.48.11,6.73c-.4-2.22-.72-4.44-1-6.66s-.61-4.44-.86-6.66-.51-4.45-.74-6.68-.42-4.45-.64-6.68l.64.84a24.08,24.08,0,0,1-8.29-5.29c-.59-.57-1.14-1.19-1.67-1.8s-1-1.3-1.46-2A18.1,18.1,0,0,1,235.45,398Z"/>
        <g>
          <path class="e7621f05-ac86-4b04-ad65-008ac748c872" d="M298.44,376.29s.4,5.45-2.66,7.29-7.12,6.32-9.63,11.75-4.45,8.82-6.72,11.14,2.18,4.14,5.47,2.1,7.26-7.55,8.78-8.27,2.76-.62,2.42,1,.23,12.94-1.21,15.32-5.14,4.39-5.33,6.88.62,5.26,3,4c0,0,.34,3.57,4.26,1.38,0,0,5.08-3.56,6.45-5.12,0,0,1.4.73,3.19-.79a19.7,19.7,0,0,0,7.18-11.73,56.94,56.94,0,0,0,.49-20.88c-1-5.92-1.41-5.95-.19-10.86"/>
          <path class="f6d3157b-4025-43d1-8dd1-d8448be6661a" d="M305,407.55a32.8,32.8,0,0,1-1.33,5.95,17.47,17.47,0,0,1-2.72,5.57l-4.23,4.39a37.94,37.94,0,0,1-4.45,4.14c.71-.72,1.33-1.52,2-2.3l1.92-2.35c1.27-1.54,2.7-3.09,4-4.51a22,22,0,0,0,2.73-5.21C303.64,411.37,304.33,409.47,305,407.55Z"/>
          <path class="f6d3157b-4025-43d1-8dd1-d8448be6661a" d="M310.13,408.48a28,28,0,0,1-1,4.63,31,31,0,0,1-1.67,4.45,21.83,21.83,0,0,1-2.44,4.11,11.68,11.68,0,0,1-3.5,3.22,18.92,18.92,0,0,0,2.86-3.66,36.3,36.3,0,0,0,2.17-4.09c.67-1.4,1.26-2.84,1.84-4.28Z"/>
        </g>
        <path class="e7621f05-ac86-4b04-ad65-008ac748c872" d="M130.84,271.26s-9.34-10.82-10.92-13.68c-2-3.6-4.64-11.28-2-13.44s2.4-3.36,2.4-3.36-2.4-3.36,1.92-8.16c0,0-2.08-2.52-1.24-8.76,0,0,1-3.72,10.57-2.73,0,0,6.21,2.34,7.92,8s-1,5.49-2.34,6.12c0,0,1.71,4.41,1.44,6.3s-1.35,3.33-3.15,3.33a8.88,8.88,0,0,1,.18,4.23c-.54,1.8-.9,2.34-1.62,2.61,0,0-.36,4.41-2.79,4.5,0,0-5.31-1.35-4.41-3.24,0,0,.27-2.25,1.17-2.25"/>
        <path class="f6d3157b-4025-43d1-8dd1-d8448be6661a" d="M121.76,246.51a22.46,22.46,0,0,1,3.47-2.22,8.19,8.19,0,0,1,2-.79,3.25,3.25,0,0,1,2.3.32,7.45,7.45,0,0,1,2.73,3.3,18.44,18.44,0,0,1,1.39,3.89c-.69-1.19-1.36-2.37-2.07-3.5A8.25,8.25,0,0,0,129,244.7c-1-.63-2.23-.19-3.49.3Z"/>
        <path class="f6d3157b-4025-43d1-8dd1-d8448be6661a" d="M121.22,240.84a43.91,43.91,0,0,0,3.87-2.31l.92-.63.45-.32.56-.33a3.78,3.78,0,0,1,2.54-.15,7.09,7.09,0,0,1,3.73,2.92,8.51,8.51,0,0,1,1.52,4.33,11.83,11.83,0,0,0-2.14-3.86,7.2,7.2,0,0,0-3.38-2.42,2.78,2.78,0,0,0-1.89.05l-.43.21-.48.31c-.33.2-.66.39-1,.56A17.06,17.06,0,0,1,121.22,240.84Z"/>
        <path class="f6d3157b-4025-43d1-8dd1-d8448be6661a" d="M122.75,232.47A25.34,25.34,0,0,1,126,229.2a7.75,7.75,0,0,1,2.05-1.31,3.92,3.92,0,0,1,4.65,1.1,10.11,10.11,0,0,1,1.42,1.9q1.23,2,2.28,4c-1-1.16-2-2.34-2.92-3.56a13.1,13.1,0,0,0-1.44-1.68,3.27,3.27,0,0,0-3.71-.87,8.2,8.2,0,0,0-1.87,1C125.25,230.68,124,231.58,122.75,232.47Z"/>
        <path class="f6d3157b-4025-43d1-8dd1-d8448be6661a" d="M134.54,251.1a12.13,12.13,0,0,1,4,2.74,8.85,8.85,0,0,1,1.49,2,4.67,4.67,0,0,1,.61,2.38,8.29,8.29,0,0,0-1.11-2.08,16,16,0,0,0-1.52-1.77c-.54-.57-1.12-1.1-1.71-1.64Z"/>
        <path class="f6d3157b-4025-43d1-8dd1-d8448be6661a" d="M125.32,252.66a14.48,14.48,0,0,0,2.54,3.54,11.82,11.82,0,0,0,3.48,2.49,8,8,0,0,1,3.57,2.78,8.27,8.27,0,0,1,1.32,4.27,11.92,11.92,0,0,0-1.86-3.88,9.47,9.47,0,0,0-3.33-2.55,11.18,11.18,0,0,1-3.51-2.81A11.63,11.63,0,0,1,125.32,252.66Z"/>
      </g>
    </g>
  </g>
</svg>
