<svg id="f5a8b23a-f7a4-4d28-ad9c-35e1d84fcf98" data-name="Layer 1" xmlns="http://www.w3.org/2000/svg" xmlns:xlink="http://www.w3.org/1999/xlink" width="500" height="525" viewBox="0 0 500 525">
  <defs>
    <style>
      .a0e0804f-8122-4eee-a163-62885187809f, .bc3ca432-27b8-40f3-b68d-e3753665f4fa, .f296dd0f-96c5-42da-a8c5-33bdcaf0fe08 {
        fill: none;
      }

      .af1934c9-774a-48e3-81f8-644dee244d93, .bc3ca432-27b8-40f3-b68d-e3753665f4fa, .bcd7f336-f334-4432-903a-e1d049d83229 {
        opacity: 0.5;
      }

      .f7920047-007b-4c05-85cc-a496aaab1da3 {
        fill: #00b2ed;
        stroke: #fff;
      }

      .a0e0804f-8122-4eee-a163-62885187809f, .a297c59a-9182-4212-afc1-cbbe012cb117, .a4110417-200a-473d-94d7-d6d05c0b84e3, .a4f59a44-b1ee-48f4-89e4-6ac0a88833bd, .a86ea7c0-e7c2-4631-8c93-2e353bbd14c0, .a8f3be6f-e563-48a1-9abc-2bad7988444d, .ae803e3a-1609-42ff-b003-9eb722077b3b, .afa1137a-bd62-41eb-ae76-b1b7cb14d3b3, .aff635a4-75b7-49ce-95da-77cf8373af3b, .b2c3032e-1e47-48aa-9100-b15d5b584b51, .b30df410-88ac-4c72-bb53-d0debbc0224b, .b321a2f5-74f3-44a8-9784-ca1ba6eaa8dc, .b7b42771-41a2-42b8-a986-02fcc044b778, .bd5fa9e9-8f79-411b-812a-934bd5648351, .e1de5fcf-ebe9-4363-805e-0e257ea9c2b1, .eb22b0b2-17a8-47d7-a589-ab2ff9003418, .f7920047-007b-4c05-85cc-a496aaab1da3 {
        stroke-miterlimit: 10;
      }

      .a0e0804f-8122-4eee-a163-62885187809f, .a297c59a-9182-4212-afc1-cbbe012cb117, .a4110417-200a-473d-94d7-d6d05c0b84e3, .a86ea7c0-e7c2-4631-8c93-2e353bbd14c0, .ae803e3a-1609-42ff-b003-9eb722077b3b, .afa1137a-bd62-41eb-ae76-b1b7cb14d3b3, .aff635a4-75b7-49ce-95da-77cf8373af3b, .b30df410-88ac-4c72-bb53-d0debbc0224b, .eb22b0b2-17a8-47d7-a589-ab2ff9003418, .f7920047-007b-4c05-85cc-a496aaab1da3 {
        stroke-width: 0.5px;
      }

      .b53ea41b-9797-46eb-8d43-60a4e2808f74 {
        fill: #01687f;
      }

      .bee01e2f-7dd2-4226-8ec7-de16b1097aff {
        fill: url(#bf60522e-8112-4c83-9ee0-5623b1953ee6);
      }

      .ee252c1c-2f69-4c13-aad3-833f61a01c7f {
        clip-path: url(#e8544872-1e40-4914-a56c-ff01c6b5b0e5);
      }

      .e893f410-2ae6-4a50-a3fe-5ae78d3233bc {
        clip-path: url(#a70ec4d0-b0e8-4acb-9158-1bdd5de6ac15);
      }

      .e392694a-3f5d-48ea-bcb1-4a4569e46e7a {
        fill: url(#b2d39c3d-a789-48ab-9e88-c9682aaf14c0);
      }

      .f6d502b3-d1d7-4604-82b2-26b1e8156b7b {
        fill: url(#ed30ab91-e725-4665-a403-465381dccce0);
      }

      .e77a9397-7001-42da-b744-6ffbe49a639d {
        fill: url(#ab9ab4cc-c6f0-4328-94ac-51c2742b06c0);
      }

      .ffe60284-fb3e-4df3-a16e-a7d4e77ac8f7 {
        fill: #70bbdd;
        opacity: 0.75;
      }

      .fe076893-2033-4d94-85e9-fad66e9f4cb1 {
        fill: #951a1d;
      }

      .a814f8e3-c106-47b9-b671-b92a847f11b1 {
        fill: #6b0c11;
      }

      .bd0b686e-ee9c-45d4-9bb2-1c2c0f3fde41 {
        fill: #7d1416;
      }

      .b44f111e-967f-48ad-a671-9ce91d3e0b71 {
        fill: #e7ad8d;
      }

      .b48cffd2-0690-433e-bfb0-cb33230e57e1 {
        fill: #d09d7c;
      }

      .ac2dc99f-49ca-40d4-bf4e-4381190851df {
        fill: #6f8289;
      }

      .a494a54a-a4fc-4d6e-91b7-20b10b970ae0 {
        fill: #868686;
      }

      .bc3f986a-10f1-4036-9cfb-cc6f0fac4080 {
        fill: #6d6d6d;
      }

      .bff0b3f1-bddd-4472-8364-7472dee2779a {
        fill: #a81e22;
      }

      .e10499a6-8811-40f3-9492-0d836ac69efe {
        fill: #58595b;
      }

      .b8232f63-d6e6-4c6d-89a6-0a395cc6ccb7 {
        fill: #d7b777;
      }

      .ba9c493e-5a68-4ea8-b65f-2fd1df857e24 {
        fill: #e8c991;
      }

      .fa92bfb2-db00-436f-b98f-bf646c7d00c6 {
        fill: #f3d3a2;
      }

      .b2c3032e-1e47-48aa-9100-b15d5b584b51 {
        fill: #b67656;
        stroke: #a44a24;
        stroke-width: 3.87px;
      }

      .b0461c1e-be59-4c46-a63d-b33368bc244e {
        fill: #87c444;
      }

      .e02b65a2-b5ac-463d-be48-aabcf7c1e50a {
        fill: #5aa846;
      }

      .af1934c9-774a-48e3-81f8-644dee244d93, .edbc0bd5-495a-4773-92f4-9f9a0e373847 {
        fill: #323232;
      }

      .e14c90dc-a57d-4193-876c-27a4ab6d9cee {
        fill: #569b44;
      }

      .ee20548c-c2ce-4486-bba3-7a94500eac14 {
        fill: #98c948;
      }

      .a63436cd-d428-4931-b8af-1f5a78483149 {
        fill: #70b644;
      }

      .a3883fc9-d799-46e5-bcce-976bacbccd1b {
        fill: #5c9942;
      }

      .b97d3742-7eee-48d4-baeb-f2070df66396 {
        fill: #adadad;
      }

      .ee35bd9a-83df-4f67-96ec-8c035b2252fc {
        fill: #787878;
      }

      .be2216df-c481-41f0-a23d-c7780a8568af {
        fill: #8b421f;
      }

      .a8dc285e-8b09-48fa-80fd-39a0a0b4a96e {
        fill: #519b44;
      }

      .b482a068-73b4-40dc-b9b5-3ad171b05032 {
        fill: #54883e;
      }

      .b3bbfe35-9c42-4ace-b4f9-9122ba26587c {
        fill: url(#e455980a-3324-47e0-8654-9c4fba0855fc);
      }

      .b9bd9623-0132-4db0-bffb-eceb447916e3 {
        fill: url(#b7e8e7e8-771e-4de9-b107-2fdb8ef93621);
      }

      .ab4a98af-4fba-4434-bde4-e0e14efe35f0 {
        fill: url(#f338565e-cb68-4722-a071-6e01f3cb04c2);
      }

      .b10139df-6d5c-4dc9-a794-349d72696ca1 {
        fill: url(#bdfe372b-420e-4b25-95df-e40b36f5f10e);
      }

      .b99a90f9-234e-4310-a52d-b3a9eb235cca {
        fill: #7b7b7a;
      }

      .f3d73cdf-7b1c-469a-af20-70ca82f715d9 {
        fill: #a2a2a3;
      }

      .e6e4c560-0196-4379-8f33-212f95cff4aa {
        fill: #cd8751;
      }

      .bbebedd2-c7da-4baf-ab53-1f9f32b26178 {
        fill: #959595;
      }

      .bd54d423-97be-4d9d-bd93-42b25f5c4602 {
        fill: #cea852;
      }

      .f02b08aa-eb91-43a7-9aab-8e54fb61e13b {
        fill: #723e0f;
      }

      .e3e45dea-99e5-4c21-a3c1-a4a9550234a0, .edbc0bd5-495a-4773-92f4-9f9a0e373847 {
        font-size: 16.14px;
        font-family: MyriadPro-Bold, Myriad Pro;
        font-weight: 700;
        letter-spacing: 0.05em;
      }

      .e3e45dea-99e5-4c21-a3c1-a4a9550234a0 {
        fill: #f4f7f0;
      }

      .afa1137a-bd62-41eb-ae76-b1b7cb14d3b3 {
        fill: #e4a292;
      }

      .a0e0804f-8122-4eee-a163-62885187809f, .a297c59a-9182-4212-afc1-cbbe012cb117, .afa1137a-bd62-41eb-ae76-b1b7cb14d3b3, .b30df410-88ac-4c72-bb53-d0debbc0224b, .eb22b0b2-17a8-47d7-a589-ab2ff9003418 {
        stroke: #453323;
      }

      .a297c59a-9182-4212-afc1-cbbe012cb117 {
        fill: #fbd3c7;
      }

      .bcbe894c-0e9a-49be-8235-7c8f9aeb8b92 {
        fill: #e4a68d;
      }

      .a8f3be6f-e563-48a1-9abc-2bad7988444d, .ad3ab538-4b74-48e3-98ad-9f0384138114, .aff635a4-75b7-49ce-95da-77cf8373af3b {
        fill: #3096d2;
      }

      .a8f3be6f-e563-48a1-9abc-2bad7988444d, .aff635a4-75b7-49ce-95da-77cf8373af3b {
        stroke: #2c3581;
      }

      .bd5fa9e9-8f79-411b-812a-934bd5648351 {
        fill: #864a30;
        stroke: #68321e;
      }

      .ae803e3a-1609-42ff-b003-9eb722077b3b {
        fill: #bb2026;
      }

      .a4110417-200a-473d-94d7-d6d05c0b84e3, .a86ea7c0-e7c2-4631-8c93-2e353bbd14c0, .ae803e3a-1609-42ff-b003-9eb722077b3b {
        stroke: #a31e23;
      }

      .a86ea7c0-e7c2-4631-8c93-2e353bbd14c0 {
        fill: #e81e25;
      }

      .a4110417-200a-473d-94d7-d6d05c0b84e3 {
        fill: #e56125;
      }

      .eb22b0b2-17a8-47d7-a589-ab2ff9003418 {
        fill: #f6e982;
      }

      .e1de5fcf-ebe9-4363-805e-0e257ea9c2b1 {
        fill: #2455a3;
        stroke: #2d2b7a;
      }

      .b30df410-88ac-4c72-bb53-d0debbc0224b {
        fill: #d5c463;
      }

      .aa0b532e-616c-4daa-8130-f1c6255e155b {
        fill: #bca955;
      }

      .b657ad39-ab81-45a7-b3dd-b2e30d0ad52c {
        fill: #2c3581;
      }

      .ef500d2a-79a8-434f-8e78-af5a3b9a0f0c {
        fill: #f8e1db;
      }

      .b321a2f5-74f3-44a8-9784-ca1ba6eaa8dc {
        fill: #d95c78;
        stroke: #8d2338;
      }

      .a0575573-9af1-4084-b0a1-f12f2a1f5592, .b7b42771-41a2-42b8-a986-02fcc044b778 {
        fill: #d6ebf4;
      }

      .a07095f1-1f73-415c-a104-faaa145b91f5 {
        fill: #98784d;
      }

      .ae6ca12d-afcc-4db3-9f8c-45b0a7a54e20 {
        fill: #ba7e70;
      }

      .b6f28f1d-f2a6-4ed1-af8f-122417540477 {
        fill: #dee8ee;
      }

      .bbc004ef-9ee7-454c-a6d5-21b8e2dcfc5c {
        fill: #580d0d;
      }

      .b36af066-d5d5-481e-bc06-fb97604d631a {
        fill: #a04c43;
      }

      .b7b42771-41a2-42b8-a986-02fcc044b778 {
        stroke: #98784d;
      }

      .a4f59a44-b1ee-48f4-89e4-6ac0a88833bd {
        fill: #3f1d1d;
        stroke: #221f1f;
      }

      .a74a9a38-3551-44b2-8f73-8617a41ff7ad {
        fill: #431b15;
      }

      .a8ba5737-686d-4981-bfaf-d5297df57092 {
        fill: #c48a74;
      }

      .b6324848-2801-4e27-988f-ba1dd746fe79 {
        fill: #451e15;
      }

      .bfae14a3-dd98-45bb-8df6-504e5da908b9 {
        fill: #7a4922;
      }
    </style>
    <linearGradient id="bf60522e-8112-4c83-9ee0-5623b1953ee6" x1="249.99" y1="-37.02" x2="249.99" y2="516.08" gradientUnits="userSpaceOnUse">
      <stop offset="0" stop-color="#e5e5e5"/>
      <stop offset="1" stop-color="#00c7e2"/>
    </linearGradient>
    <clipPath id="e8544872-1e40-4914-a56c-ff01c6b5b0e5">
      <path class="f296dd0f-96c5-42da-a8c5-33bdcaf0fe08" d="M378.31,476.68c-3.19.51-6.39.93-9.55,1.32-76.38,9.45-163.92,9.55-240.33.31-16.73-2-34.47-5-47-16.25C67.63,449.62,63.36,430,60.24,411.68A1244.93,1244.93,0,0,1,42.74,187c.36-28.16-5.65-83.64,10-108.3,14.09-22.2,45.84-30.59,70-32.86,89.73-8.41,179-6.62,269.19-2.57,14.14.63,29,1.72,40.86,9.49C455.31,67.48,458.61,99,458,125.88,455.91,221.53,455.76,317,437.7,411c-3.6,18.76-8.32,38.88-22.78,51.36C404.84,471,391.64,474.57,378.31,476.68Z"/>
    </clipPath>
    <clipPath id="a70ec4d0-b0e8-4acb-9158-1bdd5de6ac15">
      <rect class="bc3ca432-27b8-40f3-b68d-e3753665f4fa" x="-25.96" y="1.02" width="599.54" height="489.6"/>
    </clipPath>
    <linearGradient id="b2d39c3d-a789-48ab-9e88-c9682aaf14c0" x1="283.01" y1="-402.44" x2="216.27" y2="755.88" gradientUnits="userSpaceOnUse">
      <stop offset="0" stop-color="#35b6e5"/>
      <stop offset="0.12" stop-color="#49bde8"/>
      <stop offset="0.72" stop-color="#a6def6"/>
    </linearGradient>
    <linearGradient id="ed30ab91-e725-4665-a403-465381dccce0" x1="238.44" y1="283.3" x2="240.86" y2="544.9" gradientUnits="userSpaceOnUse">
      <stop offset="0.01" stop-color="#8fcb85"/>
      <stop offset="0.29" stop-color="#89c97f"/>
      <stop offset="0.68" stop-color="#79c36e"/>
      <stop offset="0.84" stop-color="#70bf64"/>
    </linearGradient>
    <linearGradient id="ab9ab4cc-c6f0-4328-94ac-51c2742b06c0" x1="286.56" y1="207.8" x2="461.61" y2="445.22" gradientUnits="userSpaceOnUse">
      <stop offset="0.08" stop-color="#acc6df"/>
      <stop offset="0.76" stop-color="#99c7e2"/>
    </linearGradient>
    <linearGradient id="e455980a-3324-47e0-8654-9c4fba0855fc" x1="229.27" y1="247.18" x2="287.41" y2="205.62" gradientUnits="userSpaceOnUse">
      <stop offset="0" stop-color="#91d5e3" stop-opacity="0.44"/>
      <stop offset="0.17" stop-color="#a4dce8" stop-opacity="0.61"/>
      <stop offset="0.37" stop-color="#b6e3ed" stop-opacity="0.78"/>
      <stop offset="0.55" stop-color="#c4e8f1" stop-opacity="0.9"/>
      <stop offset="0.7" stop-color="#ccebf3" stop-opacity="0.97"/>
      <stop offset="0.81" stop-color="#cfecf4"/>
    </linearGradient>
    <linearGradient id="b7e8e7e8-771e-4de9-b107-2fdb8ef93621" x1="326.94" y1="263" x2="365.65" y2="235.34" xlink:href="#e455980a-3324-47e0-8654-9c4fba0855fc"/>
    <linearGradient id="f338565e-cb68-4722-a071-6e01f3cb04c2" x1="399.04" y1="190.99" x2="470.85" y2="139.67" xlink:href="#e455980a-3324-47e0-8654-9c4fba0855fc"/>
    <linearGradient id="bdfe372b-420e-4b25-95df-e40b36f5f10e" x1="9.58" y1="162.33" x2="110.78" y2="127.33" xlink:href="#e455980a-3324-47e0-8654-9c4fba0855fc"/>
  </defs>
  <g>
    <path class="bcd7f336-f334-4432-903a-e1d049d83229" d="M394.4,501c-3.46.55-6.93,1-10.36,1.43-82.9,10.25-177,10.36-260,.34-18.15-2.2-37.41-5.4-51-17.64-15-13.5-19.62-34.8-23-54.68a1350.89,1350.89,0,0,1-19-243.88C31.45,156,24.93,95.75,41.92,69c15.29-24.09,49.75-33.2,76-35.66,97.39-9.13,194.23-7.19,292.15-2.79,15.35.69,31.49,1.86,44.34,10.3,24.4,16,28,50.22,27.34,79.39-2.29,103.81-3.31,207.42-22.9,309.39-3.91,20.36-9,42.2-24.73,55.75C423.19,494.8,408.87,498.66,394.4,501Z"/>
    <path class="f7920047-007b-4c05-85cc-a496aaab1da3" d="M388.4,495c-3.46.55-6.93,1-10.36,1.43-82.9,10.25-177,10.36-260,.34-18.15-2.2-37.41-5.4-51-17.64-15-13.5-19.62-34.8-23-54.68a1350.89,1350.89,0,0,1-19-243.88C25.45,150,18.93,89.75,35.92,63c15.29-24.09,49.75-33.2,76-35.66,97.39-9.13,194.23-7.19,292.15-2.79,15.35.69,31.49,1.86,44.34,10.3,24.4,16,28,50.22,27.34,79.39-2.29,103.81-3.31,207.42-22.9,309.39-3.91,20.36-9,42.2-24.73,55.75C417.19,488.8,402.87,492.66,388.4,495Z"/>
    <path class="b53ea41b-9797-46eb-8d43-60a4e2808f74" d="M380.77,481.13c-3.26.51-6.52.95-9.75,1.35-78,9.64-167.12,9.74-245.11.31-17.08-2.07-35.19-5.08-48-16.59-14.1-12.7-18.45-32.72-21.64-51.42A1270.93,1270.93,0,0,1,38.43,185.4C38.8,156.64,32.67,100,48.64,74.85,63,52.19,95.44,43.62,120.14,41.3c91.6-8.58,182.68-6.76,274.77-2.63,14.45.65,29.63,1.76,41.71,9.7C459.57,63.43,462.94,95.6,462.34,123c-2.15,97.64-2.52,195.09-20.95,291-3.68,19.15-8.49,39.69-23.26,52.43C407.85,475.34,394.37,479,380.77,481.13Z"/>
    <path class="bee01e2f-7dd2-4226-8ec7-de16b1097aff" d="M378.31,476.68c-3.19.51-6.39.93-9.55,1.32-76.38,9.45-163.92,9.55-240.33.31-16.73-2-34.47-5-47-16.25C67.63,449.62,63.36,430,60.24,411.68A1244.93,1244.93,0,0,1,42.74,187c.36-28.16-5.65-83.64,10-108.3,14.09-22.2,45.84-30.59,70-32.86,89.73-8.41,179-6.62,269.19-2.57,14.14.63,29,1.72,40.86,9.49C455.31,67.48,458.61,99,458,125.88,455.91,221.53,455.76,317,437.7,411c-3.6,18.76-8.32,38.88-22.78,51.36C404.84,471,391.64,474.57,378.31,476.68Z"/>
    <g class="ee252c1c-2f69-4c13-aad3-833f61a01c7f">
      <g class="e893f410-2ae6-4a50-a3fe-5ae78d3233bc">
        <rect class="e392694a-3f5d-48ea-bcb1-4a4569e46e7a" x="-91.71" y="-2.73" width="674.19" height="506.47"/>
        <rect class="f6d502b3-d1d7-4604-82b2-26b1e8156b7b" x="-100.93" y="386.09" width="681.94" height="140.15"/>
        <path class="e77a9397-7001-42da-b744-6ffbe49a639d" d="M552.53,391.07a393.11,393.11,0,0,1-48.66-40c-14.74-14.27-22.14-23.92-34.63-24.14-9.49-.16-16.81,5.13-31.46,15.71-6.55,4.74-11.94,9.55-18,13.93-9.48-8.54-20.56-18.43-32.89-16.06-10.95,2.1-12.7,11.91-28.79,16.88-12.36,3.81-23.33,1.73-28.72.65a66.45,66.45,0,0,1-28.32-13.24l-8,49.26,220.17-1.64q-6.18-.45-11.88-1.15Q527.34,391.45,552.53,391.07Z"/>
        <path class="ffe60284-fb3e-4df3-a16e-a7d4e77ac8f7" d="M538.6,392.8s-1.49-8.41-10.18-3.25c-2.54-3.81-17.19-7.39-25.87.27-3.2-6-20.38-7.12-27.21,3-.79-1.34-3-2.92-5.69-4.25l.15-.23c.7-1.15,2.14-4.07,2-11.83a29.21,29.21,0,0,0-1.16-9c-.43-1.37-1.83-5.82-3.54-5.73-1,.06-1.65,1.59-2.38,3.28a27.58,27.58,0,0,0-1.87,8.63,34.92,34.92,0,0,0,.12,9.54c.2,1.19.45,2.25.7,3.18-4.25-1-8.32-.87-9.68,1.95-10.1-5.34-20.16,0-20.16,0a8.39,8.39,0,0,0-10,.31,15.63,15.63,0,0,0-2.14,1.06c-1.24-1.86-5.39-3.67-10.31-4.13.37-1,1-3.43.95-9.27a35.42,35.42,0,0,0-.6-7.2c-.22-1.09-.94-4.65-1.81-4.57-.51,0-.85,1.26-1.22,2.61a32.73,32.73,0,0,0-1,6.89,43.41,43.41,0,0,0,.07,7.61,33.84,33.84,0,0,0,.61,3.82,24.34,24.34,0,0,0-2.81.22,31.7,31.7,0,0,0,.86-9.13,29.21,29.21,0,0,0-1.16-9c-.43-1.37-1.83-5.82-3.54-5.73-1,.06-1.65,1.59-2.38,3.28a27.58,27.58,0,0,0-1.87,8.63,34.92,34.92,0,0,0,.12,9.54,29.67,29.67,0,0,0,1.15,4.65,16,16,0,0,0-3,2.08c-2.29-4.31-11.69-6.09-19.37-3.09.06-1.1.1-2.39.08-3.93a36.21,36.21,0,0,0-.6-7.2c-.22-1.09-.94-4.64-1.82-4.57-.5.05-.84,1.27-1.22,2.62a32.77,32.77,0,0,0-1,6.88,43.32,43.32,0,0,0,.06,7.61c0,.35.08.67.12,1a15.64,15.64,0,0,0-3.5,3.66,9.3,9.3,0,0,0-2.8-2.6,2.14,2.14,0,0,0,.49-.59c.69-1.16,2.13-4.08,2-11.83a29.54,29.54,0,0,0-1.16-9c-.43-1.36-1.84-5.82-3.54-5.72-1,.05-1.66,1.58-2.38,3.27a27.85,27.85,0,0,0-1.88,8.63,35,35,0,0,0,.13,9.54c.17,1.06.39,2,.61,2.86-5.22-1.92-11.12-2.52-12.82,1-10.1-5.34-20.16,0-20.16,0C318.14,383,312.51,394,312.51,394l107.26-1c-.31.5-.47.82-.47.82Z"/>
        <path class="fe076893-2033-4d94-85e9-fad66e9f4cb1" d="M-93,368.81l8-10.63L32.12,346q5.58,44.63,11.15,89.25l-125,1.8Q-87.35,403-93,368.81Z"/>
        <path class="a814f8e3-c106-47b9-b671-b92a847f11b1" d="M-93,368.81l8-10.63L32.12,346,45,431H27.31q-4.51-27.76-9-55.53L-91,383.1Z"/>
        <g>
          <path class="bd0b686e-ee9c-45d4-9bb2-1c2c0f3fde41" d="M-15.26,408.22l-1.33-19.94,1.88-2.87A288.23,288.23,0,0,0,5.92,405.66L4,408.53Z"/>
          <path class="b44f111e-967f-48ad-a671-9ce91d3e0b71" d="M-14.85,386.92l.39-1.48s10.34-8.17,22.25.58L5.92,405.66Z"/>
          <path class="b48cffd2-0690-433e-bfb0-cb33230e57e1" d="M-13.4,407l-1.45-20.12s10.44-8.15,22.49.61L5.78,407.17Z"/>
          <polygon class="ac2dc99f-49ca-40d4-bf4e-4381190851df" points="4.95 389.5 3.77 398.65 -2.64 398.85 -2.71 389.02 4.95 389.5"/>
          <polygon class="ac2dc99f-49ca-40d4-bf4e-4381190851df" points="3.45 400.3 -2.96 400.16 -3.03 404.89 3.38 404.86 3.45 400.3"/>
        </g>
        <polygon class="bd0b686e-ee9c-45d4-9bb2-1c2c0f3fde41" points="43.39 422.17 -83.48 425.94 -83.43 424.43 -83.43 424.43 -81.28 424.17 43.48 419.49 43.39 422.17"/>
        <polygon class="b48cffd2-0690-433e-bfb0-cb33230e57e1" points="41.25 421.48 -84.48 424.35 -85 421.86 -84.22 421.85 -83.43 421.83 41.38 418.81 41.25 421.48"/>
        <path class="fe076893-2033-4d94-85e9-fad66e9f4cb1" d="M316,368.81l-8-10.63L190.88,346q-8.59,44.77-17.2,89.54l131.06,1.51Q310.37,403,316,368.81Z"/>
        <path class="a814f8e3-c106-47b9-b671-b92a847f11b1" d="M316,368.81l-8-10.63L190.88,346q-6.84,15.29-13.69,30.55l25.34,1.46L313.12,382Z"/>
        <g>
          <path class="bd0b686e-ee9c-45d4-9bb2-1c2c0f3fde41" d="M264,409.1l-1.32-18.16,1.27-4.65a73.36,73.36,0,0,0,20.74,19.78l-3,3.26Z"/>
          <path class="b44f111e-967f-48ad-a671-9ce91d3e0b71" d="M286.52,387.68l-.37-1.49s-10.15-8.39-22.25.1L265.34,406Z"/>
          <path class="b48cffd2-0690-433e-bfb0-cb33230e57e1" d="M284.63,407.76l1.89-20.08s-10.26-8.38-22.5.12l1.43,19.67Z"/>
          <polygon class="ac2dc99f-49ca-40d4-bf4e-4381190851df" points="284.04 390.01 282.37 399.12 275.96 399.13 276.4 389.31 284.04 390.01"/>
          <polygon class="ac2dc99f-49ca-40d4-bf4e-4381190851df" points="266.66 389.83 267.65 399.01 274.05 399.34 274.33 389.52 266.66 389.83"/>
          <polygon class="ac2dc99f-49ca-40d4-bf4e-4381190851df" points="282.36 400.64 275.95 400.65 275.91 405.38 282.33 405.2 282.36 400.64"/>
          <polygon class="ac2dc99f-49ca-40d4-bf4e-4381190851df" points="267.93 400.66 274.34 400.65 274.31 405.38 267.9 405.21 267.93 400.66"/>
        </g>
        <g>
          <path class="bd0b686e-ee9c-45d4-9bb2-1c2c0f3fde41" d="M212.25,409l-1.33-18.16,1.27-4.66A73.32,73.32,0,0,0,232.93,406l-3,3.26Z"/>
          <path class="b44f111e-967f-48ad-a671-9ce91d3e0b71" d="M234.8,387.58l-.36-1.49s-10.16-8.39-22.26.1l1.45,19.67Z"/>
          <path class="b48cffd2-0690-433e-bfb0-cb33230e57e1" d="M232.91,407.67l1.89-20.09s-10.26-8.38-22.5.12l1.44,19.68Z"/>
          <polygon class="ac2dc99f-49ca-40d4-bf4e-4381190851df" points="232.32 389.92 230.66 399.03 224.24 399.04 224.69 389.21 232.32 389.92"/>
          <polygon class="ac2dc99f-49ca-40d4-bf4e-4381190851df" points="214.95 389.73 215.94 398.91 222.34 399.25 222.62 389.42 214.95 389.73"/>
          <polygon class="ac2dc99f-49ca-40d4-bf4e-4381190851df" points="230.65 400.55 224.23 400.55 224.2 405.29 230.61 405.1 230.65 400.55"/>
          <polygon class="ac2dc99f-49ca-40d4-bf4e-4381190851df" points="216.22 400.56 222.63 400.56 222.6 405.29 216.19 405.12 216.22 400.56"/>
        </g>
        <path class="a494a54a-a4fc-4d6e-91b7-20b10b970ae0" d="M342.6,369.78l-.9,6L187.49,369.2l5-8Z"/>
        <path class="bc3f986a-10f1-4036-9cfb-cc6f0fac4080" d="M304.52,325.85q4.13,5.53,8.24,11.09l29.84,32.84-154.45-6.24,5.94-43.29Z"/>
        <path class="a494a54a-a4fc-4d6e-91b7-20b10b970ae0" d="M-116.2,368.22l.9,5.95,154.21-6.53-5-8Z"/>
        <path class="bc3f986a-10f1-4036-9cfb-cc6f0fac4080" d="M-78.12,324.29q-4.11,5.55-8.24,11.09l-29.84,32.84L38.25,362l-5.94-43.29Z"/>
        <polygon class="bd0b686e-ee9c-45d4-9bb2-1c2c0f3fde41" points="179.61 422.36 306.49 425.76 306.44 424.24 306.44 424.24 304.28 423.99 179.51 419.68 179.61 422.36"/>
        <polygon class="b48cffd2-0690-433e-bfb0-cb33230e57e1" points="181.75 421.65 307.51 424.18 308.01 421.69 307.23 421.68 306.45 421.66 181.6 418.98 181.75 421.65"/>
        <polygon class="bff0b3f1-bddd-4472-8364-7472dee2779a" points="43.34 435.57 16.08 298.77 113.91 218.58 213.34 294.06 181.26 435.57 43.34 435.57"/>
        <path class="e10499a6-8811-40f3-9492-0d836ac69efe" d="M20.69,321q-22.83.25-46.49,1-27,.86-53,2.29.51-3.39,1-6.8l97.08-3Z"/>
        <path class="e10499a6-8811-40f3-9492-0d836ac69efe" d="M206.92,323.05q23,.26,46.81,1,27.24.87,53.36,2.3c-.33-2.26-.67-4.53-1-6.8l-97.76-3.05Z"/>
        <path class="a814f8e3-c106-47b9-b671-b92a847f11b1" d="M19.42,312.48s-4.29-20-5.37-23.51L114,207.07s82,60.76,101.54,77.08l-5.77,26.75-97.41-72.83Z"/>
        <g>
          <ellipse class="fe076893-2033-4d94-85e9-fad66e9f4cb1" cx="109.88" cy="274.36" rx="20.2" ry="19.11"/>
          <ellipse class="b8232f63-d6e6-4c6d-89a6-0a395cc6ccb7" cx="112.33" cy="270.88" rx="20.2" ry="19.11"/>
          <ellipse class="ba9c493e-5a68-4ea8-b65f-2fd1df857e24" cx="112.33" cy="270.88" rx="16.53" ry="15.64"/>
          <ellipse class="fa92bfb2-db00-436f-b98f-bf646c7d00c6" cx="112.33" cy="270.3" rx="16.53" ry="15.06"/>
          <polygon class="bc3f986a-10f1-4036-9cfb-cc6f0fac4080" points="112.11 272.47 108.64 272.51 102.91 267.16 110.56 269.53 112.11 272.47"/>
          <polygon class="bc3f986a-10f1-4036-9cfb-cc6f0fac4080" points="112.94 272.8 114.17 269.01 112.94 258.9 111.72 269.01 112.94 272.8"/>
        </g>
        <g>
          <path class="fe076893-2033-4d94-85e9-fad66e9f4cb1" d="M83.44,435.58,73.82,359.7a56.32,56.32,0,0,1,17.64-15.17c6.41-9.11,16.05-12.3,22.45-7.59L89.85,435.58Z"/>
          <path class="b44f111e-967f-48ad-a671-9ce91d3e0b71" d="M78.63,362.74,77.72,355s30.8-36.38,68.25-1.4v4.55Z"/>
          <path class="b48cffd2-0690-433e-bfb0-cb33230e57e1" d="M86.64,435.58l-8.41-76.47s30.87-35.83,67.75-.93l-6.41,77.4Z"/>
          <polygon class="b2c3032e-1e47-48aa-9100-b15d5b584b51" points="83.44 361.22 109.1 357.65 109.1 402.72 88.25 402.72 83.44 361.22"/>
          <polygon class="b2c3032e-1e47-48aa-9100-b15d5b584b51" points="89.17 407.32 108.65 407.75 108.29 431.02 91.13 430.86 89.17 407.32"/>
          <polygon class="b2c3032e-1e47-48aa-9100-b15d5b584b51" points="141.17 361.22 115.51 357.65 115.51 402.72 136.36 402.72 141.17 361.22"/>
          <polygon class="b2c3032e-1e47-48aa-9100-b15d5b584b51" points="135.43 407.32 115.96 407.75 116.31 431.02 133.48 430.86 135.43 407.32"/>
          <ellipse class="b44f111e-967f-48ad-a671-9ce91d3e0b71" cx="113.11" cy="339.22" rx="8.82" ry="8.35"/>
          <ellipse class="b48cffd2-0690-433e-bfb0-cb33230e57e1" cx="113.11" cy="343.77" rx="8.82" ry="8.35"/>
        </g>
        <g>
          <g>
            <polygon class="fe076893-2033-4d94-85e9-fad66e9f4cb1" points="36.93 367.29 46.55 412.81 65.8 411.3 65.8 408.26 40.14 364.25 36.93 367.29"/>
            <polygon class="b44f111e-967f-48ad-a671-9ce91d3e0b71" points="39.4 364.32 39.83 367.18 67.4 406.74 65.8 362.74 39.4 364.32"/>
            <polygon class="b48cffd2-0690-433e-bfb0-cb33230e57e1" points="39.7 365.95 48.16 409.78 67.4 408.26 65.8 364.25 39.7 365.95"/>
            <polygon class="ac2dc99f-49ca-40d4-bf4e-4381190851df" points="43.39 370.78 46.74 388.49 54.41 387.78 52.98 369.97 43.39 370.78"/>
            <polygon class="ac2dc99f-49ca-40d4-bf4e-4381190851df" points="47.18 390.93 50.22 407.15 56.07 406.62 54.52 389.96 47.18 390.93"/>
            <polygon class="ac2dc99f-49ca-40d4-bf4e-4381190851df" points="63.25 368.4 63.99 386.36 56.84 387.13 54.31 369.44 63.25 368.4"/>
            <polygon class="ac2dc99f-49ca-40d4-bf4e-4381190851df" points="63.67 388.73 64.19 405.2 58.36 405.89 56.28 389.29 63.67 388.73"/>
          </g>
          <g>
            <path class="fe076893-2033-4d94-85e9-fad66e9f4cb1" d="M36.67,350.3l-4.46-28.95,3.12-2.62s16.3,16.66,28.86,25.8l-1.6,3Z"/>
            <path class="b44f111e-967f-48ad-a671-9ce91d3e0b71" d="M34.58,320.84l.34-2s12.88-12.32,30-2.06v26.68Z"/>
            <path class="b48cffd2-0690-433e-bfb0-cb33230e57e1" d="M39.1,347.75l-4.52-26.91s13-12.31,30.36-2v26.68Z"/>
            <polygon class="ac2dc99f-49ca-40d4-bf4e-4381190851df" points="38.15 323.75 41.3 335.87 49.95 335.25 48.38 322.05 38.15 323.75"/>
            <polygon class="ac2dc99f-49ca-40d4-bf4e-4381190851df" points="61.57 321.79 61.14 334.26 52.54 335.35 51.19 322.12 61.57 321.79"/>
            <polygon class="ac2dc99f-49ca-40d4-bf4e-4381190851df" points="41.46 337.92 50.11 337.3 50.63 343.68 41.95 344.06 41.46 337.92"/>
            <polygon class="ac2dc99f-49ca-40d4-bf4e-4381190851df" points="60.93 336.52 52.28 337.14 52.79 343.52 61.42 342.66 60.93 336.52"/>
          </g>
        </g>
        <g>
          <g>
            <polygon class="fe076893-2033-4d94-85e9-fad66e9f4cb1" points="154.9 364.25 153.26 410.75 174.56 412.3 176.19 406.1 158.18 361.15 154.9 364.25"/>
            <polygon class="b44f111e-967f-48ad-a671-9ce91d3e0b71" points="185.23 362.77 184.78 365.69 156.63 406.1 158.27 361.15 185.23 362.77"/>
            <polygon class="b48cffd2-0690-433e-bfb0-cb33230e57e1" points="184.92 364.44 176.28 409.2 156.63 407.65 158.27 362.7 184.92 364.44"/>
            <polygon class="ac2dc99f-49ca-40d4-bf4e-4381190851df" points="181.16 369.37 177.73 387.45 169.9 386.73 171.35 368.54 181.16 369.37"/>
            <polygon class="ac2dc99f-49ca-40d4-bf4e-4381190851df" points="177.28 389.94 174.18 406.51 168.21 405.98 169.78 388.96 177.28 389.94"/>
            <polygon class="ac2dc99f-49ca-40d4-bf4e-4381190851df" points="160.87 366.94 160.12 385.27 167.42 386.06 170 368 160.87 366.94"/>
            <polygon class="ac2dc99f-49ca-40d4-bf4e-4381190851df" points="160.44 387.7 159.91 404.53 165.87 405.22 167.99 388.27 160.44 387.7"/>
          </g>
          <g>
            <path class="fe076893-2033-4d94-85e9-fad66e9f4cb1" d="M156.54,345.66V316.21l2.47-2.06s12.54,20.62,25.37,30l-1.63,3.1Z"/>
            <path class="b44f111e-967f-48ad-a671-9ce91d3e0b71" d="M190.15,318.37l-.35-2.09s-13.15-12.57-30.67-2.1v27.25Z"/>
            <path class="b48cffd2-0690-433e-bfb0-cb33230e57e1" d="M185.53,345.85l4.62-27.48s-13.29-12.58-31-2.1v27.25Z"/>
            <polygon class="ac2dc99f-49ca-40d4-bf4e-4381190851df" points="186.5 321.34 183.29 333.72 174.45 333.09 176.06 319.6 186.5 321.34"/>
            <polygon class="ac2dc99f-49ca-40d4-bf4e-4381190851df" points="162.58 319.33 163.02 332.08 171.81 333.19 173.18 319.68 162.58 319.33"/>
            <polygon class="ac2dc99f-49ca-40d4-bf4e-4381190851df" points="183.12 335.81 174.29 335.18 173.76 341.69 182.62 342.08 183.12 335.81"/>
            <polygon class="ac2dc99f-49ca-40d4-bf4e-4381190851df" points="163.24 334.38 172.08 335.02 171.56 341.53 162.74 340.65 163.24 334.38"/>
          </g>
        </g>
        <path class="b0461c1e-be59-4c46-a63d-b33368bc244e" d="M364.43,459.29s-37.86,11-25.24,14.27,211.28-4.92,211.28-4.92L550,443.26Z"/>
        <path class="e02b65a2-b5ac-463d-be48-aabcf7c1e50a" d="M-10.38,478.15s-46.36,1.81-55.28-9A5.39,5.39,0,0,1-67,465.94c-.26-6.84,15.82-11.32,15-13.67-.41-1.2-4.79-.64-10.48-.6-3.93,0-26,.46-28.5-6.54-.47-1.32-.59-3.79,3-8.24l106.1-2.06,10,1.64c-1.91,1.66-3.83,3.37-5.73,5.12A255.88,255.88,0,0,0-10.38,478.15Z"/>
        <path class="b0461c1e-be59-4c46-a63d-b33368bc244e" d="M238.83,478.16s95.09,1.77,113.38-8.89c16.55-9.64-47.55-16-21.95-17.76s80.46-5.32,40.23-10.65l-190.17-5.33-3.66,1.78s0,5.32,3.66,5.32S238.83,478.16,238.83,478.16Z"/>
        <path class="af1934c9-774a-48e3-81f8-644dee244d93" d="M330.54,441.93h-429a.8.8,0,0,1-.3-1.54L-82.64,434a.8.8,0,0,1,.3-.06h387l.2,0,25.85,6.42A.8.8,0,0,1,330.54,441.93Z"/>
        <path class="e14c90dc-a57d-4193-876c-27a4ab6d9cee" d="M154.27,428.43s-3.55-2.82-3.55-5.33c0-1.78,1.78-3.56,3.55-1.78,0,0,1.78-8.88,5.33-3.55,0,0,0-5.33,3.55,1.77,0,0,7.39-9.92,5.33,1.78,0,0,7.67-8.77,7.11,3.55,0,0,14.2-12.12,10.65,5.33,0,0,16-3.55,10.66,8.88,0,0,19.54,0,16,8.88,0,0,7.2-4.11,8.88-3.55,5.33,1.78-1.77,7.1-1.77,7.1s7.75.19,8.88,3.56c1.77,5.32-5.33,7.1-5.33,7.1s86.17,4.9,101.24,12.43C349.64,487,291,503,291,503c-22.63-2-39.61-4.39-51.2-6.22-6.48-1-19.27-3.14-38.19-5.8-8.8-1.23-8.19-1.08-13.33-1.83-38.66-5.71-42.54-10-43.83-13.25-.79-2-.41-5.34.91-12,1.25-6.23,5.28-19.54,5.28-19.54s-3.5-3.55-3.5-5.33,3.55-3.55,3.55-3.55-5.38-1.78-5.38-3.55,5.38,0,5.38,0-5.43-1.35-5.66-4a1.87,1.87,0,0,1,.28-1.29C146.82,424.78,153.65,428.12,154.27,428.43Z"/>
        <path class="b0461c1e-be59-4c46-a63d-b33368bc244e" d="M156.05,435.53s-3.55-2.82-3.55-5.33c0-1.77,1.77-3.55,3.55-1.77,0,0,1.78-8.89,5.33-3.56,0,0,0-5.33,3.55,1.78,0,0,7.39-9.93,5.33,1.78,0,0,7.67-8.78,7.1,3.55,0,0,10.66-10.35,7.11,7.1,0,0,12.43-1.77,7.1,7.11,0,0,12.43-3.56,10.66,5.32,0,0,7.19-.56,8.88,0,5.33,1.78,3.55,10.66,3.55,10.66s0,3.55-5.33,5.33c-.12,0-.17.08-.17.12,0,1.81,112.5.21,113.84,12.31.52,4.68-14.47,10.64-25,13-13.56,3-21.65.52-38.95-1.82-20.16-2.72-71-7.67-81.66-8.71-4.72-.46-12-1.14-17.06-6.53-7.55-8.06-7.91-24.34-7.91-24.35h0S149,448,149,446.19s3.55-3.56,3.55-3.56-5.38-1.77-5.38-3.55,5.38,0,5.38,0-7.16-1.77-5.38-5.33S156.05,435.53,156.05,435.53Z"/>
        <path class="e14c90dc-a57d-4193-876c-27a4ab6d9cee" d="M69,428.43l1.78-3.56s3.55-7.1-3.55-5.33c0,0-3.56-7.1-7.11-1.77,0,0-1.77-7.11-5.33,0,0,0-11.23-9.19-9.16,2.51,0,0-9.72-7.63-9.16,4.7,0,0-13.65-8.36-10.09,9.09,0,0-10.66-12.75-16.41,6.79,0,0-22.67-16-20.89,7.1,0,0-20.48-11.46-12,4,0,0-12.85-4-9.29,4.84,0,0-5.33,1.78-5.33,3.55,0,7.54,8.88,3.56,8.88,3.56s-7.11,7.1,1.77,3.55c-7.1,10.66,7.11,8.88,7.11,8.88s-24.87,1.78-40.85,7.1-10.66,14.21-3.55,12.44c0,0-49.6,3.34-51.51,32-1.78,26.65,40.85,41.19,142.09,41.9,104.78.73,124.32-4.6,138.53-11.7l71-30.2c-21.31,3.56-152.79-4.68-172.28-28.41-14.43-17.58,8-34.17,8.88-39.08C73.67,454.14,69,448,69,448s3.55-7.1,3.55-8.88S69,435.53,69,435.53s5.33,1.78,5.33,0S69,433.75,69,433.75s7.11,0,5.33-3.55S69,428.43,69,428.43Z"/>
        <path class="ee20548c-c2ce-4486-bba3-7a94500eac14" d="M64.79,431.3,66,428.78s2.33-5-2.34-3.77c0,0-2.34-5-4.68-1.26,0,0-1.16-5-3.5,0,0,0-7.39-6.51-6,1.78,0,0-6.4-5.4-6,3.33,0,0-9-5.92-6.64,6.43,0,0-7-9-10.79,4.81,0,0-14.91-11.32-13.74,5,0,0-13.48-8.12-7.91,2.86,0,0-8.45-2.86-6.12,3.43,0,0-3.5,1.25-3.5,2.51,0,5.34,5.84,2.52,5.84,2.52s-4.67,5,1.17,2.51c-4.67,7.55,60.73-5.43,59.59-3.77s3.51-10.06,3.51-10.06,2.33-5,2.33-6.29-2.33-2.51-2.33-2.51,3.5,1.25,3.5,0-3.5-1.26-3.5-1.26,4.67,0,3.5-2.52A2.46,2.46,0,0,0,64.79,431.3Z"/>
        <path class="a63436cd-d428-4931-b8af-1f5a78483149" d="M152.89,442l-1.17-2.51s-2.34-5,2.34-3.77c0,0,2.33-5,4.67-1.26,0,0,1.17-5,3.51,0,0,0,7.39-6.51,6,1.77,0,0,6.39-5.4,6,3.33,0,0,9-5.92,6.64,6.44,0,0,3.31-8.27,7.09,5.56,0,0,14.21-1.77,12.43,7.11,0,0,14.21,0,7.11,5.33,0,0,1.77,3.55-1.78,3.55,0,0-49.09-8.76-47.95-7.11s-4.94-4.6-4.94-4.6-2.34-5-2.34-6.29,2.34-2.52,2.34-2.52-3.51,1.26-3.51,0,3.51-1.25,3.51-1.25-4.67,0-3.51-2.52A2.47,2.47,0,0,1,152.89,442Z"/>
        <path class="b0461c1e-be59-4c46-a63d-b33368bc244e" d="M61.88,442.27l1.41-3s2.83-6.09-2.83-4.57c0,0-2.82-6.08-5.65-1.52,0,0-1.42-6.08-4.24,0,0,0-8.94-7.87-7.3,2.15,0,0-7.74-6.53-7.29,4,0,0-10.86-7.16-8,7.78,0,0-8.48-10.92-13.06,5.82,0,0-18-13.69-16.63,6.08,0,0-16.3-9.81-9.56,3.46,0,0-10.23-3.46-7.4,4.15,0,0-5.76,3-4.24,3,33.35,1.4-5.66,15.22-18.38,19.78s-8.48,12.17-2.83,10.65c0,0-39.48,2.86-41,27.38C-86.56,550.28-52.63,562.74,28,563.35c83.4.63,123.89-2.74,135.2-8.82l65.72-24.87c-37.94-1.22-65-1.4-83.71-1.3a200.6,200.6,0,0,1-29.27-1.87c-14.63-2-30.86-4.42-47-15-8.3-5.45-18.58-12.21-20-23.1-1-7.63,2.39-16.74,3.46-19.63a56.78,56.78,0,0,1,5.1-10.33c5-1.17,7.72-4.58,7.24-7-.34-1.76-2.28-2.77-2.82-3,0,0,4.24,1.52,4.24,0s-4.24-1.53-4.24-1.53,3.84,0,4.4-1.7a1.86,1.86,0,0,0-.16-1.34C65.54,442.61,63.85,442,61.88,442.27Z"/>
        <path class="a3883fc9-d799-46e5-bcce-976bacbccd1b" d="M54.17,450.44l1.33-2s2.65-3.93-2.65-3c0,0-2.66-3.94-5.31-1,0,0-1.33-3.94-4,0,0,0-8.39-5.1-6.85,1.39,0,0-7.26-4.23-6.84,2.6,0,0-10.19-4.63-7.54,5,0,0-29.79,2.85-31.45,8.6l67.49-1.78s-1.54-3.06-1.54-4-2.66-2-2.66-2,4,1,4,0-4-1-4-1,5.31,0,4-2S54.17,450.44,54.17,450.44Z"/>
        <path class="a3883fc9-d799-46e5-bcce-976bacbccd1b" d="M161.46,451l-.58-2.3s-1.14-4.61,3.51-1.87c0,0,3.84-2.79,5.32.89,0,0,2.59-3.25,3.74,1.36,0,0,9.62-1.92,6,3.65,0,0,8.27-1.49,5.53,4.79,0,0,11.17-.87,5.37,7.31L154.11,459s2.5-2.35,2.83-3.27,3.17-.95,3.17-.95-4.08-.43-3.74-1.36,4.08.44,4.08.44-5-1.82-3.07-3.21S161.46,451,161.46,451Z"/>
        <g>
          <polygon class="b97d3742-7eee-48d4-baeb-f2070df66396" points="65.82 441.19 62.11 446.75 160.39 446.75 156.68 441.19 65.82 441.19"/>
          <rect class="ee35bd9a-83df-4f67-96ec-8c035b2252fc" x="62.11" y="446.75" width="98.28" height="5.56"/>
          <polygon class="b97d3742-7eee-48d4-baeb-f2070df66396" points="71.77 433.86 68.55 438.69 153.94 438.69 150.72 433.86 71.77 433.86"/>
          <rect class="ee35bd9a-83df-4f67-96ec-8c035b2252fc" x="68.55" y="438.69" width="85.39" height="4.83"/>
        </g>
        <g>
          <g>
            <rect class="be2216df-c481-41f0-a23d-c7780a8568af" x="421.79" y="449.59" width="6.35" height="34.19"/>
            <path class="a8dc285e-8b09-48fa-80fd-39a0a0b4a96e" d="M450.79,391.31c4.55,45.05,13.68,80.21-25.18,73-41.52,3.23-32.44-25.36-27.18-74.65,4.57-42.83,16.82-97.2,28.72-92C438.15,302.52,446.46,348.45,450.79,391.31Z"/>
            <path class="b482a068-73b4-40dc-b9b5-3ad171b05032" d="M425.61,464.35c-41.52,3.23-32.44-25.36-27.18-74.65,4.57-42.83,16.82-97.2,28.72-92C408.26,330.53,393.48,474.23,425.61,464.35Z"/>
            <path class="ee20548c-c2ce-4486-bba3-7a94500eac14" d="M450.87,390.11c2.15,20.81,6.41,51,1.75,63.92-1-21.74-13.47-132-25.71-157.09C438.07,301.74,446.49,347.45,450.87,390.11Z"/>
          </g>
          <g>
            <rect class="be2216df-c481-41f0-a23d-c7780a8568af" x="497.23" y="439.1" width="6.35" height="34.19"/>
            <path class="a8dc285e-8b09-48fa-80fd-39a0a0b4a96e" d="M526.23,380.82c4.55,45.05,13.67,80.21-25.18,73-41.52,3.23-32.45-25.36-27.19-74.65,4.58-42.83,16.83-97.2,28.72-92C513.59,292,521.9,338,526.23,380.82Z"/>
            <path class="b482a068-73b4-40dc-b9b5-3ad171b05032" d="M501.05,453.86c-41.52,3.23-32.45-25.36-27.19-74.65,4.58-42.83,16.83-97.2,28.72-92C483.7,320,468.92,463.74,501.05,453.86Z"/>
          </g>
          <g>
            <rect class="be2216df-c481-41f0-a23d-c7780a8568af" x="370.06" y="455.08" width="5.02" height="26.52"/>
            <path class="a8dc285e-8b09-48fa-80fd-39a0a0b4a96e" d="M392.17,413.1c3.6,34.94,10.81,62.21-19.89,56.65-32.79,2.5-25.62-19.67-21.47-57.89,3.62-33.22,13.3-75.39,22.69-71.35C382.19,344.25,388.76,379.86,392.17,413.1Z"/>
            <path class="ee20548c-c2ce-4486-bba3-7a94500eac14" d="M392.17,413.1c1.67,16.22,5,39.72,1.36,49.81-.81-17-10.49-102.87-20-122.4C382.19,344.25,388.76,379.86,392.17,413.1Z"/>
            <path class="b482a068-73b4-40dc-b9b5-3ad171b05032" d="M372.28,469.75c-32.79,2.5-25.62-19.67-21.47-57.89,3.62-33.22,13.3-75.39,22.69-71.35C358.58,366,346.91,477.41,372.28,469.75Z"/>
          </g>
        </g>
        <path class="b3bbfe35-9c42-4ace-b4f9-9122ba26587c" d="M236.8,227.78c.45-1.4,11.35-7.54,22.42-5.18,11.49,3.58,16.26,10.65,5.19,11.46a103,103,0,0,1-22.84-1C238.91,232.64,235.4,232.2,236.8,227.78Z"/>
        <path class="b9bd9623-0132-4db0-bffb-eceb447916e3" d="M332,250.09c.29-.93,7.55-5,14.92-3.45,7.65,2.38,10.82,7.09,3.45,7.63a67.83,67.83,0,0,1-15.2-.67C333.36,253.33,331,253,332,250.09Z"/>
        <path class="ab4a98af-4fba-4434-bde4-e0e14efe35f0" d="M408.34,167c.54-1.72,14-9.31,27.69-6.39,14.19,4.42,20.07,13.15,6.4,14.15a126,126,0,0,1-28.21-1.25C410.93,173,406.61,172.5,408.34,167Z"/>
        <path class="b10139df-6d5c-4dc9-a794-349d72696ca1" d="M10.33,151.65s20-12,41.64-6.73c22.09,5.32,8.41,15.49-12,14.6-21.62-.89-29.63-1.39-29.63-1.39S-3.5,156.4,10.33,151.65Z"/>
        <g>
          <path class="b99a90f9-234e-4310-a52d-b3a9eb235cca" d="M114.24,208.41-.14,298.18l4.68,7.38,109.83-81.07c36.4,27.06,73,53.89,109.42,80.95l4.68-7.38Z"/>
          <polygon class="f3d73cdf-7b1c-469a-af20-70ca82f715d9" points="231.1 294.03 114.37 202.3 -2.63 293.98 0 298.01 114.37 208.76 228.47 298.06 231.1 294.03"/>
        </g>
        <ellipse class="e6e4c560-0196-4379-8f33-212f95cff4aa" cx="-5.19" cy="519.35" rx="47.29" ry="18.91"/>
        <path class="a3883fc9-d799-46e5-bcce-976bacbccd1b" d="M489.67,471.53l-.62-1.54s-1.23-3.08,2.25-1.63c0,0,2.39-2.29,3.77.11,0,0,1.48-2.49,2.71.59,0,0,6.48-2.24,4.47,1.95,0,0,5.58-1.81,4.29,2.79,0,0,7.64-1.66,4.4,4.55l-25.6-.65a12.38,12.38,0,0,0,1.65-2.53c.14-.67,2.1-1,2.1-1s-2.86.09-2.72-.58,2.87-.09,2.87-.09-3.63-.78-2.43-1.93S489.67,471.53,489.67,471.53Z"/>
        <path class="a3883fc9-d799-46e5-bcce-976bacbccd1b" d="M498.54,480.15a2.43,2.43,0,0,0-3,0l-.92-1.09a1.78,1.78,0,0,0-2.19-.05c.08-.11.13-.48-.74-1.71a1.57,1.57,0,0,0-2.62,0v1s-.89-8-2.23-6.66c-2.82-.58-2.93.44-4,6.52,0-.7-2.94-5.34-5.15-1.26-.45-1.51-4.43-2.91-6.34-.53-.59-1.16-4.72-3-5.46-.49-1-1.06-4.12-1-5,2.28.15-.84-2.65-3.28-4.86-1.14,0-1.1-3.39-1.4-4.43.14,0-1.27-4-2-5.6-.26-2.8-2.25-4.14,1.26-4.14,1.26h0c-1.47-.95-4.34-.33-4.34-.33,1.3-4.6-4.28-2.78-4.28-2.78,2-4.2-4.47-2-4.47-2-1.23-3.08-2.72-.59-2.72-.59-1.38-2.4-3.77-.11-3.77-.11C418.8,470.92,420,474,420,474l.61,1.54s-1.66-1.06-2.86.08,2.43,1.93,2.43,1.93-2.72-.58-2.86.09,2.71.59,2.71.59-1.95.28-2.1.95a12,12,0,0,1-1.64,2.53l25.6.65L489,481.19l12.93-.46A28.06,28.06,0,0,1,498.54,480.15Z"/>
        <path class="a3883fc9-d799-46e5-bcce-976bacbccd1b" d="M410.54,484.52a26.34,26.34,0,0,0-6-.48c-.32-.78-1.5-.78-3.07,0-.47-1.26-2.52-1-2.52-1a2.47,2.47,0,0,0-3-.69c.42-.9-1.61-1.78-3.1-1.52a1.61,1.61,0,0,0-2.75,0c-1.51-.84-4.23-.25-4.23-.25,1.29-4.6-4.28-2.79-4.28-2.79,2-4.2-4.47-1.95-4.47-1.95-1.23-3.08-2.72-.59-2.72-.59-1.38-2.41-3.77-.11-3.77-.11-3.47-1.45-2.24,1.63-2.24,1.63l.61,1.53s-1.66-1.06-2.86.09,2.43,1.93,2.43,1.93-2.72-.59-2.86.09,2.71.58,2.71.58a5.57,5.57,0,0,0-1.8.58s-3.05-.06-2.9,1.52c-1.49-1-2.44.94-2.44.94-.94-.86-2.75,0-2.75,0l-3.47.4,10.71.08h0l24.51.62Z"/>
        <polygon class="e14c90dc-a57d-4193-876c-27a4ab6d9cee" points="317.57 493.3 556.13 490.71 556.13 496.38 306.35 498.03 317.57 493.3"/>
        <path class="bbebedd2-c7da-4baf-ab53-1f9f32b26178" d="M288.47,499.22l-.26.15c-176.68-7.26-137.86-46.68-137.86-46.68l-82.5-.38c-68.82,64.88,92.27,76.76,92.27,76.76l394.53-1.38h8.4l.1-33.69Z"/>
        <g>
          <g>
            <rect class="bd54d423-97be-4d9d-bd93-42b25f5c4602" x="76.49" y="299.52" width="72.06" height="25.31"/>
            <rect class="f02b08aa-eb91-43a7-9aab-8e54fb61e13b" x="79.59" y="301.67" width="66.34" height="21.28"/>
          </g>
          <text class="edbc0bd5-495a-4773-92f4-9f9a0e373847" transform="translate(82.04 318.56) scale(0.96 1)">SCHOOL</text>
          <text class="e3e45dea-99e5-4c21-a3c1-a4a9550234a0" transform="translate(80.83 318.16) scale(0.96 1)">SCHOOL</text>
        </g>
        <g>
          <ellipse class="afa1137a-bd62-41eb-ae76-b1b7cb14d3b3" cx="323.91" cy="325.6" rx="21.77" ry="24.08"/>
          <g>
            <path class="a297c59a-9182-4212-afc1-cbbe012cb117" d="M260.62,504.5s-3.65,4.61-8.6,10.77c-9.78,12.16-24.62,30.35-26.35,30.89-12,3.76-18-9-18-9s15.1-24.72,24.23-39.16c3.37-5.33,5.93-9.25,6.62-10Z"/>
            <path class="a297c59a-9182-4212-afc1-cbbe012cb117" d="M355.21,556.77s-5.46,15.22-19.13,7c-8-4.8-16.68-24.29-22.47-39.64-4.14-10.87-6.83-19.65-6.83-19.65l29.3-3.55c1,.61,1,8.9,2.7,16.91.9,4.24,2.29,8.38,4.55,11.29C349.88,537.56,355.21,556.77,355.21,556.77Z"/>
            <path class="bcbe894c-0e9a-49be-8235-7c8f9aeb8b92" d="M261,504.5s-4.22,4.4-9.17,10.55A36.14,36.14,0,0,1,232.27,498c3.37-5.33,5.93-9.25,6.62-10Z"/>
            <path class="bcbe894c-0e9a-49be-8235-7c8f9aeb8b92" d="M338.43,518c-7,4.94-17.05,5.94-24.54,6.12-4.14-10.87-6.83-19.65-6.83-19.65L336.37,501C337.35,501.56,336.72,510,338.43,518Z"/>
          </g>
          <path class="a8f3be6f-e563-48a1-9abc-2bad7988444d" d="M262.4,431.65,231.79,488.5a53.07,53.07,0,0,0,34.57,28.69l23.09-31.43,25.17-39.9S287.81,407.6,262.4,431.65Z"/>
          <path class="a8f3be6f-e563-48a1-9abc-2bad7988444d" d="M266.36,472.92S269.23,484.4,284,487.4l17.22,33.07s29.24,7.38,47.82-15.85l-17.51-49.94a54.1,54.1,0,0,0-5.9-11.84c-2.14-3.22-4.58-8-4.74-13.38l-34.21,7.93"/>
          <path class="bd5fa9e9-8f79-411b-812a-934bd5648351" d="M326.62,437.11a37.28,37.28,0,0,1,.55,9.43s-40.53,8.7-66.73-11.25c0,0-.23-10.75,3.05-13.48C263.49,421.81,313,441.21,326.62,437.11Z"/>
          <g>
            <path class="ae803e3a-1609-42ff-b003-9eb722077b3b" d="M342.2,429.46s-7.38-10.93-8.47-24.32-1.46-60.95,28-80.08c0,0,12.79-8.93,20.45-2.55s4.67,43.38,4.67,43.38l-37.51,65.76Z"/>
            <g>
              <path class="a86ea7c0-e7c2-4631-8c93-2e353bbd14c0" d="M404.69,377.13c-.29-.84,8.23,1.36,1.64,18.58-6.92,18.08-9,17.32-9,17.32L396,409.44S406.74,383.15,404.69,377.13Z"/>
              <path class="a86ea7c0-e7c2-4631-8c93-2e353bbd14c0" d="M401.23,350.75s10,7.15,9,12.68-17.72,0-17.72,0l-4.14-8.85,13.85-4.9"/>
              <path class="a86ea7c0-e7c2-4631-8c93-2e353bbd14c0" d="M393.59,358s13.45-1.64,16.62,5.48c0,0-5.26,37.75-26,65.27,0,0-12.61,3.58-17.75-5.72C366.49,423,380.15,392.31,393.59,358Z"/>
              <path class="a86ea7c0-e7c2-4631-8c93-2e353bbd14c0" d="M370.92,326.48s9.41,8.42,8.79,15.66l22.89,5.06s3.14-6.63-22.27-26.1Z"/>
              <path class="a86ea7c0-e7c2-4631-8c93-2e353bbd14c0" d="M379.64,339.62s18.59-2.26,23,7.58c0,0-7.26,52.15-35.88,90.16,0,0-17.41,4.95-24.52-7.9C342.2,429.46,361.07,387.1,379.64,339.62Z"/>
            </g>
            <g>
              <path class="a4110417-200a-473d-94d7-d6d05c0b84e3" d="M355.25,409.46c1.13-.35,17.8,4,21.64,6.58,0,0-6.56,19.47-10.17,21.32-3,1.52-10.43,2.54-17.13-.57a5.29,5.29,0,0,1-2.69-6.8Z"/>
              <path class="a86ea7c0-e7c2-4631-8c93-2e353bbd14c0" d="M360.24,413a33.45,33.45,0,0,1,12.8,3.12s-2.36,9.41-7.68,10.12S359.42,415,360.24,413Z"/>
            </g>
          </g>
          <path class="eb22b0b2-17a8-47d7-a589-ab2ff9003418" d="M370.9,353.42c1,.73-27.88,58.89-32.39,69.55s-7,16.19-15.17,16.4-49.81,2.25-63.54-14.76c0,0-4.3-6.15,1.74-17.42S291,340.77,291,340.77s4.1-8.66,27.26-7.92l26.65-14.42s9.78-8.46,14.34-5.12C359.21,313.31,352.45,340,370.9,353.42Z"/>
          <path class="eb22b0b2-17a8-47d7-a589-ab2ff9003418" d="M337,330.53l30.51-27.06,9.37,49.87s-19.53,13.49-26.49,22.43"/>
          <path class="e1de5fcf-ebe9-4363-805e-0e257ea9c2b1" d="M311.18,342.14s-1.27,5.11-2.75,14.38c-.24,1.49-.49,3.09-.72,4.8-.47,3.19-.93,6.76-1.37,10.66-.2,1.71-.39,3.47-.57,5.3-.39,3.92-.73,8.13-1,12.6-.11,1.7-.22,3.43-.31,5.19l0,.09c.17.83.66,7.36-18.41,24,0,0-5.15,2.12-9.77-18.58-.25-1.14-.5-2.36-.75-3.65,0,0,.16-.54.51-1.54.73-2.16,2.29-6.45,4.74-11.93.89-2,1.9-4.2,3-6.48,1.65-3.3,3.54-6.86,5.72-10.5,1.34-2.29,2.8-4.61,4.36-6.95a122.91,122.91,0,0,1,13.06-16.45Z"/>
          <path class="e1de5fcf-ebe9-4363-805e-0e257ea9c2b1" d="M301.92,336.54l2.84,8.2s3.14-2.19,4.92,1.09c0,0,6.28-4.92,7-7s-6.15-11.06-11.89-6C304.76,332.85,301.4,335,301.92,336.54Z"/>
          <path class="eb22b0b2-17a8-47d7-a589-ab2ff9003418" d="M308,331.48c.68.28,12,14.35,12,14.35l27.47-28.15s-4.24-7.65-4.65-7.79S308,331.48,308,331.48Z"/>
          <path class="a86ea7c0-e7c2-4631-8c93-2e353bbd14c0" d="M356.14,312.08s-9.57,5.33-13,19.68-8,54.13,5.49,83l-5-2.89s-15.71-11-18.45-44.9c-3.09-38.18,20.42-53.21,25.88-54.85Z"/>
          <path class="a86ea7c0-e7c2-4631-8c93-2e353bbd14c0" d="M258.25,356.47s40.5-25.94,40.8-25.94,4.17,2.32,4.17,2.32L268.41,370.6s-12.91,8.29-9.22,17.42,5.53,11.28,5.53,11.28L259.29,411s-15.38-15.78-15.68-27.77S249.11,360.89,258.25,356.47Z"/>
          <path class="a297c59a-9182-4212-afc1-cbbe012cb117" d="M276.51,366.29s-4.41-4.51-10.46-2.66-14.14.92-10.45,7.69,11.58,2.87,11.58,2.87-12.09,5.53-7.48,15.06,5,10.05,5,10.05l13-27.68S279,369.27,276.51,366.29Z"/>
          <g>
            <g>
              <path class="a297c59a-9182-4212-afc1-cbbe012cb117" d="M261.54,354s-.77-6-6-5.64c-6.6.45-7.59,5.7-7.69,8.92,0,0-3.69,1.64-5.43,7.17,0,0-.62,1.84,0,2.87a6.8,6.8,0,0,0-3.59,7.28L240,377s-4.51,4.82,2.46,7.69c0,0,9.33,2.53,7.07-3.4l-1.74-2.75s4.51-1.54,2.66-6.05c0,0,6-1.94,3.08-9.84,0,0,3.48.11,3.07-4.91Z"/>
              <path class="a0e0804f-8122-4eee-a163-62885187809f" d="M247.84,356.71s-.39,3.23,1.25,4.66,4.46,1.23,4.46,1.23"/>
              <path class="a0e0804f-8122-4eee-a163-62885187809f" d="M242.17,366.76a9,9,0,0,0,9,5.36"/>
              <path class="a0e0804f-8122-4eee-a163-62885187809f" d="M239.4,375.77s-.4,1.7,8.41,2.72"/>
            </g>
            <path class="a0e0804f-8122-4eee-a163-62885187809f" d="M254.74,353.42a8.21,8.21,0,0,1,1.75,4.36"/>
          </g>
          <path class="b30df410-88ac-4c72-bb53-d0debbc0224b" d="M376.89,353.34c-3.17.28-6.31-2.89-8.75-8.18a55,55,0,0,1-4.32-17.75c-.08-.93-.14-1.84-.19-2.74-.67-13.45,2.66-23.32,8.23-23.8,5.92-.51,12.15,9.84,13.44,24.67S382.81,352.83,376.89,353.34Z"/>
          <path class="aa0b532e-616c-4daa-8130-f1c6255e155b" d="M377.87,332.85c-.78,5.46-4.31,11.15-9.81,10.89A55.09,55.09,0,0,1,363.73,326c-.08-.93-.13-1.85-.18-2.74a20.52,20.52,0,0,1,3.33-1.71c3.61-1.5,5.38-2.57,9.24-3.11C376.38,321.6,378.69,327.1,377.87,332.85Z"/>
          <g>
            <path class="a297c59a-9182-4212-afc1-cbbe012cb117" d="M423.37,284.4c-.33.6-4.4-.41-15.78,12.41a455.79,455.79,0,0,1-33.42,32.95c-4.1,3.58-7.29,6.06-8.7,6.61,0,0-4.6-18.13,1.08-31,.29-.66.62-1.31,1-1.94,0,0,32.78-27.77,37.25-34.18S434.65,264.72,423.37,284.4Z"/>
            <g>
              <path class="a297c59a-9182-4212-afc1-cbbe012cb117" d="M413.23,257.76c.1-.31,7.27-7.28,9.32-17.42s1.64-15.89,3.69-17.43,4.1,2.26,3.79,6.05-2.56,23.47-2.56,23.47,10.66-5.23,18.76-20.7c0,0,3.48-3.9,3.28,3.17S438,253.66,433.93,257.25c0,0-1.23,1.43,1.95,1.23s18-7.49,21.21-10.66c0,0,4,.61-1.54,7.07s-14,9.63-14,9.63l.52,3.69,16.46,1.85s4.75,2.15-3.55,4.1l-12.61.51S426,290.35,414.05,284.92"/>
              <path class="a297c59a-9182-4212-afc1-cbbe012cb117" d="M403.18,270.88c.51-.31,4.82-4.2,3.69-9.12s-1.54-12.71-5.43-17.53c0,0-1.35-2.77,2.81-5.43,0,0,5.18-.72,9.08,16,0,0,8.09,4.15,7.58,11.84s-6.45,8-6.45,8"/>
            </g>
            <path class="bcbe894c-0e9a-49be-8235-7c8f9aeb8b92" d="M374.55,329.08c-4.1,3.58-7.29,6.06-8.7,6.61,0,0-4.79-17.7,1.32-31C367.44,312.31,368.47,327.51,374.55,329.08Z"/>
          </g>
          <rect class="aff635a4-75b7-49ce-95da-77cf8373af3b" x="305.07" y="439.08" width="3.44" height="9.98"/>
          <rect class="aff635a4-75b7-49ce-95da-77cf8373af3b" x="273.8" y="434.09" width="3.44" height="9.98" transform="translate(131.52 -58.88) rotate(15.98)"/>
          <g>
            <path class="ad3ab538-4b74-48e3-98ad-9f0384138114" d="M309.28,454.32s5,10.94,19.8,7.12"/>
            <path class="b657ad39-ab81-45a7-b3dd-b2e30d0ad52c" d="M309.28,454.32a17,17,0,0,0,3.84,4.08A16.47,16.47,0,0,0,318,461a16.17,16.17,0,0,0,2.69.62c.45.06.91.17,1.37.19l1.4.06a9.21,9.21,0,0,0,1.39,0l1.41-.06c.94-.08,1.87-.25,2.83-.32-.9.29-1.82.56-2.75.8a21.25,21.25,0,0,1-2.87.37,16.45,16.45,0,0,1-5.78-.7A13.62,13.62,0,0,1,309.28,454.32Z"/>
          </g>
          <path class="eb22b0b2-17a8-47d7-a589-ab2ff9003418" d="M308,331.48s-9.16,10-10.66,14.35c0,0-5.36-9.08,3.72-21l4.62-1.17S302,327.25,308,331.48Z"/>
          <path class="ef500d2a-79a8-434f-8e78-af5a3b9a0f0c" d="M307.89,356.42c-.23,1.48-.56,3.12-.79,4.83-3.8.44-9,1.59-16.76,5.08,1.34-2.29,2.8-4.61,4.36-6.94C298.55,358.07,303,356.45,307.89,356.42Z"/>
          <path class="ef500d2a-79a8-434f-8e78-af5a3b9a0f0c" d="M305.74,372c-.2,1.71-.38,3.54-.56,5.36a73,73,0,0,0-23.75,6.08c.89-2,1.9-4.2,3-6.48C289,375.48,298.78,372.11,305.74,372Z"/>
          <path class="ef500d2a-79a8-434f-8e78-af5a3b9a0f0c" d="M303.9,395.06h0c-5.7.38-16.69,1.51-27,5.32-.25-1.13-.49-2.35-.75-3.64,0,0,.16-.55.51-1.55,4.46-1.19,18.95-5.17,27.54-5.46C304.09,391.43,304,393.29,303.9,395.06Z"/>
          <g>
            <g>
              <g>
                <path class="b321a2f5-74f3-44a8-9784-ca1ba6eaa8dc" d="M328.25,210S310.58,154.44,294,168.2c-6.66,5.5-6.66,14.81-5.78,19.53,1.89,10.1,17.2,7.4,15.42-2.72a22.5,22.5,0,0,0-1.69-5.35c-6.75-15.17,7.37-2.42,23.58,28.7Z"/>
                <g>
                  <path class="a297c59a-9182-4212-afc1-cbbe012cb117" d="M252,271.82s-6.19-9.73-9.89-2.13S246.6,295.63,259,299,252,271.82,252,271.82Z"/>
                  <path class="bcbe894c-0e9a-49be-8235-7c8f9aeb8b92" d="M253,275.61s-4.36-6.64-6.88-1.51,3.28,17.61,11.9,20S253,275.61,253,275.61Z"/>
                </g>
                <path class="a297c59a-9182-4212-afc1-cbbe012cb117" d="M240.12,229.23c4.51,37.89,4.73,38.1,15.16,67.87,7.66,21.85,34,33,52.51,29.45,27.15-5.29,59-31.92,54.46-62-3.35-22.39-1.35-34.49-1.42-43.12-.22-27.28-39.51-70.26-73.1-62.29C256.31,166.61,235.14,187.49,240.12,229.23Z"/>
                <g>
                  <g>
                    <path class="a0575573-9af1-4084-b0a1-f12f2a1f5592" d="M312.22,241.91c6.13-.88,12.07,5,13.27,13s-2.65,13.63-8.78,14.51-12.2-3.27-13.4-11.33S306.1,242.79,312.22,241.91Z"/>
                    <path class="a07095f1-1f73-415c-a104-faaa145b91f5" d="M312.22,241.86c3.36-.5,6.68,1.14,9,3.54a17.76,17.76,0,0,1,4.45,8.86,15.73,15.73,0,0,1-1,9.91A10.22,10.22,0,0,1,321.3,268a10.45,10.45,0,0,1-4.78,1.8,11.64,11.64,0,0,1-9.51-3.08,13.17,13.17,0,0,1-3-4.21,17.76,17.76,0,0,1-1.3-4.94,17.15,17.15,0,0,1,1.75-9.87C306.05,244.77,308.85,242.27,312.22,241.86Zm0,.1a8.85,8.85,0,0,0-4.4,2.07A11.67,11.67,0,0,0,305,248a15.72,15.72,0,0,0-1.28,4.69,18.24,18.24,0,0,0,0,4.84,14.41,14.41,0,0,0,4,8.55,10.78,10.78,0,0,0,8.74,3,9.54,9.54,0,0,0,7.61-5.17,15.25,15.25,0,0,0,1.11-9.53,17.37,17.37,0,0,0-4.12-8.81,11.84,11.84,0,0,0-4-2.9A9,9,0,0,0,312.23,242Z"/>
                  </g>
                  <path class="ae6ca12d-afcc-4db3-9f8c-45b0a7a54e20" d="M322.92,247.82c-2.25-3.55-6-6.48-9.38-6.29-5.89.33-10.55,6.64-10,14.47.25,3.82.26,7.74,5.33,12.43-5.64-3.14-7-9.87-6.65-15.54s3.41-11.59,9.19-12.47C316.39,239.66,321.39,243.82,322.92,247.82Z"/>
                  <path class="b6f28f1d-f2a6-4ed1-af8f-122417540477" d="M310.76,256a1.85,1.85,0,0,1-2.66-.48,2.08,2.08,0,0,1,.35-2.82,1.85,1.85,0,0,1,2.66.49A2.07,2.07,0,0,1,310.76,256Z"/>
                </g>
                <g>
                  <path class="bbc004ef-9ee7-454c-a6d5-21b8e2dcfc5c" d="M323.36,291.5c-1,2.55-11.93,20.92-26.89,19.4-8.62-.88-20.19-10.93-20.23-13.81a.68.68,0,0,1,.59-.73c9-2.05,10.09-2.06,19.35-5.26,8.06-2.79,20-10.25,25.74-10.15C325.29,281,326.47,283.68,323.36,291.5Z"/>
                  <path class="ae6ca12d-afcc-4db3-9f8c-45b0a7a54e20" d="M321.92,281c-4.56,2.7-11.86,6.76-21.59,11.28-15.41,7.16-22.35,5.46-24.09,4.86a.68.68,0,0,1,.59-.73c9-2.05,10.09-2.06,19.35-5.26C304.24,288.31,316.22,280.85,321.92,281Z"/>
                </g>
                <path class="b36af066-d5d5-481e-bc06-fb97604d631a" d="M303.67,308.53a15.75,15.75,0,0,0,7.15-4.92,10.15,10.15,0,0,0-7.44-1.75c-4,.59-9.24,2.81-10.33,6.3C295.9,309.53,301,309.38,303.67,308.53Z"/>
                <path class="a0575573-9af1-4084-b0a1-f12f2a1f5592" d="M319.58,282.34A138.09,138.09,0,0,1,297,292.67c-11.4,3.78-13.93,4.91-18.27,4.94,2.74,4.52,11.88,5.13,21.46,1.78C313.34,294.78,316.43,289.22,319.58,282.34Z"/>
                <g>
                  <path class="b7b42771-41a2-42b8-a986-02fcc044b778" d="M265.32,255.11c6.12-.88,12.06,4.95,13.26,13s-1.9,13.39-8,14.27-12.95-3-14.15-11.09S259.19,256,265.32,255.11Z"/>
                  <path class="ae6ca12d-afcc-4db3-9f8c-45b0a7a54e20" d="M276,261c-2.25-3.55-6-6.47-9.38-6.28-5.89.32-10.55,6.64-10,14.46.26,3.82.27,7.74,5.33,12.44-5.64-3.14-7-9.87-6.64-15.54s3.41-11.6,9.18-12.48C269.49,252.86,274.48,257,276,261Z"/>
                </g>
                <g>
                  <path class="a297c59a-9182-4212-afc1-cbbe012cb117" d="M361.08,248.08c13.87-16.53,18.24,2,17.27,13.44-1,12.2-9.05,16.87-15.9,13.39"/>
                  <path class="bcbe894c-0e9a-49be-8235-7c8f9aeb8b92" d="M374.51,259.81c-.94,6.36-4.92,11.42-6.81,9.95-7.54-5.85.39-5.13.55-11.15.19-7-4.72-9.14,1.44-11.18C373.11,246.29,375.62,252.32,374.51,259.81Z"/>
                </g>
                <path class="bcbe894c-0e9a-49be-8235-7c8f9aeb8b92" d="M260.81,217.34c5.95,2.52,12.53,4.08,18.89,3.3,12.45-1.52,19.69-6.13,28.43-15.24-8.26,1.16-20.46.59-25.17-2.28,4.75-6,11.43-7.93,18.46-11.17.51-.24,1,.58,1.47,1,8.58,8.33,19.06.84,21.48.7-8,7.1,1.17,41.22,35.52,36.31,3-.43,2-7.28,2.35-10.35a24.78,24.78,0,0,0-2.58-13.77,33.74,33.74,0,0,1-2.76-5.63c-.63-2.09-.57-4.35-1.26-6.42-1.24-3.66-4.56-6.11-7.76-8.19-8.21-5.35-16.93-10-26.24-12.83s-19.28-3.74-28.71-1.62c-6.91,1.55-13.36,4.67-19.69,7.88-8.63,4.39-17.33,9.13-23.91,16.31a90.11,90.11,0,0,0-7.43,9.8,24.06,24.06,0,0,0-3.65,6.76,21.89,21.89,0,0,0-.69,5.66c-.48,16.43,2.84,37.65,9.05,52.9-.06-11.45-2.86-31-2.92-42.42,0-2.31,7.4-15.83,9.21-15.59C253.84,212.6,259.16,216.64,260.81,217.34Z"/>
                <path class="a4f59a44-b1ee-48f4-89e4-6ac0a88833bd" d="M255.32,205.63s9.07,25.11,51.27.18c0,0-51,.2-2.24-18,0,0-.89,9.29,25.56,2.07,0,0-18.89,24,22.62,38.85,0,0,4.4.74,6.86,13.11.22,1.11.37,3.59.64,7.23,1.4,19.08,4.25-4.85,4.25-4.85s15.19-7.54,9.1-27.26c0,0,10.24-18.52-6.26-32.61,0,0,1.79-26.53-29.44-23,0,0-14.71-21.79-32.36-15.47,0,0-31.24-10.57-44.71,16,0,0-22.22-.28-28.55,26.11,0,0-15.6,14.72-6.25,28.71,0,0-12.36,12.69,5.05,20.55,0,0-8.71,13.21,8.7,18.41l7.13,15.41-6-42.24S238.73,222.75,255.32,205.63Z"/>
                <path class="a74a9a38-3551-44b2-8f73-8617a41ff7ad" d="M263.11,233.88h0c-1.6-1.33-6.43,1.23-7.86,2.76-2.17,2.31-4.47,5.24-3.42,12.36.09.61.26,1.07.45.47,1.17-3.56,4.51-9.76,9.7-12.29A2.41,2.41,0,0,0,263.11,233.88Z"/>
                <path class="a74a9a38-3551-44b2-8f73-8617a41ff7ad" d="M296.16,222.44h0c.22-2.06,5.49-3.53,7.59-3.42,3.18.16,6.88.7,11.1,6.55.37.5.57.94,0,.65-3.34-1.76-10.08-3.93-15.58-2.18A2.44,2.44,0,0,1,296.16,222.44Z"/>
                <path class="a8ba5737-686d-4981-bfaf-d5297df57092" d="M282.66,280.2a10.22,10.22,0,0,0,3.52,3.75,6.44,6.44,0,0,0,4.59.59,12.09,12.09,0,0,0,4.55-1.91A6.94,6.94,0,0,0,298,278.4a5.82,5.82,0,0,1-1.67,5.39,8.11,8.11,0,0,1-2.42,1.74,8.91,8.91,0,0,1-1.36.57,10.73,10.73,0,0,1-1.43.4,8.27,8.27,0,0,1-3.06,0,6.69,6.69,0,0,1-2.8-1.31A7.34,7.34,0,0,1,282.66,280.2Z"/>
              </g>
              <g>
                <circle class="b6324848-2801-4e27-988f-ba1dd746fe79" cx="315.7" cy="255.52" r="6.67"/>
                <circle class="b6f28f1d-f2a6-4ed1-af8f-122417540477" cx="310.84" cy="252.7" r="1.55"/>
              </g>
              <g>
                <circle class="b6324848-2801-4e27-988f-ba1dd746fe79" cx="269.76" cy="268.05" r="6.67"/>
                <circle class="b6f28f1d-f2a6-4ed1-af8f-122417540477" cx="264.89" cy="265.22" r="1.55"/>
              </g>
            </g>
            <path class="bfae14a3-dd98-45bb-8df6-504e5da908b9" d="M298.61,314.12a12.81,12.81,0,0,0,9.89-3.52,9.29,9.29,0,0,1-9.89,3.52Z"/>
          </g>
        </g>
      </g>
    </g>
  </g>
</svg>
