<svg id="a1f02562-f122-4e11-b899-e715d6f48865" data-name="Layer 1" xmlns="http://www.w3.org/2000/svg" width="35.7" height="34.24" viewBox="0 0 35.7 34.24">
  <defs>
    <style>
      .ac16b7e5-eebe-4e4a-82ae-58630f14d6db, .b2d045ee-4570-46db-b5db-ab91247f55ba {
        fill: #fff;
      }

      .ac16b7e5-eebe-4e4a-82ae-58630f14d6db {
        stroke: #722a2a;
        stroke-miterlimit: 10;
      }

      .a40babc8-aecd-4be3-8a29-6f665651bc5e {
        fill: #230b04;
      }

      .af8f0f0f-7a6b-461c-bb65-a75011b1d70a {
        fill: #160602;
      }

      .f2d976f8-0d00-47df-a2b0-c6c75086b4e6 {
        fill: #8e3a26;
      }
    </style>
  </defs>
  <g>
    <g>
      <ellipse class="ac16b7e5-eebe-4e4a-82ae-58630f14d6db" cx="17.85" cy="17.12" rx="16.85" ry="16.14"/>
      <path class="a40babc8-aecd-4be3-8a29-6f665651bc5e" d="M18,6.44A12.49,12.49,0,0,1,30.18,19.31a12.66,12.66,0,0,1-12.41,12.8A12.49,12.49,0,0,1,5.58,19.24,12.65,12.65,0,0,1,18,6.44Z"/>
      <path class="b2d045ee-4570-46db-b5db-ab91247f55ba" d="M20.66,16.18c-1.1-2.71-8.18-6.43-8.2-2.09a3.89,3.89,0,0,0,1.08,2.23,4.9,4.9,0,0,0,3.88,2.08C20.45,18.39,21.14,17.39,20.66,16.18Z"/>
      <path class="af8f0f0f-7a6b-461c-bb65-a75011b1d70a" d="M19.7,30.66c15.91-2.82-8.52-13.91-9.08-4.09C10.48,29.18,15.43,31.42,19.7,30.66Z"/>
    </g>
    <path class="f2d976f8-0d00-47df-a2b0-c6c75086b4e6" d="M34.7,17.12c0,8.91-8.24,12-16.61,12C9.3,29.12,1,26,1,17.12S8.54,1,17.85,1,34.7,8.21,34.7,17.12Z"/>
  </g>
</svg>
