<svg id="b53c2af5-65df-404d-a462-e8da926da9e7" data-name="Layer 1" xmlns="http://www.w3.org/2000/svg" xmlns:xlink="http://www.w3.org/1999/xlink" width="500" height="525" viewBox="0 0 500 525">
  <defs>
    <style>
      .ff07e393-c57a-49e1-905a-af4317a20085 {
        fill: none;
      }

      .f3909d9f-9061-48ce-b148-c1df07ea97b6 {
        opacity: 0.5;
      }

      .b7c7b097-b3af-49e4-82bf-479e891d919f {
        fill: #00b2ed;
        stroke: #fff;
        stroke-width: 0.5px;
      }

      .a3d6c631-3343-443c-8ca8-e3827acfbbf3, .a58efe40-98d2-4c90-9899-13609977fbf4, .b59b6e5f-a41e-4574-975a-c19b35980b39, .b75de63c-f576-47ff-b02d-4b7f2e346165, .b7c7b097-b3af-49e4-82bf-479e891d919f {
        stroke-miterlimit: 10;
      }

      .e44ac693-d7c8-423c-8fac-2730bb5b0e9d {
        fill: #01687f;
      }

      .b5fc35d4-025f-48f6-a2e7-be287acf54b6 {
        fill: #f4eb7f;
      }

      .fe009d31-b4b9-4509-a517-3ac4ec715ffa {
        clip-path: url(#b0bd09ff-534a-4a2c-a47d-732db38849de);
      }

      .a3d6c631-3343-443c-8ca8-e3827acfbbf3 {
        fill: #d156ab;
      }

      .a3d6c631-3343-443c-8ca8-e3827acfbbf3, .b59b6e5f-a41e-4574-975a-c19b35980b39 {
        stroke: #b539aa;
      }

      .ab01023a-f0c3-4448-99a1-803f36090228 {
        fill: #512b01;
      }

      .ae666ae6-ae32-4ec9-aa29-ae7e4b7ee2dc {
        fill: #c68f4e;
      }

      .b775eed6-18b6-48e2-ae65-81f75d714808 {
        fill: #593404;
      }

      .ac15c14e-4433-4c5c-8eb2-620bc89df97e {
        fill: #95d121;
      }

      .ad54e1d4-5f64-4955-9140-c35b35cf9f8e {
        fill: #344409;
      }

      .bff8b352-d43e-42dd-8d25-fe4372dc43a6 {
        fill: #333;
      }

      .a3ca7c4a-05d3-41d4-b0bf-3479f5279cd2 {
        fill: #7c7c7b;
      }

      .b0600905-1793-4d00-bcf9-083ecaf7353b {
        fill: url(#ec5ed726-7869-4655-95db-882599491e42);
      }

      .af240c77-46ef-4d53-8a82-c1337102d49e {
        fill: #ea9c00;
      }

      .e33dc312-dd42-4e9c-9b45-0c5e91c9a5fa {
        fill: #44404f;
      }

      .aec4eaee-066a-4572-96c9-e42e8d2ab02e {
        fill: #545160;
      }

      .bbb37e8e-811b-4db6-91bd-a0783c951806 {
        fill: #688e14;
      }

      .a3eca36b-498b-4d73-bda3-559bb3830f23 {
        fill: #ffd400;
      }

      .b473ac12-eb2c-47cd-8937-52036c25325f {
        fill: #27485e;
      }

      .e0c8ae8b-eae9-4f89-a431-b934405dc3bd {
        fill: #3b6d89;
      }

      .b7f32f07-30ea-4774-8c09-02e43a0e19ed {
        fill: #3d8321;
      }

      .a499c5c5-3e01-4a73-860a-6c8f326f9ae8 {
        fill: #8cb2b5;
      }

      .bbe16adb-71c9-4174-8c92-5255e05794c5 {
        fill: #b3dbe0;
      }

      .b96736c2-d2f8-42fb-a9e1-d16483711928 {
        fill: #666;
      }

      .b59b6e5f-a41e-4574-975a-c19b35980b39 {
        fill: #ad4091;
      }

      .b75de63c-f576-47ff-b02d-4b7f2e346165, .f5ac1203-f625-4e09-8eff-9e13e7eeca44 {
        fill: #f9dad2;
      }

      .b75de63c-f576-47ff-b02d-4b7f2e346165 {
        stroke: #4c2606;
      }

      .a13e870a-c851-4333-b41e-0d08d65bb7e0, .b341ad70-9c2b-477a-a5ee-9c4616b2a084 {
        fill: #dd9f8f;
      }

      .a13e870a-c851-4333-b41e-0d08d65bb7e0 {
        opacity: 0.44;
      }

      .a3ac390b-0cdd-454d-8f87-5cba3d67254c, .a58efe40-98d2-4c90-9899-13609977fbf4 {
        fill: #fff;
      }

      .a58efe40-98d2-4c90-9899-13609977fbf4 {
        stroke: #3d2d16;
        stroke-width: 0.75px;
      }

      .eb269b2e-c0d8-40af-8408-2ab71534af6a {
        fill: #5b0000;
      }

      .eeb71707-07a4-4058-b2bc-e437f09647da {
        fill: #8c3d35;
      }

      .e9e38232-d917-4836-a80d-af3d9f54cabf {
        fill: #d36553;
      }

      .adca5aa9-ab8b-4255-b1fb-7c2bee33a594 {
        fill: #3d2d16;
      }

      .ec003152-5f94-4602-b6f2-d486695bc562 {
        fill: #b26b51;
      }

      .ea89e77c-7a93-4820-8ffd-2cbabb22c78e {
        fill: #342516;
      }

      .e809d99e-73d2-4bba-975b-da8fb98b56fb {
        fill: #4c2606;
      }
    </style>
    <clipPath id="b0bd09ff-534a-4a2c-a47d-732db38849de">
      <path class="ff07e393-c57a-49e1-905a-af4317a20085" d="M378.31,476.68c-3.19.51-6.39.93-9.55,1.32-76.38,9.45-163.92,9.55-240.33.31-16.73-2-34.47-5-47-16.25C67.63,449.62,63.36,430,60.24,411.68A1244.93,1244.93,0,0,1,42.74,187c.36-28.16-5.65-83.64,10-108.3,14.09-22.2,45.84-30.59,70-32.86,89.73-8.41,179-6.62,269.19-2.57,14.14.63,29,1.72,40.86,9.49C455.31,67.48,458.61,99,458,125.88,455.91,221.53,455.76,317,437.7,411c-3.6,18.76-8.32,38.88-22.78,51.36C404.84,471,391.64,474.57,378.31,476.68Z"/>
    </clipPath>
    <radialGradient id="ec5ed726-7869-4655-95db-882599491e42" cx="373.59" cy="486.9" r="223.92" gradientUnits="userSpaceOnUse">
      <stop offset="0.02" stop-color="#82c70a"/>
      <stop offset="0.91" stop-color="#347a24"/>
    </radialGradient>
  </defs>
  <g>
    <path class="f3909d9f-9061-48ce-b148-c1df07ea97b6" d="M394.4,501c-3.46.55-6.93,1-10.36,1.43-82.9,10.25-177,10.36-260,.34-18.15-2.2-37.41-5.4-51-17.64-15-13.5-19.62-34.8-23-54.68a1350.89,1350.89,0,0,1-19-243.88C31.45,156,24.93,95.75,41.92,69c15.29-24.09,49.75-33.2,76-35.66,97.39-9.13,194.23-7.19,292.15-2.79,15.35.69,31.49,1.86,44.34,10.3,24.4,16,28,50.22,27.34,79.39-2.29,103.81-3.31,207.42-22.9,309.39-3.91,20.36-9,42.2-24.73,55.75C423.19,494.8,408.87,498.66,394.4,501Z"/>
    <path class="b7c7b097-b3af-49e4-82bf-479e891d919f" d="M388.4,495c-3.46.55-6.93,1-10.36,1.43-82.9,10.25-177,10.36-260,.34-18.15-2.2-37.41-5.4-51-17.64-15-13.5-19.62-34.8-23-54.68a1350.89,1350.89,0,0,1-19-243.88C25.45,150,18.93,89.75,35.92,63c15.29-24.09,49.75-33.2,76-35.66,97.39-9.13,194.23-7.19,292.15-2.79,15.35.69,31.49,1.86,44.34,10.3,24.4,16,28,50.22,27.34,79.39-2.29,103.81-3.31,207.42-22.9,309.39-3.91,20.36-9,42.2-24.73,55.75C417.19,488.8,402.87,492.66,388.4,495Z"/>
    <path class="e44ac693-d7c8-423c-8fac-2730bb5b0e9d" d="M380.77,481.13c-3.26.51-6.52.95-9.75,1.35-78,9.64-167.12,9.74-245.11.31-17.08-2.07-35.19-5.08-48-16.59-14.1-12.7-18.45-32.72-21.64-51.42A1270.93,1270.93,0,0,1,38.43,185.4C38.8,156.64,32.67,100,48.64,74.85,63,52.19,95.44,43.62,120.14,41.3c91.6-8.58,182.68-6.76,274.77-2.63,14.45.65,29.63,1.76,41.71,9.7C459.57,63.43,462.94,95.6,462.34,123c-2.15,97.64-2.52,195.09-20.95,291-3.68,19.15-8.49,39.69-23.26,52.43C407.85,475.34,394.37,479,380.77,481.13Z"/>
    <path class="b5fc35d4-025f-48f6-a2e7-be287acf54b6" d="M378.31,476.68c-3.19.51-6.39.93-9.55,1.32-76.38,9.45-163.92,9.55-240.33.31-16.73-2-34.47-5-47-16.25C67.63,449.62,63.36,430,60.24,411.68A1244.93,1244.93,0,0,1,42.74,187c.36-28.16-5.65-83.64,10-108.3,14.09-22.2,45.84-30.59,70-32.86,89.73-8.41,179-6.62,269.19-2.57,14.14.63,29,1.72,40.86,9.49C455.31,67.48,458.61,99,458,125.88,455.91,221.53,455.76,317,437.7,411c-3.6,18.76-8.32,38.88-22.78,51.36C404.84,471,391.64,474.57,378.31,476.68Z"/>
    <g class="fe009d31-b4b9-4509-a517-3ac4ec715ffa">
      <path class="b5fc35d4-025f-48f6-a2e7-be287acf54b6" d="M381.48,491.48c-3.48.55-7,1-10.43,1.44-83.34,10.31-178.85,10.42-262.23.34-18.25-2.21-37.61-5.43-51.27-17.74-15.07-13.57-19.73-35-23.13-55a1358.12,1358.12,0,0,1-19.1-245.19c.39-30.73-6.16-91.26,10.91-118.17,15.38-24.22,50-33.38,76.43-35.86,97.91-9.17,195.27-7.23,293.72-2.81,15.43.7,31.66,1.88,44.58,10.36,24.53,16.1,28.13,50.49,27.49,79.83-2.3,104.36-2.47,208.53-22.17,311.05-3.93,20.47-9.08,42.42-24.86,56C410.42,485.3,396,489.18,381.48,491.48Z"/>
      <path class="ff07e393-c57a-49e1-905a-af4317a20085" d="M381.48,491.48c-3.48.55-7,1-10.43,1.44-83.34,10.31-178.85,10.42-262.23.34-18.25-2.21-37.61-5.43-51.27-17.74-15.07-13.57-19.73-35-23.13-55a1358.12,1358.12,0,0,1-19.1-245.19c.39-30.73-6.16-91.26,10.91-118.17,15.38-24.22,50-33.38,76.43-35.86,97.91-9.17,195.27-7.23,293.72-2.81,15.43.7,31.66,1.88,44.58,10.36,24.53,16.1,28.13,50.49,27.49,79.83-2.3,104.36-2.47,208.53-22.17,311.05-3.93,20.47-9.08,42.42-24.86,56C410.42,485.3,396,489.18,381.48,491.48Z"/>
      <g>
        <path class="b5fc35d4-025f-48f6-a2e7-be287acf54b6" d="M384.85,502.1c-3.7.58-7.41,1.07-11.08,1.53-88.55,10.93-190,11.06-278.62.35-19.4-2.34-40-5.76-54.48-18.82-16-14.4-21-37.12-24.57-58.34A1438.72,1438.72,0,0,1-4.2,166.59C-3.78,134-10.75,69.73,7.4,41.18,23.73,15.47,60.54,5.75,88.6,3.12c104-9.74,207.48-7.67,312.08-3,16.4.74,33.65,2,47.37,11,26.06,17.09,29.89,53.59,29.2,84.72C474.81,206.62,474.64,317.18,453.7,426c-4.18,21.72-9.65,45-26.41,59.48C415.6,495.54,400.3,499.65,384.85,502.1Z"/>
        <path class="a3d6c631-3343-443c-8ca8-e3827acfbbf3" d="M154.5,249.38l195.92-.73s18.22-5.17,30.31,78.11c0,0,12.82,61.78,14.81,64.66,0,0-8.18,69.35-59.62-3.6L173.17,384s-11.13,46.8-40.1,32.08c0,0-14.75-6.9-14.77-47.72C118.3,368.35,127.51,247.41,154.5,249.38Z"/>
        <g>
          <polygon class="ab01023a-f0c3-4448-99a1-803f36090228" points="81.14 506.81 125.41 664.52 366.13 665.21 402.79 511.65 81.14 506.81"/>
          <polygon class="ae666ae6-ae32-4ec9-aa29-ae7e4b7ee2dc" points="19.1 371.23 459.23 372.61 433.22 488.82 35.24 486.75 19.1 371.23"/>
          <polygon class="b775eed6-18b6-48e2-ae65-81f75d714808" points="35.24 486.75 46.31 519.26 421.46 522.02 433.22 488.82 35.24 486.75"/>
        </g>
        <g>
          <path class="ac15c14e-4433-4c5c-8eb2-620bc89df97e" d="M263.42,374c-20.1,2.49-49.71,5.94-58.89,7.31-2.31.34-6.31,2.35-9.43,6.55-2.29,3.08-4.6,17.8-6.13,19.55-1.8,2.07-18,4.83-22.09,10s-5.13,13.58-5.09,20.29a9.73,9.73,0,0,0,10.83,9.58l163.69-18.5C335.21,418,263.42,374,263.42,374Z"/>
          <rect class="ad54e1d4-5f64-4955-9140-c35b35cf9f8e" x="210.69" y="415.48" width="120.67" height="21.05" transform="translate(589.19 818.04) rotate(173.4)"/>
          <g>
            <path class="bff8b352-d43e-42dd-8d25-fe4372dc43a6" d="M290.2,430.6c1,8.66,7.92,15,15.45,14.09,5.76-.66,3.58-32.12,3.58-32.12l-7.2.79C294.5,414.23,289.2,422,290.2,430.6Z"/>
            <ellipse class="bff8b352-d43e-42dd-8d25-fe4372dc43a6" cx="310.03" cy="428.31" rx="13.72" ry="15.77" transform="translate(-47.16 38.46) rotate(-6.6)"/>
            <ellipse class="a3ca7c4a-05d3-41d4-b0bf-3479f5279cd2" cx="310.66" cy="428.37" rx="7.55" ry="8.67" transform="translate(-47.16 38.53) rotate(-6.6)"/>
          </g>
          <path class="bff8b352-d43e-42dd-8d25-fe4372dc43a6" d="M229,440.72a3.54,3.54,0,1,0,3.11-3.93A3.54,3.54,0,0,0,229,440.72Z"/>
          <path class="b0600905-1793-4d00-bcf9-083ecaf7353b" d="M327.61,398.33c-3.53-2.65-15.15-2-21.8-4.45-3.27-1.19-6.51-16.39-10.35-18.5-5.18-2.85-12.79-3.64-30-1.62-18.84,2.21-28.65,4.72-31.76,8.92-2.29,3.08-3,19.5-4.52,21.24-1.81,2.07-19.67,4.33-23.8,9.48-7.93,9.92-4.24,31-4.24,31l13.55-1.57a.51.51,0,0,1,0-.13,17.76,17.76,0,0,1,35.28-4.08.66.66,0,0,0,0,.14l41.75-4.83a.69.69,0,0,1,0-.13A17.76,17.76,0,0,1,327,429.72a.62.62,0,0,0,0,.13l14.12-1.64C340,417.4,337.73,405.92,327.61,398.33Z"/>
          <path class="ad54e1d4-5f64-4955-9140-c35b35cf9f8e" d="M263.68,378.54A261.82,261.82,0,0,1,269.52,432a1.5,1.5,0,0,0,3,0,265.38,265.38,0,0,0-5.95-54.26c-.4-1.88-3.29-1.08-2.89.8Z"/>
          <path class="af240c77-46ef-4d53-8a82-c1337102d49e" d="M232.4,418.06l-2.48.29a1.88,1.88,0,0,1-2.08-1.65h0a1.88,1.88,0,0,1,1.65-2.08l2.48-.28a1.88,1.88,0,0,1,2.08,1.64h0A1.87,1.87,0,0,1,232.4,418.06Z"/>
          <g>
            <path class="e33dc312-dd42-4e9c-9b45-0c5e91c9a5fa" d="M192.92,434.42H173.73a1.44,1.44,0,0,1-1.32-1.61l.16-3.47a1.4,1.4,0,0,1,1.32-1.38h18.87a1.4,1.4,0,0,1,1.32,1.38l.16,3.47A1.44,1.44,0,0,1,192.92,434.42Z"/>
            <path class="aec4eaee-066a-4572-96c9-e42e8d2ab02e" d="M189.47,434.42H170.29a1.44,1.44,0,0,1-1.33-1.61l.16-3.47a1.42,1.42,0,0,1,1.33-1.38h18.86a1.41,1.41,0,0,1,1.33,1.38l.16,3.47A1.44,1.44,0,0,1,189.47,434.42Z"/>
          </g>
          <g>
            <path class="bbb37e8e-811b-4db6-91bd-a0783c951806" d="M171.87,422.08c0,3-2.12,5.52-4.77,5.53h-2.17l-.06-11h2.18C169.69,416.58,171.85,419,171.87,422.08Z"/>
            <ellipse class="af240c77-46ef-4d53-8a82-c1337102d49e" cx="164.9" cy="422.12" rx="4.79" ry="5.51" transform="translate(-2.3 0.91) rotate(-0.31)"/>
            <path class="a3eca36b-498b-4d73-bda3-559bb3830f23" d="M167.63,422.15a3.06,3.06,0,1,1-3-3.47A3.28,3.28,0,0,1,167.63,422.15Z"/>
          </g>
          <g>
            <path class="b473ac12-eb2c-47cd-8937-52036c25325f" d="M276,398.9a215,215,0,0,0,21.48-2.75,2.05,2.05,0,0,0,1.6-2.72c-1-3.18-3.48-11-4.68-12.89a7.6,7.6,0,0,0-5.7-3.66,54.56,54.56,0,0,0-14.77.57,2.87,2.87,0,0,0-2.59,2.9,164.51,164.51,0,0,0,2.46,16.72A2.16,2.16,0,0,0,276,398.9Z"/>
            <path class="b473ac12-eb2c-47cd-8937-52036c25325f" d="M260.56,400.34c-6.76,1.21-18.13,2.39-23.64,2.73a2,2,0,0,1-2.18-2.27c.23-3.33,1.4-11.54,2.14-13.62a6.57,6.57,0,0,1,4.3-4.56,68.08,68.08,0,0,1,16.25-3.11,3,3,0,0,1,3.19,2.23c.92,3.43,1.69,13.15,1.67,16.32A2.17,2.17,0,0,1,260.56,400.34Z"/>
            <path class="b473ac12-eb2c-47cd-8937-52036c25325f" d="M225.55,383.78a177.56,177.56,0,0,0-23.3,2,6.31,6.31,0,0,0-4.62,3.63c-1.36,3-3,12.23-3.53,14.76a1.47,1.47,0,0,0,1.48,1.88l28.94-2.48a1.54,1.54,0,0,0,1.28-1.16c.87-2.75,2-12.52,2.3-15.81A2.52,2.52,0,0,0,225.55,383.78Z"/>
          </g>
          <g>
            <path class="e0c8ae8b-eae9-4f89-a431-b934405dc3bd" d="M216.86,384.16l-9.55,20.89,6.34-.55,9.46-20.68C221.27,383.88,219.1,384,216.86,384.16Z"/>
            <path class="e0c8ae8b-eae9-4f89-a431-b934405dc3bd" d="M288.66,376.88c-.69-.08-1.41-.14-2.14-.18l-10.14,22.17c2-.12,4.15-.32,6.35-.57L292,378.07A7.52,7.52,0,0,0,288.66,376.88Z"/>
            <path class="e0c8ae8b-eae9-4f89-a431-b934405dc3bd" d="M225.8,402.41c.87-2.75,2-12.52,2.3-15.81a2.51,2.51,0,0,0-1.84-2.72L217,404.22l7.56-.65A1.54,1.54,0,0,0,225.8,402.41Z"/>
            <path class="e0c8ae8b-eae9-4f89-a431-b934405dc3bd" d="M257.43,379.51a61.09,61.09,0,0,0-6.29.72l-10.31,22.54c2.94-.25,6.46-.61,9.92-1l9.52-20.81A3,3,0,0,0,257.43,379.51Z"/>
            <path class="e0c8ae8b-eae9-4f89-a431-b934405dc3bd" d="M273.89,377.45a2.87,2.87,0,0,0-2.59,2.9c.16,2.61,1.13,9.57,1.9,13.91l8.05-17.6A54.6,54.6,0,0,0,273.89,377.45Z"/>
          </g>
          <path class="b7f32f07-30ea-4774-8c09-02e43a0e19ed" d="M291.68,435.77l-41,4.75a1.83,1.83,0,0,1-2-1.6h0a1.82,1.82,0,0,1,1.6-2l41-4.75a1.84,1.84,0,0,1,2,1.6h0A1.83,1.83,0,0,1,291.68,435.77Z"/>
          <g>
            <path class="a499c5c5-3e01-4a73-860a-6c8f326f9ae8" d="M341.23,431.16l-12.93,1.59a2,2,0,0,1-2.24-1.77l-.47-4.06a2,2,0,0,1,1.78-2.24l12.93-1.59a2,2,0,0,1,2.23,1.77l.47,4.06A2,2,0,0,1,341.23,431.16Z"/>
            <rect class="bbe16adb-71c9-4174-8c92-5255e05794c5" x="158.8" y="437.22" width="44.74" height="8.12" rx="2.89"/>
            <path class="a499c5c5-3e01-4a73-860a-6c8f326f9ae8" d="M215.44,443.58l-12.93,1.59a2,2,0,0,1-2.24-1.78l-.47-4.06a2,2,0,0,1,1.77-2.23l12.93-1.59a2,2,0,0,1,2.24,1.77l.47,4.06A2,2,0,0,1,215.44,443.58Z"/>
          </g>
        </g>
        <g>
          <path class="b96736c2-d2f8-42fb-a9e1-d16483711928" d="M274.07,469c4.88,6.88,13.68,9,19.66,4.76l5.34-3.88L281.5,445.09l-5.43,3.83C270.09,453.16,269.2,462.17,274.07,469Z"/>
          <ellipse class="bff8b352-d43e-42dd-8d25-fe4372dc43a6" cx="289.82" cy="457.87" rx="13.28" ry="15.26" transform="translate(-211.51 252.18) rotate(-35.36)"/>
          <ellipse class="a3ca7c4a-05d3-41d4-b0bf-3479f5279cd2" cx="290.38" cy="457.63" rx="7.3" ry="8.39" transform="translate(-211.27 252.46) rotate(-35.36)"/>
          <path class="bff8b352-d43e-42dd-8d25-fe4372dc43a6" d="M288.48,459a2.64,2.64,0,1,0,.4-4A2.81,2.81,0,0,0,288.48,459Z"/>
        </g>
        <rect class="bff8b352-d43e-42dd-8d25-fe4372dc43a6" x="124.85" y="412.16" width="30.56" height="12.66" rx="4.65"/>
        <g>
          <path class="bbb37e8e-811b-4db6-91bd-a0783c951806" d="M135.44,458.66c-3,0-5.5-1.55-5.49-3.42,0-.43,0-1.53,0-1.53l11,.06v1.54C141,457.18,138.48,458.68,135.44,458.66Z"/>
          <ellipse class="af240c77-46ef-4d53-8a82-c1337102d49e" cx="135.47" cy="453.74" rx="3.38" ry="5.51" transform="translate(-319.08 586.45) rotate(-89.65)"/>
          <ellipse class="a3eca36b-498b-4d73-bda3-559bb3830f23" cx="135.43" cy="453.53" rx="2.14" ry="3.48" transform="translate(-318.92 586.2) rotate(-89.65)"/>
        </g>
        <path class="a3d6c631-3343-443c-8ca8-e3827acfbbf3" d="M125.19,351.07s11.5-.3,15.64,1.47"/>
        <path class="a3d6c631-3343-443c-8ca8-e3827acfbbf3" d="M368.58,353.87s4.56-1.26,6.59.12"/>
        <ellipse class="b59b6e5f-a41e-4574-975a-c19b35980b39" cx="258.69" cy="292.49" rx="39.84" ry="23.58"/>
        <ellipse class="b75de63c-f576-47ff-b02d-4b7f2e346165" cx="258.78" cy="283.54" rx="33.2" ry="21.16"/>
        <g>
          <g>
            <path class="b75de63c-f576-47ff-b02d-4b7f2e346165" d="M173,222.58s33.18,73.09,89.26,70.15c0,0,43.7.74,71-57.79,0,0,2.7-26.42,1.8-31.82l4.5-36.62-22.81-39.63L260,118.17l-51.93,7.5s-30,17.41-31.82,22.81S173,222.58,173,222.58Z"/>
            <path class="a13e870a-c851-4333-b41e-0d08d65bb7e0" d="M177.78,233.59s5-8.07,2.76-15.62c0,0,13.54-9.1,4.44-28,0,0,12.66-8.88,8.44-24.42,0,0,31.75,5.67,40.41-21.26,0,0,34.42,16.37,47.29-3.17,0,0,9.11,11.11,24.43,5.78,0,0-3.55,16.87,18.21,23.09,0,0-4.67,18.87,5.55,34.86,0,0-3.05,24.69,1.11,33.75l9.11-19.1S359.28,87.19,213.85,127.6C213.85,127.6,148.38,173.72,177.78,233.59Z"/>
            <ellipse class="a58efe40-98d2-4c90-9899-13609977fbf4" cx="223.8" cy="214.29" rx="20.41" ry="17.58"/>
            <ellipse class="a58efe40-98d2-4c90-9899-13609977fbf4" cx="300.19" cy="211.85" rx="20.41" ry="17.58"/>
            <path class="eb269b2e-c0d8-40af-8408-2ab71534af6a" d="M239.23,268.35c3.45-7.27,14.89-27,35.89-23a15.13,15.13,0,0,1,11.91,11,19.93,19.93,0,0,1,.06,9.6,2.28,2.28,0,0,1-2.24,1.77c-6.34-.08-28.56-.11-44,2.72A1.45,1.45,0,0,1,239.23,268.35Z"/>
            <path class="eeb71707-07a4-4058-b2bc-e437f09647da" d="M270.22,194.28a63.17,63.17,0,0,0-2.38,14.53,31.28,31.28,0,0,0,.55,7.19,17.59,17.59,0,0,0,2.63,6.48l.5.71c.17.23.36.44.54.66l.28.33.34.37c.22.25.43.51.63.77a10.9,10.9,0,0,1,1.91,3.58,6.1,6.1,0,0,1,.21,2.19,4.86,4.86,0,0,1-.78,2.14,7.1,7.1,0,0,1-3.4,2.39,23.2,23.2,0,0,1-7.54,1.16,56.33,56.33,0,0,1-7.47-.46c2.48-.13,5-.23,7.4-.52a33.29,33.29,0,0,0,3.62-.58,16.57,16.57,0,0,0,3.4-1,6,6,0,0,0,2.53-1.92,3.2,3.2,0,0,0,.43-1.34,4.1,4.1,0,0,0-.22-1.48,9.32,9.32,0,0,0-1.63-2.92c-.18-.23-.36-.45-.55-.66l-.29-.31-.34-.38c-.21-.25-.44-.5-.65-.76l-.58-.81a18.82,18.82,0,0,1-2.82-7.25,28.74,28.74,0,0,1-.25-7.63A43.93,43.93,0,0,1,270.22,194.28Z"/>
            <path class="a3ac390b-0cdd-454d-8f87-5cba3d67254c" d="M252.07,251.35s17.71,4.22,28.46-3.9C280.1,247,266.86,239,252.07,251.35Z"/>
            <path class="e9e38232-d917-4836-a80d-af3d9f54cabf" d="M244.21,259.88s27.63-9.25,34,7.79c0,0-28.32,1-37.45,2.73,0,0-2.08.31-1.63-1.93A46,46,0,0,1,244.21,259.88Z"/>
            <ellipse class="adca5aa9-ab8b-4255-b1fb-7c2bee33a594" cx="225.59" cy="223.84" rx="10.6" ry="8.02" transform="translate(-15.93 17.28) rotate(-4.24)"/>
            <ellipse class="adca5aa9-ab8b-4255-b1fb-7c2bee33a594" cx="295.1" cy="220.41" rx="8.02" ry="10.6" transform="translate(39.18 485.3) rotate(-82.74)"/>
            <path class="adca5aa9-ab8b-4255-b1fb-7c2bee33a594" d="M282.32,165.14s15.33,9.79,32.21,8.25c0,0,4.38,4.64-1.42,7.73,0,0-24.48.77-34.27-9C278.84,172.1,275.49,165.4,282.32,165.14Z"/>
            <path class="adca5aa9-ab8b-4255-b1fb-7c2bee33a594" d="M231.1,165.3s-12.23,12.09-27.83,13.27c0,0-3.18,5.27,2.63,7.39,0,0,22.37-3.16,29.56-14.37C235.46,171.59,237.34,164.46,231.1,165.3Z"/>
            <path class="b341ad70-9c2b-477a-a5ee-9c4616b2a084" d="M204,209.92s17.84-15.42,39-1.57c0,0-7.59-16.3-27.42-10.15C215.59,198.2,206.36,201.25,204,209.92Z"/>
            <path class="b341ad70-9c2b-477a-a5ee-9c4616b2a084" d="M281.43,205.39s21.45-13.58,38.64,3.36c.23,0-3.55-17.12-25.23-13.83-.23,0-.47.08-.7.14C292.32,195.55,284.44,198.07,281.43,205.39Z"/>
            <g>
              <path class="b75de63c-f576-47ff-b02d-4b7f2e346165" d="M333.5,209.73s8.89-19,18.21-13.7c23.28,6.89-.57,57.81-20.15,32.61C331.57,228.64,335,215.59,333.5,209.73Z"/>
              <path class="ec003152-5f94-4602-b6f2-d486695bc562" d="M332.78,229.58c6.58-1.52,9.23-11,2.61-13.94,1.22-3.83,3.95-15.53,9.85-10.7-5.72-6.05-10.05,6.47-10.38,10.77C340.73,218.94,338.53,227.18,332.78,229.58Zm11.62-9.22a50.94,50.94,0,0,1-3.67,4.19c7.4-4.59,9.16-12.64,2.2-18.14C346.16,210.49,348.4,215.85,344.4,220.36Z"/>
            </g>
            <path class="ea89e77c-7a93-4820-8ffd-2cbabb22c78e" d="M177.78,233.59s3-9.8,0-15.57c0,0,12.15-11.28,1.33-27.32,0,0,10.91-11.2,7.47-30.08,0,0,38.1,5.76,43.87-24.82,0,0,30.08,21.06,52.14-2,0,0,8.27,15,30.08,6.26,0,0-8.52,26.07,18.8,26.58,0,0-8,22.05,0,37.1,0,0-2.5,28.32,0,32.08,0,0,20.06-7.95,13.79-29.92,0,0,3.76-5.17,3.76-9.43,0,0,31.34-14.54,12.28-25.32,0,0,13-30.08-14.79-31.34,0,0,11.79-28.83-14.28-35.34,0,0,4.26-39.86-36.85-31.84,0,0-22.57-46.88-65.68,3.51,0,0-51.93-20.68-48.52,20.82,0,0-24.78-12.39-20.13,13,0,0-50.19,2.22-16.41,61.62,0,0-23.23,7.13,1.54,30C146.18,201.63,163.85,227.46,177.78,233.59Z"/>
            <g>
              <path class="b75de63c-f576-47ff-b02d-4b7f2e346165" d="M171.91,215.51s-15.77-21.72-26.17-12.77c-27.56,14.27,14.7,72.42,33.17,36C178.91,238.78,171.43,223.24,171.91,215.51Z"/>
              <path class="ec003152-5f94-4602-b6f2-d486695bc562" d="M171.65,223.36c-1.45-5.32-9.91-20-15.63-11,6.23-7.48,12.49,6.54,14.94,11.06-7.59,5.3-2,16.54,6.66,16.85C169.82,238.64,165.07,228.83,171.65,223.36Zm-12.38-9.72c-7.4,8.58-3.24,18.26,7.15,22.23a67.16,67.16,0,0,1-5.62-4.37C154.69,226.81,156.2,219.53,159.27,213.64Z"/>
            </g>
          </g>
          <circle class="a3ac390b-0cdd-454d-8f87-5cba3d67254c" cx="228.81" cy="217.12" r="2.15"/>
          <circle class="a3ac390b-0cdd-454d-8f87-5cba3d67254c" cx="301.31" cy="214.29" r="2.15"/>
        </g>
        <g>
          <g>
            <path class="b75de63c-f576-47ff-b02d-4b7f2e346165" d="M192.18,234.83a93,93,0,0,0,25,43.37c10.2,9.86,9.7,22.34.31,35.94a10.14,10.14,0,0,1-.95,1.4s-52.95,117.25-96.4,89.51c0,0-27.41-14.56,7.68-104.46,0,0,30.27-7.39,42.72,15.7,0,0,16.09-21,9.34-28.54,0,0-21.43-18.66-13.09-47a5.07,5.07,0,0,1,1.89-2.77c.86-.6,1.91-.87,2.72.45,0,0,2.93-11.28,8.94-8.5a4.26,4.26,0,0,1,2.19,4.69s.94-4.29,4.88-4A5.5,5.5,0,0,1,192.18,234.83Z"/>
            <g>
              <path class="f5ac1203-f625-4e09-8eff-9e13e7eeca44" d="M170.5,316.29S143.62,340,140.4,355"/>
              <path class="e809d99e-73d2-4bba-975b-da8fb98b56fb" d="M170.83,316.67c-3.09,2.71-6.09,5.55-9,8.46s-5.76,5.91-8.47,9a99.8,99.8,0,0,0-7.6,9.77c-2.25,3.43-4.38,7.05-5.34,11.09.87-4.06,2.94-7.74,5.13-11.23a100.1,100.1,0,0,1,7.43-9.95c2.65-3.18,5.44-6.25,8.32-9.23s5.82-5.88,8.89-8.68Z"/>
            </g>
            <g>
              <path class="f5ac1203-f625-4e09-8eff-9e13e7eeca44" d="M182.47,234.32s2.21,19.21,12.69,32.4"/>
              <path class="e809d99e-73d2-4bba-975b-da8fb98b56fb" d="M183,234.26a74.85,74.85,0,0,0,1.57,8.59,82.32,82.32,0,0,0,2.49,8.39,65.7,65.7,0,0,0,3.46,8.05,53.55,53.55,0,0,0,4.67,7.43,53,53,0,0,1-4.89-7.32,65.85,65.85,0,0,1-3.71-8,84.59,84.59,0,0,1-2.75-8.38,78.33,78.33,0,0,1-1.84-8.66Z"/>
            </g>
            <g>
              <path class="f5ac1203-f625-4e09-8eff-9e13e7eeca44" d="M171.36,238.39s1.48,21.34,11.55,30.55"/>
              <path class="e809d99e-73d2-4bba-975b-da8fb98b56fb" d="M171.86,238.36a73.42,73.42,0,0,0,1.07,8.19,67.45,67.45,0,0,0,2,8,46.06,46.06,0,0,0,3.13,7.67,27.1,27.1,0,0,0,4.89,6.67,27.59,27.59,0,0,1-5.11-6.55,46.37,46.37,0,0,1-3.38-7.63,68.22,68.22,0,0,1-2.23-8.06,76.16,76.16,0,0,1-1.33-8.27Z"/>
            </g>
          </g>
          <g>
            <path class="b75de63c-f576-47ff-b02d-4b7f2e346165" d="M332.57,226.91a93.08,93.08,0,0,1-29,40.74c-11.1,8.83-11.8,21.3-3.77,35.74a10.2,10.2,0,0,0,.81,1.49s38.58,113.54,82.58,100.31a12.76,12.76,0,0,0,8.27-7.9c3.51-9.74,5.88-33.75-13.88-88.53,0,0-5.81-5.82-31.26,1.3,0,0-14-22.47-6.54-29.31,0,0,23.13-16.51,17.57-45.55a5.08,5.08,0,0,0-1.62-2.94c-.79-.68-1.82-1-2.75.18,0,0-1.82-11.51-8.07-9.32a4.26,4.26,0,0,0-2.64,4.46s-.52-4.36-4.47-4.43A5.47,5.47,0,0,0,332.57,226.91Z"/>
            <g>
              <path class="f5ac1203-f625-4e09-8eff-9e13e7eeca44" d="M346.29,310.06s24.47,26.16,26.23,41.45"/>
              <path class="e809d99e-73d2-4bba-975b-da8fb98b56fb" d="M346.66,309.72c2.78,3.09,5.43,6.26,8,9.5s5.06,6.57,7.39,10a99,99,0,0,1,6.43,10.62c1.85,3.68,3.55,7.55,4,11.68-.56-4.12-2.34-7.93-4.25-11.56a99.05,99.05,0,0,0-6.62-10.46c-2.39-3.36-4.93-6.61-7.56-9.79s-5.35-6.3-8.16-9.3Z"/>
            </g>
            <g>
              <path class="f5ac1203-f625-4e09-8eff-9e13e7eeca44" d="M342.29,227.31s-4.06,18.91-15.76,31"/>
              <path class="e809d99e-73d2-4bba-975b-da8fb98b56fb" d="M342.78,227.42a75.93,75.93,0,0,1-2.67,8.44,85.21,85.21,0,0,1-3.54,8.08,64.81,64.81,0,0,1-4.47,7.59,52,52,0,0,1-5.57,6.81,52.28,52.28,0,0,0,5.36-6.95,65.73,65.73,0,0,0,4.23-7.67,82.57,82.57,0,0,0,3.29-8.12,77.65,77.65,0,0,0,2.39-8.39Z"/>
            </g>
            <g>
              <path class="f5ac1203-f625-4e09-8eff-9e13e7eeca44" d="M353,232.44s-3.53,21.1-14.44,29.3"/>
              <path class="e809d99e-73d2-4bba-975b-da8fb98b56fb" d="M353.45,232.52a73.73,73.73,0,0,1-2.13,8.11,68.28,68.28,0,0,1-3,7.81,46.43,46.43,0,0,1-4.1,7.27,27.75,27.75,0,0,1-5.72,6,27.65,27.65,0,0,0,5.51-6.17,46.22,46.22,0,0,0,3.85-7.34,67,67,0,0,0,2.74-7.82,75,75,0,0,0,1.85-8Z"/>
            </g>
          </g>
        </g>
      </g>
    </g>
  </g>
</svg>
