<svg id="e058c751-7349-4cbb-a209-6ef5a1c2ce65" data-name="Layer 1" xmlns="http://www.w3.org/2000/svg" xmlns:xlink="http://www.w3.org/1999/xlink" width="500" height="525" viewBox="0 0 500 525">
  <defs>
    <style>
      .b19996dd-dc05-4747-815c-681b2b1c6638, .b2a768e8-c0b0-4253-b1e8-bbac236be061, .b5913845-d291-4854-be1b-0b05ade5435f, .bd2a187e-7a46-4b9c-9620-2b3a39bd8a68 {
        fill: none;
      }

      .b9640e72-f264-4f60-956d-159d08d0408a {
        opacity: 0.5;
      }

      .a9e1e172-b2f7-4c3b-9377-ac9d73c8b0e5 {
        fill: #00b2ed;
        stroke: #fff;
        stroke-width: 0.5px;
      }

      .a36518ef-0562-4cc7-a8ed-f5d2564bb7fe, .a5f773c2-59b5-435d-8c54-67a3850165a0, .a9e1e172-b2f7-4c3b-9377-ac9d73c8b0e5, .aada6a52-67b9-4036-8d41-75bab7589322, .ad0331fb-ba2e-4aef-8bc9-895d1cd0f2bc, .ad6a94af-0157-497e-90ce-e89ff9bf778e, .b0d2e2af-2e67-4d64-b73b-a0fac98296d5, .b2a768e8-c0b0-4253-b1e8-bbac236be061, .b5318183-3389-4a85-bdcf-65efc6e44754, .b5913845-d291-4854-be1b-0b05ade5435f, .b785a754-2058-4c37-97ea-f535ee5e7774, .bd2a187e-7a46-4b9c-9620-2b3a39bd8a68, .bdaeb562-ebb4-46eb-aa1d-6d9822249d3e, .e774d546-d347-4f54-b918-935cb89b4f1b, .efacab81-4860-4c67-b779-2ae2ce5a47e6, .f48210e4-3b3e-4b49-84d0-5f64d5cdb474, .fa7a696c-7a77-4a58-aac4-86ca55567c68, .fb61bf46-bdef-4a73-a438-11814f0fad13 {
        stroke-miterlimit: 10;
      }

      .a76f751d-5025-47f6-be25-a2638b8dbb0f {
        fill: #01687f;
      }

      .a23cbf4d-01b4-4d8c-be7d-df14c8a03646 {
        fill: url(#e9d77028-4667-499c-a0f4-8561eac8bf43);
      }

      .e9e3456b-69f0-415e-baf3-6d5897f59756 {
        clip-path: url(#f92dd36f-bd43-41de-8875-99481336c4d5);
      }

      .f8e3c1cc-be1c-41df-b20f-5c2a2514aa08 {
        fill: #9dc95f;
      }

      .b991f91c-e33e-4516-a482-28d9701ee3f0 {
        fill: #5cc639;
      }

      .ad6a94af-0157-497e-90ce-e89ff9bf778e, .bb0c2050-6b38-48ee-bca0-faa3124d9a49, .f48210e4-3b3e-4b49-84d0-5f64d5cdb474 {
        fill: #f9d1c6;
      }

      .ad6a94af-0157-497e-90ce-e89ff9bf778e, .f48210e4-3b3e-4b49-84d0-5f64d5cdb474, .fa7a696c-7a77-4a58-aac4-86ca55567c68 {
        stroke: #323232;
      }

      .a36518ef-0562-4cc7-a8ed-f5d2564bb7fe, .a5f773c2-59b5-435d-8c54-67a3850165a0, .aada6a52-67b9-4036-8d41-75bab7589322, .ad6a94af-0157-497e-90ce-e89ff9bf778e, .b0c24bc9-508c-47ec-a0c9-7da5468dfc8b, .b0d2e2af-2e67-4d64-b73b-a0fac98296d5, .b5318183-3389-4a85-bdcf-65efc6e44754, .ba9eb381-8608-4afc-9c0a-45ba28b4acac, .eccfa054-bb83-47de-8311-70f4440af83e, .efacab81-4860-4c67-b779-2ae2ce5a47e6, .fa7a696c-7a77-4a58-aac4-86ca55567c68 {
        fill-rule: evenodd;
      }

      .eccfa054-bb83-47de-8311-70f4440af83e {
        opacity: 0.15;
      }

      .b5318183-3389-4a85-bdcf-65efc6e44754 {
        fill: #ffd434;
        stroke: #72721f;
      }

      .a36518ef-0562-4cc7-a8ed-f5d2564bb7fe {
        fill: #ff1f5a;
        stroke: #702020;
      }

      .fa7a696c-7a77-4a58-aac4-86ca55567c68 {
        fill: #f4d1b3;
      }

      .b0d2e2af-2e67-4d64-b73b-a0fac98296d5 {
        fill: #9eb7ba;
        stroke: #586b6b;
      }

      .efacab81-4860-4c67-b779-2ae2ce5a47e6 {
        fill: #484a79;
      }

      .aada6a52-67b9-4036-8d41-75bab7589322, .efacab81-4860-4c67-b779-2ae2ce5a47e6 {
        stroke: #2c3642;
      }

      .aada6a52-67b9-4036-8d41-75bab7589322 {
        fill: #3a3d70;
      }

      .b0c24bc9-508c-47ec-a0c9-7da5468dfc8b {
        fill: #d2d2ea;
      }

      .a5f773c2-59b5-435d-8c54-67a3850165a0 {
        fill: #a62501;
        stroke: #680d0d;
      }

      .b792a889-5d7d-40f6-824d-f71ed46958a3 {
        fill: #540c00;
      }

      .f5458497-b8f7-49a5-80b8-6e78d1bce76d {
        fill: #db9d8e;
      }

      .ad979208-5b7e-4c73-bf39-b07cfd33a1c8 {
        fill: #49442e;
      }

      .ba9eb381-8608-4afc-9c0a-45ba28b4acac {
        fill: #240d00;
      }

      .ac795298-7f20-48b6-806a-f8f2746bb1d2 {
        fill: #f7f3f0;
      }

      .b5601fb1-0980-4dfb-b7c7-791d109204bf {
        fill: #342517;
      }

      .a9054324-3115-4411-a20c-fc6a975b3f90 {
        fill: #0c1618;
      }

      .b1e3b38b-aba3-4241-80eb-e01cf64ce8a4 {
        fill: #ea8a5a;
      }

      .f14fe4fd-d30c-4067-b654-49c0fa703135 {
        fill: #5a0502;
      }

      .b749df9e-9f82-4f62-907f-14f4e19896b2, .fb61bf46-bdef-4a73-a438-11814f0fad13 {
        fill: #fff;
      }

      .a92b4697-0596-43a7-a083-dc75ed702347 {
        fill: #db4545;
      }

      .f25dbdb8-9544-4b7a-89d9-f9b3428a8c8a {
        fill: #0b0000;
      }

      .e11e8fa4-f04d-4007-a508-11dc0b85b0a4 {
        fill: #ffd100;
      }

      .b785a754-2058-4c37-97ea-f535ee5e7774 {
        fill: #421418;
      }

      .ad0331fb-ba2e-4aef-8bc9-895d1cd0f2bc, .b5913845-d291-4854-be1b-0b05ade5435f, .b785a754-2058-4c37-97ea-f535ee5e7774, .bd2a187e-7a46-4b9c-9620-2b3a39bd8a68, .bdaeb562-ebb4-46eb-aa1d-6d9822249d3e, .e774d546-d347-4f54-b918-935cb89b4f1b, .fb61bf46-bdef-4a73-a438-11814f0fad13 {
        stroke: #492c02;
      }

      .ff5ae4b1-9698-47f0-bb54-1027ff616d69 {
        fill: #89939d;
      }

      .a4c24ce2-5099-494a-a787-7073c55c69f8 {
        fill: #d8a957;
      }

      .a34d9067-b409-4230-a2ad-9450b4c086cd {
        fill: #89939c;
      }

      .e774d546-d347-4f54-b918-935cb89b4f1b {
        fill: #cc9a48;
      }

      .ece1b955-08de-48e2-ae54-fc79df9ff444 {
        fill: #976935;
      }

      .bdaeb562-ebb4-46eb-aa1d-6d9822249d3e {
        fill: #683e15;
      }

      .b28b6d4c-b16b-418a-bbec-12f61e4a1adb {
        fill: #141414;
      }

      .e7e12021-718d-43f1-9c11-d2f07b057470 {
        fill: #fffffe;
      }

      .ad546994-d0c7-485f-ab78-365f081610b7 {
        fill: #261503;
      }

      .a39e54fd-e283-4cd0-b2e9-a85b6776267d {
        fill: #492c02;
      }

      .b5913845-d291-4854-be1b-0b05ade5435f {
        stroke-width: 1.27px;
      }

      .b2a768e8-c0b0-4253-b1e8-bbac236be061 {
        stroke: #000;
      }

      .b64a25fb-ed8b-426b-87a6-7db45fa0d99e {
        fill: #e9f8ff;
      }

      .f4a6e0e6-473e-4592-96f1-7192f53125b5 {
        fill: #f7d3b2;
      }

      .fbe38517-37a5-461c-a4de-68cc8c2af0dd {
        fill: #791515;
      }

      .b5812868-52c5-49c7-8db5-5932e30c76d3 {
        fill: #3a0303;
      }

      .ad0331fb-ba2e-4aef-8bc9-895d1cd0f2bc {
        fill: #ec1412;
      }
    </style>
    <linearGradient id="e9d77028-4667-499c-a0f4-8561eac8bf43" x1="249.99" y1="-60.06" x2="249.99" y2="450.11" gradientUnits="userSpaceOnUse">
      <stop offset="0" stop-color="#e5e5e5"/>
      <stop offset="1" stop-color="#00c7e2"/>
    </linearGradient>
    <clipPath id="f92dd36f-bd43-41de-8875-99481336c4d5">
      <path class="b19996dd-dc05-4747-815c-681b2b1c6638" d="M378.31,476.68c-3.19.51-6.39.93-9.55,1.32-76.38,9.45-163.92,9.55-240.33.31-16.73-2-34.47-5-47-16.25C67.63,449.62,63.36,430,60.24,411.68A1244.93,1244.93,0,0,1,42.74,187c.36-28.16-5.65-83.64,10-108.3,14.09-22.2,45.84-30.59,70-32.86,89.73-8.41,179-6.62,269.19-2.57,14.14.63,29,1.72,40.86,9.49C455.31,67.48,458.61,99,458,125.88,455.91,221.53,455.76,317,437.7,411c-3.6,18.76-8.32,38.88-22.78,51.36C404.84,471,391.64,474.57,378.31,476.68Z"/>
    </clipPath>
  </defs>
  <g>
    <path class="b9640e72-f264-4f60-956d-159d08d0408a" d="M394.4,501c-3.46.55-6.93,1-10.36,1.43-82.9,10.25-177,10.36-260,.34-18.15-2.2-37.41-5.4-51-17.64-15-13.5-19.62-34.8-23-54.68a1350.89,1350.89,0,0,1-19-243.88C31.45,156,24.93,95.75,41.92,69c15.29-24.09,49.75-33.2,76-35.66,97.39-9.13,194.23-7.19,292.15-2.79,15.35.69,31.49,1.86,44.34,10.3,24.4,16,28,50.22,27.34,79.39-2.29,103.81-3.31,207.42-22.9,309.39-3.91,20.36-9,42.2-24.73,55.75C423.19,494.8,408.87,498.66,394.4,501Z"/>
    <path class="a9e1e172-b2f7-4c3b-9377-ac9d73c8b0e5" d="M388.4,495c-3.46.55-6.93,1-10.36,1.43-82.9,10.25-177,10.36-260,.34-18.15-2.2-37.41-5.4-51-17.64-15-13.5-19.62-34.8-23-54.68a1350.89,1350.89,0,0,1-19-243.88C25.45,150,18.93,89.75,35.92,63c15.29-24.09,49.75-33.2,76-35.66,97.39-9.13,194.23-7.19,292.15-2.79,15.35.69,31.49,1.86,44.34,10.3,24.4,16,28,50.22,27.34,79.39-2.29,103.81-3.31,207.42-22.9,309.39-3.91,20.36-9,42.2-24.73,55.75C417.19,488.8,402.87,492.66,388.4,495Z"/>
    <path class="a76f751d-5025-47f6-be25-a2638b8dbb0f" d="M380.77,481.13c-3.26.51-6.52.95-9.75,1.35-78,9.64-167.12,9.74-245.11.31-17.08-2.07-35.19-5.08-48-16.59-14.1-12.7-18.45-32.72-21.64-51.42A1270.93,1270.93,0,0,1,38.43,185.4C38.8,156.64,32.67,100,48.64,74.85,63,52.19,95.44,43.62,120.14,41.3c91.6-8.58,182.68-6.76,274.77-2.63,14.45.65,29.63,1.76,41.71,9.7C459.57,63.43,462.94,95.6,462.34,123c-2.15,97.64-2.52,195.09-20.95,291-3.68,19.15-8.49,39.69-23.26,52.43C407.85,475.34,394.37,479,380.77,481.13Z"/>
    <path class="a23cbf4d-01b4-4d8c-be7d-df14c8a03646" d="M378.31,476.68c-3.19.51-6.39.93-9.55,1.32-76.38,9.45-163.92,9.55-240.33.31-16.73-2-34.47-5-47-16.25C67.63,449.62,63.36,430,60.24,411.68A1244.93,1244.93,0,0,1,42.74,187c.36-28.16-5.65-83.64,10-108.3,14.09-22.2,45.84-30.59,70-32.86,89.73-8.41,179-6.62,269.19-2.57,14.14.63,29,1.72,40.86,9.49C455.31,67.48,458.61,99,458,125.88,455.91,221.53,455.76,317,437.7,411c-3.6,18.76-8.32,38.88-22.78,51.36C404.84,471,391.64,474.57,378.31,476.68Z"/>
    <g class="e9e3456b-69f0-415e-baf3-6d5897f59756">
      <g>
        <g>
          <path class="f8e3c1cc-be1c-41df-b20f-5c2a2514aa08" d="M54.47,507.19c-.4,2.47-.8,4.93-1.19,7.4a36.7,36.7,0,0,0,4.31-9c-.07,2.71-.13,5.41-.2,8.12A32,32,0,0,0,62,501.31a93.16,93.16,0,0,1-.85,11.45c.8-.78,3-5.81,3.77-6.6,0,.55-1.33,5.35-1.3,5.91,1.8-1,3.91-3,5.71-4-.36,1.33-1.72,6.17-1.62,7.69,1.88-.54,4.45-5.25,5.2-8.61.07,1.66-.4,5.71-.33,7.36.88,1,2.68-1.49,3-3s4.12,6.18,3.79,6.19c-2.14.11-15.44,2.52-23.1,3.24-1.63.16-8.55,1.88-9-2.37C47,516.67,53.49,508.93,54.47,507.19Z"/>
          <rect class="b991f91c-e33e-4516-a482-28d9701ee3f0" x="44.53" y="514.9" width="400.85" height="22"/>
          <path class="f8e3c1cc-be1c-41df-b20f-5c2a2514aa08" d="M434.72,509.68a7.68,7.68,0,0,0-5,3.52c-.27.43.16-2.68-.17-2.89-.16-.11-.35,0-.51.14l-2.18,1.63a8.34,8.34,0,0,1,.16-3.71L423.52,511c.17-2.92.35-5.84.52-8.76a23.13,23.13,0,0,0-4.29,9.92c-.35-.8-3.21-3.5-2.93-2.61,1,3.32,1.62,6.49,1.75,6.76.48,1,.67,1,1.46,1,1.75-.06,3.53-1.06,5.36-1,2.17.07,5.24.59,7.4.77C432.79,516,432.94,511,434.72,509.68Z"/>
          <path class="b991f91c-e33e-4516-a482-28d9701ee3f0" d="M296.14,508.83a18.59,18.59,0,0,0-2.21,7.35c0,.57-1.29-5-1.46-4.94-.79.36-2,2.83-2.8,3.19-.21-1.21,1.88-6.49,2.26-7.59-1.28.59-4.55,5.15-5.84,5.73l.78-8.48c-2.28,2.51-4,4.74-4.81,8.72-.36-.88-7.44-6-6.92-5.25,3.14,4.24,4,10.11,4.1,10.41.48,1.07,2.15-.24,3-.08,1.86.37,3.79-.18,5.73.32,2.31.59,9-.55,11.34.15C299.31,517.26,296,513.93,296.14,508.83Z"/>
          <path class="f8e3c1cc-be1c-41df-b20f-5c2a2514aa08" d="M411.1,506.72a18.67,18.67,0,0,0-2.21,7.36c0,.57-1.29-5-1.47-5-.79.36-2,2.84-2.79,3.19-.21-1.21,1.87-6.48,2.25-7.58-1.28.59-4.55,5.14-5.83,5.73q.39-4.25.77-8.48c-2.27,2.51-4,4.74-4.81,8.71-.36-.87-7.44-6-6.91-5.24,3.14,4.23,4,10.11,4.09,10.4.49,1.08,2.15-.23,3-.07,1.86.37,3.79-.19,5.73.31,2.31.6,9-.54,11.34.16C414.27,515.15,411,511.83,411.1,506.72Z"/>
        </g>
        <g>
          <g>
            <path class="ad6a94af-0157-497e-90ce-e89ff9bf778e" d="M418.92,254.31a103.43,103.43,0,0,1,20.84,29.37c10.88,23.07,17.64,60.56,17.64,60.56s15.54,14.73,19.39,22.12c2.68,5.13,1.28,8-2.12,4.48-1.45-1.5-4.23-5.79-6.29-7.39,1.5,2.33,8.27,13.46,5.17,15.28s-3.63-3.64-11-12c3.88,6.27,8.13,14.4,5.34,16.5s-7.62-10.63-10.13-13.25c1.63,3.89,4.55,13.89.68,14.08s-5.85-10-8.33-12.9l-7.54-8.05c-.74.81-2.38,7.89-3.49,8.77s-2.67.64-3.87-3.2c-1.89-6.34,2.51-17,2.51-17-4-37.14-15.7-55-41.66-76.57-4.38-3.64-28-24.11-21.84-32.37,7.65-10.31,35.49,2.53,44.71,11.57Z"/>
            <path class="eccfa054-bb83-47de-8311-70f4440af83e" d="M418.92,254.31a103.43,103.43,0,0,1,17.15,22.29A77.22,77.22,0,0,1,413,291a165.06,165.06,0,0,0-16.95-15.9c-4.38-3.64-28-24.11-21.84-32.37,7.65-10.31,35.49,2.53,44.71,11.57Z"/>
            <path class="b5318183-3389-4a85-bdcf-65efc6e44754" d="M432.21,264.71c-3.88,7.73-23.73,11.61-35,14.79-16.9-12.74-30.65-44.55-10.63-48.78,1.91-.41,13.88.67,20.32,3,11.35,4.09,14.66,11.1,25.28,31Z"/>
            <path class="a36518ef-0562-4cc7-a8ed-f5d2564bb7fe" d="M427.13,257.29c-7.69,9.21-17.58,16.56-29.15,19.38l5.71,9.32c6.41-1.28,26.21-12.46,29.31-20.11l-5.87-8.59Z"/>
            <path class="ad6a94af-0157-497e-90ce-e89ff9bf778e" d="M315.63,256.94A105,105,0,0,0,296,287.73C286.08,311.65,281.08,350,281.08,350s-15,15.68-18.55,23.36c-2.46,5.34-.91,8.2,2.37,4.44,1.39-1.59,4-6.07,6-7.8-1.41,2.44-7.72,14.06-4.49,15.75s3.5-3.87,10.57-12.67c-3.63,6.54-7.53,15-4.59,17s7.19-11.15,9.6-13.93c-1.46,4-3.92,14.3,0,14.32s5.44-10.39,7.8-13.49l7.25-8.52c.79.78,2.8,7.88,4,8.72s2.74.52,3.76-3.44c1.61-6.51-3.38-17.14-3.38-17.14,2.26-37.85,13.19-56.54,38.43-79.65,4.27-3.91,27.16-25.81,20.54-33.88-8.26-10.09-35.84,4.28-44.75,13.89Z"/>
            <path class="eccfa054-bb83-47de-8311-70f4440af83e" d="M315.63,256.94a104.88,104.88,0,0,0-16.27,23.43,78.26,78.26,0,0,0,24.09,13.5,167.86,167.86,0,0,1,16.4-16.94c4.26-3.91,27.15-25.81,20.53-33.88-8.26-10.09-35.84,4.28-44.75,13.89Z"/>
            <path class="b5318183-3389-4a85-bdcf-65efc6e44754" d="M302.69,268.13c4.31,7.65,24.62,10.63,36.17,13.3,16.5-13.74,29.49-45.69,9-49-2-.32-16.21,3.06-18.38,3.8-11.73,4-17,11.23-26.77,31.92Z"/>
            <path class="a36518ef-0562-4cc7-a8ed-f5d2564bb7fe" d="M307.47,260.36c8.25,9,18.63,15.94,30.5,18.24l-5.33,9.73c-6.56-1-27.18-11.37-30.7-19l5.53-9Z"/>
            <path class="fa7a696c-7a77-4a58-aac4-86ca55567c68" d="M329.09,493.56s1.81-79.72.57-113.66,25.85-34.57,32-20.94-.24,50.2-2.47,73.74-4.77,60.86-4.77,60.86c2.5,12.06-14.86,15-21.4,11.72s-3.94-11.72-3.94-11.72Z"/>
            <path class="eccfa054-bb83-47de-8311-70f4440af83e" d="M330,435.91c.18-20.61.18-42.14-.32-56a53.41,53.41,0,0,1,.2-7.28,218.09,218.09,0,0,1,15.76-21.75c6.6-1.13,13.34,2.1,16.05,8.09,6.16,13.62-.24,50.2-2.47,73.74-.15,1.54-.29,3.14-.44,4.79-11.11-.14-20.73-.76-28.78-1.58Z"/>
            <path class="b0d2e2af-2e67-4d64-b73b-a0fac98296d5" d="M329.1,492.89l-1.23-20.28c7.15.13,19,.15,28.7.13-1.08,11.8-1.82,20-1.82,20,2.5,12.06-15.9,17.17-22.44,13.86s-4.56-12.81-3.21-13.75Z"/>
            <path class="efacab81-4860-4c67-b779-2ae2ce5a47e6" d="M329.1,492.89c-2.46.5-15,14.94-13.82,24.74h49.2s.91-11.21-9.73-24.85c-19.55,5.61-26.6,2.61-25.65.11Z"/>
            <path class="aada6a52-67b9-4036-8d41-75bab7589322" d="M316.16,516.82h46.95a2.62,2.62,0,0,1,2.62,2.6h0a2.62,2.62,0,0,1-2.62,2.59H316.17a2.62,2.62,0,0,1-2.62-2.59h0a2.61,2.61,0,0,1,2.61-2.6Z"/>
            <path class="b0c24bc9-508c-47ec-a0c9-7da5468dfc8b" d="M324.9,501.1a1.62,1.62,0,0,1-1.87-.64c-.29-.57.08-1.22.82-1.43a29.78,29.78,0,0,1,9.09-.95,15.82,15.82,0,0,1,7.31,1.9.94.94,0,0,1,.23,1.56,1.75,1.75,0,0,1-2,.16,12.37,12.37,0,0,0-5.66-1.4,25.65,25.65,0,0,0-7.88.8Z"/>
            <path class="b0c24bc9-508c-47ec-a0c9-7da5468dfc8b" d="M324,505.15a1.63,1.63,0,0,1-1.88-.64,1,1,0,0,1,.83-1.43,29.72,29.72,0,0,1,9.08-.95,15.79,15.79,0,0,1,7.31,1.9,1,1,0,0,1,.24,1.56,1.75,1.75,0,0,1-2,.16,12.54,12.54,0,0,0-5.67-1.41,26.19,26.19,0,0,0-7.87.81Z"/>
            <path class="fa7a696c-7a77-4a58-aac4-86ca55567c68" d="M414.9,491s-2.49-77.15-1.29-111.09-25.89-34.57-32-20.94.29,50.2,2.55,73.74,4.52,60.19,4.52,60.19l10.05,18L414.9,491Z"/>
            <path class="eccfa054-bb83-47de-8311-70f4440af83e" d="M413.56,434.69c-.32-20-.44-41,.05-54.79,1.2-33.95-25.89-34.57-32-20.94s.29,50.2,2.55,73.74c.13,1.42.27,2.88.4,4.37,9-.43,18.68-1.19,29-2.38Z"/>
            <path class="b0d2e2af-2e67-4d64-b73b-a0fac98296d5" d="M414.91,490.88a177.13,177.13,0,0,0,.55-18.24c-9.07.06-20,.08-28.84,0,1.08,11.61,1.88,20.13,1.88,20.13l10.2,18.06,16.21-20Z"/>
            <path class="efacab81-4860-4c67-b779-2ae2ce5a47e6" d="M388.65,492.78s-4.39,3.1-5.41,10.94a34.92,34.92,0,0,0,1,14l53.13,2,6.07-2.72c1.67-13.74-21.44-22-28.55-26.16-1.88,3.2-20.66,12.89-26.26,1.9Z"/>
            <path class="b0c24bc9-508c-47ec-a0c9-7da5468dfc8b" d="M435.5,502.53c-.64-.5-1.29-1-2-1.46a20.19,20.19,0,0,0-4.73,3.18,1,1,0,0,0,.07,1.49,1.39,1.39,0,0,0,1.73-.1,17.63,17.63,0,0,1,4.89-3.11Z"/>
            <path class="b0c24bc9-508c-47ec-a0c9-7da5468dfc8b" d="M430.91,499.34c-.71-.44-1.42-.87-2.14-1.28a18.24,18.24,0,0,0-3.17,2.34.94.94,0,0,0,.07,1.48,1.37,1.37,0,0,0,1.73-.1,16.29,16.29,0,0,1,3.51-2.44Z"/>
            <path class="aada6a52-67b9-4036-8d41-75bab7589322" d="M384.25,516.82h58.61a2.62,2.62,0,0,1,2.62,2.6h0a2.62,2.62,0,0,1-2.62,2.59h-58.6a2.62,2.62,0,0,1-2.62-2.59h0a2.62,2.62,0,0,1,2.61-2.6Z"/>
            <path class="a5f773c2-59b5-435d-8c54-67a3850165a0" d="M323.46,347.6c-1.65,29-.31,72-.72,81.83l42,0L366.12,378c2.67,0,5.11-.2,7.78-.22l2.86,51.7,44.53-1.62c.29-25-1.8-53.52-2.7-80.28,0,0-80.49-26.43-95.13,0Z"/>
            <path class="b5318183-3389-4a85-bdcf-65efc6e44754" d="M323.46,347.6s2.44-76.31,4.21-90.7c1.57-12.74,9.26-20.11,19.45-23.77,9.06,9.8,31.37,10.06,39.18-2.69,13.51,1.78,23.2,7.88,24.47,25.51,1.56,21.69,7.73,91.57,7.73,91.57,2.7.67-56.83,11.44-95,.08Z"/>
            <path class="ad6a94af-0157-497e-90ce-e89ff9bf778e" d="M378,228.89l-1.7-19.68-23-4-.57,26a30.23,30.23,0,0,0-9.22,3.86c4.69,1.64,13.93,5.62,22.92,5.62s19.13-3.91,22.92-8.79C386.89,230.19,382.58,229.28,378,228.89Z"/>
            <path class="a36518ef-0562-4cc7-a8ed-f5d2564bb7fe" d="M347.63,232.38c5.63,4.32,12.17,6.85,18.81,6.64,9.41-.3,16.75-4.22,19.38-8.78l8,.75c-9.23,18.3-42.77,19.55-55.06,3C340.06,233.48,347.63,232.38,347.63,232.38Z"/>
            <path class="b792a889-5d7d-40f6-824d-f71ed46958a3" d="M357.93,352.73A25.12,25.12,0,0,0,360,355a23.16,23.16,0,0,0,2.25,2,19.37,19.37,0,0,0,2.43,1.62,19.59,19.59,0,0,0,2.61,1.26l.6.27,0,.57c.1,1.45.23,2.89.3,4.33s.16,2.89.2,4.34.07,2.9.08,4.35,0,2.9-.1,4.36c-.32-1.43-.58-2.86-.83-4.29s-.46-2.86-.65-4.29-.37-2.87-.54-4.31-.29-2.88-.43-4.32l.63.84a14.88,14.88,0,0,1-5.42-3.53,13.73,13.73,0,0,1-2-2.54A10.54,10.54,0,0,1,357.93,352.73Z"/>
            <polygon class="eccfa054-bb83-47de-8311-70f4440af83e" points="353.26 231.75 377.66 229.21 375.89 214.04 352.85 210.06 353.26 231.75"/>
          </g>
          <g>
            <g>
              <path class="f48210e4-3b3e-4b49-84d0-5f64d5cdb474" d="M434.82,179.09c-4.55,7.73-13.21,10.6-19.89,7.28s-3.87-7.62.67-15.35,4.68-6.81,11.68-9.51C442.62,155.61,439.36,171.35,434.82,179.09Z"/>
              <path class="f5458497-b8f7-49a5-80b8-6e78d1bce76d" d="M429.63,165a3.91,3.91,0,0,1,3.2.43c1.16.87,1.24,2.47,1,3.84-.69,4.81-3.51,9.21-7.21,12.66a6,6,0,0,1-2.05,1.39,2.51,2.51,0,0,1-2.41-.33,2.3,2.3,0,0,1-.41-2.49c.75-2.14,3-3.47,4.82-4.95a4.31,4.31,0,0,0,1.26-1.4,1.57,1.57,0,0,0-.14-1.73,2.46,2.46,0,0,0-1.36-.66,14,14,0,0,0-3.17-.16c-.37-1.47,1-2.78,2-3.76A9.63,9.63,0,0,1,429.63,165Z"/>
            </g>
            <g>
              <path class="f48210e4-3b3e-4b49-84d0-5f64d5cdb474" d="M308.9,180.09c3.45,7.74,10,10.61,15.09,7.28s2.94-7.61-.51-15.35-3.55-6.81-8.86-9.5C303,156.61,305.45,172.36,308.9,180.09Z"/>
              <path class="f5458497-b8f7-49a5-80b8-6e78d1bce76d" d="M312.83,166a2.35,2.35,0,0,0-2.42.43c-.89.87-.94,2.47-.79,3.84A24.49,24.49,0,0,0,315.09,183a4.77,4.77,0,0,0,1.56,1.39,1.52,1.52,0,0,0,1.82-.32,2.83,2.83,0,0,0,.31-2.49c-.56-2.14-2.26-3.47-3.65-5a4.31,4.31,0,0,1-1-1.4,2,2,0,0,1,.11-1.74,1.76,1.76,0,0,1,1-.65,8.45,8.45,0,0,1,2.4-.17c.29-1.47-.76-2.78-1.49-3.75A7.46,7.46,0,0,0,312.83,166Z"/>
            </g>
            <path class="f48210e4-3b3e-4b49-84d0-5f64d5cdb474" d="M428.24,144c1.87-32.24-14.75-54.1-51.38-55.36-35.55-1.23-56.84,16.47-58.72,48.71-.87,14.9.82,36.68.74,37.49-2.83,28.89,32.76,53.1,53.89,52.83,15-.2,49.31-20.41,49.69-45.17C422.47,181.73,427.37,158.94,428.24,144Z"/>
            <path class="f5458497-b8f7-49a5-80b8-6e78d1bce76d" d="M338.77,116.63s13.86,15.26,42.78,14.26l-8.43-12.45A57.35,57.35,0,0,0,399,131.89l-7.24-12.45s12.46,4.42,18.28,11.85,16.68,22.45,14.67,34.55c-.21,1.2,9.84-13.06,6.82-26.51s-23.3-46.8-23.3-46.8l-43.58-8.24L336.56,85.9l-13.46,3-6,8.24,3.81,29.12s-9.84,20.09-7.83,29.33S318.28,167,318.28,167s-.6-15.86,6.83-23.29S341,130.49,338.77,116.63Z"/>
            <g>
              <path class="bb0c2050-6b38-48ee-bca0-faa3124d9a49" d="M362.51,179.42a17,17,0,0,0,6.86,4.77c4,1.3,10-4.39,10-4.39"/>
              <path class="ad979208-5b7e-4c73-bf39-b07cfd33a1c8" d="M362.51,179.42a41.46,41.46,0,0,0,4.15,2.58,17.24,17.24,0,0,0,2.12.95,7.79,7.79,0,0,0,1.05.33l.46.09h.49a11.54,11.54,0,0,0,4.25-1.29c1.43-.68,2.86-1.48,4.36-2.28a14.16,14.16,0,0,1-3.57,3.63,9.41,9.41,0,0,1-5,1.94l-.74,0a6.85,6.85,0,0,1-.76-.16,3.76,3.76,0,0,1-.67-.22c-.2-.09-.41-.16-.61-.27a11.59,11.59,0,0,1-2.23-1.39A11.93,11.93,0,0,1,362.51,179.42Z"/>
            </g>
            <path class="ba9eb381-8608-4afc-9c0a-45ba28b4acac" d="M406.26,122.66c-2.89-2.07-5.73-2.59-9.32-4.21l-4.49-1.73,6.17,13.57-2-.81a77.1,77.1,0,0,1-23.74-15.26h0l8.24,14.86c-25.49.66-43.59-17.47-43.59-17.47-.8,12.25-.4,13.25-13.86,29.32-7.83,7.84-4.25,20.17-5,28.73-.11.86.72-1.86.61-1-15.27-9-21.74-31.47-13.86-45l-4.84,5.9c-1.59-5.7-2.8-7.71.22-19.76,4.54-16.38,14.58-33.68,30.93-38-5.31-1.86-6.57-1.74-8-6.64a15.23,15.23,0,0,1,14.85,5.21q5.33-11.5,15.43-15.26c-1.36,5.5-4.22,6.18-8.26,11.06,19.8-14.16,50.41-8.43,66.37,3.74,27.63,17.35,25.62,40.25,26.22,58.53-2.61,25.51-13.05,37.36-13.05,37.36h0C426.74,159,418.51,131.89,406.26,122.66Z"/>
            <g>
              <g>
                <ellipse class="ac795298-7f20-48b6-806a-f8f2746bb1d2" cx="394.58" cy="162.22" rx="10.5" ry="11.65"/>
                <path class="b5601fb1-0980-4dfb-b7c7-791d109204bf" d="M405.13,162.22a12.49,12.49,0,0,1-2.81,8.13,10.41,10.41,0,0,1-7.74,4,10.59,10.59,0,0,1-8.2-3.6,13,13,0,0,1,0-17.05,10.64,10.64,0,0,1,8.2-3.6,10.45,10.45,0,0,1,7.74,4A12.47,12.47,0,0,1,405.13,162.22Zm-.1,0a12.28,12.28,0,0,0-2.89-8,9.7,9.7,0,0,0-15.1,0,12.49,12.49,0,0,0,0,15.91,9.7,9.7,0,0,0,15.1,0A12.29,12.29,0,0,0,405,162.22Z"/>
              </g>
              <ellipse class="a9054324-3115-4411-a20c-fc6a975b3f90" cx="390.3" cy="165.1" rx="5.63" ry="6.24"/>
              <ellipse class="ac795298-7f20-48b6-806a-f8f2746bb1d2" cx="394.15" cy="162.14" rx="1.54" ry="1.71"/>
            </g>
            <g>
              <g>
                <ellipse class="ac795298-7f20-48b6-806a-f8f2746bb1d2" cx="346.25" cy="162.22" rx="10.5" ry="11.65"/>
                <path class="b5601fb1-0980-4dfb-b7c7-791d109204bf" d="M356.81,162.22a12.5,12.5,0,0,1-2.82,8.13,10.4,10.4,0,0,1-7.74,4,10.59,10.59,0,0,1-8.2-3.6,12.94,12.94,0,0,1,0-17.05,10.6,10.6,0,0,1,8.19-3.6,10.45,10.45,0,0,1,7.74,4A12.48,12.48,0,0,1,356.81,162.22Zm-.1,0a12.35,12.35,0,0,0-2.9-8,9.7,9.7,0,0,0-15.1,0,12.49,12.49,0,0,0,0,15.91,9.7,9.7,0,0,0,15.1,0A12.36,12.36,0,0,0,356.71,162.22Z"/>
              </g>
              <ellipse class="a9054324-3115-4411-a20c-fc6a975b3f90" cx="341.98" cy="165.1" rx="5.63" ry="6.24"/>
              <ellipse class="ac795298-7f20-48b6-806a-f8f2746bb1d2" cx="345.82" cy="162.14" rx="1.54" ry="1.71"/>
            </g>
            <g>
              <path class="b1e3b38b-aba3-4241-80eb-e01cf64ce8a4" d="M389.08,207.49c0,3.15-1.76,3.87-4.56,3.73-3.24-.15-7.89-1.45-12.81-1.45-5.58,0-10.87,1.74-14.16,1.59-2.12-.1-3.42-1-3.42-3.67A18,18,0,0,1,359.46,195c2.77-2.62,6.75-4.38,12.2-4.13,5.24.25,9.1,1.93,11.84,4.3A16.39,16.39,0,0,1,389.08,207.49Z"/>
              <path class="f14fe4fd-d30c-4067-b654-49c0fa703135" d="M389.08,206.94c0,2.59-1.76,3.18-4.56,3.07-3.24-.13-7.89-1.19-12.81-1.19-5.58,0-10.87,1.42-14.16,1.3-2.12-.08-3.42-.82-3.42-3a13.57,13.57,0,0,1,5.33-10.39c2.77-2.15,6.75-3.59,12.2-3.39,5.24.21,9.1,1.59,11.84,3.53A12.55,12.55,0,0,1,389.08,206.94Z"/>
              <path class="b749df9e-9f82-4f62-907f-14f4e19896b2" d="M383.5,196.85c-11.8,3.58-20.59,1.18-24-.14,2.77-2.15,6.75-3.59,12.2-3.39C376.9,193.53,380.76,194.91,383.5,196.85Z"/>
              <path class="a92b4697-0596-43a7-a083-dc75ed702347" d="M384.52,210c-3.24-.13-7.89-1.19-12.81-1.19-5.58,0-10.87,1.42-14.16,1.3.85-3.82,6.57-6.77,13.5-6.77S383.59,206.24,384.52,210Z"/>
            </g>
            <path class="f25dbdb8-9544-4b7a-89d9-f9b3428a8c8a" d="M388.26,137.47a22.2,22.2,0,0,0,11.94,6.92c7.59,1.54,9,1.54,9,1.54s-13.07,6.46-21.46-2.46C387.78,143.47,384.39,141,388.26,137.47Z"/>
            <path class="f25dbdb8-9544-4b7a-89d9-f9b3428a8c8a" d="M351.16,138a22.22,22.22,0,0,1-11.94,6.92c-7.58,1.54-9,1.54-9,1.54s13.07,6.46,21.46-2.46C351.65,144,355,141.54,351.16,138Z"/>
          </g>
        </g>
        <g>
          <g>
            <polygon class="e11e8fa4-f04d-4007-a508-11dc0b85b0a4" points="206.45 323.53 193.55 348.69 208.73 333.34 221.79 339.72 226.77 319.08 235.48 330.19 257.69 309.59 246.25 292 231.19 316.67 225.37 304.15 213.54 332.14 206.45 323.53"/>
            <polygon class="e11e8fa4-f04d-4007-a508-11dc0b85b0a4" points="215.13 341.09 196.27 354.08 212.99 348.96 219.85 358.52 231.32 345.72 233.27 356.98 257 350.83 255.6 333.89 235.39 345.7 236.06 334.54 216.87 349.95 215.13 341.09"/>
          </g>
          <path class="b785a754-2058-4c37-97ea-f535ee5e7774" d="M172.58,398.43s-13.52,5.11-1.38,18.93c0,0-27.35,3.08-21.91-15.65C149.29,401.71,155.66,387.58,172.58,398.43Z"/>
          <path class="fb61bf46-bdef-4a73-a438-11814f0fad13" d="M206,394.24s-2.57,12.79-5.76,11.6c0,0-.6-2.7-1.73-2.52l-14.09,1.05s-4.16,5.31-4.78,5.35c0,0-1.9-.49-2.24-5.45,0,0-5.66,1.43-7.65.79l-4.44-3.44-3.84,3L157,401.17l0,3.2s-7.23-1.69-6.51-4.18c0,0,.82-12.49,38.89-.88C189.31,399.31,204.89,396,206,394.24Z"/>
          <path class="fb61bf46-bdef-4a73-a438-11814f0fad13" d="M194.76,411.8s-4.36-10.71-7.47-1.27l-9.64,3.24s-8.24-9.3-8.09,2.42l-3.93-2.65s-13.22.89-15-1.27c0,0-.3,16.31,44.24-.17"/>
          <path class="ff5ae4b1-9698-47f0-bb54-1027ff616d69" d="M189.32,399.89s-24.4-8.91-38-2.6c0,0-4,4.63,5.29,6.79,0,0-.24-6.13,3.39-6.28C160,397.8,182.57,398.37,189.32,399.89Z"/>
          <path class="ff5ae4b1-9698-47f0-bb54-1027ff616d69" d="M154.73,363.59s.37,2.39,1.27,2.8c0,0-6.61,1.42-7.08,2.1a6.68,6.68,0,0,1-2.49-1.93S143.83,365.45,154.73,363.59Z"/>
          <path class="ff5ae4b1-9698-47f0-bb54-1027ff616d69" d="M184,360.62s1.42,1.95,2.25,2.07c0,0-3.88,2.94-3.88,3.65a6.78,6.78,0,0,1-2.66-1S177.39,365.06,184,360.62Z"/>
          <g>
            <path class="a4c24ce2-5099-494a-a787-7073c55c69f8" d="M125.11,365.54s2.14,3,4.85,3.88"/>
            <path d="M125.92,365a6.46,6.46,0,0,1,1,1c.32.36.61.75.93,1.13a18,18,0,0,0,2.11,2.19l-.1.32a6.18,6.18,0,0,1-3.28-1,7.53,7.53,0,0,1-1.35-1,4.53,4.53,0,0,1-1-1.41Z"/>
          </g>
          <path class="a34d9067-b409-4230-a2ad-9450b4c086cd" d="M165.71,414s3.3,2.69,4.09,2.66-11.24,2.11-14.67-.49l-2.66-2.71s11.5,1,12.67.54"/>
          <path class="e774d546-d347-4f54-b918-935cb89b4f1b" d="M188.26,399.32S215,402.63,205,379.79c0,0,2.4-4.81-4.55-5.08,0,0-3.46-.47-4.61-1.38a34,34,0,0,0-2.52-3.81l-.12-2.34a8.09,8.09,0,0,0-2.31-.16,12.77,12.77,0,0,0-5.18-10.54s1.73-4.7-5.94-8.7c0,0-4.27.13-4.36,2.32,0,0,3.69-24-10.26-36.89,0,0-15.24-1.77-20,35.6,0,0-11.66-.16-19.86,16.9,0,0-28.51-16.46-29.81-17.31,0,0-12,18.86,30.65,53.06,0,0,5.68,9.73,4,12.65l-2.45-2.43s-4.36,9.32-5.75,11.8c0,0-14.12,12.26-29.11,2.37,0,0-15.11-11.09-19.48-14.69,0,0-8.67-9-21.32-7.28,0,0-27.29-5.48-31.67-26.1-2.89-13.62-4.45-41.18,22-51.2,0,0-13-9.72-28.33,14,0,0-3.11-3.84,3.06-13.91l-2.3-1.82s-12.42,11.32-9.33,28c0,0-4.06-5.06-2.55-13.41L.5,337s-6.7,14.29,5.27,28.65c0,0-4.22.59-12.66-13.79,0,0-2,10.93,11.09,22.92,0,0-4.08-.45-9.49-9.95,0,0-3.32,9.25,15.18,26.7,0,0-6.79-2.25-8-3.51,0,0,1,5.53,8.84,9.47,0,0,1.44,4.47,12.65,7.56,0,0-8.32.43-8.85-.57,0,0-.19,6.5,24.54,8.48,0,0-15.16,14.14-6.7,40.35,0,0-8.9-7.34-10.8-.83,0,0-5.86,11.09-3.83,53.72,0,0-1.67,15,6.21,16.41,0,0,5.72,5.22,13.3.51,0,0,5,7.08,12.73-.91,0,0,11.49.88,7.77-11.12,0,0-4.13-7.5-15.46-7.68A43.41,43.41,0,0,1,40.35,479s12.82,12.3,19.94-7.95c0,0,3,3.67,3.39,4.26,0,0-4.47-.48-3.19,4.66s6.16,31.48,18,37.53c0,0,1.53,1.47,5.11-.07,0,0,4.36,3.81,9.8-1,0,0,6.46,3.26,10.22-4.62,0,0,1.59-9.92-12.5-11.08,0,0-4.12-2.07-4.76-11.56,0,0,4.37,1.22,4.91,1.18A13.5,13.5,0,0,0,97.18,496a85.27,85.27,0,0,0,32.23,26.49s7.86,17.42,24.36,5.72c0,0,3.36,4.74,8.3-.57,0,0,7.85,2.12,6.45-7.2a13.49,13.49,0,0,0-12.43-8.9s-10.87.42-14.44-2.85c0,0-11.09-13.92-14.69-22.71,0,0,1.41,2.5,10.61.43a65.6,65.6,0,0,0,26.34,22.83s-2.42,5.67,21.05,12.08c0,0,3.3,1.13,8-1,0,0,3.65,1.66,9-1.58,0,0,7.37.91,7.23-7,0,0-2.4-9.11-14.4-8.07,0,0-7.18-.3-7.91.38,0,0-1.22-5.45-7.91-8.82,0,0-1.48-3.55-6.36-6.65,0,0-5.6-9.2-5.94-9.65,0,0,3.31-6.37,3.59-11.45,0,0,0-17.75-1.15-20.55,0,0-.88-3.83-2.74-4.95,0,0,4.4-7.45-2.29-9.73,0,0,1.25-4.6,1.91-5.19s23.71,1.41,30.77-9.34c0,0,3.1-12.53-18.91-1.71,0,0-24.28,7.08-29.61-7.51,0,0,2.75-2.84.07-5.62,0,0,.36-8.6,18.05-7.92A94.15,94.15,0,0,1,188.26,399.32Z"/>
          <path class="ece1b955-08de-48e2-ae54-fc79df9ff444" d="M95.44,348.71s12.67,24.58,42.23,28c0,0,11.69,1.56,9,20.52,0,0-17.66,33.45,44,22.06,0,0,3.93,2.3-4.78,4.65,0,0-5.77,3.15-20.11,2.86a46.13,46.13,0,0,0-2.16,5.64s-21.33-2.35-34.42,6.44c0,0-50.71,13.74-52.58-24.59,0,0,7.2,5.47,14.67,10.93s17.51,7.22,30-1.14c0,0,8.5-7.47,9.38-12.08,0,0-1.19-6.81-5.45-11.63C125.26,400.34,85.89,369.55,95.44,348.71Z"/>
          <path class="ece1b955-08de-48e2-ae54-fc79df9ff444" d="M164.73,314.15s-14.16-2-19.43,34.86c0,0,10.63-2.49,16.15-1.25C161.45,347.76,159,321.25,164.73,314.15Z"/>
          <ellipse class="bdaeb562-ebb4-46eb-aa1d-6d9822249d3e" cx="155.52" cy="327.07" rx="8.86" ry="4.82" transform="translate(-206.06 347.51) rotate(-67.8)"/>
          <path class="b28b6d4c-b16b-418a-bbec-12f61e4a1adb" d="M185.38,356.14s-5.24,5.68-6.35,6.56a8.63,8.63,0,0,0-2.78-1.88s2.35,2.61,1.83,4.76c0,0,5.39,9.41,12.76,2.16C190.84,367.74,193.07,364.22,185.38,356.14Z"/>
          <path class="e7e12021-718d-43f1-9c11-d2f07b057470" d="M186.59,358.66c-2-1.34-7.94,5.3-5.08,9.4,1.27,1.81,6.32,3.16,8.72-.51A8.26,8.26,0,0,0,186.59,358.66Z"/>
          <path class="ad546994-d0c7-485f-ab78-365f081610b7" d="M205.48,376.87s-4.61,5-4.88,7.77c0,0-15.21-1.53-16.39-.62,0,0-3.91-3.09,2.56-6.84C186.77,377.18,199.76,371.24,205.48,376.87Z"/>
          <path class="ece1b955-08de-48e2-ae54-fc79df9ff444" d="M13.19,341.1s-22.55,47,20.62,67c0,0,1.87,3.09-4.91,3.54,0,0-11.72-1.86-14.52-7l9,.21s-12-3.19-13-7.68c0,0-7.22-3.86-8.45-8.87l8,3.12s-11.07-11-13.8-17c0,0-2.74-8.54-1.87-10.08,0,0,5.9,9.46,9.61,10.09,0,0-13.33-12.8-11.09-22.76,0,0,6.22,11.52,11.91,13.58,0,0-10.91-15-4.52-28.61l2.17,2.61s-1.25,9.27,2.87,13.46c0,0-3.47-16.17,9.44-28l1.88,1.8S10,337.77,13.56,340.34"/>
          <path class="a39e54fd-e283-4cd0-b2e9-a85b6776267d" d="M175,349.46a63.57,63.57,0,0,0-7-1.26,67.11,67.11,0,0,0-7.07-.56,54.18,54.18,0,0,0-14,1.32,35,35,0,0,0-12.73,5.81,32.78,32.78,0,0,0-9.15,10.63l-.32-.16a31.53,31.53,0,0,1,9-11.12,34.5,34.5,0,0,1,13-6.11A51.47,51.47,0,0,1,161,346.76a60.35,60.35,0,0,1,14.13,2.36Z"/>
          <path class="ad546994-d0c7-485f-ab78-365f081610b7" d="M182,370.18q3.87.88,7.72,1.83c1.28.31,2.58.56,3.84,1a26,26,0,0,1,3.69,1.51l0,.1a27,27,0,0,1-3.94-.65c-1.29-.3-2.53-.77-3.78-1.18q-3.78-1.21-7.53-2.5Z"/>
          <path class="ad546994-d0c7-485f-ab78-365f081610b7" d="M175.9,371.89q2.52,1.38,5,2.83a21.1,21.1,0,0,1,2.46,1.48,13.58,13.58,0,0,1,2.16,1.94l-.06.08A14.06,14.06,0,0,1,182.8,377a22.41,22.41,0,0,1-2.34-1.65q-2.34-1.68-4.62-3.42Z"/>
          <path class="b5913845-d291-4854-be1b-0b05ade5435f" d="M104.38,357.74s-3.48-.86-3.27,2.24"/>
          <path class="b2a768e8-c0b0-4253-b1e8-bbac236be061" d="M120,458.16s13.56,17.95,6.57,27.47"/>
          <path class="a39e54fd-e283-4cd0-b2e9-a85b6776267d" d="M59.85,470.87a1.84,1.84,0,0,1,0-.84c0-.27.07-.56.1-.84.06-.56.09-1.13.11-1.69a27.54,27.54,0,0,0-.14-3.4,39.32,39.32,0,0,0-1.29-6.69,42,42,0,0,0-2.54-6.36c-.47-1.05-1.1-2-1.63-3s-1.22-1.95-1.84-2.93l.16-.11c.69.93,1.41,1.84,2.08,2.78s1.3,1.94,1.84,3l.83,1.54c.28.51.48,1.06.73,1.59a35.08,35.08,0,0,1,1.27,3.27A29.9,29.9,0,0,1,61,464a17.38,17.38,0,0,1,.07,1.76c0,.59,0,1.18,0,1.77s-.09,1.17-.17,1.75c0,.3-.09.59-.15.88a1.54,1.54,0,0,1-.3.85Z"/>
          <path class="b5913845-d291-4854-be1b-0b05ade5435f" d="M101.91,357.91s11.81,16,27.19,17.79l-9.27,1.13,8.74,3.36-8.54-.46,5,3.6"/>
          <path class="a39e54fd-e283-4cd0-b2e9-a85b6776267d" d="M192.19,519.8a6.22,6.22,0,0,0,.11-2.31,4.54,4.54,0,0,0-.87-2.06,7.59,7.59,0,0,0-1.78-1.64l-1.11-.67c-.38-.21-.78-.4-1.17-.64l0-.16c.45,0,.9.12,1.36.19s.88.26,1.33.41a6.57,6.57,0,0,1,2.38,1.64,4.91,4.91,0,0,1,.6,5.67Z"/>
          <path class="a39e54fd-e283-4cd0-b2e9-a85b6776267d" d="M200.91,518.39a6.27,6.27,0,0,0,.14-2.32,4.62,4.62,0,0,0-.84-2.1,7.33,7.33,0,0,0-1.8-1.65l-1.12-.66c-.39-.2-.79-.38-1.19-.6l0-.16c.45.06.9.15,1.35.24s.87.27,1.32.42a6.77,6.77,0,0,1,2.36,1.63,4.81,4.81,0,0,1,.65,5.62Z"/>
          <path class="bdaeb562-ebb4-46eb-aa1d-6d9822249d3e" d="M126.42,468.4s.39-9.49-10.24-15c0,0,7.36,9.86,6,10.63,0,0-7.15-4.23-9.78-3.14,0,0-3.59.86-1.61,6.91,0,0,2,5.19-2.64,8.38,0,0-5.2,4.09.75,12.2,0,0,9.25,10.23,16.93,5,0,0,2.11-2.44,1.14-3.49,0,0-2.29-2.29-.77-3.5,0,0,3.63-4.58,1.24-13.43C127.47,472.92,129.48,469.37,126.42,468.4Z"/>
          <path class="bdaeb562-ebb4-46eb-aa1d-6d9822249d3e" d="M36.81,416.66s-13.48,17.44-2.48,31.19c0,0,9.72,3,12.94-12.25C47.27,435.6,49.88,418.93,36.81,416.66Z"/>
          <path class="bdaeb562-ebb4-46eb-aa1d-6d9822249d3e" d="M38.62,492.18S29.44,480,26.8,491c0,0,2.81,21.89,12.41,13.28C39.21,504.3,43.1,501.11,38.62,492.18Z"/>
          <path class="bdaeb562-ebb4-46eb-aa1d-6d9822249d3e" d="M187,504s-13.44-19.43-22.16-17.16c0,0-12,13,15.32,19.58,0,0,6.08.9,6.86-2.29"/>
          <path class="ece1b955-08de-48e2-ae54-fc79df9ff444" d="M169.44,462.2s-1.88,17.91-32,24.1a61.78,61.78,0,0,0,25.83,22.42s-1,7.36,22.35,12.41c0,0,6.41-3.08-.73-6.26,0,0-11.85-2.46-17.71-8.61,0,0-24.43-22.6,3-21.74l-3.61-5.67S172.55,468.13,169.44,462.2Z"/>
          <path class="ece1b955-08de-48e2-ae54-fc79df9ff444" d="M90.18,466.81S81.64,483.26,97,495.88c0,0,13.89,19.84,32.24,26.5,0,0,6.5,10.9,16.41,8.85,0,0,4-6.5-3.82-8.06,0,0-42.2-19.38-44.58-51.81l-6.54-5.66Z"/>
          <path class="ece1b955-08de-48e2-ae54-fc79df9ff444" d="M149.75,520.82s4,.56,3.35,6.73c0,0,2.48,3.6,6.13,1.1A9,9,0,0,0,149.75,520.82Z"/>
          <path class="ece1b955-08de-48e2-ae54-fc79df9ff444" d="M80.39,509.61s4,.55,3.35,6.72c0,0,2.48,3.61,6.13,1.1A9,9,0,0,0,80.39,509.61Z"/>
          <path class="ece1b955-08de-48e2-ae54-fc79df9ff444" d="M89.85,508.62s4,1.1,3.35,7.27a7,7,0,0,0,7-.63S98.47,508.55,89.85,508.62Z"/>
          <path class="ece1b955-08de-48e2-ae54-fc79df9ff444" d="M45.57,514.81s4.07.59,4.25,6.79a7,7,0,0,0,6.91-1.53S54.11,513.64,45.57,514.81Z"/>
          <path class="ece1b955-08de-48e2-ae54-fc79df9ff444" d="M34.87,515.75s3.73,1.73,2.12,7.72c0,0,4.24,3.44,8.25,1.56A12.86,12.86,0,0,0,34.87,515.75Z"/>
          <path class="ece1b955-08de-48e2-ae54-fc79df9ff444" d="M157,519.78s3.71.69,4.46,6.69a4.5,4.5,0,0,0,5.76-1.44S164.22,517.68,157,519.78Z"/>
          <path class="a39e54fd-e283-4cd0-b2e9-a85b6776267d" d="M160.64,527.82a.13.13,0,0,1,0-.08l.05-.14c0-.09.07-.2.1-.29a5.15,5.15,0,0,0,.16-.62,5.3,5.3,0,0,0,.14-1.24,3.52,3.52,0,0,0-.71-2.23,6.67,6.67,0,0,0-2-1.6l-1.27-.57c-.44-.16-.89-.3-1.34-.49v0c.48,0,1,0,1.45.08s1,.18,1.44.3a6.24,6.24,0,0,1,2.66,1.55,4.23,4.23,0,0,1,1.14,3,5.13,5.13,0,0,1-.28,1.57,3.9,3.9,0,0,1-.31.73c-.07.11-.12.23-.2.35l-.11.17c-.05.06-.12.15-.19.22Z"/>
          <path class="a39e54fd-e283-4cd0-b2e9-a85b6776267d" d="M152.67,528.81a2.38,2.38,0,0,1,0-.36l0-.19,0-.35.07-.64a8.6,8.6,0,0,0,0-1.24,4.47,4.47,0,0,0-.63-2.24,5.38,5.38,0,0,0-1.82-1.65c-.37-.23-.79-.37-1.18-.58l-1.27-.45,0-.09c.45,0,.91.08,1.37.14a11.15,11.15,0,0,1,1.34.37,5.25,5.25,0,0,1,2.38,1.65,4.7,4.7,0,0,1,1,2.79,5.88,5.88,0,0,1-.1,1.46,5,5,0,0,1-.15.69l-.09.32,0,.14s0,0,0,0Z"/>
          <path class="ece1b955-08de-48e2-ae54-fc79df9ff444" d="M90.94,500.52s-14.39,1.36-16.26,10.67c0,0,8.44-.57,5.34,5.56l-.07.12s-8.28,3.69-17.11-28.23c0,0-5.28-13.85.55-13.43,0,0,10.4,9.72,23.11,13.89C86.5,489.1,85.65,496.22,90.94,500.52Z"/>
          <path class="a39e54fd-e283-4cd0-b2e9-a85b6776267d" d="M83,517.26A8.15,8.15,0,0,0,83,515a4.79,4.79,0,0,0-.81-2,7.18,7.18,0,0,0-1.76-1.66l-1.09-.69c-.39-.2-.79-.39-1.18-.63l0-.16c.46.05.9.13,1.36.2s.89.26,1.34.4A6.93,6.93,0,0,1,83.33,512a4.83,4.83,0,0,1,1.27,2.78,4.43,4.43,0,0,1-.7,2.92Z"/>
          <path class="a39e54fd-e283-4cd0-b2e9-a85b6776267d" d="M92.65,516.18a6.86,6.86,0,0,0,0-2.3,4.79,4.79,0,0,0-.85-2,8.41,8.41,0,0,0-1.74-1.67L89,509.47c-.38-.21-.77-.43-1.16-.69a12.69,12.69,0,0,1,1.37.13,13.63,13.63,0,0,1,1.35.38A6.39,6.39,0,0,1,93,510.9a4.88,4.88,0,0,1,1.24,2.79,4.68,4.68,0,0,1-.68,2.92Z"/>
          <path class="a39e54fd-e283-4cd0-b2e9-a85b6776267d" d="M49.09,522.18a6.26,6.26,0,0,0,.16-2.32,4.59,4.59,0,0,0-.85-2.1,7.44,7.44,0,0,0-1.8-1.68l-1.11-.68c-.39-.2-.79-.39-1.19-.62.45,0,.89.13,1.35.2s.88.26,1.32.41a6.64,6.64,0,0,1,2.36,1.6,4.85,4.85,0,0,1,.67,5.62Z"/>
          <path class="a39e54fd-e283-4cd0-b2e9-a85b6776267d" d="M36.25,523.25a4.85,4.85,0,0,0,.35-2.39,5.13,5.13,0,0,0-.83-2.22A6.88,6.88,0,0,0,34,516.9c-.37-.23-.75-.46-1.14-.68s-.81-.38-1.22-.59c.45.07.9.17,1.35.25s.88.29,1.32.46A6.86,6.86,0,0,1,36.58,518a4.65,4.65,0,0,1,1.08,2.76,6.35,6.35,0,0,1-.51,2.9Z"/>
          <path class="ece1b955-08de-48e2-ae54-fc79df9ff444" d="M41.39,478.13a21.67,21.67,0,0,1-4.49-6.19s-15.72-9.66-15.31-19.57c0,0-6.53,10.45-3.68,52.93,0,0-1.68,15.35,6.43,17.09,0,0,12.35,4.92,6-6a20.7,20.7,0,0,0-3.91-3s-8.92-13.81-1.82-42.45c0,0,6.48,3.77,10.5,2.87C35.09,473.75,39.27,478,41.39,478.13Z"/>
          <path class="bd2a187e-7a46-4b9c-9620-2b3a39bd8a68" d="M23.77,522.49s2.93-6.72-6.31-9.91c0,0-.21,8.42,6.13,10.17"/>
          <path class="a39e54fd-e283-4cd0-b2e9-a85b6776267d" d="M90.63,490a26.51,26.51,0,0,1-2.4-6.29,27,27,0,0,1-.81-6.7,21.36,21.36,0,0,1,1-6.68,20.93,20.93,0,0,1,3-6l.22.14a26.75,26.75,0,0,0-2.46,6.07l-.23.78-.14.81c-.09.53-.22,1.06-.27,1.6a32.21,32.21,0,0,0-.2,3.25,30.08,30.08,0,0,0,.73,6.48,33.51,33.51,0,0,0,2,6.22Z"/>
          <path class="bd2a187e-7a46-4b9c-9620-2b3a39bd8a68" d="M170.27,461.27S166.05,480.32,137,486.6"/>
          <path class="a39e54fd-e283-4cd0-b2e9-a85b6776267d" d="M125.28,399.91a20,20,0,0,0,1.83,2,8.36,8.36,0,0,0,2.18,1.56l0,.19a8.72,8.72,0,0,1-2.58-1.17,20.45,20.45,0,0,1-2.29-1.69Z"/>
          <g>
            <ellipse class="b28b6d4c-b16b-418a-bbec-12f61e4a1adb" cx="185.36" cy="364.18" rx="2.95" ry="4.99" transform="translate(-189.35 201.15) rotate(-39.51)"/>
            <ellipse class="b64a25fb-ed8b-426b-87a6-7db45fa0d99e" cx="185.54" cy="361.74" rx="0.27" ry="0.46" transform="translate(-180.79 185.43) rotate(-37.15)"/>
          </g>
          <path class="bd2a187e-7a46-4b9c-9620-2b3a39bd8a68" d="M63.27,474.65s14.52,12.7,23.7,14.64"/>
          <ellipse class="bdaeb562-ebb4-46eb-aa1d-6d9822249d3e" cx="137.39" cy="357.53" rx="8.86" ry="4.82" transform="translate(-166.11 123.89) rotate(-31.39)"/>
          <g>
            <path class="b28b6d4c-b16b-418a-bbec-12f61e4a1adb" d="M158.22,360.39s3.3,4.27,2.48,5.9c0,0-10.77-3.12-16.89.95,0,0,.32,13.8,13.09,13.63,0,0,12.93-.86,4.91-12.76l1.24-.15S163.66,364.08,158.22,360.39Z"/>
            <ellipse class="e7e12021-718d-43f1-9c11-d2f07b057470" cx="154.36" cy="373.61" rx="6.28" ry="8.79" transform="translate(-249.73 362.46) rotate(-65.97)"/>
          </g>
          <g>
            <ellipse class="b28b6d4c-b16b-418a-bbec-12f61e4a1adb" cx="155.73" cy="371.99" rx="3.75" ry="6.33" transform="translate(-201.09 184.08) rotate(-39.51)"/>
            <ellipse class="b64a25fb-ed8b-426b-87a6-7db45fa0d99e" cx="155.95" cy="368.9" rx="0.34" ry="0.59" transform="translate(-191.11 169.02) rotate(-37.15)"/>
          </g>
          <ellipse class="f4a6e0e6-473e-4592-96f1-7192f53125b5" cx="193.97" cy="376.18" rx="2.74" ry="0.86" transform="translate(-79.75 53.36) rotate(-13.02)"/>
          <ellipse class="fbe38517-37a5-461c-a4de-68cc8c2af0dd" cx="157.27" cy="456.45" rx="7.37" ry="5.76" transform="translate(-317.32 545) rotate(-81.56)"/>
          <path class="b5812868-52c5-49c7-8db5-5932e30c76d3" d="M130.34,413a12.8,12.8,0,0,1-1.86,3.34S127.19,412.22,130.34,413Z"/>
          <path class="b5812868-52c5-49c7-8db5-5932e30c76d3" d="M165.64,430.08h-.58l-.4,2,.37.24A3.37,3.37,0,0,0,165.64,430.08Z"/>
          <path class="ad0331fb-ba2e-4aef-8bc9-895d1cd0f2bc" d="M165.77,430.32s4.11,2,3.79,9.44c-.15,3.44-3.66,7.47-6.49,8.34-10.8,3.28-33.16,2.27-44-21.84,0,0-1.44-2.9-.29-5.46,0,0,.23-2.31,6.94-8.59a2.6,2.6,0,0,1,3.84.29l.09.13s-4.29,1.05.43,7.67c0,0,14.55,18.9,33.8,12.72A2.16,2.16,0,0,0,165.77,430.32Z"/>
          <path class="fbe38517-37a5-461c-a4de-68cc8c2af0dd" d="M129,412.43a2.22,2.22,0,0,0-2.85-.07s-7.89,6.49-7.45,10.72c0,0-1.3,4.06,9,15.67a49.11,49.11,0,0,0,6.08,4.67s1.75-9.56,8.4-12.55c0,0-13-7.49-14.7-14.88A3.22,3.22,0,0,1,129,412.43Z"/>
          <ellipse class="ad0331fb-ba2e-4aef-8bc9-895d1cd0f2bc" cx="158.65" cy="456.59" rx="7.37" ry="5.76" transform="translate(-316.28 546.49) rotate(-81.56)"/>
        </g>
      </g>
    </g>
  </g>
</svg>
