<svg id="Layer_1" data-name="Layer 1" xmlns="http://www.w3.org/2000/svg" viewBox="0 0 985 285"><path d="M833.29,165.3,826,141.89c-8.81-28.26-29.18-44.46-55.89-44.46-1,0-2,0-3,.07-18.53.88-29.44,8.86-35.33,15.39l-.42.5a43.38,43.38,0,0,0-26-14l-.27,0a54.17,54.17,0,0,0-6.92-.54V88.67l-26.86,9.82c-5.46,2-14.5,3.05-18.88,3.25l-21.21.9.31,3.08a47.72,47.72,0,0,0-25.31-7.23h-.47a47.27,47.27,0,0,0-26.34,8.27l.23-3.2a35,35,0,0,0,.49-6.9l.31-4.29-.66.15a39.05,39.05,0,0,0-.85-4.31l-.09-.33C575,73.83,561.76,64.39,546,64.39A41.24,41.24,0,0,0,529.23,68a38.63,38.63,0,0,0-6.75,3.75l-22.37-1c-.58,0-14.41-.63-28.3-.83l-15.18-.22-4.3,14.55c-1.52,5.17-2.91,10.38-4.13,15.58l-9.53.45-.86,6a47.83,47.83,0,0,0-26.31-7.87H411c-14.39.11-27.67,6.66-37.53,18.44-6.71-9.45-15.88-15.54-26.69-17.67a42.42,42.42,0,0,0-27.35,3.84,39,39,0,0,0-11.39-3.89c-.47-.09-.94-.16-1.4-.23l1-12.59L278.32,97.32a50,50,0,0,1-9.84,2.22,205.77,205.77,0,0,1,1-27.35l3-23.79-23.94,1.34-18.2,1c-20,1.09-40.71,2.22-58.22,3.47l-20.43,1.46,1.95,20.4C158.08,122.17,158,177.8,156,210l-1.57,25.71,25.3-4.86A335.6,335.6,0,0,1,240,224.3l-1.13,12.3,25.74-4.49c11.37-2,25.8-2.76,25.94-2.77l14.3-.74c4,.5,8.6,1.2,13.1,2.16l19.79,4.2,1.68-8.38a148.31,148.31,0,0,1,16,2.52l18.83,4.16,3.86-14.89a54.62,54.62,0,0,0,33.73,11.68h0c1.17,0,2.34,0,3.54-.12,15.79-1.12,28.89-8.25,37.93-19.57a43.76,43.76,0,0,0,28.92,18.89,49.85,49.85,0,0,0,8.89.82,44.91,44.91,0,0,0,17-3.31L507,234.58l27.14-4.23c14.91-2.33,29.49-3.91,29.64-3.93l18.66-2a55.41,55.41,0,0,0,24.22,5.65h0c1.16,0,2.33,0,3.54-.12a54.09,54.09,0,0,0,23-6.76l-.69,8.87,22.25-.65c2-.06,4.07-.09,6.28-.09,10.41,0,19.9.64,20.09.65l23.67,1.65-.63-6.19c4.24.65,8.91,1.42,13.4,2.24l18.9,3.46,2.81-12.49c9.92,6,21.3,9.18,34.09,9.36h.88c30.51,0,52.28-17.75,52.94-43.22a39.66,39.66,0,0,0-4.84-20.36Z" fill="#1e1221"/><path d="M249.68,173.34c-15.79.41-34.41,3.24-46,6.88.61-9.31,1-20.44,1-31.57a198.42,198.42,0,0,1,23.68,2,214.64,214.64,0,0,1-.6-23.07c-8.3,1.41-17.41,2.63-23.08,3.44-.2-10.12-.4-19.84-.61-27.53,13.57-.41,30.37,0,44.74,4.25a220,220,0,0,1,.81-38.05c-25.3,1.41-53.44,2.83-76.11,4.45,4.25,44.33,4.66,100.4,2.43,137,25.3-4.86,48.38-7.28,74.08-6.88A195,195,0,0,1,249.68,173.34Z" fill="#33ffd8" stroke="#331d38" stroke-miterlimit="10" stroke-width="3"/><path d="M343,118.89c-8.3-1.62-17.21,1.42-24.29,10.33-3.64-5.87-8.3-9.32-14.17-10.33-6.48-1.21-13.36.41-19.43,5.27,0-2.84,0-5.47.2-8.1-10.32,3.84-24.69,4.25-24.69,4.25,4.05,27.53,3.24,63.36.6,92.1a279.85,279.85,0,0,1,28.34-3c-1.62-13.36-3.44-39.67-4.25-64a8.66,8.66,0,0,1,8.5-2.23c7.69,2.43,10.33,34.21,1.22,64.37a209.29,209.29,0,0,1,27.12,3.64c5.47-27.32,6.07-50.2,2.43-66.59a7.74,7.74,0,0,1,7.89-1.62c9.11,3.24,9.11,35.22-.2,63a183.68,183.68,0,0,1,27.53,3.64C372.34,161.2,365.66,123.35,343,118.89Z" fill="#33ffd8" stroke="#331d38" stroke-miterlimit="10" stroke-width="3"/><path d="M411.2,118.49c-25.3.2-39.07,33.8-33.2,61.94,5.06,24.49,24.09,30.36,36,29.55,22.87-1.62,34.21-21.66,32.79-45.95C445.2,136.1,429.41,118.29,411.2,118.49Zm.61,72.26c-5.47.61-11.14-3.85-12.76-14.57-2.22-12.76,3-26.93,11.74-27.73,6.08-.41,11.54,7.48,12.55,20.24C424.15,179.41,419.9,189.94,411.81,190.75Z" fill="#33ffd8" stroke="#331d38" stroke-miterlimit="10" stroke-width="3"/><path d="M488.11,183.46c-4.45-1.62-5.66-21.45-1.41-46.75a205.23,205.23,0,0,1,21.86,2.22,143.82,143.82,0,0,1,2.22-22.26l-20,1a171.94,171.94,0,0,1,8.51-26.92s-14-.61-27.73-.81a267.65,267.65,0,0,0-6.89,29.15l-8.5.4s-1.21,8.5-1.62,17.61c0,0,2.84-.2,7.49-.4-3.84,35.21.41,68.61,23.89,72.86,16.59,3,31.78-7.89,34.81-35.62,0,0-12.35-5.67-25.91-10.32C495,175.37,492.57,185.28,488.11,183.46Z" fill="#33ffd8" stroke="#331d38" stroke-miterlimit="10" stroke-width="3"/><path d="M558.55,118.08a206.69,206.69,0,0,1-28.74,4.46c3.64,24.89,5.26,62.54,1.21,88.05,15.59-2.43,30.57-4.05,30.57-4.05C558.75,184.88,556.93,140.75,558.55,118.08Z" fill="#33ffd8" stroke="#331d38" stroke-miterlimit="10" stroke-width="3"/><path d="M548.83,111.81c10.12-3.44,12.55-11.54,10.73-18.62-2.23-8.1-12.95-11.14-22.26-6.89-8.1,3.45-11.74,10.73-9.72,17.82C529.6,111.81,539.52,114.84,548.83,111.81Z" fill="#33ffd8" stroke="#331d38" stroke-miterlimit="10" stroke-width="3"/><path d="M605.91,118.49c-25.3.2-39.06,33.8-33.19,61.94,5.06,24.49,24.08,30.36,36,29.55,22.87-1.62,34.2-21.66,32.79-45.95C639.92,136.1,624.13,118.29,605.91,118.49Zm.61,72.26c-5.47.61-11.13-3.85-12.75-14.57-2.23-12.76,3-26.93,11.74-27.73,6.07-.41,11.54,7.48,12.55,20.24C618.87,179.41,614.62,189.94,606.52,190.75Z" fill="#33ffd8" stroke="#331d38" stroke-miterlimit="10" stroke-width="3"/><path d="M702.26,119.1a29.28,29.28,0,0,0-24.09,7.08v-8.91c-10.53,3.85-24.9,4.46-24.9,4.46,2.84,27.73,3,60.92.81,89.67,13.77-.41,28.34.6,28.34.6-1.62-16-3.24-40.68-4-63.76,3.44-4.65,7.29-6.27,11.34-5.06,8.5,2.43,11.13,33.8,1.21,62.14,0,0,15.79,2,30.16,4.66C732.82,157.76,726.75,122.94,702.26,119.1Z" fill="#33ffd8" stroke="#331d38" stroke-miterlimit="10" stroke-width="3"/><path d="M765.61,146.62c-.81-6.27,9.11-6.88,15.18,8.91a80,80,0,0,1,26.11-7.69c-4.86-15.59-16-31.38-38.86-30.36-21.25,1-27.93,15.18-27.33,25.9.61,13.36,11.14,20.85,23.08,25.91,13.16,5.67,14.77,10.93,12.35,14-3,3.64-15.39.2-22.27-13.76a139.56,139.56,0,0,0-18.22,21.05c10.73,14.37,23.48,19.23,37.85,19.43,18.22.2,33.2-8.1,33.6-23.68C807.71,160.19,768,163.63,765.61,146.62Z" fill="#33ffd8" stroke="#331d38" stroke-miterlimit="10" stroke-width="3"/></svg>