<svg id="bde044d5-b1f9-468c-920b-6f92fb3638f7" data-name="Layer 1" xmlns="http://www.w3.org/2000/svg" width="35.7" height="34.24" viewBox="0 0 35.7 34.24">
  <defs>
    <style>
      .e7bba55d-aaf0-4921-ad6f-ba69798e9e00, .eb286a91-4549-4d93-9aa0-3a2cc18f0bf1 {
        fill: #fff;
      }

      .eb286a91-4549-4d93-9aa0-3a2cc18f0bf1 {
        stroke: #722a2a;
        stroke-miterlimit: 10;
      }

      .af98b9c0-ce67-4fca-aff7-316628589bfc {
        fill: #230b04;
      }

      .bdd9e837-dc52-4569-9db5-26a428cef377 {
        fill: #160602;
      }
    </style>
  </defs>
  <g>
    <ellipse class="eb286a91-4549-4d93-9aa0-3a2cc18f0bf1" cx="17.85" cy="17.12" rx="16.85" ry="16.14"/>
    <path class="af98b9c0-ce67-4fca-aff7-316628589bfc" d="M18,6.44A12.49,12.49,0,0,1,30.18,19.31a12.66,12.66,0,0,1-12.41,12.8A12.49,12.49,0,0,1,5.58,19.24,12.65,12.65,0,0,1,18,6.44Z"/>
    <path class="e7bba55d-aaf0-4921-ad6f-ba69798e9e00" d="M20.66,16.18c-1.1-2.71-8.18-6.43-8.2-2.09a3.89,3.89,0,0,0,1.08,2.23,4.9,4.9,0,0,0,3.88,2.08C20.45,18.39,21.14,17.39,20.66,16.18Z"/>
    <path class="bdd9e837-dc52-4569-9db5-26a428cef377" d="M19.7,30.66c15.91-2.82-8.52-13.91-9.08-4.09C10.48,29.18,15.43,31.42,19.7,30.66Z"/>
  </g>
</svg>
