<svg xmlns="http://www.w3.org/2000/svg" xmlns:xlink="http://www.w3.org/1999/xlink" width="500" height="525" viewBox="0 0 500 525">
  <defs>
    <style>
      .ba0e5553-e3df-4041-8712-46b0c2e939c8, .e8a29bc4-f7bf-4619-a373-b32240594521, .fcce5ad2-74b6-4eba-8ae1-91ad09189053 {
        fill: none;
      }

      .aabeb294-f904-4496-8f8d-48a398e192e3, .fcce5ad2-74b6-4eba-8ae1-91ad09189053 {
        opacity: 0.5;
      }

      .ebce0573-ece9-4c08-83a2-d1ffdcf384a8 {
        isolation: isolate;
      }

      .a8b8e3aa-97ac-4df2-9f77-f00877333e23 {
        clip-path: url(#fd3a473f-eb7b-4ccc-a9e8-ee2e7532e965);
      }

      .bf9cc1e4-175d-4c10-b12b-831f9a640c39 {
        clip-path: url(#bfc63e2b-ecaf-4fa2-94e5-a45593a9c715);
      }

      .e69bdc22-53eb-4e8a-bdb8-d1e3766eb948 {
        fill: url(#bfd7d232-358d-49ce-918e-0897390fe4b0);
      }

      .f6f04181-37b9-42b5-bb0a-64265392356b {
        fill: #868686;
      }

      .fe17d28b-da85-46d0-b187-5440a17e32b1 {
        fill: #6d6d6d;
      }

      .b36b6c3d-8313-4eac-b111-d99f9332b98a {
        fill: #569b44;
      }

      .effe2034-1787-4d32-a1c0-9f47305fa7a0 {
        fill: #00b2ed;
        stroke: #fff;
        stroke-width: 0.5px;
      }

      .a4e74562-bea4-44e9-9dbf-5fee972a2ef4, .adc0545b-75ba-4a26-90cb-bc644522b99d, .aee9eaa0-37e1-4884-af59-ae6457613330, .b1b5b399-539d-4b47-8a2c-829d0940fccd, .baed2a49-6edb-47b3-a708-c4bed2beff24, .bce57a22-bf90-46c4-899f-b2573ca89752, .bfb4b526-5722-4fcc-b88d-af16b05357d1, .e8a29bc4-f7bf-4619-a373-b32240594521, .effe2034-1787-4d32-a1c0-9f47305fa7a0, .f2207386-4df8-42d2-a8ef-81369a626470, .fed675c5-f04c-414a-ae59-fc7087a42649 {
        stroke-miterlimit: 10;
      }

      .b51fe9be-d771-457c-b614-7dc655005d26 {
        fill: #01687f;
      }

      .e1902ce6-d3cc-4b52-bd69-becfd9dea2c5 {
        fill: #82aa5c;
      }

      .a7c09583-9f5d-4d10-a65c-0cf156952d76 {
        clip-path: url(#a8338590-f39e-47fe-91db-1640f9865b2e);
      }

      .a8cadcda-07c4-49c5-aa0b-495dad7613e4 {
        fill: #342516;
      }

      .bfb4b526-5722-4fcc-b88d-af16b05357d1, .f7d77136-a44c-42ac-ba42-00856f287af1 {
        fill: #f9dad2;
      }

      .bfb4b526-5722-4fcc-b88d-af16b05357d1 {
        stroke: #4c2606;
      }

      .adc0545b-75ba-4a26-90cb-bc644522b99d, .aee9eaa0-37e1-4884-af59-ae6457613330, .baed2a49-6edb-47b3-a708-c4bed2beff24, .e8a29bc4-f7bf-4619-a373-b32240594521, .f2207386-4df8-42d2-a8ef-81369a626470 {
        stroke: #563b35;
      }

      .adc0545b-75ba-4a26-90cb-bc644522b99d {
        fill: url(#b4d57ff5-1fb0-4abb-adf8-97c2e02da788);
      }

      .bce57a22-bf90-46c4-899f-b2573ca89752 {
        fill: #fbd3c7;
        stroke: #453323;
      }

      .a3485746-1b45-41b2-bdcf-b8a173ecf409, .b9db072a-d3bc-40cf-a35c-45e474df4c39 {
        fill: #dd9f8f;
      }

      .b9db072a-d3bc-40cf-a35c-45e474df4c39 {
        opacity: 0.4;
      }

      .aee9eaa0-37e1-4884-af59-ae6457613330 {
        fill: url(#a7b1d616-6d15-41d0-a664-db88f3bfbeca);
      }

      .b1b5b399-539d-4b47-8a2c-829d0940fccd {
        fill: #94c3e4;
        stroke: #63a6ce;
      }

      .a3485746-1b45-41b2-bdcf-b8a173ecf409 {
        opacity: 0.44;
      }

      .bc9a2669-4b96-4456-bf42-41226f080775 {
        fill: #fc6a06;
      }

      .a4e74562-bea4-44e9-9dbf-5fee972a2ef4 {
        fill: #e7d760;
        stroke: #baa73b;
      }

      .f2207386-4df8-42d2-a8ef-81369a626470 {
        fill: url(#ee5a7856-792e-4679-b0fb-78de4b0459f2);
      }

      .baed2a49-6edb-47b3-a708-c4bed2beff24 {
        fill: url(#aaa2b426-cddb-4d39-af67-bc91eb5971fa);
      }

      .e88dbb37-9af3-4d8d-8e59-80a2a2f2d815 {
        fill: #b26b51;
      }

      .ba73ae23-0064-47d2-a128-6651bb0c33ef {
        fill: #c68f4e;
      }

      .b88193fd-fc16-4810-8c42-85e5afefeb9d {
        opacity: 0.3;
      }

      .e9a97740-ea92-4714-90c7-c8c490d15f1b {
        fill: #487feb;
      }

      .aa03fe05-dbe3-46f6-8c1a-31636ecfb33e {
        fill: #ceb4de;
        mix-blend-mode: multiply;
      }

      .eda71b95-da1d-4890-998f-cdcb7097daf3 {
        fill: #f9c138;
      }

      .e567c50c-839b-4eaa-bbbf-69d00806ada6 {
        fill: #eb3a54;
      }

      .bcc80539-11e4-4809-9903-4519f8ff9391 {
        fill: #ece6de;
      }

      .a26191fc-7146-4399-af42-eb3ca8d3a59f {
        fill: #291d3b;
      }

      .a8c17347-8b9b-46f6-92c2-fc4c4df36dcc {
        fill: #614b82;
      }

      .b74db3f6-570b-4ca9-8f48-87e9c618d90e {
        fill: #cab8e5;
      }

      .aa50b226-62ca-499d-b582-8546866fd7e0 {
        fill: #eb8d9b;
      }

      .ac3c3164-d051-47d1-9ec2-9ba199d4dd2a {
        fill: #eb677b;
      }

      .ac7fe8ce-3a20-4d8f-8295-d11393b2ae32 {
        fill: #610000;
      }

      .b066a647-0361-40f2-a4f3-0d9283039ab9, .fed675c5-f04c-414a-ae59-fc7087a42649 {
        fill: #fff;
      }

      .ff8cd21b-6b2f-4fed-80e4-cd2afd48e554 {
        fill: #d07668;
      }

      .af6edcf6-abd0-449f-940f-fc4291a02514 {
        fill: #8c3d35;
      }

      .fed675c5-f04c-414a-ae59-fc7087a42649 {
        stroke: #3d2d16;
        stroke-width: 0.75px;
      }

      .ac25dffe-15e7-4294-8117-0c25482a6a71 {
        fill: #3d2d16;
      }
    </style>
    <clipPath id="fd3a473f-eb7b-4ccc-a9e8-ee2e7532e965">
      <path class="ba0e5553-e3df-4041-8712-46b0c2e939c8" d="M978.31,476.68c-3.19.51-6.39.93-9.55,1.32-76.38,9.45-163.92,9.55-240.33.31-16.73-2-34.47-5-47-16.25-13.81-12.44-18.08-32.06-21.2-50.38A1244.93,1244.93,0,0,1,642.74,187c.36-28.16-5.65-83.64,10-108.3,14.09-22.2,45.84-30.59,70-32.86,89.73-8.41,179-6.62,269.19-2.57,14.14.63,29,1.72,40.86,9.49,22.48,14.76,25.78,46.27,25.19,73.16-2.11,95.65-2.26,191.12-20.32,285.07-3.6,18.76-8.32,38.88-22.78,51.36C1004.84,471,991.64,474.57,978.31,476.68Z"/>
    </clipPath>
    <clipPath id="bfc63e2b-ecaf-4fa2-94e5-a45593a9c715">
      <rect class="fcce5ad2-74b6-4eba-8ae1-91ad09189053" x="574.04" y="1.02" width="599.54" height="489.6"/>
    </clipPath>
    <linearGradient id="bfd7d232-358d-49ce-918e-0897390fe4b0" x1="838.44" y1="283.3" x2="840.86" y2="544.9" gradientUnits="userSpaceOnUse">
      <stop offset="0.01" stop-color="#8fcb85"/>
      <stop offset="0.29" stop-color="#89c97f"/>
      <stop offset="0.68" stop-color="#79c36e"/>
      <stop offset="0.84" stop-color="#70bf64"/>
    </linearGradient>
    <clipPath id="a8338590-f39e-47fe-91db-1640f9865b2e">
      <path class="ba0e5553-e3df-4041-8712-46b0c2e939c8" d="M378.31,476.68c-3.19.51-6.39.93-9.55,1.32-76.38,9.45-163.92,9.55-240.33.31-16.73-2-34.47-5-47-16.25C67.63,449.62,63.36,430,60.24,411.68A1244.93,1244.93,0,0,1,42.74,187c.36-28.16-5.65-83.64,10-108.3,14.09-22.2,45.84-30.59,70-32.86,89.73-8.41,179-6.62,269.19-2.57,14.14.63,29,1.72,40.86,9.49C455.31,67.48,458.61,99,458,125.88,455.91,221.53,455.76,317,437.7,411c-3.6,18.76-8.32,38.88-22.78,51.36C404.84,471,391.64,474.57,378.31,476.68Z"/>
    </clipPath>
    <radialGradient id="b4d57ff5-1fb0-4abb-adf8-97c2e02da788" cx="226.04" cy="374.98" r="86.18" gradientTransform="matrix(0.98, -0.01, 0.01, 1.08, 20.13, -24.32)" gradientUnits="userSpaceOnUse">
      <stop offset="0.13" stop-color="#f186b3"/>
      <stop offset="1" stop-color="#e977a7"/>
    </radialGradient>
    <radialGradient id="a7b1d616-6d15-41d0-a664-db88f3bfbeca" cx="241.84" cy="273.37" r="17.64" gradientTransform="translate(-10.1 77.04) rotate(-2.9)" xlink:href="#b4d57ff5-1fb0-4abb-adf8-97c2e02da788"/>
    <radialGradient id="ee5a7856-792e-4679-b0fb-78de4b0459f2" cx="149.67" cy="352.71" r="1.1" gradientTransform="matrix(1, 0, 0, 1, 0, 0)" xlink:href="#b4d57ff5-1fb0-4abb-adf8-97c2e02da788"/>
    <radialGradient id="aaa2b426-cddb-4d39-af67-bc91eb5971fa" cx="3225.87" cy="359.64" r="2.43" gradientTransform="matrix(-0.88, -0.01, -0.01, 1, 3179.32, 14.25)" xlink:href="#b4d57ff5-1fb0-4abb-adf8-97c2e02da788"/>
  </defs>
  <g class="ebce0573-ece9-4c08-83a2-d1ffdcf384a8">
    <g id="addea52d-caba-4702-8fd7-dfba6c7d83e6" data-name="Layer 1">
      <g class="a8b8e3aa-97ac-4df2-9f77-f00877333e23">
        <g class="bf9cc1e4-175d-4c10-b12b-831f9a640c39">
          <rect class="e69bdc22-53eb-4e8a-bdb8-d1e3766eb948" x="499.07" y="386.09" width="681.94" height="140.15"/>
          <path class="f6f04181-37b9-42b5-bb0a-64265392356b" d="M483.8,368.22l.9,5.95,154.21-6.53-5-8Z"/>
          <path class="fe17d28b-da85-46d0-b187-5440a17e32b1" d="M521.88,324.29q-4.11,5.55-8.24,11.09L483.8,368.22,638.25,362l-5.94-43.29Z"/>
          <path class="b36b6c3d-8313-4eac-b111-d99f9332b98a" d="M669,428.43l1.78-3.56s3.55-7.1-3.55-5.33c0,0-3.56-7.1-7.11-1.77,0,0-1.77-7.11-5.33,0,0,0-11.23-9.19-9.16,2.51,0,0-9.72-7.63-9.16,4.7,0,0-13.65-8.36-10.09,9.09,0,0-10.66-12.75-16.41,6.79,0,0-22.67-16-20.89,7.1,0,0-20.48-11.46-12,4,0,0-12.85-4-9.29,4.84,0,0-5.33,1.78-5.33,3.55,0,7.54,8.88,3.56,8.88,3.56s-7.11,7.1,1.77,3.55c-7.1,10.66,7.11,8.88,7.11,8.88s-24.87,1.78-40.85,7.1-10.66,14.21-3.55,12.44c0,0-49.6,3.34-51.51,32-1.78,26.65,40.85,41.19,142.09,41.9,104.78.73,124.32-4.6,138.53-11.7l71-30.2c-21.31,3.56-152.79-4.68-172.28-28.41-14.43-17.58,8-34.17,8.88-39.08C673.67,454.14,669,448,669,448s3.55-7.1,3.55-8.88-3.55-3.55-3.55-3.55,5.33,1.78,5.33,0-5.33-1.78-5.33-1.78,7.11,0,5.33-3.55S669,428.43,669,428.43Z"/>
        </g>
      </g>
      <g>
        <path class="aabeb294-f904-4496-8f8d-48a398e192e3" d="M394.4,501c-3.46.55-6.93,1-10.36,1.43-82.9,10.25-177,10.36-260,.34-18.15-2.2-37.41-5.4-51-17.64-15-13.5-19.62-34.8-23-54.68a1350.89,1350.89,0,0,1-19-243.88C31.45,156,24.93,95.75,41.92,69c15.29-24.09,49.75-33.2,76-35.66,97.39-9.13,194.23-7.19,292.15-2.79,15.35.69,31.49,1.86,44.34,10.3,24.4,16,28,50.22,27.34,79.39-2.29,103.81-3.31,207.42-22.9,309.39-3.91,20.36-9,42.2-24.73,55.75C423.19,494.8,408.87,498.66,394.4,501Z"/>
        <path class="effe2034-1787-4d32-a1c0-9f47305fa7a0" d="M388.4,495c-3.46.55-6.93,1-10.36,1.43-82.9,10.25-177,10.36-260,.34-18.15-2.2-37.41-5.4-51-17.64-15-13.5-19.62-34.8-23-54.68a1350.89,1350.89,0,0,1-19-243.88C25.45,150,18.93,89.75,35.92,63c15.29-24.09,49.75-33.2,76-35.66,97.39-9.13,194.23-7.19,292.15-2.79,15.35.69,31.49,1.86,44.34,10.3,24.4,16,28,50.22,27.34,79.39-2.29,103.81-3.31,207.42-22.9,309.39-3.91,20.36-9,42.2-24.73,55.75C417.19,488.8,402.87,492.66,388.4,495Z"/>
        <path class="b51fe9be-d771-457c-b614-7dc655005d26" d="M380.77,481.13c-3.26.51-6.52.95-9.75,1.35-78,9.64-167.12,9.74-245.11.31-17.08-2.07-35.19-5.08-48-16.59-14.1-12.7-18.45-32.72-21.64-51.42A1270.93,1270.93,0,0,1,38.43,185.4C38.8,156.64,32.67,100,48.64,74.85,63,52.19,95.44,43.62,120.14,41.3c91.6-8.58,182.68-6.76,274.77-2.63,14.45.65,29.63,1.76,41.71,9.7C459.57,63.43,462.94,95.6,462.34,123c-2.15,97.64-2.52,195.09-20.95,291-3.68,19.15-8.49,39.69-23.26,52.43C407.85,475.34,394.37,479,380.77,481.13Z"/>
        <path class="e1902ce6-d3cc-4b52-bd69-becfd9dea2c5" d="M378.31,476.68c-3.19.51-6.39.93-9.55,1.32-76.38,9.45-163.92,9.55-240.33.31-16.73-2-34.47-5-47-16.25C67.63,449.62,63.36,430,60.24,411.68A1244.93,1244.93,0,0,1,42.74,187c.36-28.16-5.65-83.64,10-108.3,14.09-22.2,45.84-30.59,70-32.86,89.73-8.41,179-6.62,269.19-2.57,14.14.63,29,1.72,40.86,9.49C455.31,67.48,458.61,99,458,125.88,455.91,221.53,455.76,317,437.7,411c-3.6,18.76-8.32,38.88-22.78,51.36C404.84,471,391.64,474.57,378.31,476.68Z"/>
        <g class="a7c09583-9f5d-4d10-a65c-0cf156952d76">
          <g>
            <path class="a8cadcda-07c4-49c5-aa0b-495dad7613e4" d="M332,123.4s17.57-11.44,21.21,11.7c0,0-7.69,34.36,24.29,48.56,0,0,34.15,15.38,62.52-20.46,0,0-21,8.49-37.2,1.58,0,0,26-1.67,25.41-21.81,0,0-14,16.39-30.34,5a29,29,0,0,1-12-20.69c-1.94-18-11.13-59.72-54.49-45.36,0,0-20.51,9-22.48,29.18C308.85,111.12,311.42,136.38,332,123.4Z"/>
            <path class="a8cadcda-07c4-49c5-aa0b-495dad7613e4" d="M162.58,129.39S145,118,141.36,141.09c0,0,7.69,34.36-24.28,48.56,0,0-34.16,15.37-62.53-20.46,0,0,21,8.49,37.2,1.58,0,0-26-1.67-25.4-21.81,0,0,14,16.39,30.33,5a29,29,0,0,0,12-20.69c2-18,11.14-59.72,54.49-45.36,0,0,20.51,9,22.48,29.17C185.69,117.1,183.12,142.37,162.58,129.39Z"/>
            <path class="bfb4b526-5722-4fcc-b88d-af16b05357d1" d="M178.48,304.08s31.72,23.33,22.73,104.62l-28.94,28.1S119.07,325.39,178.48,304.08Z"/>
            <path class="bfb4b526-5722-4fcc-b88d-af16b05357d1" d="M304.85,306.2s-30.4,25.15-13.4,104l31.35,28.31S368,322.66,304.85,306.2Z"/>
            <path class="adc0545b-75ba-4a26-90cb-bc644522b99d" d="M149,351.56s31.61-2.74,50.58,14.74c0,0-38.18,58.84-5.44,88.05l132,1.43s-35.34-88.39-30.69-95.45c0,0,26.36-19.47,46.36-15.09,0,0-1.78-33.25-22.93-40.94l-133-3.47S152.53,300,149,351.56Z"/>
            <g>
              <path class="bce57a22-bf90-46c4-899f-b2573ca89752" d="M224.45,331.22c4.05,3.77,14.86,6,20.39,6s15.63-2.81,17.65-7.14a4.42,4.42,0,0,1-.66-1.49,21.52,21.52,0,0,1-.73-4.21,82.92,82.92,0,0,1,.12-12.2c-4-1.87-10.45-3.19-17.25-3.21-1.21,0-2.42,0-3.66.12A35.42,35.42,0,0,0,225.72,313a105.42,105.42,0,0,1,.15,10.94,36.92,36.92,0,0,1-.45,4.28A8.48,8.48,0,0,1,224.45,331.22Z"/>
              <path class="b9db072a-d3bc-40cf-a35c-45e474df4c39" d="M225.86,321.24a105.45,105.45,0,0,0-.15-10.94A33.92,33.92,0,0,1,240,306.37c1.2-.08,2.38-.12,3.56-.12,6.63,0,12.91,1.35,16.83,3.21a85.22,85.22,0,0,0,.36,12.29,22.25,22.25,0,0,0,.58,4,72.27,72.27,0,0,1-35.36-.13C226.13,324.46,225.77,322.88,225.86,321.24Z"/>
            </g>
            <path class="aee9eaa0-37e1-4884-af59-ae6457613330" d="M223.29,328.39s19.86,21,43.79-1.45l1,15.42s-28.57,14-45.28-.26Z"/>
            <ellipse class="b1b5b399-539d-4b47-8a2c-829d0940fccd" cx="312.07" cy="127.23" rx="13.91" ry="18.23" transform="translate(60.79 351.8) rotate(-63.97)"/>
            <ellipse class="b1b5b399-539d-4b47-8a2c-829d0940fccd" cx="182.33" cy="128.67" rx="18.23" ry="13.91" transform="translate(-37.97 93.07) rotate(-26.03)"/>
            <path class="bfb4b526-5722-4fcc-b88d-af16b05357d1" d="M160.25,204s-17.89,86.47,67.23,117.31c0,0,7.05,5.4,16.1,5.34,6.43-.05,13.85-4.71,20.58-7.73,0,0,56-15.42,68.32-85.55,0,0,18.07-63.52-39.4-87C293.08,146.39,190.07,129.13,160.25,204Z"/>
            <path class="a3485746-1b45-41b2-bdcf-b8a173ecf409" d="M163.79,240.77l17.07-43.1c2.45-3.45,3.8-5.28,7-6,9.59-2.25,30.11-6.62,38.21-4.89l5.36-20.88s.38,16.76.09,21.36c0,0,32.57.29,42.44,1.44l3.92-16.19L279.49,189l21.36,4.6,1.72-12.83.77,13.22,10.92,6.32s.09,14.75,2.49,18.48c0,0,4.5,11.78,4.6,19.16,0,0,9.38-1.73,10.63-5.94l-17.24-41.09L302.86,167.4s-99.74-57.72-135.75,42.66Z"/>
            <path class="a8cadcda-07c4-49c5-aa0b-495dad7613e4" d="M163.66,239.43s2-27.71,14.68-44c1.76-2.26,3.39-4.6,6.17-5.31,9.07-2.31,30-7.29,39.58-6.5,0,0,3-19.35,9.34-28.52,0,0,1.26,20.37,1,25.72,0,0,35.33,1.27,38.11,1.53,0,0,4.79-19.86,6.56-20.88,0,0,2.27,20.62,2,22.4,0,0,15.39,2.8,17.92,4.08,0,0,3-14.52,4.54-15,0,0,1.14,17.5,1,18.46,0,0,11,6,12.3,7.82,0,0,0,15.39,1.91,20a27,27,0,0,1,.93,2.61c1,3.45,2.94,10.85,2.75,14.21,0,0,13.76-.63,17-13.11,0,0,15.43-31.27-4.91-71.25A48.49,48.49,0,0,0,329,143.1c-12.61-15.5-59.92-64.59-129.13-29.2C199.86,113.9,124.29,150.7,163.66,239.43Z"/>
            <path class="bc9a2669-4b96-4456-bf42-41226f080775" d="M156,216.62s5.78-42.93,62.49-66a81.34,81.34,0,0,1,67.28,2.25c20.67,10.36,43.55,31.14,54.86,72.71a25.45,25.45,0,0,0,1.94-10.95c-1.83-25.23-23.88-83.64-91.88-87.33A83.76,83.76,0,0,0,203.06,139C181.35,152,151.72,177.25,156,216.62Z"/>
            <g>
              <g>
                <path class="bfb4b526-5722-4fcc-b88d-af16b05357d1" d="M161.81,229c-3.54-5.78-8.34-11.48-14.83-11.13s-10.2,5.81-10,15.88,1.88,15.45,9.06,22.19,11,10.14,19.79,5.6C168.42,250.72,163.48,232.75,161.81,229Z"/>
                <path class="a4e74562-bea4-44e9-9dbf-5fee972a2ef4" d="M159.68,260.92s5.27,14.19-3.25,15.66-4.33-13.36-4.33-13.36.79,12.95,4.18,5.32Z"/>
              </g>
              <g>
                <path class="bfb4b526-5722-4fcc-b88d-af16b05357d1" d="M333,229.54c4.13-5.42,9.5-10.65,15.92-9.69s9.53,6.74,8.3,16.74-3.49,15.21-11.35,21.25-12,9.07-20.27,3.72C324.08,250.58,330.89,233.15,333,229.54Z"/>
                <path class="a4e74562-bea4-44e9-9dbf-5fee972a2ef4" d="M333.36,260.56s-6.75,13.64,1.58,15.9,5.71-12.91,5.71-12.91-2.14,12.82-4.72,4.92Z"/>
              </g>
            </g>
            <path class="f2207386-4df8-42d2-a8ef-81369a626470" d="M148.7,352s-.19,1,1.76,1.95l.19-2.36A2.52,2.52,0,0,0,148.7,352Z"/>
            <path class="baed2a49-6edb-47b3-a708-c4bed2beff24" d="M341.75,345.49a5.67,5.67,0,0,1-3.91,3.7l-.67-4.47S341.9,344.6,341.75,345.49Z"/>
            <path class="f7d77136-a44c-42ac-ba42-00856f287af1" d="M169,415s1.34,12.26,3,14.94l-.07,4.85a30.7,30.7,0,0,1-3-6.51"/>
            <path class="f7d77136-a44c-42ac-ba42-00856f287af1" d="M327.08,411.55s-1.34,12.26-3,14.94l.06,4.85a30.12,30.12,0,0,0,3-6.51"/>
            <polyline class="f7d77136-a44c-42ac-ba42-00856f287af1" points="325.85 258.08 328.1 252.8 332.18 233.52 326.5 239.32"/>
            <polyline class="f7d77136-a44c-42ac-ba42-00856f287af1" points="168.83 263.19 166.89 257.79 163.92 238.3 169.26 244.42"/>
            <path class="e88dbb37-9af3-4d8d-8e59-80a2a2f2d815" d="M329.84,252.38s.92-2.91,3.4-2.81a3.73,3.73,0,0,1,3.4,4.7c-.42,1.5-1.78,3.24-5.3,4.64,0,0,11.87-2.48,7.56-10.13a7.29,7.29,0,0,0-6.8-1.44s5.65-13.61,13.12-15.37C345.22,232,332.85,233.78,329.84,252.38Z"/>
            <path class="e88dbb37-9af3-4d8d-8e59-80a2a2f2d815" d="M161.15,245.73s-.92-2.91-3.4-2.81a3.74,3.74,0,0,0-3.4,4.7c.42,1.5,1.78,3.25,5.3,4.64,0,0-11.87-2.48-7.56-10.13a7.29,7.29,0,0,1,6.8-1.44s-5.65-13.61-13.12-15.37C145.77,225.32,158.14,227.13,161.15,245.73Z"/>
            <path class="e8a29bc4-f7bf-4619-a373-b32240594521" d="M150.27,341s32.09-2.07,46.72,12.3"/>
            <path class="e8a29bc4-f7bf-4619-a373-b32240594521" d="M291.29,352.42s9.4-19.31,48-20.48"/>
            <path class="ba73ae23-0064-47d2-a128-6651bb0c33ef" d="M98,496.73s-68.82-29.81-30-46.05C113.38,431.73,362.19,420,441,452c22.71,9.22-43.6,30.11-19.24,47.77Z"/>
            <g>
              <g>
                <path class="bfb4b526-5722-4fcc-b88d-af16b05357d1" d="M162.31,263.35s-.81,27,13.61,42c0,0,15,12.84,26.59,18.07,0,0-1.45,23.89-10.16,41.23,0,0-24.32,38-22.51,56.28,0,0-1.81,19.31,11.62,26.18,0,0,38.48-.33,45.37-58.57,0,0,5.08-62.5-5.08-73.95,0,0-7.8-11-20.87-12.6,0,0-11.62-.82-19.24-27.48,0,0-5.08-3.77-5.44,2.29,0,0-1.27-15.87-9.26-10.8C166.94,266,165.13,258.77,162.31,263.35Z"/>
                <path class="bfb4b526-5722-4fcc-b88d-af16b05357d1" d="M175.83,276.11s1.09,20.78,14.34,29.61"/>
                <path class="bfb4b526-5722-4fcc-b88d-af16b05357d1" d="M166.94,266s-1.81,10.14,3.81,24"/>
              </g>
              <g>
                <path class="bfb4b526-5722-4fcc-b88d-af16b05357d1" d="M327.73,266.08s2,26.5-13.67,41.57c0,0-16.42,13-29.35,18.45,0,0,2.64,23.43,13.22,40.24,0,0,30.12,35.68,28.83,53.73,0,0,1.43,20.79-13.08,27,0,0-43.58.67-53.8-56.37,0,0-8.35-61.27,2.68-72.79,0,0,8.39-11,23.11-12.91,0,0,13.12-1.1,20.64-27.5,0,0,5.6-3.82,6.26,2.11,0,0,.78-15.62,10-10.84C322.6,268.77,324.36,261.65,327.73,266.08Z"/>
                <path class="bfb4b526-5722-4fcc-b88d-af16b05357d1" d="M313,279s-.37,20.44-15,29.46"/>
                <path class="bfb4b526-5722-4fcc-b88d-af16b05357d1" d="M322.6,268.77s2.47,9.92-3.32,23.72"/>
              </g>
            </g>
            <ellipse class="b88193fd-fc16-4810-8c42-85e5afefeb9d" cx="243.49" cy="467.86" rx="22.84" ry="4.37"/>
            <g>
              <g>
                <g>
                  <path class="e9a97740-ea92-4714-90c7-c8c490d15f1b" d="M229.69,422.47a21.3,21.3,0,0,0-6.89,5.91,5.79,5.79,0,0,1-1.36-.57,3.43,3.43,0,0,1-1.77-2.63,27.68,27.68,0,0,1,5.92-7.23,17.3,17.3,0,0,1,1.59-1.19Z"/>
                  <path class="aa03fe05-dbe3-46f6-8c1a-31636ecfb33e" d="M229.69,422.47a21.3,21.3,0,0,0-6.89,5.91,5.79,5.79,0,0,1-1.36-.57A15.64,15.64,0,0,1,227,422a10.36,10.36,0,0,1-1.42-4.07,17.3,17.3,0,0,1,1.59-1.19Z"/>
                </g>
                <g>
                  <path class="eda71b95-da1d-4890-998f-cdcb7097daf3" d="M233.38,426.92a4.19,4.19,0,0,1-2.4,0c-.74-.41-4.28-6.36-4.6-12.62a6.27,6.27,0,0,1,4.91,1.45,4.36,4.36,0,0,1,.62.63C233.27,418,233.38,426.92,233.38,426.92Z"/>
                  <path class="aa03fe05-dbe3-46f6-8c1a-31636ecfb33e" d="M233.38,426.92a4.19,4.19,0,0,1-2.4,0c-.74-.41-4.28-6.36-4.6-12.62.21,3.23,2.4,8.87,4.8,7.72a11.71,11.71,0,0,1,.11-6.27,4.36,4.36,0,0,1,.62.63C233.27,418,233.38,426.92,233.38,426.92Z"/>
                </g>
                <g>
                  <g>
                    <path class="e567c50c-839b-4eaa-bbbf-69d00806ada6" d="M222.22,436.32c0,1.11.08,2.25.16,3.4-3.27,1.7-6.24,1.86-8.69-.48a24.7,24.7,0,0,1,.47-4.76,16,16,0,0,1,2.86-6.64,14.5,14.5,0,0,1,2.65-2.66l2,2,1.14,1.16A37.33,37.33,0,0,0,222.22,436.32Z"/>
                    <path class="bcc80539-11e4-4809-9903-4519f8ff9391" d="M222.38,439.72s-4-4.45-8.69-.48a28,28,0,0,1,.16-2.8,19.4,19.4,0,0,1,1.5-5.77,15,15,0,0,1,1.67-2.83c-.16,2.23-.1,5.22,1,7.33a7.29,7.29,0,0,1,4.18,1.15C222.24,437.43,222.3,438.57,222.38,439.72Z"/>
                    <path class="e567c50c-839b-4eaa-bbbf-69d00806ada6" d="M216.26,435.48a8.28,8.28,0,0,0-2.41,1,19.4,19.4,0,0,1,1.5-5.77A14.44,14.44,0,0,0,216.26,435.48Z"/>
                  </g>
                  <path class="aa03fe05-dbe3-46f6-8c1a-31636ecfb33e" d="M222.22,436.32c0,1.11.08,2.25.16,3.4-3.27,1.7-6.24,1.86-8.69-.48a24.7,24.7,0,0,1,.47-4.76c.17,4.27,1.87,5.47,3.25,5.38,1.56-.1,3.23-.62,3.13-2.82a29.46,29.46,0,0,1,1.12-9.82l1.14,1.16A37.33,37.33,0,0,0,222.22,436.32Z"/>
                </g>
                <path class="a26191fc-7146-4399-af42-eb3ca8d3a59f" d="M218.49,439s2,.17,2.29,1.55.35,2.3.84,2.76-.7,1.09-1.25.52a6.36,6.36,0,0,1-.91-2.3s-1.39.52-.76,2.53,1.18,2.24.14,2.64-4,.23-4.32-2.7S214.45,438.82,218.49,439Z"/>
              </g>
              <g>
                <g>
                  <path class="e9a97740-ea92-4714-90c7-c8c490d15f1b" d="M256.61,422.47a21.3,21.3,0,0,1,6.89,5.91,5.79,5.79,0,0,0,1.36-.57,3.43,3.43,0,0,0,1.77-2.63,27.68,27.68,0,0,0-5.92-7.23,17.3,17.3,0,0,0-1.59-1.19Z"/>
                  <path class="aa03fe05-dbe3-46f6-8c1a-31636ecfb33e" d="M256.61,422.47a21.3,21.3,0,0,1,6.89,5.91,5.79,5.79,0,0,0,1.36-.57,15.64,15.64,0,0,0-5.57-5.79,10.36,10.36,0,0,0,1.42-4.07,17.3,17.3,0,0,0-1.59-1.19Z"/>
                </g>
                <g>
                  <path class="eda71b95-da1d-4890-998f-cdcb7097daf3" d="M252.93,426.92a4.18,4.18,0,0,0,2.4,0c.73-.41,4.27-6.36,4.59-12.62a6.27,6.27,0,0,0-4.91,1.45,4.36,4.36,0,0,0-.62.63C253,418,252.93,426.92,252.93,426.92Z"/>
                  <path class="aa03fe05-dbe3-46f6-8c1a-31636ecfb33e" d="M252.93,426.92a4.18,4.18,0,0,0,2.4,0c.73-.41,4.27-6.36,4.59-12.62-.21,3.23-2.4,8.87-4.8,7.72a11.71,11.71,0,0,0-.11-6.27,4.36,4.36,0,0,0-.62.63C253,418,252.93,426.92,252.93,426.92Z"/>
                </g>
                <g>
                  <g>
                    <path class="e567c50c-839b-4eaa-bbbf-69d00806ada6" d="M264.08,436.32c0,1.11-.08,2.25-.16,3.4,3.27,1.7,6.24,1.86,8.69-.48a24.7,24.7,0,0,0-.47-4.76,16,16,0,0,0-2.86-6.64,14.5,14.5,0,0,0-2.65-2.66l-2,2-1.14,1.16A36.69,36.69,0,0,1,264.08,436.32Z"/>
                    <path class="bcc80539-11e4-4809-9903-4519f8ff9391" d="M263.92,439.72s4-4.45,8.69-.48a28,28,0,0,0-.16-2.8,19.4,19.4,0,0,0-1.5-5.77,15,15,0,0,0-1.67-2.83c.16,2.23.1,5.22-1,7.33a7.3,7.3,0,0,0-4.19,1.15C264.06,437.43,264,438.57,263.92,439.72Z"/>
                    <path class="e567c50c-839b-4eaa-bbbf-69d00806ada6" d="M270,435.48a8.28,8.28,0,0,1,2.41,1,19.4,19.4,0,0,0-1.5-5.77A14.19,14.19,0,0,1,270,435.48Z"/>
                  </g>
                  <path class="aa03fe05-dbe3-46f6-8c1a-31636ecfb33e" d="M264.08,436.32c0,1.11-.08,2.25-.16,3.4,3.27,1.7,6.24,1.86,8.69-.48a24.7,24.7,0,0,0-.47-4.76c-.17,4.27-1.87,5.47-3.25,5.38-1.56-.1-3.23-.62-3.13-2.82a29.46,29.46,0,0,0-1.12-9.82l-1.14,1.16A36.69,36.69,0,0,1,264.08,436.32Z"/>
                </g>
                <path class="a26191fc-7146-4399-af42-eb3ca8d3a59f" d="M267.81,439s-2,.17-2.29,1.55-.35,2.3-.84,2.76.7,1.09,1.25.52a6.36,6.36,0,0,0,.91-2.3s1.39.52.76,2.53-1.18,2.24-.13,2.64,4,.23,4.31-2.7S271.85,438.82,267.81,439Z"/>
              </g>
              <g>
                <path class="a26191fc-7146-4399-af42-eb3ca8d3a59f" d="M228.58,403.55l-3.06-2.38a8.55,8.55,0,0,1-3.29-7.18l1.23-23.52S233.38,393.11,228.58,403.55Z"/>
                <path class="a8c17347-8b9b-46f6-92c2-fc4c4df36dcc" d="M224,372.76s3,19.83,3.13,21.81-.2,5.12-1.56,5.33-2.61-2.3-2.71-5S224,372.76,224,372.76Z"/>
                <path class="b74db3f6-570b-4ca9-8f48-87e9c618d90e" d="M224,372.76s1.46,13.26.21,21.71C222.52,384.66,224,372.76,224,372.76Z"/>
              </g>
              <g>
                <path class="a26191fc-7146-4399-af42-eb3ca8d3a59f" d="M256.93,403.55l3.06-2.38a8.57,8.57,0,0,0,3.28-7.18L262,370.47S252.13,393.11,256.93,403.55Z"/>
                <path class="a8c17347-8b9b-46f6-92c2-fc4c4df36dcc" d="M261.52,372.76s-3,19.83-3.13,21.81.21,5.12,1.56,5.33,2.61-2.3,2.72-5S261.52,372.76,261.52,372.76Z"/>
                <path class="b74db3f6-570b-4ca9-8f48-87e9c618d90e" d="M261.52,372.76s-1.46,13.26-.21,21.71C263,384.66,261.52,372.76,261.52,372.76Z"/>
              </g>
              <polygon class="a26191fc-7146-4399-af42-eb3ca8d3a59f" points="236.51 432.66 237.44 437.15 249.45 437.46 250.07 432.25 236.51 432.66"/>
              <polygon class="e9a97740-ea92-4714-90c7-c8c490d15f1b" points="251.01 436.21 250.82 439.76 245.14 444.35 242.16 444.35 236.29 439.76 236.19 436.42 237.38 436.4 249.87 436.23 251.01 436.21"/>
              <rect class="a26191fc-7146-4399-af42-eb3ca8d3a59f" x="239.12" y="410.23" width="7.93" height="6.05"/>
              <g>
                <g>
                  <path class="bcc80539-11e4-4809-9903-4519f8ff9391" d="M257.88,408.18l0,.9a41.47,41.47,0,0,1-14.69,2.61,72.22,72.22,0,0,1-14.88-1.57l-.12-.83a41.2,41.2,0,0,1-.35-4.52,32.17,32.17,0,0,1,1.53-10.83,11.44,11.44,0,0,1,1.32-2.75,10.89,10.89,0,0,1,3.58-3.41h0a10.31,10.31,0,0,1,2.73-1.11,22.36,22.36,0,0,1,11.11.09,10.36,10.36,0,0,1,2.64,1.09,10.91,10.91,0,0,1,3.91,3.93c.1.17.19.34.28.52A29,29,0,0,1,257.82,404Q257.94,406,257.88,408.18Z"/>
                  <path class="a26191fc-7146-4399-af42-eb3ca8d3a59f" d="M230,404.17A75.22,75.22,0,0,0,243,405.22a43.71,43.71,0,0,0,12.1-1.46,16.11,16.11,0,0,0-3.44-8.67,21.46,21.46,0,0,0-9.19,3.76,30.74,30.74,0,0,0-9.39-3.65A13.74,13.74,0,0,0,230,404.17Z"/>
                  <path class="eda71b95-da1d-4890-998f-cdcb7097daf3" d="M243.92,401.67s3.44-3.44,6.88-3.65c1.67-.21,2.19,2.81,2.19,2.81S250.91,403.44,243.92,401.67Z"/>
                  <path class="eda71b95-da1d-4890-998f-cdcb7097daf3" d="M241.1,401.67s-3.45-3.44-6.89-3.65c-1.67-.21-2.19,2.81-2.19,2.81S234.11,403.44,241.1,401.67Z"/>
                  <path class="e567c50c-839b-4eaa-bbbf-69d00806ada6" d="M254.63,391.78c-.43.09-.89.2-1.36.32-3.46.85-7.9,2.23-10.92,4.25a107.44,107.44,0,0,0-10.6-4.74l-1.09-.42a10.89,10.89,0,0,1,3.58-3.41h0a10.31,10.31,0,0,1,2.73-1.11,22.36,22.36,0,0,1,11.11.09,10.36,10.36,0,0,1,2.64,1.09A10.91,10.91,0,0,1,254.63,391.78Z"/>
                  <path class="e567c50c-839b-4eaa-bbbf-69d00806ada6" d="M257.88,408.18c-2.29,1.05-6.85,2.46-14.7,2.46a70.16,70.16,0,0,1-15-1.35,41.2,41.2,0,0,1-.35-4.52c.55.16,1.26.36,2.12.57a44.49,44.49,0,0,0,13,1.13,85.63,85.63,0,0,0,13.22-2.06l1.62-.4Q257.94,406,257.88,408.18Z"/>
                </g>
                <path class="aa03fe05-dbe3-46f6-8c1a-31636ecfb33e" d="M257.88,408.18l0,.9a41.47,41.47,0,0,1-14.69,2.61,72.22,72.22,0,0,1-14.88-1.57l-.12-.83a41.2,41.2,0,0,1-.35-4.52,32.17,32.17,0,0,1,1.53-10.83,11.44,11.44,0,0,1,1.32-2.75,10.89,10.89,0,0,1,3.58-3.41,16.83,16.83,0,0,0-2.49,3.83,23.72,23.72,0,0,0-1.82,13.73c.11.77.25,1.56.42,2.38,4.7,2.3,20.14,3.13,25.77-1.25.05-.7.08-1.39.08-2.06a27.69,27.69,0,0,0-2.93-12.31,31,31,0,0,0-2.55-4.25,10.91,10.91,0,0,1,3.91,3.93c.1.17.19.34.28.52A29,29,0,0,1,257.82,404Q257.94,406,257.88,408.18Z"/>
                <path class="aa50b226-62ca-499d-b582-8546866fd7e0" d="M242.35,387.27c4.17,0,4.59,3.55,0,3.55S238.18,387.27,242.35,387.27Z"/>
                <path class="ac3c3164-d051-47d1-9ec2-9ba199d4dd2a" d="M240.05,391a5.86,5.86,0,0,0,5.22-.32C242.66,394.26,240.05,391,240.05,391Z"/>
              </g>
              <g>
                <path class="e567c50c-839b-4eaa-bbbf-69d00806ada6" d="M254.2,424.56a42.53,42.53,0,0,1-3.29,8.94,69.52,69.52,0,0,1-15.13,0,46.43,46.43,0,0,1-3.46-9.31,19.84,19.84,0,0,1-.41-7.81,41,41,0,0,1,22.44,0A18.26,18.26,0,0,1,254.2,424.56Z"/>
                <path class="e9a97740-ea92-4714-90c7-c8c490d15f1b" d="M254.61,422.2a22,22,0,0,1-.41,2.36,37.85,37.85,0,0,1-10.91,5.7,26,26,0,0,1-11-6.07q-.28-1.24-.45-2.46a17.74,17.74,0,0,1,0-5.35,29.09,29.09,0,0,0,11.38,7.31,36.43,36.43,0,0,0,11.06-7.31A17,17,0,0,1,254.61,422.2Z"/>
                <path class="bcc80539-11e4-4809-9903-4519f8ff9391" d="M254.61,422.2a22,22,0,0,1-.41,2.36,37.85,37.85,0,0,1-10.91,5.7,26,26,0,0,1-11-6.07q-.28-1.24-.45-2.46c2.15,2,6.65,5.7,11.31,6.76C247.65,427.34,252.21,424.1,254.61,422.2Z"/>
                <path class="aa03fe05-dbe3-46f6-8c1a-31636ecfb33e" d="M254.2,424.56a42.53,42.53,0,0,1-3.29,8.94,69.52,69.52,0,0,1-15.13,0,46.43,46.43,0,0,1-3.46-9.31,19.84,19.84,0,0,1-.41-7.81S232.85,427,242.77,427s11.58-10.65,11.58-10.65A18.26,18.26,0,0,1,254.2,424.56Z"/>
                <path class="ac3c3164-d051-47d1-9ec2-9ba199d4dd2a" d="M242.87,420.66s-4.07-2.29-5.63-4.17c8.66-1.88,12,.21,12,.21A23.62,23.62,0,0,1,242.87,420.66Z"/>
              </g>
              <path class="aa03fe05-dbe3-46f6-8c1a-31636ecfb33e" d="M251,436.21l-.19,3.55-5.68,4.59h-3l-5.87-4.59-.1-3.34,1.19,0a3.57,3.57,0,0,0-.46,1.86c.07,1.53,2,1.46,3.48,2.85s2.09,2.09,3.2,2.09,2-1.32,3.06-2.23,2.79-1.18,3.34-2a2.64,2.64,0,0,0-.13-2.73Z"/>
              <g>
                <g>
                  <path class="e9a97740-ea92-4714-90c7-c8c490d15f1b" d="M241.65,467.83H229.83a42.37,42.37,0,0,1,.78-6.65,33.71,33.71,0,0,1,2.22-7.18l.21-.46.32-.67a14.93,14.93,0,0,1,1.27-2.15,4.61,4.61,0,0,1,.8,0l.66.08.43.09a8,8,0,0,1,1.69.59,8.7,8.7,0,0,1,1.22.71C242.77,458.3,241.65,467.83,241.65,467.83Z"/>
                  <path class="aa03fe05-dbe3-46f6-8c1a-31636ecfb33e" d="M241.65,467.83H229.83a42.37,42.37,0,0,1,.78-6.65c1.63,1.22,6.3,4.38,7.84,1.64,1.88-3.34-1-10.69-1-10.69l.74-.66a8.7,8.7,0,0,1,1.22.71C242.77,458.3,241.65,467.83,241.65,467.83Z"/>
                </g>
                <g>
                  <path class="e567c50c-839b-4eaa-bbbf-69d00806ada6" d="M242.16,444.35a20,20,0,0,0-2.73,7.83,9.06,9.06,0,0,1-2-.05,4.73,4.73,0,0,1-2.84-1.41,27.39,27.39,0,0,1,1.66-11C239,439.94,240.93,441.46,242.16,444.35Z"/>
                  <path class="aa03fe05-dbe3-46f6-8c1a-31636ecfb33e" d="M242.16,444.35a20,20,0,0,0-2.73,7.83,9.06,9.06,0,0,1-2-.05c1-2.25,2.55-6.23,2.31-8.44a4.7,4.7,0,0,0-3.49-3.93C239,439.94,240.93,441.46,242.16,444.35Z"/>
                </g>
                <path class="bcc80539-11e4-4809-9903-4519f8ff9391" d="M236.09,450.79a3.48,3.48,0,0,1-.23,1.24c-.5,1.32-1.52,2.35-2.61,1.67a.83.83,0,0,1-.21-.16,2.14,2.14,0,0,1-.54-1.77,5.52,5.52,0,0,1,.33-1.45,1.88,1.88,0,0,1,2.42-1.36A2,2,0,0,1,236.09,450.79Z"/>
                <path class="aa03fe05-dbe3-46f6-8c1a-31636ecfb33e" d="M234.63,454.54a1.89,1.89,0,0,1-1.8-.54l.21-.46a2.14,2.14,0,0,1-.54-1.77c.13.56.39,1,.86,1.1a1.25,1.25,0,0,0,.71-.14,2.36,2.36,0,0,0,1.36-2,4.87,4.87,0,0,0-.18-1.75c.8.08,1.21.91,1.27,1.92C236.61,452.39,235.92,454.29,234.63,454.54Z"/>
                <path class="a26191fc-7146-4399-af42-eb3ca8d3a59f" d="M241.65,467.83a29.73,29.73,0,0,1-11.2-5.91,9.46,9.46,0,0,0-7.16,6.12C230.24,469.5,241.65,467.83,241.65,467.83Z"/>
                <path class="a8c17347-8b9b-46f6-92c2-fc4c4df36dcc" d="M230.38,462.54a7.57,7.57,0,0,0-5.42,3.62,20.2,20.2,0,0,0,10.92.14S231.57,464.14,230.38,462.54Z"/>
                <path class="b74db3f6-570b-4ca9-8f48-87e9c618d90e" d="M230,462.82s-3.55.77-4.46,3.06C227.67,464.28,230,462.82,230,462.82Z"/>
              </g>
              <g>
                <g>
                  <path class="e9a97740-ea92-4714-90c7-c8c490d15f1b" d="M245.5,467.83h11.82a43.68,43.68,0,0,0-.77-6.65,34.23,34.23,0,0,0-2.23-7.18l-.21-.46-.32-.67a14.93,14.93,0,0,0-1.27-2.15,4.54,4.54,0,0,0-.8,0l-.66.08-.43.09a8,8,0,0,0-1.69.59,9.31,9.31,0,0,0-1.22.71C244.38,458.3,245.5,467.83,245.5,467.83Z"/>
                  <path class="aa03fe05-dbe3-46f6-8c1a-31636ecfb33e" d="M245.5,467.83h11.82a43.68,43.68,0,0,0-.77-6.65c-1.64,1.22-6.31,4.38-7.85,1.64-1.88-3.34,1-10.69,1-10.69l-.74-.66a9.31,9.31,0,0,0-1.22.71C244.38,458.3,245.5,467.83,245.5,467.83Z"/>
                </g>
                <g>
                  <path class="e567c50c-839b-4eaa-bbbf-69d00806ada6" d="M245,444.35a20,20,0,0,1,2.73,7.83,9,9,0,0,0,2-.05,4.73,4.73,0,0,0,2.84-1.41,27.39,27.39,0,0,0-1.66-11C248.18,439.94,246.22,441.46,245,444.35Z"/>
                  <path class="aa03fe05-dbe3-46f6-8c1a-31636ecfb33e" d="M245,444.35a20,20,0,0,1,2.73,7.83,9,9,0,0,0,2-.05c-1-2.25-2.55-6.23-2.31-8.44a4.7,4.7,0,0,1,3.49-3.93C248.18,439.94,246.22,441.46,245,444.35Z"/>
                </g>
                <path class="bcc80539-11e4-4809-9903-4519f8ff9391" d="M251.06,450.79a3.48,3.48,0,0,0,.23,1.24c.51,1.32,1.52,2.35,2.61,1.67a.83.83,0,0,0,.21-.16,2.11,2.11,0,0,0,.54-1.77,5.52,5.52,0,0,0-.33-1.45A1.88,1.88,0,0,0,251.9,449,2,2,0,0,0,251.06,450.79Z"/>
                <path class="aa03fe05-dbe3-46f6-8c1a-31636ecfb33e" d="M252.52,454.54a1.89,1.89,0,0,0,1.8-.54l-.21-.46a2.11,2.11,0,0,0,.54-1.77c-.13.56-.39,1-.86,1.1a1.25,1.25,0,0,1-.71-.14,2.36,2.36,0,0,1-1.36-2,4.87,4.87,0,0,1,.18-1.75c-.8.08-1.21.91-1.27,1.92C250.54,452.39,251.23,454.29,252.52,454.54Z"/>
                <path class="a26191fc-7146-4399-af42-eb3ca8d3a59f" d="M245.5,467.83a29.73,29.73,0,0,0,11.2-5.91,9.44,9.44,0,0,1,7.16,6.12C256.91,469.5,245.5,467.83,245.5,467.83Z"/>
                <path class="a8c17347-8b9b-46f6-92c2-fc4c4df36dcc" d="M256.77,462.54a7.55,7.55,0,0,1,5.42,3.62,20.2,20.2,0,0,1-10.92.14S255.58,464.14,256.77,462.54Z"/>
                <path class="b74db3f6-570b-4ca9-8f48-87e9c618d90e" d="M257.12,462.82s3.54.77,4.45,3.06C259.48,464.28,257.12,462.82,257.12,462.82Z"/>
              </g>
            </g>
            <g>
              <path class="ac7fe8ce-3a20-4d8f-8295-d11393b2ae32" d="M211.65,279.62s6,20.54,23,27.67a25.34,25.34,0,0,0,27.69-5.8C266.81,297,272.53,290,279,279.18,279,279.18,257.55,288.31,211.65,279.62Z"/>
              <path class="b066a647-0361-40f2-a4f3-0d9283039ab9" d="M215.23,280.26s35,6.63,59.32.31C274.55,280.57,243.47,305.34,215.23,280.26Z"/>
            </g>
            <path class="ff8cd21b-6b2f-4fed-80e4-cd2afd48e554" d="M225.94,301.88s18.76-8.18,35,.91C260.93,302.79,245,318.34,225.94,301.88Z"/>
            <path class="af6edcf6-abd0-449f-940f-fc4291a02514" d="M234.4,263.34a20.74,20.74,0,0,0,4.57,2.92,13.4,13.4,0,0,0,4.95,1.22,10.59,10.59,0,0,0,4.92-1,14.87,14.87,0,0,0,4.31-3.2,9,9,0,0,1-3.54,4.55,9.53,9.53,0,0,1-5.76,1.61A11.22,11.22,0,0,1,234.4,263.34Z"/>
            <g>
              <g>
                <g>
                  <g>
                    <ellipse class="fed675c5-f04c-414a-ae59-fc7087a42649" cx="212.72" cy="238.1" rx="17.35" ry="20.27"/>
                    <ellipse class="ac25dffe-15e7-4294-8117-0c25482a6a71" cx="213.5" cy="247.85" rx="9.6" ry="8.16"/>
                  </g>
                  <g>
                    <ellipse class="fed675c5-f04c-414a-ae59-fc7087a42649" cx="274.55" cy="238.1" rx="17.35" ry="20.27"/>
                    <ellipse class="ac25dffe-15e7-4294-8117-0c25482a6a71" cx="275.33" cy="247.81" rx="9.6" ry="8.16"/>
                  </g>
                </g>
                <path class="ac25dffe-15e7-4294-8117-0c25482a6a71" d="M266.52,199.76c-4.11-.63-3.43-7.95.71-7.72h.2s18.72-1,26.37,16c.3.67-.37,1.36-.9.93C289.74,206.45,282.34,202.17,266.52,199.76Z"/>
                <path class="ac25dffe-15e7-4294-8117-0c25482a6a71" d="M219.11,202.09c4.12-.63,3.44-8-.7-7.72h-.2s-18.72-1-26.37,16c-.3.66.37,1.35.9.93C195.89,208.79,203.3,204.5,219.11,202.09Z"/>
              </g>
              <circle class="b066a647-0361-40f2-a4f3-0d9283039ab9" cx="222.45" cy="245.86" r="1.56"/>
              <circle class="b066a647-0361-40f2-a4f3-0d9283039ab9" cx="283.82" cy="245.86" r="1.56"/>
            </g>
            <path class="af6edcf6-abd0-449f-940f-fc4291a02514" d="M214.35,276.92a5.7,5.7,0,0,0-2.49,3,13.82,13.82,0,0,0-.63,1.88c-.07.33-.17.67-.25,1a10.74,10.74,0,0,1-.28,1,7.78,7.78,0,0,1-.21-1.07,9.85,9.85,0,0,1,0-1.09,6.5,6.5,0,0,1,.48-2.15,4.63,4.63,0,0,1,1.33-1.83A3,3,0,0,1,214.35,276.92Z"/>
            <path class="af6edcf6-abd0-449f-940f-fc4291a02514" d="M276,276.92a3,3,0,0,1,2.08.75,4.73,4.73,0,0,1,1.33,1.83,6.5,6.5,0,0,1,.48,2.15,9.85,9.85,0,0,1,0,1.09,9.63,9.63,0,0,1-.21,1.07,8.47,8.47,0,0,1-.28-1c-.08-.33-.18-.67-.25-1a15.35,15.35,0,0,0-.63-1.88A5.7,5.7,0,0,0,276,276.92Z"/>
          </g>
        </g>
      </g>
    </g>
  </g>
</svg>
