<svg id="bc9fc33c-fdfc-4c31-b3af-a07dd795805f" data-name="Layer 1" xmlns="http://www.w3.org/2000/svg" width="565" height="745" viewBox="0 0 565 745">
  <defs>
    <style>
      .a0898060-316a-48ed-9c9b-b1cefc609a2d, .a680e413-c1f9-4fac-898f-0a79fb051826 {
        fill: #a55846;
      }

      .a680e413-c1f9-4fac-898f-0a79fb051826, .b241fc30-b4a7-4806-8c64-f683069a7674 {
        stroke: #3a160e;
      }

      .a51f1aa3-aee7-44d6-bb6b-f6b0c5341959, .a680e413-c1f9-4fac-898f-0a79fb051826, .aadff661-7b47-4744-ac5f-be4648078bd0, .afce073a-4adc-4a25-99e8-1d8ea2ace023, .b241fc30-b4a7-4806-8c64-f683069a7674, .b45bd3ed-8d0f-4786-aedf-aaf081311f53, .b61dfea0-4485-426c-af03-b2fd48e47621, .be4b6089-f370-4ab0-9021-d6cfe604e503, .e03b75ec-b9b0-4bb6-9129-9a80fcb68703, .f394d121-241b-40ad-9616-69a80e4d5278, .fffae5aa-3e88-4d6d-a7ca-d4e2622b5f9d {
        stroke-miterlimit: 10;
      }

      .a680e413-c1f9-4fac-898f-0a79fb051826, .aadff661-7b47-4744-ac5f-be4648078bd0, .afce073a-4adc-4a25-99e8-1d8ea2ace023, .b241fc30-b4a7-4806-8c64-f683069a7674, .b45bd3ed-8d0f-4786-aedf-aaf081311f53, .b61dfea0-4485-426c-af03-b2fd48e47621, .be4b6089-f370-4ab0-9021-d6cfe604e503, .f394d121-241b-40ad-9616-69a80e4d5278, .fffae5aa-3e88-4d6d-a7ca-d4e2622b5f9d {
        stroke-width: 2px;
      }

      .bb9cca94-b2b6-4159-ae01-b3478a0eb58d {
        fill: #3a160e;
      }

      .be4b6089-f370-4ab0-9021-d6cfe604e503 {
        fill: #23a567;
      }

      .b45bd3ed-8d0f-4786-aedf-aaf081311f53, .be4b6089-f370-4ab0-9021-d6cfe604e503, .f394d121-241b-40ad-9616-69a80e4d5278, .fffae5aa-3e88-4d6d-a7ca-d4e2622b5f9d {
        stroke: #24773b;
      }

      .aec34ca2-51fc-48bd-bfc2-415e7c616368 {
        fill: #794132;
      }

      .a999b53b-235d-491a-8472-b46e9a399523, .f329e411-4402-46c7-9c5f-814a7d4dcc20 {
        fill: #dba47b;
      }

      .f329e411-4402-46c7-9c5f-814a7d4dcc20 {
        opacity: 0.69;
      }

      .efc7bb36-853a-4564-bdc9-883b29932acb {
        fill: #ff8a80;
      }

      .a45f4a8e-716b-4fd2-b904-26f7e4e1da51 {
        fill: #592e25;
      }

      .adcdb6c4-7b8d-44fe-bf12-b81ec30701e9, .fa4ea932-fb58-470a-aee1-11b771ef662d {
        fill: #6b352b;
      }

      .b241fc30-b4a7-4806-8c64-f683069a7674, .b61dfea0-4485-426c-af03-b2fd48e47621 {
        fill: none;
      }

      .fa4ea932-fb58-470a-aee1-11b771ef662d {
        opacity: 0.67;
      }

      .a8b5c8b6-6b2d-4d3c-85b1-20bb8ee959b9, .e03b75ec-b9b0-4bb6-9129-9a80fcb68703 {
        fill: #fff;
      }

      .e03b75ec-b9b0-4bb6-9129-9a80fcb68703 {
        stroke: #722a2a;
      }

      .b1da98c6-d0cb-4706-96df-27f161310b0b {
        fill: #230b04;
      }

      .b51802c5-ac39-4332-bba0-bfe7fadd4346 {
        fill: #160602;
      }

      .b34244ce-5aeb-4694-8f59-07cbdc03cc03 {
        fill: #282828;
      }

      .b45bd3ed-8d0f-4786-aedf-aaf081311f53 {
        fill: #50e2a0;
      }

      .a51f1aa3-aee7-44d6-bb6b-f6b0c5341959 {
        fill: #f9ffae;
        stroke: #916d34;
      }

      .b27845d5-5c92-438c-bf56-5820e2ac0c86 {
        fill: #916d34;
      }

      .bddd606c-6001-4f39-a496-81ec91584501 {
        fill: #24774f;
      }

      .b61dbef6-8ba9-4c0e-9bb0-afe081638c71 {
        fill: #69f4b8;
      }

      .afce073a-4adc-4a25-99e8-1d8ea2ace023 {
        fill: #d83683;
        stroke: #8c2c5e;
      }

      .e85b4369-0e22-43f1-a4ee-6bb38d666de4 {
        fill: #8c2c5e;
      }

      .f394d121-241b-40ad-9616-69a80e4d5278 {
        fill: #50bc8b;
      }

      .aadff661-7b47-4744-ac5f-be4648078bd0, .fffae5aa-3e88-4d6d-a7ca-d4e2622b5f9d {
        fill: #eefff6;
        opacity: 0.19;
      }

      .aadff661-7b47-4744-ac5f-be4648078bd0, .b61dfea0-4485-426c-af03-b2fd48e47621 {
        stroke: #e2a937;
      }

      .ebb02e6f-2038-4a3b-849e-685e80cd7705 {
        fill: #e2a937;
      }

      .f1755e8f-fcec-42f8-a228-5f64a187b819 {
        fill: #490000;
      }

      .add4918b-dac1-432d-8201-ba532a6e73a4 {
        fill: #2b2b2b;
      }
    </style>
  </defs>
  <g>
    <g>
      <path class="a680e413-c1f9-4fac-898f-0a79fb051826" d="M494.61,510.18s5.62,11.42,3.49,15.88-7.81,7.15-7.56,13c.13,3-.45,7,.78,11,.36,1.19,2.52,6.2.39,14.91s-3.94,12.65,1.16,14.4c6.91,2.36,12.92,0,15.3-6.27,1.87-5,.38-9.1,2.13-12s6.58-3.68,8.13.58.58,25.95.58,25.95a8.83,8.83,0,0,0,6.59,7.94c6.39,1.74,12.2-.78,13.94-5.42a22.75,22.75,0,0,1,4.26-2.52c1.94-.78,10.85-5.62,10.46-17.82,0,0,7.16.39,6.78-13s-1.94-30.21-8.33-38.73-8.52-19.37-8.52-19.37Z"/>
      <path class="bb9cca94-b2b6-4159-ae01-b3478a0eb58d" d="M537.76,563.85a47.21,47.21,0,0,1,2.24,6.58,54.88,54.88,0,0,1,1.29,6.88,26.47,26.47,0,0,1,.14,7.06,17.74,17.74,0,0,1-2.38,6.66l-.18-.07c.2-2.36.48-4.55.57-6.8s.35-4.46.26-6.73a53.48,53.48,0,0,0-.68-6.79,55.48,55.48,0,0,0-1.45-6.72Z"/>
      <path class="bb9cca94-b2b6-4159-ae01-b3478a0eb58d" d="M552.45,555.14a65,65,0,0,1,2.28,9.09,19,19,0,0,1,.53,4.71,9.45,9.45,0,0,1-1.32,4.65l-.19-.05-.49-4.57c-.17-1.5,0-3-.12-4.56s-.2-3.07-.37-4.6-.33-3.08-.52-4.62Z"/>
    </g>
    <path class="be4b6089-f370-4ab0-9021-d6cfe604e503" d="M100.13,387.07a46.23,46.23,0,0,1-.91-23.56c3-12.52,10.85-51.25,18.47-48.93s9,28.95-.68,50.25S100.13,387.07,100.13,387.07Z"/>
    <g>
      <path class="a680e413-c1f9-4fac-898f-0a79fb051826" d="M15.63,330.46s-16.27-2.32-9.88-17.82c0,0-5.23-10.65,2.13-14.91,0,0,10.46.39,14.72-.39S48.35,291.92,54.36,283c0,0,2.52-4.64,0-7.55S45.64,268.1,47.58,259s13.94-8.91,18.4-4.84c0,0-2.33,6.78,1.55,10.26s17,9.88,20.33,31.37l23.82,16.27,42,30.41L127.76,411.8s-38-46.87-48-67.4c0,0-2.52-10.07-12.4-5.61s-21.69,10.65-28.66,12-19.93,2.46-26.34-6C7.49,338.4,15.63,330.46,15.63,330.46Z"/>
      <g>
        <path class="a0898060-316a-48ed-9c9b-b1cefc609a2d" d="M29,313.42S17.11,317,5.23,311.35"/>
        <path class="bb9cca94-b2b6-4159-ae01-b3478a0eb58d" d="M29,313.51a31.16,31.16,0,0,1-6,1.41,37.36,37.36,0,0,1-6.17.3c-1,0-2.08-.12-3.12-.18a15.32,15.32,0,0,1-3.06-.66,16.43,16.43,0,0,1-5.5-2.94l.09-.18c2.08.32,4,.86,5.92,1.19s3.82.94,5.79,1.17a35,35,0,0,0,6,.3,33.62,33.62,0,0,0,6-.6Z"/>
      </g>
      <g>
        <path class="a0898060-316a-48ed-9c9b-b1cefc609a2d" d="M39.45,330.46a44.67,44.67,0,0,1-24,.26"/>
        <path class="bb9cca94-b2b6-4159-ae01-b3478a0eb58d" d="M39.48,330.55a37.56,37.56,0,0,1-5.9,1.7,46.2,46.2,0,0,1-6.11.79c-1,.1-2.07.1-3.11.15a18.12,18.12,0,0,1-9-2.38l.06-.19c2.11,0,4.06.23,6.05.31s3.93.47,5.93.51a44.6,44.6,0,0,0,6-.18,43.61,43.61,0,0,0,6-.9Z"/>
      </g>
      <path class="bb9cca94-b2b6-4159-ae01-b3478a0eb58d" d="M34.93,302.44c1.31,4.5,2.25,9,3.36,13.43.51,2.23,1.13,4.41,1.78,6.59a28.16,28.16,0,0,0,2.6,6.32A15,15,0,0,1,38.61,323a38.07,38.07,0,0,1-2.26-6.68,52.13,52.13,0,0,1-1.2-6.9A39.85,39.85,0,0,1,34.93,302.44Z"/>
      <path class="aec34ca2-51fc-48bd-bfc2-415e7c616368" d="M40.09,306.57c1.72-5.88,5.94-12.39,19.63-14.71s12.13,15,11.62,19.36-5.68,16-19.63,15.24S38.48,312.1,40.09,306.57Z"/>
    </g>
    <path class="a0898060-316a-48ed-9c9b-b1cefc609a2d" d="M400.88,221.63s116.5,81,129.68,252.72l-38.49,2.31s-5.73-38.3-37.8-93.43C417.39,319.84,400.88,221.63,400.88,221.63Z"/>
    <path class="a0898060-316a-48ed-9c9b-b1cefc609a2d" d="M282.43,221.63S181.28,249.77,144,416.18l49.44,18.75s-16.75-3.76,22.66-51.38C261.39,328.79,282.43,221.63,282.43,221.63Z"/>
    <path class="a0898060-316a-48ed-9c9b-b1cefc609a2d" d="M255.45,703.28c-30.39-72.59-47-125.62-53.28-183.69C187,378.16,290.57,149.66,342.62,149.66S485.36,360.44,473.7,501.91c-7.63,92.59-17.34,131.3-45.08,200.74-2.86,7.16,28.61,15.79,20.28,39.14H378.68c-27.6,0-3.47-114.16-38.14-114.16s-10.18,114.16-37.75,114.16H232.57C222.42,715.91,258.42,710.38,255.45,703.28Z"/>
    <path class="f329e411-4402-46c7-9c5f-814a7d4dcc20" d="M343.33,311.54c78.45,0,196.86,282.45-3.09,282.45S264.88,311.54,343.33,311.54Z"/>
    <path class="aec34ca2-51fc-48bd-bfc2-415e7c616368" d="M422.93,741.79H418.2c0-.2,0-.4,0-.6,0-7.19-1.19-16-7.22-19.23-.73-.39-.34-1.82.4-1.79C420,720.48,423.16,730.87,422.93,741.79Z"/>
    <path class="aec34ca2-51fc-48bd-bfc2-415e7c616368" d="M440.19,741.79h-4.9a29.41,29.41,0,0,0,.21-3c.16-8.35-3.4-18.35-10.07-21.82-.89-.46-.23-2.11.64-1.84C436.9,718.56,440.83,729.9,440.19,741.79Z"/>
    <path class="aec34ca2-51fc-48bd-bfc2-415e7c616368" d="M257.63,741.79h4.73c0-.2,0-.4,0-.6,0-7.19,1.19-16,7.22-19.23.73-.39.35-1.82-.4-1.79C260.54,720.48,257.4,730.87,257.63,741.79Z"/>
    <path class="aec34ca2-51fc-48bd-bfc2-415e7c616368" d="M240.37,741.79h4.9c-.12-1-.18-2-.21-3-.16-8.35,3.41-18.35,10.07-21.82.89-.46.23-2.11-.64-1.84C243.66,718.56,239.73,729.9,240.37,741.79Z"/>
    <path class="a0898060-316a-48ed-9c9b-b1cefc609a2d" d="M425.65,45.17c-24.9-26.48-113.24-62.28-84.34-23.61,0,0-26.8-8-14.27,3.83,0,0-25.06,1.4-19.84,5.57C322.31,43.05,425.65,45.17,425.65,45.17Z"/>
    <path class="aec34ca2-51fc-48bd-bfc2-415e7c616368" d="M439.18,71.05s43.49-2.88,40.71-27.42C478.48,31.13,456,8,438,10.09c-13.25,1.55-17.39,32.08-17.39,37.12S439.18,71.05,439.18,71.05Z"/>
    <path class="efc7bb36-853a-4564-bdc9-883b29932acb" d="M455.67,31.34C432.12,10,431.84,60.79,431.84,60.79S480.91,54.25,455.67,31.34Z"/>
    <path class="aec34ca2-51fc-48bd-bfc2-415e7c616368" d="M271,71.05s-43.48-2.88-40.71-27.42c1.42-12.5,23.91-35.64,41.86-33.54,13.25,1.55,17.39,32.08,17.39,37.12S271,71.05,271,71.05Z"/>
    <path class="efc7bb36-853a-4564-bdc9-883b29932acb" d="M254.52,31.34C278.08,10,278.35,60.79,278.35,60.79S229.28,54.25,254.52,31.34Z"/>
    <path class="a0898060-316a-48ed-9c9b-b1cefc609a2d" d="M268.7,53.36c21.85-20,50.56-22,85-22s63.14,2.07,85,22C470,81.9,488.46,125.73,487.22,170c-1.5,53.76-77.3,87.38-133.52,87.38S225.89,212,220.17,170C213.83,123.42,237.43,81.9,268.7,53.36Z"/>
    <path class="a999b53b-235d-491a-8472-b46e9a399523" d="M353.7,121.05c26,0,95.72,103.15.12,103.15S327.69,121.05,353.7,121.05Z"/>
    <g>
      <path class="a45f4a8e-716b-4fd2-b904-26f7e4e1da51" d="M388.11,70.58c20.73-18.79,36.7,1,38.35,17.87C416.84,73.87,403.83,68.93,388.11,70.58Z"/>
      <path class="a45f4a8e-716b-4fd2-b904-26f7e4e1da51" d="M319.29,70.58c-20.74-18.79-36.7,1-38.35,17.87C290.55,73.87,303.57,68.93,319.29,70.58Z"/>
    </g>
    <path class="adcdb6c4-7b8d-44fe-bf12-b81ec30701e9" d="M448.61,319.73A456,456,0,0,1,470.1,409,507.07,507.07,0,0,1,473.52,510c-1.38,20.41-3.9,41-8.53,60.74a.84.84,0,1,1-1.65-.27c3.69-35,6.88-69.79,6.11-105.15a552.81,552.81,0,0,0-10.5-96.6c-3.28-16.35-6.86-32.8-11.65-48.59a.7.7,0,1,1,1.31-.44Z"/>
    <path class="adcdb6c4-7b8d-44fe-bf12-b81ec30701e9" d="M230.49,313.18a453.19,453.19,0,0,0-23.19,88.64,507.27,507.27,0,0,0-5.36,100.92c1,20.45,3.11,41.12,7.36,61a.84.84,0,1,0,1.66-.22c-3-35.1-5.54-70-4.09-105.29a552,552,0,0,1,12.35-96.28c3.59-16.26,7.48-32.59,12.58-48.25a.7.7,0,1,0-1.31-.48Z"/>
    <path class="b241fc30-b4a7-4806-8c64-f683069a7674" d="M490.48,467.41c3.15-2.75,6.67-3.58,10.84-4.09l.65-.08c9.14-1.3,18.2-3.09,27.21-5.1-13-113.54-71.08-185-104.45-217.41,34.06-14.85,61.65-39.83,62.55-72A156,156,0,0,0,453.21,67.4c12.45-3.05,28.45-9.94,26.74-25.13C478.53,29.77,456,6.63,438.08,8.73,427.68,10,422.9,29,421.32,39.61c-29.39-25.8-107.35-56.07-80-19.4,0,0-26.8-8-14.27,3.83,0,0-25.06,1.39-19.84,5.56a20,20,0,0,0,5.4,2.78A97.93,97.93,0,0,0,288.89,39c-1.67-10.69-6.46-29.1-16.67-30.29-18-2.1-40.45,21-41.86,33.54-1.6,14.12,12.11,21.07,24,24.42-23.72,27.3-39.51,62.84-34.18,102,2.8,20.57,21.39,41.94,46.24,58.4C243.37,239,200,269.51,168.45,340a16.66,16.66,0,0,1,1.29,2.82c6.35.93,12.34,5.72,13.77,12,2.31,10.13,2.57,20.42,2.18,30.75-.32,8.45-.76,16.9.12,25.33.81,5.21,1.78,10.41,2.16,15.68.5,6.77-4.12,12.29-9.93,14.88,22.76.89,32-36.81,35.18-55.62l.65-.81c-10.77,46.63-15.93,93.41-11.64,133.27,6.24,58.08,22.89,111.1,53.28,183.7,3,7.09-33,12.62-22.89,38.5h70.22c27.58,0,3.07-114.15,37.75-114.15s10.55,114.15,38.15,114.15H449c8.32-23.35-23.15-32-20.29-39.13,27.74-69.44,37.45-108.16,45.08-200.75,2.3-27.81.63-58.31-3.92-89.35C482.21,437.21,488,457.09,490.48,467.41Z"/>
    <path class="fa4ea932-fb58-470a-aee1-11b771ef662d" d="M310.21,674.88c-3.12-51.77-49.93-72.6-46.29-80.17s43.17,14.52,77,10.1,56.7-13.26,58.78-5S394,618.36,381,639.53,366.39,726,389.27,741.79H378.68c-27.6,0-3.47-114.16-38.14-114.16s-10.18,114.16-37.75,114.16H265.7C296.17,739.9,313.33,726.64,310.21,674.88Z"/>
    <ellipse class="e03b75ec-b9b0-4bb6-9129-9a80fcb68703" cx="316.07" cy="116.91" rx="16.85" ry="16.14"/>
    <g>
      <ellipse class="e03b75ec-b9b0-4bb6-9129-9a80fcb68703" cx="391.61" cy="116.91" rx="16.85" ry="16.14"/>
      <path class="b1da98c6-d0cb-4706-96df-27f161310b0b" d="M391.74,106.24a12.49,12.49,0,0,1,12.2,12.86,12.66,12.66,0,0,1-12.41,12.8A12.49,12.49,0,0,1,379.33,119,12.66,12.66,0,0,1,391.74,106.24Z"/>
      <path class="a8b5c8b6-6b2d-4d3c-85b1-20bb8ee959b9" d="M394.41,116c-1.09-2.71-8.18-6.43-8.19-2.09a3.9,3.9,0,0,0,1.07,2.23,4.91,4.91,0,0,0,3.88,2.07C394.2,118.19,394.9,117.18,394.41,116Z"/>
      <path class="b51802c5-ac39-4332-bba0-bfe7fadd4346" d="M393.46,130.46c15.91-2.82-8.52-13.91-9.08-4.1C384.24,129,389.19,131.21,393.46,130.46Z"/>
    </g>
    <path class="b1da98c6-d0cb-4706-96df-27f161310b0b" d="M315.87,106.24a12.55,12.55,0,0,1,12.32,12.86,12.72,12.72,0,0,1-12.54,12.8A12.55,12.55,0,0,1,303.33,119,12.72,12.72,0,0,1,315.87,106.24Z"/>
    <path class="a8b5c8b6-6b2d-4d3c-85b1-20bb8ee959b9" d="M318.56,116c-1.1-2.71-8.26-6.43-8.27-2.09a3.92,3.92,0,0,0,1.08,2.23,5,5,0,0,0,3.92,2.07C318.35,118.19,319.06,117.18,318.56,116Z"/>
    <path class="b51802c5-ac39-4332-bba0-bfe7fadd4346" d="M317.26,130.46c15.91-2.82-8.52-13.91-9.08-4.1C308,129,313,131.21,317.26,130.46Z"/>
    <path class="b34244ce-5aeb-4694-8f59-07cbdc03cc03" d="M352.89,143.39c-18.58,0-25.51,4.08-25.51,9.06s5.76,16.18,25.51,16.18,25.51-11.2,25.51-16.18S371.47,143.39,352.89,143.39Z"/>
    <polygon class="b34244ce-5aeb-4694-8f59-07cbdc03cc03" points="353.61 192.31 352.17 192.31 349.69 167.02 356.09 167.02 353.61 192.31"/>
    <path class="a8b5c8b6-6b2d-4d3c-85b1-20bb8ee959b9" d="M358.08,148.45c-.16.92-5.41.73-11.73,1.1s-11.51,1.08-11.77.18,4.83-3.16,11.59-3.51S358.26,147.57,358.08,148.45Z"/>
    <path class="b45bd3ed-8d0f-4786-aedf-aaf081311f53" d="M238.41,245.51c-44.42,4.77-74.55,90.26-73.08,94.12,0,0-10.85-9.75-41.93-22.92-1.84-.78-5.71-2-5.71-2s7.78,25.82-.13,45.6c-7.75,19.37-17.24,27.31-17.24,27.31s57.64,72.23,85.32,57.74a66.32,66.32,0,0,0,15-12.72L196.3,569.36a14.15,14.15,0,0,0,11.06,14.29c32.9,7.29,68.37,9.22,105.84,6.94A12.56,12.56,0,0,0,325,578.08V280.8C278.41,275.12,257.4,263.27,238.41,245.51Z"/>
    <path class="b45bd3ed-8d0f-4786-aedf-aaf081311f53" d="M353.21,279.73l7.49,297.92a12.93,12.93,0,0,0,12.67,12.61c19.4.38,57.25.54,81.38-3.08a22.51,22.51,0,0,0,19.16-21l3.74-68.49-2.55-75.55,2,44.68c.21,13.19,10.2,46.6,13,52.28,7.64,15.3,49.16,8.21,65.37-2,5.8-3.64,3.16-7,3.57-14.8,2.32-44.15-61.45-288.42-119.85-247.44C439.25,254.86,403.87,282.65,353.21,279.73Z"/>
    <circle class="a51f1aa3-aee7-44d6-bb6b-f6b0c5341959" cx="310.29" cy="307.2" r="11.53"/>
    <circle class="b27845d5-5c92-438c-bf56-5820e2ac0c86" cx="310.13" cy="302.8" r="2.01"/>
    <circle class="b27845d5-5c92-438c-bf56-5820e2ac0c86" cx="310.13" cy="311.54" r="2.01"/>
    <circle class="a51f1aa3-aee7-44d6-bb6b-f6b0c5341959" cx="310.29" cy="411.12" r="11.53"/>
    <circle class="b27845d5-5c92-438c-bf56-5820e2ac0c86" cx="310.13" cy="406.72" r="2.01"/>
    <circle class="b27845d5-5c92-438c-bf56-5820e2ac0c86" cx="310.13" cy="415.45" r="2.01"/>
    <circle class="a51f1aa3-aee7-44d6-bb6b-f6b0c5341959" cx="310.29" cy="520.22" r="11.53"/>
    <circle class="b27845d5-5c92-438c-bf56-5820e2ac0c86" cx="310.13" cy="515.82" r="2.01"/>
    <circle class="b27845d5-5c92-438c-bf56-5820e2ac0c86" cx="310.13" cy="524.56" r="2.01"/>
    <path class="bddd606c-6001-4f39-a496-81ec91584501" d="M162.34,336.87a26.32,26.32,0,0,1,6.23,6,35,35,0,0,1,4.47,7.45,36.2,36.2,0,0,1,2.57,8.29,34.79,34.79,0,0,1,.52,4.3,38.67,38.67,0,0,1-.06,4.31c-.37-1.4-.56-2.8-.91-4.17s-.64-2.74-1.07-4.08a58.17,58.17,0,0,0-2.87-7.83,56.57,56.57,0,0,0-3.92-7.37A59,59,0,0,0,162.34,336.87Z"/>
    <g>
      <path class="b61dbef6-8ba9-4c0e-9bb0-afe081638c71" d="M200.67,432.61S212.2,357,222.45,347.72"/>
      <path class="bddd606c-6001-4f39-a496-81ec91584501" d="M200.67,432.61q1.13-11,2.93-21.87c1.16-7.27,2.54-14.5,4.06-21.7q1.18-5.39,2.51-10.76c.92-3.56,1.86-7.13,2.94-10.66s2.27-7,3.67-10.44c.71-1.71,1.5-3.39,2.37-5a15.87,15.87,0,0,1,3.3-4.44l-.87,1.07c-.25.38-.48.78-.72,1.17a26.51,26.51,0,0,0-1.23,2.44,54.34,54.34,0,0,0-1.93,5.12c-1.17,3.46-2.15,7-3.09,10.53-1.83,7.09-3.46,14.24-5,21.41s-3,14.36-4.5,21.56S202.18,425.41,200.67,432.61Z"/>
    </g>
    <path class="bddd606c-6001-4f39-a496-81ec91584501" d="M476.62,438.35l-2.34-17.06c-.81-5.68-1.62-11.34-2.59-17q-.69-4.23-1.54-8.43t-1.86-8.35a81.56,81.56,0,0,0-2.49-8.15,22.67,22.67,0,0,0-4.11-7.43,14.09,14.09,0,0,1,2.86,3.25A30.78,30.78,0,0,1,466.7,379a62.76,62.76,0,0,1,3.09,8.12A134.17,134.17,0,0,1,473.66,404q1.41,8.53,2.16,17.13C476.34,426.84,476.62,432.59,476.62,438.35Z"/>
    <path class="afce073a-4adc-4a25-99e8-1d8ea2ace023" d="M431.2,258.87s10.52,78,8.74,141.86c0,0,10.29,8.16,18.45,0V386.54s17.24,9,29.06,0c0,0-9.45-129.28-28.13-138.61S431.2,258.87,431.2,258.87Z"/>
    <path class="e85b4369-0e22-43f1-a4ee-6bb38d666de4" d="M456.52,387.61a6.06,6.06,0,0,0,.41-2c.05-.69.09-1.39.11-2.08,0-1.38,0-2.77,0-4.15,0-2.78-.09-5.55-.21-8.32-.2-5.54-.55-11.07-.94-16.6s-.84-11.05-1.4-16.56-1.12-11-1.82-16.51-1.41-11-2.24-16.46-1.77-10.93-2.74-16.38c-2-10.89-4.41-21.71-7.3-32.46a219.24,219.24,0,0,1,9.59,32c1.26,5.43,2.28,10.91,3.25,16.4s1.71,11,2.42,16.54c1.32,11.07,2.24,22.19,2.57,33.32q.28,8.35.07,16.72c-.09,2.78-.2,5.57-.42,8.35-.12,1.39-.25,2.77-.43,4.16q-.14,1-.33,2.07A6.09,6.09,0,0,1,456.52,387.61Z"/>
    <path class="e85b4369-0e22-43f1-a4ee-6bb38d666de4" d="M472.37,378.86a6.05,6.05,0,0,0,.4-2c.06-.69.09-1.39.11-2.08.05-1.38.06-2.77,0-4.15q0-4.17-.21-8.32c-.2-5.54-.55-11.07-.93-16.6s-.84-11.05-1.41-16.56-1.11-11-1.81-16.51-1.41-11-2.25-16.46-1.76-10.93-2.74-16.38c-2-10.89-4.41-21.71-7.29-32.46a220.48,220.48,0,0,1,9.59,32c1.25,5.43,2.27,10.91,3.24,16.4s1.72,11,2.42,16.55c1.32,11.06,2.24,22.18,2.58,33.31q.27,8.35.07,16.72c-.1,2.78-.21,5.57-.43,8.35-.11,1.39-.24,2.77-.42,4.16-.1.69-.2,1.38-.34,2.07A6.07,6.07,0,0,1,472.37,378.86Z"/>
    <path class="afce073a-4adc-4a25-99e8-1d8ea2ace023" d="M450.33,228s-127.4,45.52-201-12c0,0-10.48-1.83-8.71,9,0,0-6.48,2.21-6.38,14.46.23,29.08,126.52,81.32,222.07,9.87,3.48,2.27,9.77-12.57-2.16-14.58C454.13,234.73,457.88,228,450.33,228Z"/>
    <path class="e85b4369-0e22-43f1-a4ee-6bb38d666de4" d="M244,229.18a11.14,11.14,0,0,0,3.15,5.93,31.21,31.21,0,0,0,5.12,4.47,74,74,0,0,0,11.86,6.72,156.11,156.11,0,0,0,25.74,9.09,233.08,233.08,0,0,0,54,7.48,232.49,232.49,0,0,0,27.3-.94,222.48,222.48,0,0,0,27-4.15,213.22,213.22,0,0,0,51.52-18.34,181.52,181.52,0,0,1-24.69,12.21c-4.27,1.72-8.61,3.29-13,4.68s-8.83,2.65-13.31,3.73c-2.24.57-4.49,1-6.74,1.54s-4.53.89-6.81,1.26c-4.54.78-9.11,1.42-13.7,1.89a225.89,225.89,0,0,1-27.65,1.12,233.38,233.38,0,0,1-27.56-2.35,206.33,206.33,0,0,1-27-5.88,145.32,145.32,0,0,1-25.76-10,74.57,74.57,0,0,1-11.69-7.4,32,32,0,0,1-5-4.81A11.42,11.42,0,0,1,244,229.18Z"/>
    <line class="f394d121-241b-40ad-9616-69a80e4d5278" x1="362.28" y1="298.89" x2="362.28" y2="316.44"/>
    <line class="f394d121-241b-40ad-9616-69a80e4d5278" x1="365.65" y1="402.34" x2="365.65" y2="419.89"/>
    <line class="f394d121-241b-40ad-9616-69a80e4d5278" x1="369.02" y1="513.77" x2="369.02" y2="531.32"/>
    <circle class="aadff661-7b47-4744-ac5f-be4648078bd0" cx="314.5" cy="112.49" r="35.74"/>
    <circle class="fffae5aa-3e88-4d6d-a7ca-d4e2622b5f9d" cx="394.55" cy="112.49" r="35.74"/>
    <g>
      <circle class="b61dfea0-4485-426c-af03-b2fd48e47621" cx="313.67" cy="112.49" r="35.74"/>
      <circle class="b61dfea0-4485-426c-af03-b2fd48e47621" cx="393.73" cy="112.49" r="35.74"/>
    </g>
    <rect class="ebb02e6f-2038-4a3b-849e-685e80cd7705" x="349.69" y="109.83" width="8.57" height="7.08"/>
    <rect class="ebb02e6f-2038-4a3b-849e-685e80cd7705" x="429.16" y="108.95" width="7.08" height="7.08"/>
    <rect class="ebb02e6f-2038-4a3b-849e-685e80cd7705" x="271.67" y="108.95" width="7.08" height="7.08"/>
    <path class="ebb02e6f-2038-4a3b-849e-685e80cd7705" d="M476.7,108.81l-41.95,5.41.7-1.11a13.56,13.56,0,0,1,.36,2.06c.07.66.13,1.31.19,2,.1,1.3.19,2.59.26,3.88.15,2.57.27,5.15.38,7.72l.55,15.45,1,30.87c.64,20.58,1.33,41.17,2.44,61.72.57,10.28,1.22,20.56,2.27,30.79a131.93,131.93,0,0,0,2.29,15.23,20.4,20.4,0,0,0,1.17,3.62,2.74,2.74,0,0,0,1.05,1.36c.43.25.93-.23,1.27-.71a14.32,14.32,0,0,0,1.56-3.44c.41-1.21.76-2.44,1.08-3.69,1.28-5,2.19-10.05,3.06-15.12s1.6-10.16,2.31-15.26c1.41-10.2,2.64-20.43,3.8-30.66-1.09,10.24-2.25,20.47-3.59,30.69-.67,5.1-1.39,10.2-2.21,15.29S452.94,275,451.7,280c-.32,1.25-.66,2.5-1.07,3.73a15,15,0,0,1-1.6,3.57,2.77,2.77,0,0,1-.73.76,1.09,1.09,0,0,1-1.13.12,3.15,3.15,0,0,1-1.31-1.6,20.65,20.65,0,0,1-1.22-3.71,129.81,129.81,0,0,1-2.41-15.28c-1.13-10.25-1.85-20.53-2.49-30.81-1.26-20.56-2.09-41.14-2.87-61.72l-1.17-30.87L435,128.79c-.13-2.56-.26-5.13-.43-7.69-.08-1.28-.18-2.56-.29-3.83-.05-.64-.12-1.27-.19-1.9a13.69,13.69,0,0,0-.3-1.73l-.28-1,1-.13,41.91-5.7Z"/>
    <line class="b61dfea0-4485-426c-af03-b2fd48e47621" x1="273.1" y1="113.37" x2="231.75" y2="98.48"/>
    <path class="ebb02e6f-2038-4a3b-849e-685e80cd7705" d="M276.21,115.09q-1.51,30.81-3.78,61.55c-1.55,20.5-3.29,41-5.82,61.4-.64,5.1-1.35,10.2-2.16,15.28s-1.73,10.14-2.94,15.15a58.62,58.62,0,0,1-2.27,7.41,14.94,14.94,0,0,1-1.87,3.47,3.39,3.39,0,0,1-1.71,1.23,2.28,2.28,0,0,1-2-.69,10.87,10.87,0,0,1-2.12-3.34c-.52-1.19-1-2.4-1.36-3.63-.8-2.46-1.43-5-2-7.46-2.26-10-3.75-20.23-5.13-30.41s-2.51-20.39-3.58-30.61c1.15,10.21,2.38,20.41,3.82,30.58s3,20.33,5.38,30.32c.6,2.5,1.25,5,2.05,7.4.41,1.22.85,2.41,1.37,3.57a10.37,10.37,0,0,0,2,3.12,1.62,1.62,0,0,0,1.47.52,2.73,2.73,0,0,0,1.34-1,14.1,14.1,0,0,0,1.74-3.31,57.72,57.72,0,0,0,2.18-7.33c1.17-5,2-10.05,2.81-15.12s1.43-10.16,2-15.26c2.37-20.4,3.94-40.89,5.32-61.38s2.44-41,3.28-61.54Z"/>
    <g>
      <path class="f1755e8f-fcec-42f8-a228-5f64a187b819" d="M324.13,177.86s6.84,19.1,9.68,24,7.62,10.84,20.4,10.33,16-3.36,18.33-8,2.07-12.13,6.2-18.72,5.16-9.55,5.16-9.55-10.15,9.09-29.82,8.39C332.13,183.54,324.13,177.86,324.13,177.86Z"/>
      <path class="a8b5c8b6-6b2d-4d3c-85b1-20bb8ee959b9" d="M331.23,181.47S334.84,194,353.56,194s22.85-13,22.85-13S359.24,190.77,331.23,181.47Z"/>
      <path class="add4918b-dac1-432d-8201-ba532a6e73a4" d="M317.28,172.82a66.26,66.26,0,0,0,35.64,10.85c20.65,0,32.79-9.82,34.6-10.59s1.68.13-.13,1.42-13.17,11.1-34.6,11.1a62.3,62.3,0,0,1-36.28-11.36C314.83,173.21,316.12,172.18,317.28,172.82Z"/>
      <path class="a8b5c8b6-6b2d-4d3c-85b1-20bb8ee959b9" d="M334.33,198.9s5.81,5.55,18.72,5.55,18.46-4.9,19.75-5.94c0,0,1.42,2.33-.26,5.68s-7.1,7.49-18.33,7.49S336.52,208.07,334.33,198.9Z"/>
      <path class="add4918b-dac1-432d-8201-ba532a6e73a4" d="M321.54,178s3.75,5.3,5.17,9.43,5.94,16.53,8,18.2,4.52,7.49,19,7.49,18.21-3.23,20.53-10.46,2.32-7.87,5.55-15.49c3.36-7.93,4.78-10.07,6.84-11.88,0,0-1.8-.64-3.74,1.68a51,51,0,0,0-6.07,10.85c-.77,2.32-3.95,12.35-4.65,14.2-.33.88-.11,8.67-18.07,9s-18.72-11-21.3-16.14-4.78-14.85-10.2-17.82S321.54,178,321.54,178Z"/>
      <path class="add4918b-dac1-432d-8201-ba532a6e73a4" d="M319.54,169.72s-3.61,1.29-4.52,3.17a7.66,7.66,0,0,0-.12,5.74s.12-4.13,1.29-5.55A38,38,0,0,1,319.54,169.72Z"/>
      <path class="add4918b-dac1-432d-8201-ba532a6e73a4" d="M384.7,169.72s3.62,1.29,4.52,3.17a7.71,7.71,0,0,1,.13,5.74s-.13-4.13-1.29-5.55A37.58,37.58,0,0,0,384.7,169.72Z"/>
      <path class="add4918b-dac1-432d-8201-ba532a6e73a4" d="M339,215.52a19,19,0,0,0,13.46,6c8.32,0,14.23-5.72,14.23-5.72s2.23-.38.87,1.07-5.71,6.58-15.2,6.58-14.72-7.55-14.72-7.55S337.55,214.46,339,215.52Z"/>
    </g>
  </g>
</svg>
