<svg id="b82d04cc-0480-43d2-b375-781d3a04c7f2" data-name="Layer 1" xmlns="http://www.w3.org/2000/svg" width="35.7" height="34.24" viewBox="0 0 35.7 34.24">
  <defs>
    <style>
      .a13d6fa6-f55e-45c2-922e-b04dfc2c71d3, .a2ffdbf4-dc1a-41e8-9bb4-eade12d8e273 {
        fill: #fff;
      }

      .a13d6fa6-f55e-45c2-922e-b04dfc2c71d3 {
        stroke: #722a2a;
        stroke-miterlimit: 10;
      }

      .a96657b4-df9d-4a8c-931c-825578127ef0 {
        fill: #230b04;
      }

      .a58f3b9e-98ed-41f9-9ff1-5b139538ac4f {
        fill: #160602;
      }

      .b920d34d-2970-4a39-b0f2-3941444bf770 {
        fill: #8e3a26;
      }
    </style>
  </defs>
  <g>
    <g>
      <ellipse class="a13d6fa6-f55e-45c2-922e-b04dfc2c71d3" cx="17.85" cy="17.12" rx="16.85" ry="16.14"/>
      <path class="a96657b4-df9d-4a8c-931c-825578127ef0" d="M18,6.44A12.49,12.49,0,0,1,30.18,19.31a12.66,12.66,0,0,1-12.41,12.8A12.49,12.49,0,0,1,5.58,19.24,12.65,12.65,0,0,1,18,6.44Z"/>
      <path class="a2ffdbf4-dc1a-41e8-9bb4-eade12d8e273" d="M20.66,16.18c-1.1-2.71-8.18-6.43-8.2-2.09a3.89,3.89,0,0,0,1.08,2.23,4.9,4.9,0,0,0,3.88,2.08C20.45,18.39,21.14,17.39,20.66,16.18Z"/>
      <path class="a58f3b9e-98ed-41f9-9ff1-5b139538ac4f" d="M19.7,30.66c15.91-2.82-8.52-13.91-9.08-4.09C10.48,29.18,15.43,31.42,19.7,30.66Z"/>
    </g>
    <path class="b920d34d-2970-4a39-b0f2-3941444bf770" d="M34.7,17.12c0,8.91-2.7,1.35-16.61,2.16C4.1,19.1,1,26,1,17.12S8.54,1,17.85,1,34.7,8.21,34.7,17.12Z"/>
  </g>
</svg>
