<svg xmlns="http://www.w3.org/2000/svg" xmlns:xlink="http://www.w3.org/1999/xlink" width="500" height="525" viewBox="0 0 500 525">
  <defs>
    <style>
      .a913266d-cf9e-4327-b76c-942faac5415d, .b1d337a4-91bb-4374-b10b-4a0e8fc084b9 {
        fill: none;
      }

      .b420010f-9a6b-49af-a2ec-c3abc99961a6 {
        isolation: isolate;
      }

      .a5e34b5a-b5db-47b6-a19a-ee47c9f2aaf4 {
        clip-path: url(#ec3d97ca-07d9-47d1-8f51-bfdb080a54a5);
      }

      .a5ee53f5-9c60-47da-94b7-9ec77e121f45 {
        fill: #f9d1c6;
      }

      .a5ee53f5-9c60-47da-94b7-9ec77e121f45, .bf731262-97e2-4d46-bd73-49d993d1f54b {
        stroke: #323232;
      }

      .a0787cc6-63bd-45f1-91f3-f53ff84ba08e, .a0a4746c-5389-4f7f-ad7f-c2fe2b710b96, .a20c30d5-fc5c-46ba-8fd7-d98d95d1a9c4, .a5acae54-e800-443e-9219-5a12577d6f73, .a5ee53f5-9c60-47da-94b7-9ec77e121f45, .a913266d-cf9e-4327-b76c-942faac5415d, .aafe51e6-9caf-463e-a610-4ce0c7063591, .ac6b553f-121c-4372-976b-40fdcb241acc, .ad7c9751-1f98-4149-a87b-3c479e8778ee, .b055bdff-3176-4e15-ad0e-2cbf72887f15, .b09fad0d-7dac-48ac-a32f-5c2af1b96cef, .b188f323-401d-4b60-b55f-81534afe398d, .b2579ff3-47f4-4747-8e23-98cb43fc694c, .b39fe92d-8c5a-450c-abdc-15be5289f1ac, .b50757d8-0b93-4c56-b8e6-37221a424da2, .b8f64b73-3498-4ce4-ba61-274401bccd20, .b9e6e12b-eb0e-4235-a931-f95ca7395a9d, .bad46ac4-85ab-42ff-a7ab-e1bd472b6729, .beea3583-d4d7-4106-8450-0f53b9507a65, .bf731262-97e2-4d46-bd73-49d993d1f54b, .e2f4e0f3-5621-41d0-a75b-4799e54cdb86, .e623df90-919d-4d36-b52c-1602849f838a, .eb98dd22-31a4-4cee-a1aa-87c2ad39fa6b, .ebcb3ca8-b1ee-4676-9b39-1a7a9c45e84d, .f0e9fae4-71c9-4c38-b4c7-4565d3914885, .f345dd65-2b5e-49a9-8a24-13cffc6d2764, .f44e62c9-3041-4202-bc2b-50938ab36223, .fd22d60e-b155-4c90-a0f8-6e195031e730 {
        stroke-miterlimit: 10;
      }

      .ad7c9751-1f98-4149-a87b-3c479e8778ee {
        fill: #00b6c2;
        stroke: #0c7777;
        stroke-width: 2px;
      }

      .fed12635-d0dc-457c-a2aa-568e8155b6d4 {
        opacity: 0.5;
      }

      .f0e9fae4-71c9-4c38-b4c7-4565d3914885 {
        fill: #00b2ed;
        stroke: #fff;
        stroke-width: 0.5px;
      }

      .a5f7d8f1-f958-4ad4-a96c-ea91a329922e {
        fill: #01687f;
      }

      .b0e4bae4-1381-4af6-a97e-525f52c90924 {
        fill: url(#e2cf8992-b433-40d9-a4e2-8a20528e7a20);
      }

      .a89bc182-d1eb-4c33-91f8-0beff32aa68c {
        clip-path: url(#a496aa4f-e45b-446a-87e5-b2563fdcbe14);
      }

      .aa521923-e95b-4749-a506-a16be49daeb5, .bf731262-97e2-4d46-bd73-49d993d1f54b {
        fill: #f4d1b3;
      }

      .b84c477b-0c8f-4684-b130-3e4eaab4d09a {
        opacity: 0.1;
      }

      .f18ebad2-6227-435b-bdf7-f62059ac122e {
        fill: #9eb7ba;
      }

      .a703144e-163a-4052-b10e-99177a5e2290 {
        fill: #a62501;
      }

      .aa7abce7-f9fc-4d18-97bc-5ce396a3a92b {
        fill: #6b1400;
      }

      .e0aae48f-a0ee-4aa5-9392-16e0506fa0ef {
        fill: #871e00;
      }

      .a20c30d5-fc5c-46ba-8fd7-d98d95d1a9c4, .aa775002-cbab-45c5-aa2e-4c281446edfe {
        fill: #e02229;
      }

      .a20c30d5-fc5c-46ba-8fd7-d98d95d1a9c4 {
        stroke: #771c3a;
      }

      .b50757d8-0b93-4c56-b8e6-37221a424da2 {
        fill: #ffd833;
        stroke: #77401c;
      }

      .e7cbcbd7-c6b1-446b-ab88-de3af3853b81 {
        fill: #dbb92a;
      }

      .e60d3513-b66d-418b-9408-946606717a6a {
        fill: #323232;
      }

      .aa782e21-b974-4b9c-9907-ac95b1b1be69 {
        fill: #db9d8e;
      }

      .a793feed-eb9a-4e1f-85ef-46ba13cd1721 {
        fill: #342517;
      }

      .bd6f1c75-b7f1-4158-9878-41c4c3c6e3b3 {
        fill: #342516;
      }

      .e7f12880-9ff8-405a-9aa0-227b0811eec6 {
        fill: #661e1b;
      }

      .ecc47740-8457-478e-a6a1-e95794c7eab1 {
        fill: #f9988f;
      }

      .b055bdff-3176-4e15-ad0e-2cbf72887f15 {
        fill: #f9f8f7;
        stroke: #7f430d;
        stroke-width: 0.75px;
      }

      .b8a6853e-ce67-4f23-a6f4-78868ad667ae {
        fill: #fdefec;
      }

      .e80484ff-369f-43ce-8b0d-5030f4faf20a {
        fill: #fff;
      }

      .b6d8642f-7b1b-4766-832c-6f21b7adca9a {
        fill: #540c00;
      }

      .abfcd405-3105-4806-bc18-fb9ddabff884 {
        fill: #c69458;
      }

      .ab4513c0-ef96-4740-85f3-7963b210b620 {
        fill: #e6b166;
      }

      .a913266d-cf9e-4327-b76c-942faac5415d {
        stroke: #30251c;
      }

      .eaaeee87-20ac-42e4-a593-453b57b26c05 {
        fill: url(#bce4cfbc-cc15-44d3-b24f-338458678f61);
      }

      .ede2cffe-748b-4365-ac8a-a058e5798ed3 {
        fill: url(#bd5809f3-bde0-4142-afa4-5f491d663cdc);
      }

      .a0787cc6-63bd-45f1-91f3-f53ff84ba08e, .aafe51e6-9caf-463e-a610-4ce0c7063591, .ac6b553f-121c-4372-976b-40fdcb241acc, .b09fad0d-7dac-48ac-a32f-5c2af1b96cef, .b188f323-401d-4b60-b55f-81534afe398d, .b9e6e12b-eb0e-4235-a931-f95ca7395a9d, .bad46ac4-85ab-42ff-a7ab-e1bd472b6729, .beea3583-d4d7-4106-8450-0f53b9507a65, .e2f4e0f3-5621-41d0-a75b-4799e54cdb86, .eb98dd22-31a4-4cee-a1aa-87c2ad39fa6b, .f368d691-4316-4cc1-a3e7-9c549c6be31e {
        mix-blend-mode: screen;
      }

      .f368d691-4316-4cc1-a3e7-9c549c6be31e {
        fill: url(#bda2da27-9677-4f28-a3c3-c904798a5524);
      }

      .b0998971-bef0-4fb0-8003-6f1c30afb316, .ed9f6176-0c3d-4128-9d51-837deaf98a25 {
        fill: url(#f24605b5-0781-4924-b967-c88789022076);
      }

      .b0998971-bef0-4fb0-8003-6f1c30afb316 {
        opacity: 0.6;
      }

      .a0a4746c-5389-4f7f-ad7f-c2fe2b710b96, .a5acae54-e800-443e-9219-5a12577d6f73, .b0998971-bef0-4fb0-8003-6f1c30afb316, .b2579ff3-47f4-4747-8e23-98cb43fc694c, .b39fe92d-8c5a-450c-abdc-15be5289f1ac, .b8f64b73-3498-4ce4-ba61-274401bccd20, .e623df90-919d-4d36-b52c-1602849f838a, .ebcb3ca8-b1ee-4676-9b39-1a7a9c45e84d, .f345dd65-2b5e-49a9-8a24-13cffc6d2764, .f44e62c9-3041-4202-bc2b-50938ab36223, .fd22d60e-b155-4c90-a0f8-6e195031e730 {
        mix-blend-mode: multiply;
      }

      .fd22d60e-b155-4c90-a0f8-6e195031e730 {
        fill: url(#ee8caec6-5453-43f3-acf0-9dfcb8e3bd52);
      }

      .e2f4e0f3-5621-41d0-a75b-4799e54cdb86, .fd22d60e-b155-4c90-a0f8-6e195031e730 {
        stroke: url(#a6fef663-9457-4fe4-9621-95e9535cd2e0);
      }

      .a0787cc6-63bd-45f1-91f3-f53ff84ba08e, .aafe51e6-9caf-463e-a610-4ce0c7063591, .ac6b553f-121c-4372-976b-40fdcb241acc, .b09fad0d-7dac-48ac-a32f-5c2af1b96cef, .b188f323-401d-4b60-b55f-81534afe398d, .b9e6e12b-eb0e-4235-a931-f95ca7395a9d, .bad46ac4-85ab-42ff-a7ab-e1bd472b6729, .beea3583-d4d7-4106-8450-0f53b9507a65, .e2f4e0f3-5621-41d0-a75b-4799e54cdb86, .eb98dd22-31a4-4cee-a1aa-87c2ad39fa6b {
        opacity: 0.2;
      }

      .e2f4e0f3-5621-41d0-a75b-4799e54cdb86 {
        fill: url(#a522062d-bc2a-4430-9ee0-fc477d608326);
      }

      .a5acae54-e800-443e-9219-5a12577d6f73 {
        fill: url(#ad4611d6-02fc-4f12-88f8-e7c972c11ac2);
      }

      .a5acae54-e800-443e-9219-5a12577d6f73, .eb98dd22-31a4-4cee-a1aa-87c2ad39fa6b {
        stroke: url(#b1e43dcf-b961-4191-bf70-a71b16713949);
      }

      .eb98dd22-31a4-4cee-a1aa-87c2ad39fa6b {
        fill: url(#a517a414-d537-418b-9743-6efa6dc1a117);
      }

      .e623df90-919d-4d36-b52c-1602849f838a {
        fill: url(#ae236333-3c55-4f4c-bd50-131e9c0d65d9);
      }

      .a0787cc6-63bd-45f1-91f3-f53ff84ba08e, .e623df90-919d-4d36-b52c-1602849f838a {
        stroke: url(#f3bc15af-8156-4b95-852a-2a86d6df1e8d);
      }

      .a0787cc6-63bd-45f1-91f3-f53ff84ba08e {
        fill: url(#bc807e40-60c8-4c5a-9c0c-8ebbf750f6f1);
      }

      .b8f64b73-3498-4ce4-ba61-274401bccd20 {
        fill: url(#aa8a171d-8378-4f70-b486-491af35e14f5);
      }

      .b09fad0d-7dac-48ac-a32f-5c2af1b96cef, .b8f64b73-3498-4ce4-ba61-274401bccd20 {
        stroke: url(#ed449940-721b-46d4-b8ec-c82ca6d73bb6);
      }

      .b09fad0d-7dac-48ac-a32f-5c2af1b96cef {
        fill: url(#bf3b3d41-570d-47fe-984a-8c1986c7e518);
      }

      .f44e62c9-3041-4202-bc2b-50938ab36223 {
        fill: url(#ecc0be36-7b4f-497f-bc6b-a80a9ebdd71b);
      }

      .ac6b553f-121c-4372-976b-40fdcb241acc, .f44e62c9-3041-4202-bc2b-50938ab36223 {
        stroke: url(#ed1bd4c6-1677-4e47-87f8-3dd00d348e0a);
      }

      .ac6b553f-121c-4372-976b-40fdcb241acc {
        fill: url(#bbf1f7dd-bf67-445b-b852-899a28ae36ee);
      }

      .a0a4746c-5389-4f7f-ad7f-c2fe2b710b96 {
        fill: url(#a1d4a570-7d0c-4ad5-bf3d-97217865ff8d);
      }

      .a0a4746c-5389-4f7f-ad7f-c2fe2b710b96, .aafe51e6-9caf-463e-a610-4ce0c7063591 {
        stroke: url(#a838d68f-0ac6-438c-aec7-4ac0a9cd8132);
      }

      .aafe51e6-9caf-463e-a610-4ce0c7063591 {
        fill: url(#a7a3dbf5-dbdf-40b0-a3c5-8e81decd7cb4);
      }

      .b2579ff3-47f4-4747-8e23-98cb43fc694c {
        fill: url(#b260af5f-afa6-4e7f-8d60-067c2af2eb14);
      }

      .b188f323-401d-4b60-b55f-81534afe398d, .b2579ff3-47f4-4747-8e23-98cb43fc694c {
        stroke: url(#e3e161a3-32cf-4056-9048-7f4acf18c60d);
      }

      .b188f323-401d-4b60-b55f-81534afe398d {
        fill: url(#bc76d604-39ae-48d8-b9b1-aee9ea8d1398);
      }

      .b39fe92d-8c5a-450c-abdc-15be5289f1ac {
        fill: url(#a113afe7-2eb7-41fe-8201-38d4dcb4ef89);
      }

      .b39fe92d-8c5a-450c-abdc-15be5289f1ac, .bad46ac4-85ab-42ff-a7ab-e1bd472b6729 {
        stroke: url(#a5e0c8f0-1050-47f6-b2fe-29665a1e948c);
      }

      .bad46ac4-85ab-42ff-a7ab-e1bd472b6729 {
        fill: url(#aae20cd9-67eb-4093-a6c6-2c930e000f46);
      }

      .f345dd65-2b5e-49a9-8a24-13cffc6d2764 {
        fill: url(#afb471b5-eb4b-4b19-be62-dac0c7289d20);
      }

      .b9e6e12b-eb0e-4235-a931-f95ca7395a9d, .f345dd65-2b5e-49a9-8a24-13cffc6d2764 {
        stroke: url(#ba886c61-5bb7-4145-a162-145e925d3d99);
      }

      .b9e6e12b-eb0e-4235-a931-f95ca7395a9d {
        fill: url(#ef868639-f7d1-4cc2-b351-00b64ed141f9);
      }

      .ebcb3ca8-b1ee-4676-9b39-1a7a9c45e84d {
        fill: url(#b074f4f2-712d-47e1-94a9-ef52162c4c87);
      }

      .beea3583-d4d7-4106-8450-0f53b9507a65, .ebcb3ca8-b1ee-4676-9b39-1a7a9c45e84d {
        stroke: url(#be1d49e0-4298-4c4b-81a4-d8aa9443f6dc);
      }

      .beea3583-d4d7-4106-8450-0f53b9507a65 {
        fill: url(#e68f6470-4cbe-4072-b6f6-ebd298d34d33);
      }

      .b053f348-99b8-4a71-94cf-069b766537c6 {
        fill: url(#a1572f50-f14e-4719-8ebf-6ebc3b58825c);
      }
    </style>
    <clipPath id="ec3d97ca-07d9-47d1-8f51-bfdb080a54a5">
      <circle class="b1d337a4-91bb-4374-b10b-4a0e8fc084b9" cx="112.5" cy="-392.5" r="285.12"/>
    </clipPath>
    <linearGradient id="e2cf8992-b433-40d9-a4e2-8a20528e7a20" x1="249.99" y1="-37.02" x2="249.99" y2="516.08" gradientUnits="userSpaceOnUse">
      <stop offset="0" stop-color="#e5e5e5"/>
      <stop offset="1" stop-color="#00c7e2"/>
    </linearGradient>
    <clipPath id="a496aa4f-e45b-446a-87e5-b2563fdcbe14">
      <path class="b1d337a4-91bb-4374-b10b-4a0e8fc084b9" d="M378.31,476.68c-3.19.51-6.39.93-9.55,1.32-76.38,9.45-163.92,9.55-240.33.31-16.73-2-34.47-5-47-16.25C67.63,449.62,63.36,430,60.24,411.68A1244.93,1244.93,0,0,1,42.74,187c.36-28.16-5.65-83.64,10-108.3,14.09-22.2,45.84-30.59,70-32.86,89.73-8.41,179-6.62,269.19-2.57,14.14.63,29,1.72,40.86,9.49C455.31,67.48,458.61,99,458,125.88,455.91,221.53,455.76,317,437.7,411c-3.6,18.76-8.32,38.88-22.78,51.36C404.84,471,391.64,474.57,378.31,476.68Z"/>
    </clipPath>
    <linearGradient id="bce4cfbc-cc15-44d3-b24f-338458678f61" x1="-5174.79" y1="-1521.03" x2="-5130.35" y2="-1521.03" gradientTransform="matrix(0.61, -0.12, -0.55, -0.77, 2424.67, -1549.36)" gradientUnits="userSpaceOnUse">
      <stop offset="0" stop-color="#262626"/>
      <stop offset="0.52" stop-color="#0d0d0d"/>
      <stop offset="1" stop-color="#262626"/>
    </linearGradient>
    <linearGradient id="bd5809f3-bde0-4142-afa4-5f491d663cdc" x1="-5178.54" y1="-1564.33" x2="-5150.98" y2="-1564.33" gradientTransform="matrix(0.61, -0.12, -0.55, -0.77, 2424.67, -1549.36)" gradientUnits="userSpaceOnUse">
      <stop offset="0" stop-color="#0d0d0d"/>
      <stop offset="0.19" stop-color="#262626"/>
      <stop offset="0.24" stop-color="#1f1f1f"/>
      <stop offset="0.42" stop-color="#0d0d0d"/>
      <stop offset="0.61" stop-color="#030303"/>
      <stop offset="0.85"/>
      <stop offset="0.9" stop-color="#040404"/>
      <stop offset="0.95" stop-color="#101010"/>
      <stop offset="1" stop-color="#242424"/>
      <stop offset="1" stop-color="#262626"/>
    </linearGradient>
    <linearGradient id="bda2da27-9677-4f28-a3c3-c904798a5524" x1="-5178.54" y1="-1568.14" x2="-5153.13" y2="-1568.14" xlink:href="#bd5809f3-bde0-4142-afa4-5f491d663cdc"/>
    <linearGradient id="f24605b5-0781-4924-b967-c88789022076" x1="-5176.29" y1="-1559.72" x2="-5150.98" y2="-1559.72" xlink:href="#bd5809f3-bde0-4142-afa4-5f491d663cdc"/>
    <linearGradient id="ee8caec6-5453-43f3-acf0-9dfcb8e3bd52" x1="-1009.28" y1="-2225.86" x2="-1009.28" y2="-2218.64" gradientTransform="translate(-477.77 -2069.01) rotate(-170.66)" gradientUnits="userSpaceOnUse">
      <stop offset="0"/>
      <stop offset="1" stop-color="#fff"/>
    </linearGradient>
    <linearGradient id="a6fef663-9457-4fe4-9621-95e9535cd2e0" x1="-1015.02" y1="-2222.25" x2="-1003.54" y2="-2222.25" gradientTransform="translate(-477.77 -2069.01) rotate(-170.66)" gradientUnits="userSpaceOnUse">
      <stop offset="0" stop-color="#fff"/>
      <stop offset="0.06" stop-color="#fafafa"/>
      <stop offset="0.12" stop-color="#ededed"/>
      <stop offset="0.19" stop-color="#d7d7d7"/>
      <stop offset="0.26" stop-color="#b7b7b7"/>
      <stop offset="0.33" stop-color="#8f8f8f"/>
      <stop offset="0.4" stop-color="#5d5d5d"/>
      <stop offset="0.48" stop-color="#242424"/>
      <stop offset="0.52"/>
      <stop offset="0.52" stop-color="#060606"/>
      <stop offset="0.58" stop-color="#404040"/>
      <stop offset="0.64" stop-color="#737373"/>
      <stop offset="0.7" stop-color="#9e9e9e"/>
      <stop offset="0.76" stop-color="#c1c1c1"/>
      <stop offset="0.82" stop-color="#dcdcdc"/>
      <stop offset="0.88" stop-color="#f0f0f0"/>
      <stop offset="0.94" stop-color="#fbfbfb"/>
      <stop offset="1" stop-color="#fff"/>
    </linearGradient>
    <linearGradient id="a522062d-bc2a-4430-9ee0-fc477d608326" x1="-1009.28" y1="-2225.86" x2="-1009.28" y2="-2218.64" gradientTransform="translate(-477.77 -2069.01) rotate(-170.66)" gradientUnits="userSpaceOnUse">
      <stop offset="0.17"/>
      <stop offset="1" stop-color="#fff"/>
    </linearGradient>
    <linearGradient id="ad4611d6-02fc-4f12-88f8-e7c972c11ac2" x1="-1005.23" y1="-2220" x2="-1005.23" y2="-2212.78" xlink:href="#ee8caec6-5453-43f3-acf0-9dfcb8e3bd52"/>
    <linearGradient id="b1e43dcf-b961-4191-bf70-a71b16713949" x1="-1010.97" y1="-2216.39" x2="-999.49" y2="-2216.39" xlink:href="#a6fef663-9457-4fe4-9621-95e9535cd2e0"/>
    <linearGradient id="a517a414-d537-418b-9743-6efa6dc1a117" x1="-1005.23" y1="-2220" x2="-1005.23" y2="-2212.78" xlink:href="#a522062d-bc2a-4430-9ee0-fc477d608326"/>
    <linearGradient id="ae236333-3c55-4f4c-bd50-131e9c0d65d9" x1="-1001.17" y1="-2214.14" x2="-1001.17" y2="-2206.91" xlink:href="#ee8caec6-5453-43f3-acf0-9dfcb8e3bd52"/>
    <linearGradient id="f3bc15af-8156-4b95-852a-2a86d6df1e8d" x1="-1006.91" y1="-2210.53" x2="-995.43" y2="-2210.53" xlink:href="#a6fef663-9457-4fe4-9621-95e9535cd2e0"/>
    <linearGradient id="bc807e40-60c8-4c5a-9c0c-8ebbf750f6f1" x1="-1001.17" y1="-2214.14" x2="-1001.17" y2="-2206.91" xlink:href="#a522062d-bc2a-4430-9ee0-fc477d608326"/>
    <linearGradient id="aa8a171d-8378-4f70-b486-491af35e14f5" x1="-997.11" y1="-2208.27" x2="-997.11" y2="-2201.05" xlink:href="#ee8caec6-5453-43f3-acf0-9dfcb8e3bd52"/>
    <linearGradient id="ed449940-721b-46d4-b8ec-c82ca6d73bb6" x1="-1002.85" y1="-2204.66" x2="-991.37" y2="-2204.66" xlink:href="#a6fef663-9457-4fe4-9621-95e9535cd2e0"/>
    <linearGradient id="bf3b3d41-570d-47fe-984a-8c1986c7e518" x1="-997.11" y1="-2208.27" x2="-997.11" y2="-2201.05" xlink:href="#a522062d-bc2a-4430-9ee0-fc477d608326"/>
    <linearGradient id="ecc0be36-7b4f-497f-bc6b-a80a9ebdd71b" x1="-993.06" y1="-2202.41" x2="-993.06" y2="-2195.19" xlink:href="#ee8caec6-5453-43f3-acf0-9dfcb8e3bd52"/>
    <linearGradient id="ed1bd4c6-1677-4e47-87f8-3dd00d348e0a" x1="-998.8" y1="-2198.8" x2="-987.32" y2="-2198.8" xlink:href="#a6fef663-9457-4fe4-9621-95e9535cd2e0"/>
    <linearGradient id="bbf1f7dd-bf67-445b-b852-899a28ae36ee" x1="-993.06" y1="-2202.41" x2="-993.06" y2="-2195.19" xlink:href="#a522062d-bc2a-4430-9ee0-fc477d608326"/>
    <linearGradient id="a1d4a570-7d0c-4ad5-bf3d-97217865ff8d" x1="-989" y1="-2196.54" x2="-989" y2="-2189.32" xlink:href="#ee8caec6-5453-43f3-acf0-9dfcb8e3bd52"/>
    <linearGradient id="a838d68f-0ac6-438c-aec7-4ac0a9cd8132" x1="-994.74" y1="-2192.93" x2="-983.26" y2="-2192.93" xlink:href="#a6fef663-9457-4fe4-9621-95e9535cd2e0"/>
    <linearGradient id="a7a3dbf5-dbdf-40b0-a3c5-8e81decd7cb4" x1="-989" y1="-2196.54" x2="-989" y2="-2189.32" xlink:href="#a522062d-bc2a-4430-9ee0-fc477d608326"/>
    <linearGradient id="b260af5f-afa6-4e7f-8d60-067c2af2eb14" x1="-984.94" y1="-2190.68" x2="-984.94" y2="-2183.46" xlink:href="#ee8caec6-5453-43f3-acf0-9dfcb8e3bd52"/>
    <linearGradient id="e3e161a3-32cf-4056-9048-7f4acf18c60d" x1="-990.68" y1="-2187.07" x2="-979.2" y2="-2187.07" xlink:href="#a6fef663-9457-4fe4-9621-95e9535cd2e0"/>
    <linearGradient id="bc76d604-39ae-48d8-b9b1-aee9ea8d1398" x1="-984.94" y1="-2190.68" x2="-984.94" y2="-2183.46" xlink:href="#a522062d-bc2a-4430-9ee0-fc477d608326"/>
    <linearGradient id="a113afe7-2eb7-41fe-8201-38d4dcb4ef89" x1="-980.88" y1="-2184.82" x2="-980.88" y2="-2177.6" xlink:href="#ee8caec6-5453-43f3-acf0-9dfcb8e3bd52"/>
    <linearGradient id="a5e0c8f0-1050-47f6-b2fe-29665a1e948c" x1="-986.62" y1="-2181.21" x2="-975.14" y2="-2181.21" xlink:href="#a6fef663-9457-4fe4-9621-95e9535cd2e0"/>
    <linearGradient id="aae20cd9-67eb-4093-a6c6-2c930e000f46" x1="-980.88" y1="-2184.82" x2="-980.88" y2="-2177.6" xlink:href="#a522062d-bc2a-4430-9ee0-fc477d608326"/>
    <linearGradient id="afb471b5-eb4b-4b19-be62-dac0c7289d20" x1="-976.83" y1="-2178.95" x2="-976.83" y2="-2171.73" xlink:href="#ee8caec6-5453-43f3-acf0-9dfcb8e3bd52"/>
    <linearGradient id="ba886c61-5bb7-4145-a162-145e925d3d99" x1="-982.57" y1="-2175.34" x2="-971.09" y2="-2175.34" xlink:href="#a6fef663-9457-4fe4-9621-95e9535cd2e0"/>
    <linearGradient id="ef868639-f7d1-4cc2-b351-00b64ed141f9" x1="-976.83" y1="-2178.95" x2="-976.83" y2="-2171.73" xlink:href="#a522062d-bc2a-4430-9ee0-fc477d608326"/>
    <linearGradient id="b074f4f2-712d-47e1-94a9-ef52162c4c87" x1="-972.77" y1="-2173.09" x2="-972.77" y2="-2165.87" xlink:href="#ee8caec6-5453-43f3-acf0-9dfcb8e3bd52"/>
    <linearGradient id="be1d49e0-4298-4c4b-81a4-d8aa9443f6dc" x1="-978.51" y1="-2169.48" x2="-967.03" y2="-2169.48" xlink:href="#a6fef663-9457-4fe4-9621-95e9535cd2e0"/>
    <linearGradient id="e68f6470-4cbe-4072-b6f6-ebd298d34d33" x1="-972.77" y1="-2173.09" x2="-972.77" y2="-2165.87" xlink:href="#a522062d-bc2a-4430-9ee0-fc477d608326"/>
    <linearGradient id="a1572f50-f14e-4719-8ebf-6ebc3b58825c" x1="-3984.19" y1="-3566.56" x2="-4040.34" y2="-3598.98" gradientTransform="matrix(0.81, 0.31, -0.15, -0.72, 2839.59, -1130.25)" gradientUnits="userSpaceOnUse">
      <stop offset="0" stop-color="#616161"/>
      <stop offset="0.52" stop-color="#0d0d0d"/>
      <stop offset="0.94" stop-color="#616161"/>
    </linearGradient>
  </defs>
  <g class="b420010f-9a6b-49af-a2ec-c3abc99961a6">
    <g id="b239ac0d-904d-412b-a0dd-1d0d0d05b811" data-name="Layer 1">
      <g class="a5e34b5a-b5db-47b6-a19a-ee47c9f2aaf4">
        <g>
          <path class="a5ee53f5-9c60-47da-94b7-9ec77e121f45" d="M359.07,27.09l-2.23,11.32-22.23-6.29A80.43,80.43,0,0,0,323.46,6.86l-9.69,19.35S300.86,28.43,309.11-4l3.62-18.36s-46.4-47.29-68.1-87.87L217-151.51l-5.09-7.58s11.78-29,46.62-36.46l7.94,11.85L287.71-152s30.68,50.8,60.37,128.9C348.08-23.12,356.42,12.63,359.07,27.09Z"/>
          <path class="a5ee53f5-9c60-47da-94b7-9ec77e121f45" d="M-134.07,23.71-131.84,35l22.23-6.29A80.43,80.43,0,0,1-98.46,3.48l9.69,19.35s12.91,2.22,4.66-30.25l-3.62-18.36s46.4-47.29,68.1-87.87L8-154.89l5.09-7.58s-11.78-29-46.62-36.46l-7.94,11.85L-62.71-155.4s-30.68,50.8-60.37,128.9C-123.08-26.5-131.42,9.25-134.07,23.71Z"/>
          <path class="ad7c9751-1f98-4149-a87b-3c479e8778ee" d="M214.12-157.93,232.91-12.46S122,41.46-.76-9.46c0,0,3.46-15,4-20,7.87-72.18,8.68-157.27,8.68-157.27L9-143.85a545.43,545.43,0,0,1-60.48-39.44s47.73-86.41,55.68-93c11.64-9.73,75.2-25.23,75.2-25.23S159.76-314.32,218-270.91l42.06,58.55,9.72,13.55s-17.47,15.39-56.16,35.8Z"/>
        </g>
      </g>
      <g>
        <path class="fed12635-d0dc-457c-a2aa-568e8155b6d4" d="M394.4,501c-3.46.55-6.93,1-10.36,1.43-82.9,10.25-177,10.36-260,.34-18.15-2.2-37.41-5.4-51-17.64-15-13.5-19.62-34.8-23-54.68a1350.89,1350.89,0,0,1-19-243.88C31.45,156,24.93,95.75,41.92,69c15.29-24.09,49.75-33.2,76-35.66,97.39-9.13,194.23-7.19,292.15-2.79,15.35.69,31.49,1.86,44.34,10.3,24.4,16,28,50.22,27.34,79.39-2.29,103.81-3.31,207.42-22.9,309.39-3.91,20.36-9,42.2-24.73,55.75C423.19,494.8,408.87,498.66,394.4,501Z"/>
        <path class="f0e9fae4-71c9-4c38-b4c7-4565d3914885" d="M388.4,495c-3.46.55-6.93,1-10.36,1.43-82.9,10.25-177,10.36-260,.34-18.15-2.2-37.41-5.4-51-17.64-15-13.5-19.62-34.8-23-54.68a1350.89,1350.89,0,0,1-19-243.88C25.45,150,18.93,89.75,35.92,63c15.29-24.09,49.75-33.2,76-35.66,97.39-9.13,194.23-7.19,292.15-2.79,15.35.69,31.49,1.86,44.34,10.3,24.4,16,28,50.22,27.34,79.39-2.29,103.81-3.31,207.42-22.9,309.39-3.91,20.36-9,42.2-24.73,55.75C417.19,488.8,402.87,492.66,388.4,495Z"/>
        <path class="a5f7d8f1-f958-4ad4-a96c-ea91a329922e" d="M380.77,481.13c-3.26.51-6.52.95-9.75,1.35-78,9.64-167.12,9.74-245.11.31-17.08-2.07-35.19-5.08-48-16.59-14.1-12.7-18.45-32.72-21.64-51.42A1270.93,1270.93,0,0,1,38.43,185.4C38.8,156.64,32.67,100,48.64,74.85,63,52.19,95.44,43.62,120.14,41.3c91.6-8.58,182.68-6.76,274.77-2.63,14.45.65,29.63,1.76,41.71,9.7C459.57,63.43,462.94,95.6,462.34,123c-2.15,97.64-2.52,195.09-20.95,291-3.68,19.15-8.49,39.69-23.26,52.43C407.85,475.34,394.37,479,380.77,481.13Z"/>
        <path class="b0e4bae4-1381-4af6-a97e-525f52c90924" d="M378.31,476.68c-3.19.51-6.39.93-9.55,1.32-76.38,9.45-163.92,9.55-240.33.31-16.73-2-34.47-5-47-16.25C67.63,449.62,63.36,430,60.24,411.68A1244.93,1244.93,0,0,1,42.74,187c.36-28.16-5.65-83.64,10-108.3,14.09-22.2,45.84-30.59,70-32.86,89.73-8.41,179-6.62,269.19-2.57,14.14.63,29,1.72,40.86,9.49C455.31,67.48,458.61,99,458,125.88,455.91,221.53,455.76,317,437.7,411c-3.6,18.76-8.32,38.88-22.78,51.36C404.84,471,391.64,474.57,378.31,476.68Z"/>
        <g class="a89bc182-d1eb-4c33-91f8-0beff32aa68c">
          <g>
            <path class="bf731262-97e2-4d46-bd73-49d993d1f54b" d="M271,245.26l-1-16.72c-5.23,1.83-25.56-1-26.65,6.64-.2,1.41.8,11.06.88,12.13v.15c-2.61.53-5.35,1.16-8.22,1.92,0,0,7.21,9.07,16.52,8.81s23-6.12,26.87-11.87A73.7,73.7,0,0,0,271,245.26Z"/>
            <path class="bf731262-97e2-4d46-bd73-49d993d1f54b" d="M211.07,457.09c3.62,5.21.64,55.18.68,65,.05,10.12,28,25.44,30.39,12.19,8.18-45,2.58-77.95,1.87-82.41,1.08,6.79-29.22-19.8-32.48-16.37C207.55,439.67,207.44,451.87,211.07,457.09Z"/>
            <path class="b84c477b-0c8f-4684-b130-3e4eaab4d09a" d="M227.26,452.67c14.26,8.74,11.87,60.16,10,82.78l1-.71c11.22-9,7.72-68.16,7.48-71.19-.26-3.31-.67-8.34-2.21-11.76C232.18,448.8,214.12,444.61,227.26,452.67Z"/>
            <path class="f18ebad2-6227-435b-bdf7-f62059ac122e" d="M244.35,519s-1.6,35.33-3.56,36-34.41-11.62-34.41-11.62,5.24-18.69,5.42-24.33A54,54,0,0,0,244.35,519Z"/>
            <path class="a703144e-163a-4052-b10e-99177a5e2290" d="M206.5,442.94s18.45,13.7,49.59,7.21l-3.1-69c-15.3-2.09-30.47-1.8-39.58,4.52C213.41,385.64,205.29,432.78,206.5,442.94Z"/>
            <path class="aa7abce7-f9fc-4d18-97bc-5ce396a3a92b" d="M257.45,440l.66,12.79s-30.47,9.78-52-9.92l.72-10.78S230.57,447.92,257.45,440Z"/>
            <polygon class="a703144e-163a-4052-b10e-99177a5e2290" points="259.53 407.99 240.79 407.99 237.11 382.1 252.99 381.12 259.53 407.99"/>
            <path class="bf731262-97e2-4d46-bd73-49d993d1f54b" d="M273.28,468.21c4.9,6.06,12.33,49.11,13.78,56.53,1.76,9,30.21,16.83,31.84-.25,1.21-12.67-2.21-46.26-12.67-73,3.79,9.69-31.2-14.55-36.26-8.07C263.35,451.93,268.37,462.14,273.28,468.21Z"/>
            <path class="b84c477b-0c8f-4684-b130-3e4eaab4d09a" d="M286.51,452.72c20.06,2.14,28.39,56.79,31,79l.56-1.71c6.26-22.84-11.49-79.07-11.49-79.07-.51-1.84-2.48-3.71-5.25-5.38C286.05,448.28,273.61,451.35,286.51,452.72Z"/>
            <path class="f18ebad2-6227-435b-bdf7-f62059ac122e" d="M319.06,517.18s2.85,29.21,5.3,30.42-33.82,7.84-39.93,4.5c0,0,3.4-19.53,1.63-30.84C286.06,521.26,306.42,523.71,319.06,517.18Z"/>
            <path class="a703144e-163a-4052-b10e-99177a5e2290" d="M253,381.12l1.26,40,2.85,30.59c34,8,54.6-2.92,58.8-6.3L302.58,382l-23.35-4.44Z"/>
            <path class="e0aae48f-a0ee-4aa5-9392-16e0506fa0ef" d="M260.64,392.66s30.49-.38,35.21,21.8,0,34.55,0,34.55l18.79-2.59a15,15,0,0,0,1.18-1L307.2,408c4.45-16.27-2.23-33.83-2.23-33.83l-25.74,3.44Z"/>
            <path class="aa7abce7-f9fc-4d18-97bc-5ce396a3a92b" d="M314.31,437.93l2.85,12.87s-34.33,16.4-60.54.72l-1.42-14.85S270.39,450.08,314.31,437.93Z"/>
            <path class="bf731262-97e2-4d46-bd73-49d993d1f54b" d="M129.87,271.58c15.59,35.87,30.55,52.9,41.74,54.74a6.58,6.58,0,0,0,2,.44c6.64.32,32.72-25.17,32.72-25.17L192.13,281s-10.51,10.18-18.63,19c-5.42-8.76-20.16-19.67-23.76-29.71"/>
            <path class="a20c30d5-fc5c-46ba-8fd7-d98d95d1a9c4" d="M225.54,251.36a39.37,39.37,0,0,0-18,10.08c-7.29,7.46-21.7,22.82-21.7,22.82a27.57,27.57,0,0,0,17.35,22.86s13.94-11.93,16.52-23.87S225.54,251.36,225.54,251.36Z"/>
            <path class="b50757d8-0b93-4c56-b8e6-37221a424da2" d="M279.42,246.26a28.9,28.9,0,0,1-23.52,13.38c-7.8.36-11.63-2.58-15.24-7.08L236,249.38s-6.67,1.18-10.67,2.43c-2.25.7-3.9,5.31-5,12.87-1.92,13.5-4.08,30.05-4.08,30.05h0c-7.53,41.55-3.08,92.83-3.08,92.83,15.71,8,59.89,8.34,89.65-5.82.51-20.42-13.13-44.93-8.57-71.81,2.89-17,8.93-34.19,12-55.62C292.86,245.36,286.26,247.27,279.42,246.26Z"/>
            <path class="e7cbcbd7-c6b1-446b-ab88-de3af3853b81" d="M302.63,382c-2-24.65-4.87-23.41-8.69-46.13C290.43,315,295.11,305,295.11,305s-10.26,84.14-30.57,86.28C287.34,388.88,302.63,382,302.63,382Z"/>
            <path class="aa775002-cbab-45c5-aa2e-4c281446edfe" d="M236,249.86c3.16,4.43,8.35,14.37,21.79,11.93,13.66-2.49,19.63-10.88,22.49-15.11-2.46-.37-4.92-1-4.92-1-22.2,21.12-32.82,2.58-32.82,2.58C241,248.66,237.18,249.53,236,249.86Z"/>
            <path class="b84c477b-0c8f-4684-b130-3e4eaab4d09a" d="M244.48,247.65c5.38-5,19.86-7.56,25.85-9.66l-1.11-15.18-26.75,1Z"/>
            <g>
              <path class="aa521923-e95b-4749-a506-a16be49daeb5" d="M302,420.8s6.6-6.12,7.56-11"/>
              <path class="e60d3513-b66d-418b-9408-946606717a6a" d="M302,420.8c1.35-1.85,2.78-3.56,4.1-5.35a26.94,26.94,0,0,0,3.46-5.69,8.45,8.45,0,0,1-.88,3.33,16.29,16.29,0,0,1-1.78,3,21.41,21.41,0,0,1-2.26,2.58A16.82,16.82,0,0,1,302,420.8Z"/>
            </g>
            <g>
              <path class="aa521923-e95b-4749-a506-a16be49daeb5" d="M308.1,419.6s6.6-6.12,7.56-11"/>
              <path class="e60d3513-b66d-418b-9408-946606717a6a" d="M308.1,419.6c1.35-1.85,2.78-3.56,4.1-5.35a26.94,26.94,0,0,0,3.46-5.69,8.45,8.45,0,0,1-.88,3.33,16.29,16.29,0,0,1-1.78,2.95,21.41,21.41,0,0,1-2.26,2.58A16.82,16.82,0,0,1,308.1,419.6Z"/>
            </g>
            <path class="a20c30d5-fc5c-46ba-8fd7-d98d95d1a9c4" d="M328.91,299.78s-14.72,19.3-32.9,15.93C296,315.71,297.18,263.78,328.91,299.78Z"/>
            <g>
              <path class="bf731262-97e2-4d46-bd73-49d993d1f54b" d="M187.8,192.79c6,9.12,16.36,12.06,23.91,7.59s3.92-9.52-2.05-18.64-6-8-14.48-10.82C176.71,164.72,181.83,183.67,187.8,192.79Z"/>
              <path class="aa782e21-b974-4b9c-9907-ac95b1b1be69" d="M192.71,175.36a4.39,4.39,0,0,0-3.71.73c-1.29,1.13-1.24,3.09-.9,4.74,1.21,5.81,4.87,11,9.5,14.94a7.25,7.25,0,0,0,2.52,1.56,2.79,2.79,0,0,0,2.79-.55,2.88,2.88,0,0,0,.28-3.06c-1.06-2.55-3.78-4-6.05-5.71a5.37,5.37,0,0,1-1.6-1.62,2,2,0,0,1,0-2.12,2.78,2.78,0,0,1,1.54-.88,16,16,0,0,1,3.7-.41c.32-1.81-1.4-3.32-2.61-4.44A11.52,11.52,0,0,0,192.71,175.36Z"/>
            </g>
            <path class="bf731262-97e2-4d46-bd73-49d993d1f54b" d="M201,128.66c29.72-21.44-14.91-40.52,27.31-44.23,41-3.6,66.9,14.6,71.48,50.07,2.12,16.39-1.41,34.15-1.23,35,8.47,41.25-24.09,65.5-48.93,67.67-10.85,1-22.56-3.18-32.91-9.78-12.64-8.07-23.15-21.19-26.12-50.4C190.49,176.13,176.21,146.53,201,128.66Z"/>
            <path class="b84c477b-0c8f-4684-b130-3e4eaab4d09a" d="M272.6,119.91s-7.54,13-53.53,17.12l.67-6.2s-1.9,8.75-28.16,15.86l-.92,32.93L176.4,112.4l96.2-16.77L289,109.26l1.1,18.26S303,163.1,302.67,175.6l-1.73-1.9a67.51,67.51,0,0,1-14.55-24.94h0S277.46,153.48,272.6,119.91Z"/>
            <path class="a793feed-eb9a-4e1f-85ef-46ba13cd1721" d="M275.38,110.49s6.15,13.77-55,23c0,0,1.52-.88,5.43-15.63-5.19,18.21-21.1,20.19-32.43,24.95a55.08,55.08,0,0,0-2.27,6.5c-1.32,7.46-.42,30.33-.42,30.33s-7.41-15.2-9.68-21.72c0,0-7.54-18.09-5.83-30.42a63.14,63.14,0,0,0-2.49,11.88s-13.43-28.14,22.7-56c0,0-8-1.15-16.93,4.4,0,0,15.42-21.66,51.57-26.58,18.9-2.57,33.18-4.61,43.74,12.81,0,0,20.75-17.93,34,9.16,0,0-17-6.59-20.86.35,0,0,19.18.58,26.75,27,7.15,24.95,2.4,43.94-9.13,64.29,0,0-15.93-14-15.24-36.95L285,147S274.12,141.13,275.38,110.49Z"/>
            <g>
              <path class="bf731262-97e2-4d46-bd73-49d993d1f54b" d="M298.53,191.59c9.67,7,18.77-.52,21.48-10.59s2.3-29.53-11.44-19.81a19.2,19.2,0,0,0-9.7,13.35"/>
              <path class="aa782e21-b974-4b9c-9907-ac95b1b1be69" d="M311.69,165a3.28,3.28,0,0,1,3.24,0c1.35.85,1.78,2.76,1.9,4.43a28.36,28.36,0,0,1-4.2,16.44,6,6,0,0,1-1.7,2,2.14,2.14,0,0,1-2.44,0,3.31,3.31,0,0,1-1-2.92c.25-2.7,2.13-4.68,3.6-6.77a5,5,0,0,0,.93-1.89,2,2,0,0,0-2-2.61,11.49,11.49,0,0,0-3.15.34c-.7-1.7.35-3.51,1.07-4.85A9.35,9.35,0,0,1,311.69,165Z"/>
            </g>
            <g>
              <path class="aa521923-e95b-4749-a506-a16be49daeb5" d="M238.29,190.32c-7.49,7.53-15.06,1.39-15.27-2,0,0-.58-3.61,3.25-7.31S228,167.32,228,167.32"/>
              <path class="e60d3513-b66d-418b-9408-946606717a6a" d="M238.33,190.35a13.22,13.22,0,0,1-3.79,2.84,8.87,8.87,0,0,1-4.68.92,9,9,0,0,1-4.5-1.72,8.39,8.39,0,0,1-1.75-1.72,4.85,4.85,0,0,1-1-2.34v0a8.75,8.75,0,0,1,1.54-5.65,13.47,13.47,0,0,1,1.87-2.21,6.41,6.41,0,0,0,1.36-2.21,17,17,0,0,0,.89-5.39,37.36,37.36,0,0,0-.31-5.58l.1,0a27.64,27.64,0,0,1,.84,5.6,15.63,15.63,0,0,1-.65,5.7,6.76,6.76,0,0,1-1.5,2.6,16.7,16.7,0,0,0-1.75,2.07,8.14,8.14,0,0,0-1.58,5v0a5.73,5.73,0,0,0,2.34,3.59,8.42,8.42,0,0,0,8.66,1,13.23,13.23,0,0,0,3.84-2.64Z"/>
            </g>
            <path class="bd6f1c75-b7f1-4158-9878-41c4c3c6e3b3" d="M241.09,152.81s-3.61-2.66.18-8.17,14.57-8.16,18.66-5.55C259.93,139.09,244.45,143.36,241.09,152.81Z"/>
            <path class="bd6f1c75-b7f1-4158-9878-41c4c3c6e3b3" d="M225.5,154.26s1.83-4.56-2.81-8.08-14.62-3.38-17.51-.51C205.18,145.67,220.24,147.57,225.5,154.26Z"/>
            <path class="e7f12880-9ff8-405a-9aa0-227b0811eec6" d="M389.53,192.78c-.35-.25-.7-.49-1.06-.72l-.43-.26"/>
            <path class="ecc47740-8457-478e-a6a1-e95794c7eab1" d="M389.54,192.8v0l-.13,0c-.32-.25-.64-.48-.93-.68l-.43-.26"/>
            <g>
              <ellipse class="b055bdff-3176-4e15-ad0e-2cbf72887f15" cx="253.61" cy="164.64" rx="10.27" ry="11.41" transform="translate(-5.77 9.24) rotate(-2.06)"/>
              <ellipse class="bd6f1c75-b7f1-4158-9878-41c4c3c6e3b3" cx="252.4" cy="169.05" rx="6.47" ry="6.97" transform="matrix(1, -0.04, 0.04, 1, -5.93, 9.21)"/>
              <circle class="b8a6853e-ce67-4f23-a6f4-78868ad667ae" cx="256.37" cy="165.71" r="1.23" transform="translate(-6.46 10.44) rotate(-2.3)"/>
            </g>
            <g>
              <ellipse class="b055bdff-3176-4e15-ad0e-2cbf72887f15" cx="217.55" cy="167.27" rx="9.39" ry="11.41" transform="translate(-5.88 7.93) rotate(-2.06)"/>
              <ellipse class="bd6f1c75-b7f1-4158-9878-41c4c3c6e3b3" cx="216.56" cy="171.67" rx="6" ry="6.97" transform="translate(-6.04 7.9) rotate(-2.06)"/>
              <ellipse class="b8a6853e-ce67-4f23-a6f4-78868ad667ae" cx="220.17" cy="168.34" rx="1.14" ry="1.24" transform="translate(-5.93 8.05) rotate(-2.07)"/>
            </g>
            <path class="e60d3513-b66d-418b-9408-946606717a6a" d="M297.38,419.24a51.41,51.41,0,0,0,4.77-5.42,24,24,0,0,0,1.87-3,19.68,19.68,0,0,0,1.27-3.37,9.32,9.32,0,0,1-.55,3.68,14.74,14.74,0,0,1-1.78,3.29,18.24,18.24,0,0,1-2.53,2.73A14.4,14.4,0,0,1,297.38,419.24Z"/>
            <path class="e7f12880-9ff8-405a-9aa0-227b0811eec6" d="M225.44,203.27l25.71-1.75c2.06-.12,4.87,2,5,3.77l.44,1.57a3.66,3.66,0,0,1-3,3.68l-23.74,5.55a3.93,3.93,0,0,1-4.34-1.66l-3.5-6.22C220.81,206.06,222.62,203.44,225.44,203.27Z"/>
            <path class="e80484ff-369f-43ce-8b0d-5030f4faf20a" d="M253.49,202.44c-3.17-1.24-6.57-.54-27.31.81-2.86,1.22.67,6.56.53,6.48s2.65.35,23.51-5.47l3.94-.87Z"/>
            <path class="e80484ff-369f-43ce-8b0d-5030f4faf20a" d="M251.17,205.59c-4.13.94-11.15,3.58-23.56,4.08-2.86,1.22,1,6.66.87,6.58s2.65.35,23.51-5.47l3.77-1.5-.27-1A3.65,3.65,0,0,0,251.17,205.59Z"/>
            <path class="aa782e21-b974-4b9c-9907-ac95b1b1be69" d="M256.4,208.29a.17.17,0,0,1,.14,0,.16.16,0,0,1,0,.16,1,1,0,0,1-.13.25,3,3,0,0,1-.32.41,9.93,9.93,0,0,1-.72.73,19.34,19.34,0,0,1-1.58,1.29,31.22,31.22,0,0,1-3.42,2.16,35.52,35.52,0,0,1-7.51,3,29.68,29.68,0,0,1-8.07,1.08,18.38,18.38,0,0,1-7.92-1.7,51.41,51.41,0,0,0,7.76-.65,73.25,73.25,0,0,0,7.45-1.62c2.46-.67,4.9-1.42,7.35-2.25,1.22-.42,2.45-.82,3.66-1.29.62-.21,1.22-.45,1.83-.69q.47-.18.9-.39a3.55,3.55,0,0,0,.43-.23C256.38,208.46,256.63,208.35,256.4,208.29Z"/>
            <path class="aa782e21-b974-4b9c-9907-ac95b1b1be69" d="M221.73,207.46a2.62,2.62,0,0,1-.25-2.05,3.25,3.25,0,0,1,1.35-1.76,6.88,6.88,0,0,1,1.95-.94,16.45,16.45,0,0,1,2.05-.48l-.14,0a62.82,62.82,0,0,1,8.44-1.82,52,52,0,0,1,8.66-.56,23.6,23.6,0,0,1,8.73,1.63,7.65,7.65,0,0,1,3.61,3,5,5,0,0,1,.27,4.42l-.08-1.06-.22-1a8,8,0,0,0-.41-.89,3.74,3.74,0,0,0-.57-.74,6.88,6.88,0,0,0-3.31-1.74,30.47,30.47,0,0,0-8-.67c-2.75.05-5.52.26-8.31.51s-5.58.53-8.35.88l-.14,0a14,14,0,0,0-1.84.08,6.6,6.6,0,0,0-1.73.39,2.68,2.68,0,0,0-1.33,1A2.61,2.61,0,0,0,221.73,207.46Z"/>
            <path class="b6d8642f-7b1b-4766-832c-6f21b7adca9a" d="M239.73,403.49a33.44,33.44,0,0,0,6.35,6.91,27.61,27.61,0,0,0,3.79,2.63,29.21,29.21,0,0,0,4.13,2l.59.26,0,.58c.17,2.23.37,4.46.5,6.7s.3,4.46.4,6.7.21,4.47.29,6.71.12,4.49.11,6.73c-.4-2.21-.72-4.43-1-6.65s-.6-4.44-.85-6.66-.51-4.45-.74-6.68-.43-4.45-.64-6.68l.64.84a24.08,24.08,0,0,1-8.29-5.29c-.6-.58-1.14-1.19-1.68-1.81s-1-1.29-1.45-2A17.92,17.92,0,0,1,239.73,403.49Z"/>
            <g>
              <polygon class="abfcd405-3105-4806-bc18-fb9ddabff884" points="263.64 401.72 265.68 402.97 269.9 401.92 263.64 401.72"/>
              <g>
                <path class="abfcd405-3105-4806-bc18-fb9ddabff884" d="M244.22,419.21l9.81-2.46-2.8-.37,29.06-6.95L265.86,409l15.76-2.88s-18.44-.86-18.81-.81,2.67-.95,2.67-.95h-4.4l14-4,86.46-9.09s1.74-.34.15,2-5.54,5.74-7.35,7.21a129.88,129.88,0,0,1-11.27,8.34c-3.88,2.4-7.08,4.3-9.52,4.83L232.41,424.15c7.31-2,17.24-4.86,18-5.28C251.64,418.19,244.22,419.21,244.22,419.21Z"/>
                <path class="abfcd405-3105-4806-bc18-fb9ddabff884" d="M360.06,384.1s3.7,3.72,2.24,7.26-14,3.19-14.18,3S360.06,384.1,360.06,384.1Z"/>
                <path class="ab4513c0-ef96-4740-85f3-7963b210b620" d="M242,412l9.81-2.46-2.8-.37,29.06-7-14.43-.47,15.76-2.88S261,398,260.59,398s2.66-.95,2.66-.95h-4.39l14-4,86.46-9.1s1.74-.34.14,2-5.53,5.74-7.34,7.21a133.63,133.63,0,0,1-11.27,8.34c-3.89,2.4-7.08,4.29-9.52,4.83L230.18,416.91c7.32-2,17.25-4.85,18-5.28C249.41,411,242,412,242,412Z"/>
                <path class="abfcd405-3105-4806-bc18-fb9ddabff884" d="M232.41,424.15l-2.23-7.24,40.09-4.21s-20.36,7.17-21.16,7.21S232.41,424.15,232.41,424.15Z"/>
                <polygon class="abfcd405-3105-4806-bc18-fb9ddabff884" points="260.59 398.02 271.06 400.36 279.4 398.84 260.59 398.02"/>
              </g>
              <polygon class="abfcd405-3105-4806-bc18-fb9ddabff884" points="258.86 397.06 263.25 397.07 261.33 397.72 258.86 397.06"/>
            </g>
            <path class="a913266d-cf9e-4327-b76c-942faac5415d" d="M361.9,391.54c1.46-3.53-2.24-7.26-2.24-7.26h0c-.22-.26-.71-.17-.71-.17l-86.46,9.1-14,4,2.47.66h0c-.51.18-.89.32-.74.3.37,0,18.81.82,18.81.82l-18.81-.82,10.48,2.34-7.43,1.36,5.74.19h0l-5.74-.19,2,1.25h0l-4.6,1.33h4.4s-3,1-2.67.95c.08,0,.91,0,2.17.07l-16,3.82,2.8.37-9.81,2.46s7.41-1,6.19-.35c-.76.43-10.69,3.24-18,5.28l2.23,7.24L333.17,413.7c2.44-.54,5.64-2.43,9.52-4.84A132.22,132.22,0,0,0,354,400.53c1.81-1.47,5.75-4.91,7.35-7.22.71-1,.76-1.52.59-1.76Z"/>
            <g>
              <path class="bf731262-97e2-4d46-bd73-49d993d1f54b" d="M320.55,380.54c3.55-16.66,10.74-43.56,9.15-59.22l-10.33-30.64L293.77,299s7.86,24,12.65,30.31c-1.95,7.18-1.83,16.06-1.62,24,.19,7.57.15,25.33-2.05,29.72"/>
              <path class="bf731262-97e2-4d46-bd73-49d993d1f54b" d="M303.66,379.42s.24,4.56-5,4.56-7.44-1-12.72,2.64-5.76,4.8-7.68,6-.72,4.08,3.36,4.08,8.4-2.16,10.08-2.88,5.76-4.56,6.72-.24.24,7.44-1,11-3.36,9.6-5.28,10.8-7.38-.42-10.62,1.92-.36,5,2.16,4.86,9-.36,11.16-.9a8,8,0,0,0,3.36-1.68s2.22,4,7.26,2a7.06,7.06,0,0,0,3.24-2.34,7,7,0,0,0,4.14-.72c1.8-1.08,7.56-5.94,8.64-9s-.54-12.6-1.08-16.38.36-11.7.54-14.22"/>
              <path class="e60d3513-b66d-418b-9408-946606717a6a" d="M295.08,421a24.28,24.28,0,0,0,3.84-2.7,24.72,24.72,0,0,0,3.23-3.32,25.83,25.83,0,0,0,2.59-3.84,44.8,44.8,0,0,0,2-4.24c-.14.78-.3,1.56-.51,2.34a18.42,18.42,0,0,1-.83,2.25,18.14,18.14,0,0,1-2.52,4.12,17,17,0,0,1-3.53,3.3A13.57,13.57,0,0,1,295.08,421Z"/>
              <path class="e60d3513-b66d-418b-9408-946606717a6a" d="M307.92,419.74c1.34-1.72,2.67-3.37,3.87-5.11.6-.86,1.14-1.76,1.67-2.68s.93-1.88,1.36-2.89a11.46,11.46,0,0,1-2.21,6.14,17.6,17.6,0,0,1-2.12,2.51A13.68,13.68,0,0,1,307.92,419.74Z"/>
            </g>
            <path class="a20c30d5-fc5c-46ba-8fd7-d98d95d1a9c4" d="M328.64,298.58s-8.78-15.9-13.46-24.79c-3.18-6-6.66-20.68-9.63-19.85-1.72.48-18-5-22.77,14.7-2.54,10.43,9.63,23.93,12.87,45.9C295.65,314.54,308.07,290.74,328.64,298.58Z"/>
            <g>
              <g>
                <path class="abfcd405-3105-4806-bc18-fb9ddabff884" d="M141.06,206.7c-1.36,2.77-4.81.7-6.44,6.18,0,0-4.89,3.22-4.52,6.24l-6.85,5.22s-4.17-3.27-7-3.25-7.48,1-8.5.42c0,0-2.35-.31-3.19-1.95-.3-.59-12.36-24.45-27.68-54.78l12.57,12.8-2.94-8.05s2.82,2.4,2.54,1.87-12-36.83-12-36.83L90,154.18l-9.28-27.77,24.93,31L104,151.12l8.51,10.11S106.77,151,108.12,151c.85.06,9.71,9.27,16.22,16.14l17,34.12A7.09,7.09,0,0,1,141.06,206.7Z"/>
                <path class="ab4513c0-ef96-4740-85f3-7963b210b620" d="M140.33,208.55c-1.42,2.74-4.35,3.13-6.11,8.57a14.23,14.23,0,0,0-.68,5.68l-11,5.5s-4.09-3.37-6.87-3.42-7.5.79-8.51.2c0,0-2.33-.36-3.13-2-.29-.59-11.74-24.77-26.29-55.5L90,180.67l-2.73-8.12S90,175,89.77,174.48s-11-37.15-11-37.15l12.32,19.94-8.59-28,24.14,31.61-1.42-6.3,8.24,10.32s-5.51-10.43-4.16-10.31c.85.08,9.48,9.52,15.8,16.56l15.81,33.39S141.76,205.81,140.33,208.55Z"/>
                <path class="eaaeee87-20ac-42e4-a593-453b57b26c05" d="M160.21,293.27c-3,1.53-5.92,1.82-6.48.65l-31.11-65.71,10.94-5.54,31.11,65.71C165.23,289.55,163.23,291.74,160.21,293.27Z"/>
                <path class="ede2cffe-748b-4365-ac8a-a058e5798ed3" d="M159.6,292c3.12-1.58,5.34-3.74,5.52-5.23l3,6.38c.65,1.38-1.7,4-5.26,5.76s-7,2.15-7.63.77l-3-6.37C153.48,294.05,156.49,293.57,159.6,292Z"/>
                <path class="f368d691-4316-4cc1-a3e7-9c549c6be31e" d="M162.88,298.9c-3.56,1.81-7,2.15-7.63.77l-.1-.22c.65,1.38,4.07,1,7.62-.76s5.92-4.39,5.26-5.77l.11.22C168.79,294.52,166.44,297.1,162.88,298.9Z"/>
                <path class="ed9f6176-0c3d-4128-9d51-837deaf98a25" d="M159.6,292c-3.11,1.58-6.12,2.06-7.37,1.31v0a3.23,3.23,0,0,1,.57-1.33c1.07.77,4,0,6.23-1.17s4.1-2.59,4.72-4.36a2.94,2.94,0,0,1,1.37.34C164.94,288.25,162.72,290.41,159.6,292Z"/>
                <path class="b0998971-bef0-4fb0-8003-6f1c30afb316" d="M159.6,292c-3.11,1.58-6.12,2.06-7.37,1.31v0a3.23,3.23,0,0,1,.57-1.33c1.07.77,4,0,6.23-1.17s4.1-2.59,4.72-4.36a2.94,2.94,0,0,1,1.37.34C164.94,288.25,162.72,290.41,159.6,292Z"/>
                <path d="M159.6,292c3.1-1.57,5.3-3.7,5.51-5.19l0,0c-.14,1.56-2.33,3.77-5.45,5.35s-6.15,2-7.43,1.18h0v0C153.52,294.05,156.5,293.56,159.6,292Z"/>
                <g>
                  <path class="fd22d60e-b155-4c90-a0f8-6e195031e730" d="M159,290.79l-7-.46,3.93-6,7,.46Zm-6.23-.84,6,.4,3.39-5.16-6-.4Z"/>
                  <path class="e2f4e0f3-5621-41d0-a75b-4799e54cdb86" d="M159,290.79l-7-.46,3.93-6,7,.46Zm-6.23-.84,6,.4,3.39-5.16-6-.4Z"/>
                </g>
                <g>
                  <path class="a5acae54-e800-443e-9219-5a12577d6f73" d="M156,284.35l-7-.46,3.93-6,7,.47Zm-6.24-.84,6,.4,3.39-5.17-6-.39Z"/>
                  <path class="eb98dd22-31a4-4cee-a1aa-87c2ad39fa6b" d="M156,284.35l-7-.46,3.93-6,7,.47Zm-6.24-.84,6,.4,3.39-5.17-6-.39Z"/>
                </g>
                <g>
                  <path class="e623df90-919d-4d36-b52c-1602849f838a" d="M152.93,277.9l-7-.46,3.93-6,7,.46Zm-6.23-.83,6,.39,3.39-5.16-6-.4Z"/>
                  <path class="a0787cc6-63bd-45f1-91f3-f53ff84ba08e" d="M152.93,277.9l-7-.46,3.93-6,7,.46Zm-6.23-.83,6,.39,3.39-5.16-6-.4Z"/>
                </g>
                <g>
                  <path class="b8f64b73-3498-4ce4-ba61-274401bccd20" d="M149.88,271.46l-7-.46,3.93-6,7,.46Zm-6.23-.84,6,.4,3.39-5.16-6-.4Z"/>
                  <path class="b09fad0d-7dac-48ac-a32f-5c2af1b96cef" d="M149.88,271.46l-7-.46,3.93-6,7,.46Zm-6.23-.84,6,.4,3.39-5.16-6-.4Z"/>
                </g>
                <g>
                  <path class="f44e62c9-3041-4202-bc2b-50938ab36223" d="M146.83,265l-7-.46,3.93-6,7,.46Zm-6.23-.84,6,.39,3.39-5.16-6-.4Z"/>
                  <path class="ac6b553f-121c-4372-976b-40fdcb241acc" d="M146.83,265l-7-.46,3.93-6,7,.46Zm-6.23-.84,6,.39,3.39-5.16-6-.4Z"/>
                </g>
                <g>
                  <path class="a0a4746c-5389-4f7f-ad7f-c2fe2b710b96" d="M143.78,258.57l-7-.46,3.93-6,7,.46Zm-6.23-.84,6,.4L147,253l-6-.4Z"/>
                  <path class="aafe51e6-9caf-463e-a610-4ce0c7063591" d="M143.78,258.57l-7-.46,3.93-6,7,.46Zm-6.23-.84,6,.4L147,253l-6-.4Z"/>
                </g>
                <g>
                  <path class="b2579ff3-47f4-4747-8e23-98cb43fc694c" d="M140.73,252.13l-7-.46,3.93-6,7,.46Zm-6.24-.84,6,.39,3.39-5.16-6-.39Z"/>
                  <path class="b188f323-401d-4b60-b55f-81534afe398d" d="M140.73,252.13l-7-.46,3.93-6,7,.46Zm-6.24-.84,6,.39,3.39-5.16-6-.39Z"/>
                </g>
                <g>
                  <path class="b39fe92d-8c5a-450c-abdc-15be5289f1ac" d="M137.67,245.68l-7-.46,3.93-6,7,.46Zm-6.23-.84,6,.4,3.39-5.16-6-.4Z"/>
                  <path class="bad46ac4-85ab-42ff-a7ab-e1bd472b6729" d="M137.67,245.68l-7-.46,3.93-6,7,.46Zm-6.23-.84,6,.4,3.39-5.16-6-.4Z"/>
                </g>
                <g>
                  <path class="f345dd65-2b5e-49a9-8a24-13cffc6d2764" d="M134.62,239.24l-7-.46,3.93-6,7,.46Zm-6.23-.84,6,.4,3.39-5.17-6-.39Z"/>
                  <path class="b9e6e12b-eb0e-4235-a931-f95ca7395a9d" d="M134.62,239.24l-7-.46,3.93-6,7,.46Zm-6.23-.84,6,.4,3.39-5.17-6-.39Z"/>
                </g>
                <g>
                  <path class="ebcb3ca8-b1ee-4676-9b39-1a7a9c45e84d" d="M131.57,232.79l-7-.46,3.93-6,7,.46Zm-6.23-.84,6,.4,3.39-5.16-6-.4Z"/>
                  <path class="beea3583-d4d7-4106-8450-0f53b9507a65" d="M131.57,232.79l-7-.46,3.93-6,7,.46Zm-6.23-.84,6,.4,3.39-5.16-6-.4Z"/>
                </g>
                <path class="b053f348-99b8-4a71-94cf-069b766537c6" d="M136.1,213.3c-2.8,3.37-2.52,9.42-2.52,9.42l-6.47,3.22h0l-4.49,2.27s-4.34-4-8.63-3.57-5.42.78-6.75.36c0,0,12.06-7.7,8.57-27.14,13.27,14.26,24.66,10.24,24.66,10.24C140,209.46,138.91,209.94,136.1,213.3Z"/>
              </g>
              <path class="a913266d-cf9e-4327-b76c-942faac5415d" d="M168.14,293.14l-3-6.38a2.94,2.94,0,0,0-1.37-.34h0l-30.17-63.71a20,20,0,0,1,.75-5.91,12.82,12.82,0,0,1,1.85-3.59c.38-.45.72-.84,1-1.2,1.19-1.22,2.36-2,3.11-3.46a7.61,7.61,0,0,0,.69-1.78s0,0,0-.07a7.09,7.09,0,0,0,.27-5.41l-17-34.12C117.83,160.3,109,151.09,108.12,151c-.55,0,.08,1.64,1,3.63-.24.37.4,2.09,1.27,4L104,151.12l1.58,6.26-24.93-31L90,154.18,77.14,134.57s5.67,17.65,9.2,28.52c1,3.26,1.83,6.16,2.45,8.23-.68-.47-2.24-1.79-2.24-1.79L87.83,173l-.54-.47,1.42,4.24-11.79-12c.69,1.36,1.36,2.7,2,4l-1.18-1.26c14.55,30.73,26,54.91,26.29,55.5.8,1.67,3.13,2,3.13,2,1,.59,5.72-.26,8.51-.2s6.87,3.42,6.87,3.42l.06,0L152.8,292h0a3.23,3.23,0,0,0-.57,1.33v0l0,0h0l3,6.32c.65,1.38,4.07,1,7.63-.77S168.79,294.52,168.14,293.14Z"/>
            </g>
            <g>
              <path class="bf731262-97e2-4d46-bd73-49d993d1f54b" d="M130.23,272.18a121.6,121.6,0,0,1-5.52-13.2c-1.44-4.8-7.2-15.6-7.68-17.76a8,8,0,0,1,1.08-7.08c1.92-3.12,4.8-8.88,6.24-9.72s9.48-1.68,12.84-1,7.56,5.76,8.52,7,0,4.68-2,3.84c0,0,3.72,4.32,3.36,6.48,0,0,.12,3.12-.36,3.6,0,0,2.52,1.92,2,4.08s-.6,2.16-1.8,2.52a23.44,23.44,0,0,0-5.64-3c-2.28-.6-4-.12-6,2.16s-.12,4.8.36,6.24,5.82,12.9,6.54,14.58"/>
              <path class="e60d3513-b66d-418b-9408-946606717a6a" d="M119.55,239.66a70.45,70.45,0,0,1,3.9-6.73,23.55,23.55,0,0,1,2.39-3.15,2.46,2.46,0,0,1,1-.69,7.55,7.55,0,0,1,1-.24,16.94,16.94,0,0,1,2-.18,34.33,34.33,0,0,1,3.93,0,17.35,17.35,0,0,1,3.92.61A8.9,8.9,0,0,1,141,231.5c.94.91,1.76,1.9,2.68,2.82-2-1.57-3.8-3.68-6.19-4.36a21,21,0,0,0-3.77-.35c-1.27,0-2.56,0-3.83,0-.63,0-1.26.09-1.87.18a5,5,0,0,0-.86.18,1.56,1.56,0,0,0-.6.45,29.14,29.14,0,0,0-2.41,2.93c-.78,1-1.54,2.07-2.28,3.13Z"/>
              <path class="e60d3513-b66d-418b-9408-946606717a6a" d="M122.31,242.06c1.88-1.91,3.87-3.71,5.89-5.46,1-.88,2.06-1.73,3.15-2.53a8.86,8.86,0,0,1,1.83-1.09,8.5,8.5,0,0,1,2.06-.5,5.88,5.88,0,0,1,4.13,1,10.9,10.9,0,0,1,1.55,1.37c.48.48,1,1,1.4,1.46.91,1,1.81,2,2.63,3.06a12.74,12.74,0,0,1,2.11,3.42,14.81,14.81,0,0,0-2.43-3.15c-.91-1-1.84-1.93-2.8-2.85-.48-.46-1-.91-1.46-1.35a12.47,12.47,0,0,0-1.49-1.22,5.26,5.26,0,0,0-3.53-.75,8.35,8.35,0,0,0-1.82.45,7.53,7.53,0,0,0-1.62.94c-1.08.76-2.13,1.57-3.2,2.37l-3.18,2.44C124.45,240.45,123.4,241.28,122.31,242.06Z"/>
              <path class="e60d3513-b66d-418b-9408-946606717a6a" d="M127.59,246.5a15.91,15.91,0,0,1,3.93-4.42,8.53,8.53,0,0,1,2.73-1.41,9.67,9.67,0,0,1,3.06-.24,13.3,13.3,0,0,1,5.75,1.71c1.7,1,3.29,2.12,4.9,3.25-1.78-.81-3.54-1.71-5.25-2.59a14.86,14.86,0,0,0-5.46-1.38,10,10,0,0,0-2.75.18,8.61,8.61,0,0,0-2.51,1.15A25.94,25.94,0,0,0,127.59,246.5Z"/>
            </g>
          </g>
        </g>
      </g>
    </g>
  </g>
</svg>
