<svg id="a12083fe-f0e8-4784-93cc-4df4d7aadbd8" data-name="Layer 1" xmlns="http://www.w3.org/2000/svg" xmlns:xlink="http://www.w3.org/1999/xlink" width="500" height="525" viewBox="0 0 500 525">
  <defs>
    <style>
      .a2396497-f60a-4823-961f-ee71b0918439, .b073e3fb-f73b-411c-aea9-a34403339b7c, .b4adf722-f267-4ea4-90bf-cdcfd366a174, .b66e2904-d670-46f0-b6bb-b9a68dd5b7f8, .bfd30ac3-788b-419e-a791-e73c66fe36aa, .e02c8180-6efd-45d1-ae1a-6319da4afae2, .f5a194f0-b0ec-43f5-88b0-9b7078630c70, .fab9c171-2ed9-4f89-8e48-4960fee0c206, .fdbe054f-428d-4709-a502-fedb851aeec5 {
        fill: none;
      }

      .bbc10009-83a8-4643-ad5c-50e45c9acd8f {
        clip-path: url(#bba98b21-a860-495f-b3d6-20697194069d);
      }

      .a0fbfd8a-9435-4b34-bbf7-8738a37061d2 {
        fill: #f9d1c6;
        stroke: #323232;
      }

      .a0fbfd8a-9435-4b34-bbf7-8738a37061d2, .a2396497-f60a-4823-961f-ee71b0918439, .aa893cb7-c1fc-4e0a-8036-0d0eff8ac4b1, .ab19f55b-9c9a-4889-8658-403ca15db15c, .ae77c00f-891d-42be-b897-95a4034861b1, .b073e3fb-f73b-411c-aea9-a34403339b7c, .b4adf722-f267-4ea4-90bf-cdcfd366a174, .b5f89748-b547-49f2-9251-bb3a9a98d898, .b66e2904-d670-46f0-b6bb-b9a68dd5b7f8, .be6b2d60-4dc9-46f3-8819-994280fbe969, .bfd30ac3-788b-419e-a791-e73c66fe36aa, .e2a07e0f-2258-4f4e-b504-021f134f42eb, .f5a194f0-b0ec-43f5-88b0-9b7078630c70, .fab9c171-2ed9-4f89-8e48-4960fee0c206, .fcc3d842-1a1d-4865-86d0-5b8b48bf3623, .fdbe054f-428d-4709-a502-fedb851aeec5, .ff72ab94-1b5e-47a6-b735-38c0480c490f {
        stroke-miterlimit: 10;
      }

      .a3fa0581-704a-424e-a654-59adc0f669c9, .a4d77a4c-1a1d-46ae-babe-a3471e394b86 {
        opacity: 0.5;
      }

      .b5f89748-b547-49f2-9251-bb3a9a98d898 {
        fill: #00b2ed;
        stroke: #fff;
        stroke-width: 0.5px;
      }

      .bd846713-95fd-489f-8637-163a40552b86 {
        fill: #01687f;
      }

      .ba942a43-0999-42bd-aa7d-24162eb71014 {
        fill: url(#b60179d8-87ee-42a8-831b-56616a86d7a6);
      }

      .aaa8c061-d0a8-430c-8edc-f2df538aae01 {
        clip-path: url(#a4fce6ff-88ac-4603-94f0-79518c11df25);
      }

      .b533fe02-d44f-4918-930e-d520b9910ebc {
        fill: #9dc95f;
      }

      .edd1fa6c-61d7-4c36-bcef-e7179891ae17 {
        fill: #5cc639;
      }

      .aa893cb7-c1fc-4e0a-8036-0d0eff8ac4b1 {
        fill: #e88e79;
      }

      .aa893cb7-c1fc-4e0a-8036-0d0eff8ac4b1, .e2a07e0f-2258-4f4e-b504-021f134f42eb, .ff72ab94-1b5e-47a6-b735-38c0480c490f {
        stroke: #8c1c1c;
      }

      .aacb2d35-02e4-4e4e-8b24-47289dba00f3, .ff72ab94-1b5e-47a6-b735-38c0480c490f {
        fill: #ea7c6b;
      }

      .e2027050-868a-4791-ae65-5e351ef0ae7b {
        fill: #001e49;
      }

      .a3fa0581-704a-424e-a654-59adc0f669c9, .adf84408-cd0b-4f61-a9a5-cc82bb57026b {
        fill: #d8123c;
      }

      .b0f7544c-5125-4e5c-a16c-acb05de19e34 {
        fill: #005ca0;
      }

      .f5a194f0-b0ec-43f5-88b0-9b7078630c70 {
        stroke: #ffad94;
        stroke-width: 31.03px;
      }

      .b073e3fb-f73b-411c-aea9-a34403339b7c, .b4adf722-f267-4ea4-90bf-cdcfd366a174, .b66e2904-d670-46f0-b6bb-b9a68dd5b7f8, .bfd30ac3-788b-419e-a791-e73c66fe36aa, .f5a194f0-b0ec-43f5-88b0-9b7078630c70, .fab9c171-2ed9-4f89-8e48-4960fee0c206 {
        stroke-linecap: round;
      }

      .ab19f55b-9c9a-4889-8658-403ca15db15c, .fc2dc2ae-67e5-4563-9ca1-e41f72d6c57e {
        fill: #f94f63;
      }

      .ab19f55b-9c9a-4889-8658-403ca15db15c, .be6b2d60-4dc9-46f3-8819-994280fbe969 {
        stroke: #8e2e2e;
      }

      .ac9d3609-5290-4891-a542-8fbaad4620d4, .be6b2d60-4dc9-46f3-8819-994280fbe969 {
        fill: #eefcfe;
      }

      .f1e147fe-23d3-43ed-9272-3da21b7c9800 {
        fill: #d14256;
      }

      .a2bee49a-bdb9-4136-b652-4b714517e7c1 {
        fill: #d4f2f4;
      }

      .b4adf722-f267-4ea4-90bf-cdcfd366a174 {
        stroke: #541f1f;
        stroke-width: 4.23px;
      }

      .a5b49d23-8552-4fbe-9255-3876ebee446d {
        fill: #ef7373;
      }

      .fdbe054f-428d-4709-a502-fedb851aeec5 {
        stroke: #511717;
      }

      .af21d513-6fc8-4604-a29b-8b2d7f21b6b0 {
        fill: #3f1817;
      }

      .bec9dfc0-acc6-4ab9-acae-eff1e315c615 {
        fill: #e22b4a;
      }

      .ae77c00f-891d-42be-b897-95a4034861b1, .e2a07e0f-2258-4f4e-b504-021f134f42eb, .f146af75-43bd-43d7-af68-75264a52eac3 {
        fill: #ffad94;
      }

      .f09bf934-f36d-464a-ba53-766b223ce6dc {
        fill: #f95063;
        opacity: 0.19;
      }

      .a5165fa6-5d68-43dc-a750-187cc0edf263 {
        fill: #532523;
      }

      .eaa734cd-7b25-40f8-a1cb-ad89d631e6fb {
        fill: #4c2d1c;
      }

      .a77c17db-c82d-43ba-8cf5-ff17c339f892 {
        fill: #d87e66;
      }

      .fcc3d842-1a1d-4865-86d0-5b8b48bf3623, .ff905fb1-a63c-4c31-91af-e0a179090e99 {
        fill: #f9f4f4;
      }

      .fcc3d842-1a1d-4865-86d0-5b8b48bf3623 {
        stroke: #704312;
      }

      .fdc97ae6-6764-4a24-95f1-5a3625a4719f {
        fill: #281818;
      }

      .f181739c-9e41-41d0-bacd-78aa274b9ea8 {
        fill: #99b746;
        opacity: 0.6;
      }

      .aff658e4-4e85-438f-8dcd-dc538bbfd6dc {
        fill: #5d1322;
      }

      .e0690bdc-4c8c-4661-aa9f-558aae86ba38 {
        fill: #682e2e;
      }

      .b99455ea-6c97-4d9b-983f-8f1812ff354f {
        fill: #de5f4b;
      }

      .b66e2904-d670-46f0-b6bb-b9a68dd5b7f8, .bfd30ac3-788b-419e-a791-e73c66fe36aa {
        stroke: #eefcfe;
      }

      .bfd30ac3-788b-419e-a791-e73c66fe36aa {
        stroke-width: 2.46px;
      }

      .a2396497-f60a-4823-961f-ee71b0918439, .ae77c00f-891d-42be-b897-95a4034861b1 {
        stroke: #8e3c29;
      }

      .b073e3fb-f73b-411c-aea9-a34403339b7c, .fab9c171-2ed9-4f89-8e48-4960fee0c206 {
        stroke: #ed2424;
      }

      .fab9c171-2ed9-4f89-8e48-4960fee0c206 {
        stroke-width: 5.64px;
      }

      .b073e3fb-f73b-411c-aea9-a34403339b7c {
        stroke-width: 8.46px;
      }

      .b994a217-587b-4b48-90fb-f9324b135072 {
        fill: #ed2424;
      }

      .a8d91290-6943-495e-9e0f-72dbcbd1621d {
        fill: #ff3b27;
      }

      .a92cfaae-3389-4bfb-a0cf-dc15d730238d {
        fill: #012668;
        opacity: 0.64;
      }

      .b66e2904-d670-46f0-b6bb-b9a68dd5b7f8 {
        stroke-width: 3.04px;
      }

      .a7910c06-66b2-47b3-949b-c79bd21c6deb {
        fill: #d8e4ef;
      }
    </style>
    <clipPath id="bba98b21-a860-495f-b3d6-20697194069d">
      <circle class="e02c8180-6efd-45d1-ae1a-6319da4afae2" cx="712.5" cy="-392.5" r="285.12"/>
    </clipPath>
    <linearGradient id="b60179d8-87ee-42a8-831b-56616a86d7a6" x1="249.99" y1="-60.06" x2="249.99" y2="450.11" gradientUnits="userSpaceOnUse">
      <stop offset="0" stop-color="#e5e5e5"/>
      <stop offset="1" stop-color="#00c7e2"/>
    </linearGradient>
    <clipPath id="a4fce6ff-88ac-4603-94f0-79518c11df25">
      <path class="e02c8180-6efd-45d1-ae1a-6319da4afae2" d="M378.31,476.68c-3.19.51-6.39.93-9.55,1.32-76.38,9.45-163.92,9.55-240.33.31-16.73-2-34.47-5-47-16.25C67.63,449.62,63.36,430,60.24,411.68A1244.93,1244.93,0,0,1,42.74,187c.36-28.16-5.65-83.64,10-108.3,14.09-22.2,45.84-30.59,70-32.86,89.73-8.41,179-6.62,269.19-2.57,14.14.63,29,1.72,40.86,9.49C455.31,67.48,458.61,99,458,125.88,455.91,221.53,455.76,317,437.7,411c-3.6,18.76-8.32,38.88-22.78,51.36C404.84,471,391.64,474.57,378.31,476.68Z"/>
    </clipPath>
  </defs>
  <g class="bbc10009-83a8-4643-ad5c-50e45c9acd8f">
    <path class="a0fbfd8a-9435-4b34-bbf7-8738a37061d2" d="M465.93,23.71,468.16,35l22.23-6.29A80.43,80.43,0,0,1,501.54,3.48l9.69,19.35s12.91,2.22,4.66-30.25l-3.62-18.36s46.4-47.29,68.1-87.87L608-154.89l5.09-7.58s-11.78-29-46.62-36.46l-7.94,11.85L537.29-155.4s-30.68,50.8-60.37,128.9C476.92-26.5,468.58,9.25,465.93,23.71Z"/>
  </g>
  <g>
    <path class="a4d77a4c-1a1d-46ae-babe-a3471e394b86" d="M394.4,501c-3.46.55-6.93,1-10.36,1.43-82.9,10.25-177,10.36-260,.34-18.15-2.2-37.41-5.4-51-17.64-15-13.5-19.62-34.8-23-54.68a1350.89,1350.89,0,0,1-19-243.88C31.45,156,24.93,95.75,41.92,69c15.29-24.09,49.75-33.2,76-35.66,97.39-9.13,194.23-7.19,292.15-2.79,15.35.69,31.49,1.86,44.34,10.3,24.4,16,28,50.22,27.34,79.39-2.29,103.81-3.31,207.42-22.9,309.39-3.91,20.36-9,42.2-24.73,55.75C423.19,494.8,408.87,498.66,394.4,501Z"/>
    <path class="b5f89748-b547-49f2-9251-bb3a9a98d898" d="M388.4,495c-3.46.55-6.93,1-10.36,1.43-82.9,10.25-177,10.36-260,.34-18.15-2.2-37.41-5.4-51-17.64-15-13.5-19.62-34.8-23-54.68a1350.89,1350.89,0,0,1-19-243.88C25.45,150,18.93,89.75,35.92,63c15.29-24.09,49.75-33.2,76-35.66,97.39-9.13,194.23-7.19,292.15-2.79,15.35.69,31.49,1.86,44.34,10.3,24.4,16,28,50.22,27.34,79.39-2.29,103.81-3.31,207.42-22.9,309.39-3.91,20.36-9,42.2-24.73,55.75C417.19,488.8,402.87,492.66,388.4,495Z"/>
    <path class="bd846713-95fd-489f-8637-163a40552b86" d="M380.77,481.13c-3.26.51-6.52.95-9.75,1.35-78,9.64-167.12,9.74-245.11.31-17.08-2.07-35.19-5.08-48-16.59-14.1-12.7-18.45-32.72-21.64-51.42A1270.93,1270.93,0,0,1,38.43,185.4C38.8,156.64,32.67,100,48.64,74.85,63,52.19,95.44,43.62,120.14,41.3c91.6-8.58,182.68-6.76,274.77-2.63,14.45.65,29.63,1.76,41.71,9.7C459.57,63.43,462.94,95.6,462.34,123c-2.15,97.64-2.52,195.09-20.95,291-3.68,19.15-8.49,39.69-23.26,52.43C407.85,475.34,394.37,479,380.77,481.13Z"/>
    <path class="ba942a43-0999-42bd-aa7d-24162eb71014" d="M378.31,476.68c-3.19.51-6.39.93-9.55,1.32-76.38,9.45-163.92,9.55-240.33.31-16.73-2-34.47-5-47-16.25C67.63,449.62,63.36,430,60.24,411.68A1244.93,1244.93,0,0,1,42.74,187c.36-28.16-5.65-83.64,10-108.3,14.09-22.2,45.84-30.59,70-32.86,89.73-8.41,179-6.62,269.19-2.57,14.14.63,29,1.72,40.86,9.49C455.31,67.48,458.61,99,458,125.88,455.91,221.53,455.76,317,437.7,411c-3.6,18.76-8.32,38.88-22.78,51.36C404.84,471,391.64,474.57,378.31,476.68Z"/>
    <g class="aaa8c061-d0a8-430c-8edc-f2df538aae01">
      <g>
        <path class="b533fe02-d44f-4918-930e-d520b9910ebc" d="M86.36,437,85,451.62a103.37,103.37,0,0,0,4.9-17.85q-.12,8-.23,16.08c2.41-6.14,4.24-14.77,5.21-24.51,0,7.69-.38,15.33-1,22.68.91-1.57,3.38-11.53,4.29-13.09,0,1.1-1.5,10.6-1.48,11.71,2-1.93,4.44-5.91,6.49-7.84-.4,2.63-2,12.22-1.84,15.24,2.14-1.07,5.06-10.41,5.9-17.06.09,3.28-.45,11.3-.37,14.58,1,2,3-3,3.44-5.9.42-3.09,4.68,12.25,4.31,12.28-2.43.21-17.54,5-26.24,6.42-1.85.31-9.71,3.71-10.27-4.71C77.89,455.76,85.25,440.41,86.36,437Z"/>
        <rect class="edd1fa6c-61d7-4c36-bcef-e7179891ae17" x="75.08" y="452.24" width="455.36" height="43.58"/>
        <path class="b533fe02-d44f-4918-930e-d520b9910ebc" d="M518.32,441.9s-3.36.82-5.62,7c-.31.86.18-5.3-.2-5.73-.18-.21-.39,0-.57.28l-2.48,3.24a28.77,28.77,0,0,1,.18-7.35c-1.34,1.75-2.69,3.5-4,5.26l.6-17.34a65.93,65.93,0,0,0-4.88,19.64c-.4-1.58-3.65-6.93-3.33-5.16,1.17,6.57,1.84,12.85,2,13.38.54,1.93.76,1.95,1.65,1.9,2-.11,4-2.1,6.09-2,2.46.14,6,1.17,8.41,1.53C516.13,454.32,516.3,444.58,518.32,441.9Z"/>
        <path class="edd1fa6c-61d7-4c36-bcef-e7179891ae17" d="M360.9,440.22a57.55,57.55,0,0,0-2.51,14.57c0,1.13-1.47-10-1.67-9.8-.89.71-2.27,5.61-3.17,6.32-.24-2.39,2.13-12.85,2.56-15-1.45,1.16-5.17,10.19-6.63,11.35q.45-8.4.88-16.8a45.21,45.21,0,0,0-5.46,17.26c-.41-1.73-8.45-11.8-7.85-10.39,3.56,8.39,4.49,20,4.64,20.61.56,2.13,2.45-.47,3.4-.14,2.11.73,4.3-.37,6.5.62,2.63,1.18,10.28-1.08,12.89.3C364.5,456.91,360.73,450.33,360.9,440.22Z"/>
        <path class="b533fe02-d44f-4918-930e-d520b9910ebc" d="M491.48,436.06A57.93,57.93,0,0,0,489,450.62c0,1.13-1.46-10-1.66-9.8-.89.72-2.27,5.61-3.17,6.33-.24-2.4,2.13-12.85,2.56-15-1.46,1.15-5.17,10.18-6.63,11.34q.45-8.4.88-16.8a45.21,45.21,0,0,0-5.46,17.26c-.41-1.72-8.45-11.8-7.85-10.38,3.56,8.38,4.49,20,4.64,20.6.56,2.13,2.45-.47,3.4-.14,2.11.73,4.3-.37,6.5.62,2.63,1.18,10.28-1.08,12.88.31C495.09,452.75,491.32,446.16,491.48,436.06Z"/>
      </g>
      <g>
        <polygon class="aa893cb7-c1fc-4e0a-8036-0d0eff8ac4b1" points="263.91 323.19 290.01 362.18 269.26 377.12 241.07 337.58 263.91 323.19"/>
        <path class="ff72ab94-1b5e-47a6-b735-38c0480c490f" d="M351.92,423.6c-.64.79-1.36,1.6-2.11,2.42-5.11,5.51-12.43,11.46-21.7,19l-3.39,2.76-.73.59a17.45,17.45,0,0,1-25-23.95,478.27,478.27,0,0,0-46.72,20,17.46,17.46,0,0,1-15.43-31.33c.94-.46,23.09-11.33,46.76-20.21,14.45-5.43,26.58-9,36.06-10.63,1.7-.3,3.36-.53,5-.69a51.45,51.45,0,0,1,12.09,0c9.65,1.19,16.47,5.65,20.31,13.36C360.24,401.4,361.83,411.52,351.92,423.6Z"/>
        <path class="ff72ab94-1b5e-47a6-b735-38c0480c490f" d="M273.09,484.33a17.46,17.46,0,0,1-10.34-31.53c7.06-5.19,21.39-17,35.24-28.49,8.07-6.67,16.4-13.56,23.65-19.43,7.49-6.07,8.13,4,14.2,11.52s15.27,9.54,7.78,15.61c-7.12,5.76-15.38,12.59-23.38,19.2-14.89,12.32-28.95,24-36.83,29.73A17.34,17.34,0,0,1,273.09,484.33Z"/>
        <path class="e2027050-868a-4791-ae65-5e351ef0ae7b" d="M269.26,406.65c.47,17.51,1.05,59.53-12.72,65.6s-18.48-38.47-18.48-38.47Z"/>
        <polygon class="adf84408-cd0b-4f61-a9a5-cc82bb57026b" points="254.6 336.32 247.21 340.84 246.56 321.57 254.6 336.32"/>
        <path class="b0f7544c-5125-4e5c-a16c-acb05de19e34" d="M250.71,454.66v34.46h-47.8c-31.83,0-59.64-10.07-74.77-31.1a63.29,63.29,0,0,1-11.41-27.39v0a57.26,57.26,0,0,1-.68-8.52,5.43,5.43,0,0,1,0-.57v-.27H234.92A66.62,66.62,0,0,0,250.71,454.66Z"/>
        <path class="f5a194f0-b0ec-43f5-88b0-9b7078630c70" d="M195.21,456s87.09-93.8,95.42-82.12c20.95,29.38,58.35,87,58.35,87"/>
        <path class="ab19f55b-9c9a-4889-8658-403ca15db15c" d="M234.15,359.33s25.79-3.63,40.34-26.36c-.29-.53-.65-1.33-1.1-2.35-2.6-5.74-11.33-26.45-21.37-36.34-4.53-4.47-8.47-5.92-13.74-4.2C213.26,298.26,218.1,328.91,234.15,359.33Z"/>
        <path class="be6b2d60-4dc9-46f3-8819-994280fbe969" d="M274.78,333.51l2.93,4.43C270.31,346,253,354.67,245,357.83c-.73-1.45-1.57-3.23-2.43-5.32C252,348.9,269,340.67,274.78,333.51Z"/>
        <path class="ab19f55b-9c9a-4889-8658-403ca15db15c" d="M244.35,422.56c-3.58,1.64-7.12,3.32-10.62,5.07a1.17,1.17,0,0,1-.58.13c-11.86-.28-24.09,1.63-36.4,3.67-27.13,4.51-54.73,9.72-80.11-6.15a1.26,1.26,0,0,1-.6-1.19c2-20.74,12.57-80.18,19.08-116.4,3.36-18.68,20.53-29.83,42.23-31.54a74.24,74.24,0,0,1,9.92-.15,165.51,165.51,0,0,1,33,4.72c.84.22,1.69.44,2.52.68a96,96,0,0,1,22.21,9.14,1.26,1.26,0,0,1,.6.78c4.89,19.13,2.53,107.78-.57,130.28A1.26,1.26,0,0,1,244.35,422.56Z"/>
        <path class="f1e147fe-23d3-43ed-9272-3da21b7c9800" d="M236.21,386.66l-37.06,44.41a1.31,1.31,0,0,1-.77.44c-27.35,4.49-55.15,9.55-80.74-6.23a1.26,1.26,0,0,1-.6-1.2c2-20.74,12.74-80.18,19.33-116.39,3.42-18.68,20.81-29.83,42.82-31.54a76,76,0,0,1,10-.15,169.85,169.85,0,0,1,33.5,4.72c.86.22,1.72.44,2.55.68-21.62,4.61-40,1.82-56.49,2.76-12.82.74-23,4.69-23.87,10.44-2.37,16.15,21.67,43,24.17,45.7a1.29,1.29,0,0,1,.29.54l10,38.37c5.55,20.12,34.3,26.72,54.92,5.74a1.2,1.2,0,0,1,.21-.17h0A1.27,1.27,0,0,1,236.21,386.66Z"/>
        <path class="a2bee49a-bdb9-4136-b652-4b714517e7c1" d="M115.79,420.77a58.67,58.67,0,0,0-1.27,7.94c28.12,16.48,59,11.21,89.14,6.63l4.84-5.47C199.72,430.83,145.13,441.09,115.79,420.77Z"/>
        <path class="ac9d3609-5290-4891-a542-8fbaad4620d4" d="M225.27,282.6c-1.57,8.32-9.77,15.83-18.55,15.83a18,18,0,0,1-18-18q0-.61,0-1.23c2.67-.27,5.56-1.49,8.51-1.86C206.06,276.27,213.21,276.86,225.27,282.6Z"/>
        <path class="a2bee49a-bdb9-4136-b652-4b714517e7c1" d="M191.61,288.77c6.77-.15,13.16-2.77,20-2.69a59.6,59.6,0,0,0,13.06-1.36c.07-.27.5-2.06.55-2.33-12.06-5.73-18.71-7.19-27.49-6.1-2.95.37-6.55-.6-9.22-.32,0,.41,0,.68,0,1.09,0,3,1,9.3,2.3,11.81A6.65,6.65,0,0,1,191.61,288.77Z"/>
        <path class="aacb2d35-02e4-4e4e-8b24-47289dba00f3" d="M207.29,293.81a13.68,13.68,0,0,1-11.5-15.58l4.13-27.43A13.7,13.7,0,1,1,227,254.88l-4.13,27.43A13.7,13.7,0,0,1,207.29,293.81Z"/>
        <path class="b4adf722-f267-4ea4-90bf-cdcfd366a174" d="M223,153.55c-6.55-2.19-14.64,0-18.44,2.71"/>
        <path class="a5b49d23-8552-4fbe-9255-3876ebee446d" d="M249.34,263s-21.43-4.18-39.62-9.86A100.48,100.48,0,0,1,249.34,263Z"/>
        <g>
          <path class="fdbe054f-428d-4709-a502-fedb851aeec5" d="M338.86,144.21a24.3,24.3,0,0,1-14.41-10.65,57.12,57.12,0,0,0-19.83-28.69l-.08-.21c-1.59-3.63-3.41-7.19-5.08-10.33-14.79-28.09-55.76-33.2-84-32.09A102.21,102.21,0,0,0,176.83,72c-1.23.57-2.44,1.19-3.64,1.83-.55-.1-1.1-.18-1.66-.25a27.62,27.62,0,0,0-10,.69,53.57,53.57,0,0,0-41,9.13c-31.17,22.32-27.61,85.88-27.15,131.07.11,11.4.09,21.23-.23,29.78-.84,12.09-4.91,16.23-15.31,21.89a18.56,18.56,0,0,0,13.2,1.08c-2.54,14.25-7.5,22.84-16.8,28.91,58.57,11.1,85.12-15.12,96.77-38.42.11.12,12.73,15,26.2,17.46l-.5,3.31a13.1,13.1,0,1,0,25.9,3.9l0-.18c1.16.12,2.31.22,3.46.29l.65,0c1.1.07,2.2.11,3.29.12h.75c2.58,0,5.15-.08,7.69-.3l.59-.06c1.07-.1,2.13-.23,3.19-.37l.78-.11c1.19-.17,2.38-.36,3.56-.59l.09,0c1.23-.23,2.44-.5,3.65-.79l.8-.2c.91-.23,1.82-.48,2.73-.74l1-.3c.94-.28,1.87-.59,2.8-.9l.65-.22c1.08-.38,2.15-.79,3.21-1.21.41-.17,5-2.81,5.55-3.19,18.37-12.84,32-35.26,35.22-63.73L315,183.15c11.3-6.88,11.47-26.82,11.47-26.82a55.4,55.4,0,0,0,.34-7.25A16,16,0,0,0,338.86,144.21Z"/>
          <path class="af21d513-6fc8-4604-a29b-8b2d7f21b6b0" d="M177.24,82.53c-9-9.22-35.65-13.87-57.17,1.54C88.89,106.4,92.46,170,92.92,215.15c.5,50-1.68,70.25-19.14,81.66,86.17,16.33,103.64-51.32,105.14-65.39,3-27.73-1.09-31.51-1.09-31.51"/>
          <path class="bec9dfc0-acc6-4ab9-acae-eff1e315c615" d="M193.89,100.32c-1.44,12.82-14,21.93-28,20.35S141.56,107.42,143,94.61s14-21.93,28.05-20.35S195.33,87.51,193.89,100.32Z"/>
          <path class="f146af75-43bd-43d7-af68-75264a52eac3" d="M302.33,209.87c-4.91,49.73-41,78.32-80.34,72.75h0c-44.83-5-77.24-45.24-72.2-90.07l3.37-30c5-44.83,44.75-70.74,89.58-65.7l-.18,0c44.83,5,77.8,39.11,72.77,83.94Z"/>
          <path class="aacb2d35-02e4-4e4e-8b24-47289dba00f3" d="M267.65,273.22c-13.93,7.36-28.82,11.26-45.66,9.4l-.32.21a81.7,81.7,0,0,1-71.88-90.28l3.37-30c3.27-29.08,21.12-50.19,45.48-60-20.54,10.9-35.17,30.55-38.1,56.6l1.7,27.9c-5,44.77,22.06,87.23,66.79,92.37l.19,0C243.17,280.93,255.5,278.16,267.65,273.22Z"/>
          <path class="f09bf934-f36d-464a-ba53-766b223ce6dc" d="M217,218c-.72,8-9.42,13.79-19.44,12.9s-17.58-8.11-16.86-16.12,9.41-13.79,19.43-12.9S217.72,209.93,217,218Z"/>
          <path class="f09bf934-f36d-464a-ba53-766b223ce6dc" d="M297.41,232c-4.7,14.27-6.26,15.88-15.32,15.08s-15.93-7.08-15.31-14,8.43-11,17.53-11.1C291.27,221.87,299.59,225.38,297.41,232Z"/>
          <path class="a5165fa6-5d68-43dc-a750-187cc0edf263" d="M338.38,144.94A24.33,24.33,0,0,1,324,134.29a56.85,56.85,0,0,0-48.1-40.09l11.36,34.25,8.69,10c10.15,6.3,17.75,25.88,18.59,41.39l-.28,5c11.46-6.71,11.8-27.78,11.8-27.78a57.11,57.11,0,0,0,.34-7.25A16,16,0,0,0,338.38,144.94Z"/>
          <path class="eaa734cd-7b25-40f8-a1cb-ad89d631e6fb" d="M300.7,183.59S297.33,169.34,289,169c-.65,0-1.21,2.73-1.94,2.8-.5,0-1-2.6-1-2.6a12.25,12.25,0,0,0-.88,3,1.75,1.75,0,0,0,1.67,1.72c5.74,1,11.86,8.46,11.86,8.46C300.71,184.8,301.33,185.82,300.7,183.59Z"/>
          <path class="eaa734cd-7b25-40f8-a1cb-ad89d631e6fb" d="M207.34,170.62s6.57-13.09,14.77-11.44c.64.13.55,2.93,1.25,3.17.47.16,1.62-2.29,1.62-2.29a11.9,11.9,0,0,1,.16,3.12,1.75,1.75,0,0,1-2,1.29c-5.82-.34-13.5,5.49-13.5,5.49C207.05,171.79,206.21,172.64,207.34,170.62Z"/>
          <path class="a77c17db-c82d-43ba-8cf5-ff17c339f892" d="M253.38,209.87a33,33,0,0,0-.83,9.48,16.59,16.59,0,0,0,1,4.47,17.28,17.28,0,0,0,1,2.06c.11.22.22.43.32.65a6.77,6.77,0,0,1,.22.77,2.83,2.83,0,0,1-.24,1.81,3,3,0,0,1-.56.74,4.23,4.23,0,0,1-.67.49,5.64,5.64,0,0,1-1.35.55,11.51,11.51,0,0,1-2.61.38,25.79,25.79,0,0,1-5-.36,31.25,31.25,0,0,1-4.79-1.16,24,24,0,0,1-2.31-.9,5.93,5.93,0,0,1-2-1.39,6.56,6.56,0,0,0,2.22.87c.78.19,1.56.35,2.35.47,1.58.27,3.16.44,4.75.56a32,32,0,0,0,4.69,0,10.46,10.46,0,0,0,2.17-.37c.66-.19,1.26-.52,1.35-.82.11-.13.08-.31.08-.55s-.08-.26-.11-.4l-.21-.43a15.13,15.13,0,0,1-1-2.36,15.88,15.88,0,0,1-.75-5A21.78,21.78,0,0,1,253.38,209.87Z"/>
          <g>
            <path class="fcc3d842-1a1d-4865-86d0-5b8b48bf3623" d="M266.21,219.9a16.94,16.94,0,1,0-2.55-23.82,16.94,16.94,0,0,0,2.55,23.82"/>
            <path class="fdc97ae6-6764-4a24-95f1-5a3625a4719f" d="M268.16,211.77A11.31,11.31,0,1,0,280,201a11.3,11.3,0,0,0-11.81,10.77"/>
            <path class="ff905fb1-a63c-4c31-91af-e0a179090e99" d="M270.54,203.1a5.66,5.66,0,1,0,5.92-5.39,5.66,5.66,0,0,0-5.92,5.39"/>
            <path class="f181739c-9e41-41d0-bacd-78aa274b9ea8" d="M288,211.15c1.65,10.12-9.33,13.5-14.49,8.3C280.82,221.2,285.38,217.94,288,211.15Z"/>
          </g>
          <g>
            <path class="fcc3d842-1a1d-4865-86d0-5b8b48bf3623" d="M211.76,209.47a17.06,17.06,0,1,0-2.57-24,17.08,17.08,0,0,0,2.57,24"/>
            <path class="fdc97ae6-6764-4a24-95f1-5a3625a4719f" d="M211.94,201.51a11.61,11.61,0,1,0,12.13-11,11.62,11.62,0,0,0-12.13,11"/>
            <path class="ff905fb1-a63c-4c31-91af-e0a179090e99" d="M215.73,191.87a5.63,5.63,0,1,0,5.88-5.24,5.56,5.56,0,0,0-5.88,5.24"/>
            <path class="f181739c-9e41-41d0-bacd-78aa274b9ea8" d="M232.44,201.32c1.66,10.2-9.4,13.6-14.6,8.36C225.24,211.44,229.84,208.16,232.44,201.32Z"/>
          </g>
          <path class="aff658e4-4e85-438f-8dcd-dc538bbfd6dc" d="M247.44,264.59a176.78,176.78,0,0,0-37.87-9.42s8.48-14.28,25.07-10.06S247.44,264.59,247.44,264.59Z"/>
          <path class="ff905fb1-a63c-4c31-91af-e0a179090e99" d="M242.54,263.75s.59-2.15-2-4.29c-2.21-1.84-11.1-5.58-17.5-3.85-7.12,1.91-5.9,1.79-5.9,1.79-.11.27,10.49,1.69,26.33,6.64"/>
          <path class="ff905fb1-a63c-4c31-91af-e0a179090e99" d="M224.58,245.38s-.26,2.21,2.61,3.93c2.47,1.48,11.34,4.68,17.94,4,2.84-.27.39-1.34.39-1.34-.24-1.44-6.05-6.31-21.93-6.78"/>
          <path class="a5b49d23-8552-4fbe-9255-3876ebee446d" d="M247.44,264.59c1.58-3.56-11.53-30.38-37.87-9.42C219.25,236.81,252.7,236.47,247.44,264.59Z"/>
          <path class="e0690bdc-4c8c-4661-aa9f-558aae86ba38" d="M304.06,105.39c-1.59-3.63-3.4-7.19-5.07-10.34C284.2,67,243.23,61.85,215,63a102.31,102.31,0,0,0-38.62,9.72,84.53,84.53,0,0,0-21.46,14.48,4.12,4.12,0,0,1-.37.35c-15.71,14.6-26.7,35.05-29,55.79-3.88,34.53,9.67,57.76,32.24,57.29,27.26-.55,12.49-34.18,32.66-34.52,39.86-.7,91.17-6.46,111.88-22.56,5.08-3.95,4.23-8.25,5.59-17.25a39.38,39.38,0,0,0,.46-4.86C308.46,116.78,306.54,111,304.06,105.39Z"/>
          <path class="aacb2d35-02e4-4e4e-8b24-47289dba00f3" d="M154.11,220.12l-5.92-.67A24,24,0,0,1,127,193a14.18,14.18,0,0,1,15.67-12.51l1.24.14a14.51,14.51,0,0,1,12.8,16Z"/>
          <path class="b99455ea-6c97-4d9b-983f-8f1812ff354f" d="M148.68,210.27a14.86,14.86,0,0,1-14.63-14.89,6.66,6.66,0,0,1,6.69-6.65h1a7,7,0,0,1,6.93,7Z"/>
          <path class="af21d513-6fc8-4604-a29b-8b2d7f21b6b0" d="M92.86,238.83c.08,17-3.5,21.47-15.48,28,13,6,25.16-3.61,30.6-15.54"/>
        </g>
        <path class="b0f7544c-5125-4e5c-a16c-acb05de19e34" d="M261.24,465.76l-10.53,3.49-49,16.28-24-10.9-17.84-26.19s14.66-12.45,32.67-27.21c15.72-12.87,34-27.53,47.32-37.19-3.29,14.45-3.57,26.8-2.16,37.19a73.15,73.15,0,0,0,13,33.43A51.09,51.09,0,0,0,261.24,465.76Z"/>
        <path class="e2a07e0f-2258-4f4e-b504-021f134f42eb" d="M241,436.09s-9.21-24.65-1.63-52.93c0,0,27.23-30.9,51.06-30,20.42,1.48,47.13,58.84,55.73,68.9l-30.54,22.16-33.15-47.59C278.26,403.49,257.74,421,241,436.09Z"/>
        <g>
          <path class="ac9d3609-5290-4891-a542-8fbaad4620d4" d="M359.28,476.29a19.26,19.26,0,0,1-26.64-5.68c-.16-.23-6-9.29-14.39-22l-3.1-4.69c-1-1.6-2.1-3.21-3.2-4.88,10.94-.42,28.06-10.23,31.39-22.4l3.05,4.6c1.21,1.82,2.36,3.6,3.48,5.29,8.43,12.79,14.48,22.11,15.09,23.06A19.27,19.27,0,0,1,359.28,476.29Z"/>
          <g>
            <path class="ac9d3609-5290-4891-a542-8fbaad4620d4" d="M353.32,479.8H320.75v5.32a2.82,2.82,0,0,0,2.82,2.8h84.48a2.8,2.8,0,0,0,2.8-2.8V479.8Z"/>
            <path class="adf84408-cd0b-4f61-a9a5-cc82bb57026b" d="M410.85,479.79h-90.1c0-8.31,0-16.75,2.91-21.39,4.15,1.44,10.42,3.43,21.55-.55,9.94-3.54,18.4-11.41,19.51-11.72a8.86,8.86,0,0,1,5.48.25s22.16,9,22.23,9c7.44,4.28,14.54,10.13,17.25,17.72A32.86,32.86,0,0,1,410.85,479.79Z"/>
            <path class="fc2dc2ae-67e5-4563-9ca1-e41f72d6c57e" d="M410.85,479.79H382.33c1.28-11,3.42-22.12,9.88-24.49l.22.12C413.06,462.8,410.66,477.31,410.85,479.79Z"/>
            <path class="bfd30ac3-788b-419e-a791-e73c66fe36aa" d="M374.64,449.4a14.23,14.23,0,0,0-6.24,10.08"/>
            <path class="bfd30ac3-788b-419e-a791-e73c66fe36aa" d="M381.69,452.29c-3.34,1.87-6,6.75-6.5,9.79"/>
            <path class="adf84408-cd0b-4f61-a9a5-cc82bb57026b" d="M320.75,479.79c0-8.31,0-16.75,2.91-21.39,3.83,1.28,10.42,3.43,21.55-.55"/>
          </g>
          <path class="b0f7544c-5125-4e5c-a16c-acb05de19e34" d="M349.87,426.56c-3.27,6.79-8.81,12.36-16.41,16.46a62.8,62.8,0,0,1-15.21,5.62l-3.1-4.69c11.2-2.34,26.21-8.15,31.24-22.68C347.6,423.09,348.75,424.87,349.87,426.56Z"/>
        </g>
        <g>
          <path class="a2396497-f60a-4823-961f-ee71b0918439" d="M343.38,480.3H321.05v5.32a2.82,2.82,0,0,0,2.81,2.8h84.49a2.8,2.8,0,0,0,2.8-2.8V480.3H343.38Z"/>
          <path class="a2396497-f60a-4823-961f-ee71b0918439" d="M392.73,455.92l-.23-.12,0,0L383.18,452s-.07-.32-.34-.15L376,449.12s-.08-.31-.34-.13l-5.19-2.11a8.83,8.83,0,0,0-5.47-.25,7.42,7.42,0,0,0-1.42.94c-2.43-3.74-7.29-11.2-13.43-20.51-1.12-1.69-2.27-3.46-3.48-5.29l-3.05-4.6c-3.33,12.17-20.45,22-31.4,22.4,1.11,1.67,2.18,3.28,3.21,4.88l3.1,4.69c2.48,3.76,4.73,7.19,6.69,10.18L324,458.9c-2.87,4.64-2.9,13.08-2.9,21.39h90.1C411,477.81,413.36,463.3,392.73,455.92Z"/>
        </g>
        <path class="aacb2d35-02e4-4e4e-8b24-47289dba00f3" d="M242.82,386.63c-1.75,4-1,32.11,7.44,40.26l-9.06,8.17s-7.91-21.74-2.57-46.35Z"/>
        <g>
          <g>
            <line class="fab9c171-2ed9-4f89-8e48-4960fee0c206" x1="289.4" y1="367.07" x2="289.4" y2="366.28"/>
            <line class="b073e3fb-f73b-411c-aea9-a34403339b7c" x1="294.96" y1="366.58" x2="294.96" y2="377.51"/>
            <line class="fab9c171-2ed9-4f89-8e48-4960fee0c206" x1="300.86" y1="373.85" x2="300.86" y2="387.97"/>
          </g>
          <g>
            <path class="b994a217-587b-4b48-90fb-f9324b135072" d="M296.52,391.76a2.86,2.86,0,0,1-5.71,0c0-1.58,1.28-6.28,2.85-6.28S296.52,390.18,296.52,391.76Z"/>
            <path class="a8d91290-6943-495e-9e0f-72dbcbd1621d" d="M295.91,391.61a1.86,1.86,0,1,1-1.86-1.86A1.85,1.85,0,0,1,295.91,391.61Z"/>
          </g>
          <g>
            <path class="b994a217-587b-4b48-90fb-f9324b135072" d="M303.88,400.9a2.86,2.86,0,0,1-5.71,0c0-1.58,1.28-6.29,2.85-6.29S303.88,399.32,303.88,400.9Z"/>
            <path class="a8d91290-6943-495e-9e0f-72dbcbd1621d" d="M303.27,400.74a1.86,1.86,0,1,1-1.86-1.85A1.86,1.86,0,0,1,303.27,400.74Z"/>
          </g>
        </g>
        <g>
          <path class="ae77c00f-891d-42be-b897-95a4034861b1" d="M311,349.54a2.16,2.16,0,0,0-.77-1.12,6.43,6.43,0,0,0-9.05.34,7.09,7.09,0,0,1-4.93,2.44c-4.87,0,.84,7.06,8,4.42"/>
          <path class="ae77c00f-891d-42be-b897-95a4034861b1" d="M299.41,375.55c2,1.6,15.47-7.91,15.47-7.91s-12.71,9.6-11,13.16c2.93,4.62,17.06-7.47,17.06-7.47s-13.69,12.36-9.15,13.24c4.86,1,23.28-10.93,19.27-19.88-6.66-14.83-15.19-22-22.48-15.81s-14.66,13.3-11.81,15.7c1.21,1,13.33-5.38,13.33-5.38S295.52,372.37,299.41,375.55Z"/>
        </g>
        <g>
          <path class="ac9d3609-5290-4891-a542-8fbaad4620d4" d="M222.83,328.37c.37,9.52-3.34,14.63-8.15,14.82s-8.9-4.63-9.26-14.15,7.93-20.32,7.93-20.32S222.46,318.85,222.83,328.37Z"/>
          <path class="ac9d3609-5290-4891-a542-8fbaad4620d4" d="M206.57,350.08c3.88,3.72,4.38,7.25,2.5,9.21s-5.43,1.61-9.31-2.11S195,345.82,195,345.82,202.69,346.36,206.57,350.08Z"/>
          <path class="ac9d3609-5290-4891-a542-8fbaad4620d4" d="M226.93,357c-3.93,3.66-7.48,4-9.33,2s-1.31-5.51,2.63-9.18,11.61-4.1,11.61-4.1S230.87,353.3,226.93,357Z"/>
          <path class="ac9d3609-5290-4891-a542-8fbaad4620d4" d="M226.73,316.48s-8,3.9-13.13,10c-5.57-5.84-14.09-9.25-14.09-9.25s-2.66,13.37,1.89,21.74c3.73,6.88,8.11,9.15,12.18,9.33s9.26-2,12.88-10C230.37,329.61,226.73,316.48,226.73,316.48Z"/>
        </g>
        <path class="e2a07e0f-2258-4f4e-b504-021f134f42eb" d="M300.91,404.52,286,394.45c3.92-.32,10.72.62,16.24,1.54a1.63,1.63,0,0,0,1.06-3c-17.23-9.94-31.72-13.41-27.27-17.85,1.1-1.1,6.82-3.23,10.69-5.52a1.42,1.42,0,0,0-.58-2.63c-12.16-1.28-19.39,4.84-23.86,9.18-4.94,4.79-73.62-2.77-73.62-2.77L176,311.54c-12-11.82-40.27,9.94-40.27,9.94s15.73,71.37,25.21,84.2S254.61,401,254.61,401a39,39,0,0,0,7.57,2.47l19.17,11.37c2.35,1.39,4.35-.88,2.4-2.73l-6.6-6.29,12.38,6.39c2.43,1.26,4.3-1.13,2.24-2.86L281.92,401,299,407.61C301.53,408.6,303.13,406,300.91,404.52Z"/>
        <path class="aacb2d35-02e4-4e4e-8b24-47289dba00f3" d="M151.82,381.09s12.86-23.27,32.57-26.25c-3.79-15.14-5.93-32.3-7.58-39a21.43,21.43,0,0,0-25.64-15.56c-11.4,2.61-15.75,9.7-13.94,21.09S150.32,380.33,151.82,381.09Z"/>
        <path class="ab19f55b-9c9a-4889-8658-403ca15db15c" d="M141.56,351.28s28.89,2.36,48.47-17.22c-.23-.6-.49-1.5-.83-2.63-2.83-9.33-8.34-45.06-31.28-46.28C129.06,283.62,128.74,316.73,141.56,351.28Z"/>
        <path class="a3fa0581-704a-424e-a654-59adc0f669c9" d="M151.06,340.49c-3-11.55-9-24.59-6.91-36.69,1.23-7.19,3.76-16.59,12.34-18.27.69-.13,1.4-.22,2.11-.31-.23,0-.45-.06-.68-.07-28.86-1.53-29.18,31.58-16.36,66.13a65.3,65.3,0,0,0,12.24-.53C152.86,347.34,152,343.92,151.06,340.49Z"/>
        <path class="be6b2d60-4dc9-46f3-8819-994280fbe969" d="M190,334.07l2.87,6.66c-12,8.9-37.63,16.08-49.38,18.26-.62-2.11-1.32-4.7-2-7.71C155.3,348.85,180.38,342.16,190,334.07Z"/>
        <path class="a92cfaae-3389-4bfb-a0cf-dc15d730238d" d="M205.4,465.66l16,23.48-36.32-1c-26.24,0-58.57-22-65.18-45,5.92,5,20.63,17.29,31.18,20.39C166.79,468.13,188.39,473.52,205.4,465.66Z"/>
        <g>
          <path class="ac9d3609-5290-4891-a542-8fbaad4620d4" d="M277.24,452.82a40.37,40.37,0,0,0-4.6-2.21,87,87,0,0,1-14.6,1.31A74.67,74.67,0,0,1,242,450.39c-4.36-1-6.53-2.93-10.86-4-1.05-.08-3.82-.52-4.87-.55a30.65,30.65,0,0,0-7.6.47,22.61,22.61,0,0,0-3.31,1l-.08,0a21.22,21.22,0,0,0-3.07,1.49s0,0,0,0a22.18,22.18,0,0,0-11.06,18.72,21.85,21.85,0,0,0,14.67,20.33,23.92,23.92,0,0,0,8.14,1.42h40.6c12.59,0,22.79-9.76,22.79-21.75C287.31,460.07,284,456.67,277.24,452.82Z"/>
          <path class="adf84408-cd0b-4f61-a9a5-cc82bb57026b" d="M290,469.38c0,12-10.15,20.35-22.74,20.35H226.66a23.91,23.91,0,0,1-8.13-1.43A21.85,21.85,0,0,1,203.85,468a22.19,22.19,0,0,1,11.07-18.72s0,0,0,0a20.73,20.73,0,0,1,3.07-1.49l.07,0a21.57,21.57,0,0,1,3.32-1,30.62,30.62,0,0,1,7.6-.47c3.57.1,7.14.63,10.61.93,5.73.51,12.27,1.69,18,1.43,7.82-.37,15-2.08,22.21,2C286.61,454.5,290,461.92,290,469.38Z"/>
          <path class="fc2dc2ae-67e5-4563-9ca1-e41f72d6c57e" d="M226.9,464.11v4.34c0,6.51-4.45,15.94-8.36,19.84h0A21.85,21.85,0,0,1,203.85,468a22.19,22.19,0,0,1,11.07-18.72s0,0,0,0a20.59,20.59,0,0,1,6.46-2.51C224.66,450.61,226.9,458.27,226.9,464.11Z"/>
          <path class="b66e2904-d670-46f0-b6bb-b9a68dd5b7f8" d="M230.55,455.25c2.44,6,3.53,14.93-1.39,23.25"/>
          <path class="b66e2904-d670-46f0-b6bb-b9a68dd5b7f8" d="M236.33,478.5a26.23,26.23,0,0,0,1.38-23.25"/>
          <path class="a7910c06-66b2-47b3-949b-c79bd21c6deb" d="M309.91,459.72c-1.41,1.23-2.81,2.42-4.2,3.59-18.37,15.63-23.44,19-29.12,19.81a17.66,17.66,0,0,1-11.76-32.48c5.54-3.44,19.14-15.1,24.08-19.37C287.37,444.11,295.32,458.69,309.91,459.72Z"/>
          <path class="b0f7544c-5125-4e5c-a16c-acb05de19e34" d="M305.71,463.31c-1.7,1.45-3.37,2.85-5,4.19a30.8,30.8,0,0,1-18.53-16.59,30.09,30.09,0,0,1-2.91-11.45c1.73-1.45,3.56-3,5.46-4.62a23.25,23.25,0,0,0,2.13,13.87C289.9,455.12,296.36,462,305.71,463.31Z"/>
        </g>
        <path class="a2396497-f60a-4823-961f-ee71b0918439" d="M309.64,460.13c-14.6-1-22.55-15.6-21-28.45-1.05.91-2.49,2.16-4.16,3.58h0l-2.55,2.18c-4.37,3.69-9.58,8-13.56,11-3.56,0-7.2.48-11,.66-5.76.26-12.3-.92-18-1.43-2.76-.24-5.59-.61-8.44-.81h0c-1.05-.09-3.81-.53-4.86-.56a30.73,30.73,0,0,0-7.61.48,23,23,0,0,0-3.31,1s-.05,0-.07,0a21.33,21.33,0,0,0-3.08,1.49h0a22.15,22.15,0,0,0-11.07,18.71,21.85,21.85,0,0,0,14.67,20.33,23.77,23.77,0,0,0,5.76,1.29,23.38,23.38,0,0,0,5.13.58H267c9.52,0,17.64-4.78,21-12.29,4.09-3,9.52-7.41,17.41-14.12C306.82,462.55,308.22,461.36,309.64,460.13Z"/>
      </g>
    </g>
  </g>
</svg>
