<svg id="b907d033-5dea-4c41-be3a-4f3f32c99216" data-name="Layer 1" xmlns="http://www.w3.org/2000/svg" width="35.7" height="34.24" viewBox="0 0 35.7 34.24">
  <defs>
    <style>
      .ad8f633f-1a20-472c-978e-a8f9520bf4d3, .ba996974-6fd4-45b2-8ff1-2c6cc697cc19 {
        fill: #fff;
      }

      .ba996974-6fd4-45b2-8ff1-2c6cc697cc19 {
        stroke: #722a2a;
        stroke-miterlimit: 10;
      }

      .b6468764-97d8-44bc-bfdf-2024e979c8d4 {
        fill: #230b04;
      }

      .f17ff6f6-4b4d-491a-b433-15a40874801a {
        fill: #160602;
      }

      .e00af274-fd1b-418a-a5a2-198370e51097 {
        fill: #8e3a26;
      }
    </style>
  </defs>
  <g>
    <g>
      <ellipse class="ba996974-6fd4-45b2-8ff1-2c6cc697cc19" cx="17.85" cy="17.12" rx="16.85" ry="16.14"/>
      <path class="b6468764-97d8-44bc-bfdf-2024e979c8d4" d="M18,6.44A12.49,12.49,0,0,1,30.18,19.31a12.66,12.66,0,0,1-12.41,12.8A12.49,12.49,0,0,1,5.58,19.24,12.65,12.65,0,0,1,18,6.44Z"/>
      <path class="ad8f633f-1a20-472c-978e-a8f9520bf4d3" d="M20.66,16.18c-1.1-2.71-8.18-6.43-8.2-2.09a3.89,3.89,0,0,0,1.08,2.23,4.9,4.9,0,0,0,3.88,2.08C20.45,18.39,21.14,17.39,20.66,16.18Z"/>
      <path class="f17ff6f6-4b4d-491a-b433-15a40874801a" d="M19.7,30.66c15.91-2.82-8.52-13.91-9.08-4.09C10.48,29.18,15.43,31.42,19.7,30.66Z"/>
    </g>
    <path class="e00af274-fd1b-418a-a5a2-198370e51097" d="M34.7,17.12c0,8.91-2.91-7.35-16.81-6.54C3.89,10.4,1,26,1,17.12S8.54,1,17.85,1,34.7,8.21,34.7,17.12Z"/>
  </g>
</svg>
