<svg id="e0969a9a-fa4a-4e55-9ed8-060be23bbe56" data-name="Layer 1" xmlns="http://www.w3.org/2000/svg" width="309" height="82" viewBox="0 0 309 82">
  <defs>
    <style>
      .b3dc9b90-f6d8-4914-b22f-991a21b8ac92 {
        fill: #fff;
        stroke: #3f2b00;
        stroke-miterlimit: 10;
        stroke-width: 2px;
      }

      .f0e5a044-896e-4121-becb-a1720f2434cf {
        fill: #2a8775;
      }
    </style>
  </defs>
  <g>
    <rect class="b3dc9b90-f6d8-4914-b22f-991a21b8ac92" x="5.82" y="5.37" width="297.35" height="71.27" rx="33.84"/>
    <g>
      <path class="f0e5a044-896e-4121-becb-a1720f2434cf" d="M94.12,57.12a4.12,4.12,0,0,1-1.46,2.07,4.4,4.4,0,0,1-2.5.62,4.08,4.08,0,0,1-2.53-.68,4.7,4.7,0,0,1-1.44-2.23L81.51,42.64l-4.9,14.54a3.52,3.52,0,0,1-1.4,2,4.84,4.84,0,0,1-2.62.62,8.42,8.42,0,0,1-1.15-.08,3.25,3.25,0,0,1-1-.35,3.11,3.11,0,0,1-.94-.86A5.66,5.66,0,0,1,68.68,57L61,35.61h7.44l3.19,9.77q.16.52.36,1.26c.13.48.26,1,.41,1.42s.31,1.11.5,1.71a9.66,9.66,0,0,1,.33-1.34l.36-1.26.35-1.26L77,35.61h8.92l3.3,10.78a10.71,10.71,0,0,0,.3,1c.13.38.25.74.36,1.1a6.37,6.37,0,0,1,.33,1.23c.11-.35.22-.73.33-1.12.19-.72.39-1.4.61-2l3.25-11h7.71Z"/>
      <path class="f0e5a044-896e-4121-becb-a1720f2434cf" d="M131.24,47.63a14,14,0,0,1-.91,5.21,10.38,10.38,0,0,1-2.58,3.81,11.09,11.09,0,0,1-4,2.35,17,17,0,0,1-10.36,0,11.09,11.09,0,0,1-4-2.35,10.7,10.7,0,0,1-2.61-3.81,13.57,13.57,0,0,1-.93-5.21,13.49,13.49,0,0,1,.9-5.08,10.43,10.43,0,0,1,6.56-6.14,17.64,17.64,0,0,1,10.44,0,11,11,0,0,1,4,2.3,10.06,10.06,0,0,1,2.58,3.79A13.79,13.79,0,0,1,131.24,47.63Zm-7.33,0a5.08,5.08,0,0,0-5.45-5.54,5.11,5.11,0,0,0-3.92,1.46,5.73,5.73,0,0,0-1.37,4.08,6.07,6.07,0,0,0,1.34,4.2,5.08,5.08,0,0,0,3.95,1.48,5.38,5.38,0,0,0,4-1.46A5.79,5.79,0,0,0,123.91,47.64Z"/>
      <path class="f0e5a044-896e-4121-becb-a1720f2434cf" d="M154.86,42.37c-.52-.11-.92-.18-1.21-.22s-.63,0-1,0a5.62,5.62,0,0,0-4.77,2.15q-1.62,2.14-1.62,6.39v9.17h-7.33V43.92c0-.89,0-1.67,0-2.34s-.07-1.28-.14-1.85-.18-1.14-.3-1.7-.31-1.19-.53-1.91h7c.12.45.22.84.32,1.15a7.19,7.19,0,0,1,.2.91c0,.28.07.58.11.9a9.58,9.58,0,0,1,.06,1.16,12.28,12.28,0,0,1,3.13-3.59,6,6,0,0,1,3.49-1,5.27,5.27,0,0,1,1.3.14,12.66,12.66,0,0,1,1.46.54Z"/>
      <path class="f0e5a044-896e-4121-becb-a1720f2434cf" d="M176.17,42.37c-.52-.11-.92-.18-1.21-.22s-.63,0-1,0a5.62,5.62,0,0,0-4.77,2.15q-1.62,2.14-1.62,6.39v9.17h-7.33V43.92c0-.89,0-1.67,0-2.34s-.07-1.28-.14-1.85-.18-1.14-.3-1.7-.31-1.19-.53-1.91h7c.11.45.21.84.31,1.15a7.19,7.19,0,0,1,.2.91c0,.28.07.58.11.9a9.58,9.58,0,0,1,.06,1.16A12.28,12.28,0,0,1,170,36.65a6,6,0,0,1,3.5-1,5.24,5.24,0,0,1,1.29.14,12.66,12.66,0,0,1,1.46.54Z"/>
      <path class="f0e5a044-896e-4121-becb-a1720f2434cf" d="M189.44,29a3,3,0,0,1-1.27,2.45,5.11,5.11,0,0,1-6.11,0,3.25,3.25,0,0,1-1.32-2.52A3,3,0,0,1,182,26.35a4.92,4.92,0,0,1,3.19-1,4.86,4.86,0,0,1,1.63.28,4.07,4.07,0,0,1,1.37.77,3.78,3.78,0,0,1,.94,1.16A3,3,0,0,1,189.44,29Zm-8.26,30.84V35.61h7.32v24.2Z"/>
      <path class="f0e5a044-896e-4121-becb-a1720f2434cf" d="M217.85,42.26a6.23,6.23,0,0,1-1,3.41,8.19,8.19,0,0,1-2.76,2.62A15.3,15.3,0,0,1,209.82,50a23.58,23.58,0,0,1-5.61.61l-.66,0q-.37,0-.9,0a5.15,5.15,0,0,0,1.65,3.28A5.3,5.3,0,0,0,207.87,55,16.33,16.33,0,0,0,216,52.49v5.78A16.25,16.25,0,0,1,212,60a16.74,16.74,0,0,1-4.33.52,14.29,14.29,0,0,1-5-.82,10.08,10.08,0,0,1-3.77-2.4,10.62,10.62,0,0,1-2.37-3.73,13.81,13.81,0,0,1-.82-4.93,15.31,15.31,0,0,1,1-5.52,12.76,12.76,0,0,1,2.7-4.32,11.85,11.85,0,0,1,4.15-2.8,14,14,0,0,1,5.35-1,10.06,10.06,0,0,1,6.52,2A6.43,6.43,0,0,1,217.85,42.26Zm-7.32.55a1.9,1.9,0,0,0-.76-1.51,2.87,2.87,0,0,0-1.9-.63A4.36,4.36,0,0,0,204.73,42,6.12,6.12,0,0,0,203,45.51a4.87,4.87,0,0,0,.87.11h.82C208.59,45.62,210.53,44.68,210.53,42.81Z"/>
      <path class="f0e5a044-896e-4121-becb-a1720f2434cf" d="M241.75,59.81c0-.22-.07-.48-.11-.77s-.08-.55-.12-.88-.07-.74-.11-1.21a10.07,10.07,0,0,1-3.64,2.72,11.37,11.37,0,0,1-4.36.8,10.85,10.85,0,0,1-4.39-.86,9.52,9.52,0,0,1-3.34-2.36,10.89,10.89,0,0,1-2.16-3.66,14.14,14.14,0,0,1-.77-4.78,16.25,16.25,0,0,1,.91-5.56,13.56,13.56,0,0,1,2.53-4.37A11.36,11.36,0,0,1,230.08,36,11.84,11.84,0,0,1,235,35a17.06,17.06,0,0,1,2.42.16,14.06,14.06,0,0,1,2.7.72V21.48h7.33v30c0,.62,0,1.41.08,2.36s.12,1.87.19,2.75.17,2.11.28,3.25Zm-1.6-17.66a8.24,8.24,0,0,0-2-.55,17.91,17.91,0,0,0-2-.11,5.54,5.54,0,0,0-4.43,1.9,7.71,7.71,0,0,0-1.63,5.2,5.68,5.68,0,0,0,1.14,3.77,3.92,3.92,0,0,0,3.15,1.34,6.74,6.74,0,0,0,2.26-.38A4.23,4.23,0,0,0,238.46,52a6.86,6.86,0,0,0,1.23-2.45,13,13,0,0,0,.46-3.77Z"/>
    </g>
  </g>
</svg>
