<svg id="b5cb37a8-e054-417a-b730-6b2c95c9a535" data-name="Layer 1" xmlns="http://www.w3.org/2000/svg" width="309" height="82" viewBox="0 0 309 82">
  <defs>
    <style>
      .b98f940c-b5df-4e34-be4f-5153ddaa1276 {
        fill: #fff;
        stroke: #3f2b00;
        stroke-miterlimit: 10;
        stroke-width: 2px;
      }

      .e55c8372-9573-4594-bcc8-f1e905c908e1 {
        fill: #326cc6;
      }
    </style>
  </defs>
  <g>
    <rect class="b98f940c-b5df-4e34-be4f-5153ddaa1276" x="5.82" y="5.37" width="297.35" height="71.27" rx="33.84"/>
    <g>
      <path class="e55c8372-9573-4594-bcc8-f1e905c908e1" d="M132.75,53a6.93,6.93,0,0,1-2.33,5.5,9.65,9.65,0,0,1-6.56,2,28,28,0,0,1-5.59-.55,16.46,16.46,0,0,1-4.41-1.49l.94-5.61a18.8,18.8,0,0,0,8.37,2.48,2.37,2.37,0,0,0,1.73-.53,1.61,1.61,0,0,0,.53-1.18,2,2,0,0,0-.42-1.34,6.23,6.23,0,0,0-2-1.3,33,33,0,0,1-3.88-2A12.75,12.75,0,0,1,116.48,47,6.85,6.85,0,0,1,115,44.74a7.62,7.62,0,0,1-.47-2.75,6.18,6.18,0,0,1,2.67-5.36,11.66,11.66,0,0,1,7-1.9,21.2,21.2,0,0,1,4.1.36,18.75,18.75,0,0,1,4.12,1.4L131.48,42a13.45,13.45,0,0,0-3.79-1.51,17.32,17.32,0,0,0-3.62-.41,2.51,2.51,0,0,0-1.75.47,1.63,1.63,0,0,0-.47,1.23,1.83,1.83,0,0,0,.75,1.52,15.78,15.78,0,0,0,2.94,1.51,33.94,33.94,0,0,1,3.34,1.9,11.51,11.51,0,0,1,2.25,1.87,5.86,5.86,0,0,1,1.25,2A7.22,7.22,0,0,1,132.75,53Z"/>
      <path class="e55c8372-9573-4594-bcc8-f1e905c908e1" d="M156.7,59.75a8.75,8.75,0,0,0-.06-.93c0-.3-.07-.64-.09-1s0-.82-.08-1.26a8.73,8.73,0,0,1-3.59,2.83,11.61,11.61,0,0,1-4.69,1,8.72,8.72,0,0,1-7-3q-2.51-3-2.51-8.47,0-6.64,4.05-10.25T154.22,35c.82,0,1.56,0,2.23.05s1.34.1,2,.19,1.36.21,2.07.36,1.48.35,2.34.61V51.83q0,1.28.06,2.67c0,.94.09,1.79.16,2.56s.15,1.81.22,2.69Zm-1.15-17.93a12.83,12.83,0,0,0-1.74-.27c-.52,0-1-.06-1.46-.06a5.88,5.88,0,0,0-4.7,2A8,8,0,0,0,146,48.86a5.37,5.37,0,0,0,1,3.52,3.52,3.52,0,0,0,2.86,1.21,5.11,5.11,0,0,0,2.22-.49,5.7,5.7,0,0,0,1.82-1.4,6.86,6.86,0,0,0,1.23-2.15,8.07,8.07,0,0,0,.45-2.78Z"/>
      <path class="e55c8372-9573-4594-bcc8-f1e905c908e1" d="M188.86,59.75c0-.22-.07-.47-.11-.77s-.08-.55-.11-.88-.08-.73-.12-1.21a10,10,0,0,1-3.64,2.72,11.18,11.18,0,0,1-4.36.8,10.85,10.85,0,0,1-4.39-.85,9.67,9.67,0,0,1-3.34-2.37,10.74,10.74,0,0,1-2.16-3.65,14.2,14.2,0,0,1-.77-4.79,16.48,16.48,0,0,1,.91-5.55,13.45,13.45,0,0,1,2.53-4.37A11.36,11.36,0,0,1,177.19,36a11.85,11.85,0,0,1,4.95-1,17.27,17.27,0,0,1,2.43.17,13.88,13.88,0,0,1,2.69.71V21.42h7.33v30c0,.63,0,1.41.08,2.37s.12,1.87.19,2.75.17,2.11.28,3.24Zm-1.6-17.65a7.82,7.82,0,0,0-2-.55,17.86,17.86,0,0,0-2-.11,5.54,5.54,0,0,0-4.44,1.9,7.67,7.67,0,0,0-1.63,5.19,5.66,5.66,0,0,0,1.14,3.77,3.91,3.91,0,0,0,3.15,1.35,6.47,6.47,0,0,0,2.26-.39,4.07,4.07,0,0,0,1.83-1.32,6.81,6.81,0,0,0,1.23-2.44,13.07,13.07,0,0,0,.46-3.77Z"/>
    </g>
  </g>
</svg>
