<svg xmlns="http://www.w3.org/2000/svg" xmlns:xlink="http://www.w3.org/1999/xlink" viewBox="0 0 1600 900"><defs><clipPath id="clip-path"><rect x="1620.81" y="-0.11" width="1599.19" height="900.21" fill="none"/></clipPath></defs><g id="Layer_2" data-name="Layer 2"><rect width="1600" height="900" fill="#8e52db"/></g><g id="Layer_3" data-name="Layer 3"><g clip-path="url(#clip-path)"><g opacity="0.3"><g opacity="0.17"><path d="M1510,132.69a13.8,13.8,0,1,1,13.8,13.79A13.81,13.81,0,0,1,1510,132.69Zm26.28,0a12.49,12.49,0,1,0-12.48,12.48A12.5,12.5,0,0,0,1536.26,132.69Zm-22.77,0A10.29,10.29,0,1,1,1523.78,143,10.29,10.29,0,0,1,1513.49,132.69Zm19.27,0a9,9,0,1,0-9,9A9,9,0,0,0,1532.76,132.69Z" fill="#f2f4f9"/><path d="M1586.15,177.43a13.8,13.8,0,1,1,13.8,13.8A13.81,13.81,0,0,1,1586.15,177.43Zm26.28,0A12.49,12.49,0,1,0,1600,189.92,12.5,12.5,0,0,0,1612.43,177.43Zm-22.77,0A10.29,10.29,0,1,1,1600,187.72,10.29,10.29,0,0,1,1589.66,177.43Zm19.27,0a9,9,0,1,0-9,9A9,9,0,0,0,1608.93,177.43Z" fill="#f2f4f9"/><path d="M1549,218.23l-24.45,24.45a19.16,19.16,0,0,0,2,.34l22.77-22.77C1549.22,219.57,1549.11,218.9,1549,218.23Z" fill="#f2f4f9"/><path d="M1547.56,214l-27.27,27.27c.54.25,1.1.48,1.67.68l26.28-26.29C1548,215.11,1547.81,214.55,1547.56,214Z" fill="#f2f4f9"/><path d="M1543.42,208.06l-.6-.57-29,29,.58.6.6.57,29-29.05Z" fill="#f2f4f9"/><path d="M1543.42,237.14a20.54,20.54,0,0,0,4.37-6.47L1537,241.51A20.54,20.54,0,0,0,1543.42,237.14Z" fill="#f2f4f9"/><path d="M1532.31,242.86,1549.15,226a23,23,0,0,0,.27-2.62l-19.72,19.73A20.82,20.82,0,0,0,1532.31,242.86Z" fill="#f2f4f9"/><path d="M1535.81,203.24l-26.29,26.29c.2.56.43,1.12.68,1.66l27.27-27.27C1536.93,203.67,1536.37,203.44,1535.81,203.24Z" fill="#f2f4f9"/><path d="M1525.42,202.27l-16.87,16.87a21,21,0,0,0-.28,2.82l20-20A20.56,20.56,0,0,0,1525.42,202.27Z" fill="#f2f4f9"/><path d="M1514.35,208.06a20.4,20.4,0,0,0-4.38,6.47l10.84-10.84A20.39,20.39,0,0,0,1514.35,208.06Z" fill="#f2f4f9"/><path d="M1539.61,205.07l-28.26,28.26c.3.49.61,1,.94,1.41L1541,206C1540.58,205.68,1540.1,205.37,1539.61,205.07Z" fill="#f2f4f9"/><path d="M1531.24,202.18,1508.46,225a19.8,19.8,0,0,0,.34,2l24.45-24.46C1532.59,202.37,1531.91,202.26,1531.24,202.18Z" fill="#f2f4f9"/><path d="M1545.48,210.46l-28.73,28.73c.44.33.91.64,1.4.94l28.27-28.26C1546.12,211.38,1545.8,210.91,1545.48,210.46Z" fill="#f2f4f9"/><path d="M1540.42,65.53l-15.84-15.85c-.47.06-.94.14-1.4.24l17,17A14.07,14.07,0,0,0,1540.42,65.53Z" fill="#f2f4f9"/><path d="M1536.33,53.78a14.17,14.17,0,0,0-4.5-3.05l7.54,7.54A14.27,14.27,0,0,0,1536.33,53.78Z" fill="#f2f4f9"/><path d="M1516.11,74a14.1,14.1,0,0,0,4.49,3l-7.54-7.54A14.17,14.17,0,0,0,1516.11,74Z" fill="#f2f4f9"/><path d="M1534.66,75.43l-20-20c-.22.3-.44.63-.65,1l19.66,19.66A11.09,11.09,0,0,0,1534.66,75.43Z" fill="#f2f4f9"/><path d="M1529.25,77.86l-17-17c-.1.46-.18.93-.24,1.4l15.84,15.84A13.18,13.18,0,0,0,1529.25,77.86Z" fill="#f2f4f9"/><path d="M1538.41,71.35l-19.66-19.66c-.34.21-.67.43-1,.65l20,20A11.09,11.09,0,0,0,1538.41,71.35Z" fill="#f2f4f9"/></g><g opacity="0.17"><path d="M1522,376.61a13.8,13.8,0,1,1,13.79,13.8A13.81,13.81,0,0,1,1522,376.61Zm26.28,0a12.49,12.49,0,1,0-12.49,12.48A12.5,12.5,0,0,0,1548.23,376.61Zm-22.77,0a10.29,10.29,0,1,1,10.28,10.29A10.3,10.3,0,0,1,1525.46,376.61Zm19.26,0a9,9,0,1,0-9,9A9,9,0,0,0,1544.72,376.61Z" fill="#f2f4f9"/><path d="M1598.12,421.36a13.8,13.8,0,1,1,13.79,13.79A13.81,13.81,0,0,1,1598.12,421.36Zm26.28,0a12.49,12.49,0,1,0-12.49,12.48A12.5,12.5,0,0,0,1624.4,421.36Zm-22.77,0a10.29,10.29,0,1,1,10.28,10.29A10.29,10.29,0,0,1,1601.63,421.36Zm19.26,0a9,9,0,1,0-9,9A9,9,0,0,0,1620.89,421.36Z" fill="#f2f4f9"/><path d="M1560.93,462.16l-24.45,24.45c.66.14,1.34.25,2,.33l22.78-22.77A19.16,19.16,0,0,0,1560.93,462.16Z" fill="#f2f4f9"/><path d="M1559.53,457.93l-27.27,27.27c.54.25,1.1.48,1.66.68l26.29-26.28C1560,459,1559.78,458.48,1559.53,457.93Z" fill="#f2f4f9"/><path d="M1555.38,452c-.17-.18-.36-.36-.6-.58l-29,29,.57.6.6.57,29-29C1555.74,452.35,1555.56,452.16,1555.38,452Z" fill="#f2f4f9"/><path d="M1555.38,481.06a20.4,20.4,0,0,0,4.38-6.47l-10.84,10.84A20.39,20.39,0,0,0,1555.38,481.06Z" fill="#f2f4f9"/><path d="M1544.28,486.79,1561.11,470a19.07,19.07,0,0,0,.27-2.62l-19.72,19.73A23,23,0,0,0,1544.28,486.79Z" fill="#f2f4f9"/><path d="M1547.77,447.16l-26.28,26.29c.2.56.43,1.12.68,1.66l27.27-27.27C1548.89,447.59,1548.34,447.36,1547.77,447.16Z" fill="#f2f4f9"/><path d="M1537.39,446.19l-16.87,16.87a21,21,0,0,0-.28,2.82l20-20A20.25,20.25,0,0,0,1537.39,446.19Z" fill="#f2f4f9"/><path d="M1526.31,452a20.39,20.39,0,0,0-4.37,6.46l10.84-10.84A20.4,20.4,0,0,0,1526.31,452Z" fill="#f2f4f9"/><path d="M1551.58,449l-28.27,28.26c.3.49.62,1,.94,1.41L1553,449.93C1552.54,449.6,1552.07,449.29,1551.58,449Z" fill="#f2f4f9"/><path d="M1543.2,446.1l-22.77,22.78c.08.67.19,1.35.33,2l24.45-24.45A19.16,19.16,0,0,0,1543.2,446.1Z" fill="#f2f4f9"/><path d="M1557.44,454.39l-28.73,28.73c.45.32.92.64,1.41.94l28.26-28.27C1558.08,455.3,1557.77,454.83,1557.44,454.39Z" fill="#f2f4f9"/><path d="M1552.39,309.45l-15.84-15.84a13.18,13.18,0,0,0-1.4.23l17,17C1552.25,310.39,1552.33,309.92,1552.39,309.45Z" fill="#f2f4f9"/><path d="M1548.29,297.7a13.94,13.94,0,0,0-4.49-3l7.54,7.54A14.06,14.06,0,0,0,1548.29,297.7Z" fill="#f2f4f9"/><path d="M1528.07,317.92a14.09,14.09,0,0,0,4.5,3l-7.54-7.54A14.2,14.2,0,0,0,1528.07,317.92Z" fill="#f2f4f9"/><path d="M1546.63,319.35l-20-20a9.79,9.79,0,0,0-.65,1L1545.65,320C1546,319.8,1546.32,319.58,1546.63,319.35Z" fill="#f2f4f9"/><path d="M1541.22,321.78l-17-17a13.18,13.18,0,0,0-.23,1.4L1539.82,322A13.18,13.18,0,0,0,1541.22,321.78Z" fill="#f2f4f9"/><path d="M1550.38,315.27l-19.66-19.66c-.34.21-.67.43-1,.66l20,20C1550,315.94,1550.17,315.62,1550.38,315.27Z" fill="#f2f4f9"/></g><g opacity="0.17"><path d="M1527.93,617.25a13.8,13.8,0,1,1,13.8,13.8A13.81,13.81,0,0,1,1527.93,617.25Zm26.28,0a12.49,12.49,0,1,0-12.48,12.49A12.5,12.5,0,0,0,1554.21,617.25Zm-22.77,0a10.29,10.29,0,1,1,10.29,10.29A10.3,10.3,0,0,1,1531.44,617.25Zm19.27,0a9,9,0,1,0-9,9A9,9,0,0,0,1550.71,617.25Z" fill="#f2f4f9"/><path d="M1566.92,702.8l-24.46,24.45c.67.14,1.34.25,2,.33l22.77-22.77C1567.17,704.14,1567.06,703.46,1566.92,702.8Z" fill="#f2f4f9"/><path d="M1565.51,698.57l-27.27,27.27c.54.25,1.1.48,1.67.68l26.28-26.28C1566,699.68,1565.76,699.12,1565.51,698.57Z" fill="#f2f4f9"/><path d="M1561.37,692.63l-.6-.58-29,29.05c.22.23.4.43.58.6s.36.36.59.57l29-29Z" fill="#f2f4f9"/><path d="M1561.37,721.7a20.43,20.43,0,0,0,4.37-6.47l-10.84,10.84A20.54,20.54,0,0,0,1561.37,721.7Z" fill="#f2f4f9"/><path d="M1550.26,727.43l16.84-16.84a22.86,22.86,0,0,0,.27-2.61l-19.73,19.72A22.8,22.8,0,0,0,1550.26,727.43Z" fill="#f2f4f9"/><path d="M1553.76,687.8l-26.29,26.29c.2.56.43,1.12.68,1.67l27.27-27.28C1554.88,688.23,1554.32,688,1553.76,687.8Z" fill="#f2f4f9"/><path d="M1543.37,686.83,1526.5,703.7a21,21,0,0,0-.28,2.83l20-20A22.26,22.26,0,0,0,1543.37,686.83Z" fill="#f2f4f9"/><path d="M1532.3,692.63a20.25,20.25,0,0,0-4.38,6.46l10.84-10.84A20.25,20.25,0,0,0,1532.3,692.63Z" fill="#f2f4f9"/><path d="M1557.56,689.63l-28.26,28.26c.3.49.61,1,.94,1.41L1559,690.57C1558.52,690.25,1558.05,689.93,1557.56,689.63Z" fill="#f2f4f9"/><path d="M1549.19,686.75l-22.78,22.77a19.61,19.61,0,0,0,.34,2l24.45-24.45A17.53,17.53,0,0,0,1549.19,686.75Z" fill="#f2f4f9"/><path d="M1563.43,695l-28.73,28.73c.44.32.91.64,1.4.94l28.27-28.27C1564.07,695.94,1563.75,695.47,1563.43,695Z" fill="#f2f4f9"/><path d="M1558.37,550.09l-15.84-15.84a13.18,13.18,0,0,0-1.4.23l17,17A13.18,13.18,0,0,0,1558.37,550.09Z" fill="#f2f4f9"/><path d="M1554.28,538.34a14.25,14.25,0,0,0-4.5-3l7.54,7.54A14.31,14.31,0,0,0,1554.28,538.34Z" fill="#f2f4f9"/><path d="M1534.05,558.56a14.28,14.28,0,0,0,4.5,3.05l-7.54-7.55A14.2,14.2,0,0,0,1534.05,558.56Z" fill="#f2f4f9"/><path d="M1552.61,560l-20-20c-.22.31-.44.64-.65,1l19.66,19.66C1552,560.44,1552.3,560.22,1552.61,560Z" fill="#f2f4f9"/><path d="M1547.2,562.42l-17-17c-.1.47-.17.94-.23,1.4l15.84,15.84A13.18,13.18,0,0,0,1547.2,562.42Z" fill="#f2f4f9"/><path d="M1556.36,555.92l-19.66-19.67c-.34.21-.67.43-1,.66l20,20C1555.93,556.59,1556.15,556.26,1556.36,555.92Z" fill="#f2f4f9"/></g><g opacity="0.17"><path d="M1539.9,861.17a13.8,13.8,0,1,1,13.79,13.8A13.81,13.81,0,0,1,1539.9,861.17Zm26.28,0a12.49,12.49,0,1,0-12.49,12.49A12.5,12.5,0,0,0,1566.18,861.17Zm-22.77,0a10.29,10.29,0,1,1,10.28,10.29A10.3,10.3,0,0,1,1543.41,861.17Zm19.26,0a9,9,0,1,0-9,9A9,9,0,0,0,1562.67,861.17Z" fill="#f2f4f9"/><path d="M1570.34,794l-15.84-15.84a13.18,13.18,0,0,0-1.4.23l17,17C1570.2,795,1570.28,794.48,1570.34,794Z" fill="#f2f4f9"/><path d="M1566.24,782.26a14.27,14.27,0,0,0-4.49-3l7.54,7.54A14.28,14.28,0,0,0,1566.24,782.26Z" fill="#f2f4f9"/><path d="M1546,802.49a14.31,14.31,0,0,0,4.5,3L1543,798A14.25,14.25,0,0,0,1546,802.49Z" fill="#f2f4f9"/><path d="M1564.57,803.92l-20-20a11.09,11.09,0,0,0-.65,1l19.66,19.66C1563.94,804.36,1564.27,804.14,1564.57,803.92Z" fill="#f2f4f9"/><path d="M1559.17,806.35l-17-17a13.18,13.18,0,0,0-.23,1.4l15.84,15.84C1558.24,806.52,1558.71,806.45,1559.17,806.35Z" fill="#f2f4f9"/><path d="M1568.33,799.84l-19.66-19.66c-.34.21-.67.43-1,.65l20,20C1567.9,800.51,1568.12,800.18,1568.33,799.84Z" fill="#f2f4f9"/></g></g></g></g></svg>