<?xml version="1.0" encoding="utf-8"?>
<!-- Generator: Adobe Illustrator 26.0.0, SVG Export Plug-In . SVG Version: 6.00 Build 0)  -->
<svg version="1.1" id="Layer_1" xmlns="http://www.w3.org/2000/svg" xmlns:xlink="http://www.w3.org/1999/xlink" x="0px" y="0px"
	 viewBox="0 0 140 140.82" style="enable-background:new 0 0 140 140.82;" xml:space="preserve">
<style type="text/css">
	.st0{fill:#FFFFFF;}
	.st1{fill:#2381C4;}
	.st2{fill:#0E4168;}
	.st3{fill:#07518D;}
	.st4{fill:#D7D7D7;}
</style>
<g>
	<g>
		<circle class="st0" cx="70" cy="70.41" r="65.74"/>
		<circle class="st1" cx="70" cy="70.41" r="58.9"/>
		<circle class="st2" cx="67.97" cy="72.45" r="56.86"/>
		<circle class="st3" cx="69.16" cy="71.25" r="55.67"/>
	</g>
	<g>
		<path class="st4" d="M107.65,72.39c-0.19,1.38-0.33,2.78-0.58,4.15c-1.93,10.44-7.32,18.66-16.12,24.56
			c-7.43,4.98-15.71,7.05-24.56,5.9c-14.36-1.86-24.47-9.63-30.25-22.89c-2.6-5.98-3.28-12.29-2.46-18.75
			c0.61-4.77,2.11-9.26,4.48-13.45c1.46-2.58,4.44-3.48,7.06-2.15c2.46,1.25,3.5,4.28,2.2,6.9c-1.32,2.65-2.52,5.32-3.06,8.25
			c-1.39,7.55,0.07,14.5,4.52,20.77c3.4,4.78,7.96,8.05,13.52,9.86c4.14,1.35,8.4,1.7,12.67,0.85c10.44-2.08,17.53-8.2,20.85-18.29
			c2.61-7.93,1.36-15.55-3.16-22.6c-0.04-0.06-0.09-0.11-0.19-0.22c-0.54,1.2-1.06,2.36-1.58,3.52c-1.05,2.34-2.6,2.69-4.52,0.97
			c-0.45-0.4-0.84-0.87-1.19-1.36c-3.69-5.06-7.37-10.12-11.04-15.19c-0.31-0.43-0.61-0.88-0.81-1.37
			c-0.82-2.01,0.07-3.76,2.21-4.13c1.97-0.34,3.97-0.51,5.97-0.73c4.4-0.47,8.79-0.95,13.19-1.37c0.95-0.09,1.95-0.13,2.88,0.04
			c1.78,0.33,2.6,1.78,1.98,3.48c-0.59,1.61-1.32,3.16-2.03,4.72c-0.2,0.44-0.21,0.74,0.15,1.13c5.23,5.7,8.38,12.39,9.5,20.04
			c0.14,0.95,0.24,1.91,0.36,2.86C107.65,69.39,107.65,70.89,107.65,72.39z"/>
		<g>
			<path class="st0" d="M106.64,70.37c-0.19,1.38-0.33,2.78-0.58,4.15c-1.93,10.44-7.32,18.66-16.12,24.56
				c-7.43,4.98-15.71,7.05-24.56,5.9c-14.36-1.86-24.47-9.63-30.25-22.89c-2.6-5.98-3.28-12.29-2.46-18.75
				c0.61-4.77,2.11-9.26,4.48-13.45c1.46-2.58,4.44-3.48,7.06-2.15c2.46,1.25,3.5,4.28,2.2,6.9c-1.32,2.65-2.52,5.32-3.06,8.25
				c-1.39,7.55,0.07,14.5,4.52,20.77c3.4,4.78,7.96,8.05,13.52,9.86c4.14,1.35,8.4,1.7,12.67,0.85c10.44-2.08,17.53-8.2,20.85-18.29
				c2.61-7.93,1.36-15.55-3.16-22.6c-0.04-0.06-0.09-0.11-0.19-0.22c-0.54,1.2-1.06,2.36-1.58,3.52c-1.05,2.34-2.6,2.69-4.52,0.97
				c-0.45-0.4-0.84-0.87-1.19-1.36c-3.69-5.06-7.37-10.12-11.04-15.19c-0.31-0.43-0.61-0.88-0.81-1.37
				c-0.82-2.01,0.07-3.76,2.21-4.13c1.97-0.34,3.97-0.51,5.97-0.73C85,34.5,89.4,34.03,93.8,33.6c0.95-0.09,1.95-0.13,2.88,0.04
				c1.78,0.33,2.6,1.78,1.98,3.48c-0.59,1.61-1.32,3.16-2.03,4.72c-0.2,0.44-0.21,0.74,0.15,1.13c5.23,5.7,8.38,12.39,9.5,20.04
				c0.14,0.95,0.24,1.91,0.36,2.86C106.64,67.37,106.64,68.87,106.64,70.37z"/>
		</g>
	</g>
</g>
</svg>
