<svg id="Layer_1" data-name="Layer 1" xmlns="http://www.w3.org/2000/svg" viewBox="0 0 625 435"><path d="M167.77,49.92c2.93,0,5.85-2.33,6-5.37s-2.69-5.13-5.58-5.13-5.85,2.32-6,5.36,2.7,5.14,5.59,5.14" fill="#7ac943"/><path d="M174.36,70.26a4.19,4.19,0,0,0,4.2-3.77,3.68,3.68,0,0,0-3.92-3.61,4.19,4.19,0,0,0-4.2,3.77,3.7,3.7,0,0,0,3.92,3.61" fill="#7ac943"/><path d="M119.61,271.09a5.49,5.49,0,0,0,5.5-4.95c.1-2.87-2.48-4.73-5.15-4.73a5.48,5.48,0,0,0-5.5,4.94c-.1,2.87,2.48,4.74,5.15,4.74" fill="#29abe2"/><polygon points="189.45 180.5 201.6 31.65 152 32.96 145.29 98.98 120.66 54.21 104.79 102.67 77.02 42.09 36.66 47.74 86.38 199.26 126.67 192.62 129.17 129.64 145.79 181.43 189.45 180.5" fill="#6ae01e"/><path d="M90.55,93.85s-8.1-1.11-9.87,11.12c0,0,11.07-2.46,9.87-11.12" fill="#fff6ed"/><path d="M95.54,110.7s-8.12-1.13-9.88,11.11c0,0,11.08-2.46,9.88-11.11" fill="#fff6ed"/><path d="M100.64,127.91s-8.11-1.12-9.88,11.13c0,0,11.08-2.47,9.88-11.13" fill="#fff6ed"/><path d="M105.77,145.32s-8.1-1.12-9.86,11.13c0,0,11.07-2.47,9.86-11.13" fill="#fff6ed"/><path d="M110.15,160.08S102,159,100.28,171.2c0,0,11.07-2.46,9.87-11.12" fill="#fff6ed"/><path d="M62,102.3s6.19-5.35,14.33,4c0,0-10.62,4-14.33-4" fill="#fff6ed"/><path d="M67,119.14s6.18-5.34,14.31,4c0,0-10.62,4-14.31-4" fill="#fff6ed"/><path d="M72.07,136.36s6.19-5.35,14.33,4c0,0-10.63,3.94-14.33-4" fill="#fff6ed"/><path d="M77.22,153.78s6.19-5.37,14.33,4c0,0-10.62,3.95-14.33-4" fill="#fff6ed"/><path d="M81.59,168.53s6.18-5.35,14.32,4c0,0-10.63,4-14.32-4" fill="#fff6ed"/><polygon points="72.84 89.02 100.45 182.36 102 181.9 74.37 88.56 72.84 89.02" fill="#fff6ed"/><path d="M52,70.09c11.16-1.28,7,18.64,19.72,17C77.82,86.37,80.21,81,79,75.3c-1.18-5.44-3.44-8.37,1.41-12.52-4.12,1.3-7.69,1.72-9.19,6.47-.51-1.28-3.3-7.47-5.68-8.37-2.68,2.12-1.21,7.21-1,10.27A10.5,10.5,0,0,0,52,70.09" fill="#2c275b"/><path d="M187.57,84.85s-7.07-4.14-13.35,6.52c0,0,11.17,1.94,13.35-6.52" fill="#fff6ed"/><path d="M185.77,102.31s-7.07-4.12-13.35,6.54c0,0,11.19,1.93,13.35-6.54" fill="#fff6ed"/><path d="M183.93,120.17s-7.06-4.11-13.36,6.54c0,0,11.19,1.93,13.36-6.54" fill="#fff6ed"/><path d="M182.08,138.24s-7.07-4.13-13.36,6.53c0,0,11.17,1.93,13.36-6.53" fill="#fff6ed"/><path d="M180.5,153.54s-7.07-4.12-13.36,6.54c0,0,11.18,1.92,13.36-6.54" fill="#fff6ed"/><path d="M157.94,81.79s7.77-2.59,11.75,9.12c0,0-11.34-.39-11.75-9.12" fill="#fff6ed"/><path d="M156.15,99.26s7.77-2.59,11.74,9.13c0,0-11.33-.39-11.74-9.13" fill="#fff6ed"/><path d="M154.32,117.12s7.76-2.59,11.74,9.13c0,0-11.34-.39-11.74-9.13" fill="#fff6ed"/><path d="M152.46,135.19s7.77-2.6,11.73,9.12c0,0-11.33-.4-11.73-9.12" fill="#fff6ed"/><path d="M150.88,150.49s7.75-2.59,11.75,9.12c0,0-11.34-.39-11.75-9.12" fill="#fff6ed"/><polygon points="173.04 73.63 163.07 170.46 164.66 170.62 174.64 73.79 173.04 73.63" fill="#fff6ed"/><path d="M160.93,48.19c10.8,3.06-.65,19.88,11.75,23.27,6,1.62,10.23-2.44,11.26-8.2,1-5.45,0-9,6.06-11-4.31-.37-7.77-1.33-11,2.47,0-1.35-.22-8.15-2.07-9.88-3.28.94-3.87,6.19-4.86,9.11a10.52,10.52,0,0,0-11.18-5.75" fill="#2c275b"/><path d="M275.7,125.64s1.91-53.17-36.8-50.46-39,96.72,7.64,98.52c24.17.94,28.89-22.16,29-30.45l-16.24.88s.24,10-11.16,10.24c-14.87.3-14.23-27.77-14.23-27.77ZM241.5,91.1c9.69-.39,10.17,19.44,10.17,19.44l-17.28.87c-.29-5.54.2-20,7.11-20.31" fill="#29abe2"/><path d="M219.19,141c-.6,1.25,1.69,4.28,4,2.13s-2.2-5.83-4-2.13" fill="#2c275b"/><path d="M219.32,108.15c-.6,1.25,1.69,4.28,4,2.13s-2.2-5.83-4-2.13" fill="#2c275b"/><path d="M236.44,81.31c-.6,1.24,1.7,4.28,4,2.13s-2.19-5.84-4-2.13" fill="#2c275b"/><path d="M261.39,97.29c-.6,1.25,1.69,4.28,4,2.12s-2.19-5.82-4-2.12" fill="#2c275b"/><path d="M250.85,117.85c-.6,1.24,1.69,4.28,4,2.12s-2.18-5.83-4-2.12" fill="#2c275b"/><path d="M265.32,148.82c-.6,1.25,1.69,4.28,4,2.13s-2.2-5.83-4-2.13" fill="#2c275b"/><path d="M241.8,164.47c-.6,1.25,1.69,4.29,4,2.13s-2.19-5.82-4-2.13" fill="#2c275b"/><path d="M225.1,125.69l-4.47,9.17h1.19l-4.57-9.13v.59l4.46-9.18h-1.19l4.57,9.13Zm-4.57-9.13-4.47,9.17-.13.3.14.3,4.56,9.12.6,1.2.59-1.21,4.47-9.17.14-.29-.14-.3-4.57-9.12-.6-1.21Z" fill="#fff"/><path d="M261.16,114.06l3.29-9.67-1.18.16,5.66,8.49-.08-.59-3.28,9.67,1.18-.16-5.67-8.49Zm5.66,8.48,3.29-9.65.11-.32-.18-.27-5.66-8.48-.75-1.12-.44,1.27-3.28,9.66-.11.31.18.27,5.66,8.49.75,1.12Z" fill="#fff"/><path d="M237.73,114.94l8.41,5.75.18-1.17-9.7,3.18.58.08L228.77,117l-.17,1.17,9.7-3.18Zm-9.7,3.18,8.42,5.76.27.18.31-.1,9.69-3.18,1.29-.42-1.12-.77-8.42-5.75-.27-.18-.31.1-9.7,3.18-1.27.42Z" fill="#fff"/><path d="M254.23,159.6l9.43-3.89-.89-.79-2.65,9.86.39-.45-9.44,3.9.9.78,2.65-9.84Zm-2.65,9.85,9.43-3.89.31-.13.08-.31,2.65-9.85.35-1.31-1.24.53-9.44,3.88-.3.13-.09.31-2.65,9.86-.35,1.3Z" fill="#fff"/><path d="M234,151.33l3,9.74.86-.82-9.58-3.53.4.43-3-9.75-.86.82,9.58,3.53Zm-9.58-3.53,3,9.75.09.31.31.11,9.58,3.52,1.26.46-.4-1.28-3-9.74-.1-.31-.31-.12L225.3,147l-1.26-.46Z" fill="#fff"/><path d="M231.64,94.55l-8.2,6.07,1.06.54.18-10.2-.27.53,8.2-6.08-1.06-.54-.18,10.21Zm.18-10.2-8.2,6.07-.27.19v.33l-.17,10.21,0,1.34,1.08-.8,8.2-6.07.27-.19V95.1l.17-10.2,0-1.35Z" fill="#fff"/><path d="M251.21,90.55l-5.37-8.68-.63,1,10.15,1-.5-.31,5.37,8.68.63-1-10.15-1Zm10.15,1L256,82.9l-.18-.28-.33,0-10.15-1L244,81.43l.71,1.13,5.36,8.69.18.27.32,0,10.15,1,1.34.13Z" fill="#fff"/><path d="M285.74,269.07l28.5-3.34,1.65,20.81a42.22,42.22,0,0,1,35.56-16.76c27.26.94,45.67,38,43.64,111.66H356.47s6.75-77.88-19.76-78.14c-8.11-.07-11.68,5.08-16.24,11.68l6.18,69.15-36.15.45Z" fill="#ef5925"/><path d="M303.81,315.05c1.79-2.87-3.68-6-4.64-2.42a2.59,2.59,0,0,0,1.41,3.19,2.68,2.68,0,0,0,3.23-.77" fill="#fff"/><path d="M375.93,333.38c1.8-2.87-3.67-6-4.63-2.42a2.57,2.57,0,0,0,1.42,3.19,2.66,2.66,0,0,0,3.21-.77" fill="#fff"/><path d="M339.56,291c1.79-2.88-3.68-6-4.64-2.42a2.58,2.58,0,0,0,1.41,3.18,2.68,2.68,0,0,0,3.23-.76" fill="#fff"/><path d="M307.8,372.6c1.8-2.87-3.67-6-4.63-2.42a2.58,2.58,0,0,0,1.42,3.19,2.65,2.65,0,0,0,3.21-.77" fill="#fff"/><path d="M299.82,277.14c.17,2.09.31,4.39.31,6.66l.25-.05c1.14-1.83,2.62-3.21,3.88-5a.34.34,0,0,1,.35.13c-.83,1.83-2.66,3.35-3.53,5a7.28,7.28,0,0,0-.95,1.23c2.56,0,5.47-.27,7.78-.23-.22.79-1.09.66-1.74.74-1.83,0-3.35.27-5.26.18l-.09.09c1.78,2.13,4.48,3.52,5.48,6a.33.33,0,0,1-.3.13c-1.74-2.17-3.83-3.69-5.74-5.66-.18,3.1.35,6.1-.09,9.32a1.63,1.63,0,0,1-.57-1.05c0-3-.17-5.73-.26-8.7l-.57.61c-1.43,1.74-2.26,4.26-4.39,5.35l-.13,0c.09-.7,1-1.05,1.22-1.74l2.83-4.05a6.13,6.13,0,0,0-2.18,0c-1.39-.17-2.83.13-4.22-.26-.13-.13-.39-.26-.26-.47.87-.31,1.79.12,2.88,0,1.38-.09,2.82,0,4.34-.23a67.76,67.76,0,0,1-5.22-5.47c.22-.4.66,0,.88.13a66.19,66.19,0,0,0,4.78,4.69l.09-.17c-.18-2.78-.09-5.83-.27-8.43,1-.44.4.9.7,1.17" fill="#fff"/><path d="M303.79,332.72c.18,2.09.31,4.39.31,6.65l.26,0c1.13-1.83,2.61-3.22,3.87-5,.17-.05.26.05.35.13-.83,1.83-2.65,3.35-3.52,5-.3.43-.78.78-1,1.22,2.56,0,5.48-.26,7.78-.22-.21.79-1.08.66-1.73.75-1.83-.05-3.35.25-5.27.17l-.08.08c1.78,2.13,4.47,3.52,5.48,6.05a.33.33,0,0,1-.3.13c-1.75-2.17-3.84-3.7-5.75-5.65-.17,3.08.35,6.08-.09,9.31a1.66,1.66,0,0,1-.56-1c0-3-.17-5.73-.27-8.7l-.56.61c-1.43,1.74-2.26,4.26-4.39,5.35l-.13,0c.08-.7.95-1.05,1.22-1.74l2.82-4a6.31,6.31,0,0,0-2.17,0c-1.39-.18-2.83.13-4.22-.25-.13-.15-.39-.27-.26-.49.87-.3,1.79.13,2.87,0,1.39-.08,2.83,0,4.35-.22a66,66,0,0,1-5.22-5.47c.22-.38.65,0,.87.13,1.56,1.61,3.05,3.21,4.78,4.69l.09-.17c-.18-2.78-.09-5.83-.26-8.43,1-.43.39.91.69,1.17" fill="#fff"/><path d="M369.7,297.81c.17,2.09.31,4.39.31,6.65l.26,0c1.13-1.82,2.6-3.21,3.87-5a.36.36,0,0,1,.35.13c-.83,1.84-2.66,3.36-3.53,5-.3.45-.78.79-.95,1.23,2.57,0,5.47-.27,7.78-.22-.22.78-1.09.65-1.73.74-1.83,0-3.36.26-5.27.17l-.09.09c1.79,2.13,4.48,3.52,5.48,6a.32.32,0,0,1-.3.13c-1.74-2.17-3.83-3.69-5.74-5.65-.17,3.08.35,6.09-.09,9.31a1.64,1.64,0,0,1-.56-1.05c0-2.95-.17-5.73-.27-8.7l-.56.62c-1.44,1.73-2.26,4.26-4.4,5.34l-.13,0c.1-.7,1-1,1.22-1.74l2.83-4a6.07,6.07,0,0,0-2.17,0c-1.4-.18-2.83.12-4.23-.26-.12-.14-.39-.26-.25-.48.86-.31,1.78.13,2.86,0,1.39-.08,2.83,0,4.35-.22a71.4,71.4,0,0,1-5.22-5.48c.22-.38.66,0,.87.13,1.57,1.61,3.05,3.23,4.79,4.7l.08-.17c-.17-2.79-.08-5.83-.25-8.44,1-.44.39.91.69,1.17" fill="#fff"/><path d="M377.11,351.31c.17,2.09.31,4.4.31,6.66l.26,0c1.13-1.83,2.61-3.22,3.87-5,.18,0,.26.06.35.14-.83,1.83-2.65,3.35-3.52,5-.31.44-.79.78-1,1.22,2.56,0,5.48-.26,7.78-.22-.22.79-1.08.66-1.73.74-1.84,0-3.36.26-5.27.18l-.09.08c1.78,2.13,4.48,3.53,5.48,6a.31.31,0,0,1-.3.13c-1.74-2.18-3.83-3.71-5.74-5.65-.18,3.09.34,6.08-.09,9.31a1.75,1.75,0,0,1-.57-1.05c0-3-.17-5.74-.25-8.7l-.57.61c-1.44,1.74-2.25,4.26-4.39,5.35l-.13,0c.08-.7.95-1.05,1.21-1.74l2.83-4.05a6.07,6.07,0,0,0-2.17,0c-1.39-.17-2.83.13-4.23-.26-.12-.14-.38-.26-.25-.48.86-.31,1.78.14,2.87,0,1.39-.08,2.82,0,4.34-.22a73.23,73.23,0,0,1-5.22-5.47c.22-.39.66-.05.88.13,1.57,1.61,3,3.22,4.78,4.7l.09-.18c-.18-2.78-.09-5.83-.26-8.43.95-.44.39.9.69,1.16" fill="#fff"/><path d="M185.8,286c-25,36-8.87,70.44,9.48,86.79,20.9,18.64,64.63,17.64,72.94-30.08,9.85-56.53-48-106.19-82.42-56.71m45.82,41.37c5.28,1.43,16.8,8.52,13.89,15.1-4.26,9.59-17.72.66-21.77-5.67.5,10.18-8,31.47-17.52,17.14-3.92-5.87-1.4-13.82,8.38-24.3-12.7-1.69-24.3-9.15-19.43-18.06,3.26-6,17.17-.58,22.79,6.37-3.34-6.5-6.23-32.32,7.48-28.62,11.81,3.21.93,28.91.93,28.91,6.25-5.85,19.49-12.42,24.55-4.88,6,9-9.39,15.72-19.3,14" fill="#fbbe00"/><path d="M188.6,292.14c-.63,1.71,2.75,5.42,5.48,2.31s-3.6-7.4-5.48-2.31" fill="#e7412b"/><path d="M198.66,280.66c-.63,1.73,2.76,5.44,5.49,2.33s-3.61-7.41-5.49-2.33" fill="#e7412b"/><path d="M210.07,275.79c-.63,1.72,2.75,5.43,5.48,2.31s-3.6-7.4-5.48-2.31" fill="#e7412b"/><path d="M223.43,275.47c-.64,1.71,2.75,5.42,5.48,2.31s-3.6-7.41-5.48-2.31" fill="#e7412b"/><path d="M236.26,283.06c-.63,1.71,2.76,5.43,5.49,2.32s-3.61-7.41-5.49-2.32" fill="#e7412b"/><path d="M246.56,293.23c-.64,1.71,2.76,5.42,5.48,2.31s-3.6-7.4-5.48-2.31" fill="#e7412b"/><path d="M253.5,305.64c-.64,1.71,2.74,5.43,5.48,2.32s-3.61-7.41-5.48-2.32" fill="#e7412b"/><path d="M257.79,319.46c-.64,1.72,2.75,5.43,5.48,2.3s-3.6-7.39-5.48-2.3" fill="#e7412b"/><path d="M259.09,335.1c-.64,1.71,2.75,5.43,5.48,2.31s-3.6-7.41-5.48-2.31" fill="#e7412b"/><path d="M255.74,346.8c-.65,1.71,2.74,5.42,5.47,2.31s-3.61-7.41-5.47-2.31" fill="#e7412b"/><path d="M249.61,358.33c-.65,1.71,2.75,5.43,5.47,2.31s-3.6-7.41-5.47-2.31" fill="#e7412b"/><path d="M239.89,369.37c-.63,1.72,2.75,5.43,5.49,2.31s-3.61-7.4-5.49-2.31" fill="#e7412b"/><path d="M225.85,375.64c-.64,1.73,2.75,5.44,5.48,2.32s-3.6-7.41-5.48-2.32" fill="#e7412b"/><path d="M181,304.59c-.63,1.71,2.76,5.42,5.48,2.31s-3.6-7.41-5.48-2.31" fill="#e7412b"/><path d="M177.81,318.62c-.64,1.72,2.75,5.43,5.47,2.31s-3.6-7.39-5.47-2.31" fill="#e7412b"/><path d="M177.87,333.58c-.64,1.71,2.75,5.43,5.48,2.31s-3.61-7.4-5.48-2.31" fill="#e7412b"/><path d="M182.56,347.36c-.64,1.72,2.74,5.43,5.48,2.31s-3.61-7.39-5.48-2.31" fill="#e7412b"/><path d="M189,358.25c-.65,1.71,2.74,5.43,5.48,2.31s-3.61-7.4-5.48-2.31" fill="#e7412b"/><path d="M198.94,369.23c-.64,1.71,2.75,5.43,5.48,2.31s-3.6-7.41-5.48-2.31" fill="#e7412b"/><path d="M210.89,375.72c-.63,1.71,2.75,5.43,5.49,2.31s-3.61-7.4-5.49-2.31" fill="#e7412b"/><path d="M495.52,338.36s17-66.63-32.64-73.8S387.19,376,445.53,391.05c30.27,7.8,42.56-20.06,44.94-30.51l-20.76-3.35s-2.42,12.72-16.89,9.89c-18.85-3.7-10.35-39-10.35-39Zm-33.71-53c12.35,2.16,7.5,27.33,7.5,27.33l-22.05-3.64c1.15-7.07,5.75-25.24,14.55-23.69" fill="#ff00c9"/><path d="M420,342.24c-1.1,1.41.95,5.87,4.42,3.78s-1.18-8-4.42-3.78" fill="#fff"/><path d="M429.12,300.82c-1.09,1.41,1,5.87,4.43,3.77s-1.17-8-4.43-3.77" fill="#fff"/><path d="M458.1,271.62c-1.11,1.4,1,5.86,4.42,3.76s-1.17-7.95-4.42-3.76" fill="#fff"/><path d="M485.21,298.63c-1.09,1.41,1,5.87,4.43,3.77s-1.17-7.95-4.43-3.77" fill="#fff"/><path d="M466.28,321.7c-1.1,1.41,1,5.87,4.42,3.77s-1.16-8-4.42-3.77" fill="#fff"/><path d="M476.06,364.78c-1.1,1.41,1,5.86,4.42,3.77s-1.17-8-4.42-3.77" fill="#fff"/><path d="M442.08,378.1c-1.11,1.41,1,5.86,4.42,3.77s-1.18-8-4.42-3.77" fill="#fff"/><path d="M431.61,324.54l-8.16,10.37,1.51.31-3.26-12.77-.16.74,8.16-10.36-1.51-.32,3.26,12.78Zm-3.26-12.77-8.16,10.37-.26.32.1.41,3.27,12.78.43,1.69L424.8,336,433,325.61l.26-.34-.11-.4-3.26-12.78-.43-1.68Z" fill="#fff"/><path d="M480.33,319.74l6.81-11.3-1.53-.13,4.83,12.27.05-.75-6.8,11.29,1.54.13L480.4,319ZM485.17,332l6.8-11.29.21-.36L492,320l-4.82-12.27-.63-1.62-.9,1.49-6.81,11.3-.21.35.15.4,4.83,12.27.64,1.62Z" fill="#fff"/><path d="M450.5,314.43l9.06,9.58.54-1.44L447,323.92l.71.27-9.07-9.58-.53,1.45,13.12-1.37Zm-13.12,1.36,9.06,9.58.3.3.42,0,13.11-1.36,1.72-.18-1.18-1.26-9.07-9.58-.29-.31-.42,0-13.11,1.36-1.73.19Z" fill="#fff"/><path d="M459.1,375.34l13-2.32-.92-1.25-6.05,11.73.61-.46-13,2.33.91,1.24,6-11.71Zm-6,11.72,13-2.33.41-.06.19-.39,6.06-11.7.79-1.55-1.71.3-13,2.33-.41.07-.2.38-6.05,11.72-.79,1.54Z" fill="#fff"/><path d="M435.86,359.36,437,372.5l1.31-.81-11.13-7.07.39.65-1.16-13.13-1.31.8L436.25,360Zm-11.13-7.07,1.16,13.13,0,.43.36.23,11.13,7.06,1.47.94-.16-1.74-1.16-13.13,0-.42-.36-.23L426,351.49l-1.47-.94Z" fill="#fff"/><path d="M448.41,287l-12,5.41,1.2,1,3-12.83-.49.58,12-5.41-1.19-1-3,12.84Zm3-12.83-12,5.41-.39.18-.09.41-3,12.83-.4,1.69,1.58-.71,12-5.42.38-.17.1-.41,3-12.83.4-1.7Z" fill="#fff"/><path d="M474.21,287.33l-4.4-12.44L468.74,276l12.54,4.08-.54-.53L485.13,292l1.08-1.1-12.55-4.08Zm12.53,4.07L482.35,279l-.14-.4-.41-.14-12.53-4.07-1.65-.54.57,1.64,4.4,12.44.14.39.4.13,12.54,4.08,1.65.54Z" fill="#fff"/><polygon points="404.55 183.05 484.95 174.63 482.42 133.98 441.04 138.15 432.19 12.37 381.96 18.27 404.55 183.05" fill="#ffb000"/><path d="M405.86,97.3s6.84-.16,6.65-10.48c0,0-8.79,3.51-6.65,10.48" fill="#e63d11"/><path d="M402.2,30.52c2.44,1.62,5.39,4.19,5.62,7.2.14,2-1,3.33-2.4,4.89a15.68,15.68,0,0,0-2.28,3.11c-1.08,2.11-1.31,3.92-.72,5.53,1.09,2.92,4.72,4.38,8.22,5.79a22.48,22.48,0,0,1,5.2,2.56c6.3,4.82,2.44,12.82-.36,18.66l-.22.44c-3,6.24-1.45,13.57,4.25,20.13s8.49,11.77,6.88,20.07a24.77,24.77,0,0,1-3.17,7.52c-1.88,3.34-3.83,6.78-3.16,11.88.53,4,2.47,7.2,4.34,10.27,1.68,2.75,3.27,5.35,3.93,8.51a15.23,15.23,0,0,1-1.5,10.24l1.23.67a16.65,16.65,0,0,0,1.63-11.19c-.7-3.41-2.43-6.23-4.1-9-1.88-3.08-3.65-6-4.15-9.72-.61-4.64,1.14-7.73,3-11a25.63,25.63,0,0,0,3.33-7.94c1.71-8.86-1.34-14.5-7.2-21.25-2.51-2.9-7.94-10.51-4-18.61l.21-.44c2.85-5.91,7.16-14.86,0-20.38a24.57,24.57,0,0,0-5.53-2.75c-3.23-1.29-6.56-2.63-7.44-5a5.45,5.45,0,0,1,.66-4.4,13.71,13.71,0,0,1,2.09-2.83c1.44-1.65,2.92-3.35,2.73-5.91C409,34.75,406.9,32,403,29.35Z" fill="#e63d11"/><path d="M414.37,163.38s7.4,2.9,11.85-8.26c0,0-11-.2-11.85,8.26" fill="#e63d11"/><path d="M428.19,166s-7.95-.13-8.21,11.89c0,0,10.39-3.69,8.21-11.89" fill="#e63d11"/><path d="M407.15,142.63s7.39,2.91,11.84-8.26c0,0-11-.18-11.84,8.26" fill="#e63d11"/><path d="M404.62,38.92s-4.59-3.71-10.24,3.2c0,0,7.76,2.61,10.24-3.2" fill="#e63d11"/><path d="M427.52,146.78s2.31,7.6,13.82,4.16c0,0-6.68-8.76-13.82-4.16" fill="#e63d11"/><path d="M416.53,86.56s2.31,7.61,13.83,4.17c0,0-6.69-8.76-13.83-4.17" fill="#e63d11"/><path d="M387.36,21.63s-1.43,14.89,18.46,11.09c0,0-4.5-18.09-18.46-11.09" fill="#e63d11"/><path d="M405.54,73.81s7.75-1.75,5.17-13.49c0,0-9.23,6-5.17,13.49" fill="#e63d11"/><path d="M407.31,29.46s2.87,7.41,14.1,3.14c0,0-7.32-8.24-14.1-3.14" fill="#e63d11"/><path d="M432.71,73.84s.75-7.91-11.21-9.1c0,0,2.87,10.64,11.21,9.1" fill="#e63d11"/><path d="M413.23,115.39s7.94.38,8.57-11.62c0,0-10.5,3.35-8.57,11.62" fill="#e63d11"/><path d="M435.54,139.37s.63-7.92-11.34-8.94c0,0,3,10.6,11.34,8.94" fill="#e63d11"/><path d="M408.23,47.9s2.31,7.61,13.82,4.17c0,0-6.68-8.76-13.82-4.17" fill="#e63d11"/><path d="M412.62,170.36a1.94,1.94,0,1,0-3,2.48c1.54,1.88,4.13.55,3.28-1.85a2.66,2.66,0,0,0-.32-.63" fill="#e63d11"/><path d="M473.22,165.83a1.93,1.93,0,1,0-3,2.48c1.54,1.87,4.13.54,3.28-1.85a2.35,2.35,0,0,0-.33-.63" fill="#e63d11"/><path d="M413.18,125.86a1.93,1.93,0,1,0-2.95,2.48c1.54,1.88,4.12.54,3.28-1.85a2.67,2.67,0,0,0-.33-.63" fill="#e63d11"/><path d="M431.59,99a1.93,1.93,0,1,0-2.95,2.48c1.54,1.87,4.12.54,3.28-1.86a2.42,2.42,0,0,0-.33-.62" fill="#e63d11"/><path d="M437.25,169.24a1.93,1.93,0,1,0-2.94,2.48c1.54,1.87,4.12.54,3.27-1.85a1.88,1.88,0,0,0-.33-.63" fill="#e63d11"/><path d="M404.41,82.08a1.93,1.93,0,1,0-3,2.48c1.54,1.87,4.12.54,3.28-1.86a2.42,2.42,0,0,0-.33-.62" fill="#e63d11"/><path d="M426.39,56.47A1.93,1.93,0,1,0,423.44,59c1.54,1.87,4.12.54,3.28-1.85a2.67,2.67,0,0,0-.33-.63" fill="#e63d11"/><path d="M402.16,57.73a1.93,1.93,0,1,0-3,2.48c1.54,1.87,4.12.54,3.28-1.85a2.08,2.08,0,0,0-.33-.63" fill="#e63d11"/><path d="M421.14,21.52A1.93,1.93,0,1,0,418.19,24c1.54,1.88,4.12.54,3.27-1.85a2.33,2.33,0,0,0-.32-.63" fill="#e63d11"/><path d="M459,151.66a1.94,1.94,0,1,0-3,2.48c1.54,1.87,4.13.54,3.29-1.84a2.56,2.56,0,0,0-.33-.64" fill="#e63d11"/><path d="M406.09,105.72a1.93,1.93,0,1,0-2.95,2.48c1.54,1.87,4.13.54,3.28-1.85a2.21,2.21,0,0,0-.33-.63" fill="#e63d11"/><path d="M422.87,39.55a1.94,1.94,0,1,0-3,2.48c1.54,1.87,4.13.54,3.28-1.85a2.19,2.19,0,0,0-.32-.63" fill="#e63d11"/><path d="M438.7,157.07a1.93,1.93,0,1,0-2.95,2.48c1.54,1.88,4.13.54,3.28-1.85a2.35,2.35,0,0,0-.33-.63" fill="#e63d11"/><path d="M412.7,151.34a1.93,1.93,0,1,0-2.95,2.48c1.54,1.88,4.12.54,3.28-1.85a2.35,2.35,0,0,0-.33-.63" fill="#e63d11"/><path d="M470.41,151.46c1.24,4.14,3.51,6.32,5.65,5.39,4-1.76-2.15-6.18-3.79-7.06,1.5.77,6.92,1.32,6.89-2.08,0-2.88-6-1.5-7.7-.44,1.07-2.24-.11-8.15-2.53-6.28-1.62,1.24-1.7,4.89-.37,6.85-2.16-1.45-5.6-1.23-5.87.28-.36,2.08,2.91,2.78,5.39,2.07-3,2-4.82,5.58-1.62,6.22,2.73.43,4-4.95,4-4.95" fill="#e63d11"/><path d="M452.12,165.06c1.29-.07,7.71-.09,7.23,2.86-.42,2.54-7.51.82-8.59-1.32.58,2.9-1.46,8-3.43,4.64-1-1.72,1-4.66,1.73-5.79-2.29,1.13-8.3,2.06-8.22-.92.06-2.45,6.33-2.13,7.92-2.05-2.24-1.67-4.16-8.11-1.58-9.56,4.45-2.52,5.62,7.14,4.55,9.89.54-.68,5.78-7,6.52-3.05.47,2.55-6.13,5.3-6.13,5.3" fill="#e63d11"/><polygon points="294.09 184.39 366.28 188.51 369.89 152.26 332.75 150 343.02 37.68 297.83 35.67 294.09 184.39" fill="#d8e52c"/><path d="M307.57,108.88s6.06.84,7.38-8.3c0,0-8.27,1.83-7.38,8.3" fill="#fdebdb"/><path d="M313.94,49.39c1.92,1.78,4.16,4.47,3.92,7.17-.15,1.76-1.38,2.79-2.81,4a13.66,13.66,0,0,0-2.46,2.41,6,6,0,0,0-1.43,4.78c.54,2.74,3.53,4.55,6.42,6.3a20.25,20.25,0,0,1,4.22,3c4.86,5.17.32,11.67-3,16.43l-.25.36c-3.55,5.07-3.24,11.77.85,18.38s5.81,11.6,3.18,18.7a21.7,21.7,0,0,1-3.87,6.19c-2.15,2.67-4.36,5.43-4.5,10-.11,3.63,1.15,6.71,2.36,9.69a24,24,0,0,1,2.24,8.08A13.56,13.56,0,0,1,316,173.7l1,.77a14.89,14.89,0,0,0,3.05-9.64,25.14,25.14,0,0,0-2.33-8.5c-1.22-3-2.37-5.81-2.27-9.18.13-4.19,2.12-6.67,4.22-9.29a23,23,0,0,0,4.08-6.53c2.79-7.58.9-13-3.3-19.8-1.8-2.92-5.5-10.41-.89-17l.25-.36c3.37-4.81,8.45-12.08,2.89-18A21.19,21.19,0,0,0,318.23,73c-2.66-1.61-5.41-3.27-5.85-5.48a4.89,4.89,0,0,1,1.21-3.79,13,13,0,0,1,2.25-2.19c1.51-1.25,3.07-2.54,3.27-4.83.23-2.56-1.23-5.32-4.32-8.19Z" fill="#fdebdb"/><path d="M305.58,168.43s6.12,3.63,11.65-5.59c0,0-9.69-1.75-11.65,5.59" fill="#fdebdb"/><path d="M317.41,172.71s-7-1.25-9,9.32c0,0,9.7-1.76,9-9.32" fill="#fdebdb"/><path d="M302.19,149.08s6.11,3.63,11.64-5.59c0,0-9.69-1.75-11.64,5.59" fill="#fdebdb"/><path d="M314.87,57.15s-3.52-3.93-9.5,1.36c0,0,6.48,3.41,9.5-1.36" fill="#fdebdb"/><path d="M319.58,155.67s.95,7,11.61,5.66c0,0-4.65-8.69-11.61-5.66" fill="#fdebdb"/><path d="M318.53,100.93s1,7,11.61,5.66c0,0-4.64-8.69-11.61-5.66" fill="#fdebdb"/><path d="M302.12,39.41s-3.41,12.93,14.7,12.44c0,0-1.37-16.62-14.7-12.44" fill="#fdebdb"/><path d="M310.66,88.09s7.1-.44,6.51-11.17c0,0-9,4-6.51,11.17" fill="#fdebdb"/><path d="M318.6,49.19s1.47,7,12,4.79c0,0-5.27-8.32-12-4.79" fill="#fdebdb"/><path d="M334.65,92s1.79-6.88-8.59-9.64c0,0,1,9.8,8.59,9.64" fill="#fdebdb"/><path d="M311.48,125.91s6.95,1.47,9.23-9c0,0-9.74,1.45-9.23,9" fill="#fdebdb"/><path d="M327.72,150.28s1.7-6.9-8.72-9.52c0,0,1.13,9.79,8.72,9.52" fill="#fdebdb"/><path d="M316.76,65.6s.95,7.05,11.61,5.67c0,0-4.64-8.69-11.61-5.67" fill="#fdebdb"/><path d="M303,174.35a1.73,1.73,0,1,0-3,1.76c1.09,1.88,3.56,1.07,3.16-1.16a2.12,2.12,0,0,0-.2-.6" fill="#2c275b"/><path d="M357.19,179.06a1.73,1.73,0,1,0-3,1.76c1.09,1.87,3.56,1.07,3.16-1.16a2,2,0,0,0-.2-.6" fill="#fdebdb"/><path d="M309.93,135.14a1.73,1.73,0,1,0-3,1.77c1.09,1.87,3.57,1.07,3.17-1.17a2.64,2.64,0,0,0-.2-.6" fill="#2c275b"/><path d="M330,114.06a1.73,1.73,0,1,0-3,1.77c1.09,1.87,3.56,1.07,3.16-1.17a1.93,1.93,0,0,0-.2-.6" fill="#2c275b"/><path d="M325,176.89a1.74,1.74,0,1,0-3,1.78,1.69,1.69,0,0,0,3.17-1.17,2.57,2.57,0,0,0-.2-.61" fill="#2c275b"/><path d="M308.48,95.22a1.73,1.73,0,1,0-3,1.77,1.68,1.68,0,0,0,3.16-1.16,2.57,2.57,0,0,0-.2-.61" fill="#2c275b"/><path d="M331.56,75.78a1.73,1.73,0,1,0-3,1.77,1.69,1.69,0,0,0,3.16-1.17,2,2,0,0,0-.2-.6" fill="#2c275b"/><path d="M310,73.4a1.73,1.73,0,1,0-3,1.77c1.09,1.88,3.56,1.07,3.17-1.16a2.19,2.19,0,0,0-.21-.61" fill="#2c275b"/><path d="M332,44.16a1.73,1.73,0,1,0-3,1.77c1.09,1.88,3.56,1.07,3.16-1.16a2.3,2.3,0,0,0-.2-.61" fill="#2c275b"/><path d="M346.68,164.51a1.73,1.73,0,1,0-3,1.76c1.09,1.87,3.57,1.07,3.16-1.16a1.76,1.76,0,0,0-.19-.6" fill="#fdebdb"/><path d="M306.56,116.34a1.73,1.73,0,1,0-3,1.77c1.09,1.87,3.57,1.06,3.16-1.17a1.84,1.84,0,0,0-.2-.6" fill="#fdebdb"/><path d="M330.88,60.33a1.73,1.73,0,1,0-3,1.77c1.09,1.87,3.57,1.06,3.16-1.17a1.93,1.93,0,0,0-.2-.6" fill="#fdebdb"/><path d="M328,166.36a1.73,1.73,0,1,0-3,1.77c1.09,1.87,3.57,1.06,3.16-1.16a2.18,2.18,0,0,0-.19-.61" fill="#fdebdb"/><path d="M305.84,157.57a1.73,1.73,0,1,0-3,1.77,1.69,1.69,0,0,0,3.16-1.17,2,2,0,0,0-.2-.6" fill="#fdebdb"/><path d="M356.77,166c.5,3.83,2.2,6.08,4.21,5.57,3.78-1-1-5.77-2.33-6.78,1.22.9,5.92,2.16,6.39-.85.38-2.54-5.09-2.18-6.74-1.5,1.27-1.82,1.08-7.2-1.33-5.9-1.6.86-2.21,4.07-1.31,6-1.7-1.6-4.77-1.9-5.22-.61-.62,1.79,2.16,2.88,4.46,2.61-3,1.3-5.07,4.24-2.33,5.26,2.35.77,4.2-3.8,4.2-3.8" fill="#2c275b"/><path d="M338.67,175.35c1.15.12,6.82,1,6,3.56-.73,2.18-6.75-.36-7.39-2.4.1,2.64-2.43,6.81-3.7,3.6-.66-1.66,1.55-4,2.36-4.86-2.19.67-7.62.63-7.12-2,.4-2.16,5.89-1,7.29-.67-1.75-1.81-2.51-7.76,0-8.68,4.29-1.58,3.94,7.11,2.6,9.39.58-.52,6.11-5.37,6.19-1.75.05,2.32-6.17,3.8-6.17,3.8" fill="#2c275b"/><path d="M556.73,207.69l-1.66.35-.15,1.69c-.1,1.08-9.83,107.89-10.36,131.83l0,1.89,30,6.76L575,348c2.81-12.69,27.38-124.15,26.91-131.4l-.09-1.34-1.21-.58c-1-.46-23.55-11.2-43.87-6.94" fill="#14dee2"/><path d="M554.52,358.1c-8.94,1.54-16.71,8.28-18.88,16.41a31.7,31.7,0,0,0-.79,3.77c-1.56,10.61,2.86,19.14,12.5,23.72,11.18,5.32,21.73,2.53,27.52-7.28,4.14-7,5.35-16.07,3-22.59-3-8.36-12.54-15.89-23.37-14" fill="#14dee2"/><path d="M558.93,365.34c-.3,2-.3,4.54-.8,6.06.41,2.21-.72,4.85-.49,7l8.8-8c.36,0,.79-.35,1.08.16l-.08.55c-2.9,3.32-6.77,5.65-9.5,9.08,3.77.84,8.38.39,12.44.62.33-.32,1-.6,1.32-.09-1.76,1.8-4.68,1.46-7.28,1.45-2.08.25-4.23-.9-6.28-.27,1.25,2.9,4.35,4.57,5.18,7.69-.68.27-1.06-.34-1.77-.54-1.59-1.83-2.84-4.07-4.54-5.72-1,4.07.57,9.34-2.18,12.86-.69-.38-.37-1.27-.28-1.91,0-3.56.67-7.67.73-11.21-2.27,1.53-3.64,4.52-6.53,5.86-.16-.21-.46-.06-.51-.35,1.17-2.26,3.49-4.16,5.38-6.22l.52-.4c-1.3-1.22-3.86-.93-5.65-1.39l-6.21-.73c-.34-.14-.64-.65-.32-1,4.24.25,8.61.24,12.72,1.32a45,45,0,0,1-5.5-8.67,1,1,0,0,1,1.23-.1c1.92,2.71,3.14,5.14,5.38,7.53l.34-1c.37-4.44,1.11-9.47,1.67-13.88.77-.17,1.12.63,1.13,1.19" fill="#2c275b"/><path d="M588.48,253.66s-7-4.48-13.81,6c0,0,11.23,2.45,13.81-6" fill="#fff"/><path d="M585.89,271.27s-7-4.49-13.82,6c0,0,11.23,2.45,13.82-6" fill="#fff"/><path d="M583.23,289.28s-7-4.49-13.82,6c0,0,11.24,2.45,13.82-6" fill="#fff"/><path d="M580.55,307.48s-7-4.49-13.82,6c0,0,11.23,2.45,13.82-6" fill="#fff"/><path d="M578.27,322.91s-7-4.49-13.82,6c0,0,11.23,2.45,13.82-6" fill="#fff"/><path d="M558.62,249.26s8-2.29,11.49,9.75c0,0-11.47-.89-11.49-9.75" fill="#fff"/><path d="M556,266.86s8-2.28,11.49,9.76c0,0-11.46-.89-11.49-9.76" fill="#fff"/><path d="M553.36,284.87s8-2.28,11.49,9.76c0,0-11.46-.9-11.49-9.76" fill="#fff"/><path d="M550.68,303.07s8-2.28,11.49,9.76c0,0-11.47-.89-11.49-9.76" fill="#fff"/><path d="M548.4,318.51s8-2.29,11.49,9.76c0,0-11.46-.9-11.49-9.76" fill="#fff"/><rect x="518.54" y="289.77" width="98.66" height="1.62" transform="translate(197.52 809.96) rotate(-81.61)" fill="#fff"/><path d="M563.15,215.36c10.79,3.58-1.56,20.1,10.86,24.09,6,1.91,10.46-2,11.75-7.79,1.23-5.49.4-9.14,6.63-10.9-4.34-.56-7.8-1.69-11.21,2,.08-1.38.15-8.27-1.65-10.11-3.36.81-4.19,6.11-5.33,9a10.65,10.65,0,0,0-11.05-6.32" fill="#d40075"/><path d="M156.49,321.39c-6.09-64.57-52.49-84.07-88-83-12.84.39-45.41,5.4-45.41,5.4L45,422.63s32.06-2.22,45.16-5.24c32.26-7.42,72.45-30.72,66.3-96M81.34,373.52,71,285.87c10.45-1.69,39.55-.35,44.77,32.34,8.36,52.27-34.42,55.31-34.42,55.31" fill="#ff9cc2"/><polygon points="45.18 289.41 49.47 274.21 56.98 288.1 52.69 303.3 45.18 289.41" fill="#fff"/><polygon points="76.02 256.17 88.72 265.55 73.08 267.67 60.38 258.29 76.02 256.17" fill="#fff"/><polygon points="127.45 283.56 133.15 298.29 118.8 291.7 113.11 276.97 127.45 283.56" fill="#fff"/><polygon points="140.75 342.06 132.95 356.08 128.78 340.59 136.58 326.58 140.75 342.06" fill="#fff"/><polygon points="108.81 390.48 93.91 395.71 100.95 381.57 115.84 376.34 108.81 390.48" fill="#fff"/><polygon points="46.81 253.58 48.77 267.72 49.57 267.61 47.61 253.47 46.81 253.58" fill="#260000"/><polygon points="54.45 259.39 41.84 261.15 41.95 261.96 54.56 260.19 54.45 259.39" fill="#260000"/><polygon points="53.63 264.04 43.25 256.66 42.77 257.31 53.15 264.69 53.63 264.04" fill="#260000"/><polygon points="51.26 255.08 44.46 265.85 45.15 266.27 51.94 255.51 51.26 255.08" fill="#260000"/><polygon points="100.45 262 102.41 276.14 103.21 276.03 101.25 261.9 100.45 262" fill="#260000"/><polygon points="108.1 267.82 95.48 269.58 95.59 270.39 108.2 268.62 108.1 267.82" fill="#260000"/><polygon points="107.27 272.46 96.89 265.08 96.42 265.74 106.8 273.12 107.27 272.46" fill="#260000"/><polygon points="104.9 263.51 98.11 274.28 98.79 274.7 105.58 263.94 104.9 263.51" fill="#260000"/><rect x="135.4" y="305.13" width="0.91" height="16.06" transform="matrix(0.99, -0.14, 0.14, 0.99, -41.71, 21.62)" fill="#260000"/><polygon points="142.91 311.81 128.71 313.79 128.83 314.7 143.03 312.7 142.91 311.81" fill="#260000"/><polygon points="141.98 317.03 130.29 308.73 129.76 309.47 141.44 317.78 141.98 317.03" fill="#260000"/><polygon points="139.31 306.95 131.66 319.07 132.43 319.56 140.08 307.43 139.31 306.95" fill="#260000"/><polygon points="124.26 360.25 126.22 374.39 127.02 374.27 125.06 360.14 124.26 360.25" fill="#260000"/><polygon points="131.91 366.06 119.29 367.82 119.4 368.63 132.01 366.86 131.91 366.06" fill="#260000"/><polygon points="131.08 370.71 120.7 363.33 120.23 363.98 130.6 371.37 131.08 370.71" fill="#260000"/><polygon points="128.71 361.75 121.91 372.52 122.6 372.94 129.39 362.18 128.71 361.75" fill="#260000"/><polygon points="81.18 389.34 83.14 403.48 83.94 403.37 81.98 389.24 81.18 389.34" fill="#260000"/><polygon points="88.83 395.15 76.21 396.92 76.33 397.73 88.94 395.95 88.83 395.15" fill="#260000"/><polygon points="88 399.8 77.63 392.42 77.15 393.08 87.53 400.46 88 399.8" fill="#260000"/><polygon points="85.63 390.84 78.84 401.61 79.52 402.04 86.31 391.27 85.63 390.84" fill="#260000"/><polygon points="50.01 343.51 54.31 328.31 61.82 342.2 57.52 357.4 50.01 343.51" fill="#fff"/><polygon points="51.64 307.68 53.6 321.82 54.4 321.7 52.45 307.57 51.64 307.68" fill="#260000"/><polygon points="59.29 313.49 46.68 315.25 46.79 316.06 59.4 314.29 59.29 313.49" fill="#260000"/><polygon points="58.47 318.14 48.09 310.76 47.61 311.41 57.99 318.79 58.47 318.14" fill="#260000"/><polygon points="56.09 309.18 49.3 319.95 49.98 320.37 56.78 309.61 56.09 309.18" fill="#260000"/><polygon points="57.23 397.02 61.52 381.83 69.03 395.71 64.74 410.91 57.23 397.02" fill="#fff"/><polygon points="56.43 361.22 58.39 375.36 59.19 375.25 57.23 361.12 56.43 361.22" fill="#260000"/><polygon points="64.08 367.03 51.46 368.8 51.57 369.61 64.18 367.83 64.08 367.03" fill="#260000"/><polygon points="63.25 371.68 52.87 364.3 52.4 364.95 62.77 372.34 63.25 371.68" fill="#260000"/><polygon points="60.88 362.72 54.09 373.49 54.77 373.92 61.56 363.15 60.88 362.72" fill="#260000"/></svg>