<svg id="b9777d79-cf35-4a17-9498-b9d1d9c0d578" data-name="Layer 1" xmlns="http://www.w3.org/2000/svg" width="309" height="82" viewBox="0 0 309 82">
  <defs>
    <style>
      .b3e8289d-96d7-41cf-94c6-78e149b235df {
        fill: #fff;
        stroke: #3f2b00;
        stroke-miterlimit: 10;
        stroke-width: 2px;
      }

      .fa1bb0e5-7110-439a-b4d9-d7aefba9b6ed {
        fill: #ffb600;
      }
    </style>
  </defs>
  <g>
    <rect class="b3e8289d-96d7-41cf-94c6-78e149b235df" x="5.82" y="5.37" width="297.35" height="71.27" rx="33.84"/>
    <g>
      <path class="fa1bb0e5-7110-439a-b4d9-d7aefba9b6ed" d="M95.69,51.64V38a7.18,7.18,0,0,0-.25-2.12,3,3,0,0,0-.7-1.22,2.22,2.22,0,0,0-1-.55,5,5,0,0,0-1.18-.14,3.35,3.35,0,0,0-1.82.56A5.55,5.55,0,0,0,89.17,36a8.42,8.42,0,0,0-1.1,2.25A8.86,8.86,0,0,0,87.65,41V51.64H80.33V14H87.6V30.19a8.33,8.33,0,0,1,3-2.11,10.12,10.12,0,0,1,3.69-.64,12.13,12.13,0,0,1,3.18.43,7.94,7.94,0,0,1,2.76,1.37,6.68,6.68,0,0,1,2,2.49,8.52,8.52,0,0,1,.77,3.8V51.64Z"/>
      <path class="fa1bb0e5-7110-439a-b4d9-d7aefba9b6ed" d="M128.84,51.64a8.59,8.59,0,0,0-.06-.93q-.06-.45-.09-1.05c0-.4-.05-.82-.08-1.26A8.73,8.73,0,0,1,125,51.23a11.64,11.64,0,0,1-4.69,1,8.72,8.72,0,0,1-7-3q-2.51-3-2.51-8.47,0-6.64,4-10.25c2.69-2.4,6.54-3.61,11.52-3.61.82,0,1.57,0,2.24.06s1.34.1,2,.19,1.36.21,2.06.36,1.49.35,2.35.6V43.72c0,.85,0,1.73.05,2.67s.09,1.79.17,2.56.14,1.81.22,2.69Zm-1.16-17.93a12.47,12.47,0,0,0-1.73-.27c-.53,0-1-.06-1.46-.06a5.89,5.89,0,0,0-4.71,2,8,8,0,0,0-1.68,5.41,5.37,5.37,0,0,0,1,3.52A3.51,3.51,0,0,0,122,45.48a5.06,5.06,0,0,0,2.21-.49A5.49,5.49,0,0,0,126,43.58a6.65,6.65,0,0,0,1.24-2.14,8.32,8.32,0,0,0,.44-2.78Z"/>
      <path class="fa1bb0e5-7110-439a-b4d9-d7aefba9b6ed" d="M167.11,38.12a18.58,18.58,0,0,1-.77,5.49,13.27,13.27,0,0,1-2.17,4.28,9.86,9.86,0,0,1-3.35,2.77,9.22,9.22,0,0,1-4.27,1,9.41,9.41,0,0,1-2.89-.38,8.61,8.61,0,0,1-2.46-1.42V68h-7.71V34.7a13,13,0,0,0-.09-1.41c-.05-.54-.12-1.1-.22-1.7s-.2-1.19-.33-1.78a13,13,0,0,0-.46-1.65h7.46a6.06,6.06,0,0,1,.4,1.07,13.14,13.14,0,0,1,.23,1.51,12,12,0,0,1,3.32-2.53,8.83,8.83,0,0,1,3.8-.77,9.6,9.6,0,0,1,3.88.77,8.45,8.45,0,0,1,3,2.17,9.92,9.92,0,0,1,1.94,3.38A13.16,13.16,0,0,1,167.11,38.12Zm-7.32,1.22a5.23,5.23,0,0,0-1.1-3.54,3.8,3.8,0,0,0-3-1.26,4.32,4.32,0,0,0-3.55,1.62,6.69,6.69,0,0,0-1.31,4.34v3.19a5.85,5.85,0,0,0,3.9,1.46,4.69,4.69,0,0,0,3.71-1.54A6.22,6.22,0,0,0,159.79,39.34Z"/>
      <path class="fa1bb0e5-7110-439a-b4d9-d7aefba9b6ed" d="M198.66,38.12a18.26,18.26,0,0,1-.77,5.49,13.07,13.07,0,0,1-2.17,4.28,9.82,9.82,0,0,1-3.34,2.77,9.25,9.25,0,0,1-4.27,1,9.44,9.44,0,0,1-2.9-.38,8.61,8.61,0,0,1-2.46-1.42V68H175V34.7c0-.4,0-.87-.08-1.41s-.13-1.1-.22-1.7-.21-1.19-.33-1.78a13,13,0,0,0-.47-1.65h7.46a5.36,5.36,0,0,1,.4,1.07,11.21,11.21,0,0,1,.23,1.51,12.1,12.1,0,0,1,3.32-2.53,8.83,8.83,0,0,1,3.8-.77,9.6,9.6,0,0,1,3.88.77,8.45,8.45,0,0,1,3,2.17A9.92,9.92,0,0,1,198,33.76,13.16,13.16,0,0,1,198.66,38.12Zm-7.32,1.22a5.23,5.23,0,0,0-1.1-3.54,3.78,3.78,0,0,0-3-1.26,4.32,4.32,0,0,0-3.55,1.62,6.69,6.69,0,0,0-1.31,4.34v3.19a5.85,5.85,0,0,0,3.9,1.46A4.67,4.67,0,0,0,190,43.61,6.22,6.22,0,0,0,191.34,39.34Z"/>
      <path class="fa1bb0e5-7110-439a-b4d9-d7aefba9b6ed" d="M227.79,59.55a12,12,0,0,1-2.41,5.06,8.61,8.61,0,0,1-4.18,2.65,21.21,21.21,0,0,1-6.08.77,17.72,17.72,0,0,1-3.54-.36c-1.18-.24-2.42-.56-3.71-1V61.22c1.21.09,2.37.17,3.45.23s2.17.09,3.24.09a7.75,7.75,0,0,0,2.95-.51,4.44,4.44,0,0,0,2-1.66,8,8,0,0,0,1.16-3.06,25.53,25.53,0,0,0,.36-4.67v-3a9.44,9.44,0,0,1-6.88,3A8,8,0,0,1,211,51a7.34,7.34,0,0,1-2.61-1.86,9.15,9.15,0,0,1-1.76-2.9,10.53,10.53,0,0,1-.66-3.85c0-1.29,0-2.52,0-3.71s.06-2.36.06-3.55,0-2.4,0-3.65-.08-2.6-.19-4h7.32c.11,1.46.17,2.81.19,4.06s0,2.42,0,3.52,0,2.16,0,3.17,0,2,0,3a4.55,4.55,0,0,0,.81,3,3,3,0,0,0,2.34.93,4.41,4.41,0,0,0,3.37-1.52,5.75,5.75,0,0,0,1.41-4.08V27.44h7.32v24.2A34.36,34.36,0,0,1,227.79,59.55Z"/>
    </g>
  </g>
</svg>
