<svg id="bfa5a970-40cf-4ac4-8eb5-ce36879ce301" data-name="Layer 1" xmlns="http://www.w3.org/2000/svg" width="309" height="82" viewBox="0 0 309 82">
  <defs>
    <style>
      .f10ec3df-9ad7-4edc-b3ec-f13e8adc861d {
        fill: #fff;
        stroke: #3f2b00;
        stroke-miterlimit: 10;
        stroke-width: 2px;
      }

      .aa780bd1-9561-4bfc-8100-be3b97322a60 {
        fill: #6f3ac1;
      }
    </style>
  </defs>
  <g>
    <rect class="f10ec3df-9ad7-4edc-b3ec-f13e8adc861d" x="5.82" y="5.37" width="297.35" height="71.27" rx="33.84"/>
    <g>
      <path class="aa780bd1-9561-4bfc-8100-be3b97322a60" d="M96.9,53a6.9,6.9,0,0,1-2.33,5.5,9.63,9.63,0,0,1-6.56,2A28,28,0,0,1,82.42,60,16.26,16.26,0,0,1,78,58.54L79,52.93a18.87,18.87,0,0,0,8.37,2.48,2.4,2.4,0,0,0,1.74-.53,1.64,1.64,0,0,0,.52-1.18,2.1,2.1,0,0,0-.41-1.34,6.49,6.49,0,0,0-2-1.3,33.23,33.23,0,0,1-3.89-2A12.75,12.75,0,0,1,80.63,47a7,7,0,0,1-1.49-2.28A7.63,7.63,0,0,1,78.68,42a6.18,6.18,0,0,1,2.66-5.36,11.66,11.66,0,0,1,7-1.9,21.31,21.31,0,0,1,4.11.36,18.86,18.86,0,0,1,4.11,1.4L95.63,42a13.22,13.22,0,0,0-3.79-1.51,17.23,17.23,0,0,0-3.61-.41,2.53,2.53,0,0,0-1.76.47A1.67,1.67,0,0,0,86,41.82a1.81,1.81,0,0,0,.76,1.52,15.6,15.6,0,0,0,2.93,1.51A32.81,32.81,0,0,1,93,46.75a11.9,11.9,0,0,1,2.26,1.87,6,6,0,0,1,1.24,2A7.22,7.22,0,0,1,96.9,53Z"/>
      <path class="aa780bd1-9561-4bfc-8100-be3b97322a60" d="M118.85,59.31a17.17,17.17,0,0,1-3.94.44,13.32,13.32,0,0,1-4.85-.86,12,12,0,0,1-3.82-2.39,10.3,10.3,0,0,1-2.51-3.68,12.39,12.39,0,0,1-.88-4.77,15.39,15.39,0,0,1,.8-5,10.4,10.4,0,0,1,2.42-4,11.09,11.09,0,0,1,4-2.58,15.64,15.64,0,0,1,5.59-.91,13,13,0,0,1,4.21.57,16.05,16.05,0,0,1,2.73,1.24l-1.27,6.32c-.55-.25-1-.48-1.4-.68a11.29,11.29,0,0,0-1.1-.5,5.05,5.05,0,0,0-1.16-.27,10.94,10.94,0,0,0-1.51-.09,5.74,5.74,0,0,0-4.25,1.5,5.53,5.53,0,0,0-1.48,4.06A5.36,5.36,0,0,0,112,51.79a6.21,6.21,0,0,0,4.46,1.47,12.17,12.17,0,0,0,2.86-.33,17,17,0,0,0,2.92-1l.5,6A19,19,0,0,1,118.85,59.31Z"/>
      <path class="aa780bd1-9561-4bfc-8100-be3b97322a60" d="M145.58,59.75a8.75,8.75,0,0,0-.06-.93c0-.3-.07-.64-.09-1s-.05-.82-.09-1.26a8.7,8.7,0,0,1-3.58,2.83,11.68,11.68,0,0,1-4.69,1,8.71,8.71,0,0,1-7-3c-1.68-2-2.51-4.8-2.51-8.47q0-6.64,4-10.25T143.09,35c.82,0,1.57,0,2.24.05s1.34.1,2,.19,1.35.21,2.06.36,1.49.35,2.35.61V51.83c0,.85,0,1.74.05,2.67s.09,1.79.17,2.56.14,1.81.22,2.69Zm-1.16-17.93a12.47,12.47,0,0,0-1.73-.27c-.53,0-1-.06-1.46-.06a5.89,5.89,0,0,0-4.71,2,8,8,0,0,0-1.68,5.41,5.37,5.37,0,0,0,1,3.52,3.49,3.49,0,0,0,2.86,1.21,5.06,5.06,0,0,0,2.21-.49,5.59,5.59,0,0,0,1.82-1.4A6.86,6.86,0,0,0,144,49.55a8.07,8.07,0,0,0,.45-2.78Z"/>
      <path class="aa780bd1-9561-4bfc-8100-be3b97322a60" d="M176.41,42.32c-.51-.11-.91-.18-1.21-.22a7.31,7.31,0,0,0-1-.06,5.6,5.6,0,0,0-4.76,2.15c-1.08,1.43-1.63,3.56-1.63,6.39v9.17H160.5V43.87q0-1.35,0-2.34c0-.66-.06-1.28-.13-1.86s-.18-1.14-.31-1.7-.3-1.19-.52-1.91h7c.12.46.22.84.31,1.16a5.68,5.68,0,0,1,.2.9c0,.29.08.59.12.91s0,.7,0,1.15a12.51,12.51,0,0,1,3.13-3.58,6,6,0,0,1,3.5-1,4.88,4.88,0,0,1,1.3.14,12.21,12.21,0,0,1,1.45.53Z"/>
      <path class="aa780bd1-9561-4bfc-8100-be3b97322a60" d="M200.81,42.21a6.25,6.25,0,0,1-1,3.41,8.07,8.07,0,0,1-2.76,2.61,15,15,0,0,1-4.29,1.68,24.13,24.13,0,0,1-5.61.6l-.67,0c-.25,0-.54,0-.89,0a5.06,5.06,0,0,0,1.65,3.27,5.25,5.25,0,0,0,3.57,1.18,16.33,16.33,0,0,0,8.11-2.47v5.77a15.44,15.44,0,0,1-4,1.73,16.6,16.6,0,0,1-4.32.53,14.25,14.25,0,0,1-5-.83,10.1,10.1,0,0,1-3.77-2.39,10.66,10.66,0,0,1-2.37-3.74,13.79,13.79,0,0,1-.83-4.92,15.11,15.11,0,0,1,1-5.53,12.85,12.85,0,0,1,2.69-4.31,12,12,0,0,1,4.16-2.81,14,14,0,0,1,5.34-1,10.09,10.09,0,0,1,6.53,2A6.45,6.45,0,0,1,200.81,42.21Zm-7.33.55a1.91,1.91,0,0,0-.75-1.51,2.87,2.87,0,0,0-1.9-.63,4.34,4.34,0,0,0-3.14,1.29A6.09,6.09,0,0,0,186,45.45a4.09,4.09,0,0,0,.87.11h.82Q193.48,45.56,193.48,42.76Z"/>
      <path class="aa780bd1-9561-4bfc-8100-be3b97322a60" d="M224.71,59.75c0-.22-.07-.47-.11-.77s-.08-.55-.12-.88-.07-.73-.11-1.21a10,10,0,0,1-3.65,2.72,11.15,11.15,0,0,1-4.36.8,10.88,10.88,0,0,1-4.39-.85,9.63,9.63,0,0,1-3.33-2.37,10.58,10.58,0,0,1-2.16-3.65,14.2,14.2,0,0,1-.77-4.79,16.24,16.24,0,0,1,.91-5.55,13.27,13.27,0,0,1,2.53-4.37A11.32,11.32,0,0,1,213,36a11.93,11.93,0,0,1,5-1,17.13,17.13,0,0,1,2.42.17,14,14,0,0,1,2.7.71V21.42h7.32v30c0,.63,0,1.41.09,2.37s.11,1.87.19,2.75.16,2.11.27,3.24Zm-1.6-17.65a7.93,7.93,0,0,0-2-.55,17.91,17.91,0,0,0-2-.11,5.54,5.54,0,0,0-4.44,1.9A7.72,7.72,0,0,0,213,48.53a5.61,5.61,0,0,0,1.15,3.77,3.9,3.9,0,0,0,3.15,1.35,6.51,6.51,0,0,0,2.26-.39,4.12,4.12,0,0,0,1.83-1.32,6.81,6.81,0,0,0,1.23-2.44,13.07,13.07,0,0,0,.46-3.77Z"/>
    </g>
  </g>
</svg>
