<svg id="fb934753-9231-4865-940d-70aa228fad42" data-name="Layer 1" xmlns="http://www.w3.org/2000/svg" width="309" height="82" viewBox="0 0 309 82">
  <defs>
    <style>
      .b775c344-1060-4017-833f-1a481198690f {
        fill: #fff;
        stroke: #3f2b00;
        stroke-miterlimit: 10;
        stroke-width: 2px;
      }

      .f41d5a49-17a0-4ddd-b406-c7f34724f9fd {
        fill: #d83d27;
      }
    </style>
  </defs>
  <g>
    <rect class="b775c344-1060-4017-833f-1a481198690f" x="5.82" y="5.37" width="297.35" height="71.27" rx="33.84"/>
    <g>
      <path class="f41d5a49-17a0-4ddd-b406-c7f34724f9fd" d="M103.12,49.91a8.92,8.92,0,0,0-.06-.94c0-.29-.06-.64-.08-1s0-.83-.09-1.27A8.67,8.67,0,0,1,99.3,49.5a11.61,11.61,0,0,1-4.69,1,8.7,8.7,0,0,1-7-3q-2.52-3-2.52-8.47,0-6.65,4-10.26t11.53-3.6c.82,0,1.56,0,2.23.06s1.34.1,2,.19,1.36.21,2.07.36,1.49.35,2.34.6V42q0,1.26.06,2.67c0,.93.09,1.78.16,2.55s.15,1.82.22,2.7ZM102,32a11.24,11.24,0,0,0-1.74-.27c-.52,0-1-.06-1.45-.06a5.88,5.88,0,0,0-4.71,2A8.06,8.06,0,0,0,92.39,39a5.33,5.33,0,0,0,1,3.52,3.49,3.49,0,0,0,2.85,1.21,5.08,5.08,0,0,0,2.22-.5,5.56,5.56,0,0,0,1.82-1.4,6.81,6.81,0,0,0,1.23-2.14,8.11,8.11,0,0,0,.45-2.78Z"/>
      <path class="f41d5a49-17a0-4ddd-b406-c7f34724f9fd" d="M133,49.91V36.18a5.54,5.54,0,0,0-.36-2.23,3.13,3.13,0,0,0-.86-1.19,2.1,2.1,0,0,0-1-.48,7.27,7.27,0,0,0-.94-.08,5.7,5.7,0,0,0-1.16.21,4,4,0,0,0-1.67,1,6.86,6.86,0,0,0-1.52,2.33,10.73,10.73,0,0,0-.66,4.14v10H117.5v-16a27.41,27.41,0,0,0-.33-4.17,14,14,0,0,0-.88-3.37h7.32a12.93,12.93,0,0,1,.47,1.27c.09.33.19.8.3,1.43a11.36,11.36,0,0,1,3.78-2.53,10.88,10.88,0,0,1,4.1-.83,8,8,0,0,1,3.21.65A7.45,7.45,0,0,1,138,28.15a8.33,8.33,0,0,1,1.7,2.84,10.92,10.92,0,0,1,.62,3.77V49.91Z"/>
      <path class="f41d5a49-17a0-4ddd-b406-c7f34724f9fd" d="M172.34,50.68a25.49,25.49,0,0,1-.93,7.45,12.8,12.8,0,0,1-2.53,4.81,9.12,9.12,0,0,1-3.79,2.61,13.88,13.88,0,0,1-4.77.8,41.36,41.36,0,0,1-4.92-.3,18,18,0,0,1-4.64-1.18V59.31A29.22,29.22,0,0,0,155,60.49a18.07,18.07,0,0,0,3.55.42,6.28,6.28,0,0,0,2.63-.55,5.2,5.2,0,0,0,2.05-1.76,9.15,9.15,0,0,0,1.34-3.19,21.25,21.25,0,0,0,.47-4.79V48.2a8.39,8.39,0,0,1-3.14,1.85,13,13,0,0,1-3.42.41,10.8,10.8,0,0,1-4.29-.83,9.29,9.29,0,0,1-3.28-2.31,10.47,10.47,0,0,1-2.09-3.6,14.26,14.26,0,0,1-.74-4.7,14,14,0,0,1,1.14-5.75,12.23,12.23,0,0,1,3.27-4.37,14.54,14.54,0,0,1,5.13-2.77,22.09,22.09,0,0,1,6.81-1c.79,0,1.47,0,2.07,0a17.16,17.16,0,0,1,1.76.14c.57.07,1.19.17,1.84.3s1.4.3,2.26.52ZM165,32.31c-.65-.11-1.13-.18-1.45-.22s-.75-.05-1.27-.05a7,7,0,0,0-5.08,1.78,6.56,6.56,0,0,0-1.84,4.93,4.68,4.68,0,0,0,1.22,3.46,4.11,4.11,0,0,0,3,1.21,8.8,8.8,0,0,0,2-.22,3.55,3.55,0,0,0,1.72-1A5.35,5.35,0,0,0,164.56,40a13.36,13.36,0,0,0,.46-3.93Z"/>
      <path class="f41d5a49-17a0-4ddd-b406-c7f34724f9fd" d="M196.84,32.48a12,12,0,0,0-1.21-.22,7.31,7.31,0,0,0-1-.06,5.6,5.6,0,0,0-4.76,2.15c-1.08,1.43-1.63,3.56-1.63,6.39v9.17h-7.32V34q0-1.35,0-2.34c0-.67-.06-1.29-.13-1.86s-.18-1.14-.31-1.7-.3-1.19-.52-1.91h6.95c.12.45.22.84.31,1.16a5.68,5.68,0,0,1,.2.9q.06.42.12.9c0,.32,0,.71,0,1.16a12.37,12.37,0,0,1,3.13-3.58,6,6,0,0,1,3.5-1.05,5.33,5.33,0,0,1,1.3.14,14.93,14.93,0,0,1,1.45.54Z"/>
      <path class="f41d5a49-17a0-4ddd-b406-c7f34724f9fd" d="M223.16,57.82a12.06,12.06,0,0,1-2.4,5.06,8.73,8.73,0,0,1-4.18,2.65,21.33,21.33,0,0,1-6.09.77,17.72,17.72,0,0,1-3.54-.36c-1.18-.24-2.41-.56-3.71-1V59.49c1.22.09,2.37.17,3.46.23s2.16.09,3.23.09a7.75,7.75,0,0,0,2.95-.51,4.59,4.59,0,0,0,2.05-1.66,8.12,8.12,0,0,0,1.16-3.06,25.53,25.53,0,0,0,.36-4.67v-3a9.48,9.48,0,0,1-6.89,3,8,8,0,0,1-3.16-.65,7.57,7.57,0,0,1-2.62-1.85A9.39,9.39,0,0,1,202,44.5a10.48,10.48,0,0,1-.66-3.84c0-1.29,0-2.53,0-3.71s.06-2.36.06-3.55,0-2.4,0-3.65-.08-2.6-.19-4h7.32c.11,1.46.18,2.81.2,4.06s0,2.41,0,3.52,0,2.16-.06,3.17,0,2,0,3a4.53,4.53,0,0,0,.82,3,2.93,2.93,0,0,0,2.33.93,4.47,4.47,0,0,0,3.38-1.52,5.79,5.79,0,0,0,1.4-4.08V25.71h7.33v24.2A33.76,33.76,0,0,1,223.16,57.82Z"/>
    </g>
  </g>
</svg>
