<svg id="Layer_1" data-name="Layer 1" xmlns="http://www.w3.org/2000/svg" viewBox="0 0 1600 900"><path d="M889.26,683.73c5,0,10-4,10.16-9.13s-4.59-8.75-9.5-8.75-10,4-10.16,9.14,4.58,8.74,9.5,8.74" fill="#ec008c"/><path d="M1095,204.39c4.51,0,9-3.58,9.18-8.25s-4.14-7.9-8.58-7.9-9,3.58-9.18,8.25,4.14,7.9,8.58,7.9" fill="#f400f4"/><path d="M1227.51,280.25c4.52,0,9-3.58,9.18-8.25s-4.14-7.9-8.58-7.9-9,3.58-9.18,8.25,4.14,7.9,8.58,7.9" fill="#7ac943"/><path d="M1228.17,401.46c4.52,0,9-3.58,9.18-8.25s-4.14-7.89-8.58-7.89-9,3.58-9.18,8.25,4.14,7.89,8.58,7.89" fill="#f400f4"/><path d="M382.79,393a4.18,4.18,0,0,0,4.2-3.77,3.69,3.69,0,0,0-3.92-3.61,4.2,4.2,0,0,0-4.2,3.77,3.69,3.69,0,0,0,3.92,3.61" fill="#a62ca2"/><path d="M375.51,566.65a4.18,4.18,0,0,0,4.19-3.77,3.68,3.68,0,0,0-3.92-3.6,4.17,4.17,0,0,0-4.19,3.77,3.68,3.68,0,0,0,3.92,3.6" fill="#7ac943"/><path d="M371.29,334.8a4.17,4.17,0,0,0,3.46,4.45,3.68,3.68,0,0,0,3.87-3.65,4.18,4.18,0,0,0-3.46-4.45,3.68,3.68,0,0,0-3.87,3.65" fill="#ec008c"/><path d="M589,708.85a4.18,4.18,0,0,0,4.19-3.77,3.68,3.68,0,0,0-3.92-3.6,4.18,4.18,0,0,0-4.19,3.77,3.68,3.68,0,0,0,3.92,3.6" fill="#ec008c"/><path d="M597.51,184.13a4.17,4.17,0,0,0,4.19-3.77,3.68,3.68,0,0,0-3.92-3.6,4.18,4.18,0,0,0-4.19,3.77,3.68,3.68,0,0,0,3.92,3.6" fill="#ec008c"/><path d="M1195,319.43c-4.48.57-8.5,4.68-8.08,9.33s5.09,7.32,9.5,6.77,8.49-4.68,8.07-9.33-5.09-7.32-9.49-6.77" fill="#7ac943"/><path d="M1210.05,338.19a4.18,4.18,0,0,0-3.69,4.26,3.69,3.69,0,0,0,4.34,3.09,4.18,4.18,0,0,0,3.69-4.26,3.68,3.68,0,0,0-4.34-3.09" fill="#a62ca2"/><path d="M1189.87,380.75a4.18,4.18,0,0,0-3.69,4.26,3.68,3.68,0,0,0,4.34,3.09,4.17,4.17,0,0,0,3.69-4.26,3.68,3.68,0,0,0-4.34-3.09" fill="#7ac943"/><path d="M472.53,184.41c3.55-2.78,4.88-8.37,2.13-12.15s-8.14-3.66-11.63-.91-4.88,8.37-2.13,12.15,8.14,3.66,11.63.91" fill="#ec008c"/><path d="M450,176.07a4.18,4.18,0,0,0,1-5.55,3.69,3.69,0,0,0-5.31-.42,4.18,4.18,0,0,0-1,5.55,3.68,3.68,0,0,0,5.31.42" fill="#7ac943"/><path d="M1167.7,166.81a5.35,5.35,0,0,0,7-1.86c1.35-2.45-.07-5.22-2.38-6.39a5.35,5.35,0,0,0-7,1.87c-1.36,2.44.06,5.21,2.38,6.38" fill="#a62ca2"/><path d="M367,434.26a5.5,5.5,0,0,0,5.51-4.95c.1-2.87-2.48-4.73-5.15-4.73a5.48,5.48,0,0,0-5.5,4.94c-.11,2.87,2.48,4.74,5.14,4.74" fill="#7ac943"/><path d="M1199.32,218.69a4.19,4.19,0,0,0,4.19-3.77,3.68,3.68,0,0,0-3.92-3.61,4.18,4.18,0,0,0-4.19,3.77,3.68,3.68,0,0,0,3.92,3.61" fill="#7ac943"/><path d="M1113.06,174.29a4.18,4.18,0,0,0,4.2-3.77,3.69,3.69,0,0,0-3.93-3.6,4.18,4.18,0,0,0-4.19,3.76,3.68,3.68,0,0,0,3.92,3.61" fill="#7ac943"/><path d="M977.29,230c4.51,0,9-3.58,9.17-8.25s-4.14-7.9-8.58-7.9-9,3.58-9.18,8.25,4.15,7.9,8.59,7.9" fill="#7ac943"/><path d="M420.14,240.08c2.69-12.11,3.36-22.2,6.67-33.8,2.53,7.43,9.43,33,9.43,33s26.36,2.22,33.74,3.12c-11.49,5.09-34.7,10.47-34.7,10.47s-3,16.82-7.07,31.62a240.47,240.47,0,0,1-6.73-30.94s-22.2-2-35.65-6.06c11.43-2.69,20.85-4.71,34.31-7.4" fill="#7ac943"/><path d="M392.41,279.65c1.1-4.94,1.37-9,2.72-13.78,1,3,3.85,13.45,3.85,13.45s10.74.9,13.75,1.27c-4.68,2.08-14.15,4.27-14.15,4.27s-1.23,6.85-2.88,12.89A97.64,97.64,0,0,1,393,285.13s-9-.82-14.53-2.46c4.66-1.1,8.5-1.92,14-3" fill="#ec008c"/><path d="M563.28,157.65c1.1-4.93,1.38-9.05,2.72-13.78,1,3,3.85,13.45,3.85,13.45s10.74.91,13.75,1.27c-4.68,2.08-14.15,4.27-14.15,4.27s-1.23,6.86-2.88,12.89a99.73,99.73,0,0,1-2.74-12.61s-9.05-.82-14.53-2.47c4.66-1.1,8.5-1.92,14-3" fill="#7ac943"/><path d="M834.64,171.9c1.09-4.94,1.37-9.05,2.72-13.78,1,3,3.84,13.45,3.84,13.45s10.75.9,13.75,1.27c-4.68,2.08-14.14,4.27-14.14,4.27S839.57,184,837.93,190a97.64,97.64,0,0,1-2.74-12.62s-9.06-.82-14.54-2.46c4.66-1.1,8.5-1.92,14-3" fill="#a62ca2"/><path d="M986.46,685.69c1.76-7.89,2.19-14.47,4.35-22,1.65,4.84,6.14,21.5,6.14,21.5s17.18,1.45,22,2c-7.48,3.32-22.61,6.82-22.61,6.82s-2,11-4.6,20.61a156,156,0,0,1-4.38-20.17s-14.47-1.31-23.23-3.94c7.45-1.76,13.59-3.07,22.35-4.82" fill="#ec008c"/><path d="M1056,730.36c1.75-7.89,2.19-14.46,4.34-22,1.65,4.84,6.15,21.5,6.15,21.5s17.17,1.44,22,2c-7.49,3.31-22.61,6.82-22.61,6.82s-2,11-4.6,20.6a157.14,157.14,0,0,1-4.39-20.16s-14.46-1.32-23.23-4c7.45-1.75,13.59-3.06,22.36-4.82" fill="#7ac943"/><path d="M1203.89,625.91c1.41-6.38,1.77-11.69,3.51-17.79,1.33,3.91,5,17.36,5,17.36s13.87,1.17,17.75,1.64c-6,2.68-18.26,5.51-18.26,5.51s-1.59,8.85-3.71,16.64A126,126,0,0,1,1204.6,633s-11.69-1.06-18.77-3.19c6-1.41,11-2.48,18.06-3.89" fill="#7ac943"/><path d="M505.62,679.2c1.74-7.84,2.17-14.37,4.32-21.88,1.64,4.81,6.1,21.36,6.1,21.36s17.06,1.44,21.84,2c-7.44,3.29-22.46,6.78-22.46,6.78s-2,10.89-4.58,20.47a154.76,154.76,0,0,1-4.35-20s-14.38-1.3-23.09-3.92c7.41-1.74,13.51-3,22.22-4.79" fill="#7ac943"/><path d="M318.07,329.18c1.67-7.51,2.08-13.78,4.14-21,1.57,4.61,5.85,20.48,5.85,20.48s16.36,1.38,20.94,1.94c-7.13,3.16-21.54,6.5-21.54,6.5s-1.88,10.44-4.38,19.62a148.3,148.3,0,0,1-4.18-19.21s-13.78-1.25-22.13-3.75c7.1-1.67,12.94-2.93,21.3-4.6" fill="#7ac943"/><path d="M1120,298.09c.3-3.52-.33-7.19-.79-10.67q-.4-3-.87-6c5.25-1.44,10.5-2.86,15.78-4.19a1.68,1.68,0,0,0,1.1-1.35,1.81,1.81,0,0,0-1-1.85,74.15,74.15,0,0,0-10-4.44q-3-1.19-5.93-2.29.18-2.94.31-5.88a83.59,83.59,0,0,0,0-11.63,1.78,1.78,0,0,0-3.1-.93c-3.53,4.37-6.86,8.86-10.91,12.77-5.6.09-11.22-.5-16.82-.68a1.74,1.74,0,0,0-1.36,3.05c4,3.58,7.56,7.54,11.44,11.21-3.56,4.27-6.87,8.73-10.19,13.19a1.77,1.77,0,0,0,2,2.73,168.17,168.17,0,0,0,16.56-5.78c3.44,4.58,6.92,9.15,10.64,13.5.9,1.05,3,.93,3.15-.73m-13.83-16.48c-4.15,1.58-8.33,3.25-12.57,4.66,2.58-3.43,5.22-6.83,8-10.1a1.75,1.75,0,0,0-.26-2.44c-3.21-2.94-6.19-6.11-9.29-9.16,4.48.25,9,.58,13.46.47a1.51,1.51,0,0,0,1.14-.6l0,0a87.5,87.5,0,0,0,8.63-9.73c0,2.06-.1,4.11-.19,6.15-.1,2.44-.24,4.89-.41,7.32a1.78,1.78,0,0,0,1,1.85c2.3.84,4.59,1.72,6.87,2.62,2,.79,4,1.56,6,2.42-4.29,1.12-8.56,2.29-12.84,3.46a1.69,1.69,0,0,0-1.1,1.8q.58,3.63,1.07,7.26c.23,1.72.44,3.44.61,5.16-2.77-3.44-5.43-7-8.08-10.5a1.79,1.79,0,0,0-2.06-.62" fill="#7ac943"/><path d="M696,694.68c6.12-6.68,8.17-17.33,3.74-25.43a15.27,15.27,0,0,0-10.05-7.55A17.13,17.13,0,0,0,678,663.77c-7.32,4.12-12.7,13.71-7.88,21.66a12.77,12.77,0,0,0,10.4,5.87,13.13,13.13,0,0,0,11.54-6.49,10.42,10.42,0,0,0,1-7.78,7.1,7.1,0,0,0-6.06-4.88,7.49,7.49,0,0,0-7.58,4.09,6.12,6.12,0,0,0,1.73,7.72c1.4,1.15,4.35-1.62,2.72-3a3.57,3.57,0,0,1-1-4.59,1.88,1.88,0,0,1,1.27-.89A4.33,4.33,0,0,1,687,676c3.43,1.62,3.27,6.53,1.32,9a8.54,8.54,0,0,1-10.05,2.22,10.38,10.38,0,0,1-6.35-9.2,11.76,11.76,0,0,1,1.31-5.46,14.39,14.39,0,0,1,3.15-4.16,13.58,13.58,0,0,1,9.7-3.61c4.07.14,7.61,2.71,9.79,6,2.42,3.66,2.89,8.27,2.23,12.52a19,19,0,0,1-4.65,9.81c-.54.59-1,1.73-.1,2.27a2.26,2.26,0,0,0,2.62-.7" fill="#29abe2"/><path d="M752.85,709.14c-8.82,4.47-15,14.56-13.61,24.54a16.68,16.68,0,0,0,7.36,11.57,18.69,18.69,0,0,0,12.73,2.38c9.06-1.39,18.24-9.11,16.38-19.07a13.94,13.94,0,0,0-8.36-10,14.33,14.33,0,0,0-14.28,2.2,11.3,11.3,0,0,0-4,7.54,7.76,7.76,0,0,0,4.31,7.32,8.2,8.2,0,0,0,9.32-1.27,6.69,6.69,0,0,0,1.19-8.54c-1-1.72-5.06,0-3.92,2a3.88,3.88,0,0,1-.74,5.07,2.06,2.06,0,0,1-1.64.43,4.8,4.8,0,0,1-2.75-1.57c-2.88-3-.82-7.92,2.13-9.72,3.54-2.15,8.17-1.21,11.12,1.61A11.34,11.34,0,0,1,771,735.44a12.94,12.94,0,0,1-3.43,5.07,16,16,0,0,1-4.82,3,14.8,14.8,0,0,1-11.3,0c-4.1-1.71-6.72-5.7-7.68-9.91-1.06-4.66.23-9.55,2.54-13.63a20.74,20.74,0,0,1,8.53-8.23c.78-.4,1.64-1.41,1-2.28s-2.08-.73-2.94-.3" fill="#a62ca2"/><path d="M468.35,533.6c10.79,3.64,24.08.57,31.14-8.64a19.22,19.22,0,0,0,3.55-15.4,21.45,21.45,0,0,0-8.32-12.37c-8.47-6.33-22.22-7.63-28.91,1.95a16.08,16.08,0,0,0-1.45,15A16.47,16.47,0,0,0,477.69,524a13.11,13.11,0,0,0,9.47-2.76,8.93,8.93,0,0,0,2.52-9.46,9.42,9.42,0,0,0-8.56-6.63,7.72,7.72,0,0,0-8,5.92c-.61,2.19,4.08,4.18,4.79,1.62a4.48,4.48,0,0,1,4.77-3.48,2.33,2.33,0,0,1,1.68,1,5.55,5.55,0,0,1,.94,3.51c-.12,4.78-5.85,7.09-9.71,6.11-4.63-1.17-7.6-5.73-7.66-10.43a13,13,0,0,1,7.35-12,14.93,14.93,0,0,1,6.94-1.28,18.45,18.45,0,0,1,6.39,1.51A17.11,17.11,0,0,1,497.7,507c1.91,4.74.75,10.12-1.93,14.31-3,4.64-8,7.53-13.25,8.93a23.94,23.94,0,0,1-13.65-.35c-.95-.32-2.48-.22-2.66,1s1.09,2.3,2.14,2.65" fill="#f210f9"/><path d="M436.22,625.34c-4,4.11-5.43,10.79-2.77,16a9.6,9.6,0,0,0,6.21,4.91,10.8,10.8,0,0,0,7.41-1.11c4.68-2.48,8.23-8.44,5.32-13.53a8.05,8.05,0,0,0-6.47-3.87,8.27,8.27,0,0,0-7.37,3.91,6.51,6.51,0,0,0-.78,4.89,4.48,4.48,0,0,0,3.74,3.17,4.73,4.73,0,0,0,4.85-2.46,3.87,3.87,0,0,0-1-4.89c-.86-.75-2.77.95-1.77,1.82a2.25,2.25,0,0,1,.56,2.92,1.21,1.21,0,0,1-.81.54,2.76,2.76,0,0,1-1.8-.33c-2.14-1.08-2-4.17-.69-5.71a5.41,5.41,0,0,1,6.38-1.24,6.56,6.56,0,0,1,3.85,5.91,7.43,7.43,0,0,1-.91,3.42,9.37,9.37,0,0,1-2.05,2.57,8.62,8.62,0,0,1-6.18,2.12,8,8,0,0,1-6.08-4,11.21,11.21,0,0,1-1.2-7.93,12,12,0,0,1,3.09-6.11c.35-.36.63-1.08.1-1.43a1.42,1.42,0,0,0-1.66.4" fill="#ec008c"/><path d="M384.11,493.84a5.38,5.38,0,0,0-5.4.22,5.46,5.46,0,0,0-1,.84,6.47,6.47,0,0,1-1-1.52,5.65,5.65,0,0,1-.45-3.48,3,3,0,0,1,.13-.45,7.53,7.53,0,0,0,4.56,1.56c1.86,0,4.67-1,3.88-3.39-.65-1.95-3.39-2.1-5.06-1.86a9.11,9.11,0,0,0-3.06,1,7.4,7.4,0,0,1-.76-1.67,7.25,7.25,0,0,1-.26-3c.41.2.83.39,1.24.55,2.4,1,5.42,1.12,7.57-.55,1.47-1.15,2-3.2.53-4.59-1.8-1.73-5-1.66-7.17-.82a6.44,6.44,0,0,0-3.16,2.57,7,7,0,0,1-1.89-2.44c-.38-.86-2.45-.24-2.09.57a8.86,8.86,0,0,0,3.17,3.65,8.27,8.27,0,0,0,.81,6.48c.12.19.24.38.37.56a4.22,4.22,0,0,0-.71,1.24,6.68,6.68,0,0,0,1.73,6.76,5.66,5.66,0,0,0,.52.47c-1.3,3.32.46,8.08,2.44,10.59.54.69,2.54-.1,1.92-.89a12.5,12.5,0,0,1-2.64-7.66,6.37,6.37,0,0,1,.12-1.07,6.89,6.89,0,0,0,4.89-.52,2.7,2.7,0,0,0,1.67-1.69,1.54,1.54,0,0,0-.88-1.51m-7.39-14.49a4.61,4.61,0,0,1,5.27-1.5c1.58.48,2.38,2.18,1.19,3.39a3.52,3.52,0,0,1-2.51.77,9.41,9.41,0,0,1-3.74-1.21c-.26-.13-.51-.28-.77-.43a5.61,5.61,0,0,1,.56-1m1,8.46c1.24-.7,3.48-1.24,4.63-.14a1.48,1.48,0,0,1,.44.88,1.35,1.35,0,0,1,0,.49c0,.15-.06.17-.18.29.13-.13-.07.05-.09.07h0l-.08,0-.05,0-.07,0-.21.06a4.42,4.42,0,0,1-1.45,0,5.47,5.47,0,0,1-3.05-1.61l.16-.1m4.86,8a3.62,3.62,0,0,1-.55.26,3.48,3.48,0,0,1-3-.11,3.06,3.06,0,0,1,.57-.73,2.26,2.26,0,0,1,.83-.49,2.42,2.42,0,0,1,1-.11,1.76,1.76,0,0,1,1.43.72c-.05-.07,0,.14,0,.1s0,.07,0,.1-.07.12,0,0c-.15.21-.1.13-.28.25" fill="#ec008c"/><path d="M524,596.77a5.41,5.41,0,0,0-5.4.23,5.13,5.13,0,0,0-1.05.83,6.58,6.58,0,0,1-1-1.51,5.58,5.58,0,0,1-.45-3.48,3.45,3.45,0,0,1,.12-.46,7.51,7.51,0,0,0,4.56,1.56c1.86,0,4.68-1,3.89-3.39-.65-1.95-3.39-2.1-5.06-1.85a9,9,0,0,0-3.06,1,7,7,0,0,1-.76-1.67,7.07,7.07,0,0,1-.26-3c.41.21.82.39,1.23.56,2.41,1,5.43,1.12,7.58-.56,1.47-1.15,2-3.2.52-4.59-1.79-1.73-5-1.66-7.16-.82a6.5,6.5,0,0,0-3.16,2.57,6.84,6.84,0,0,1-1.89-2.43c-.38-.87-2.45-.25-2.1.56a8.89,8.89,0,0,0,3.18,3.65,8.22,8.22,0,0,0,.81,6.48c.11.19.24.38.37.56a4.27,4.27,0,0,0-.71,1.25,6.65,6.65,0,0,0,1.73,6.76,5.43,5.43,0,0,0,.51.46c-1.3,3.32.47,8.08,2.44,10.6.54.68,2.55-.11,1.93-.89a12.42,12.42,0,0,1-2.64-7.66,7.75,7.75,0,0,1,.11-1.08,7,7,0,0,0,4.9-.51,2.78,2.78,0,0,0,1.67-1.7,1.57,1.57,0,0,0-.88-1.51m-7.39-14.48a4.61,4.61,0,0,1,5.27-1.51c1.58.48,2.38,2.18,1.19,3.39a3.47,3.47,0,0,1-2.51.77,9.34,9.34,0,0,1-3.74-1.2c-.26-.14-.52-.28-.77-.44a5.88,5.88,0,0,1,.56-1m1,8.45c1.24-.7,3.48-1.24,4.63-.14a1.54,1.54,0,0,1,.44.88,1.34,1.34,0,0,1,0,.49c0,.15-.06.17-.17.29.12-.13-.08.06-.1.07l0,0-.08,0,0,0-.07,0-.21.05a4.42,4.42,0,0,1-1.45,0,5.38,5.38,0,0,1-3-1.61l.16-.1m4.85,8a2.52,2.52,0,0,1-.54.25,3.47,3.47,0,0,1-3.05-.11,3.65,3.65,0,0,1,.58-.73,2.26,2.26,0,0,1,.83-.49,2.57,2.57,0,0,1,1-.1,1.73,1.73,0,0,1,1.42.71c0-.07,0,.14,0,.11a.37.37,0,0,1,0,.09c0,.06-.07.12,0,0-.15.2-.09.12-.28.25" fill="#ec008c"/><polyline points="522.08 227.54 522.08 227.54 522.08 227.54 522.07 227.54 522.08 227.54" fill="#f400f4"/><path d="M541,185.2a2.36,2.36,0,0,0-3-.54A72.27,72.27,0,0,1,527.88,190a27.44,27.44,0,0,0-13.22-4.12c-3.57-.16-12.48,1.29-11,6.83.59,2.18,2.95,3.22,4.9,3.83,3.23,1,6.91.57,10.18,0a44.41,44.41,0,0,0,8-2.11c2.67,2.16,4.68,5.12,3.8,8.59a13,13,0,0,1-1.94,4.11,14.91,14.91,0,0,0-3.8-1.08,22.32,22.32,0,0,0-7.34.06c-1.81.3-3.94.87-5.25,2.24a3.46,3.46,0,0,0,.1,5.13,10.08,10.08,0,0,0,7.23,2.91,14.28,14.28,0,0,0,9.12-3.61A12.34,12.34,0,0,1,530,224.48a5.24,5.24,0,0,1-.79,1.27,7.36,7.36,0,0,0-7.1-2.84c-3.34.62-6.22,4.61-3.38,7.46,1.56,1.56,4.39,1.5,6.4,1.24a17.15,17.15,0,0,0,2-.39,12.62,12.62,0,0,1,.27,4.56c-.49,5.39-2.94,10.36-3.77,15.68-.39,2.54,4.14,2.18,4.5-.18,1-6.29,4.24-12.17,3.82-18.68a11.72,11.72,0,0,0-.73-3.34,11.47,11.47,0,0,0,1-.95c3.39-3.66,3.77-9.09,2.29-13.68a14.31,14.31,0,0,0-2.77-5,19,19,0,0,0,1.76-2.68,11.61,11.61,0,0,0,1.51-7.88,12.75,12.75,0,0,0-3.86-6.43,78.15,78.15,0,0,0,8.85-4.81c.89-.55,1.62-1.61.94-2.64m-18.93,42h0m2.31.73a5.58,5.58,0,0,1-2-.16l-.21-.07s0-.05-.12-.14,0,0,0,.05l0-.05,0,0,0,0,0-.07a.11.11,0,0,1,0-.05.49.49,0,0,0,0,.12c.28.24,0-.22,0-.13v0a.25.25,0,0,1,0-.08l.06-.17c-.07.19,0,0,.14-.17,0,.05.38-.28.27-.24l.07,0,0,0,.24-.06h.31c-.66,0,.65.18.21,0a5.78,5.78,0,0,1,.73.32,6.16,6.16,0,0,1,1.08.89l-.81.08m-8.76-17.37h0m-.1.18h0l0,0,0,0m1.45,1.05a7.53,7.53,0,0,1-1.17-.94.91.91,0,0,1-.15-.21h0c.24-.12.73-.34.66-.32a11.46,11.46,0,0,1,1.42-.39,18.1,18.1,0,0,1,6-.05,11.11,11.11,0,0,1,1.93.48,10,10,0,0,1-5.84,2.3,5.15,5.15,0,0,1-2.84-.86m.6-18.77c-2.67.39-5.79.65-8.32-.49a2.54,2.54,0,0,1-.84-.55s-.3-.42-.3-.34l-.06-.2c0,.06,0,0,0-.11a.62.62,0,0,0,0-.1c0,.07.36-.44.06-.14a1.86,1.86,0,0,1,.8-.55,6.11,6.11,0,0,1,1.31-.45,14.82,14.82,0,0,1,4.45-.37,21.6,21.6,0,0,1,7.54,2l.36.17a38.82,38.82,0,0,1-5,1.11" fill="#f210f9"/><path d="M1124.16,583.21A8,8,0,0,1,1123,578a5.28,5.28,0,0,1,2.17-3.67,5,5,0,0,1,3.26-.84,8.06,8.06,0,0,1,4.84,2.5c1.43,1.39,4.68-.18,4.38-2.15-.48-3.13.49-6.82,3-8.82a3.42,3.42,0,0,1,1.2-.62,2,2,0,0,1,1,0c1.79.51,3,2.2,3.94,3.72,1.88,3.26.76,7.72-.3,11.05s-2.59,6.67-3.84,10a76.15,76.15,0,0,1-9.16-1c-3.47-.67-7.23-1.93-9.29-5" fill="#ec008c"/><path d="M949.44,182.58c-8.08-1.94-22.56-4.59-24.59-14-2.32-11.23,11.06-15.59,17.38-6.69,0-10.14,11.3-17,16.76-6.5,4.29,8.22-5.32,19.16-9.55,27.15" fill="#29abe2"/><path d="M1019.64,173.18c-1.85-5.08-5.62-13.86-1.28-18.32,5.25-5.29,12.41.39,9.87,7,5.48-3.63,13.22,0,9.53,6.73-2.91,5.27-12.28,4-18.12,4.59" fill="#29abe2"/><path d="M844.62,752.8c-6.36.94-17.52,3.23-21.69-2.91-4.9-7.39,3.44-14.38,10.54-9.83-2.92-7.27,3.21-15.43,10.14-9.51,5.46,4.66,1.73,15.29,1,22.25" fill="#f400f4"/><path d="M808.76,724.54c-2.18-4.46-6.46-12.12-2.92-16.62,4.28-5.33,11.37-.83,9.68,5.45,4.66-3.84,12.08-1.24,9.35,5.24-2.15,5.09-10.83,4.83-16.11,5.93" fill="#ec008c"/><path d="M790.36,705.26c-2.19-.29-6.09-.58-6.88-3-.92-2.9,2.49-4.42,4.4-2.25-.28-2.67,2.51-4.79,4.24-2.18,1.36,2-.87,5.21-1.76,7.43" fill="#29abe2"/><path d="M453.42,443.51c-9.43-.65-26.07-.87-30.12-11-4.72-12.15,9.45-19.57,18.22-10.8-1.91-11.36,9.45-21.14,17.54-10.46,6.37,8.4-2.42,22.49-5.64,32.25" fill="#29abe2"/><path d="M453.42,443.51c-8.14-1.83-21.23-3.35-24.33-11.1-3.62-9.31,8.31-12.33,15-5.6-1.47-8.71,4.87-16,10.43-13,8.21,4.48,1,21.09-1.14,29.66" fill="#ff9cc2"/><path d="M1027.45,240.85c.88-8.45,1.59-23.39,10.82-26.72,11.06-3.86,17.29,9.1,9.13,16.71,10.27-1.36,18.71,9.15,8.85,16.09-7.74,5.46-20.13-2.88-28.8-6.08" fill="#7ac943"/><path d="M1027.45,240.85c1.89-7.25,3.67-19,10.73-21.51,8.48-3,10.82,7.85,4.57,13.68,7.87-1,14.22,4.88,11.32,9.79-4.28,7.24-19,.25-26.62-2" fill="#ff9cc2"/><path d="M904.49,665.57a17.61,17.61,0,0,0-10.21-6.34,20.21,20.21,0,0,0-19.12,5.39,2.81,2.81,0,0,0-2,1.37,23.31,23.31,0,0,0-1,2.76,20.24,20.24,0,0,0-1,2.27c-.16.45-.31.91-.45,1.37s.17,1,.68,1.24a16,16,0,0,0,1.46,7.23,18.14,18.14,0,0,0,9.93,9,18.42,18.42,0,0,0,14.08-.39,18.15,18.15,0,0,0,9.73-11.84,14.06,14.06,0,0,0-2.13-12.09m-5.77,17.76a14.48,14.48,0,0,1-1.78,1.89,14.85,14.85,0,0,1-1.6,1.11,8.45,8.45,0,0,1-3.73,1.13,12.24,12.24,0,0,1-4-.36,14.1,14.1,0,0,1-4.4-2c-5.57-3.63-7.46-10.19-5.85-16.29a14.59,14.59,0,0,1,2-2.78,11.09,11.09,0,0,1,4.52-3.06l0,0,.19-.06c.23-.08.47-.14.7-.21l.71-.17.4-.08c.43-.07.86-.11,1.28-.15l.73,0h.53a14.37,14.37,0,0,1,5.48,1.16,12.86,12.86,0,0,1,7.31,7.41c1.45,4.19.14,9.07-2.51,12.5" fill="#7ac943"/><path d="M1188.77,157.07c-3.93-5.4-10.32-8.91-16.73-10.4-11.49-2.67-23.56.71-31.35,8.84a4.64,4.64,0,0,0-3.25,2.25,37,37,0,0,0-1.62,4.53,31.09,31.09,0,0,0-1.64,3.71c-.27.74-.51,1.5-.75,2.25-.3,1,.29,1.64,1.13,2a25.91,25.91,0,0,0,2.4,11.84,29.68,29.68,0,0,0,16.27,14.8,30.15,30.15,0,0,0,23.09-.63c8-3.58,13.6-11.08,15.94-19.42a23,23,0,0,0-3.49-19.81m-9.46,29.12a25.08,25.08,0,0,1-2.91,3.1,25.61,25.61,0,0,1-2.63,1.82,13.8,13.8,0,0,1-6.1,1.85,20.07,20.07,0,0,1-6.57-.59,23.66,23.66,0,0,1-7.22-3.27c-9.13-5.95-12.23-16.69-9.59-26.7a24.61,24.61,0,0,1,3.23-4.56,18.31,18.31,0,0,1,7.42-5l.09,0,.3-.1,1.15-.34c.38-.11.77-.2,1.16-.29l.67-.12c.69-.11,1.39-.19,2.09-.24.4,0,.8,0,1.19-.07h.88a23.66,23.66,0,0,1,9,1.92,21,21,0,0,1,12,12.15c2.37,6.86.23,14.87-4.12,20.49" fill="#ec008c"/><path d="M724,175.2a9,9,0,0,0-11.19.14,1.91,1.91,0,0,0-.51.7,8.15,8.15,0,0,0,1.91,11c4,2.9,9.16,1.54,12-2.33,2.31-3.17.77-7.36-2.18-9.46m-1.67,7.22a4.68,4.68,0,0,1-2.6,1.78c.15,0-.54.05-.64.05h-.24l-.33-.06a3,3,0,0,1-.45-.12c.17.08.14.07-.11,0s-.87-.48-.72-.37a3.77,3.77,0,0,1-1.65-2.46,5.48,5.48,0,0,1,0-1.3,4.81,4.81,0,0,1,.63-1.63l.38-.26.19-.1.26-.09c.08,0,.67-.14.59-.14a5.78,5.78,0,0,1,.72,0h.21l.28,0a8.11,8.11,0,0,1,.85.21l.1,0,.37.16a8.84,8.84,0,0,1,.95.53c-.33-.21.31.26.38.31s.36.35.53.53c-.15-.16.26.36.3.43s.26.51.27.5a4.1,4.1,0,0,1,.14.5c-.08-.31,0,.34,0,.46a2.87,2.87,0,0,1-.39,1.07" fill="#7ac943"/><path d="M496.75,335.31c-5.32,11-22.74,4.88-17.46-6.91s22.78-4.79,17.46,6.91m-23.27-2.82c-4.66,2.34-10.5,8.17-6.22,13.61,3.89,4.67,10.11,1.17,14.39-1.55-1,4.66-.78,12.83,5.44,12.05,5.84-.39,7.78-8,7-12.83,10.11,13.22,18.28-6.61,7.39-9.33,11.67,3.5,11.67-13.61.39-10.89,10.89-3.5,1.17-19.44-10.11-7.39-1.17-4.27-1.55-10.5-8.17-9.33-6.22,1.17-6.41,7.78-3.3,12.05-11.86-6.8-20.8,9.53-6.81,13.61" fill="#29abe2"/><path d="M1126,667.43c-4.77,9.84-20.38,4.37-15.65-6.2s20.41-4.29,15.65,6.2m-20.85-2.53c-4.18,2.09-9.41,7.32-5.57,12.2,3.48,4.18,9.05,1,12.89-1.4-.87,4.18-.7,11.5,4.87,10.81,5.23-.35,7-7.15,6.28-11.5,9.06,11.84,16.37-5.93,6.62-8.37,10.45,3.14,10.45-12.19.35-9.75,9.75-3.14,1-17.42-9.06-6.62-1-3.83-1.4-9.41-7.32-8.36-5.58,1-5.75,7-3,10.8-10.63-6.1-18.64,8.53-6.1,12.19" fill="#a62ca2"/><path d="M966.69,751.46c-2.85,5.9-12.22,2.62-9.38-3.72s12.24-2.57,9.38,3.72m-12.5-1.52c-2.51,1.26-5.64,4.39-3.34,7.32,2.09,2.5,5.43.62,7.73-.84-.52,2.51-.42,6.89,2.92,6.48,3.14-.21,4.18-4.29,3.76-6.9,5.44,7.11,9.82-3.55,4-5,6.27,1.88,6.27-7.31.21-5.85,5.85-1.88.63-10.45-5.43-4-.63-2.3-.84-5.64-4.39-5-3.34.62-3.44,4.17-1.77,6.47-6.37-3.65-11.18,5.12-3.66,7.31" fill="#29abe2"/><path d="M781.19,160.54c-4.85,10-20.74,4.45-15.92-6.3s20.77-4.36,15.92,6.3M760,158c-4.25,2.13-9.57,7.45-5.67,12.41,3.55,4.26,9.22,1.07,13.12-1.42-.89,4.26-.71,11.7,5,11,5.32-.35,7.09-7.26,6.38-11.69,9.22,12.05,16.67-6,6.74-8.51,10.64,3.19,10.64-12.41.35-9.93,9.93-3.19,1.07-17.73-9.21-6.74-1.07-3.9-1.42-9.57-7.45-8.5-5.67,1.06-5.85,7.09-3,11-10.81-6.21-19,8.68-6.21,12.4" fill="#29abe2"/><path d="M331.33,182.22s-1.52,14.84-1.61,18.26c0,0-9.21,1.49-13,2.39a116.75,116.75,0,0,0,12,7.37s-1.51,11.43-1.68,14.46a51.14,51.14,0,0,0,10.62-12.25s9.94,3.82,13.57,5.28c0,0-4.18-9.8-4.71-11.84,0,0,5.29-6.2,8-10.26,0,0-10.85,1.18-13.88,1.75,0,0-8.93-14.82-9.25-15.16" fill="#fbbe00"/><path d="M338,201.26c.16.72-.05,1.37-.46,1.45s-.86-.42-1-1.13.05-1.36.45-1.45.87.42,1,1.13" fill="#581600"/><path d="M334.72,201.91c.16.72-.05,1.37-.46,1.46s-.86-.42-1-1.14.05-1.36.46-1.45.87.42,1,1.13" fill="#581600"/><path d="M331.15,204.75c.87,1.44,3.29,2.12,4.86,1.9,2-.27,4.13-1.43,4.62-3.53,0-.17-.2-.32-.3-.14a5.59,5.59,0,0,1-4.1,3.13c-2,.4-3.38-.7-5.06-1.4a0,0,0,0,0,0,0" fill="#581600"/><path d="M390.23,643.44s.58-11.59.83-14.58c0,0,6.51,9.43,8.25,13.91,0,0,13.75.2,16.52.48,0,0-6.41,7.52-8.36,9.35,0,0,2.18,12.19,2.89,14.58,0,0-8.85-5.09-12.25-7.41,0,0-6.68,8.26-9,10.17,0,0-1.3-10.26-1-15.46,0,0-11.55-5.56-15.15-7.32,0,0,14.81-3.23,17.22-3.72" fill="#ec008c"/><path d="M394.76,649c.13.69-.06,1.31-.42,1.38s-.76-.44-.89-1.14.06-1.31.43-1.38.76.45.88,1.14" fill="#581600"/><path d="M397.11,648.85c0,.7-.23,1.29-.6,1.31s-.69-.54-.73-1.25.23-1.29.6-1.31.7.54.73,1.25" fill="#581600"/><path d="M391,651.19c.33,2,2.92,3.15,4.77,2.93a5.46,5.46,0,0,0,4.34-3.52c.1-.25-.28-.46-.42-.22-.93,1.55-1.95,2.77-3.81,3.09-2.17.37-3.32-1.07-4.78-2.34,0,0-.11,0-.1.06" fill="#581600"/><path d="M1193.56,541.21c.22.63.17,1.22-.13,1.33s-.71-.33-.93-1-.16-1.22.13-1.32.71.32.93,1" fill="#581600"/><path d="M1196.21,540.44c.11.66,0,1.24-.35,1.29s-.65-.44-.76-1.1.05-1.23.36-1.28.64.44.75,1.09" fill="#581600"/><path d="M1190.47,543.16a5.2,5.2,0,0,0,4.52,1.54c1.91-.32,3.23-1.73,4.33-3.23.14-.21-.19-.46-.35-.27-1.12,1.28-2.07,2.49-3.79,2.95s-3.09-.52-4.63-1.13c-.09,0-.13.08-.08.14" fill="#581600"/><path d="M318.54,591.67v21.47a.37.37,0,0,1-.73,0V591.67a.37.37,0,0,1,.73,0" fill="#f8af00"/><path d="M328.07,603c-7,0-14-.37-21,.61-.46.06-.65-.63-.19-.7,7-1,14.08-.67,21.15-.64a.37.37,0,0,1,0,.73" fill="#f8af00"/><path d="M312.42,595.79c1.93,5.06,8,7.39,11.48,11.2.32.35-.19.86-.51.52-3.61-3.92-9.68-6.29-11.67-11.53-.17-.44.53-.63.7-.19" fill="#f8af00"/><path d="M324.46,596.41c-2.31,1.37-4.06,3.89-5.7,6-1.86,2.34-3.6,4.78-5.37,7.2-.28.38-.91,0-.63-.37,1.8-2.47,3.6-4.94,5.49-7.34,1.66-2.13,3.47-4.67,5.84-6.07a.37.37,0,0,1,.37.63" fill="#f8af00"/><path d="M326.47,627.79v15.29a.26.26,0,0,0,.51,0V627.79a.26.26,0,0,0-.51,0" fill="#e84f35"/><path d="M319.68,635.85c5,0,10-.27,14.92.43.33.05.47-.45.14-.5-5-.71-10-.47-15.06-.45a.26.26,0,0,0,0,.52" fill="#e84f35"/><path d="M330.82,630.72c-1.37,3.61-5.68,5.27-8.18,8-.22.25.14.61.37.37,2.58-2.8,6.89-4.48,8.31-8.21.12-.31-.38-.45-.5-.14" fill="#e84f35"/><path d="M322.25,631.16c1.64,1,2.89,2.77,4.06,4.24,1.32,1.67,2.56,3.41,3.82,5.13.2.26.65,0,.45-.27-1.29-1.75-2.56-3.51-3.91-5.22a16.6,16.6,0,0,0-4.16-4.32.26.26,0,0,0-.26.44" fill="#e84f35"/><path d="M540.49,714.49c.29,3.49.51,7.34.51,11.13l.43-.07c1.9-3.06,4.37-5.39,6.48-8.3a.57.57,0,0,1,.58.22c-1.38,3.06-4.44,5.6-5.89,8.37-.51.72-1.31,1.31-1.6,2,4.29.07,9.17-.44,13-.36-.37,1.3-1.82,1.09-2.91,1.23-3.06-.08-5.6.43-8.81.29l-.14.14c3,3.57,7.5,5.9,9.16,10.12a.53.53,0,0,1-.5.21c-2.91-3.63-6.4-6.18-9.6-9.45-.29,5.16.58,10.18-.15,15.56a2.64,2.64,0,0,1-.94-1.74c0-5-.29-9.6-.44-14.55l-1,1c-2.39,2.91-3.78,7.13-7.34,8.95l-.22-.08c.15-1.16,1.6-1.74,2-2.91l4.73-6.77c-1.1-.43-2.33,0-3.64,0-2.34-.28-4.73.23-7.06-.43-.22-.22-.66-.44-.44-.8,1.46-.51,3,.22,4.8.07,2.33-.14,4.74-.07,7.28-.36a118.41,118.41,0,0,1-8.73-9.16c.36-.66,1.09-.08,1.45.21,2.63,2.69,5.1,5.39,8,7.86l.14-.29c-.29-4.65-.14-9.75-.43-14.11,1.6-.73.65,1.52,1.16,2" fill="#ffcd00"/><path d="M478.54,561.69v23.55a.4.4,0,0,1-.8,0V561.69a.4.4,0,0,1,.8,0" fill="#ffcd00"/><path d="M489,574.1c-7.67,0-15.35-.41-23,.67-.5.07-.72-.7-.21-.77,7.7-1.09,15.45-.73,23.19-.71a.41.41,0,0,1,0,.81" fill="#ffcd00"/><path d="M471.83,566.2c2.12,5.55,8.75,8.11,12.6,12.29.34.38-.22.94-.57.56-4-4.29-10.61-6.89-12.8-12.63-.19-.48.59-.69.77-.22" fill="#ffcd00"/><path d="M485,566.89c-2.54,1.49-4.46,4.26-6.26,6.52-2,2.57-3.95,5.25-5.89,7.89-.3.42-1,0-.69-.4,2-2.71,3.95-5.42,6-8.06,1.83-2.33,3.81-5.11,6.41-6.64a.4.4,0,0,1,.41.69" fill="#ffcd00"/><path d="M1156.31,209.61v21.47a.37.37,0,0,1-.73,0V209.61a.37.37,0,0,1,.73,0" fill="#f8af00"/><path d="M1165.84,220.92c-7,0-14-.37-20.95.62-.46.06-.66-.64-.19-.7,7-1,14.08-.67,21.14-.65a.37.37,0,0,1,0,.73" fill="#f8af00"/><path d="M1150.19,213.72c1.94,5.06,8,7.4,11.49,11.21.32.35-.19.86-.52.51-3.61-3.91-9.67-6.29-11.67-11.52-.17-.44.54-.63.7-.2" fill="#f8af00"/><path d="M1162.24,214.35c-2.31,1.36-4.06,3.88-5.71,6-1.86,2.34-3.6,4.78-5.36,7.19-.28.38-.91,0-.63-.36,1.8-2.47,3.59-4.94,5.48-7.35,1.66-2.13,3.48-4.66,5.85-6.06a.37.37,0,0,1,.37.63" fill="#f8af00"/><path d="M1164.24,245.73V261a.26.26,0,0,0,.52,0V245.73a.26.26,0,0,0-.52,0" fill="#e84f35"/><path d="M1157.46,253.78c5,0,10-.26,14.92.44.32.05.46-.45.13-.5-5-.71-10-.47-15-.45a.25.25,0,1,0,0,.51" fill="#e84f35"/><path d="M1168.6,248.66c-1.38,3.6-5.68,5.27-8.18,8-.23.24.14.61.36.37,2.58-2.8,6.89-4.48,8.32-8.21.11-.32-.39-.45-.5-.14" fill="#e84f35"/><path d="M1160,249.1c1.65,1,2.89,2.77,4.06,4.24,1.33,1.67,2.57,3.4,3.83,5.13.19.26.64,0,.44-.27-1.28-1.75-2.56-3.51-3.9-5.23-1.19-1.51-2.48-3.32-4.17-4.32-.29-.17-.54.28-.26.45" fill="#e84f35"/><path d="M1271.7,296.43c.29,3.49.51,7.34.51,11.13l.43-.07c1.9-3.06,4.37-5.39,6.48-8.3a.55.55,0,0,1,.58.22c-1.38,3.06-4.43,5.6-5.89,8.36-.5.73-1.31,1.32-1.6,2.05,4.29.07,9.17-.45,13-.37-.36,1.31-1.82,1.09-2.91,1.24-3-.08-5.6.43-8.8.29l-.14.14c3,3.57,7.49,5.89,9.16,10.11a.53.53,0,0,1-.51.22c-2.91-3.63-6.39-6.18-9.6-9.45-.29,5.16.58,10.18-.15,15.56a2.76,2.76,0,0,1-.94-1.74c0-4.95-.29-9.6-.43-14.55l-1,1c-2.4,2.91-3.79,7.13-7.35,8.94l-.22-.07c.15-1.17,1.6-1.74,2-2.91l4.73-6.77c-1.1-.43-2.33,0-3.64,0-2.33-.28-4.73.22-7.06-.43-.21-.22-.65-.44-.43-.8,1.45-.51,3,.22,4.79.07,2.33-.14,4.74-.07,7.28-.36a118.56,118.56,0,0,1-8.73-9.17c.36-.65,1.1-.07,1.45.22,2.63,2.69,5.1,5.39,8,7.86l.14-.29c-.29-4.66-.14-9.75-.43-14.11,1.6-.73.65,1.52,1.16,2" fill="#ffcd00"/><path d="M256.11,313.19c.29,3.49.51,7.34.51,11.13l.43-.07c1.9-3.06,4.37-5.39,6.48-8.3a.55.55,0,0,1,.58.22c-1.38,3.06-4.44,5.6-5.89,8.37-.51.72-1.31,1.31-1.6,2,4.29.07,9.17-.44,13-.36-.36,1.3-1.82,1.09-2.91,1.23-3.06-.08-5.6.43-8.81.29l-.14.14c3,3.57,7.5,5.9,9.16,10.11a.51.51,0,0,1-.5.22c-2.91-3.63-6.4-6.18-9.6-9.45-.29,5.16.58,10.18-.15,15.56a2.73,2.73,0,0,1-.94-1.74c0-4.95-.29-9.6-.44-14.55l-.94,1C252,332,250.58,336.18,247,338l-.22-.07c.15-1.16,1.6-1.74,2-2.91l4.73-6.77c-1.1-.43-2.33,0-3.64,0-2.33-.28-4.73.23-7.06-.43-.21-.22-.65-.44-.44-.8,1.46-.51,3,.22,4.8.07,2.33-.14,4.74-.07,7.28-.36a118.41,118.41,0,0,1-8.73-9.16c.36-.66,1.1-.08,1.45.21,2.63,2.69,5.1,5.39,8,7.86l.14-.29c-.29-4.65-.14-9.75-.43-14.11,1.6-.73.65,1.52,1.16,2" fill="#ffcd00"/><path d="M1288.2,196.65v23.54a.4.4,0,0,1-.8,0V196.65a.4.4,0,0,1,.8,0" fill="#ffcd00"/><path d="M1298.65,209.05c-7.67,0-15.36-.4-23,.68-.5.06-.72-.7-.21-.77,7.69-1.1,15.45-.74,23.19-.71a.4.4,0,0,1,0,.8" fill="#ffcd00"/><path d="M1281.49,201.16c2.12,5.55,8.75,8.11,12.59,12.29.35.37-.21.94-.56.56-4-4.3-10.61-6.9-12.8-12.64-.19-.48.59-.68.77-.21" fill="#ffcd00"/><path d="M1294.7,201.84c-2.54,1.5-4.46,4.26-6.26,6.53-2,2.57-4,5.24-5.89,7.89-.3.41-1,0-.69-.41,2-2.7,4-5.41,6-8,1.83-2.33,3.81-5.11,6.41-6.65a.4.4,0,0,1,.41.69" fill="#ffcd00"/><path d="M1051.58,681.67c2.66-1.5,7.79-2.66,8.91.38,1.32,3.62-4.58,4.65-7.87,3.22,1.71,1,5.1,4.37,3.54,6.4-2.28,3-6.19-1.26-7.06-3.79-.68,3.56-5.41,10.22-7.51,4.46-.86-2.37.68-4.91,5-7.72-4.26-1.65-7.64-5.21-5.2-7.88,1.63-1.8,6,1.24,7.35,4.12-.61-2.53.56-11.71,5-9.27,3.82,2.1-2.11,10.08-2.11,10.08" fill="#4e3f87"/><path d="M1168.61,685.19c.33,2.54.62,5.36.74,8.13l.32-.07c1.29-2.3,3-4.08,4.47-6.28a.4.4,0,0,1,.43.14c-.91,2.28-3.06,4.24-4,6.31a9.33,9.33,0,0,0-1.11,1.55c3.14-.09,6.69-.63,9.51-.7-.22,1-1.29.86-2.08,1-2.24,0-4.09.49-6.43.5l-.11.11c2.3,2.51,5.68,4.06,7,7.1a.39.39,0,0,1-.36.17c-2.25-2.57-4.89-4.32-7.34-6.6,0,3.79.76,7.43.41,11.39a2,2,0,0,1-.75-1.24c-.16-3.62-.53-7-.8-10.64l-.66.78c-1.66,2.21-2.53,5.34-5.08,6.79l-.16,0c.07-.85,1.11-1.32,1.39-2.19l3.24-5.11a7.6,7.6,0,0,0-2.66.12c-1.71-.13-3.45.32-5.18-.09-.16-.15-.49-.29-.34-.57,1-.42,2.19.06,3.51-.1,1.7-.18,3.46-.21,5.31-.51a87.73,87.73,0,0,1-6.69-6.41c.25-.5.8-.1,1.07.1,2,1.89,3.91,3.78,6.12,5.49l.09-.22c-.36-3.39-.42-7.12-.78-10.31,1.15-.58.53,1.1.91,1.4" fill="#312782"/><path d="M1278.83,676.59c.23,2.79.41,5.89.41,8.92l.35,0c1.52-2.46,3.5-4.32,5.18-6.65a.44.44,0,0,1,.47.17c-1.1,2.45-3.55,4.49-4.72,6.7a10.92,10.92,0,0,0-1.28,1.64c3.44,0,7.34-.36,10.43-.29-.29,1.05-1.45.87-2.33,1-2.45-.06-4.49.34-7,.23l-.12.11c2.39,2.86,6,4.73,7.34,8.11a.42.42,0,0,1-.4.17c-2.34-2.91-5.13-4.95-7.69-7.58-.24,4.14.46,8.16-.12,12.48a2.25,2.25,0,0,1-.76-1.4c0-4-.23-7.69-.35-11.66l-.75.82c-1.93,2.33-3,5.71-5.89,7.17l-.18-.07c.12-.93,1.29-1.39,1.64-2.32l3.78-5.43c-.87-.34-1.86,0-2.91,0-1.87-.23-3.79.18-5.66-.34-.17-.18-.52-.35-.34-.65,1.16-.4,2.39.18,3.84.06,1.87-.11,3.79-.06,5.83-.29a93.49,93.49,0,0,1-7-7.34c.29-.53.87-.06,1.16.17,2.1,2.16,4.08,4.32,6.41,6.3l.12-.23c-.23-3.73-.12-7.81-.35-11.31,1.28-.58.52,1.23.93,1.57" fill="#89d1f5"/><path d="M308.27,443.31c.23,2.79.41,5.89.41,8.92l.35-.05c1.52-2.46,3.5-4.32,5.18-6.65a.44.44,0,0,1,.47.17c-1.1,2.45-3.55,4.49-4.72,6.7a10.92,10.92,0,0,0-1.28,1.64c3.44,0,7.34-.36,10.43-.29-.29,1.05-1.45.87-2.33,1-2.45-.06-4.49.34-7,.23l-.12.11c2.39,2.86,6,4.73,7.34,8.11a.42.42,0,0,1-.4.17c-2.34-2.91-5.13-4.95-7.69-7.58-.24,4.14.46,8.16-.12,12.48a2.25,2.25,0,0,1-.76-1.4c0-4-.23-7.69-.35-11.66l-.75.82c-1.93,2.33-3,5.71-5.89,7.17l-.18-.07c.12-.93,1.29-1.39,1.64-2.32l3.78-5.43c-.87-.34-1.86,0-2.91,0-1.87-.23-3.79.18-5.66-.34-.17-.18-.52-.35-.34-.65,1.16-.4,2.39.18,3.84.06,1.87-.11,3.79-.06,5.83-.29a93.49,93.49,0,0,1-7-7.34c.29-.53.87-.06,1.16.17,2.1,2.16,4.08,4.32,6.41,6.3l.12-.23c-.23-3.73-.12-7.81-.35-11.31,1.28-.58.52,1.23.93,1.57" fill="#89d1f5"/><path d="M260.3,157.74c.23,2.8.41,5.89.41,8.92l.35,0c1.51-2.46,3.5-4.32,5.18-6.65a.45.45,0,0,1,.47.17c-1.1,2.45-3.56,4.49-4.72,6.7-.41.58-1.05,1-1.28,1.64,3.44.05,7.34-.35,10.43-.29-.29,1-1.46.87-2.33,1-2.45-.06-4.49.35-7.06.23l-.11.12c2.39,2.85,6,4.72,7.34,8.1a.43.43,0,0,1-.4.17c-2.34-2.91-5.13-4.95-7.69-7.58-.24,4.14.46,8.17-.13,12.48a2.24,2.24,0,0,1-.75-1.4c0-4-.23-7.69-.35-11.66l-.76.82c-1.92,2.33-3,5.71-5.88,7.17l-.18-.07c.12-.93,1.28-1.39,1.63-2.32l3.79-5.43c-.87-.34-1.86,0-2.91,0-1.87-.23-3.79.18-5.66-.34-.17-.18-.52-.35-.34-.65,1.16-.4,2.39.18,3.84.06,1.86-.11,3.79-.06,5.83-.29a91.68,91.68,0,0,1-7-7.34c.29-.52.87-.06,1.16.17,2.1,2.16,4.08,4.32,6.41,6.3l.12-.23c-.24-3.73-.12-7.81-.35-11.31,1.28-.58.52,1.23.93,1.57" fill="#89d1f5"/><path d="M1253.27,435.58c.24,2.79.41,5.88.41,8.91l.35-.05c1.52-2.46,3.5-4.32,5.19-6.65a.46.46,0,0,1,.47.17c-1.11,2.45-3.56,4.49-4.72,6.7a11.39,11.39,0,0,0-1.29,1.64c3.44.06,7.34-.35,10.43-.29-.29,1.05-1.45.87-2.33,1-2.44-.06-4.49.35-7,.23l-.11.12c2.38,2.85,6,4.72,7.33,8.1a.42.42,0,0,1-.4.17c-2.33-2.91-5.13-4.95-7.69-7.58-.23,4.14.47,8.17-.12,12.48a2.22,2.22,0,0,1-.76-1.4c0-4-.23-7.69-.34-11.66l-.76.82c-1.92,2.33-3,5.71-5.89,7.17l-.17-.07c.11-.93,1.28-1.39,1.63-2.32l3.79-5.43c-.87-.34-1.87,0-2.92,0-1.86-.23-3.79.18-5.66-.34-.17-.18-.52-.35-.34-.65,1.17-.4,2.39.18,3.84.06,1.87-.11,3.8-.06,5.83-.29a91.77,91.77,0,0,1-7-7.34c.29-.52.88-.06,1.16.18,2.11,2.15,4.08,4.31,6.42,6.29l.11-.23c-.23-3.73-.11-7.81-.35-11.3,1.29-.59.53,1.22.93,1.57" fill="#89d1f5"/></svg>