<svg id="Layer_1" data-name="Layer 1" xmlns="http://www.w3.org/2000/svg" viewBox="0 0 270 270"><path d="M121.52,144.35s5.36,6.48,12.84,8.92,18.73-8.2,18.73-8.2" fill="#f9d1c6"/><path d="M121.52,144.35a50,50,0,0,0,7.4,5.39,27.68,27.68,0,0,0,4,2c.34.15.69.27,1,.39a9.85,9.85,0,0,0,1,.33,6.8,6.8,0,0,0,2,.19,13.07,13.07,0,0,0,4.19-.87,31.52,31.52,0,0,0,4.09-1.82,83.29,83.29,0,0,0,7.8-4.86,32.45,32.45,0,0,1-7,6.2,18.27,18.27,0,0,1-9,3.35,8.38,8.38,0,0,1-2.57-.31,18.53,18.53,0,0,1-2.29-.86,23,23,0,0,1-4.13-2.41A26.35,26.35,0,0,1,121.52,144.35Z" fill="#49442e"/><circle cx="92.13" cy="111.82" r="21.79" fill="#f7f3f0"/><path d="M70.39,111.82a21.78,21.78,0,0,0,6.46,15.28,21.3,21.3,0,0,0,30.14-.43A21.31,21.31,0,0,0,107,97a21.3,21.3,0,0,0-30.14-.43A21.69,21.69,0,0,0,70.39,111.82Zm-.1,0a21.85,21.85,0,1,1,6.39,15.45A22,22,0,0,1,70.29,111.82Z" fill="#342517"/><circle cx="91.47" cy="111.56" r="11.68" fill="#0c1618"/><circle cx="100.04" cy="105.8" r="3.2" fill="#f7f3f0"/><circle cx="181.51" cy="112.19" r="21.79" fill="#f7f3f0"/><path d="M203.35,112.19A22,22,0,0,1,197,127.72a22.24,22.24,0,0,1-31.48.43,22.25,22.25,0,0,1,0-31.91,22.26,22.26,0,0,1,31.48.42A22,22,0,0,1,203.35,112.19Zm-.1,0a21.73,21.73,0,1,0-6.38,15.36A21.75,21.75,0,0,0,203.25,112.19Z" fill="#342517"/><circle cx="182.17" cy="111.94" r="11.68" fill="#0c1618"/><circle cx="190.15" cy="106.4" r="3.2" fill="#f7f3f0"/><path d="M171.22,196.85c0,5.89-3.29,7.24-8.52,7-6.07-.28-14.76-2.71-24-2.71-10.42,0-20.32,3.25-26.47,3-4-.19-6.4-1.87-6.4-6.87,0-7.33,2.9-17,10-23.67,5.19-4.91,12.63-8.19,22.82-7.72,9.8.46,17,3.6,22.16,8A30.72,30.72,0,0,1,171.22,196.85Z" fill="#ea8a5a"/><path d="M171.22,195.83c0,4.84-3.29,5.94-8.52,5.73-6.07-.23-14.76-2.23-24-2.23-10.42,0-20.32,2.67-26.47,2.44-4-.16-6.4-1.53-6.4-5.64a25.37,25.37,0,0,1,10-19.43c5.19-4,12.63-6.73,22.82-6.34,9.8.38,17,2.95,22.16,6.6C168.2,182.21,171.22,189.66,171.22,195.83Z" fill="#5a0502"/><path d="M160.8,177c-22.08,6.69-38.51,2.2-45-.26,5.19-4,12.63-6.73,22.82-6.34C148.44,170.74,155.67,173.31,160.8,177Z" fill="#fff"/><path d="M162.7,201.56c-6.07-.23-14.76-2.23-24-2.23-10.42,0-20.32,2.67-26.47,2.44,1.58-7.14,12.28-12.65,25.24-12.65S161,194.52,162.7,201.56Z" fill="#db4545"/><path d="M169.69,65.9A41.56,41.56,0,0,0,192,78.84c14.19,2.88,16.9,2.88,16.9,2.88s-24.44,12.08-40.13-4.6C168.79,77.12,162.45,72.51,169.69,65.9Z" fill="#0b0000"/><path d="M100.31,66.9A41.56,41.56,0,0,1,78,79.84c-14.19,2.88-16.9,2.88-16.9,2.88s24.44,12.08,40.13-4.6C101.21,78.12,107.55,73.51,100.31,66.9Z" fill="#0b0000"/></svg>