<svg id="Layer_1" data-name="Layer 1" xmlns="http://www.w3.org/2000/svg" viewBox="0 0 270 270"><g id="Expressions"><path d="M122.14,141.17s5,6.12,12.11,8.42,17.67-7.74,17.67-7.74" fill="#f9d1c6"/><path d="M122.14,141.17a47.58,47.58,0,0,0,7,5.06,26.89,26.89,0,0,0,3.78,1.84c.33.14.65.25,1,.37a5.75,5.75,0,0,0,1,.29c.31.05.61.13.92.17h1a12.31,12.31,0,0,0,3.94-.81c.66-.2,1.3-.51,1.95-.77s1.28-.59,1.9-.94a76.44,76.44,0,0,0,7.39-4.54,30.19,30.19,0,0,1-6.6,5.89,17.17,17.17,0,0,1-8.53,3.17l-1.22,0c-.4-.06-.81-.17-1.21-.26a6.69,6.69,0,0,1-1.12-.36,8.16,8.16,0,0,1-1.06-.44,21.55,21.55,0,0,1-3.89-2.28A24.45,24.45,0,0,1,122.14,141.17Z" fill="#49442e"/><path d="M170.89,187.67a6.4,6.4,0,0,1-2.38.3c-6.13-.23-16.72-6.39-31.56-5.84-14.08.54-31.84,7.32-37.68,3.82a3.54,3.54,0,0,1-.51-.35c-1.3-1-.07-5.51.34-7.71a30.57,30.57,0,0,1,3.66-10.11c4.75-8,13.78-12.36,28.32-1.46,11.65,8.73,25-18,36,.23a51.47,51.47,0,0,1,4.7,11.34C172.63,180.72,172.9,186.94,170.89,187.67Z" fill="#ea8a5a"/><path d="M170.89,185.7a7.69,7.69,0,0,1-2.38.26c-6.13-.2-16.72-5.41-31.56-5-14.08.46-31.84,6.19-37.68,3.24a4.27,4.27,0,0,1-.51-.3c-1.3-.89-.07-4.66.34-6.52a23.48,23.48,0,0,1,3.66-8.56c4.75-6.76,13.78-10.45,28.32-1.23,11.65,7.38,25-15.27,36,.19a40.4,40.4,0,0,1,4.7,9.6C172.63,179.82,172.9,185.08,170.89,185.7Z" fill="#6b0e30"/><path d="M168.51,186c-6.13-.2-16.72-5.41-31.56-5-14.08.46-31.84,6.19-37.68,3.24,10-9.4,25.61-11.18,25.61-11.18a52.78,52.78,0,0,0-22.12-4.2c4.75-6.76,13.78-10.45,28.32-1.23,11.65,7.38,25-15.27,36,.19-5.78,4.75-15.76,6.66-15.76,6.66l.46.16C162.75,178.61,166.93,183.15,168.51,186Z" fill="#fff"/><path d="M120.64,172.31q4.53.58,9.06,1.08c3,.32,6.05.62,9.08.8s6.06.31,9.09.27a31,31,0,0,0,9-1.17,26.1,26.1,0,0,1-9,1.75,80.14,80.14,0,0,1-9.17-.1c-3-.25-6.08-.54-9.1-1S123.61,173,120.64,172.31Z" fill="#6b0e30"/><path d="M173.58,169.85a78,78,0,0,1,3,10.3S177.64,175.21,173.58,169.85Z" fill="#ea8a5a"/><path d="M97.86,171.15a81.76,81.76,0,0,0-2.93,10.3S94,176.52,97.86,171.15Z" fill="#ea8a5a"/><path d="M197.07,88c3.11,1.12,15.78,33-19.8,32.43-21.2-.31-33-25.39-28.62-16.65.92,1.86,20.55-15.24,33.84-15.24S185.19,83.79,197.07,88Z" fill="#f7f3f0"/><path d="M197.09,88a4.32,4.32,0,0,1,1.47,1.65,16.7,16.7,0,0,1,1,2A27,27,0,0,1,201,95.8a25.9,25.9,0,0,1,.81,8.81,16.53,16.53,0,0,1-3,8.3,16.89,16.89,0,0,1-7,5.48,30,30,0,0,1-8.63,2.22,44.38,44.38,0,0,1-8.93.18,33,33,0,0,1-16.43-6.92,50.1,50.1,0,0,1-6.58-6.11q-1.51-1.67-2.88-3.44l-1.31-1.74s0,0,0,0,0,0,.09.08c.38.66,2.24-1.29,1.39-.9l0-.07s0,0,0,.07l.12.22.24.49.26.5.12.24.06.13s0,.06,0,0a.38.38,0,0,0-.12-.16.52.52,0,0,0-.38-.18H149l.39-.14a8.51,8.51,0,0,0,.91-.45c.63-.33,1.25-.71,1.88-1.09L155.92,99c2.5-1.57,5-3.12,7.61-4.57a69.24,69.24,0,0,1,8-3.89,33.45,33.45,0,0,1,8.66-2.35,17.18,17.18,0,0,1,2.27-.12c.73,0,1.46,0,2.19,0a13.48,13.48,0,0,0,4.27-.57,2.51,2.51,0,0,0,.87-.54c.26-.22.38-.61.83-.82a2.2,2.2,0,0,1,1.17,0c.37.08.73.18,1.08.29C194.32,87,195.7,87.47,197.09,88Zm0,.09c-1.39-.49-2.78-1-4.19-1.4-.35-.1-.71-.2-1.07-.27a2.08,2.08,0,0,0-1,0c-.32.13-.46.52-.74.78a3.12,3.12,0,0,1-.93.63,13.8,13.8,0,0,1-4.36.77c-1.47.1-3,0-4.41.21a32.8,32.8,0,0,0-8.44,2.45,75.74,75.74,0,0,0-7.9,4c-2.56,1.45-5.06,3-7.54,4.6l-3.74,2.37c-.62.39-1.26.78-1.9,1.13-.33.18-.66.35-1,.5a4.29,4.29,0,0,1-.54.19.7.7,0,0,1-.62-.06,10.85,10.85,0,0,1-.52-1l-.25-.5-.12-.25-.06-.13v0c-.11,0,.11-.2.16-.11l.07.06,1.32,1.78q1.33,1.76,2.81,3.41a49.58,49.58,0,0,0,6.42,6,32.67,32.67,0,0,0,16,7,42.53,42.53,0,0,0,8.81,0,29.82,29.82,0,0,0,8.54-2.08,16.55,16.55,0,0,0,6.91-5.29,16.3,16.3,0,0,0,3-8.18,25.32,25.32,0,0,0-.76-8.75,27.76,27.76,0,0,0-1.41-4.18,18.06,18.06,0,0,0-1-2A4.3,4.3,0,0,0,197.05,88.08Z" fill="#342517"/><circle cx="177.76" cy="103.95" r="11.02" fill="#0c1618"/><circle cx="186.88" cy="105.37" r="3.02" fill="#f7f3f0"/><path d="M144.3,93.78s0,19.64,13.55,15S175.13,85,199.42,89.14c0,0-9.81-17-37.84,2.58C161.58,91.72,149.91,101.53,144.3,93.78Z" fill="#0a1517"/><path d="M71.74,88.92c-2.93,1.22-8.78,35.44,24.64,34.86,19.92-.35,26.75-15.72,28.7-17.14,1.79-1.3-21.66-16.47-34.15-16.47S82.9,84.28,71.74,88.92Z" fill="#f7f3f0"/><path d="M71.76,89a1.8,1.8,0,0,0-.69.84,7.9,7.9,0,0,0-.44,1,17,17,0,0,0-.58,2.2,29.81,29.81,0,0,0-.53,4.52,31.4,31.4,0,0,0,.94,9,23.14,23.14,0,0,0,3.84,8.15,20,20,0,0,0,6.91,5.7,26.87,26.87,0,0,0,8.6,2.56,38.71,38.71,0,0,0,9,.13,31.39,31.39,0,0,0,8.68-2.1,31.82,31.82,0,0,0,7.66-4.49,35.77,35.77,0,0,0,6.16-6.43c.45-.59.89-1.2,1.33-1.82s.85-1.23,1.42-1.9l.25-.27.17-.14s.1-.08,0,0a1,1,0,0,0-.14.15.62.62,0,0,0-.09.48s0,0,0,0a4.7,4.7,0,0,0-.6-.69,20.87,20.87,0,0,0-1.66-1.41,90.3,90.3,0,0,0-15.56-9.14C101,92.76,95.27,90.5,89.18,90.55a20.23,20.23,0,0,1-4.56-.83,25.52,25.52,0,0,1-4.17-1.92,6.4,6.4,0,0,0-4.38-.27A30.28,30.28,0,0,0,71.76,89Zm0-.1A30.9,30.9,0,0,1,76,87.38a6.54,6.54,0,0,1,4.51.22,23.23,23.23,0,0,0,4.17,1.8,20.63,20.63,0,0,0,4.49.66c.76,0,1.52,0,2.29,0a22,22,0,0,1,2.28.21,34.16,34.16,0,0,1,4.46,1,65.21,65.21,0,0,1,8.55,3.22c2.77,1.25,5.49,2.65,8.13,4.16a71.17,71.17,0,0,1,7.67,5,19,19,0,0,1,1.76,1.47,5,5,0,0,1,.77.88.65.65,0,0,1,.11.63c-.18.19-.29.26-.42.42-1,1.15-1.79,2.45-2.73,3.64a36.86,36.86,0,0,1-6.37,6.54,30.85,30.85,0,0,1-7.93,4.51,32.49,32.49,0,0,1-8.91,2,40.92,40.92,0,0,1-9.12-.27,27.2,27.2,0,0,1-8.7-2.71,20.33,20.33,0,0,1-6.93-5.87,23.37,23.37,0,0,1-3.84-8.24,31.15,31.15,0,0,1-.89-9.07A29,29,0,0,1,69.93,93a17.6,17.6,0,0,1,.59-2.21,8.73,8.73,0,0,1,.45-1A2,2,0,0,1,71.72,88.87Z" fill="#342517"/><circle cx="91.87" cy="105.73" r="12.05" fill="#0c1618"/><circle cx="81.9" cy="107.28" r="3.3" fill="#f7f3f0"/><path d="M128.44,94.61s0,21.46-14.8,16.38S94.74,85,68.19,89.53c0,0,10.73-18.64,41.36,2.82C109.55,92.35,122.32,103.08,128.44,94.61Z" fill="#0a1517"/></g></svg>