<svg id="Layer_1" data-name="Layer 1" xmlns="http://www.w3.org/2000/svg" xmlns:xlink="http://www.w3.org/1999/xlink" viewBox="0 0 500 525"><defs><linearGradient id="linear-gradient" x1="249.99" y1="-37.02" x2="249.99" y2="516.08" gradientUnits="userSpaceOnUse"><stop offset="0" stop-color="#e5e5e5"/><stop offset="1" stop-color="#00c7e2"/></linearGradient></defs><path d="M394.4,501c-3.46.55-6.93,1-10.36,1.43-82.9,10.25-177,10.36-260,.34-18.15-2.2-37.41-5.4-51-17.64-15-13.5-19.62-34.8-23-54.68a1350.89,1350.89,0,0,1-19-243.88C31.45,156,24.93,95.75,41.92,69c15.29-24.09,49.75-33.2,76-35.66,97.39-9.13,194.23-7.19,292.15-2.79,15.35.69,31.49,1.86,44.34,10.3,24.4,16,28,50.22,27.34,79.39-2.29,103.81-3.31,207.42-22.9,309.39-3.91,20.36-9,42.2-24.73,55.75C423.19,494.8,408.87,498.66,394.4,501Z" opacity="0.5"/><path d="M388.4,495c-3.46.55-6.93,1-10.36,1.43-82.9,10.25-177,10.36-260,.34-18.15-2.2-37.41-5.4-51-17.64-15-13.5-19.62-34.8-23-54.68a1350.89,1350.89,0,0,1-19-243.88C25.45,150,18.93,89.75,35.92,63c15.29-24.09,49.75-33.2,76-35.66,97.39-9.13,194.23-7.19,292.15-2.79,15.35.69,31.49,1.86,44.34,10.3,24.4,16,28,50.22,27.34,79.39-2.29,103.81-3.31,207.42-22.9,309.39-3.91,20.36-9,42.2-24.73,55.75C417.19,488.8,402.87,492.66,388.4,495Z" fill="#00b2ed" stroke="#fff" stroke-miterlimit="10" stroke-width="0.5"/><path d="M380.77,481.13c-3.26.51-6.52.95-9.75,1.35-78,9.64-167.12,9.74-245.11.31-17.08-2.07-35.19-5.08-48-16.59-14.1-12.7-18.45-32.72-21.64-51.42A1270.93,1270.93,0,0,1,38.43,185.4C38.8,156.64,32.67,100,48.64,74.85,63,52.19,95.44,43.62,120.14,41.3c91.6-8.58,182.68-6.76,274.77-2.63,14.45.65,29.63,1.76,41.71,9.7C459.57,63.43,462.94,95.6,462.34,123c-2.15,97.64-2.52,195.09-20.95,291-3.68,19.15-8.49,39.69-23.26,52.43C407.85,475.34,394.37,479,380.77,481.13Z" fill="#01687f"/><path d="M378.31,476.68c-3.19.51-6.39.93-9.55,1.32-76.38,9.45-163.92,9.55-240.33.31-16.73-2-34.47-5-47-16.25C67.63,449.62,63.36,430,60.24,411.68A1244.93,1244.93,0,0,1,42.74,187c.36-28.16-5.65-83.64,10-108.3,14.09-22.2,45.84-30.59,70-32.86,89.73-8.41,179-6.62,269.19-2.57,14.14.63,29,1.72,40.86,9.49C455.31,67.48,458.61,99,458,125.88,455.91,221.53,455.76,317,437.7,411c-3.6,18.76-8.32,38.88-22.78,51.36C404.84,471,391.64,474.57,378.31,476.68Z" fill="url(#linear-gradient)"/></svg>