<svg id="Layer_1" data-name="Layer 1" xmlns="http://www.w3.org/2000/svg" viewBox="0 0 270 270"><g id="Expression"><path d="M120.06,145.37s5.3,6.41,12.7,8.83,18.53-8.11,18.53-8.11" fill="#f9d1c6"/><path d="M120.06,145.37a49.47,49.47,0,0,0,7.32,5.33,28.17,28.17,0,0,0,4,2c.34.14.68.26,1,.38a5.75,5.75,0,0,0,1,.31c.33,0,.65.14,1,.19h1a13.25,13.25,0,0,0,4.14-.86c.7-.21,1.36-.54,2-.81s1.34-.63,2-1a79.38,79.38,0,0,0,7.72-4.79,32.22,32.22,0,0,1-6.93,6.13,18,18,0,0,1-8.93,3.32l-1.27,0c-.42-.06-.85-.18-1.27-.27a6.68,6.68,0,0,1-1.17-.38,8.75,8.75,0,0,1-1.1-.45,22.14,22.14,0,0,1-4.08-2.39A25.84,25.84,0,0,1,120.06,145.37Z" fill="#49442e"/><ellipse cx="92.1" cy="116.53" rx="20.05" ry="23.23" fill="#f7f3f0"/><path d="M72.1,116.53a25.31,25.31,0,0,0,5.47,15.69,20.05,20.05,0,0,0,6.5,5.23,17.28,17.28,0,0,0,8,1.83,17.06,17.06,0,0,0,7.88-2.12,20.09,20.09,0,0,0,6.18-5.31,25.59,25.59,0,0,0,0-30.63A20.2,20.2,0,0,0,100,95.9a17.14,17.14,0,0,0-7.89-2.12,17.41,17.41,0,0,0-8,1.84,19.79,19.79,0,0,0-6.5,5.22A25.36,25.36,0,0,0,72.1,116.53Zm-.1,0a25.52,25.52,0,0,1,5.39-15.83,20.6,20.6,0,0,1,6.5-5.42,17.5,17.5,0,0,1,16.42,0,20.4,20.4,0,0,1,6.52,5.41,25.9,25.9,0,0,1,0,31.71,20.53,20.53,0,0,1-6.52,5.41,17.5,17.5,0,0,1-16.42,0,20.6,20.6,0,0,1-6.5-5.42A25.54,25.54,0,0,1,72,116.53Z" fill="#342517"/><ellipse cx="91.49" cy="116.27" rx="10.75" ry="12.45" fill="#0c1618"/><ellipse cx="99.38" cy="110.13" rx="2.94" ry="3.41" fill="#f7f3f0"/><path d="M108.72,65.43s3.5,9.72-3.78,11.88-16.47-2.7-34.82,4.58l-5.94-.81S75.25,59.22,108.72,65.43Z" fill="#0c1618"/><ellipse cx="177.41" cy="115.51" rx="19.88" ry="23.51" fill="#f7f3f0"/><path d="M197.34,115.51a26.22,26.22,0,0,1-5.18,16,21.2,21.2,0,0,1-6.42,5.68,17.43,17.43,0,0,1-16.81.28,20.79,20.79,0,0,1-6.74-5.59,26.91,26.91,0,0,1,0-32.76,20.89,20.89,0,0,1,6.74-5.58,17.43,17.43,0,0,1,16.81.28,21.16,21.16,0,0,1,6.42,5.67A26.24,26.24,0,0,1,197.34,115.51Zm-.1,0A26,26,0,0,0,192,99.65a20.22,20.22,0,0,0-6.41-5.48,16.88,16.88,0,0,0-16.29,0,20.33,20.33,0,0,0-6.4,5.48,26.59,26.59,0,0,0,0,31.7,20.23,20.23,0,0,0,6.4,5.49,17,17,0,0,0,16.29,0,20.48,20.48,0,0,0,6.41-5.48A26.06,26.06,0,0,0,197.24,115.51Z" fill="#342517"/><ellipse cx="178.01" cy="115.24" rx="10.66" ry="12.6" fill="#0c1618"/><ellipse cx="185.29" cy="109.27" rx="2.92" ry="3.45" fill="#f7f3f0"/><path d="M161.28,64.13s-3.5,9.72,3.78,11.88,16.47-2.7,34.82,4.58l5.94-.81S194.75,57.92,161.28,64.13Z" fill="#0c1618"/><path d="M93.6,165.45s10.3,39,40.44,41.53c0,0,33.63.14,39.47-41.76C173.51,165.22,136.5,190.26,93.6,165.45Z" fill="#f5968e"/><path d="M93.6,164.75s9.54,32.2,39.67,34.71c0,0,32.4-.61,40.24-34.24C173.51,165.22,136.5,189.56,93.6,164.75Z" fill="#721f33"/><path d="M103.75,170.05s8.46,13.24,25.21,15a37.67,37.67,0,0,0,35.21-16.3S134,183,103.75,170.05Z" fill="#f4edef"/><path d="M93,164.48s18.24,10.22,39.77,9.29,40.7-8.55,40.7-8.55S132,192.35,93,164.48Z" fill="#f5968e"/><path d="M95.76,161.27a16.88,16.88,0,0,0-4,9.48S90.22,164.2,95.76,161.27Z" fill="#e03859"/><path d="M169.55,160a15.91,15.91,0,0,1,4.84,9.47A8,8,0,0,0,169.55,160Z" fill="#e03859"/><path d="M113.74,192.49A18,18,0,0,1,132.65,190s7.68-4.55,21.21,3.25C153.86,193.23,134.19,208.1,113.74,192.49Z" fill="#d26653"/></g></svg>