<svg id="Layer_1" data-name="Layer 1" xmlns="http://www.w3.org/2000/svg" viewBox="0 0 270 270"><path d="M119.11,145.42s6,7.22,14.29,9.94,20.84-9.13,20.84-9.13" fill="#f9d1c6"/><path d="M119.11,145.42a52.24,52.24,0,0,0,8.18,6.08,30.58,30.58,0,0,0,4.48,2.22c.38.17.77.3,1.16.44s.79.29,1.14.37a7.79,7.79,0,0,0,2.27.22,14.79,14.79,0,0,0,4.7-1,32.05,32.05,0,0,0,4.56-2.06,82.47,82.47,0,0,0,8.64-5.48,37.41,37.41,0,0,1-7.84,6.83,20.43,20.43,0,0,1-10,3.69,9.42,9.42,0,0,1-2.83-.34,9,9,0,0,1-1.3-.44,9.51,9.51,0,0,1-1.24-.51,26.46,26.46,0,0,1-4.59-2.65A29.92,29.92,0,0,1,119.11,145.42Z" fill="#49442e"/><circle cx="86.39" cy="112.77" r="24.25" fill="#f7f3f0"/><path d="M62.18,112.77a24.17,24.17,0,0,0,7.18,17,23.79,23.79,0,0,0,33.63-.42,23.79,23.79,0,0,0,0-33.2,23.78,23.78,0,0,0-33.63-.43A24.21,24.21,0,0,0,62.18,112.77Zm-.1,0A24.33,24.33,0,1,1,69.19,130,24.42,24.42,0,0,1,62.08,112.77Z" fill="#342517"/><circle cx="93.94" cy="105.87" r="13" fill="#0b0000"/><circle cx="102.3" cy="100.01" r="3.56" fill="#f7f3f0"/><circle cx="185.88" cy="113.19" r="24.25" fill="#f7f3f0"/><path d="M210.18,113.19a24.38,24.38,0,0,1-7,17.27,24.72,24.72,0,0,1-35,.43,24.75,24.75,0,0,1,0-35.4,24.73,24.73,0,0,1,35,.42A24.4,24.4,0,0,1,210.18,113.19Zm-.1,0a24.19,24.19,0,1,0-7.1,17.1A24.24,24.24,0,0,0,210.08,113.19Z" fill="#342517"/><circle cx="192.47" cy="104.96" r="13" fill="#0b0000"/><circle cx="199.31" cy="97.92" r="3.56" fill="#f7f3f0"/><path d="M167.43,66.38a46.28,46.28,0,0,0,24.86,14.41C208.07,84,211.1,84,211.1,84s-27.21,13.46-44.68-5.12C166.42,78.87,159.36,73.75,167.43,66.38Z" fill="#0b0000"/><path d="M120,194.79s13.68-12,30.21.57C150.18,195.36,135.93,167.43,120,194.79Z" fill="#c16542"/><path d="M129.94,202.49s-.28-6.56,10-6.84c0,0-12.26-4.85-10.26,8" fill="#c16542"/><path d="M107.22,66.37a51.23,51.23,0,0,1-27.5,15.95C62.25,85.86,58.9,85.86,58.9,85.86S89,100.74,108.34,80.19C108.34,80.19,116.15,74.52,107.22,66.37Z" fill="#0b0000"/></svg>