<svg id="Layer_1" data-name="Layer 1" xmlns="http://www.w3.org/2000/svg" viewBox="0 0 500 525"><path d="M458.3,19.78C441.94,9,422.94,7.35,404.88,6.54,347.92,4,304,2.85,262.47,2.85,207.08,2.85,157.29,5,110.26,9.4c-24.49,2.29-68.67,11-89.54,43.94C4.38,79.09,5.65,123,6.68,158.23c.24,8.21.46,16,.38,22.06A1371.13,1371.13,0,0,0,26.32,427.42c3.81,22.39,9.48,47.72,28.69,65,17.48,15.74,40.6,19.68,60.89,22.14a1052.11,1052.11,0,0,0,125.78,7.56c42.87,0,96.12-2.66,138.56-7.9,4.41-.55,7.79-1,11-1.52,14.72-2.34,33.55-6.69,48.67-19.75,19.88-17.16,26.24-43.05,30.65-66,19.73-102.72,20.91-207.82,23.21-312.39C494.14,97.17,495.31,44.08,458.3,19.78Zm17.46,94.45c-2.29,103.8-3.31,207.41-22.9,309.38-3.91,20.36-9,42.2-24.73,55.75-10.93,9.44-25.26,13.3-39.73,15.59-3.46.55-6.93,1-10.36,1.43-82.9,10.25-177,10.36-260,.34-18.15-2.2-37.41-5.4-51-17.64-15-13.5-19.62-34.8-23-54.68a1350.89,1350.89,0,0,1-19-243.88C25.45,150,18.93,89.75,35.92,63c15.29-24.09,49.75-33.2,76-35.66,97.39-9.13,194.23-7.19,292.14-2.79,15.36.69,31.5,1.86,44.35,10.3C472.82,50.84,476.4,85.05,475.76,114.23Z" fill="#37ff1a"/></svg>