<svg id="Layer_1" data-name="Layer 1" xmlns="http://www.w3.org/2000/svg" viewBox="0 0 55 55"><path d="M52.35,23.82a4.43,4.43,0,0,0-1.71-2.08A14.13,14.13,0,0,0,42.71,19c-1.38-.05-2.86.08-4.05-.63-1.85-1.1-2.1-3.61-2.33-5.75a13.42,13.42,0,0,0-2.16-6.67C32.76,4,30.23,2.78,28,3.51A7.69,7.69,0,0,0,24.51,6.3a26.92,26.92,0,0,0-3.8,6.54,6.66,6.66,0,0,1-.33.72,1.8,1.8,0,0,1-.38.49,3.1,3.1,0,0,1-2.6.34,41.62,41.62,0,0,0-9.85-.3,8,8,0,0,0-3.18.78c-5.6,3,3.05,12.18,6,14.13.44.29,1,.65.94,1.18a1.59,1.59,0,0,1-.62,1A16.79,16.79,0,0,0,6,40.63c-.23,1.57-.16,3.33.91,4.49a5.12,5.12,0,0,0,2.68,1.35c4.19,1,8.67-.33,12.25-2.71a2.4,2.4,0,0,1,1.92-.61,2.38,2.38,0,0,1,1,.84A24.73,24.73,0,0,0,34.6,51.1c1.34.54,2.92.93,4.18.22a4.68,4.68,0,0,0,1.76-2.26,16.14,16.14,0,0,0,1.34-7.67,16.79,16.79,0,0,0-.38-2.64,9.4,9.4,0,0,1-.35-2,2.42,2.42,0,0,1,.22-1c.47-1,1.62-1.46,2.64-1.92a17.81,17.81,0,0,0,7.35-6.24A4.57,4.57,0,0,0,52.35,23.82Z" fill="#280024"/></svg>