<svg id="b9d44260-ac5a-40cd-b599-c0e21495aad4" data-name="Layer 1" xmlns="http://www.w3.org/2000/svg" xmlns:xlink="http://www.w3.org/1999/xlink" width="325" height="325" viewBox="0 0 325 325">
  <defs>
    <style>
      .bd972302-d6a6-454d-8771-4eeebccc041a {
        fill: none;
      }

      .abfbc365-97ce-4a85-b2de-9b283bdd3002 {
        clip-path: url(#bfde2649-69b8-49f5-a9b6-07f0a4e68cf9);
      }

      .b16e4b1e-34cc-447b-ae09-cc670428d912 {
        fill: #f9d1c6;
        stroke: #fff;
        stroke-miterlimit: 10;
        stroke-width: 12px;
      }

      .f3bd8ded-4584-46a4-8cf5-53f3754edff8 {
        fill: #49442e;
      }

      .a5a98200-1d0a-48eb-b33a-fbc4cad70b9b {
        fill: #ea8a5a;
      }

      .f50d90d4-5c28-427a-98ac-48468b77926a {
        fill: #6b0e30;
      }

      .b60a99bc-c993-4e55-96c3-62d3ccda01fe {
        fill: #fff;
      }

      .f9d34955-aafc-4149-bc17-43b151afdb1c {
        fill: #f7f3f0;
      }

      .a64b6ef4-9507-4da2-afa9-1fbbd0edbc8c {
        fill: #342517;
      }

      .bbdb133d-ee10-46d9-9629-3c40d3a49052 {
        fill: #0c1618;
      }

      .ff4abba1-6f55-4633-8847-a7bc9ce6a00d {
        fill: #0a1517;
      }
    </style>
    <clipPath id="bfde2649-69b8-49f5-a9b6-07f0a4e68cf9">
      <circle class="bd972302-d6a6-454d-8771-4eeebccc041a" cx="162.5" cy="162.5" r="159"/>
    </clipPath>
  </defs>
  <g class="abfbc365-97ce-4a85-b2de-9b283bdd3002">
    <circle class="b16e4b1e-34cc-447b-ae09-cc670428d912" cx="162.5" cy="162.5" r="159"/>
    <g id="ba30064d-b4a0-4be5-91a6-03a53080e09c" data-name="Expressions">
      <path class="f3bd8ded-4584-46a4-8cf5-53f3754edff8" d="M142.41,172.14a63.17,63.17,0,0,0,10.7,8.26,40.39,40.39,0,0,0,5.94,3c.51.23,1,.41,1.55.59a13.08,13.08,0,0,0,1.54.5,10,10,0,0,0,3.1.31,19.6,19.6,0,0,0,6.32-1.34,43.43,43.43,0,0,0,6.06-2.78,97.42,97.42,0,0,0,11.31-7.48A53.37,53.37,0,0,1,178.41,182c-3.88,2.44-8.23,4.55-13.12,4.78a12.57,12.57,0,0,1-3.65-.42,14.71,14.71,0,0,1-1.7-.58,16.34,16.34,0,0,1-1.63-.66,36,36,0,0,1-6.05-3.44A41.85,41.85,0,0,1,142.41,172.14Z"/>
      <g>
        <g>
          <path class="a5a98200-1d0a-48eb-b33a-fbc4cad70b9b" d="M218.56,244.77a10.13,10.13,0,0,1-3.71.48c-9.57-.37-26.12-10-49.31-9.13-22,.84-49.72,11.43-58.85,6a4.79,4.79,0,0,1-.79-.54c-2-1.64-.12-8.61.52-12a47.71,47.71,0,0,1,5.72-15.8c7.41-12.47,21.53-19.3,44.24-2.28,18.2,13.64,39.11-28.18,56.21.37,2.55,4.23,5,10,7.34,17.71C221.28,233.91,221.7,243.63,218.56,244.77Z"/>
          <path class="f50d90d4-5c28-427a-98ac-48468b77926a" d="M218.56,241.7a12,12,0,0,1-3.71.4c-9.57-.31-26.12-8.45-49.31-7.72-22,.71-49.72,9.67-58.85,5a4.41,4.41,0,0,1-.79-.46c-2-1.38-.12-7.28.52-10.19a36.61,36.61,0,0,1,5.72-13.36c7.41-10.56,21.53-16.33,44.24-1.93,18.2,11.54,39.11-23.84,56.21.31a62.42,62.42,0,0,1,7.34,15C221.28,232.51,221.7,240.73,218.56,241.7Z"/>
          <path class="b60a99bc-c993-4e55-96c3-62d3ccda01fe" d="M214.85,242.1c-9.57-.31-26.12-8.45-49.31-7.72-22,.71-49.72,9.67-58.85,5,15.67-14.67,40-17.44,40-17.44-14.33-6.44-29-6.75-34.55-6.57,7.41-10.56,21.53-16.33,44.24-1.93,18.2,11.54,39.11-23.84,56.21.31-9,7.42-24.61,10.4-24.61,10.4a7.41,7.41,0,0,1,.71.25C205.85,230.62,212.38,237.71,214.85,242.1Z"/>
          <path class="f50d90d4-5c28-427a-98ac-48468b77926a" d="M140.06,220.79q7.06,1,14.15,1.84c4.72.52,9.45,1,14.19,1.3s9.48.51,14.22.39a70,70,0,0,0,7.09-.48,33.74,33.74,0,0,0,6.94-1.52c-4.42,1.84-9.27,2.31-14,2.58-2.38.14-4.77.13-7.15.08s-4.77-.15-7.14-.3c-4.76-.35-9.5-.83-14.21-1.48S144.72,221.77,140.06,220.79Z"/>
        </g>
        <path class="a5a98200-1d0a-48eb-b33a-fbc4cad70b9b" d="M222.76,216.93A122.88,122.88,0,0,1,227.52,233S229.11,225.32,222.76,216.93Z"/>
        <path class="a5a98200-1d0a-48eb-b33a-fbc4cad70b9b" d="M104.49,219a126,126,0,0,0-4.59,16.09S98.37,227.36,104.49,219Z"/>
      </g>
      <g>
        <g>
          <g>
            <path class="f9d34955-aafc-4149-bc17-43b151afdb1c" d="M259.46,89.14c4.86,1.73,24.64,51.48-30.93,50.65-33.11-.49-51.51-39.66-44.72-26,1.45,2.91,32.12-23.8,52.88-23.8S240.89,82.5,259.46,89.14Z"/>
            <path class="a64b6ef4-9507-4da2-afa9-1fbbd0edbc8c" d="M259.47,89.09a3.62,3.62,0,0,1,1.31,1.14,13.42,13.42,0,0,1,1,1.43,28,28,0,0,1,1.58,3.08,43.16,43.16,0,0,1,2.25,6.54A40.21,40.21,0,0,1,266.83,115a25.72,25.72,0,0,1-4.66,12.92,26.2,26.2,0,0,1-10.86,8.47,46.66,46.66,0,0,1-13.45,3.4c-2.3.27-4.62.39-6.93.45a50.82,50.82,0,0,1-7-.25c-9.3-1-18.08-5.16-25.42-10.85a78.49,78.49,0,0,1-10.2-9.51q-2.34-2.6-4.46-5.36l-2-2.74s-.05,0,.07.06c.5.61,2.18-1.44,1.38-.89,0,0,0-.06,0,0l.06.14.18.37.39.76.39.77.19.39.1.19s0,.09,0,.08a.38.38,0,0,0-.09-.13c-.2-.17-.29-.13-.25-.13l.22,0a5.11,5.11,0,0,0,.68-.24c.49-.21,1-.46,1.48-.73,1-.53,2-1.12,2.94-1.72l5.84-3.67c3.89-2.46,7.83-4.89,11.86-7.16a109.17,109.17,0,0,1,12.48-6.11,51.79,51.79,0,0,1,13.42-3.75,29.26,29.26,0,0,1,3.51-.19c1.14,0,2.29,0,3.43,0a21.27,21.27,0,0,0,6.71-1,4.1,4.1,0,0,0,1.38-.89,4.81,4.81,0,0,0,.54-.64,1.7,1.7,0,0,1,.71-.61,3.39,3.39,0,0,1,1.79,0c.57.11,1.13.28,1.68.44C255.15,87.5,257.31,88.29,259.47,89.09Zm0,.09c-2.17-.77-4.34-1.54-6.55-2.19-.55-.16-1.1-.31-1.67-.42a3.26,3.26,0,0,0-1.67,0c-.51.21-.73.82-1.16,1.22a4.81,4.81,0,0,1-1.44,1,21.57,21.57,0,0,1-6.8,1.2c-2.3.15-4.61,0-6.89.32a51.43,51.43,0,0,0-13.21,3.84,116.39,116.39,0,0,0-12.33,6.19c-4,2.27-7.91,4.71-11.79,7.19l-5.84,3.7c-1,.61-2,1.21-3,1.76-.51.28-1,.55-1.56.78a5.69,5.69,0,0,1-.82.29,1,1,0,0,1-.93-.08c-.32-.55-.53-1-.8-1.56l-.39-.78-.19-.39-.09-.2,0-.06c-.09,0,.1-.22.18-.13l.09.09,2.06,2.78c1.39,1.83,2.86,3.61,4.39,5.32a76.61,76.61,0,0,0,10,9.44c7.22,5.65,15.79,9.85,25,11a51,51,0,0,0,6.88.31c2.3,0,4.6-.14,6.89-.39a46.18,46.18,0,0,0,13.36-3.26A24.3,24.3,0,0,0,266.64,115a40.39,40.39,0,0,0-1.19-13.67,42.92,42.92,0,0,0-2.22-6.53,28.53,28.53,0,0,0-1.56-3.07,14.2,14.2,0,0,0-1-1.42A3.74,3.74,0,0,0,259.44,89.18Z"/>
          </g>
          <circle class="bbdb133d-ee10-46d9-9629-3c40d3a49052" cx="229.29" cy="114" r="17.21"/>
          <circle class="f9d34955-aafc-4149-bc17-43b151afdb1c" cx="243.54" cy="116.22" r="4.72"/>
        </g>
        <path class="ff4abba1-6f55-4633-8847-a7bc9ce6a00d" d="M177,98.12s0,30.66,21.16,23.4,27-37.12,64.93-30.66c0,0-15.32-26.63-59.09,4C204,94.89,185.79,110.22,177,98.12Z"/>
      </g>
      <g>
        <g>
          <g>
            <path class="f9d34955-aafc-4149-bc17-43b151afdb1c" d="M63.68,90.52C59.11,92.42,50,145.88,102.17,145c31.11-.54,41.78-24.56,44.83-26.77,2.8-2-33.84-25.72-53.34-25.72S81.12,83.27,63.68,90.52Z"/>
            <path class="a64b6ef4-9507-4da2-afa9-1fbbd0edbc8c" d="M63.7,90.57a3,3,0,0,0-1.1,1.32,12.19,12.19,0,0,0-.68,1.63A27.26,27.26,0,0,0,61,97a45.19,45.19,0,0,0-.83,7.06,48.91,48.91,0,0,0,1.43,14.11,36.21,36.21,0,0,0,6,12.77,31.34,31.34,0,0,0,10.78,9A42.09,42.09,0,0,0,91.87,144a61.84,61.84,0,0,0,14.13.28,54.52,54.52,0,0,0,7-1.12,52.67,52.67,0,0,0,6.71-2.1,48.4,48.4,0,0,0,12.09-7,56,56,0,0,0,9.73-10.09c.72-.94,1.41-1.89,2.1-2.85s1.34-1.94,2.2-2.93a3.15,3.15,0,0,1,.36-.38l.23-.2.07-.06a.68.68,0,0,0-.11.12c-.14.24-.07.38-.08.34a1.76,1.76,0,0,0-.1-.2,7.08,7.08,0,0,0-1-1.17,30.26,30.26,0,0,0-2.64-2.24,114.06,114.06,0,0,0-11.84-7.73c-4.1-2.37-8.31-4.54-12.59-6.54a101.23,101.23,0,0,0-13.2-5.13A52.1,52.1,0,0,0,98,93.34,31.75,31.75,0,0,0,94.51,93c-1.15,0-2.39-.06-3.57-.15a32.76,32.76,0,0,1-7.09-1.2,21.6,21.6,0,0,1-3.35-1.32c-1.08-.53-2.11-1.12-3.18-1.62a9.92,9.92,0,0,0-6.88-.39A47.25,47.25,0,0,0,63.7,90.57Zm0-.1a47.51,47.51,0,0,1,6.74-2.33,14.09,14.09,0,0,1,3.54-.46,8.52,8.52,0,0,1,3.47.81c1.09.49,2.12,1.08,3.2,1.57a20.82,20.82,0,0,0,3.33,1.24,31.92,31.92,0,0,0,7,1c1.19.07,2.37,0,3.57.08a32.3,32.3,0,0,1,3.55.33,51.94,51.94,0,0,1,7,1.55,101.23,101.23,0,0,1,13.35,5c4.33,2,8.57,4.14,12.7,6.5a115.48,115.48,0,0,1,12,7.75,33,33,0,0,1,2.74,2.3,7.74,7.74,0,0,1,1.18,1.36.92.92,0,0,1,.17.93c-.25.26-.44.39-.64.64-1.5,1.82-2.8,3.83-4.28,5.69a57.15,57.15,0,0,1-9.93,10.21,47.3,47.3,0,0,1-12.38,7,52.25,52.25,0,0,1-6.84,2,54.23,54.23,0,0,1-7,1,63.47,63.47,0,0,1-14.25-.41,42.28,42.28,0,0,1-13.57-4.22A31.67,31.67,0,0,1,67.41,131a36.59,36.59,0,0,1-6-12.86A49,49,0,0,1,60,104a45.78,45.78,0,0,1,.86-7.08,27.3,27.3,0,0,1,.93-3.44,12.56,12.56,0,0,1,.7-1.65A3.06,3.06,0,0,1,63.66,90.47Z"/>
          </g>
          <circle class="bbdb133d-ee10-46d9-9629-3c40d3a49052" cx="95.12" cy="116.77" r="18.82"/>
          <circle class="f9d34955-aafc-4149-bc17-43b151afdb1c" cx="79.55" cy="119.2" r="5.16"/>
        </g>
        <path class="ff4abba1-6f55-4633-8847-a7bc9ce6a00d" d="M152.26,99.41s0,33.52-23.13,25.58-29.51-40.58-71-33.52c0,0,16.75-29.12,64.61,4.41C122.75,95.88,142.69,112.64,152.26,99.41Z"/>
      </g>
    </g>
  </g>
</svg>
