<svg id="bb1ac4c1-1d6d-49ce-91bd-fe6449f0677f" data-name="Layer 1" xmlns="http://www.w3.org/2000/svg" width="309" height="82" viewBox="0 0 309 82">
  <defs>
    <style>
      .af5d0722-f6ae-4787-9a33-70b5105b62e2 {
        fill: #fff;
        stroke: #3f2b00;
        stroke-miterlimit: 10;
        stroke-width: 2px;
      }

      .a068f93c-2723-4011-9fd2-9fffb19bf342 {
        fill: #ea9242;
      }
    </style>
  </defs>
  <g>
    <rect class="af5d0722-f6ae-4787-9a33-70b5105b62e2" x="5.82" y="5.37" width="297.35" height="71.27" rx="33.84"/>
    <g>
      <path class="a068f93c-2723-4011-9fd2-9fffb19bf342" d="M61.77,45.26a7,7,0,0,1-2.33,5.5,9.63,9.63,0,0,1-6.56,2,28,28,0,0,1-5.59-.55,16.61,16.61,0,0,1-4.4-1.49l.93-5.61a18.83,18.83,0,0,0,8.37,2.48,2.4,2.4,0,0,0,1.74-.53,1.64,1.64,0,0,0,.52-1.18A2.15,2.15,0,0,0,54,44.57a6.71,6.71,0,0,0-2-1.29,33.23,33.23,0,0,1-3.89-2,12.75,12.75,0,0,1-2.64-2.06A7,7,0,0,1,44,37a7.63,7.63,0,0,1-.46-2.75,6.18,6.18,0,0,1,2.66-5.36A11.66,11.66,0,0,1,53.16,27a21.39,21.39,0,0,1,4.11.36,18.86,18.86,0,0,1,4.11,1.4l-.88,5.55a13.34,13.34,0,0,0-3.79-1.51,17.23,17.23,0,0,0-3.61-.41,2.53,2.53,0,0,0-1.76.47A1.67,1.67,0,0,0,50.87,34a1.81,1.81,0,0,0,.76,1.52,15.6,15.6,0,0,0,2.93,1.51A32.81,32.81,0,0,1,57.9,39a11.48,11.48,0,0,1,2.25,1.86,5.9,5.9,0,0,1,1.25,2A7.18,7.18,0,0,1,61.77,45.26Z"/>
      <path class="a068f93c-2723-4011-9fd2-9fffb19bf342" d="M85.23,51.31a10.1,10.1,0,0,1-.47-1.26c-.09-.33-.19-.81-.3-1.43A10.83,10.83,0,0,1,76.69,52a7.94,7.94,0,0,1-3.27-.67,8.18,8.18,0,0,1-2.65-1.85A8,8,0,0,1,69,46.62a10.83,10.83,0,0,1-.61-3.7c0-1.49,0-2.89.11-4.17s.13-2.52.17-3.7,0-2.35,0-3.53-.13-2.42-.28-3.75h7.33c.11,1.21.17,2.36.19,3.48s0,2.22,0,3.31,0,2.21-.11,3.34-.08,2.33-.08,3.61a6,6,0,0,0,.34,2.25A2.63,2.63,0,0,0,77,45a2.55,2.55,0,0,0,1.12.45,6.3,6.3,0,0,0,1,.08,5.65,5.65,0,0,0,1.17-.21,3.82,3.82,0,0,0,1.66-1,6.68,6.68,0,0,0,1.47-2.33A11.12,11.12,0,0,0,84,37.79v-10h7.32v16a27.41,27.41,0,0,0,.33,4.17,13.82,13.82,0,0,0,.88,3.37Z"/>
      <path class="a068f93c-2723-4011-9fd2-9fffb19bf342" d="M117,34.54c-.52-.11-.92-.18-1.22-.22a7.31,7.31,0,0,0-1-.06A5.6,5.6,0,0,0,110,36.41q-1.62,2.15-1.62,6.39V52H101V36.09q0-1.35,0-2.34a17.33,17.33,0,0,0-.13-1.86c-.08-.57-.18-1.14-.31-1.7s-.3-1.19-.52-1.91H107c.12.45.22.84.32,1.16a5.59,5.59,0,0,1,.19.9c0,.28.08.59.12.91a9.52,9.52,0,0,1,0,1.15,12.38,12.38,0,0,1,3.14-3.58,6,6,0,0,1,3.49-1.05,4.79,4.79,0,0,1,1.3.15,12.23,12.23,0,0,1,1.46.53Z"/>
      <path class="a068f93c-2723-4011-9fd2-9fffb19bf342" d="M145.69,38.45a18.58,18.58,0,0,1-.77,5.49,13.27,13.27,0,0,1-2.17,4.28A9.86,9.86,0,0,1,139.4,51a9.22,9.22,0,0,1-4.27,1,9.41,9.41,0,0,1-2.89-.38,8.61,8.61,0,0,1-2.46-1.42V68.36h-7.71V35a13,13,0,0,0-.09-1.41c0-.54-.12-1.1-.22-1.7s-.2-1.19-.33-1.78a13,13,0,0,0-.46-1.65h7.46a6.06,6.06,0,0,1,.4,1.07,13.14,13.14,0,0,1,.23,1.51,12,12,0,0,1,3.32-2.53,8.83,8.83,0,0,1,3.8-.77,9.6,9.6,0,0,1,3.88.77,8.45,8.45,0,0,1,3,2.17A9.92,9.92,0,0,1,145,34.09,13.16,13.16,0,0,1,145.69,38.45Zm-7.32,1.22a5.23,5.23,0,0,0-1.1-3.54,3.8,3.8,0,0,0-3-1.26,4.32,4.32,0,0,0-3.55,1.62,6.69,6.69,0,0,0-1.31,4.34V44a5.85,5.85,0,0,0,3.9,1.46A4.69,4.69,0,0,0,137,43.94,6.22,6.22,0,0,0,138.37,39.67Z"/>
      <path class="a068f93c-2723-4011-9fd2-9fffb19bf342" d="M169.81,34.54c-.52-.11-.92-.18-1.21-.22a7.52,7.52,0,0,0-1-.06,5.61,5.61,0,0,0-4.77,2.15q-1.62,2.15-1.62,6.39V52h-7.33V36.09c0-.9,0-1.68,0-2.34s-.07-1.29-.14-1.86-.18-1.14-.3-1.7-.31-1.19-.53-1.91h7c.11.45.21.84.31,1.16a7.06,7.06,0,0,1,.2.9c0,.28.07.59.11.91a9.29,9.29,0,0,1,.06,1.15,12.22,12.22,0,0,1,3.13-3.58,6,6,0,0,1,3.5-1.05,4.76,4.76,0,0,1,1.29.15,12.23,12.23,0,0,1,1.46.53Z"/>
      <path class="a068f93c-2723-4011-9fd2-9fffb19bf342" d="M183.08,21.13a3,3,0,0,1-1.27,2.45,5.09,5.09,0,0,1-6.11,0A3.28,3.28,0,0,1,174.38,21a2.94,2.94,0,0,1,1.21-2.52,4.87,4.87,0,0,1,3.19-1,5.08,5.08,0,0,1,1.63.28,4.44,4.44,0,0,1,1.37.77,3.94,3.94,0,0,1,.94,1.17A3,3,0,0,1,183.08,21.13ZM174.82,52V27.77h7.32V52Z"/>
      <path class="a068f93c-2723-4011-9fd2-9fffb19bf342" d="M207.91,45.26a7,7,0,0,1-2.33,5.5,9.65,9.65,0,0,1-6.56,2,28,28,0,0,1-5.59-.55A16.82,16.82,0,0,1,189,50.76l.94-5.61a18.8,18.8,0,0,0,8.37,2.48,2.4,2.4,0,0,0,1.74-.53,1.64,1.64,0,0,0,.52-1.18,2.15,2.15,0,0,0-.41-1.35,6.71,6.71,0,0,0-2-1.29,33.23,33.23,0,0,1-3.89-2,12.75,12.75,0,0,1-2.64-2.06A6.85,6.85,0,0,1,190.15,37a7.63,7.63,0,0,1-.46-2.75,6.18,6.18,0,0,1,2.66-5.36,11.66,11.66,0,0,1,7-1.9,21.39,21.39,0,0,1,4.11.36,18.86,18.86,0,0,1,4.11,1.4l-.88,5.55a13.34,13.34,0,0,0-3.79-1.51,17.3,17.3,0,0,0-3.61-.41,2.53,2.53,0,0,0-1.76.47A1.67,1.67,0,0,0,197,34a1.83,1.83,0,0,0,.75,1.52,16.13,16.13,0,0,0,2.94,1.51A32.81,32.81,0,0,1,204,39a11.48,11.48,0,0,1,2.25,1.86,5.9,5.9,0,0,1,1.25,2A7.18,7.18,0,0,1,207.91,45.26Z"/>
      <path class="a068f93c-2723-4011-9fd2-9fffb19bf342" d="M235.94,34.43a6.25,6.25,0,0,1-1,3.41,8.17,8.17,0,0,1-2.76,2.61,15.61,15.61,0,0,1-4.29,1.68,24.13,24.13,0,0,1-5.61.6l-.67,0-.89,0A5.06,5.06,0,0,0,222.39,46,5.25,5.25,0,0,0,226,47.13a16.33,16.33,0,0,0,8.11-2.47v5.77a15.44,15.44,0,0,1-4,1.73,16.6,16.6,0,0,1-4.32.53,14.29,14.29,0,0,1-5-.83A10.1,10.1,0,0,1,217,49.47a10.66,10.66,0,0,1-2.37-3.74,13.79,13.79,0,0,1-.83-4.92,15.11,15.11,0,0,1,1-5.53,12.76,12.76,0,0,1,2.7-4.32,11.85,11.85,0,0,1,4.15-2.8,14,14,0,0,1,5.34-1,10.07,10.07,0,0,1,6.53,2A6.45,6.45,0,0,1,235.94,34.43Zm-7.32.55a1.92,1.92,0,0,0-.76-1.51,2.87,2.87,0,0,0-1.9-.64,4.35,4.35,0,0,0-3.14,1.3,6.09,6.09,0,0,0-1.69,3.54,4.09,4.09,0,0,0,.87.11h.82C226.68,37.78,228.62,36.85,228.62,35Z"/>
      <path class="a068f93c-2723-4011-9fd2-9fffb19bf342" d="M259.84,52c0-.22-.07-.48-.11-.77s-.08-.55-.12-.88-.07-.73-.11-1.21a10.15,10.15,0,0,1-3.64,2.72,11.42,11.42,0,0,1-4.37.8,10.8,10.8,0,0,1-4.38-.85,9.67,9.67,0,0,1-3.34-2.37,10.74,10.74,0,0,1-2.16-3.65,14.2,14.2,0,0,1-.77-4.79,16.2,16.2,0,0,1,.91-5.55,13.27,13.27,0,0,1,2.53-4.37,11.32,11.32,0,0,1,3.88-2.86,11.93,11.93,0,0,1,5-1,17.16,17.16,0,0,1,2.42.16,14.06,14.06,0,0,1,2.7.72V13.64h7.32v30c0,.63,0,1.41.09,2.37s.12,1.87.19,2.75.16,2.1.27,3.24Zm-1.6-17.65a7.93,7.93,0,0,0-2-.55,17.91,17.91,0,0,0-2-.11,5.54,5.54,0,0,0-4.44,1.9,7.72,7.72,0,0,0-1.63,5.19,5.61,5.61,0,0,0,1.15,3.77,3.9,3.9,0,0,0,3.15,1.35,6.51,6.51,0,0,0,2.26-.39,4.07,4.07,0,0,0,1.83-1.32,6.78,6.78,0,0,0,1.23-2.45,13,13,0,0,0,.46-3.76Z"/>
    </g>
  </g>
</svg>
