<svg id="Layer_1" data-name="Layer 1" xmlns="http://www.w3.org/2000/svg" xmlns:xlink="http://www.w3.org/1999/xlink" viewBox="0 0 1600 900"><defs><clipPath id="clip-path"><rect x="355.23" y="294.16" width="36.91" height="39.51" fill="none"/></clipPath><clipPath id="clip-path-2"><rect x="943.72" y="311.87" width="46.56" height="49.84" fill="none"/></clipPath><clipPath id="clip-path-3"><rect x="1206.43" y="627.37" width="41.74" height="44.67" fill="none"/></clipPath><clipPath id="clip-path-4"><rect x="366.8" y="640.73" width="33.12" height="35.45" fill="none"/></clipPath><linearGradient id="linear-gradient" x1="-7734.16" y1="-5985.85" x2="-7730.94" y2="-5979.74" gradientTransform="matrix(0.78, 0.18, -0.18, 0.78, 5400, 6369.49)" gradientUnits="userSpaceOnUse"><stop offset="0" stop-color="#005200"/><stop offset="0.19" stop-color="#00890b"/><stop offset="0.31" stop-color="#00a912"/><stop offset="0.33" stop-color="#11ad12"/><stop offset="0.37" stop-color="#3ab512"/><stop offset="0.41" stop-color="#5abc12"/><stop offset="0.44" stop-color="#71c112"/><stop offset="0.48" stop-color="#7ec412"/><stop offset="0.51" stop-color="#83c512"/><stop offset="0.55" stop-color="#7fc412"/><stop offset="0.59" stop-color="#72c112"/><stop offset="0.63" stop-color="#5ebd12"/><stop offset="0.67" stop-color="#41b712"/><stop offset="0.72" stop-color="#1caf12"/><stop offset="0.74" stop-color="#00a912"/><stop offset="0.78" stop-color="#009e10"/><stop offset="0.86" stop-color="#00800c"/><stop offset="0.95" stop-color="#005004"/><stop offset="1" stop-color="#003400"/></linearGradient><linearGradient id="linear-gradient-2" x1="-8807.69" y1="-8858.88" x2="-8801.28" y2="-8857.91" gradientTransform="matrix(-1.86, 1.05, -1.05, -1.86, -24171.21, -6731.96)" gradientUnits="userSpaceOnUse"><stop offset="0" stop-color="#ab3c00"/><stop offset="0.34" stop-color="#ffc700"/><stop offset="0.37" stop-color="#ffcd17"/><stop offset="0.41" stop-color="#ffd533"/><stop offset="0.44" stop-color="#ffda46"/><stop offset="0.48" stop-color="#ffdd52"/><stop offset="0.52" stop-color="#ffde56"/><stop offset="0.55" stop-color="#ffdd51"/><stop offset="0.59" stop-color="#ffd943"/><stop offset="0.62" stop-color="#ffd32b"/><stop offset="0.66" stop-color="#ffca0b"/><stop offset="0.67" stop-color="#ffc700"/><stop offset="1" stop-color="#ab3c00"/></linearGradient><linearGradient id="linear-gradient-3" x1="-8340.93" y1="-8062.36" x2="-8341" y2="-8055.47" gradientTransform="matrix(-0.91, 3.23, -3.23, -0.91, -33433.7, 19660.71)" gradientUnits="userSpaceOnUse"><stop offset="0" stop-color="#0038ab"/><stop offset="0.11" stop-color="#0062c9"/><stop offset="0.27" stop-color="#0097f0"/><stop offset="0.35" stop-color="#00acff"/><stop offset="0.4" stop-color="#00bfff"/><stop offset="0.47" stop-color="#00d2ff"/><stop offset="0.52" stop-color="#00d9ff"/><stop offset="0.66" stop-color="#00b8ff"/><stop offset="0.71" stop-color="#00acff"/><stop offset="0.76" stop-color="#00a2f8"/><stop offset="0.83" stop-color="#0086e3"/><stop offset="0.93" stop-color="#0059c3"/><stop offset="1" stop-color="#0038ab"/></linearGradient><linearGradient id="linear-gradient-4" x1="-9083.5" y1="-7192.98" x2="-9076.87" y2="-7191.97" gradientTransform="translate(26799.73 1289.38) rotate(-36.48) scale(2.3)" xlink:href="#linear-gradient-3"/><linearGradient id="linear-gradient-5" x1="-9004.3" y1="-8092.57" x2="-9004.87" y2="-8101.21" gradientTransform="translate(-17627.37 -50183.62) rotate(-151.81) scale(4.42)" gradientUnits="userSpaceOnUse"><stop offset="0" stop-color="#400300"/><stop offset="0.07" stop-color="#750300"/><stop offset="0.14" stop-color="#a50300"/><stop offset="0.21" stop-color="#c80300"/><stop offset="0.26" stop-color="#dd0300"/><stop offset="0.3" stop-color="#e50300"/><stop offset="0.34" stop-color="#ee190c"/><stop offset="0.39" stop-color="#f82e18"/><stop offset="0.45" stop-color="#fd3c20"/><stop offset="0.49" stop-color="#ff4022"/><stop offset="0.54" stop-color="#fd3b1f"/><stop offset="0.6" stop-color="#f72e18"/><stop offset="0.66" stop-color="#ee180c"/><stop offset="0.7" stop-color="#e50300"/><stop offset="0.73" stop-color="#db0300"/><stop offset="0.79" stop-color="#c20300"/><stop offset="0.87" stop-color="#980300"/><stop offset="0.95" stop-color="#5e0300"/><stop offset="1" stop-color="#3b0300"/></linearGradient><linearGradient id="linear-gradient-6" x1="-8244.45" y1="-5263.22" x2="-8239.18" y2="-5264.7" gradientTransform="translate(8276.41 952.47) rotate(-25.91) scale(0.71)" xlink:href="#linear-gradient-2"/><linearGradient id="linear-gradient-7" x1="-8183.11" y1="-5335.12" x2="-8178.19" y2="-5336.5" gradientTransform="matrix(0.6, -0.11, 0.11, 0.6, 6131.12, 2426.17)" gradientUnits="userSpaceOnUse"><stop offset="0" stop-color="#920040"/><stop offset="0.05" stop-color="#ae0052"/><stop offset="0.12" stop-color="#d10069"/><stop offset="0.19" stop-color="#ea007a"/><stop offset="0.25" stop-color="#fa0084"/><stop offset="0.3" stop-color="#ff0087"/><stop offset="0.35" stop-color="#ff1a8b"/><stop offset="0.43" stop-color="#ff3f92"/><stop offset="0.5" stop-color="#ff5696"/><stop offset="0.55" stop-color="#ff5e97"/><stop offset="0.58" stop-color="#ff5696"/><stop offset="0.64" stop-color="#ff3f92"/><stop offset="0.71" stop-color="#ff198b"/><stop offset="0.75" stop-color="#ff0087"/><stop offset="0.79" stop-color="#fa0084"/><stop offset="0.84" stop-color="#ea007a"/><stop offset="0.9" stop-color="#d10069"/><stop offset="0.96" stop-color="#ae0053"/><stop offset="1" stop-color="#920040"/></linearGradient><linearGradient id="linear-gradient-8" x1="-7777.07" y1="-10296.31" x2="-7777.57" y2="-10304.03" gradientTransform="translate(-8249.19 1436.62) rotate(120.11) scale(0.77)" xlink:href="#linear-gradient-7"/><linearGradient id="linear-gradient-9" x1="-9434.63" y1="-6944.24" x2="-9434.63" y2="-6937.71" gradientTransform="translate(15322.05 -2420.19) rotate(-45.78) scale(1.32)" xlink:href="#linear-gradient-2"/><linearGradient id="linear-gradient-10" x1="-7963.34" y1="-7354.8" x2="-7962.27" y2="-7348.43" gradientTransform="matrix(1.14, 1.42, -1.42, 1.14, -1294.83, 20001.64)" xlink:href="#linear-gradient-3"/><linearGradient id="linear-gradient-11" x1="-8856.5" y1="-7515.21" x2="-8856.5" y2="-7508.7" gradientTransform="translate(52796.25 -5611.58) rotate(-46.52) scale(4.5)" xlink:href="#linear-gradient-7"/><linearGradient id="linear-gradient-12" x1="-7890.7" y1="-6520.44" x2="-7890.77" y2="-6512.99" gradientTransform="matrix(0.95, 0.21, -0.21, 0.95, 6700.73, 7886.63)" xlink:href="#linear-gradient-5"/><linearGradient id="linear-gradient-13" x1="-8932.61" y1="-7429.73" x2="-8931.57" y2="-7423.56" gradientTransform="translate(47346.76 -19598.37) rotate(-63.15) scale(4.3)" xlink:href="#linear-gradient-2"/><linearGradient id="linear-gradient-14" x1="-8546.48" y1="-7341.81" x2="-8546.56" y2="-7333.99" gradientTransform="translate(30396.01 20656.42) rotate(-5.94) scale(3.19)" xlink:href="#linear-gradient-3"/><linearGradient id="linear-gradient-15" x1="-7924.33" y1="-6456.35" x2="-7921.01" y2="-6450.04" gradientTransform="translate(4990.81 8461.17) rotate(20.63) scale(0.94)" xlink:href="#linear-gradient"/><linearGradient id="linear-gradient-16" x1="-9692.81" y1="-9437.03" x2="-9688.33" y2="-9437.03" gradientTransform="translate(-8895.43 -8290.75) rotate(175.25) scale(0.97)" xlink:href="#linear-gradient"/><linearGradient id="linear-gradient-17" x1="-8802.24" y1="-7376.68" x2="-8802.97" y2="-7369.63" gradientTransform="translate(44378.53 -4269.37) rotate(-45.67) scale(3.77)" xlink:href="#linear-gradient-2"/><linearGradient id="linear-gradient-18" x1="-8807.06" y1="-8369.46" x2="-8810.21" y2="-8364.86" gradientTransform="translate(-27475.52 -24917.48) rotate(178.81) scale(3.08)" xlink:href="#linear-gradient-7"/><linearGradient id="linear-gradient-19" x1="-6894.54" y1="-7595.35" x2="-6889.64" y2="-7595.35" gradientTransform="matrix(0.64, 0.72, -0.72, 0.64, 126.63, 9932.2)" xlink:href="#linear-gradient-7"/><linearGradient id="linear-gradient-20" x1="-9021.41" y1="-6149.93" x2="-9022.67" y2="-6159.53" gradientTransform="translate(11033.86 813.78) rotate(-30.79) scale(0.95)" xlink:href="#linear-gradient-5"/><linearGradient id="linear-gradient-21" x1="-8257.59" y1="-10461.73" x2="-8260.72" y2="-10457.15" gradientTransform="translate(-6650.42 -4256.8) rotate(162.15) scale(0.61)" xlink:href="#linear-gradient-3"/><linearGradient id="linear-gradient-22" x1="-8985.54" y1="-7441.79" x2="-8986.66" y2="-7450.34" gradientTransform="translate(40878.56 -15051.89) rotate(-60.52) scale(3.66)" xlink:href="#linear-gradient-3"/><linearGradient id="linear-gradient-23" x1="-9824.33" y1="-6230.97" x2="-9819.05" y2="-6230.97" gradientTransform="translate(9136.65 -2370.31) rotate(-48.09) scale(0.79)" xlink:href="#linear-gradient"/><linearGradient id="linear-gradient-24" x1="-8723.88" y1="-6195" x2="-8722.88" y2="-6189.52" gradientTransform="translate(13753.18 -322.46) rotate(-37.59) scale(1.15)" xlink:href="#linear-gradient-5"/><linearGradient id="linear-gradient-25" x1="-8325.82" y1="-9660.41" x2="-8325.82" y2="-9653.82" gradientTransform="translate(-9005.44 -4024.21) rotate(154.44) scale(0.79)" xlink:href="#linear-gradient-5"/><linearGradient id="linear-gradient-26" x1="-9120.82" y1="-7574.43" x2="-9119.87" y2="-7568.78" gradientTransform="translate(34131.65 -39851.05) rotate(-90.65) scale(4.37)" xlink:href="#linear-gradient-7"/><linearGradient id="linear-gradient-27" x1="-9824.4" y1="-7293.04" x2="-9821.28" y2="-7287.13" gradientTransform="translate(12053.43 -9829.13) rotate(-76.84) scale(1.26)" xlink:href="#linear-gradient-3"/><linearGradient id="linear-gradient-28" x1="-10155.98" y1="-6409.16" x2="-10156.7" y2="-6402.19" gradientTransform="translate(9132.12 -2833.49) rotate(-51.05) scale(0.8)" xlink:href="#linear-gradient"/><linearGradient id="linear-gradient-29" x1="-9475.72" y1="-9097.4" x2="-9472.36" y2="-9091.02" gradientTransform="matrix(-1.04, -0.44, 0.44, -1.04, -5788.21, -13327.21)" xlink:href="#linear-gradient"/><linearGradient id="linear-gradient-30" x1="-8696.61" y1="-7442.84" x2="-8693.55" y2="-7437.03" gradientTransform="translate(34387.49 27585.3) rotate(-1.96) scale(3.84)" xlink:href="#linear-gradient-2"/><linearGradient id="linear-gradient-31" x1="-8349.87" y1="-7790.46" x2="-8350.51" y2="-7784.26" gradientTransform="translate(7038.89 56010.9) rotate(41.35) scale(4.92)" xlink:href="#linear-gradient-2"/><linearGradient id="linear-gradient-32" x1="-8435.86" y1="-7131.67" x2="-8435.86" y2="-7125.76" gradientTransform="translate(16177.09 15676.44) rotate(4.57) scale(2)" xlink:href="#linear-gradient"/><linearGradient id="linear-gradient-33" x1="-8446.71" y1="-8232.84" x2="-8447.18" y2="-8240.05" gradientTransform="translate(-40216.8 24094.87) rotate(105.94) scale(4.07)" xlink:href="#linear-gradient-3"/><linearGradient id="linear-gradient-34" x1="-7380.16" y1="-6012.14" x2="-7383.15" y2="-6007.77" gradientTransform="translate(3759.57 5626.66) rotate(19.71) scale(0.68)" xlink:href="#linear-gradient-2"/><linearGradient id="linear-gradient-35" x1="-8064.31" y1="-5507.84" x2="-8055.75" y2="-5506.79" gradientTransform="matrix(0.66, 0.09, -0.09, 0.66, 4970.55, 4623.18)" xlink:href="#linear-gradient-7"/><linearGradient id="linear-gradient-36" x1="-6996.18" y1="-7924.09" x2="-6996.79" y2="-7918.21" gradientTransform="translate(-1846.44 11636.07) rotate(57.28) scale(1.12)" xlink:href="#linear-gradient"/><linearGradient id="linear-gradient-37" x1="-8367.9" y1="-8085.18" x2="-8368.98" y2="-8093.41" gradientTransform="translate(-39024.28 16862.67) rotate(113.01) scale(3.66)" xlink:href="#linear-gradient-3"/><linearGradient id="linear-gradient-38" x1="-10239.32" y1="-9146.34" x2="-10238.21" y2="-9139.74" gradientTransform="translate(-3305.25 -10237.54) rotate(-152.64) scale(0.81)" xlink:href="#linear-gradient"/><linearGradient id="linear-gradient-39" x1="-8904.55" y1="-7454.33" x2="-8907.74" y2="-7449.67" gradientTransform="translate(44701.35 2152.36) rotate(-37.48) scale(3.82)" xlink:href="#linear-gradient-5"/><linearGradient id="linear-gradient-40" x1="-8339.05" y1="-7594.64" x2="-8339.67" y2="-7588.57" gradientTransform="translate(160.42 40950.97) rotate(47.74) scale(3.6)" xlink:href="#linear-gradient"/><linearGradient id="linear-gradient-41" x1="-8370.61" y1="-7622.72" x2="-8369.66" y2="-7617.54" gradientTransform="matrix(4, 1.84, -1.84, 4, 20683.23, 46180.74)" xlink:href="#linear-gradient-2"/><linearGradient id="linear-gradient-42" x1="-9988.06" y1="-7739.07" x2="-9989.13" y2="-7747.26" gradientTransform="translate(2857.16 -18514.7) rotate(-123.31) scale(1.48)" xlink:href="#linear-gradient-3"/><linearGradient id="linear-gradient-43" x1="-6510.78" y1="-8056.72" x2="-6507.21" y2="-8049.95" gradientTransform="translate(-3606.92 6672.06) rotate(72.7) scale(0.75)" xlink:href="#linear-gradient-3"/><linearGradient id="linear-gradient-44" x1="-9344.59" y1="-8997.12" x2="-9340.36" y2="-8998.31" gradientTransform="translate(-8202 -14179.16) rotate(-164.3) scale(1.3)" xlink:href="#linear-gradient-2"/><linearGradient id="linear-gradient-45" x1="-7856.33" y1="-10285.7" x2="-7859.58" y2="-10280.96" gradientTransform="translate(-7420.44 -869.95) rotate(134.32) scale(0.64)" xlink:href="#linear-gradient-2"/><linearGradient id="linear-gradient-46" x1="-6459" y1="-7312.38" x2="-6452.66" y2="-7311.42" gradientTransform="matrix(0.68, 0.59, -0.59, 0.68, 1557.48, 9185.31)" xlink:href="#linear-gradient-3"/><linearGradient id="linear-gradient-47" x1="-8797.79" y1="-8211.28" x2="-8793.04" y2="-8211.28" gradientTransform="matrix(-4.21, 1.47, -1.47, -4.21, -48247.33, -21605.64)" xlink:href="#linear-gradient-3"/><linearGradient id="linear-gradient-48" x1="-9925.48" y1="-6802.26" x2="-9924.4" y2="-6795.87" gradientTransform="translate(10442.02 -4018.52) rotate(-55.85) scale(0.93)" xlink:href="#linear-gradient"/><linearGradient id="linear-gradient-49" x1="-9515.16" y1="-8234.24" x2="-9516.63" y2="-8241.24" gradientTransform="translate(-8984.29 -25622.59) rotate(-152.77) scale(2.21)" xlink:href="#linear-gradient-7"/><linearGradient id="linear-gradient-50" x1="-9892.73" y1="-10116.93" x2="-9893.3" y2="-10125.54" gradientTransform="translate(-3962.6 -7892.23) rotate(-162.38) scale(0.65)" xlink:href="#linear-gradient-3"/><linearGradient id="linear-gradient-51" x1="-8645.68" y1="-6700.84" x2="-8648.84" y2="-6696.22" gradientTransform="translate(12606.97 8113.55) rotate(-5.24) scale(1.35)" xlink:href="#linear-gradient"/><linearGradient id="linear-gradient-52" x1="-9881.74" y1="-7154.38" x2="-9882.73" y2="-7161.9" gradientTransform="translate(10570.72 -10539.28) rotate(-83.02) scale(1.19)" xlink:href="#linear-gradient"/><linearGradient id="linear-gradient-53" x1="-11216.34" y1="-7932.6" x2="-11211.44" y2="-7933.98" gradientTransform="translate(2597.06 -8354.66) rotate(-111.71) scale(0.63)" xlink:href="#linear-gradient-3"/><linearGradient id="linear-gradient-54" x1="-9180.22" y1="-7791.62" x2="-9181.53" y2="-7797.86" gradientTransform="matrix(-0.45, -3.43, 3.43, -0.45, 22990.25, -34872.53)" xlink:href="#linear-gradient"/><linearGradient id="linear-gradient-55" x1="-8249.04" y1="-7731.39" x2="-8247.99" y2="-7725.14" gradientTransform="translate(-6088.29 34000.01) rotate(57.83) scale(3.06)" xlink:href="#linear-gradient"/><linearGradient id="linear-gradient-56" x1="-8114.57" y1="-6710.66" x2="-8113.18" y2="-6702.11" gradientTransform="translate(7468.4 11540.63) rotate(17.68) scale(1.27)" xlink:href="#linear-gradient-5"/><linearGradient id="linear-gradient-57" x1="-8402.13" y1="-7221.59" x2="-8393.54" y2="-7220.55" gradientTransform="translate(11902.19 19688.83) rotate(18.38) scale(2.07)" xlink:href="#linear-gradient-2"/><linearGradient id="linear-gradient-58" x1="-9951.99" y1="-8003.05" x2="-9952.54" y2="-8011.42" gradientTransform="matrix(-0.98, -1.09, 1.09, -0.98, 165.34, -18604.87)" xlink:href="#linear-gradient-5"/><linearGradient id="linear-gradient-59" x1="-8702.03" y1="-8309.34" x2="-8702.57" y2="-8317.58" gradientTransform="matrix(-2.89, 2.7, -2.7, -2.89, -46163.13, -457.13)" xlink:href="#linear-gradient-5"/><linearGradient id="linear-gradient-60" x1="-8338.96" y1="-8306.89" x2="-8342.25" y2="-8302.08" gradientTransform="translate(-29581.93 7038.74) rotate(122.22) scale(2.62)" xlink:href="#linear-gradient-5"/><linearGradient id="linear-gradient-61" x1="-8368.31" y1="-9700.14" x2="-8362.98" y2="-9701.64" gradientTransform="translate(-9238.98 -3409.73) rotate(150.42) scale(0.8)" xlink:href="#linear-gradient-5"/><linearGradient id="linear-gradient-62" x1="-9353.11" y1="-7782.37" x2="-9349.73" y2="-7775.95" gradientTransform="matrix(-0.12, -2.38, 2.38, -0.12, 17513.47, -23146.26)" xlink:href="#linear-gradient-5"/><linearGradient id="linear-gradient-63" x1="-9064.89" y1="-7806.81" x2="-9065.36" y2="-7814.04" gradientTransform="matrix(-0.32, -4.71, 4.71, -0.32, 34070.31, -45046.28)" xlink:href="#linear-gradient-2"/><linearGradient id="linear-gradient-64" x1="-9346.66" y1="-8234.4" x2="-9341.74" y2="-8234.4" gradientTransform="translate(807.92 -30143.54) rotate(-130.1) scale(2.46)" xlink:href="#linear-gradient-5"/><linearGradient id="linear-gradient-65" x1="-8430.72" y1="-7586.59" x2="-8427.15" y2="-7579.83" gradientTransform="matrix(2.92, 2.28, -2.28, 2.92, 7483.99, 41404.71)" xlink:href="#linear-gradient-5"/><linearGradient id="linear-gradient-66" x1="-10741.09" y1="-10095.49" x2="-10735.34" y2="-10094.62" gradientTransform="translate(-4724.8 -6414.36) rotate(-176.63) scale(0.6)" xlink:href="#linear-gradient"/><linearGradient id="linear-gradient-67" x1="-8934.1" y1="-8365.32" x2="-8932.63" y2="-8356.29" gradientTransform="translate(-38571.8 -21352.47) rotate(165.35) scale(3.72)" xlink:href="#linear-gradient-7"/><linearGradient id="linear-gradient-68" x1="-6834.82" y1="-8249.76" x2="-6831.53" y2="-8243.52" gradientTransform="translate(-6470.67 4957.6) rotate(93.04) scale(0.76)" xlink:href="#linear-gradient-3"/><linearGradient id="linear-gradient-69" x1="-8225.69" y1="-7799.29" x2="-8222.05" y2="-7792.39" gradientTransform="translate(431.33 46591.83) rotate(47.92) scale(4.08)" xlink:href="#linear-gradient-3"/><linearGradient id="linear-gradient-70" x1="-8014.79" y1="-7440.23" x2="-8014.86" y2="-7433.07" gradientTransform="translate(10475.74 22890.57) rotate(25.15) scale(2.24)" xlink:href="#linear-gradient-2"/><linearGradient id="linear-gradient-71" x1="-10993.65" y1="-8069.31" x2="-10989.99" y2="-8062.38" gradientTransform="matrix(-0.5, -0.66, 0.66, -0.5, 1016.15, -10970.17)" xlink:href="#linear-gradient-7"/><linearGradient id="linear-gradient-72" x1="-7490.46" y1="-10141.2" x2="-7489.59" y2="-10136.4" gradientTransform="translate(-8098.7 2516.32) rotate(113.51) scale(0.79)" xlink:href="#linear-gradient-2"/><linearGradient id="linear-gradient-73" x1="-8615.07" y1="-8367.18" x2="-8618.31" y2="-8362.44" gradientTransform="matrix(-2.31, 2.28, -2.28, -2.31, -37930.96, 391.32)" xlink:href="#linear-gradient-7"/><linearGradient id="linear-gradient-74" x1="-6485.34" y1="-7553.69" x2="-6488.23" y2="-7549.47" gradientTransform="matrix(0.17, 0.64, -0.64, 0.17, -3702.63, 5507.75)" xlink:href="#linear-gradient-2"/><linearGradient id="linear-gradient-75" x1="-9874.03" y1="-6863.23" x2="-9872.74" y2="-6855.34" gradientTransform="matrix(0.5, -0.93, 0.93, 0.5, 11637.05, -5561)" xlink:href="#linear-gradient-2"/><linearGradient id="linear-gradient-76" x1="-11309.84" y1="-7357.69" x2="-11303.04" y2="-7356.66" gradientTransform="translate(3656.05 -9869.14) rotate(-110.19) scale(0.79)" xlink:href="#linear-gradient-5"/><linearGradient id="linear-gradient-77" x1="-6151.24" y1="-7680.06" x2="-6152.33" y2="-7688.34" gradientTransform="translate(-530.12 6590.92) rotate(53.19) scale(0.68)" xlink:href="#linear-gradient-3"/><linearGradient id="linear-gradient-78" x1="-7164.42" y1="-9647.14" x2="-7163.21" y2="-9639.72" gradientTransform="translate(-6960.61 3457.03) rotate(104) scale(0.74)" xlink:href="#linear-gradient"/><linearGradient id="linear-gradient-79" x1="-9161.01" y1="-8547.28" x2="-9157.95" y2="-8541.48" gradientTransform="matrix(-2.77, 0.11, -0.11, -2.77, -24771.61, -22007.37)" xlink:href="#linear-gradient-7"/><linearGradient id="linear-gradient-80" x1="-9579.82" y1="-7055.02" x2="-9580.29" y2="-7062.19" gradientTransform="translate(14298.57 -10784.29) rotate(-75.52) scale(1.45)" xlink:href="#linear-gradient-2"/><linearGradient id="linear-gradient-81" x1="-8390.87" y1="-7739.23" x2="-8384.32" y2="-7738.23" gradientTransform="matrix(2.3, 3.64, -3.64, 2.3, -8443.48, 48467.86)" xlink:href="#linear-gradient"/><linearGradient id="linear-gradient-82" x1="-10329.14" y1="-7563.57" x2="-10332.19" y2="-7559.11" gradientTransform="translate(7116.6 -10319.53) rotate(-93.26) scale(0.98)" xlink:href="#linear-gradient-3"/><linearGradient id="linear-gradient-83" x1="-8728.34" y1="-8178.43" x2="-8723.63" y2="-8178.43" gradientTransform="translate(-49425.95 -23876.15) rotate(162.55) scale(4.62)" xlink:href="#linear-gradient-7"/><linearGradient id="linear-gradient-84" x1="-8955.16" y1="-7563.94" x2="-8955.23" y2="-7556.97" gradientTransform="translate(49366.17 -28815.34) rotate(-71.09) scale(4.8)" xlink:href="#linear-gradient-2"/><linearGradient id="linear-gradient-85" x1="-8393.85" y1="-7750.24" x2="-8392.93" y2="-7745.23" gradientTransform="matrix(1.84, 4.33, -4.33, 1.84, -18000.4, 50960.07)" xlink:href="#linear-gradient-5"/><linearGradient id="linear-gradient-86" x1="-7796.45" y1="-5819.97" x2="-7795.05" y2="-5811.4" gradientTransform="matrix(0.63, 0.19, -0.19, 0.63, 3935.13, 5224.69)" xlink:href="#linear-gradient-5"/><linearGradient id="linear-gradient-87" x1="-7743.6" y1="-5897.6" x2="-7740.58" y2="-5891.85" gradientTransform="matrix(0.78, -0.18, -0.18, -0.78, 5400, -5317.76)" xlink:href="#linear-gradient"/><linearGradient id="linear-gradient-88" x1="-8786.98" y1="-8873.28" x2="-8780.86" y2="-8872.35" gradientTransform="matrix(-1.86, -1.05, -1.05, 1.86, -24171.21, 7783.69)" xlink:href="#linear-gradient-2"/><linearGradient id="linear-gradient-89" x1="-9106.77" y1="-7178.15" x2="-9100.56" y2="-7177.2" gradientTransform="matrix(1.85, 1.37, 1.37, -1.85, 26799.73, -237.65)" xlink:href="#linear-gradient-3"/><linearGradient id="linear-gradient-90" x1="-9008.06" y1="-8111.19" x2="-9008.57" y2="-8118.99" gradientTransform="matrix(-3.9, 2.09, 2.09, 3.9, -17627.37, 51235.35)" xlink:href="#linear-gradient-5"/><linearGradient id="linear-gradient-91" x1="-8323.81" y1="-5173.97" x2="-8319.1" y2="-5175.3" gradientTransform="matrix(0.64, 0.31, 0.31, -0.64, 8276.41, 99.26)" xlink:href="#linear-gradient-2"/><linearGradient id="linear-gradient-92" x1="-7678.74" y1="-10318.65" x2="-7679.22" y2="-10325.9" gradientTransform="matrix(-0.38, -0.66, -0.66, 0.38, -8249.19, -384.89)" xlink:href="#linear-gradient-7"/><linearGradient id="linear-gradient-93" x1="-9492.92" y1="-6911.61" x2="-9492.92" y2="-6905.9" gradientTransform="matrix(0.92, 0.95, 0.95, -0.92, 15322.05, 3471.92)" xlink:href="#linear-gradient-2"/><linearGradient id="linear-gradient-94" x1="-8950.46" y1="-7426.63" x2="-8949.46" y2="-7420.71" gradientTransform="matrix(1.94, 3.83, 3.83, -1.94, 47346.76, 20650.1)" xlink:href="#linear-gradient-2"/><linearGradient id="linear-gradient-95" x1="-8556.21" y1="-7318.48" x2="-8556.28" y2="-7311.37" gradientTransform="matrix(3.17, 0.33, 0.33, -3.17, 30396.01, -19604.69)" xlink:href="#linear-gradient-3"/><linearGradient id="linear-gradient-96" x1="-7915.97" y1="-6364.42" x2="-7912.88" y2="-6358.56" gradientTransform="matrix(0.88, -0.33, -0.33, -0.88, 4990.81, -7409.44)" xlink:href="#linear-gradient"/><linearGradient id="linear-gradient-97" x1="-9661.73" y1="-9523.56" x2="-9657.29" y2="-9523.56" gradientTransform="matrix(-0.97, -0.08, -0.08, 0.97, -8895.43, 9342.48)" xlink:href="#linear-gradient"/><linearGradient id="linear-gradient-98" x1="-11580.36" y1="-7106.97" x2="-11580.36" y2="-7102.1" gradientTransform="matrix(-0.26, 0.67, 0.67, 0.26, 3316.71, 10323.97)" xlink:href="#linear-gradient-7"/><linearGradient id="linear-gradient-99" x1="-8799.15" y1="-8392.93" x2="-8801.96" y2="-8388.82" gradientTransform="matrix(-3.07, -0.06, -0.06, 3.07, -27475.52, 25969.2)" xlink:href="#linear-gradient-7"/><linearGradient id="linear-gradient-100" x1="-6845.14" y1="-7519.38" x2="-6840.64" y2="-7519.38" gradientTransform="matrix(0.64, -0.72, -0.72, -0.64, 126.63, -8880.47)" xlink:href="#linear-gradient-7"/><linearGradient id="linear-gradient-101" x1="-9084.99" y1="-6091.56" x2="-9086.11" y2="-6100.03" gradientTransform="matrix(0.82, 0.49, 0.49, -0.82, 11033.86, 237.94)" xlink:href="#linear-gradient-5"/><linearGradient id="linear-gradient-102" x1="-8184.64" y1="-10563.86" x2="-8187.45" y2="-10559.76" gradientTransform="matrix(-0.58, -0.19, -0.19, 0.58, -6650.42, 5308.52)" xlink:href="#linear-gradient-3"/><linearGradient id="linear-gradient-103" x1="-9007.7" y1="-7436.91" x2="-9008.75" y2="-7444.9" gradientTransform="matrix(1.8, 3.19, 3.19, -1.8, 40878.56, 16103.61)" xlink:href="#linear-gradient-3"/><linearGradient id="linear-gradient-104" x1="-9924.33" y1="-6180.58" x2="-9919.51" y2="-6180.58" gradientTransform="matrix(0.53, 0.59, 0.59, -0.53, 9136.65, 3422.04)" xlink:href="#linear-gradient"/><linearGradient id="linear-gradient-105" x1="-8782.76" y1="-6151.16" x2="-8781.86" y2="-6146.21" gradientTransform="matrix(0.91, 0.7, 0.7, -0.91, 13753.18, 1374.19)" xlink:href="#linear-gradient-5"/><linearGradient id="linear-gradient-106" x1="-7918.34" y1="-5833.08" x2="-7919.45" y2="-5841.55" gradientTransform="matrix(1, 0.22, 0.22, -1, 10763.62, -3582.61)" xlink:href="#linear-gradient-3"/><linearGradient id="linear-gradient-107" x1="-9135.4" y1="-7579.85" x2="-9134.45" y2="-7574.22" gradientTransform="matrix(-0.05, 4.37, 4.37, 0.05, 34131.65, 40902.78)" xlink:href="#linear-gradient-7"/><linearGradient id="linear-gradient-108" x1="-9894.08" y1="-7295.59" x2="-9891.09" y2="-7289.92" gradientTransform="matrix(0.29, 1.22, 1.22, -0.29, 12053.43, 10880.86)" xlink:href="#linear-gradient-3"/><linearGradient id="linear-gradient-109" x1="-9480.78" y1="-9162.43" x2="-9477.68" y2="-9156.53" gradientTransform="matrix(-1.04, 0.44, 0.44, 1.04, -5788.21, 14378.93)" xlink:href="#linear-gradient"/><linearGradient id="linear-gradient-110" x1="-8703.42" y1="-7422.77" x2="-8700.5" y2="-7417.22" gradientTransform="matrix(3.83, 0.13, 0.13, -3.83, 34387.49, -26533.57)" xlink:href="#linear-gradient-2"/><linearGradient id="linear-gradient-111" x1="-8342.24" y1="-7774.32" x2="-8342.85" y2="-7768.49" gradientTransform="matrix(3.69, -3.25, -3.25, -3.69, 7038.89, -54959.17)" xlink:href="#linear-gradient-2"/><linearGradient id="linear-gradient-112" x1="-8444.04" y1="-7088.35" x2="-8444.04" y2="-7082.89" gradientTransform="matrix(1.99, -0.16, -0.16, -1.99, 16177.09, -14624.72)" xlink:href="#linear-gradient"/><linearGradient id="linear-gradient-113" x1="-8427.62" y1="-8232.5" x2="-8428.08" y2="-8239.53" gradientTransform="matrix(-1.12, -3.92, -3.92, 1.12, -40216.8, -23043.14)" xlink:href="#linear-gradient-3"/><linearGradient id="linear-gradient-114" x1="-7370.06" y1="-5882.07" x2="-7372.79" y2="-5878.07" gradientTransform="matrix(0.64, -0.23, -0.23, -0.64, 3759.57, -4574.93)" xlink:href="#linear-gradient-2"/><linearGradient id="linear-gradient-115" x1="-8084.75" y1="-5397.3" x2="-8076.08" y2="-5396.24" gradientTransform="matrix(0.66, -0.09, -0.09, -0.66, 4970.55, -3571.45)" xlink:href="#linear-gradient-7"/><linearGradient id="linear-gradient-116" x1="-6953.86" y1="-7872.04" x2="-6954.45" y2="-7866.36" gradientTransform="matrix(0.6, -0.94, -0.94, -0.6, -1846.44, -10584.35)" xlink:href="#linear-gradient"/><linearGradient id="linear-gradient-117" x1="-8347.08" y1="-8087.39" x2="-8348.11" y2="-8095.24" gradientTransform="matrix(-1.43, -3.37, -3.37, 1.43, -39024.28, -15810.94)" xlink:href="#linear-gradient-3"/><linearGradient id="linear-gradient-118" x1="-10261.51" y1="-9251.55" x2="-10260.48" y2="-9245.47" gradientTransform="matrix(-0.72, 0.37, 0.37, 0.72, -3305.25, 11289.27)" xlink:href="#linear-gradient"/><linearGradient id="linear-gradient-119" x1="-8920.91" y1="-7442.96" x2="-8923.81" y2="-7438.72" gradientTransform="matrix(3.03, 2.32, 2.32, -3.03, 44701.35, -1100.63)" xlink:href="#linear-gradient-5"/><linearGradient id="linear-gradient-120" x1="-8330.85" y1="-7578.2" x2="-8331.44" y2="-7572.43" gradientTransform="matrix(2.42, -2.66, -2.66, -2.42, 160.42, -39899.24)" xlink:href="#linear-gradient"/><linearGradient id="linear-gradient-121" x1="-8368.55" y1="-7605.61" x2="-8367.66" y2="-7600.79" gradientTransform="matrix(4, -1.84, -1.84, -4, 20683.23, -45129.02)" xlink:href="#linear-gradient-2"/><linearGradient id="linear-gradient-122" x1="-10028.27" y1="-7784.68" x2="-10029.25" y2="-7792.13" gradientTransform="matrix(-0.81, 1.23, 1.23, 0.81, 2857.16, 19566.42)" xlink:href="#linear-gradient-3"/><linearGradient id="linear-gradient-123" x1="-6422.4" y1="-7996.63" x2="-6419.19" y2="-7990.55" gradientTransform="matrix(0.22, -0.72, -0.72, -0.22, -3606.92, -5620.34)" xlink:href="#linear-gradient-3"/><linearGradient id="linear-gradient-124" x1="-9340.91" y1="-9050.05" x2="-9336.68" y2="-9051.24" gradientTransform="matrix(-1.25, 0.35, 0.35, 1.25, -8202, 15230.88)" xlink:href="#linear-gradient-2"/><linearGradient id="linear-gradient-125" x1="-7738.58" y1="-10350.09" x2="-7741.51" y2="-10345.81" gradientTransform="matrix(-0.45, -0.46, -0.46, 0.45, -7420.44, 1921.68)" xlink:href="#linear-gradient-2"/><linearGradient id="linear-gradient-126" x1="-6435.18" y1="-7246.09" x2="-6429.19" y2="-7245.18" gradientTransform="matrix(0.68, -0.59, -0.59, -0.68, 1557.48, -8133.59)" xlink:href="#linear-gradient-3"/><linearGradient id="linear-gradient-127" x1="-9521.5" y1="-8269.65" x2="-9522.8" y2="-8275.87" gradientTransform="matrix(-1.97, 1.01, 1.01, 1.97, -8984.29, 26674.32)" xlink:href="#linear-gradient-7"/><linearGradient id="linear-gradient-128" x1="-9890.58" y1="-10228.81" x2="-9891.09" y2="-10236.6" gradientTransform="matrix(-0.62, 0.2, 0.2, 0.62, -3962.6, 8943.96)" xlink:href="#linear-gradient-3"/><linearGradient id="linear-gradient-129" x1="-8668.31" y1="-6643.24" x2="-8671.12" y2="-6639.12" gradientTransform="matrix(1.35, 0.12, 0.12, -1.35, 12606.97, -7061.82)" xlink:href="#linear-gradient"/><linearGradient id="linear-gradient-130" x1="-11326.95" y1="-8016.22" x2="-11322.48" y2="-8017.48" gradientTransform="matrix(-0.23, 0.59, 0.59, 0.23, 2597.06, 9406.38)" xlink:href="#linear-gradient-3"/><linearGradient id="linear-gradient-131" x1="-9203.21" y1="-7801.55" x2="-9204.44" y2="-7807.41" gradientTransform="matrix(-0.45, 3.43, 3.43, 0.45, 22990.25, 35924.25)" xlink:href="#linear-gradient"/><linearGradient id="linear-gradient-132" x1="-8115.41" y1="-6652.94" x2="-8114.13" y2="-6645.05" gradientTransform="matrix(1.21, -0.39, -0.39, -1.21, 7468.4, -10488.9)" xlink:href="#linear-gradient-5"/><linearGradient id="linear-gradient-133" x1="-9984.23" y1="-8053.91" x2="-9984.74" y2="-8061.57" gradientTransform="matrix(-0.98, 1.09, 1.09, 0.98, 165.34, 19656.6)" xlink:href="#linear-gradient-5"/><linearGradient id="linear-gradient-134" x1="-8308.28" y1="-8315.66" x2="-8311.23" y2="-8311.36" gradientTransform="matrix(-1.4, -2.22, -2.22, 1.4, -29581.93, -5987.01)" xlink:href="#linear-gradient-5"/><linearGradient id="linear-gradient-135" x1="-9081.34" y1="-7812.93" x2="-9081.8" y2="-7820.07" gradientTransform="matrix(-0.32, 4.71, 4.71, 0.32, 34070.31, 46098.01)" xlink:href="#linear-gradient-2"/><linearGradient id="linear-gradient-136" x1="-9357.18" y1="-8255.68" x2="-9352.66" y2="-8255.68" gradientTransform="matrix(-1.58, 1.88, 1.88, 1.58, 807.92, 31195.27)" xlink:href="#linear-gradient-5"/><linearGradient id="linear-gradient-137" x1="-8923.61" y1="-8379.94" x2="-8922.29" y2="-8371.85" gradientTransform="matrix(-3.6, -0.94, -0.94, 3.6, -38571.8, 22404.19)" xlink:href="#linear-gradient-7"/><linearGradient id="linear-gradient-138" x1="-8218.08" y1="-7784.68" x2="-8214.84" y2="-7778.54" gradientTransform="matrix(2.73, -3.03, -3.03, -2.73, 431.33, -45540.11)" xlink:href="#linear-gradient-3"/><linearGradient id="linear-gradient-139" x1="-8008.96" y1="-7403.45" x2="-8009.03" y2="-7396.68" gradientTransform="matrix(2.03, -0.95, -0.95, -2.03, 10475.74, -21838.84)" xlink:href="#linear-gradient-2"/><linearGradient id="linear-gradient-140" x1="-11045.88" y1="-8143.83" x2="-11042.63" y2="-8137.68" gradientTransform="matrix(-0.5, 0.66, 0.66, 0.5, 1016.15, 12021.89)" xlink:href="#linear-gradient-7"/><linearGradient id="linear-gradient-141" x1="-7398.02" y1="-10149.19" x2="-7397.18" y2="-10144.54" gradientTransform="matrix(-0.31, -0.72, -0.72, 0.31, -8098.7, -1464.59)" xlink:href="#linear-gradient-2"/><linearGradient id="linear-gradient-142" x1="-8591.49" y1="-8380.88" x2="-8594.41" y2="-8376.61" gradientTransform="matrix(-2.31, -2.28, -2.28, 2.31, -37930.96, 660.41)" xlink:href="#linear-gradient-7"/><linearGradient id="linear-gradient-143" x1="-6368.67" y1="-7486.81" x2="-6371.43" y2="-7482.78" gradientTransform="matrix(0.17, -0.64, -0.64, -0.17, -3702.63, -4456.02)" xlink:href="#linear-gradient-2"/><linearGradient id="linear-gradient-144" x1="-6537.65" y1="-9388.94" x2="-6536.83" y2="-9384.46" gradientTransform="matrix(0.01, -0.81, -0.81, -0.01, -5951.39, -4748.61)" xlink:href="#linear-gradient-3"/><linearGradient id="linear-gradient-145" x1="-9948.36" y1="-6847.9" x2="-9947.13" y2="-6840.34" gradientTransform="matrix(0.5, 0.93, 0.93, -0.5, 11637.05, 6612.73)" xlink:href="#linear-gradient-2"/><linearGradient id="linear-gradient-146" x1="-11361.26" y1="-7407.97" x2="-11354.94" y2="-7407.01" gradientTransform="matrix(-0.27, 0.74, 0.74, 0.27, 3656.05, 10920.86)" xlink:href="#linear-gradient-5"/><linearGradient id="linear-gradient-147" x1="-6071.2" y1="-7578.02" x2="-6072.19" y2="-7585.51" gradientTransform="matrix(0.41, -0.55, -0.55, -0.41, -530.12, -5539.19)" xlink:href="#linear-gradient-3"/><linearGradient id="linear-gradient-148" x1="-9152.14" y1="-8561.3" x2="-9149.22" y2="-8555.76" gradientTransform="matrix(-2.77, -0.11, -0.11, 2.77, -24771.61, 23059.1)" xlink:href="#linear-gradient-7"/><linearGradient id="linear-gradient-149" x1="-9641.1" y1="-7055.83" x2="-9641.56" y2="-7062.85" gradientTransform="matrix(0.36, 1.4, 1.4, -0.36, 14298.57, 11836.02)" xlink:href="#linear-gradient-2"/><linearGradient id="linear-gradient-150" x1="-8628.27" y1="-8351.25" x2="-8621.89" y2="-8350.29" gradientTransform="matrix(-2.58, -3.05, -3.05, 2.58, -46219.48, -3982.46)" xlink:href="#linear-gradient-7"/><linearGradient id="linear-gradient-151" x1="-8372.26" y1="-7409.17" x2="-8371.35" y2="-7404.16" gradientTransform="matrix(3.55, -0.08, -0.08, -3.55, 30689.43, -26182.41)" xlink:href="#linear-gradient-2"/><linearGradient id="linear-gradient-152" x1="-8377.64" y1="-7724.5" x2="-8371.46" y2="-7723.56" gradientTransform="matrix(2.3, -3.64, -3.64, -2.3, -8443.48, -47416.13)" xlink:href="#linear-gradient"/><linearGradient id="linear-gradient-153" x1="-10408.38" y1="-7591.76" x2="-10411.21" y2="-7587.62" gradientTransform="matrix(-0.06, 0.98, 0.98, 0.06, 7116.6, 11371.26)" xlink:href="#linear-gradient-3"/><linearGradient id="linear-gradient-154" x1="-8383.28" y1="-7740.17" x2="-8382.46" y2="-7735.67" gradientTransform="matrix(1.84, -4.33, -4.33, -1.84, -18000.4, -49908.35)" xlink:href="#linear-gradient-5"/></defs><g opacity="0.31"><path d="M957.26,203.59s-6.13,16.55-22.27,22.27c0,0,5,10.23,14.35,9.7,0,0,11.63-2.51,20.69-26.13,0,0-9.7.41-12.77-5.84" fill="#4ec4d8"/><path d="M1389.88,369.22s-17.32-3.34-25.61-18.33c0,0-9.28,6.56-7.22,15.75,0,0,4.38,11.06,29.16,16.14,0,0-2-9.51,3.67-13.56" fill="#4ec4d8"/></g><path d="M635.44,652.18s-4.73-5.49,4.91-10.6a80.26,80.26,0,0,1-29.73-23.94s-5.5,3.1-8.09,7c0,0,7.71,12.63,32.91,27.57" fill="#ef4a44"/><path d="M119.39,331.87c-4.07-3.54-11.75-9.15-12.71-15a24.92,24.92,0,0,0,3.37,1.44c5.51,1.88,21.25,4.18,23-4.13S121.77,302.34,116,302.26A14.91,14.91,0,0,0,103.6,308c-3.95-3.79-6.1-8.91-3-14.3,1.93-3.35,5.85-5.56,10.15-7.07a28,28,0,0,0,4.35,1.59c4.21,1.1,19.4,2.54,17-5.86-2.12-7.52-15.69-3.5-21.16-1.43a29.38,29.38,0,0,1-4.78-3.09c-6-4.81-13.73-15.69-7.89-22.89a14.16,14.16,0,0,1-3-4.72c-10.25,10.42-1.37,25.34,10,33.24-6.66,3.48-12.79,8.88-11.44,17a21.81,21.81,0,0,0,7.56,12.84,13.85,13.85,0,0,0,.26,5.24c1.33,5.64,5.44,9.82,9.69,13.5,1.09.94,5.22,4.19,9.06,7.8,6,3.36,10.7,7.46,9.73,15.84,10-7.55-5.16-19-10.77-23.84M127,283.28c.53,4.25-10.18.83-10.18.83,6.87-3.3,10.18-.83,10.18-.83m-18.89,28c.22-.29.45-.58.71-.87,2.27-2.5,7.2-2.93,10.38-2.68,2.27.17,7.77,1.6,7.2,4.82-.72,4-9,1.94-11.54,1.4a23.42,23.42,0,0,1-6.75-2.67" fill="#ee9521"/><path d="M1038.93,289.46c-1-8.39,3.73-12.48,9.72-15.85,3.84-3.6,8-6.85,9.07-7.8,4.25-3.68,8.36-7.86,9.69-13.49a13.64,13.64,0,0,0,.25-5.24,21.85,21.85,0,0,0,7.57-12.85c1.35-8.15-4.78-13.55-11.44-17,11.31-7.89,20.19-22.82,9.94-33.24a13.89,13.89,0,0,1-3,4.73c5.85,7.2-1.85,18.07-7.89,22.89a29,29,0,0,1-4.77,3.08c-5.48-2.06-19-6.09-21.16,1.44-2.36,8.39,12.83,7,17,5.85a26.13,26.13,0,0,0,4.35-1.59c4.29,1.51,8.22,3.73,10.15,7.08,3.1,5.39,1,10.51-3,14.3a14.89,14.89,0,0,0-12.36-5.72c-5.8.07-18.85,3.44-17.08,11.89s17.49,6,23,4.12a25.41,25.41,0,0,0,3.37-1.43c-1,5.87-8.65,11.48-12.71,15-5.61,4.88-20.79,16.28-10.77,23.84m13.38-71.6s-10.71,3.42-10.18-.84c0,0,3.3-2.46,10.18.84m2,29.86c-2.58.55-10.82,2.63-11.54-1.39-.58-3.22,4.93-4.65,7.2-4.83,3.17-.24,8.11.18,10.38,2.69a10.67,10.67,0,0,1,.7.87,23.44,23.44,0,0,1-6.74,2.66" fill="#ee9521"/><path d="M1432.9,327.14c-4.06-3.54-11.75-9.15-12.71-15a26.81,26.81,0,0,0,3.37,1.43c5.51,1.88,21.26,4.19,23-4.13s-11.28-11.81-17.08-11.89a14.89,14.89,0,0,0-12.36,5.72c-4-3.79-6.11-8.91-3-14.29,1.93-3.35,5.86-5.57,10.15-7.08a28,28,0,0,0,4.35,1.59c4.21,1.1,19.4,2.54,17-5.86-2.11-7.52-15.68-3.5-21.16-1.43a29.73,29.73,0,0,1-4.77-3.09c-6-4.81-13.74-15.68-7.89-22.88a14,14,0,0,1-3-4.73c-10.25,10.42-1.37,25.34,9.94,33.24-6.66,3.49-12.79,8.88-11.44,17a21.82,21.82,0,0,0,7.57,12.84,13.68,13.68,0,0,0,.25,5.25c1.34,5.63,5.44,9.81,9.69,13.49,1.09.94,5.23,4.19,9.07,7.8,6,3.36,10.7,7.46,9.72,15.84,10-7.55-5.16-19-10.77-23.84m7.57-48.59c.53,4.26-10.18.83-10.18.83,6.88-3.29,10.18-.83,10.18-.83m-18.88,28a10.67,10.67,0,0,1,.7-.87c2.27-2.5,7.21-2.93,10.38-2.68,2.27.17,7.78,1.6,7.2,4.82-.72,4-9,1.94-11.54,1.4a23.2,23.2,0,0,1-6.74-2.67" fill="#ee9521"/><path d="M1325.19,687.16c-1-8.38,3.72-12.48,9.72-15.84,3.84-3.61,8-6.85,9.06-7.8,4.25-3.68,8.36-7.86,9.69-13.49a13.9,13.9,0,0,0,.26-5.25,21.84,21.84,0,0,0,7.57-12.84c1.34-8.15-4.79-13.55-11.45-17,11.32-7.89,20.2-22.82,10-33.24a14.31,14.31,0,0,1-3,4.73c5.84,7.2-1.86,18.07-7.89,22.88a28.11,28.11,0,0,1-4.78,3.09c-5.47-2.06-19-6.09-21.16,1.43-2.36,8.4,12.83,7,17,5.86a27.68,27.68,0,0,0,4.35-1.59c4.3,1.51,8.22,3.73,10.15,7.08,3.1,5.39,1,10.51-3,14.3a14.92,14.92,0,0,0-12.36-5.73c-5.81.08-18.85,3.45-17.08,11.9s17.48,6,23,4.12a26.2,26.2,0,0,0,3.37-1.43c-1,5.87-8.64,11.48-12.71,15-5.61,4.89-20.79,16.29-10.76,23.84m13.38-71.59s-10.72,3.42-10.19-.84c0,0,3.31-2.46,10.19.84m2,29.86c-2.59.54-10.83,2.62-11.55-1.4-.57-3.22,4.93-4.65,7.21-4.82,3.17-.25,8.1.18,10.37,2.68a9,9,0,0,1,.71.87,23.2,23.2,0,0,1-6.74,2.67" fill="#ee9521"/><path d="M124.13,731c-1-8.38,3.72-12.48,9.72-15.84,3.84-3.61,8-6.85,9.06-7.8,4.25-3.68,8.36-7.86,9.69-13.49a13.9,13.9,0,0,0,.26-5.25,21.84,21.84,0,0,0,7.57-12.84c1.34-8.15-4.79-13.55-11.45-17,11.32-7.89,20.2-22.82,10-33.24a14.31,14.31,0,0,1-3,4.73c5.84,7.2-1.86,18.07-7.89,22.88a28.11,28.11,0,0,1-4.78,3.09c-5.47-2.06-19-6.09-21.16,1.43-2.36,8.4,12.83,7,17,5.86a27.32,27.32,0,0,0,4.35-1.59c4.3,1.51,8.22,3.73,10.15,7.08,3.1,5.39.95,10.51-3,14.3a14.92,14.92,0,0,0-12.36-5.73c-5.81.08-18.85,3.45-17.08,11.9s17.48,6,23,4.12a26.2,26.2,0,0,0,3.37-1.43c-1,5.87-8.64,11.48-12.71,15-5.61,4.89-20.79,16.29-10.76,23.84m13.38-71.59s-10.72,3.42-10.19-.84c0,0,3.31-2.46,10.19.84m2,29.86c-2.59.54-10.83,2.62-11.55-1.4-.57-3.22,4.93-4.64,7.21-4.82,3.17-.25,8.1.18,10.37,2.68a9,9,0,0,1,.71.87,23.2,23.2,0,0,1-6.74,2.67" fill="#ee9521"/><path d="M53.15,532.57s5.61,4.88-3.43,11.46a82.26,82.26,0,0,1,33.65,20s5.12-3.94,7.19-8.24c0,0-9.66-11.7-37.41-23.18" fill="#ef4a44"/><path d="M199.73,649.09s-1.91,7.19-11.81,2a82.37,82.37,0,0,1-3,39s5.8,2.86,10.58,2.81c0,0,6.22-13.83,4.27-43.8" fill="#ef4a44"/><path d="M320.36,768.42s-6.36,3.85-9.87-6.77a82.26,82.26,0,0,1-29.29,25.94s2.2,6.09,5.66,9.37c0,0,14.09-5.63,33.5-28.54" fill="#ef4a44"/><path d="M647.68,344.6s4.88-5.6,11.46,3.44a82.32,82.32,0,0,1,20-33.65s-3.94-5.12-8.24-7.19c0,0-11.7,9.66-23.2,37.4" fill="#ef4a44"/><path d="M448.69,370.86s5.89,4.53-2.72,11.66a82.26,82.26,0,0,1,34.82,17.84s4.87-4.25,6.67-8.67c0,0-10.37-11.08-38.77-20.83" fill="#ef4a44"/><path d="M1111.91,229.93s2.44,7-8.68,8.24a82.35,82.35,0,0,1,19.27,34.06s6.4-.88,10.34-3.58c0,0-2.57-15-20.93-38.72" fill="#ef4a44"/><path d="M1550.25,456.11s-3.83,6.36-11.89-1.39a82.32,82.32,0,0,1-13.8,36.62s4.78,4.35,9.38,5.64c0,0,9.83-11.55,16.31-40.87" fill="#ef4a44"/><path d="M1397.58,614.16s.62,7.41-10.45,5.84a82.42,82.42,0,0,1,10.25,37.76s6.42.74,10.9-.91c0,0,1.21-15.12-10.7-42.69" fill="#ef4a44"/><path d="M1210.09,699.9s-6.18,4.12-10.15-6.33a82.45,82.45,0,0,1-28.12,27.21s2.46,6,6.06,9.11c0,0,13.83-6.25,32.21-30" fill="#ef4a44"/><path d="M586.72,349.22s-17.38,5-31.91-4.85c0,0-5.44,10.3.71,17.74,0,0,9.14,8.07,34.15,1.19,0,0-6.24-7.75-2.95-14.08" fill="#4ec4d8"/><path d="M1381.75,710.43s-12.5,13.07-30,11.9c0,0,.49,11.64,9.56,15,0,0,12,2.37,30.09-16.17,0,0-9.3-3.56-9.64-10.69" fill="#4ec4d8"/><path d="M993.74,733.78s-7.29-16.55.51-32.28c0,0-11-4-17.49,3.1,0,0-6.77,10.15,3.41,34,0,0,6.85-7.23,13.57-4.82" fill="#4ec4d8"/><path d="M480.28,774.92s14-11.42,31.26-8.07c0,0,1-11.61-7.62-16,0,0-11.58-3.84-31.87,12.29,0,0,8.78,4.69,8.23,11.81" fill="#4ec4d8"/><path d="M36.39,847.92s3.23-17.8,18.49-26.46c0,0-6.82-9.44-16.22-7.22,0,0-11.29,4.61-16.2,30.08,0,0,9.72-2.16,13.93,3.6" fill="#4ec4d8"/><path d="M610.24,186.8s-9.28,15.53-26.61,18.27c0,0,3.07,11.24,12.64,12.46,0,0,12.19-.35,25.75-22.45,0,0-9.86-1.41-11.78-8.28" fill="#4ec4d8"/><path d="M232.36,204.73S235.69,187,251,178.38c0,0-6.77-9.48-16.18-7.32,0,0-11.32,4.55-16.39,30,0,0,9.74-2.09,13.92,3.69" fill="#4ec4d8"/><path d="M50.53,378s6.83,16.75-1.4,32.26c0,0,10.83,4.3,17.56-2.62,0,0,7-9.95-2.47-34.07,0,0-7,7-13.69,4.43" fill="#4ec4d8"/><path d="M117.82,41.56s6.82,16.75-1.41,32.26c0,0,10.83,4.3,17.57-2.62,0,0,7-10-2.47-34.07,0,0-7,7-13.69,4.43" fill="#4ec4d8"/><g opacity="0.7"><g clip-path="url(#clip-path)"><polygon points="355.23 315.42 366.25 308.02 366.62 294.16 376.82 303.03 389.43 299.27 384.71 312.15 392.14 323.69 379.01 322.78 371 333.67 367.61 320.23 355.23 315.42" fill="#caef30"/></g></g><g opacity="0.7"><g clip-path="url(#clip-path-2)"><polygon points="990.28 338.69 976.37 329.35 975.91 311.87 963.03 323.06 947.13 318.32 953.09 334.57 943.72 349.12 960.27 347.98 970.38 361.71 974.66 344.75 990.28 338.69" fill="#ff399c"/></g></g><g opacity="0.7"><g clip-path="url(#clip-path-3)"><polygon points="1248.16 651.41 1235.69 643.04 1235.28 627.37 1223.74 637.4 1209.49 633.15 1214.82 647.72 1206.43 660.76 1221.27 659.74 1230.33 672.04 1234.16 656.85 1248.16 651.41" fill="#ef30ef"/></g></g><g opacity="0.7"><g clip-path="url(#clip-path-4)"><polygon points="399.92 659.8 390.03 653.16 389.7 640.73 380.54 648.68 369.23 645.31 373.47 656.87 366.8 667.22 378.58 666.41 385.77 676.18 388.81 664.12 399.92 659.8" fill="#ffee58"/></g></g><path d="M447.6,318.76a8.89,8.89,0,0,0,3.81,4.11,10.74,10.74,0,0,1,3.6-1c-.89-1-1-2-.64-4C452.38,318.68,450.35,318.72,447.6,318.76Z" fill="url(#linear-gradient)"/><path d="M1466.56,547.28a68.76,68.76,0,0,0-4.93-20,21.94,21.94,0,0,0-7.9,8.49c2.33,3.44,2.82,6.85,3.19,12.2C1460.64,545.85,1463,545.89,1466.56,547.28Z" fill="url(#linear-gradient-2)"/><path d="M247.32,71c-4.22-4.9-8.08-6.36-14.49-5.31-3.23,6.34-4.83,11.44-4.4,17.11,5.9,3.63,8.93,8,13.48,16.13C242.65,88,243.38,81.31,247.32,71Z" fill="url(#linear-gradient-3)"/><path d="M114,395.61a71.7,71.7,0,0,0,7.54,20.66A25.35,25.35,0,0,0,129,405.91c-2.88-3.33-3.79-6.9-4.8-12.57C120.47,396.18,118,396.52,114,395.61Z" fill="url(#linear-gradient-4)"/><path d="M569.44,203.87c5.63-4.41,7.79-10.83,9-21.83-14.21-4.34-22.16-8.83-33.29-18.93-1.29,8-4.28,12.82-11.68,21C544.92,194.3,555.25,199.35,569.44,203.87Z" fill="url(#linear-gradient-5)"/><path d="M1364,145a12.68,12.68,0,0,1,2.77,3.82,3.82,3.82,0,0,0,1.55-1.88,17.13,17.13,0,0,0-2.63-4.14C1365.3,144.11,1364.92,144.73,1364,145Z" fill="url(#linear-gradient-6)"/><path d="M642.63,74.19a12.18,12.18,0,0,1,1.53,4A2.92,2.92,0,0,0,645.81,77a16.16,16.16,0,0,0-1.34-4.16C643.88,73.86,643.44,74.26,642.63,74.19Z" fill="url(#linear-gradient-7)"/><path d="M1567.41,239.12c-.6-1.19-1.52-1.68-3.11-2a18,18,0,0,1-2.94,6.77c1.15.31,1.84,1,3,2.54A21.77,21.77,0,0,0,1567.41,239.12Z" fill="url(#linear-gradient-8)"/><path d="M74.17,118c.6,1.47,1.56,2.07,3.14,3,1.55-4.2,4.25-8.1,7.72-12.28a6.62,6.62,0,0,1-2.58-3.32A37.74,37.74,0,0,0,74.17,118Z" fill="url(#linear-gradient-9)"/><path d="M25.25,327.89c-2.93,2-4.41,3.75-6.22,7.78a15.8,15.8,0,0,1,7.46,6.93,22.2,22.2,0,0,0,6.91-6.24C30.07,334.09,28,331.81,25.25,327.89Z" fill="url(#linear-gradient-10)"/><path d="M800.3,70c2.1,5,5.37,7,10.8,10C816.24,65.6,825.3,52.13,837,37.7c-4.27-2.71-6.36-5.63-8.93-11.22C814.92,40.86,808.62,50.28,800.3,70Z" fill="url(#linear-gradient-11)"/><path d="M542.39,51.3a6,6,0,0,0-1,5.1c1.59,1,2.86,1.47,4.22,1.22a11.53,11.53,0,0,1,3.67-4.95A14.8,14.8,0,0,1,542.39,51.3Z" fill="url(#linear-gradient-12)"/><path d="M1516,245.23c6.45,5.59,11,7.69,20.07,8.43-.2-11.9,1.55-18.86,5.26-25.92-5.72-5.78-10.37-8.51-18-11.71C1522.55,226.8,1520.4,234.23,1516,245.23Z" fill="url(#linear-gradient-13)"/><path d="M867.52,205.41c-2.13,6.17-1.85,10.75,1.18,17.12,5.81,1.17,10.14,1.06,14.18-1.38.61-7.49,2.8-12.23,7.16-19.87C881.73,204.34,876.5,205.94,867.52,205.41Z" fill="url(#linear-gradient-14)"/><path d="M133.72,120.86c.85,2.08,1.93,4.25,3.91,5.52a12.06,12.06,0,0,1,4.36-.49c-.92-1.32-.9-2.51-.23-4.82C139.33,121.65,137,121.33,133.72,120.86Z" fill="url(#linear-gradient-15)"/><path d="M1278.55,95.23a16.21,16.21,0,0,0-.31-7.32,4.74,4.74,0,0,0-3.71.31,14.92,14.92,0,0,1,.26,7.21C1276.29,94.65,1277.27,94.46,1278.55,95.23Z" fill="url(#linear-gradient-16)"/><path d="M1331.16,41c5.29,4.34,7.75,8.55,8.23,17.7,7.27-5.13,11-10.53,17.36-20.9-.59-7.15-2.73-10.39-8.34-15C1342.92,31.61,1338.46,37.48,1331.16,41Z" fill="url(#linear-gradient-17)"/><path d="M153.13,248.07c-7.87-3.42-11.74-5.74-16.38-12.16-1.95,3.21-3.57,4.85-5.7,5.24,4.62,7.34,9.11,10.91,17.2,15.42A20.25,20.25,0,0,0,153.13,248.07Z" fill="url(#linear-gradient-18)"/><path d="M1193,117.64a12,12,0,0,0-4.66,4.63,6.39,6.39,0,0,0,2.4,3.32,11,11,0,0,1,4.62-4.51A4.54,4.54,0,0,1,1193,117.64Z" fill="url(#linear-gradient-19)"/><path d="M636.15,176.6a13.72,13.72,0,0,1,2.28,4.68,35.65,35.65,0,0,1,6.83-7,7.79,7.79,0,0,0-1.78-4.78A41.82,41.82,0,0,0,636.15,176.6Z" fill="url(#linear-gradient-20)"/><path d="M74,251.71a5.75,5.75,0,0,1-3.68-1.2,2,2,0,0,1-.83,1.38,7.13,7.13,0,0,0,4,1.76A4.42,4.42,0,0,0,74,251.71Z" fill="url(#linear-gradient-21)"/><path d="M945,183.61c5.42,2,9.79,5.09,15.08,10.43,3.4-16.62,6.4-27.53,11.58-39-4.3-7.36-8-9.68-13.55-11.89C954,151.3,949.13,166.15,945,183.61Z" fill="url(#linear-gradient-22)"/><path d="M317.83,106.5a10.23,10.23,0,0,0,3.59,4.09,5.26,5.26,0,0,0,2-2.64,9.47,9.47,0,0,1-3.51-4.07C319.43,105.34,318.94,106.1,317.83,106.5Z" fill="url(#linear-gradient-23)"/><path d="M1437.62,157a4.36,4.36,0,0,1,2.18,2.82,35.06,35.06,0,0,0,6.25-7.64,8.43,8.43,0,0,0-2.63-3.52A20.69,20.69,0,0,1,1437.62,157Z" fill="url(#linear-gradient-24)"/><path d="M245.15,29.12a4.34,4.34,0,0,0-1.25-2.46,21.46,21.46,0,0,1-6.48,5,4.58,4.58,0,0,1,.87,2.52A19,19,0,0,0,245.15,29.12Z" fill="url(#linear-gradient-25)"/><path d="M1513.39,369.77c8,1.41,13,.73,21.41-3.66-4.86-10.61-6-17.86-5.45-26.3-7.42-2-12.69-1.87-20.8-.49C1512,349.5,1513,357.41,1513.39,369.77Z" fill="url(#linear-gradient-26)"/><path d="M311,120a14.56,14.56,0,0,0,5.43-7.12,26.53,26.53,0,0,1-1.3-6.79c-1.3,1.69-2.62,1.85-5.29,1.2C310.91,111,311,114.81,311,120Z" fill="url(#linear-gradient-27)"/><path d="M26.92,267.37a4.27,4.27,0,0,1,2,3.55c1.45-1.25,2.16-2.49,3.33-4.83a3.82,3.82,0,0,0-2-3C29.26,265.1,28.41,266.45,26.92,267.37Z" fill="url(#linear-gradient-28)"/><path d="M96,285.94c-.93-2.54-2.15-5.19-4.46-6.81a14.57,14.57,0,0,1-5.23.35c1,1.63,1,3,.09,5.77C89.29,284.69,92.12,285.2,96,285.94Z" fill="url(#linear-gradient-29)"/><path d="M48.94,194.43c5.91,6.24,12.82,12.37,21.89,13.43,5.41-4.54,9.28-7.25,15.71-10-5.19-3.25-6.64-7.75-7.17-17.67C71,187,61.66,190.19,48.94,194.43Z" fill="url(#linear-gradient-30)"/><path d="M1513,103.75c-4.39,8.54-8.82,12.65-18.78,14,6.1,11,12.25,16.48,24,25.61,7.77-1.39,11.15-4.94,15.84-14C1524,121.44,1517.33,114.89,1513,103.75Z" fill="url(#linear-gradient-31)"/><path d="M478.26,111.4c-.85,2.26-.52,4.16.11,7.26,5.61-1.9,12-1.92,19.48-1.11a12.49,12.49,0,0,1,.76-6.82C490.78,109.31,486.29,109.34,478.26,111.4Z" fill="url(#linear-gradient-32)"/><path d="M1490.26,216.35c-4.42-5.19-9.68-6.26-18.22-5.46-.49,16.12-2.32,25.54-7.76,39.48,6.25-.18,10.49,2.09,18.13,8.44C1487.84,244.57,1489.62,232.49,1490.26,216.35Z" fill="url(#linear-gradient-33)"/><path d="M423.49,105.8a8.7,8.7,0,0,1,2.57,4c.62-.47,1.06-.66,1.52-.54a11,11,0,0,0-2.52-4.79A3.77,3.77,0,0,0,423.49,105.8Z" fill="url(#linear-gradient-34)"/><path d="M118.18,265c.21,1.42-.08,2.94-1.72,5.83a5.26,5.26,0,0,0,3.86.5,15.14,15.14,0,0,0,1.41-6.4A4.79,4.79,0,0,1,118.18,265Z" fill="url(#linear-gradient-35)"/><path d="M1376.44,265.71a4.43,4.43,0,0,1-4.83,1.66c.76,2.86,1.82,4.52,3.91,7.39,1.77.27,2.69-.25,4.19-1.88C1377.94,270.4,1376.81,268.47,1376.44,265.71Z" fill="url(#linear-gradient-36)"/><path d="M198.33,232.46c-5.56-1.27-10.2-3.74-16-8.33-1.8,17-3.75,28.2-7.82,40.28,5,6.73,8.88,8.53,14.59,10C192.46,265.75,195.92,250.35,198.33,232.46Z" fill="url(#linear-gradient-37)"/><path d="M646.49,124.65a8.34,8.34,0,0,0,1.36-4.49,5.85,5.85,0,0,1-4.07-1.22,12.09,12.09,0,0,0-1.88,4A11,11,0,0,1,646.49,124.65Z" fill="url(#linear-gradient-38)"/><path d="M368.36,273.23c10-3.49,15.28-4.57,23.88-2.21,0-4.93.6-8,2.49-10.26-9.15-3.29-15.84-2.91-26.71-.33A29,29,0,0,0,368.36,273.23Z" fill="url(#linear-gradient-39)"/><path d="M200.8,371.08c-3.76,5.78-7.26,8.34-14.6,8.36,3.68,8.57,7.79,13.17,15.7,20.95,5.75-.26,8.44-2.5,12.47-8.63C207.63,385,203.19,379.6,200.8,371.08Z" fill="url(#linear-gradient-40)"/><path d="M1256,249.75a19.77,19.77,0,0,1-4.13,13.81c12,6.65,20.33,9.05,32.75,11.72,4.25-7.65,5.06-13,5.32-16.88C1276.41,259.16,1268.13,256,1256,249.75Z" fill="url(#linear-gradient-41)"/><path d="M1402.35,104.92a16.58,16.58,0,0,1,5.91-4.53,59.4,59.4,0,0,1-9.58-12.16,9,9,0,0,0-6.07,3.61A70.42,70.42,0,0,0,1402.35,104.92Z" fill="url(#linear-gradient-42)"/><path d="M711.88,203.45a10.64,10.64,0,0,0-1,5.63,12.85,12.85,0,0,1,2.39,3c.25-1.33.88-1.89,2.42-2.53A23.75,23.75,0,0,1,711.88,203.45Z" fill="url(#linear-gradient-43)"/><path d="M312.2,349.05a28.32,28.32,0,0,1,.1-9.23,5.4,5.4,0,0,0-4,.33,37.28,37.28,0,0,0-.62,9.45C309.57,348.32,310.71,348,312.2,349.05Z" fill="url(#linear-gradient-44)"/><path d="M818.9,131.06a6,6,0,0,1-3.92,1.05,2.6,2.6,0,0,1-.21,1.77,7,7,0,0,0,4.45-.71A4.78,4.78,0,0,0,818.9,131.06Z" fill="url(#linear-gradient-45)"/><path d="M1524.14,411.16a21.6,21.6,0,0,0-6,5.15,8.11,8.11,0,0,0,3.94,2.55,7.25,7.25,0,0,1,3.61-3.22A6.26,6.26,0,0,1,1524.14,411.16Z" fill="url(#linear-gradient-46)"/><path d="M912,78.2c-1.09-13-3.08-23.23-8.43-32-7.25.37-11.71,2.34-16.16,6.46,5.73,11.27,7.58,18.6,8.07,31.63C901.42,78.72,905.59,76.55,912,78.2Z" fill="url(#linear-gradient-47)"/><path d="M34.89,68.58A6.83,6.83,0,0,0,39,71.05a10.21,10.21,0,0,1,1.72-5.39,11.14,11.14,0,0,0-3.58-3.1A19.06,19.06,0,0,1,34.89,68.58Z" fill="url(#linear-gradient-48)"/><path d="M1408.09,233.9c1.92-4.92,2.51-7.86,1.11-13.46a73.58,73.58,0,0,1-18.53-7.11,16.74,16.74,0,0,1-1.73,7.18C1396.85,224.29,1401.31,227.81,1408.09,233.9Z" fill="url(#linear-gradient-49)"/><path d="M166.76,305.07c.72-.82.88-1.81.82-3.44a10.39,10.39,0,0,1-5.23-1.66,5.88,5.88,0,0,1-1.21,3.41A12.39,12.39,0,0,0,166.76,305.07Z" fill="url(#linear-gradient-50)"/><path d="M143,167.43c3.53,1.21,5.29,2.08,7.49,4.73.77-1.48,1.44-2.26,2.36-2.51-2.21-3.05-4.27-4.45-7.93-6.12A9,9,0,0,0,143,167.43Z" fill="url(#linear-gradient-51)"/><path d="M707.91,77.66a11.32,11.32,0,0,1,5.6.89,59.09,59.09,0,0,1-.59-13.4,6.57,6.57,0,0,0-5.29-1.55A69.9,69.9,0,0,0,707.91,77.66Z" fill="url(#linear-gradient-52)"/><path d="M553.27,113.18a9.79,9.79,0,0,1,3-2.69,3.51,3.51,0,0,0-1.3-1.77,13,13,0,0,0-3.26,2.52A2.22,2.22,0,0,1,553.27,113.18Z" fill="url(#linear-gradient-53)"/><path d="M327.8,154.07c7-1.42,10.7-3.14,15.49-10.26a178.28,178.28,0,0,1-8.81-34.8c-3.64,2.65-6.65,3.56-9.28,3.71C328.16,128.25,328.33,138.23,327.8,154.07Z" fill="url(#linear-gradient-54)"/><path d="M483.16,60.92c-5.21,2.65-8,5.23-11.65,11.53,6.15,4.21,9.06,8,11.31,13.32,5.05-2,8.15-4.43,12.56-8.79C490.2,72.41,487.18,68.12,483.16,60.92Z" fill="url(#linear-gradient-55)"/><path d="M231.5,289.11a12.67,12.67,0,0,1-2.61,7.54c4.39,1.21,8.9,1.82,11,1.32a21.57,21.57,0,0,0,.17-7.83C237.7,290.75,235.38,290.2,231.5,289.11Z" fill="url(#linear-gradient-56)"/><path d="M136.57,42.9c-.07,4.45-1.68,8.86-8.06,16.53A17,17,0,0,0,140,63.6c4.09-6.49,6.08-10.75,7.41-18.47C143.42,45.89,141,45.1,136.57,42.9Z" fill="url(#linear-gradient-57)"/><path d="M1232.29,120c2.17-.62,3.45-2.34,4.88-5.61a29.89,29.89,0,0,1-8.63-10.37c-1.15,2.32-2.54,3.43-5.62,5A35.63,35.63,0,0,0,1232.29,120Z" fill="url(#linear-gradient-58)"/><path d="M1437.51,54.05c-1.5-7-5.44-11-12.88-15.43-7.16,13.13-12.63,19.88-23,28.23,5.28,3.58,7.86,8,11.57,17.85C1423.68,76.09,1430.23,67.1,1437.51,54.05Z" fill="url(#linear-gradient-59)"/><path d="M467.24,150.35c-5.72,5.07-8.92,7.27-14.92,8.2,1,3.16,1.21,5.31.45,7.3,6.53-.48,10.77-2.63,17.24-7.37A18.55,18.55,0,0,0,467.24,150.35Z" fill="url(#linear-gradient-60)"/><path d="M473.09,56.78a13.72,13.72,0,0,1-3.36-4.07A4.5,4.5,0,0,0,468.1,55a18.43,18.43,0,0,0,3.21,4.45C471.67,57.85,472.07,57.13,473.09,56.78Z" fill="url(#linear-gradient-61)"/><path d="M112.49,77.93c3.18-4.44,6.3-9.64,6.76-16.38A46,46,0,0,1,113.91,50c-1.64,3.89-4,5-9.12,5.5C108.37,61.62,110.15,68.53,112.49,77.93Z" fill="url(#linear-gradient-62)"/><path d="M173.37,198.54c6.54,3.59,12.63,2.28,21.68-2.6-4.78-17.82-5.89-29-4.55-46.72-6.76,3.13-12.13,2.65-22.57-.69C166.71,166.61,168.75,180.64,173.37,198.54Z" fill="url(#linear-gradient-63)"/><path d="M117.44,483.43c5.37-3.21,9.41-6.45,12.15-11.46-1.58-4.39-3.3-6.74-6-8.67-3.74,5.73-6.53,8.31-12,11.17C115.13,477,116.89,479.16,117.44,483.43Z" fill="url(#linear-gradient-64)"/><path d="M180.88,64.69c1.13,9,3.06,18.64,9.22,26.13a48.36,48.36,0,0,1,16.78,4.26c-2.15-6.23-.89-10.63,3.87-18.36C201.09,75.51,192.49,71,180.88,64.69Z" fill="url(#linear-gradient-65)"/><path d="M1374,38a19.23,19.23,0,0,0,1.38-5.65,4.87,4.87,0,0,0-3,.58,6.37,6.37,0,0,1-.8,3.48A3.12,3.12,0,0,1,1374,38Z" fill="url(#linear-gradient-66)"/><path d="M1491.68,360.08c-4.06-8.36-4.27-14.46-3.43-23.53-12.47,5.2-24.44,12.14-28.86,17.2,1.88,7.23,4.86,12.76,9.84,19.71C1474.17,367.64,1480.64,364.65,1491.68,360.08Z" fill="url(#linear-gradient-67)"/><path d="M100.09,72.57a9.68,9.68,0,0,0-2.61,5,15.34,15.34,0,0,1,1.38,3.89c.63-1.17,1.41-1.43,3.06-1.39A27.86,27.86,0,0,1,100.09,72.57Z" fill="url(#linear-gradient-68)"/><path d="M1537.66,364c-.2,10,.37,20.92,5.86,30.45a56.41,56.41,0,0,1,17.54,8.42c-1.34-7.25.73-11.75,7.12-19.06C1557.89,380.31,1549.27,373.44,1537.66,364Z" fill="url(#linear-gradient-69)"/><path d="M1296.65,160.22c-3.16,2.79-4.38,5.67-4.49,10.81,3.14,3.23,5.78,5,8.95,5.32,2.65-4.25,5.4-6.14,10.36-8.85C1305.53,165.73,1301.9,164.43,1296.65,160.22Z" fill="url(#linear-gradient-70)"/><path d="M1164.8,269.36a11.78,11.78,0,0,0-.72-6.25,12.08,12.08,0,0,1-3.4-2.07c.16,1.49-.33,2.35-1.72,3.68C1161,265.65,1162.61,267.21,1164.8,269.36Z" fill="url(#linear-gradient-71)"/><path d="M1579,289.5a2.37,2.37,0,0,1-2.08-.83,29.47,29.47,0,0,0-1.63,7,4.6,4.6,0,0,0,2.55,1.07A17,17,0,0,1,1579,289.5Z" fill="url(#linear-gradient-72)"/><path d="M1071.38,87.64c-8.11,4.19-12.49,5.77-20,4.86.45,4.16.2,6.81-1.2,9,8,1.63,13.63.47,22.56-3.07A24.33,24.33,0,0,0,1071.38,87.64Z" fill="url(#linear-gradient-73)"/><path d="M37.5,97.81a9.65,9.65,0,0,1-1.31,4.7,2,2,0,0,1,1.2,1.16,11.16,11.16,0,0,0,1.84-5.06A3.23,3.23,0,0,0,37.5,97.81Z" fill="url(#linear-gradient-74)"/><path d="M283,205.3c2.24.61,3.34,1.73,4.77,3.7,1.5-4.11,2.61-8.43,2.59-10.51a11.08,11.08,0,0,0-5.35-1.37C285,199.48,284.31,201.66,283,205.3Z" fill="url(#linear-gradient-75)"/><path d="M1286.43,497.52a15.51,15.51,0,0,0,6.4-1,9.21,9.21,0,0,0-2.12-3.94c-1.2.81-2.26.83-3.92.68A5.82,5.82,0,0,1,1286.43,497.52Z" fill="url(#linear-gradient-76)"/><path d="M1147.51,99.62a8,8,0,0,1-2.62,2.29,26.15,26.15,0,0,1,4.7,5.27,4.26,4.26,0,0,0,2.71-1.87A32.09,32.09,0,0,0,1147.51,99.62Z" fill="url(#linear-gradient-77)"/><path d="M1205,55.68a5,5,0,0,1-3.74-1.52,27.49,27.49,0,0,0-.24,7.61,7.43,7.43,0,0,0,3.8-.17C1204.42,60,1204.6,58.4,1205,55.68Z" fill="url(#linear-gradient-78)"/><path d="M1575.87,635c-4.29-4.47-9.31-8.86-15.87-9.58a40.14,40.14,0,0,1-11.31,7.28c3.76,2.32,4.83,5.57,5.25,12.73C1559.94,640.57,1566.7,638.18,1575.87,635Z" fill="url(#linear-gradient-79)"/><path d="M919,107.57c1.62,1.8,3.5,2.12,6.52,1.75A37,37,0,0,1,928,95.19c-2.23.13-3.75-.63-6.52-2.81A44.45,44.45,0,0,0,919,107.57Z" fill="url(#linear-gradient-80)"/><path d="M383.15,139.9c-14.17,3.23-22.64,7-33.24,14,5.17,9.69,9.85,14.64,15.16,18.1,5.57-6,11.25-7.51,20.24-9C381.38,154.29,381.2,148.66,383.15,139.9Z" fill="url(#linear-gradient-81)"/><path d="M311.86,185.73c.82-3,1.39-4.52,3.05-6.35a3.34,3.34,0,0,1-1.46-2.1c-1.9,1.83-2.8,3.58-3.91,6.7A5.16,5.16,0,0,0,311.86,185.73Z" fill="url(#linear-gradient-82)"/><path d="M389.41,103.28c-.78-13.46-2.56-24.16-7.86-33.48-7.51.1-12.18,2-16.9,6,5.62,11.89,7.35,19.55,7.5,33.05C378.44,103.41,382.81,101.32,389.41,103.28Z" fill="url(#linear-gradient-83)"/><path d="M1130.17,70.24c5.72,7.38,11.13,9.82,20.32,8.91,5-8.74,7.63-15.86,7.39-24-8.18-5.73-12.2-12.29-18.18-24.25C1137.94,46.41,1136.46,55.94,1130.17,70.24Z" fill="url(#linear-gradient-84)"/><path d="M73.85,334.5c-2.65,4-5.84,6.61-11.56,7.39,5.51,15.53,10.65,24.57,18.88,37.32,8-2.41,11.82-5.95,14.35-8.8C84.37,359.44,79.7,349.86,73.85,334.5Z" fill="url(#linear-gradient-85)"/><path d="M79.53,70.63a6.7,6.7,0,0,1-1.29,4,14.54,14.54,0,0,0,5.71.54,11.29,11.29,0,0,0,0-4.07C82.77,71.4,81.56,71.15,79.53,70.63Z" fill="url(#linear-gradient-86)"/><path d="M424.41,665.91a8.46,8.46,0,0,1,3.8-3.75,11.41,11.41,0,0,0,3.61.91c-.89.9-1,1.81-.65,3.67C429.19,666,427.16,666,424.41,665.91Z" fill="url(#linear-gradient-87)"/><path d="M1443.37,457a58.28,58.28,0,0,1-4.94,18.3c-4.14-2.56-6.32-5-7.89-7.76,2.33-3.15,2.82-6.26,3.19-11.15C1437.45,458.29,1439.79,458.25,1443.37,457Z" fill="url(#linear-gradient-88)"/><path d="M90.77,595.66a61.69,61.69,0,0,1,7.54-18.89c4.13,3.35,6.17,6.26,7.51,9.47-2.89,3-3.79,6.3-4.8,11.49C97.27,595.13,94.76,594.83,90.77,595.66Z" fill="url(#linear-gradient-89)"/><path d="M546.25,771c5.63,4,7.79,9.9,9,20-14.21,4-22.16,8.07-33.29,17.31-1.29-7.29-4.28-11.73-11.69-19.24C521.73,779.7,532.06,775.09,546.25,771Z" fill="url(#linear-gradient-90)"/><path d="M1340.81,824.82a11.64,11.64,0,0,0,2.77-3.5,3.69,3.69,0,0,1,1.55,1.72,15.45,15.45,0,0,1-2.63,3.79C1342.11,825.59,1341.73,825,1340.81,824.82Z" fill="url(#linear-gradient-91)"/><path d="M1544.22,738.73c-.61,1.09-1.52,1.53-3.11,1.83a15.73,15.73,0,0,0-2.94-6.19c1.15-.29,1.83-.88,3-2.32A18.93,18.93,0,0,1,1544.22,738.73Z" fill="url(#linear-gradient-92)"/><path d="M51,849.43c.6-1.34,1.56-1.89,3.14-2.74,1.55,3.84,4.24,7.41,7.72,11.23a6.17,6.17,0,0,0-2.58,3A34.47,34.47,0,0,1,51,849.43Z" fill="url(#linear-gradient-93)"/><path d="M1492.85,733.14c6.45-5.11,11.05-7,20.07-7.71-.2,10.88,1.55,17.24,5.25,23.7-5.71,5.28-10.36,7.79-18,10.71C1499.35,750,1497.2,743.2,1492.85,733.14Z" fill="url(#linear-gradient-94)"/><path d="M844.33,769.55c-2.13-5.64-1.85-9.83,1.18-15.65,5.81-1.07,10.14-1,14.18,1.26.6,6.85,2.79,11.18,7.16,18.17C858.53,770.53,853.31,769.06,844.33,769.55Z" fill="url(#linear-gradient-95)"/><path d="M110.53,846.85a10.35,10.35,0,0,1,3.91-5.05,13,13,0,0,0,4.36.45c-.93,1.21-.9,2.3-.23,4.41C116.14,846.13,113.75,846.42,110.53,846.85Z" fill="url(#linear-gradient-96)"/><path d="M1255.36,870.29a13.7,13.7,0,0,1-.31,6.69,5.2,5.2,0,0,1-3.72-.28,12.34,12.34,0,0,0,.26-6.6C1253.1,870.82,1254.08,871,1255.36,870.29Z" fill="url(#linear-gradient-97)"/><path d="M1569.7,643.32c.75,0,1.22.42,2,1.09a22,22,0,0,0-3.37,6.76,3.06,3.06,0,0,0-2-.72A19.7,19.7,0,0,1,1569.7,643.32Z" fill="url(#linear-gradient-98)"/><path d="M129.94,730.55c-7.87,3.12-11.74,5.24-16.38,11.11-2-2.93-3.58-4.43-5.7-4.79,4.61-6.71,9.11-10,17.19-14.09A18.09,18.09,0,0,1,129.94,730.55Z" fill="url(#linear-gradient-99)"/><path d="M1169.81,849.8a11.55,11.55,0,0,1-4.66-4.24,5.92,5.92,0,0,1,2.4-3,10.59,10.59,0,0,0,4.62,4.12A4.18,4.18,0,0,0,1169.81,849.8Z" fill="url(#linear-gradient-100)"/><path d="M613,795.89a12,12,0,0,0,2.29-4.28,34.4,34.4,0,0,0,6.83,6.43,6.8,6.8,0,0,1-1.78,4.36A40.62,40.62,0,0,1,613,795.89Z" fill="url(#linear-gradient-101)"/><path d="M50.78,727.22a6.1,6.1,0,0,0-3.68,1.09,1.87,1.87,0,0,0-.83-1.26,7.42,7.42,0,0,1,4-1.6A3.83,3.83,0,0,1,50.78,727.22Z" fill="url(#linear-gradient-102)"/><path d="M921.84,789.48c5.42-1.84,9.79-4.65,15.08-9.54,3.4,15.2,6.4,25.18,11.58,35.65-4.3,6.73-8,8.85-13.55,10.87C930.82,819,925.93,805.45,921.84,789.48Z" fill="url(#linear-gradient-103)"/><path d="M294.64,860a9.61,9.61,0,0,1,3.59-3.74,4.8,4.8,0,0,1,2,2.42,8.9,8.9,0,0,0-3.5,3.71C296.24,861,295.75,860.35,294.64,860Z" fill="url(#linear-gradient-104)"/><path d="M1414.43,813.86a4.1,4.1,0,0,0,2.18-2.58,33.07,33.07,0,0,1,6.25,7,7.76,7.76,0,0,1-2.63,3.22A19,19,0,0,0,1414.43,813.86Z" fill="url(#linear-gradient-105)"/><path d="M1574.83,508.87a13.42,13.42,0,0,0,1-5.2,33.92,33.92,0,0,0,9,4,7.66,7.66,0,0,1-.45,5.1A40.19,40.19,0,0,1,1574.83,508.87Z" fill="url(#linear-gradient-106)"/><path d="M1490.2,619.28c8-1.29,13-.67,21.41,3.34-4.86,9.7-6,16.34-5.45,24-7.43,1.84-12.7,1.71-20.8.45C1488.82,637.81,1489.81,630.58,1490.2,619.28Z" fill="url(#linear-gradient-107)"/><path d="M287.82,847.65a13.62,13.62,0,0,1,5.43,6.52,22.37,22.37,0,0,0-1.3,6.2c-1.3-1.54-2.62-1.69-5.3-1.1C287.72,855.87,287.78,852.38,287.82,847.65Z" fill="url(#linear-gradient-108)"/><path d="M72.77,695.92c-.94,2.32-2.15,4.75-4.47,6.23a15.71,15.71,0,0,0-5.22-.32c1-1.49,1-2.79.09-5.28C66.1,697.07,68.93,696.6,72.77,695.92Z" fill="url(#linear-gradient-109)"/><path d="M25.75,779.59c5.9-5.71,12.82-11.31,21.89-12.28a56.42,56.42,0,0,0,15.71,9.11c-5.19,3-6.64,7.08-7.17,16.15C47.83,786.43,38.47,783.47,25.75,779.59Z" fill="url(#linear-gradient-110)"/><path d="M1489.8,862.49c-4.39-7.81-8.82-11.56-18.78-12.81,6.09-10,12.25-15.07,24-23.42,7.78,1.28,11.16,4.52,15.84,12.8C1500.84,846.32,1494.13,852.31,1489.8,862.49Z" fill="url(#linear-gradient-111)"/><path d="M455.07,855.5c-.85-2.06-.52-3.81.11-6.64,5.61,1.74,12,1.75,19.48,1a10.49,10.49,0,0,0,.76,6.23C467.59,857.41,463.1,857.38,455.07,855.5Z" fill="url(#linear-gradient-112)"/><path d="M1467.07,759.54c-4.42,4.75-9.69,5.73-18.22,5-.49-14.74-2.32-23.36-7.76-36.1,6.25.17,10.49-1.91,18.13-7.71C1464.65,733.74,1466.43,744.79,1467.07,759.54Z" fill="url(#linear-gradient-113)"/><path d="M400.3,860.62a7.91,7.91,0,0,0,2.57-3.7,1.85,1.85,0,0,0,1.52.5,9.76,9.76,0,0,1-2.52,4.38A3.68,3.68,0,0,1,400.3,860.62Z" fill="url(#linear-gradient-114)"/><path d="M95,715.07c.2-1.29-.08-2.68-1.72-5.33a5.73,5.73,0,0,1,3.86-.45,13,13,0,0,1,1.41,5.85A5.23,5.23,0,0,0,95,715.07Z" fill="url(#linear-gradient-115)"/><path d="M1353.25,714.42a4.66,4.66,0,0,0-4.83-1.52c.76-2.61,1.82-4.13,3.91-6.76,1.77-.25,2.69.23,4.19,1.72C1354.74,710.13,1353.62,711.9,1353.25,714.42Z" fill="url(#linear-gradient-116)"/><path d="M175.14,744.82c-5.57,1.16-10.2,3.41-16,7.62-1.8-15.51-3.75-25.79-7.82-36.83,5-6.15,8.88-7.8,14.58-9.13C169.27,714.38,172.73,728.46,175.14,744.82Z" fill="url(#linear-gradient-117)"/><path d="M623.3,843.39a7.2,7.2,0,0,1,1.35,4.1,6.25,6.25,0,0,0-4.06,1.12,10.71,10.71,0,0,1-1.88-3.67A11.79,11.79,0,0,0,623.3,843.39Z" fill="url(#linear-gradient-118)"/><path d="M345.17,707.55c10,3.18,15.28,4.17,23.88,2,0,4.51.6,7.31,2.49,9.38-9.15,3-15.85,2.66-26.72.31A24.42,24.42,0,0,1,345.17,707.55Z" fill="url(#linear-gradient-119)"/><path d="M177.61,618.08c-3.77-5.28-7.27-7.62-14.6-7.64,3.68-7.84,7.78-12,15.7-19.16,5.74.24,8.44,2.29,12.46,7.89C184.44,605.35,180,610.29,177.61,618.08Z" fill="url(#linear-gradient-120)"/><path d="M1232.79,729a17,17,0,0,0-4.13-12.63c12-6.07,20.33-8.27,32.75-10.72,4.25,7,5.06,11.89,5.32,15.44C1253.22,720.41,1244.93,723.27,1232.79,729Z" fill="url(#linear-gradient-121)"/><path d="M1379.16,861.42a16.53,16.53,0,0,0,5.91,4.15,55,55,0,0,0-9.58,11.11,9.07,9.07,0,0,1-6.07-3.3C1371.1,870.39,1374.66,866,1379.16,861.42Z" fill="url(#linear-gradient-122)"/><path d="M688.69,771.34a9,9,0,0,1-1-5.15,12,12,0,0,0,2.39-2.76c.24,1.22.88,1.73,2.42,2.31A21.65,21.65,0,0,0,688.69,771.34Z" fill="url(#linear-gradient-123)"/><path d="M289,638.22a23.71,23.71,0,0,0,.1,8.44,5.87,5.87,0,0,1-4-.3,31.24,31.24,0,0,1-.62-8.64C286.38,638.89,287.52,639.15,289,638.22Z" fill="url(#linear-gradient-124)"/><path d="M795.71,837.53a6.42,6.42,0,0,0-3.92-1,2.19,2.19,0,0,0-.21-1.62,7.63,7.63,0,0,1,4.44.64A4.08,4.08,0,0,1,795.71,837.53Z" fill="url(#linear-gradient-125)"/><path d="M1501,581.44a21.3,21.3,0,0,1-6-4.71,8.31,8.31,0,0,1,3.93-2.34,7.11,7.11,0,0,0,3.62,3A5.43,5.43,0,0,0,1501,581.44Z" fill="url(#linear-gradient-126)"/><path d="M1384.9,743.5c1.92,4.5,2.5,7.19,1.11,12.31a77.53,77.53,0,0,0-18.53,6.5,14.19,14.19,0,0,0-1.74-6.57C1373.66,752.29,1378.11,749.07,1384.9,743.5Z" fill="url(#linear-gradient-127)"/><path d="M143.57,678.43c.71.75.88,1.66.81,3.15a11.07,11.07,0,0,0-5.22,1.51A5.15,5.15,0,0,0,138,680,13.26,13.26,0,0,1,143.57,678.43Z" fill="url(#linear-gradient-128)"/><path d="M119.81,804.27c3.53-1.1,5.29-1.9,7.49-4.32.77,1.36,1.44,2.07,2.36,2.3-2.21,2.78-4.28,4.06-7.93,5.59A8,8,0,0,1,119.81,804.27Z" fill="url(#linear-gradient-129)"/><path d="M530.08,853.87a9.73,9.73,0,0,0,3,2.47,3.35,3.35,0,0,1-1.3,1.61,12.5,12.5,0,0,1-3.26-2.3C529.53,855.19,530,854.78,530.08,853.87Z" fill="url(#linear-gradient-130)"/><path d="M304.61,816.48c7,1.3,10.7,2.88,15.49,9.39a151,151,0,0,0-8.81,31.82,18.1,18.1,0,0,0-9.29-3.4C305,840.1,305.14,831,304.61,816.48Z" fill="url(#linear-gradient-131)"/><path d="M208.3,693a10.91,10.91,0,0,0-2.6-6.89c4.39-1.11,8.9-1.66,11-1.21a18.26,18.26,0,0,1,.17,7.16C214.51,691.53,212.19,692,208.3,693Z" fill="url(#linear-gradient-132)"/><path d="M1209.1,847.63c2.17.57,3.45,2.15,4.88,5.13a28.19,28.19,0,0,0-8.63,9.49c-1.15-2.12-2.54-3.14-5.62-4.58A33.49,33.49,0,0,1,1209.1,847.63Z" fill="url(#linear-gradient-133)"/><path d="M444.05,819.89c-5.72-4.64-8.92-6.65-14.92-7.5,1-2.89,1.21-4.85.45-6.67,6.53.44,10.76,2.4,17.24,6.73A16.15,16.15,0,0,1,444.05,819.89Z" fill="url(#linear-gradient-134)"/><path d="M150.18,775.83c6.54-3.28,12.63-2.08,21.68,2.38-4.78,16.29-5.89,26.48-4.55,42.71-6.76-2.86-12.13-2.42-22.57.63C143.52,805,145.56,792.2,150.18,775.83Z" fill="url(#linear-gradient-135)"/><path d="M94.24,515.36c5.38,2.94,9.41,5.9,12.16,10.48-1.58,4-3.31,6.16-6,7.93-3.74-5.25-6.53-7.6-12-10.21C91.94,521.21,93.7,519.26,94.24,515.36Z" fill="url(#linear-gradient-136)"/><path d="M1468.49,628.14c-4.06,7.64-4.27,13.22-3.43,21.51-12.47-4.76-24.45-11.1-28.87-15.72,1.88-6.62,4.87-11.67,9.85-18C1451,621.22,1457.44,624,1468.49,628.14Z" fill="url(#linear-gradient-137)"/><path d="M1514.47,624.56c-.2-9.15.37-19.13,5.86-27.84a59,59,0,0,0,17.54-7.7c-1.35,6.63.73,10.73,7.11,17.42C1534.69,609.64,1526.07,615.92,1514.47,624.56Z" fill="url(#linear-gradient-138)"/><path d="M1273.46,810.87c-3.16-2.56-4.38-5.19-4.5-9.89,3.15-3,5.79-4.61,9-4.86,2.65,3.88,5.4,5.61,10.36,8.09C1282.34,805.82,1278.71,807,1273.46,810.87Z" fill="url(#linear-gradient-139)"/><path d="M1141.61,711.08a9.94,9.94,0,0,1-.72,5.72,12,12,0,0,0-3.41,1.89c.17-1.36-.32-2.15-1.71-3.37C1137.79,714.48,1139.42,713,1141.61,711.08Z" fill="url(#linear-gradient-140)"/><path d="M1555.82,692.67a2.5,2.5,0,0,0-2.08.76,24.68,24.68,0,0,1-1.63-6.44,4.72,4.72,0,0,1,2.55-1A14.2,14.2,0,0,0,1555.82,692.67Z" fill="url(#linear-gradient-141)"/><path d="M1048.19,877.22c-8.11-3.83-12.49-5.27-20-4.44.45-3.8.2-6.23-1.2-8.19,8-1.49,13.63-.44,22.56,2.8A20.6,20.6,0,0,1,1048.19,877.22Z" fill="url(#linear-gradient-142)"/><path d="M14.31,867.92A8.25,8.25,0,0,0,13,863.63a2,2,0,0,0,1.2-1.06A9.79,9.79,0,0,1,16,867.2,3.42,3.42,0,0,1,14.31,867.92Z" fill="url(#linear-gradient-143)"/><path d="M1583,596.39a2.54,2.54,0,0,0-2.24-.24,25.48,25.48,0,0,1,.93-6.76,4.79,4.79,0,0,1,2.76.24A14.58,14.58,0,0,0,1583,596.39Z" fill="url(#linear-gradient-144)"/><path d="M259.77,769.65c2.25-.55,3.35-1.59,4.77-3.38,1.51,3.75,2.62,7.7,2.59,9.6a11.69,11.69,0,0,1-5.34,1.26C261.85,775,261.12,773,259.77,769.65Z" fill="url(#linear-gradient-145)"/><path d="M1263.24,502.48a17,17,0,0,1,6.4.89,8.18,8.18,0,0,1-2.13,3.6,5.64,5.64,0,0,0-3.91-.62A4.91,4.91,0,0,0,1263.24,502.48Z" fill="url(#linear-gradient-146)"/><path d="M1124.32,866.27a7.84,7.84,0,0,0-2.62-2.09,24.81,24.81,0,0,0,4.7-4.82,4.24,4.24,0,0,1,2.7,1.71A29.92,29.92,0,0,1,1124.32,866.27Z" fill="url(#linear-gradient-147)"/><path d="M1552.68,376.75c-4.29,4.09-9.31,8.1-15.87,8.76a40.86,40.86,0,0,0-11.31-6.66c3.76-2.12,4.82-5.09,5.25-11.64C1536.75,371.7,1543.51,373.88,1552.68,376.75Z" fill="url(#linear-gradient-148)"/><path d="M895.83,859c1.61-1.65,3.49-1.94,6.52-1.6a31.27,31.27,0,0,0,2.46,12.92c-2.22-.12-3.74.58-6.51,2.57A37.36,37.36,0,0,1,895.83,859Z" fill="url(#linear-gradient-149)"/><path d="M1578.4,745.18c-6.33,12.91-11.52,20.14-19.62,28.64-5.76-7.46-8.14-13.26-9.23-19.27,6-3.88,8.7-9,12.29-17.32C1567.22,743.24,1571.35,744.85,1578.4,745.18Z" fill="url(#linear-gradient-150)"/><path d="M1558.45,813.46a14,14,0,0,0,.65-10.79c10.66-.29,17.47,1,27.38,3.54,1.09,6.67.26,10.57-.6,13.29C1576.09,814.25,1569.12,813.47,1558.45,813.46Z" fill="url(#linear-gradient-151)"/><path d="M360,829.44c-14.17-3-22.64-6.44-33.24-12.79,5.17-8.85,9.85-13.39,15.15-16.54,5.57,5.45,11.26,6.86,20.25,8.21C358.19,816.29,358,821.44,360,829.44Z" fill="url(#linear-gradient-152)"/><path d="M288.67,787.54c.82,2.76,1.39,4.13,3.05,5.81a3.06,3.06,0,0,0-1.46,1.92c-1.9-1.68-2.8-3.28-3.91-6.13A5.19,5.19,0,0,1,288.67,787.54Z" fill="url(#linear-gradient-153)"/><path d="M50.66,651.53a15.42,15.42,0,0,0-11.56-6.76c5.51-14.2,10.65-22.47,18.87-34.13,8,2.22,11.83,5.44,14.36,8.06C61.18,628.72,56.51,637.48,50.66,651.53Z" fill="url(#linear-gradient-154)"/></svg>