<?xml version="1.0" encoding="utf-8"?>
<!-- Generator: Adobe Illustrator 26.0.0, SVG Export Plug-In . SVG Version: 6.00 Build 0)  -->
<svg version="1.1" id="Layer_1" xmlns="http://www.w3.org/2000/svg" xmlns:xlink="http://www.w3.org/1999/xlink" x="0px" y="0px"
	 viewBox="0 0 140 140.82" style="enable-background:new 0 0 140 140.82;" xml:space="preserve">
<style type="text/css">
	.st0{fill:#FFFFFF;}
	.st1{fill:#1783CC;}
	.st2{fill:#074068;}
	.st3{fill:#08518E;}
	.st4{fill:#D8D8D8;}
	.st5{fill:#FBFCFA;}
</style>
<g>
	<g>
		<circle class="st0" cx="70" cy="70.41" r="65"/>
		<circle class="st1" cx="70" cy="70.41" r="58.23"/>
		<circle class="st2" cx="67.99" cy="72.42" r="56.22"/>
		<circle class="st3" cx="69.17" cy="71.24" r="55.04"/>
	</g>
	<g>
		<g>
			<path class="st4" d="M34.59,63.22c0.73-2.31,2.36-3.12,4.69-3.05c3.03,0.09,6.06,0.04,9.09,0c0.43-0.01,0.94-0.18,1.27-0.46
				c6.48-5.34,12.94-10.7,19.41-16.05c1.92-1.59,4.25-1.47,5.59,0.4c0.47,0.66,0.71,1.61,0.76,2.44c0.11,1.91,0.04,3.82,0.04,5.74
				c0,14.53,0,29.07,0,43.6c0,2.35-1.23,3.89-3.32,4.16c-1.16,0.15-2.12-0.3-3-1.02c-4.91-4.07-9.82-8.14-14.73-12.2
				c-1.6-1.32-3.18-2.66-4.8-3.95c-0.32-0.25-0.8-0.42-1.21-0.43c-2.98-0.04-5.96-0.11-8.93,0.01c-2.34,0.09-4.03-0.62-4.87-2.91
				C34.59,74.07,34.59,68.65,34.59,63.22z"/>
			<path class="st4" d="M105.41,70.35c-0.12,8.2-2.46,14.78-7.15,20.5c-0.96,1.17-2.38,1.37-3.47,0.52
				c-1.38-1.09-1.64-2.48-0.64-3.77c1.26-1.62,2.42-3.3,3.32-5.15c1.23-2.52,2.05-5.17,2.41-7.96c0.84-6.66-0.7-12.74-4.55-18.23
				c-0.47-0.68-1.01-1.31-1.53-1.94c-1.09-1.32-0.93-2.71,0.45-3.87c1.1-0.92,2.53-0.71,3.55,0.47c3.72,4.32,6.12,9.29,7.08,14.91
				C105.19,67.58,105.3,69.37,105.41,70.35z"/>
			<path class="st4" d="M93.74,71.08c-0.01,4.26-1.27,8.07-3.74,11.47c-0.81,1.12-2.24,1.39-3.33,0.66
				c-1.36-0.92-1.8-2.39-0.98-3.61c1.03-1.54,1.93-3.14,2.36-4.95c1.01-4.22,0.3-8.12-2.2-11.68c-0.34-0.49-0.73-0.99-0.9-1.54
				c-0.37-1.16,0.34-2.44,1.56-3.05c1.05-0.52,2.25-0.22,3.04,0.77C92.31,62.66,93.72,66.65,93.74,71.08z"/>
		</g>
		<g>
			<path class="st5" d="M34.59,61.45c0.73-2.31,2.36-3.12,4.69-3.05c3.03,0.09,6.06,0.04,9.09,0c0.43-0.01,0.94-0.18,1.27-0.46
				c6.48-5.34,12.94-10.7,19.41-16.05c1.92-1.59,4.25-1.47,5.59,0.4c0.47,0.66,0.71,1.61,0.76,2.44c0.11,1.91,0.04,3.82,0.04,5.74
				c0,14.53,0,29.07,0,43.6c0,2.35-1.23,3.89-3.32,4.16c-1.16,0.15-2.12-0.3-3-1.02c-4.91-4.07-9.82-8.14-14.73-12.2
				c-1.6-1.32-3.18-2.66-4.8-3.95c-0.32-0.25-0.8-0.42-1.21-0.43c-2.98-0.04-5.96-0.11-8.93,0.01c-2.34,0.09-4.03-0.62-4.87-2.91
				C34.59,72.3,34.59,66.88,34.59,61.45z"/>
			<path class="st5" d="M105.41,68.58c-0.12,8.2-2.46,14.78-7.15,20.5c-0.96,1.17-2.38,1.37-3.47,0.52
				c-1.38-1.09-1.64-2.48-0.64-3.77c1.26-1.62,2.42-3.3,3.32-5.15c1.23-2.52,2.05-5.17,2.41-7.96c0.84-6.66-0.7-12.74-4.55-18.23
				c-0.47-0.68-1.01-1.31-1.53-1.94c-1.09-1.32-0.93-2.71,0.45-3.87c1.1-0.92,2.53-0.71,3.55,0.47c3.72,4.32,6.12,9.29,7.08,14.91
				C105.19,65.81,105.3,67.6,105.41,68.58z"/>
			<path class="st5" d="M93.74,69.31c-0.01,4.26-1.27,8.07-3.74,11.47c-0.81,1.12-2.24,1.39-3.33,0.66
				c-1.36-0.92-1.8-2.39-0.98-3.61c1.03-1.54,1.93-3.14,2.36-4.95c1.01-4.22,0.3-8.12-2.2-11.68c-0.34-0.49-0.73-0.99-0.9-1.54
				c-0.37-1.16,0.34-2.44,1.56-3.05c1.05-0.52,2.25-0.22,3.04,0.77C92.31,60.89,93.72,64.88,93.74,69.31z"/>
		</g>
	</g>
</g>
</svg>
