<?xml version="1.0" encoding="utf-8"?>
<!-- Generator: Adobe Illustrator 26.0.0, SVG Export Plug-In . SVG Version: 6.00 Build 0)  -->
<svg version="1.1" id="Layer_1" xmlns="http://www.w3.org/2000/svg" xmlns:xlink="http://www.w3.org/1999/xlink" x="0px" y="0px"
	 viewBox="0 0 140 140.82" style="enable-background:new 0 0 140 140.82;" xml:space="preserve">
<style type="text/css">
	.st0{fill:#FFFFFF;}
	.st1{fill:#1783CC;}
	.st2{fill:#074068;}
	.st3{fill:#08518E;}
	.st4{fill:#D8D8D8;}
	.st5{fill:#FBFCFA;}
</style>
<g>
	<g>
		<circle class="st0" cx="70" cy="70.41" r="65"/>
		<circle class="st1" cx="70" cy="70.41" r="58.23"/>
		<circle class="st2" cx="72.01" cy="72.42" r="56.22"/>
		<circle class="st3" cx="70.83" cy="71.24" r="55.04"/>
	</g>
	<g>
		<path class="st4" d="M47.31,68.96c1.38-3.31,8.87-9.91,18.74-16.27c9.28-5.98,17.89-9.96,21.86-10.32
			c0.11-0.01,0.23-0.02,0.34-0.02c0.03,0,0.05,0,0.08,0c0.04,0,0.09-0.01,0.13-0.01c0.07,0,0.14,0.01,0.21,0.01
			c0.03,0,0.06,0,0.09,0c2.54,0.16,4.56,2.26,4.56,4.85c0,1.36-0.57,2.58-1.47,3.46c-1.07,0.65-2.15,1.32-3.25,2.03
			c-9.87,6.36-17.36,12.97-18.74,16.27c-0.4,0.8-0.63,1.7-0.63,2.66c0,1.51,0.56,2.88,1.49,3.92c2.54,3.57,9.32,9.28,17.88,14.8
			c1.1,0.71,2.19,1.39,3.26,2.04c0.89,0.88,1.45,2.1,1.45,3.45c0,2.56-1.98,4.66-4.5,4.85c-0.08,0.01-0.17,0.01-0.26,0.01
			c-0.04,0-0.07,0.01-0.11,0.01c-0.02,0-0.04,0-0.07,0c-0.13,0-0.26-0.01-0.4-0.02c-0.01,0-0.03,0-0.04,0
			c-3.95-0.33-12.59-4.32-21.91-10.33c-8.56-5.52-15.34-11.23-17.88-14.8c-0.92-1.05-1.49-2.42-1.49-3.92
			C46.68,70.66,46.91,69.76,47.31,68.96z"/>
		<path class="st5" d="M47.31,66.76c1.38-3.31,8.87-9.91,18.74-16.27c9.28-5.98,17.89-9.96,21.86-10.32
			c0.11-0.01,0.23-0.02,0.34-0.02c0.03,0,0.05,0,0.08,0c0.04,0,0.09-0.01,0.13-0.01c0.07,0,0.14,0.01,0.21,0.01
			c0.03,0,0.06,0,0.09,0c2.54,0.16,4.56,2.26,4.56,4.85c0,1.36-0.57,2.58-1.47,3.46c-1.07,0.65-2.15,1.32-3.25,2.03
			c-9.87,6.36-17.36,12.97-18.74,16.27c-0.4,0.8-0.63,1.7-0.63,2.66c0,1.51,0.56,2.88,1.49,3.92c2.54,3.57,9.32,9.28,17.88,14.8
			c1.1,0.71,2.19,1.39,3.26,2.04c0.89,0.88,1.45,2.1,1.45,3.45c0,2.56-1.98,4.66-4.5,4.85c-0.08,0.01-0.17,0.01-0.26,0.01
			c-0.04,0-0.07,0.01-0.11,0.01c-0.02,0-0.04,0-0.07,0c-0.13,0-0.26-0.01-0.4-0.02c-0.01,0-0.03,0-0.04,0
			C84,98.13,75.36,94.14,66.05,88.14c-8.56-5.52-15.34-11.23-17.88-14.8c-0.92-1.05-1.49-2.42-1.49-3.92
			C46.68,68.46,46.91,67.56,47.31,66.76z"/>
	</g>
</g>
</svg>
