<svg id="Layer_1" data-name="Layer 1" xmlns="http://www.w3.org/2000/svg" viewBox="0 0 270 270"><path d="M121.21,146.11s5,6,11.86,8.24,17.31-7.58,17.31-7.58" fill="#f9d1c6"/><path d="M121.21,146.11a48.13,48.13,0,0,0,6.87,4.93,27,27,0,0,0,3.71,1.81c.31.13.63.24,1,.35a4.71,4.71,0,0,0,.94.28c.3.06.6.14.9.18h.94a12.32,12.32,0,0,0,3.85-.8,19.21,19.21,0,0,0,1.9-.75c.62-.31,1.26-.58,1.87-.91a77.29,77.29,0,0,0,7.24-4.44,29.19,29.19,0,0,1-6.45,5.78,16.83,16.83,0,0,1-8.36,3.12l-1.2,0c-.4-.06-.8-.16-1.19-.25a6.45,6.45,0,0,1-1.1-.36,9.26,9.26,0,0,1-1-.42,21.41,21.41,0,0,1-3.82-2.25A23.92,23.92,0,0,1,121.21,146.11Z" fill="#49442e"/><ellipse cx="94.05" cy="123.59" rx="20.14" ry="24.74" fill="#f7f3f0"/><path d="M74,123.59a28.16,28.16,0,0,0,5.31,16.47,20.56,20.56,0,0,0,6.51,5.7,16.67,16.67,0,0,0,8.27,2.09,16.45,16.45,0,0,0,8.11-2.37,20.66,20.66,0,0,0,6.18-5.78,28.7,28.7,0,0,0,0-32.21,20.85,20.85,0,0,0-6.19-5.79,16.15,16.15,0,0,0-16.38-.28,20.36,20.36,0,0,0-6.51,5.71A28.15,28.15,0,0,0,74,123.59Zm-.1,0A28.32,28.32,0,0,1,79.08,107a21,21,0,0,1,6.51-5.9,16.68,16.68,0,0,1,16.92,0A21.16,21.16,0,0,1,109,107a29,29,0,0,1,0,33.24,21.07,21.07,0,0,1-6.53,5.9,16.74,16.74,0,0,1-16.92,0,21.25,21.25,0,0,1-6.51-5.9A28.35,28.35,0,0,1,73.86,123.59Z" fill="#342517"/><ellipse cx="93.44" cy="123.31" rx="10.79" ry="13.26" fill="#0c1618"/><ellipse cx="101.36" cy="116.77" rx="2.96" ry="3.63" fill="#f7f3f0"/><ellipse cx="176.65" cy="122.73" rx="20.14" ry="23.52" fill="#f7f3f0"/><path d="M196.83,122.73a26,26,0,0,1-5.29,16.07,21.26,21.26,0,0,1-6.5,5.65,17.88,17.88,0,0,1-16.93.28,20.88,20.88,0,0,1-6.83-5.56,26.68,26.68,0,0,1,0-32.89,21.24,21.24,0,0,1,6.83-5.56,18.29,18.29,0,0,1,8.54-2A18.07,18.07,0,0,1,185,101a21.38,21.38,0,0,1,6.5,5.65A26,26,0,0,1,196.83,122.73Zm-.1,0a25.84,25.84,0,0,0-5.37-15.93,20.72,20.72,0,0,0-6.5-5.46,17.33,17.33,0,0,0-16.41,0,20.48,20.48,0,0,0-6.49,5.47,26.32,26.32,0,0,0,0,31.81,20.48,20.48,0,0,0,6.49,5.47,17.33,17.33,0,0,0,16.41,0,20.72,20.72,0,0,0,6.5-5.46A25.83,25.83,0,0,0,196.73,122.73Z" fill="#342517"/><ellipse cx="177.26" cy="122.45" rx="10.79" ry="12.61" fill="#0c1618"/><ellipse cx="184.63" cy="116.47" rx="2.96" ry="3.45" fill="#f7f3f0"/><path d="M98.75,168.46s9.43,32.21,33.33,37.5a30.25,30.25,0,0,0,9.25.39c8-1.46,25.54-7.94,30.74-37C172.07,169.35,130.89,187.05,98.75,168.46Z" fill="#f5968e"/><path d="M100.35,169.71S113.9,197,136.48,198.88c0,0,21.64,1.48,35.06-29.17C171.54,169.71,132.48,188.29,100.35,169.71Z" fill="#721f33"/><path d="M105.32,173.08s7.79,14.45,27.93,15c25.33.75,30.36-9.95,34.74-16.53C168,171.6,128,182.79,105.32,173.08Z" fill="#f4edef"/><path d="M100.35,169.71s20.16,7.91,36.29,7.22,35.43-7.58,35.43-7.58S156.36,180,136.51,181C124.92,181.53,111.11,177.41,100.35,169.71Z" fill="#f5968e"/><path d="M121.54,193.46s6.24-5.69,14.3-2c0,0,6.42-3.43,16.55,2.42C152.39,193.85,136.86,205.15,121.54,193.46Z" fill="#d26653"/><path d="M164.48,77.76s-3-9.89,8.1-10.79c9.54-.77,22,7.11,28.87,17.72a1.51,1.51,0,0,1-2,2.11C192.13,82.42,177.94,75.45,164.48,77.76Z" fill="#0b0000"/><path d="M105.52,74.29s3-9.89-8.1-10.79c-9.54-.78-22,7.11-28.87,17.72a1.51,1.51,0,0,0,2,2.1C77.87,79,92.06,72,105.52,74.29Z" fill="#0b0000"/></svg>