<svg id="Layer_1" data-name="Layer 1" xmlns="http://www.w3.org/2000/svg" xmlns:xlink="http://www.w3.org/1999/xlink" viewBox="0 0 585 585"><defs><clipPath id="clip-path"><circle cx="292.5" cy="-312.5" r="285.12" fill="none"/></clipPath><clipPath id="clip-path-2"><circle cx="292.5" cy="292.5" r="285.12" fill="none"/></clipPath></defs><g clip-path="url(#clip-path)"><path d="M539.07,107.09l-2.23,11.32-22.23-6.29a80.43,80.43,0,0,0-11.15-25.26l-9.69,19.35s-12.91,2.22-4.66-30.25l3.62-18.36s-46.4-47.29-68.1-87.87L397-71.51l-5.09-7.58s11.78-29,46.62-36.46l7.94,11.85L467.71-72s30.68,50.8,60.37,128.9C528.08,56.88,536.42,92.63,539.07,107.09Z" fill="#f9d1c6" stroke="#323232" stroke-miterlimit="10"/><path d="M45.93,103.71,48.16,115l22.23-6.29A80.43,80.43,0,0,1,81.54,83.48l9.69,19.35s12.91,2.22,4.66-30.25L92.27,54.22s46.4-47.29,68.1-87.87L188-74.89l5.09-7.58s-11.78-29-46.62-36.46l-7.94,11.85L117.29-75.4S86.61-24.6,56.92,53.5C56.92,53.5,48.58,89.25,45.93,103.71Z" fill="#f9d1c6" stroke="#323232" stroke-miterlimit="10"/><path d="M394.12-77.93,412.91,67.54s-110.88,53.92-233.67,3c0,0,3.46-15,4-20,7.87-72.18,8.68-157.27,8.68-157.27L189-63.85a545.43,545.43,0,0,1-60.48-39.44s47.73-86.41,55.68-93c11.64-9.73,75.2-25.23,75.2-25.23S339.76-234.32,398-190.91l42.06,58.55,9.72,13.55S432.34-103.42,393.65-83Z" fill="#00b6c2" stroke="#0c7777" stroke-miterlimit="10" stroke-width="2"/></g><g clip-path="url(#clip-path-2)"><circle cx="292.5" cy="292.5" r="285.12" fill="#9167f2" stroke="#fff" stroke-miterlimit="10" stroke-width="12"/></g></svg>