<svg id="Layer_1" data-name="Layer 1" xmlns="http://www.w3.org/2000/svg" viewBox="0 0 55 55"><path d="M20.38,13.56a6.66,6.66,0,0,0,.33-.72,26.92,26.92,0,0,1,3.8-6.54A7.69,7.69,0,0,1,28,3.51c2.26-.73,4.79.5,6.2,2.4a13.42,13.42,0,0,1,2.16,6.67c.23,2.14.48,4.65,2.33,5.75,1.19.71,2.67.58,4.05.63a14.13,14.13,0,0,1,7.93,2.78,4.43,4.43,0,0,1,1.71,2.08,4.57,4.57,0,0,1-1,3.77A17.81,17.81,0,0,1,44,33.83c-1,.46-2.17.91-2.64,1.92a4.91,4.91,0,0,0,.13,3.16,16,16,0,0,1-1,10.15,4.68,4.68,0,0,1-1.76,2.26c-1.26.71-2.84.32-4.18-.22A24.73,24.73,0,0,1,24.78,44a2.38,2.38,0,0,0-1-.84,2.4,2.4,0,0,0-1.92.61c-3.58,2.38-8.06,3.67-12.25,2.71a5.12,5.12,0,0,1-2.68-1.35C5.86,44,5.79,42.2,6,40.63a16.87,16.87,0,0,1,4.67-9.41,1.59,1.59,0,0,0,.62-1c0-.53-.5-.89-.94-1.18-2.94-1.95-11.59-11.11-6-14.13a8,8,0,0,1,3.18-.78,41.62,41.62,0,0,1,9.85.3,3.1,3.1,0,0,0,2.6-.34A1.8,1.8,0,0,0,20.38,13.56Z" fill="#ffe600" stroke="#fff" stroke-miterlimit="10" stroke-width="0.5"/><path d="M52.13,24a4.31,4.31,0,0,0-1.68-2,13.8,13.8,0,0,0-7.77-2.73c-1.35-.05-3,0-4.2-.71-1.81-1.08-2.15-3.46-2.37-5.55-.25-2.31-.41-4.66-1.79-6.52S30.44,2.94,28,3.79a7.68,7.68,0,0,1,3.66,2.63A13.11,13.11,0,0,1,33.79,13c.22,2.09.47,4.55,2.28,5.63,1.16.69,2.61.56,4,.61a13.86,13.86,0,0,1,7.78,2.73,4.34,4.34,0,0,1,1.67,2,4.48,4.48,0,0,1-1,3.7,17.43,17.43,0,0,1-7.2,6.11c-1,.45-2.13.89-2.59,1.88a4.8,4.8,0,0,0,.13,3.1,15.72,15.72,0,0,1-.94,9.94,4.58,4.58,0,0,1-1.72,2.21c-.12.07-.43.24-.55.29,1.73.43,2.34.39,3.18-.21a5.74,5.74,0,0,0,1.73-2.29,15.65,15.65,0,0,0,1-9.94,4.87,4.87,0,0,1-.14-3.1A4.74,4.74,0,0,1,44,33.77a17.46,17.46,0,0,0,7.21-6.11A4.55,4.55,0,0,0,52.13,24Z" fill="#ccc200"/></svg>