<svg id="Layer_1" data-name="Layer 1" xmlns="http://www.w3.org/2000/svg" viewBox="0 0 270 270"><path d="M122.17,189.31s12.12-16.26,31.25-.95c0,0-4.07-13.33-15.83-13.88C137.59,174.48,124.41,170.18,122.17,189.31Z" fill="#e2837f"/><path d="M130.55,196.7s1.88-6.92,11.87-4.38C142.42,192.32,134,180.64,130.55,196.7Z" fill="#f5968e"/><path d="M197,118c0,12.72-9,23-20.08,23s-20.07-10.31-20.07-23c0-6,1.73-11.79,5.34-15.64.49-.53,8.22,3.42,14,3.42,9,0,20.13,5.2,20.42,6.52A21.47,21.47,0,0,1,197,118Z" fill="#fff" stroke="#0b0000" stroke-miterlimit="10" stroke-width="0.25"/><ellipse cx="177.78" cy="117.74" rx="10.68" ry="12.23" fill="#0b0000"/><ellipse cx="183.77" cy="111.09" rx="2.77" ry="3.17" fill="#fff"/><path d="M154.62,101.27c4.27.6,8.51,1.38,12.73,2.22s8.42,1.85,12.61,2.87,8.32,2.27,12.41,3.65a54.12,54.12,0,0,1,11.8,5.29c-1-.45-1.93-1-2.92-1.38s-2-.81-3-1.16l-3-1.06-3.07-1c-4.12-1.22-8.25-2.39-12.43-3.41s-8.34-2.08-12.52-3.09Z" fill="#0b0000"/><path d="M74.26,118.21c0,12.72,9,23,20.08,23s20.07-10.32,20.07-23c0-6-1.73-11.79-5.34-15.64-.49-.53-8.22,3.42-14,3.42-9,0-20.13,5.2-20.41,6.52A21.09,21.09,0,0,0,74.26,118.21Z" fill="#fff" stroke="#0b0000" stroke-miterlimit="10" stroke-width="0.25"/><ellipse cx="93.44" cy="117.96" rx="10.68" ry="12.23" fill="#0b0000"/><ellipse cx="98.39" cy="109.89" rx="2.77" ry="3.17" fill="#fff"/><path d="M116.6,101.48l-12.57,3c-4.18,1-8.37,2-12.52,3.08S83.2,109.73,79.09,111l-3.08,1L73,113c-1,.35-2,.78-3,1.17s-1.93.92-2.91,1.37a54.31,54.31,0,0,1,11.79-5.29c4.09-1.38,8.24-2.54,12.41-3.65s8.38-2,12.61-2.86S112.33,102.08,116.6,101.48Z" fill="#0b0000"/><path d="M165.82,73.35s-6.69,2.06-5.67,9.26a43.44,43.44,0,0,0,20.59,8.75c12.1,1.55,22.91-2.06,23.43-5.14,0,0-19.57-1.72-33.46-11.5A8,8,0,0,0,165.82,73.35Z" fill="#0a1517"/><path d="M103.4,74.68s6.8,1.68,6.17,8.93A43.41,43.41,0,0,1,89.51,93.5c-12,2.22-23-.77-23.68-3.82,0,0,19.44-2.81,32.77-13.36A8,8,0,0,1,103.4,74.68Z" fill="#0a1517"/><path d="M119.33,146.55s5.2,6.29,12.47,8.66,18.19-8,18.19-8" fill="#f9d1c6"/><path d="M119.33,146.55a48.61,48.61,0,0,0,7.2,5.22,28.58,28.58,0,0,0,3.89,1.91c.34.14.67.25,1,.37a5.26,5.26,0,0,0,1,.3c.32.06.63.14,1,.18l1,0a13.1,13.1,0,0,0,4.06-.85c.68-.2,1.33-.52,2-.79s1.32-.61,2-1a79.81,79.81,0,0,0,7.6-4.69,31.1,31.1,0,0,1-6.8,6,17.64,17.64,0,0,1-8.77,3.26l-1.25,0c-.42-.06-.84-.17-1.25-.26a6.2,6.2,0,0,1-1.15-.38,8.62,8.62,0,0,1-1.09-.45,22.51,22.51,0,0,1-4-2.34A25.54,25.54,0,0,1,119.33,146.55Z" fill="#49442e"/></svg>