<svg id="Layer_1" data-name="Layer 1" xmlns="http://www.w3.org/2000/svg" viewBox="0 0 1050 256"><path d="M1001,233.61c-14.61,0-23.42-11.3-22.87-23.14.55-11,11-19,24.8-17.64,14.6,1.11,23.14,12.68,21.49,22.87-1.66,10.47-11,17.91-23.42,17.91m21.21-54.83c-19-1.38-41,3.58-41,3.58,3.3-39.4,2.75-102.49-2.21-143.54,0,0,25.35-3.86,46.57-5.51-4.41,39.4-7.17,103.87-3.31,145.47" fill="#f28ff2"/><path d="M1015.74,84.52s-7.07-3.12-11.84,7.55c0,0,10.69.63,11.84-7.55" fill="#e85be8"/><path d="M990.59,84.8s7-3.26,12,7.31c0,0-10.68.84-12-7.31" fill="#e85be8"/><path d="M1015.74,100.39s-7.07-3.12-11.84,7.55c0,0,10.69.63,11.84-7.55" fill="#e85be8"/><path d="M990.59,100.67s7-3.26,12,7.31c0,0-10.68.84-12-7.31" fill="#e85be8"/><path d="M1015.74,116.26s-7.07-3.12-11.84,7.55c0,0,10.69.63,11.84-7.55" fill="#e85be8"/><path d="M990.59,116.54s7-3.26,12,7.31c0,0-10.68.84-12-7.31" fill="#e85be8"/><path d="M1015.74,132.13s-7.07-3.12-11.84,7.55c0,0,10.69.63,11.84-7.55" fill="#e85be8"/><path d="M990.59,132.41s7-3.26,12,7.31c0,0-10.68.84-12-7.31" fill="#e85be8"/><path d="M1015.74,148s-7.07-3.12-11.84,7.55c0,0,10.69.63,11.84-7.55" fill="#e85be8"/><path d="M990.59,148.28s7-3.26,12,7.31c0,0-10.68.84-12-7.31" fill="#e85be8"/><rect x="1002.86" y="75.53" width="1.51" height="91.91" transform="translate(-1.14 9.83) rotate(-0.56)" fill="#e85be8"/><path d="M988.36,55.43c10.45,1.73,1.48,18.73,13.49,20.59,5.76.9,9.33-3.36,9.68-8.87.33-5.23-1-8.47,4.53-11-4.09.11-7.43-.43-10,3.49-.13-1.29-1.06-7.64-3-9.07-3,1.23-3,6.22-3.6,9.06a9.92,9.92,0,0,0-11.09-4.21" fill="#de49e2"/><path d="M989.18,211.86c-1.89,6.73,12.12,19.84,21.58,7.14s-16-27.09-21.58-7.14" fill="#e85be8"/><path d="M27.84,235.54c3-49.87,2.48-126.19-3.31-186.53,30.86-2.2,69.16-4.13,103.6-6.06a300.11,300.11,0,0,0-1.1,51.8C107.46,89,84.6,88.41,66.14,89c.27,10.47.55,23.7.82,37.47,7.72-1.1,20.12-2.75,31.41-4.68a292.72,292.72,0,0,0,.83,31.41A270.74,270.74,0,0,0,67,150.4c0,15.16-.55,30.31-1.37,43,15.7-4.95,41.05-8.81,62.54-9.36,0,0-1.66,21.76.55,42.15-35-.55-66.4,2.76-100.84,9.37" fill="#7bb72c"/><path d="M44.1,68.13c.83-3.74,1-6.85,2.06-10.43.78,2.29,2.91,10.18,2.91,10.18s8.13.69,10.41,1a80.51,80.51,0,0,1-10.71,3.24s-.93,5.19-2.18,9.76a75.63,75.63,0,0,1-2.08-9.55,72.29,72.29,0,0,1-11-1.87C37,69.59,39.94,69,44.1,68.13" fill="#bff487"/><path d="M46,116.35c3.23-2.06,5.58-4.11,8.83-5.92-1.07,2.17-5.14,9.25-5.14,9.25s5.26,6.24,6.68,8a81.64,81.64,0,0,1-9.86-5.29s-4.33,3-8.44,5.36a73.71,73.71,0,0,1,5.28-8.22,72.1,72.1,0,0,1-6.46-9.11c3.09,1.91,5.58,3.53,9.11,5.88" fill="#bff487"/><path d="M44.3,168c-2-3.23-4.11-5.58-5.92-8.84,2.18,1.07,9.26,5.15,9.26,5.15s6.24-5.27,8-6.69a80.6,80.6,0,0,1-5.28,9.86s3,4.33,5.36,8.44a73.3,73.3,0,0,1-8.23-5.28,71.68,71.68,0,0,1-9.1,6.46C40.34,174,42,171.53,44.3,168" fill="#bff487"/><path d="M44.87,209.18c.83-3.74,1-6.85,2.06-10.43.78,2.29,2.91,10.18,2.91,10.18s8.14.69,10.41,1a81.09,81.09,0,0,1-10.7,3.23s-.94,5.2-2.18,9.76a73.22,73.22,0,0,1-2.08-9.55,71.21,71.21,0,0,1-11-1.87c3.53-.83,6.44-1.45,10.59-2.28" fill="#bff487"/><path d="M108.28,63c3.23-2.06,5.58-4.11,8.83-5.92C116,59.2,112,66.29,112,66.29s5.27,6.24,6.68,8A81.64,81.64,0,0,1,108.79,69s-4.33,3-8.44,5.36a74.59,74.59,0,0,1,5.29-8.22,71.41,71.41,0,0,1-6.46-9.1c3.08,1.91,5.57,3.52,9.1,5.87" fill="#bff487"/><polygon points="90.47 67.97 79.59 63.2 68.71 67.97 79.59 72.74 90.47 67.97" fill="#bff487"/><path d="M108.28,203.8c3.23-2.06,5.58-4.11,8.83-5.92-1.07,2.17-5.14,9.25-5.14,9.25s5.27,6.24,6.68,8.05a81.64,81.64,0,0,1-9.86-5.29s-4.33,3-8.44,5.36a74.59,74.59,0,0,1,5.29-8.22,71,71,0,0,1-6.46-9.11c3.08,1.91,5.57,3.53,9.1,5.88" fill="#bff487"/><polygon points="90.47 208.81 79.59 204.04 68.71 208.81 79.59 213.58 90.47 208.81" fill="#bff487"/><path d="M215.49,169.76a502.22,502.22,0,0,0,43.72,49.81c-19.36,7.94-37.29,16.29-37.29,16.29-5.92-11-12.75-22.72-20.43-34.63a357,357,0,0,0-13.26,35.83c-17.09-4.22-42.1-2.31-42.1-2.31a304.35,304.35,0,0,0,37.07-58.67,350.43,350.43,0,0,0-50.07-52.16s22.83-9.16,44.2-14a287.3,287.3,0,0,0,19.49,33.61,304.14,304.14,0,0,0,9.41-32.91c19.23.94,45.4-3,45.4-3a483.34,483.34,0,0,0-36.14,62.17" fill="#dc96ed"/><path d="M170.31,128.8l-10.43-5.7,2.88,11.53,10.42,5.7Zm-8.12-2.72,6.81,3.73,1.88,7.53-6.81-3.73Z" fill="#d249ea"/><path d="M198.41,167.57l-10.3,5.93,11.34,3.55,10.3-5.93Zm-6.55,5.52,6.73-3.88,7.4,2.32-6.72,3.88Z" fill="#d249ea"/><path d="M234,213.36l-10.42-5.7,2.87,11.53,10.43,5.7Zm-8.12-2.71,6.81,3.72,1.88,7.53-6.81-3.72Z" fill="#d249ea"/><path d="M215.64,135.66l9-7.82.3-11.88L216,123.79Zm7.45-8.52-5.84,5.11.2-7.76,5.84-5.11Z" fill="#d249ea"/><path d="M171.84,232l8.94-7.82.31-11.88-8.94,7.83Zm7.44-8.52-5.84,5.11.2-7.76,5.84-5.11Z" fill="#d249ea"/><path d="M186.48,151.09a4.71,4.71,0,1,1-5.19-4.17,4.71,4.71,0,0,1,5.19,4.17" fill="#d249ea"/><path d="M215.32,147.93a4.71,4.71,0,1,1-5.2-4.17,4.7,4.7,0,0,1,5.2,4.17" fill="#d249ea"/><path d="M191.62,197.92a4.71,4.71,0,1,1-5.19-4.16,4.7,4.7,0,0,1,5.19,4.16" fill="#d249ea"/><path d="M220.46,194.76a4.71,4.71,0,1,1-5.2-4.17,4.71,4.71,0,0,1,5.2,4.17" fill="#d249ea"/><path d="M299.33,232c-18.74-1.59-42.44-13.27-43.23-47.25-.83-40.14,24.81-76.5,53.8-75.92,28.17.44,41.72,23.78,43,45.53,0,0-21.29.2-37.67,4.34.73-7.43-.93-15.55-8.18-15.69s-16.3,11.7-18.45,27.26c-2.44,17.2,2.59,28.42,11.1,29.35,7.15.69,13.13-4.71,15.1-14.43,0,0,19.7.92,40.15,3.93-7.1,34.28-31.1,45.19-55.58,42.88" fill="#eaea6e"/><path d="M325.35,139.43c-2.81-2.7-8.05-7.19-6.65-11.46,1.71-5.08,8.15-3.69,8.61,1.4,2.39-4.09,8.57-4.19,8.31,1.33-.21,4.33-6.68,6.49-10.27,8.73" fill="#bbbf0d"/><path d="M291.93,137.63c-2.81-2.7-8-7.19-6.65-11.45,1.72-5.09,8.16-3.7,8.61,1.39,2.4-4.09,8.57-4.19,8.31,1.33-.2,4.33-6.67,6.49-10.27,8.73" fill="#bbbf0d"/><path d="M275.69,161.48c-2.81-2.7-8-7.19-6.65-11.45,1.72-5.09,8.15-3.7,8.61,1.39,2.4-4.09,8.57-4.19,8.31,1.33-.2,4.33-6.67,6.49-10.27,8.73" fill="#bbbf0d"/><path d="M273,191.22c-2.81-2.7-8-7.19-6.65-11.45,1.72-5.09,8.16-3.7,8.61,1.39,2.4-4.09,8.57-4.19,8.31,1.33-.2,4.33-6.67,6.49-10.27,8.73" fill="#bbbf0d"/><path d="M280.08,217.12c-2.81-2.7-8-7.19-6.64-11.46,1.71-5.08,8.15-3.69,8.61,1.4,2.39-4.09,8.56-4.19,8.3,1.33-.2,4.33-6.67,6.49-10.27,8.73" fill="#bbbf0d"/><path d="M310.93,225c-2.81-2.69-8-7.18-6.65-11.45,1.71-5.09,8.15-3.69,8.61,1.4,2.39-4.1,8.57-4.19,8.31,1.32-.21,4.34-6.68,6.5-10.27,8.73" fill="#bbbf0d"/><path d="M331.78,206.5c-2.81-2.7-8-7.19-6.65-11.46,1.71-5.08,8.15-3.69,8.61,1.4,2.39-4.09,8.57-4.19,8.31,1.33-.21,4.33-6.68,6.49-10.27,8.73" fill="#bbbf0d"/><path d="M442.76,230.26c-22.28,5.42-50.23-3-64.72-36.06-15.85-36.17-6.3-80.8,31.37-87.69,36-6.61,55.65,18.6,63.16,53.38,0,0-35.77,6.56-65.52,17.42,4.24,16.89,12.77,29.43,21.6,27.11,8.28-2.23,8-13.92,4.36-23.92,0,0,24.18-7.42,47.27-13,6.35,39.44-16,57.73-37.52,62.73m-29.24-95.94c-6.34,2.18-9.5,11.65-9.34,24.2A226.15,226.15,0,0,0,432.25,151c-3.59-11.41-10.49-19.19-18.73-16.69" fill="#31f7ed"/><path d="M453,146.26c-1.21,4.37-7.77,3.15-6.63-1.51a3.41,3.41,0,1,1,6.63,1.51m-8.43.35c-1.51,1.14-3.22,3.63-1.37,5.38,1.67,1.49,3.66-.17,5-1.43-.06,1.78.52,4.78,2.68,4.12,2-.49,2.26-3.4,1.69-5.14,4.4,4.27,6.07-3.53,2-3.88,4.36.59,3.3-5.72-.53-4,3.64-1.94-.79-7.24-4.05-2.12-.68-1.51-1.2-3.78-3.47-2.95s-1.8,3.24-.43,4.64c-4.63-1.81-6.79,4.75-1.57,5.42" fill="#0cc1b3"/><path d="M432.78,121.5c-1.21,4.37-7.77,3.15-6.63-1.51a3.41,3.41,0,1,1,6.63,1.51m-8.43.35c-1.51,1.13-3.22,3.63-1.37,5.38,1.67,1.49,3.66-.17,5-1.43-.05,1.78.52,4.78,2.68,4.12,2-.49,2.27-3.4,1.69-5.15,4.4,4.28,6.08-3.52,2-3.88,4.36.6,3.3-5.71-.53-4,3.64-1.94-.79-7.24-4.05-2.12-.68-1.51-1.2-3.78-3.47-3s-1.8,3.25-.43,4.64c-4.63-1.8-6.79,4.76-1.57,5.43" fill="#0cc1b3"/><path d="M402.35,128c-1.21,4.37-7.77,3.15-6.63-1.51a3.41,3.41,0,1,1,6.63,1.51m-8.43.35c-1.51,1.13-3.22,3.63-1.37,5.38,1.67,1.49,3.66-.17,5-1.43-.06,1.78.52,4.78,2.68,4.12,2-.49,2.26-3.4,1.69-5.15,4.4,4.28,6.07-3.52,2-3.88,4.36.6,3.3-5.71-.53-4,3.64-1.94-.79-7.24-4.05-2.12-.68-1.51-1.2-3.78-3.47-3s-1.8,3.24-.43,4.63c-4.63-1.8-6.79,4.76-1.57,5.43" fill="#0cc1b3"/><path d="M390.22,154.49c-1.21,4.36-7.77,3.15-6.63-1.51a3.41,3.41,0,1,1,6.63,1.51m-8.44.34c-1.51,1.14-3.22,3.64-1.36,5.39,1.67,1.49,3.66-.17,5-1.43-.06,1.78.52,4.78,2.68,4.12,2-.49,2.26-3.4,1.69-5.15,4.4,4.27,6.07-3.52,2-3.88,4.36.6,3.3-5.71-.54-4,3.65-1.94-.79-7.24-4-2.13-.68-1.5-1.2-3.77-3.48-2.95-2.13.8-1.79,3.25-.42,4.64-4.63-1.8-6.8,4.75-1.58,5.42" fill="#0cc1b3"/><path d="M395.19,185.14c-1.21,4.37-7.77,3.15-6.63-1.51a3.41,3.41,0,1,1,6.63,1.51m-8.43.35c-1.51,1.13-3.22,3.63-1.37,5.38,1.67,1.49,3.66-.17,5-1.43-.06,1.78.52,4.78,2.68,4.12,2-.49,2.26-3.4,1.69-5.15,4.4,4.28,6.07-3.52,2-3.88,4.36.6,3.3-5.71-.53-4,3.64-1.94-.79-7.24-4-2.12-.68-1.51-1.2-3.78-3.47-3s-1.8,3.25-.43,4.64c-4.63-1.8-6.79,4.76-1.57,5.43" fill="#0cc1b3"/><path d="M411.72,212.75c-1.21,4.36-7.77,3.15-6.63-1.51a3.41,3.41,0,1,1,6.63,1.51m-8.43.34c-1.51,1.14-3.22,3.64-1.37,5.39,1.67,1.49,3.66-.17,5-1.43-.05,1.78.52,4.78,2.68,4.12,2-.49,2.27-3.4,1.69-5.15,4.4,4.27,6.08-3.52,2-3.88,4.36.6,3.3-5.71-.53-4,3.64-1.94-.79-7.24-4.05-2.12-.68-1.51-1.2-3.78-3.47-3s-1.8,3.25-.43,4.64c-4.63-1.8-6.79,4.75-1.57,5.42" fill="#0cc1b3"/><path d="M443.3,217.16c-1.2,4.37-7.76,3.16-6.62-1.5a3.4,3.4,0,1,1,6.62,1.5m-8.43.35c-1.51,1.14-3.22,3.64-1.36,5.39,1.67,1.49,3.66-.17,5-1.43-.06,1.78.51,4.78,2.67,4.12,2.05-.49,2.27-3.4,1.69-5.15,4.41,4.27,6.08-3.52,2.05-3.88,4.35.6,3.3-5.71-.54-4,3.65-1.94-.79-7.24-4-2.13-.68-1.5-1.2-3.77-3.48-3s-1.79,3.25-.43,4.64c-4.62-1.8-6.79,4.75-1.57,5.42" fill="#0cc1b3"/><path d="M462.35,190.83c-1.21,4.37-7.77,3.16-6.62-1.5a3.4,3.4,0,1,1,6.62,1.5m-8.43.35c-1.51,1.14-3.22,3.64-1.37,5.39,1.67,1.49,3.66-.17,5-1.43-.05,1.78.52,4.78,2.68,4.12,2.05-.49,2.27-3.4,1.69-5.15,4.41,4.27,6.08-3.52,2-3.88,4.36.6,3.3-5.71-.53-4,3.65-1.93-.79-7.23-4.05-2.12-.67-1.5-1.2-3.77-3.47-2.95s-1.8,3.25-.43,4.64c-4.63-1.8-6.79,4.75-1.57,5.42" fill="#0cc1b3"/><path d="M653.66,231.81c-22.54-4.22-44.56-23.4-44.19-59.48.41-39.49,27.46-76.25,64.64-67.05,35.58,8.79,43.08,39.82,35.64,74.62,0,0-35.31-8.72-66.89-11-3.08,17.14-.46,32.07,8.55,33.58,8.47,1.38,13-9.4,13.81-20,0,0,25.09,3.18,48.42,7.61-10.42,38.56-38.32,46-60,41.77m12.77-99.49C659.75,131.71,653,139,648,150.54a225.44,225.44,0,0,0,28.68,4.69c1.41-11.87-1.67-21.8-10.21-22.91" fill="#76f4bb"/><path d="M698.28,159.64c-2.89,3.48-8.37-.32-5.42-4.1a3.4,3.4,0,1,1,5.42,4.1m-7.83-3.15c-1.84.42-4.43,2-3.45,4.35.91,2,3.4,1.35,5.15.75-.78,1.6-1.49,4.57.75,4.86,2.07.39,3.46-2.17,3.65-4,2.27,5.71,7-.71,3.46-2.69,3.73,2.33,5.36-3.86,1.17-3.9,4.12-.27,2.26-6.93-2.81-3.6,0-1.65.45-3.94-2-4.12s-3,2.22-2.29,4.05c-3.48-3.54-8.15,1.54-3.67,4.3" fill="#42ea9e"/><path d="M690,128.74c-2.9,3.49-8.38-.31-5.42-4.09a3.4,3.4,0,1,1,5.42,4.09m-7.83-3.14c-1.85.41-4.43,2-3.46,4.35.91,2,3.41,1.34,5.15.75-.78,1.6-1.49,4.57.75,4.86,2.07.39,3.47-2.17,3.66-4,2.26,5.7,7-.72,3.46-2.7,3.72,2.33,5.35-3.85,1.17-3.9,4.12-.27,2.25-6.92-2.82-3.6,0-1.65.46-3.93-2-4.12s-3,2.23-2.3,4.06c-3.48-3.55-8.15,1.54-3.66,4.3" fill="#42ea9e"/><path d="M659.6,122.12c-2.89,3.48-8.37-.32-5.41-4.1a3.4,3.4,0,1,1,5.41,4.1M651.78,119c-1.85.42-4.43,2-3.46,4.35.91,2,3.4,1.35,5.15.75-.78,1.6-1.49,4.57.75,4.86,2.07.39,3.46-2.17,3.66-4,2.26,5.71,7-.71,3.45-2.69,3.73,2.33,5.36-3.86,1.17-3.9,4.13-.27,2.26-6.93-2.81-3.6,0-1.65.45-3.94-2-4.12s-3,2.22-2.29,4c-3.48-3.54-8.15,1.54-3.66,4.3" fill="#42ea9e"/><path d="M637.64,141.33c-2.9,3.48-8.38-.32-5.42-4.1a3.4,3.4,0,1,1,5.42,4.1m-7.83-3.15c-1.85.41-4.43,2-3.46,4.35.91,2,3.41,1.34,5.16.75-.79,1.6-1.49,4.57.75,4.86,2.06.39,3.46-2.17,3.65-4,2.26,5.7,7-.72,3.46-2.7,3.73,2.33,5.35-3.85,1.17-3.9,4.12-.27,2.25-6.92-2.82-3.59,0-1.66.46-3.94-2-4.12s-3,2.22-2.3,4c-3.48-3.54-8.14,1.54-3.66,4.3" fill="#42ea9e"/><path d="M629.58,171.31c-2.9,3.49-8.38-.31-5.42-4.09a3.4,3.4,0,1,1,5.42,4.09m-7.83-3.14c-1.85.41-4.43,2-3.46,4.35.91,2,3.41,1.34,5.15.75-.78,1.6-1.49,4.57.75,4.86,2.07.39,3.47-2.17,3.66-4,2.26,5.7,7-.72,3.45-2.7,3.73,2.33,5.36-3.85,1.18-3.9,4.12-.27,2.25-6.92-2.82-3.6,0-1.65.46-3.93-2-4.12s-3,2.23-2.29,4.06c-3.48-3.55-8.15,1.54-3.66,4.3" fill="#42ea9e"/><path d="M633.3,203.28c-2.89,3.48-8.38-.32-5.42-4.1a3.4,3.4,0,1,1,5.42,4.1m-7.83-3.15c-1.84.41-4.43,2-3.46,4.35.91,2,3.41,1.34,5.16.75-.78,1.6-1.49,4.57.75,4.86,2.06.39,3.46-2.17,3.65-4,2.26,5.7,7-.72,3.46-2.7,3.73,2.33,5.35-3.85,1.17-3.9,4.12-.27,2.25-6.92-2.82-3.59,0-1.66.46-3.94-2-4.12s-3,2.22-2.3,4.05c-3.48-3.54-8.14,1.54-3.66,4.3" fill="#42ea9e"/><path d="M660.28,220.28c-2.9,3.49-8.38-.31-5.42-4.09a3.4,3.4,0,1,1,5.42,4.09m-7.83-3.14c-1.85.41-4.43,2-3.46,4.35.91,2,3.41,1.34,5.16.75-.79,1.6-1.49,4.57.75,4.86,2.06.39,3.46-2.17,3.65-4,2.26,5.7,7-.72,3.46-2.7,3.73,2.33,5.35-3.85,1.17-3.9,4.12-.27,2.25-6.92-2.82-3.59,0-1.66.46-3.94-2-4.13s-3,2.23-2.3,4.06c-3.48-3.55-8.14,1.54-3.66,4.3" fill="#42ea9e"/><path d="M688.46,204.11c-2.89,3.48-8.37-.32-5.42-4.1a3.4,3.4,0,1,1,5.42,4.1M680.63,201c-1.84.41-4.43,2-3.45,4.35.91,2,3.4,1.35,5.15.75-.78,1.6-1.49,4.57.75,4.86,2.07.39,3.46-2.17,3.65-4,2.27,5.7,7-.72,3.46-2.7,3.73,2.34,5.36-3.85,1.17-3.9,4.12-.27,2.26-6.92-2.81-3.59,0-1.66.45-3.94-2-4.12s-3,2.22-2.29,4c-3.48-3.54-8.15,1.54-3.67,4.3" fill="#42ea9e"/><path d="M491.54,235c10.47-61.72,6.62-161.73-2.47-211.88,0,0,24.52-2.2,43.53-7.71-4.69,51.52-1.66,164.21,6.06,215.73-22.87,1.65-47.12,3.86-47.12,3.86" fill="#e28827"/><polygon points="512.15 40.03 507.85 43.14 508 37.83 503.71 34.7 508.81 33.21 510.46 28.16 513.46 32.54 518.76 32.55 515.53 36.76 517.15 41.81 512.15 40.03" fill="#f9c06e"/><polygon points="514.79 72.73 508.41 77.34 508.63 69.47 502.27 64.83 509.83 62.6 512.28 55.12 516.73 61.62 524.6 61.63 519.8 67.87 522.21 75.37 514.79 72.73" fill="#f9c06e"/><polygon points="514.9 106.92 510.26 109.5 511.04 104.25 507.15 100.64 512.38 99.75 514.61 94.93 517.08 99.63 522.35 100.27 518.63 104.07 519.66 109.27 514.9 106.92" fill="#f9c06e"/><polygon points="515.32 143.94 508.29 147.48 509.76 139.74 504.22 134.15 512.03 133.15 515.64 126.15 519 133.27 526.77 134.54 521.03 139.94 522.23 147.72 515.32 143.94" fill="#f9c06e"/><polygon points="515.7 177.29 510.96 179.68 511.94 174.46 508.21 170.69 513.47 170.02 515.9 165.3 518.17 170.1 523.41 170.95 519.54 174.59 520.35 179.84 515.7 177.29" fill="#f9c06e"/><polygon points="515.03 213.63 507.86 216.88 509.64 209.21 504.34 203.39 512.18 202.72 516.08 195.88 519.14 203.13 526.85 204.72 520.9 209.87 521.77 217.7 515.03 213.63" fill="#f9c06e"/><path d="M551.61,235c10.47-61.72,6.61-161.73-2.48-211.88,0,0,24.52-2.2,43.53-7.71C588,66.92,591,179.61,598.72,231.13c-22.87,1.65-47.11,3.86-47.11,3.86" fill="#e28827"/><polygon points="572.66 40.53 568.36 43.64 568.5 38.33 564.22 35.2 569.31 33.7 570.96 28.66 573.96 33.04 579.27 33.05 576.03 37.26 577.66 42.31 572.66 40.53" fill="#ffc35a"/><polygon points="575.3 73.22 568.92 77.84 569.14 69.97 562.78 65.32 570.33 63.1 572.78 55.62 577.23 62.11 585.11 62.13 580.3 68.37 582.72 75.86 575.3 73.22" fill="#ffc35a"/><polygon points="575.4 107.41 570.77 110 571.54 104.75 567.65 101.13 572.88 100.24 575.12 95.43 577.58 100.13 582.85 100.77 579.14 104.56 580.16 109.77 575.4 107.41" fill="#ffc35a"/><polygon points="575.83 144.43 568.79 147.97 570.26 140.24 564.72 134.64 572.53 133.65 576.14 126.65 579.5 133.77 587.27 135.04 581.54 140.43 582.73 148.22 575.83 144.43" fill="#ffc35a"/><polygon points="576.2 177.78 571.46 180.17 572.45 174.96 568.71 171.19 573.98 170.51 576.4 165.8 578.67 170.59 583.91 171.45 580.05 175.09 580.86 180.33 576.2 177.78" fill="#ffc35a"/><polygon points="575.54 214.13 568.36 217.37 570.15 209.71 564.85 203.89 572.69 203.22 576.58 196.37 579.65 203.63 587.36 205.22 581.41 210.37 582.28 218.19 575.54 214.13" fill="#ffc35a"/><path d="M786.36,227.12c9.38-39.77,1.34-81.87-10.51-83.94-5.65-1.07-10.63,1.67-14.62,8.47,4.39,31.12,10.1,64.31,14.58,85.73,0,0-19.87.71-38.45,3.22-1.09-39.22-6.1-84.13-13.89-121.26,0,0,19.36-2.88,33.06-9.59.41,3.84.84,8,1.27,12.06a39.89,39.89,0,0,1,31.6-13c33.7,1.71,46.89,48,38.45,120.34-19.83-1.51-41.49-2-41.49-2" fill="#fcf34c"/><path d="M744.17,135.18c1.13-.33,6.84-1.61,7,1.21.13,2.44-6.52,2.23-7.89.49,1.08,2.55.27,7.63-2.14,5-1.25-1.38,0-4.51.4-5.69-1.82,1.5-7,3.54-7.49.77-.43-2.27,5.2-3.22,6.63-3.46-2.32-1.1-5.3-6.67-3.29-8.53,3.46-3.19,6.4,5.49,6,8.25.36-.74,3.75-7.64,5.19-4.1.93,2.25-4.39,6.1-4.39,6.1" fill="#ccbe15"/><path d="M789.45,127.16c1.14-.32,6.84-1.61,7,1.21.13,2.44-6.51,2.24-7.89.49,1.09,2.56.27,7.63-2.14,5-1.25-1.38,0-4.5.41-5.69-1.82,1.5-7,3.54-7.5.78-.43-2.28,5.21-3.22,6.64-3.46-2.33-1.1-5.3-6.67-3.3-8.53,3.46-3.2,6.41,5.48,6,8.25.36-.74,3.75-7.64,5.2-4.11.92,2.26-4.4,6.1-4.4,6.1" fill="#ccbe15"/><path d="M812.41,169.87c1.13-.32,6.83-1.61,7,1.21.12,2.44-6.52,2.24-7.9.49,1.09,2.56.28,7.63-2.13,5-1.25-1.38,0-4.5.4-5.69-1.82,1.5-7,3.54-7.49.78-.43-2.28,5.2-3.22,6.63-3.46-2.32-1.1-5.3-6.67-3.29-8.53,3.46-3.2,6.4,5.48,6,8.25.36-.74,3.75-7.64,5.19-4.11.93,2.26-4.39,6.1-4.39,6.1" fill="#ccbe15"/><path d="M810.12,214.06c1.17.11,6.94,1,6,3.71-.79,2.32-6.88-.34-7.51-2.47.06,2.77-2.58,7.19-3.83,3.81-.64-1.75,1.64-4.19,2.49-5.13-2.25.72-7.79.7-7.25-2.06.45-2.28,6-1.06,7.45-.75-1.75-1.89-2.45-8.16.1-9.15,4.4-1.68,3.92,7.47,2.5,9.89.61-.56,6.32-5.71,6.35-1.89,0,2.44-6.34,4-6.34,4" fill="#ccbe15"/><path d="M749.76,181.74c1.18,0,7,.53,6.29,3.26-.62,2.37-6.89.16-7.67-1.92.26,2.77-2,7.36-3.54,4.09-.77-1.7,1.33-4.31,2.11-5.31-2.19.88-7.72,1.27-7.38-1.52.28-2.3,5.94-1.5,7.37-1.3-1.88-1.75-3-7.95-.56-9.12,4.26-2,4.45,7.16,3.21,9.67.57-.59,5.89-6.15,6.2-2.34.2,2.43-6,4.49-6,4.49" fill="#ccbe15"/><path d="M754.6,223.89c1.17.09,7,.9,6.11,3.59-.74,2.33-6.88-.2-7.56-2.32.12,2.78-2.43,7.24-3.75,3.9-.68-1.74,1.56-4.23,2.39-5.19-2.24.76-7.78.86-7.29-1.91.4-2.28,6-1.18,7.43-.9-1.79-1.85-2.62-8.11-.09-9.15,4.36-1.77,4.07,7.39,2.71,9.83.59-.56,6.2-5.83,6.3-2,.07,2.43-6.25,4.16-6.25,4.16" fill="#ccbe15"/><path d="M747.76,157.43a2.65,2.65,0,1,1-2.89-2.19,2.57,2.57,0,0,1,2.89,2.19" fill="#ccbe15"/><path d="M768.44,129.32a2.65,2.65,0,1,1-2.89-2.19,2.57,2.57,0,0,1,2.89,2.19" fill="#e5da15"/><path d="M806,145a2.66,2.66,0,1,1-2.89-2.19A2.57,2.57,0,0,1,806,145" fill="#ccbe15"/><path d="M812.93,191.78a2.65,2.65,0,1,1-2.89-2.19,2.57,2.57,0,0,1,2.89,2.19" fill="#ccbe15"/><path d="M754,200.32a2.66,2.66,0,1,1-2.89-2.19,2.58,2.58,0,0,1,2.89,2.19" fill="#ccbe15"/><path d="M879,232.85c-31.36-8.47-33.29-54.25-24-101.58-6.34-.26-10.21-.31-10.21-.31,1.6-12.31,4.23-23.7,4.23-23.7l11.57.43A363.89,363.89,0,0,1,873.23,69c18.64,1.85,37.51,4.28,37.51,4.28a235,235,0,0,0-14.62,35.54l27.29.93s-4.39,15.94-5.57,29.94a280.13,280.13,0,0,0-29.4-5.53c-8.67,33.83-9.3,60.87-3.45,63.58,5.83,3,10.26-10.19,11.34-26.14,17.86,7.88,33.95,17,33.95,17-7.3,37.26-29.15,50.34-51.31,44.32" fill="#4bf7c6"/><path d="M891,90.8c0-.21-1.47-.62-3.7-1.06,2.26-.39,3.78-.78,3.76-1s-1.58-.19-3.85,0c2.08-1,3.44-1.8,3.37-2s-1.58.26-3.71,1.09c1.74-1.55,2.85-2.7,2.73-2.87s-1.45.69-3.3,2.09c1.28-2,2.06-3.4,1.89-3.52s-1.22,1.06-2.64,2.92c.72-2.26,1.1-3.84.91-3.91s-.9,1.37-1.79,3.55c.11-2.37.07-4-.13-4s-.4,1-.64,2.68c-.19-1.68-.39-2.75-.56-2.74s-.3,1.65-.26,4c-.83-2.22-1.5-3.7-1.69-3.63s.14,1.68.8,4c-1.38-1.91-2.41-3.14-2.58-3s.58,1.57,1.81,3.6c-1.82-1.45-3.13-2.35-3.27-2.18s1,1.35,2.68,3c-2.14-.89-3.63-1.38-3.72-1.18s1.28,1,3.34,2.09c-2.28-.26-3.85-.31-3.89-.1s1.5.63,3.77,1.08c-2.27.39-3.8.78-3.78,1s1.61.19,3.92,0c-2.09,1-3.47,1.81-3.39,2s1.6-.27,3.77-1.11c-1.75,1.56-2.87,2.71-2.75,2.88s1.48-.71,3.35-2.13c-1.28,2-2.07,3.42-1.9,3.54s1.24-1.09,2.68-3c-.73,2.27-1.11,3.86-.92,3.93s.92-1.39,1.82-3.61c-.12,2.39-.08,4,.13,4s.29-.6.47-1.61c.14,1,.29,1.57.41,1.56s.3-1.62.26-4c.82,2.22,1.49,3.68,1.69,3.61s-.14-1.64-.79-3.91c1.37,1.9,2.4,3.12,2.57,3s-.56-1.54-1.77-3.54c1.81,1.45,3.11,2.33,3.24,2.17s-.93-1.33-2.62-2.91c2.12.88,3.61,1.37,3.7,1.18s-1.25-1-3.29-2.06c2.28.25,3.84.3,3.87.09" fill="#00b77a"/><path d="M879.58,134.38c0-.21-1.47-.62-3.7-1.06,2.26-.4,3.78-.78,3.76-1s-1.58-.19-3.85,0c2.08-1,3.45-1.81,3.37-2s-1.58.26-3.71,1.09c1.74-1.55,2.85-2.7,2.73-2.87s-1.45.69-3.3,2.09c1.28-2,2.06-3.4,1.89-3.52s-1.22,1.06-2.64,2.92c.72-2.26,1.11-3.84.91-3.91s-.9,1.37-1.78,3.55c.11-2.38.06-4-.14-4s-.4,1-.64,2.68c-.19-1.69-.39-2.76-.56-2.74s-.3,1.65-.26,4c-.83-2.22-1.5-3.7-1.69-3.63s.14,1.68.8,4c-1.37-1.91-2.41-3.14-2.57-3s.57,1.57,1.8,3.6c-1.82-1.45-3.13-2.35-3.27-2.18s1,1.35,2.68,3c-2.13-.89-3.63-1.38-3.72-1.18s1.28,1,3.35,2.09c-2.29-.26-3.86-.31-3.9-.1s1.5.63,3.77,1.07c-2.27.4-3.8.79-3.78,1s1.61.19,3.92,0c-2.09,1-3.47,1.81-3.39,2s1.6-.27,3.77-1.11c-1.75,1.55-2.87,2.71-2.75,2.88s1.48-.71,3.35-2.13c-1.28,2-2.06,3.41-1.9,3.54s1.24-1.09,2.68-3c-.72,2.27-1.11,3.86-.92,3.93s.92-1.39,1.82-3.61c-.11,2.39-.07,4,.13,4s.29-.6.47-1.61c.14,1,.29,1.57.41,1.56s.3-1.62.26-4c.83,2.22,1.49,3.68,1.69,3.61s-.14-1.64-.78-3.91c1.36,1.9,2.39,3.12,2.56,3s-.56-1.54-1.77-3.54c1.81,1.44,3.11,2.33,3.25,2.17s-.94-1.33-2.63-2.91c2.12.88,3.61,1.37,3.7,1.18s-1.25-1-3.29-2.07c2.28.26,3.84.31,3.87.1" fill="#00b77a"/><path d="M873.51,176.67c0-.21-1.47-.63-3.7-1.06,2.26-.4,3.78-.78,3.75-1s-1.57-.19-3.85,0c2.08-1,3.45-1.81,3.37-2s-1.57.26-3.71,1.09c1.75-1.55,2.86-2.7,2.74-2.87s-1.46.69-3.3,2.08c1.28-2,2.06-3.39,1.89-3.52s-1.22,1.07-2.64,2.93c.72-2.26,1.1-3.84.91-3.91s-.9,1.37-1.79,3.55c.11-2.38.07-4-.13-4s-.4,1-.64,2.68c-.19-1.69-.4-2.76-.56-2.75s-.3,1.66-.26,4.06c-.83-2.22-1.5-3.7-1.7-3.63s.15,1.68.81,4c-1.38-1.9-2.41-3.13-2.58-3s.58,1.57,1.81,3.59c-1.82-1.44-3.14-2.34-3.27-2.17s1,1.35,2.67,3c-2.13-.89-3.63-1.38-3.71-1.18s1.27,1,3.34,2.09c-2.28-.26-3.86-.31-3.89-.1s1.5.63,3.77,1.07c-2.27.4-3.8.79-3.78,1s1.61.19,3.92,0c-2.09,1-3.47,1.81-3.39,2s1.6-.27,3.77-1.11c-1.75,1.55-2.87,2.71-2.75,2.88s1.48-.71,3.35-2.13c-1.29,2-2.07,3.41-1.9,3.54s1.24-1.09,2.68-3c-.73,2.27-1.11,3.86-.92,3.93s.92-1.39,1.81-3.61c-.11,2.39-.07,4,.14,4s.29-.6.47-1.61c.14,1,.29,1.57.41,1.56s.29-1.62.26-4c.82,2.21,1.49,3.68,1.68,3.61s-.13-1.65-.78-3.91c1.37,1.9,2.39,3.12,2.56,3s-.55-1.54-1.77-3.54c1.82,1.44,3.12,2.33,3.25,2.17s-.94-1.33-2.62-2.91c2.12.88,3.61,1.37,3.69,1.17s-1.25-1-3.28-2.06c2.27.26,3.84.31,3.87.1" fill="#00b77a"/><path d="M890.5,216.93c0-.21-1.47-.62-3.7-1.06,2.26-.39,3.78-.78,3.76-1s-1.58-.19-3.85,0c2.08-1,3.45-1.8,3.37-2s-1.58.26-3.71,1.09c1.74-1.55,2.86-2.7,2.73-2.87s-1.45.69-3.3,2.09c1.28-2,2.06-3.4,1.89-3.52s-1.22,1.06-2.64,2.92c.72-2.26,1.11-3.84.92-3.91s-.91,1.37-1.79,3.55c.11-2.37.07-4-.14-4s-.4,1-.64,2.68c-.19-1.68-.39-2.75-.56-2.74s-.3,1.65-.26,4.05c-.83-2.22-1.5-3.7-1.69-3.63s.14,1.68.8,4c-1.37-1.91-2.4-3.14-2.57-3s.57,1.57,1.8,3.6c-1.82-1.45-3.13-2.35-3.26-2.18s1,1.35,2.67,2.95c-2.13-.89-3.63-1.38-3.72-1.18s1.28,1,3.35,2.09c-2.29-.26-3.86-.31-3.89-.1s1.49.63,3.76,1.08c-2.27.39-3.8.78-3.77,1s1.6.19,3.91,0c-2.09,1-3.47,1.81-3.39,2s1.6-.27,3.77-1.11c-1.75,1.56-2.87,2.71-2.74,2.88s1.47-.71,3.35-2.13c-1.29,2-2.07,3.42-1.91,3.54s1.24-1.09,2.68-3c-.72,2.27-1.11,3.86-.92,3.93s.92-1.39,1.82-3.61c-.11,2.39-.07,4,.13,4s.29-.6.47-1.61c.14,1,.29,1.57.41,1.56s.3-1.62.26-4c.83,2.22,1.49,3.68,1.69,3.61s-.14-1.64-.78-3.91c1.36,1.9,2.39,3.12,2.56,3s-.56-1.54-1.77-3.54c1.81,1.45,3.12,2.33,3.25,2.17s-.94-1.33-2.63-2.91c2.12.88,3.61,1.37,3.7,1.18s-1.25-1-3.29-2.06c2.28.25,3.84.3,3.87.09" fill="#00b77a"/><path d="M919.37,193.5c0-.21-1.47-.63-3.71-1.07,2.26-.39,3.79-.78,3.76-1s-1.58-.19-3.85,0c2.08-1,3.45-1.81,3.37-2s-1.57.26-3.71,1.09c1.74-1.55,2.86-2.7,2.73-2.86s-1.45.69-3.3,2.08c1.28-2,2.06-3.39,1.9-3.52s-1.22,1.07-2.64,2.93c.72-2.26,1.1-3.84.91-3.91s-.9,1.36-1.79,3.55c.11-2.38.07-4-.14-4s-.4,1-.64,2.67c-.18-1.68-.39-2.75-.56-2.74s-.29,1.66-.26,4.06c-.82-2.23-1.49-3.7-1.69-3.63s.14,1.68.8,4c-1.37-1.91-2.4-3.13-2.57-3s.57,1.57,1.8,3.59c-1.82-1.45-3.13-2.34-3.26-2.18s1,1.35,2.67,2.95c-2.13-.88-3.63-1.37-3.71-1.18s1.27,1,3.34,2.09c-2.29-.25-3.86-.31-3.89-.09s1.5.63,3.77,1.07c-2.27.39-3.81.78-3.78,1s1.61.19,3.91,0c-2.09,1-3.46,1.82-3.39,2s1.61-.26,3.78-1.11c-1.76,1.56-2.88,2.72-2.75,2.88s1.47-.7,3.35-2.12c-1.29,2-2.07,3.41-1.91,3.54s1.25-1.1,2.69-3c-.73,2.27-1.12,3.86-.92,3.93s.91-1.4,1.81-3.61c-.11,2.38-.07,4,.13,4s.3-.59.47-1.6c.15,1,.29,1.57.42,1.56s.29-1.63.26-4c.82,2.21,1.49,3.68,1.68,3.61s-.13-1.65-.78-3.91c1.37,1.9,2.39,3.12,2.56,3s-.56-1.55-1.77-3.54c1.81,1.44,3.12,2.33,3.25,2.16s-.94-1.32-2.62-2.9c2.12.88,3.61,1.37,3.69,1.17s-1.25-1-3.28-2.06c2.27.25,3.84.31,3.87.1" fill="#00b77a"/><path d="M881.07,101.65c-.47,2.43-1.05,5.09-1.76,7.67l.29,0c1.83-1.73,3.89-2.87,5.82-4.47.2,0,.27.13.34.25-1.49,1.83-4,3-5.44,4.63a9.38,9.38,0,0,0-1.44,1.1c2.8.83,6.1,1.37,8.61,2.12-.48.82-1.4.41-2.14.31-2-.6-3.75-.72-5.83-1.4l-.12.07c1.28,3,3.81,5.38,4.1,8.55a.33.33,0,0,1-.37.06c-1.22-3-3-5.37-4.51-8.18-1.17,3.46-1.54,7-3,10.57a2,2,0,0,1-.29-1.35c.94-3.38,1.63-6.6,2.46-10l-.81.52c-2.12,1.55-3.83,4.17-6.5,4.76l-.14-.09c.32-.77,1.38-.9,1.89-1.61l4.38-3.76a6.88,6.88,0,0,0-2.39-.66c-1.48-.62-3.14-.7-4.55-1.57-.1-.19-.34-.42-.13-.63,1-.08,1.91.69,3.13.92,1.56.33,3.12.81,4.84,1.08a85.91,85.91,0,0,1-4-7.83c.37-.38.74.15.92.41,1.21,2.31,2.32,4.59,3.77,6.81l.14-.18c.69-3.22,1.75-6.66,2.38-9.69,1.19-.2.14,1.16.39,1.55" fill="#00b77a"/><path d="M869.76,144.11c-.17,2.47-.41,5.19-.8,7.84h.3c1.59-1.95,3.49-3.34,5.21-5.17a.38.38,0,0,1,.37.22c-1.25,2-3.56,3.48-4.82,5.26-.42.46-1,.79-1.29,1.28,2.88.47,6.22.59,8.8,1-.37.87-1.33.58-2.08.57-2.05-.35-3.82-.25-6-.66l-.11.08c1.64,2.79,4.44,4.86,5.13,8a.33.33,0,0,1-.36.1c-1.58-2.83-3.67-4.95-5.5-7.56-.72,3.59-.65,7.18-1.69,10.87a2,2,0,0,1-.46-1.31c.51-3.46.79-6.74,1.2-10.22L867,155c-1.91,1.8-3.28,4.62-5.86,5.53l-.15-.07c.23-.8,1.26-1.06,1.68-1.83l3.87-4.27a6.72,6.72,0,0,0-2.45-.36c-1.54-.43-3.2-.31-4.7-1-.13-.17-.4-.37-.22-.6,1-.21,2,.45,3.23.52,1.58.13,3.19.42,4.94.47a82.19,82.19,0,0,1-4.95-7.27c.32-.43.75,0,1,.29,1.49,2.14,2.88,4.27,4.59,6.29l.12-.19c.28-3.29.9-6.84,1.15-9.91,1.16-.35.29,1.13.59,1.48" fill="#00b77a"/><path d="M866,188.57c1.1,2.22,2.25,4.69,3.24,7.18l.25-.15c.4-2.49,1.36-4.64,1.93-7.08a.36.36,0,0,1,.42,0c-.07,2.35-1.34,4.79-1.54,7a8.88,8.88,0,0,0-.47,1.74c2.73-1,5.68-2.59,8.13-3.51.12.95-.86,1.17-1.51,1.54-2,.72-3.43,1.7-5.5,2.41l-.05.13c2.82,1.59,6.28,2,8.44,4.34a.37.37,0,0,1-.26.27c-2.79-1.66-5.66-2.46-8.54-3.8,1.16,3.47,3,6.54,4,10.26a1.94,1.94,0,0,1-1-.91c-1.3-3.25-2.7-6.23-4.08-9.44l-.33.9c-.76,2.52-.53,5.64-2.31,7.73h-.16c-.21-.81.56-1.55.53-2.43l1.22-5.63c-.8,0-1.47.58-2.3.91-1.55.4-2.93,1.34-4.57,1.49-.2-.09-.53-.12-.49-.41.79-.7,1.94-.61,3-1.16,1.44-.68,3-1.24,4.51-2.07a84.57,84.57,0,0,1-7.92-3.82c.06-.53.68-.33,1-.23,2.36,1.11,4.63,2.26,7.12,3.15v-.23c-1.4-3-2.64-6.37-4-9.15.82-.89.81.83,1.24,1" fill="#00b77a"/><path d="M893.79,199.76c1.79,1.71,3.71,3.64,5.5,5.64l.18-.23c-.48-2.48-.32-4.83-.62-7.32a.37.37,0,0,1,.4-.14c.74,2.23.39,5,1,7.08a8.57,8.57,0,0,0,.15,1.8c2.21-1.91,4.44-4.39,6.44-6.09.43.85-.41,1.4-.9,2-1.59,1.35-2.64,2.77-4.33,4.15v.14c3.19.53,6.58-.29,9.41,1.18a.32.32,0,0,1-.15.34c-3.19-.6-6.16-.36-9.32-.63,2.28,2.85,5.08,5.11,7.25,8.28a2,2,0,0,1-1.3-.5c-2.33-2.61-4.67-4.93-7.07-7.47v1c.15,2.63,1.43,5.48.48,8.05l-.15.06c-.47-.68,0-1.65-.33-2.46l-.79-5.71c-.76.27-1.18,1.05-1.85,1.65-1.31.9-2.29,2.26-3.78,3-.21,0-.54.06-.6-.23.5-.92,1.62-1.23,2.47-2.13,1.12-1.13,2.37-2.19,3.52-3.49a81.61,81.61,0,0,1-8.74-.88c-.13-.51.52-.53.84-.54,2.6.23,5.12.53,7.76.51l-.06-.21c-2.34-2.33-4.67-5.08-6.87-7.25.48-1.11,1.05.51,1.52.51" fill="#00b77a"/></svg>