<?xml version="1.0" encoding="utf-8"?>
<!-- Generator: Adobe Illustrator 26.0.0, SVG Export Plug-In . SVG Version: 6.00 Build 0)  -->
<svg version="1.1" id="Layer_1" xmlns="http://www.w3.org/2000/svg" xmlns:xlink="http://www.w3.org/1999/xlink" x="0px" y="0px"
	 viewBox="0 0 140 140.82" style="enable-background:new 0 0 140 140.82;" xml:space="preserve">
<style type="text/css">
	.st0{fill:#FFFFFF;}
	.st1{fill:#2381C4;}
	.st2{fill:#0E4168;}
	.st3{fill:#07518D;}
	.st4{fill:#D7D7D7;}
</style>
<g>
	<g>
		<circle class="st0" cx="70" cy="70.41" r="65"/>
		<circle class="st1" cx="70" cy="70.41" r="58.23"/>
		<circle class="st2" cx="67.99" cy="72.42" r="56.21"/>
		<circle class="st3" cx="69.17" cy="71.24" r="55.03"/>
	</g>
	<rect x="52.1" y="57.07" class="st4" width="6.35" height="36.27"/>
	<polygon class="st4" points="89.94,86.35 83.59,86.35 83.59,50.09 89.87,50.09 	"/>
	<ellipse class="st4" cx="47.63" cy="92.67" rx="10.82" ry="8.82"/>
	<ellipse class="st4" cx="79.06" cy="86.35" rx="10.82" ry="8.82"/>
	<path class="st4" d="M56.32,47.64l26.86-6.27c2.94-0.68,5.87,1.14,6.56,4.08c0.09,0.41,0.14,0.82,0.14,1.24v8.84L52.1,62.07v-9.11
		C52.1,50.42,53.85,48.22,56.32,47.64z"/>
	<rect x="51.46" y="55.7" class="st0" width="6.35" height="36.27"/>
	<polygon class="st0" points="89.3,84.98 82.95,84.98 82.95,48.71 89.23,48.71 	"/>
	<ellipse class="st0" cx="46.99" cy="91.3" rx="10.82" ry="8.82"/>
	<ellipse class="st0" cx="78.41" cy="84.98" rx="10.82" ry="8.82"/>
	<path class="st0" d="M55.67,46.27L82.53,40c2.93-0.69,5.87,1.14,6.55,4.07c0.1,0.41,0.14,0.82,0.14,1.24v8.84l-37.77,6.54v-9.11
		C51.46,49.05,53.2,46.84,55.67,46.27z"/>
</g>
</svg>
