<?xml version="1.0" encoding="utf-8"?>
<!-- Generator: Adobe Illustrator 26.0.0, SVG Export Plug-In . SVG Version: 6.00 Build 0)  -->
<svg version="1.1" id="Layer_1" xmlns="http://www.w3.org/2000/svg" xmlns:xlink="http://www.w3.org/1999/xlink" x="0px" y="0px"
	 viewBox="0 0 140 140.82" style="enable-background:new 0 0 140 140.82;" xml:space="preserve">
<style type="text/css">
	.st0{fill:#FFFFFF;}
	.st1{fill:#2381C4;}
	.st2{fill:#0E4168;}
	.st3{fill:#07518D;}
	.st4{fill:#D7D7D7;}
</style>
<g>
	<circle class="st0" cx="70" cy="70.41" r="65.15"/>
	<circle class="st1" cx="70" cy="70.41" r="58.36"/>
	<circle class="st2" cx="67.98" cy="72.43" r="56.35"/>
	<circle class="st3" cx="69.17" cy="71.25" r="55.16"/>
	<rect x="52.06" y="57.04" class="st4" width="6.36" height="36.35"/>
	<polygon class="st4" points="89.99,86.39 83.62,86.39 83.62,50.04 89.92,50.04 	"/>
	<ellipse class="st4" cx="47.58" cy="92.73" rx="10.84" ry="8.84"/>
	<ellipse class="st4" cx="79.08" cy="86.39" rx="10.84" ry="8.84"/>
	<path class="st4" d="M56.27,47.59l26.92-6.28c2.94-0.69,5.88,1.13,6.58,4.07c0.1,0.41,0.15,0.83,0.15,1.26v8.86l-37.86,6.55v-9.14
		C52.06,50.38,53.8,48.17,56.27,47.59z"/>
	<rect x="51.41" y="55.66" class="st0" width="6.36" height="36.35"/>
	<polygon class="st0" points="89.34,85.01 82.98,85.01 82.98,48.67 89.28,48.67 	"/>
	<ellipse class="st0" cx="46.94" cy="91.35" rx="10.84" ry="8.84"/>
	<ellipse class="st0" cx="78.44" cy="85.01" rx="10.84" ry="8.84"/>
	<path class="st0" d="M55.64,46.21l26.92-6.28c2.94-0.69,5.88,1.13,6.58,4.07c0.1,0.41,0.15,0.83,0.15,1.26v8.86l-37.87,6.55v-9.14
		C51.41,49,53.17,46.79,55.64,46.21z"/>
	
		<rect x="67.27" y="17.08" transform="matrix(0.8399 0.5428 -0.5428 0.8399 50.4224 -26.6525)" class="st0" width="6.23" height="110.11"/>
</g>
</svg>
