<?xml version="1.0" encoding="utf-8"?>
<!-- Generator: Adobe Illustrator 26.0.0, SVG Export Plug-In . SVG Version: 6.00 Build 0)  -->
<svg version="1.1" id="Layer_1" xmlns="http://www.w3.org/2000/svg" xmlns:xlink="http://www.w3.org/1999/xlink" x="0px" y="0px"
	 viewBox="0 0 193 193" style="enable-background:new 0 0 193 193;" xml:space="preserve">
<style type="text/css">
	.st0{fill:#FFFFFF;}
	.st1{fill:#2583C5;}
	.st2{fill:#0D4168;}
	.st3{fill:#0A528E;}
	.st4{fill:#D8D9D8;}
	.st5{fill:#FCFDFB;}
</style>
<g>
	<g>
		<circle class="st0" cx="96.5" cy="96.5" r="91.32"/>
		<circle class="st1" cx="96.5" cy="96.5" r="81.81"/>
		<circle class="st2" cx="93.67" cy="99.33" r="78.98"/>
		<circle class="st3" cx="95.33" cy="97.67" r="77.32"/>
	</g>
	<path class="st4" d="M125.37,87.3L82.25,62.4c-7.08-4.09-15.94,1.02-15.94,9.2v49.8c0,8.18,8.85,13.29,15.94,9.2l43.12-24.9
		C132.46,101.61,132.46,91.39,125.37,87.3z"/>
	<path class="st5" d="M125.11,85.71L82.2,61.25c-7.08-4.04-15.89,1.08-15.89,9.23v48.91c0,8.15,8.8,13.27,15.89,9.23l42.92-24.46
		C132.27,100.1,132.27,89.79,125.11,85.71z"/>
</g>
</svg>
