<?xml version="1.0" encoding="utf-8"?>
<!-- Generator: Adobe Illustrator 26.0.0, SVG Export Plug-In . SVG Version: 6.00 Build 0)  -->
<svg version="1.1" id="Layer_1" xmlns="http://www.w3.org/2000/svg" xmlns:xlink="http://www.w3.org/1999/xlink" x="0px" y="0px"
	 viewBox="0 0 140 140.82" style="enable-background:new 0 0 140 140.82;" xml:space="preserve">
<style type="text/css">
	.st0{fill:#FFFFFF;}
	.st1{fill:#1783CC;}
	.st2{fill:#074068;}
	.st3{fill:#08518E;}
	.st4{fill:#D8D8D8;}
	.st5{fill:#FBFCFA;}
</style>
<g>
	<g>
		<circle class="st0" cx="70" cy="70.41" r="65"/>
		<circle class="st1" cx="70" cy="70.41" r="58.23"/>
		<circle class="st2" cx="67.99" cy="72.42" r="56.22"/>
		<circle class="st3" cx="69.17" cy="71.24" r="55.04"/>
	</g>
	<g>
		<g>
			<path class="st4" d="M71.13,44.17c0,0,28.66,19.21,28.66,26.14S80.06,94.81,71.13,98.65c-8.34,3.58-10.82-3.66-8.42-6.83
				C65.45,87.99,75.13,79,78.18,75.38c0.94-1.18,3.54-3.78,0.83-7.09c-2.72-3.31-15.12-15.23-15.12-15.23s-4.57-4.58-1.54-8.38
				C65.78,40.39,71.13,44.17,71.13,44.17z"/>
			<path class="st4" d="M52.79,52.95c0,0,17.24,11.83,17.24,18.38c-1.3,8.04-23.05,25.33-28.81,18.12
				c-5.71-9.76,15.18-13.38,7.68-21.85c-3.81-4.03-6.85-6.73-6.85-6.73s-4.2-4.07,0.35-7.91C47.12,48.97,52.79,52.95,52.79,52.95z"
				/>
		</g>
		<g>
			<path class="st5" d="M71.13,42.74c0,0,28.66,19.21,28.66,26.14S80.06,93.39,71.13,97.22c-8.34,3.58-10.82-3.66-8.42-6.83
				c2.74-3.83,12.42-12.82,15.47-16.44c0.94-1.18,3.54-3.78,0.83-7.09c-2.72-3.31-15.12-15.23-15.12-15.23s-4.57-4.58-1.54-8.38
				C65.78,38.96,71.13,42.74,71.13,42.74z"/>
			<path class="st5" d="M52.79,51.52c0,0,17.24,11.83,17.24,18.38c-1.3,8.04-23.05,25.33-28.81,18.12
				c-5.71-9.76,15.18-13.38,7.68-21.85c-3.81-4.03-6.85-6.73-6.85-6.73s-4.2-4.07,0.35-7.91C47.12,47.55,52.79,51.52,52.79,51.52z"
				/>
		</g>
	</g>
</g>
</svg>
